<svg width="57" height="56" viewBox="0 0 57 56" fill="none" xmlns="http://www.w3.org/2000/svg">
<path d="M37.3561 37.3333L28.0228 28L18.6895 37.3333" stroke="#606266" stroke-width="2" stroke-linecap="round" stroke-linejoin="round"/>
<path d="M28.0234 28V49" stroke="#606266" stroke-width="2" stroke-linecap="round" stroke-linejoin="round"/>
<path d="M47.5995 42.9101C49.8753 41.6694 51.6731 39.7062 52.7092 37.3303C53.7453 34.9543 53.9607 32.301 53.3213 29.7891C52.682 27.2771 51.2243 25.0497 49.1784 23.4582C47.1325 21.8667 44.6149 21.0018 42.0229 21.0001H39.0829C38.3766 18.2684 37.0602 15.7322 35.2327 13.5824C33.4052 11.4326 31.1142 9.72511 28.5318 8.58821C25.9493 7.45131 23.1428 6.91463 20.3231 7.01852C17.5035 7.12241 14.744 7.86416 12.2523 9.18801C9.76052 10.5119 7.60132 12.3834 5.93697 14.6618C4.27263 16.9403 3.14647 19.5664 2.64314 22.3427C2.13982 25.119 2.27244 27.9734 3.03102 30.6911C3.78961 33.4088 5.15442 35.9191 7.02286 38.0335" stroke="#606266" stroke-width="2" stroke-linecap="round" stroke-linejoin="round"/>
<path d="M37.3561 37.3333L28.0228 28L18.6895 37.3333" stroke="#606266" stroke-width="2" stroke-linecap="round" stroke-linejoin="round"/>
</svg>
