<svg width="511" height="327" viewBox="0 0 511 327" fill="none" xmlns="http://www.w3.org/2000/svg">
<g clip-path="url(#clip0_564_91695)">
<path d="M90.8872 323.644C95.7601 319.528 98.72 313.025 97.9438 306.694C97.1675 300.363 92.3598 294.543 86.1234 293.199C79.887 291.854 72.778 295.576 70.8838 301.666C69.8414 289.924 68.6401 277.689 62.3956 267.69C56.7414 258.635 46.9482 252.156 36.3346 250.997C25.721 249.838 14.5462 254.216 7.92693 262.591C1.30761 270.966 -0.313118 283.142 4.32288 292.758C7.73806 299.841 14.03 305.113 20.6224 309.401C41.9249 323.143 67.4744 328.731 92.5701 325.137L90.8872 323.644Z" fill="#F2F2F2"/>
<path d="M18.4219 254.458C27.1794 261.59 35.2135 269.566 42.408 278.271C49.6037 286.967 55.9387 296.34 61.324 306.26C64.3342 311.824 67.0383 317.548 69.4242 323.407C69.9107 324.599 67.9749 325.118 67.4939 323.939C63.2677 313.61 58.0392 303.72 51.8833 294.41C45.7572 285.134 38.7456 276.474 30.947 268.552C26.5361 264.074 21.8821 259.841 17.0063 255.873C16.0069 255.06 17.4307 253.651 18.4219 254.458Z" fill="white"/>
<path d="M381.681 0.480469H117.781C116.776 0.481584 115.812 0.881487 115.101 1.59244C114.389 2.3034 113.989 3.26735 113.988 4.27279V183.054C113.989 184.059 114.389 185.023 115.101 185.734C115.812 186.445 116.776 186.845 117.781 186.846H381.681C382.686 186.845 383.651 186.445 384.362 185.734C385.073 185.023 385.473 184.059 385.474 183.054V4.27279C385.473 3.26735 385.073 2.3034 384.362 1.59244C383.651 0.881487 382.686 0.481584 381.681 0.480469ZM384.39 183.054C384.39 183.772 384.104 184.461 383.596 184.969C383.088 185.477 382.399 185.762 381.681 185.763H117.781C117.063 185.762 116.374 185.477 115.866 184.969C115.358 184.461 115.072 183.772 115.072 183.054V4.27279C115.072 3.55446 115.358 2.86564 115.866 2.3577C116.374 1.84976 117.063 1.56428 117.781 1.56399H381.681C382.399 1.56428 383.088 1.84976 383.596 2.3577C384.104 2.86564 384.39 3.55446 384.39 4.27279V183.054Z" fill="#3F3D56"/>
<path d="M384.932 15.6719H114.53V16.7554H384.932V15.6719Z" fill="#3F3D56"/>
<path d="M123.743 11.8576C125.538 11.8576 126.994 10.4022 126.994 8.60701C126.994 6.81177 125.538 5.35645 123.743 5.35645C121.947 5.35645 120.491 6.81177 120.491 8.60701C120.491 10.4022 121.947 11.8576 123.743 11.8576Z" fill="#3F3D56"/>
<path d="M133.09 11.8576C134.886 11.8576 136.342 10.4022 136.342 8.60701C136.342 6.81177 134.886 5.35645 133.09 5.35645C131.295 5.35645 129.839 6.81177 129.839 8.60701C129.839 10.4022 131.295 11.8576 133.09 11.8576Z" fill="#3F3D56"/>
<path d="M142.438 11.8576C144.234 11.8576 145.689 10.4022 145.689 8.60701C145.689 6.81177 144.234 5.35645 142.438 5.35645C140.642 5.35645 139.187 6.81177 139.187 8.60701C139.187 10.4022 140.642 11.8576 142.438 11.8576Z" fill="#3F3D56"/>
<path d="M272.49 40.8415H226.972C225.966 40.8415 225.001 40.4419 224.29 39.7307C223.578 39.0195 223.179 38.0549 223.179 37.0492C223.179 36.0434 223.578 35.0788 224.29 34.3676C225.001 33.6564 225.966 33.2568 226.972 33.2568H272.49C273.497 33.2568 274.461 33.6564 275.173 34.3676C275.884 35.0788 276.284 36.0434 276.284 37.0492C276.284 38.0549 275.884 39.0195 275.173 39.7307C274.461 40.4419 273.497 40.8415 272.49 40.8415Z" fill="#CCCCCC"/>
<path d="M303.649 59.2614H195.814C194.808 59.2614 193.843 58.8619 193.132 58.1507C192.42 57.4395 192.021 56.4749 192.021 55.4691C192.021 54.4633 192.42 53.4987 193.132 52.7875C193.843 52.0763 194.808 51.6768 195.814 51.6768H303.649C304.655 51.6768 305.62 52.0763 306.332 52.7875C307.043 53.4987 307.443 54.4633 307.443 55.4691C307.443 56.4749 307.043 57.4395 306.332 58.1507C305.62 58.8619 304.655 59.2614 303.649 59.2614Z" fill="#CCCCCC"/>
<path d="M335.99 172.463C331.902 172.463 327.907 171.251 324.508 168.981C321.109 166.71 318.461 163.484 316.896 159.708C315.332 155.933 314.923 151.778 315.72 147.77C316.518 143.762 318.486 140.081 321.376 137.191C324.267 134.302 327.949 132.334 331.958 131.537C335.967 130.739 340.122 131.149 343.898 132.712C347.675 134.276 350.902 136.925 353.173 140.322C355.444 143.72 356.656 147.715 356.656 151.801C356.65 157.279 354.471 162.531 350.596 166.404C346.722 170.278 341.469 172.457 335.99 172.463ZM335.99 132.565C332.184 132.565 328.464 133.693 325.3 135.807C322.136 137.92 319.669 140.925 318.213 144.44C316.757 147.955 316.376 151.823 317.118 155.554C317.861 159.286 319.693 162.713 322.384 165.404C325.075 168.094 328.504 169.926 332.236 170.668C335.968 171.411 339.837 171.03 343.353 169.574C346.869 168.118 349.874 165.652 351.988 162.489C354.102 159.325 355.231 155.606 355.231 151.801C355.225 146.701 353.196 141.812 349.589 138.205C345.982 134.599 341.091 132.57 335.99 132.565Z" fill="#3F3D56"/>
<path d="M162.728 117.126C158.641 117.126 154.645 115.914 151.246 113.644C147.848 111.374 145.199 108.147 143.635 104.371C142.07 100.596 141.661 96.4415 142.459 92.4335C143.256 88.4255 145.224 84.744 148.115 81.8544C151.005 78.9648 154.687 76.997 158.696 76.1998C162.705 75.4025 166.86 75.8117 170.637 77.3755C174.413 78.9393 177.641 81.5876 179.912 84.9854C182.182 88.3832 183.394 92.3779 183.394 96.4644C183.388 101.942 181.209 107.194 177.335 111.068C173.46 114.941 168.207 117.12 162.728 117.126ZM162.728 77.2277C158.922 77.2277 155.202 78.3559 152.038 80.4697C148.874 82.5834 146.408 85.5878 144.951 89.1028C143.495 92.6179 143.114 96.4857 143.857 100.217C144.599 103.949 146.431 107.376 149.122 110.067C151.813 112.757 155.242 114.589 158.974 115.331C162.707 116.074 166.575 115.693 170.091 114.237C173.607 112.781 176.612 110.315 178.726 107.152C180.841 103.988 181.969 100.269 181.969 96.4644C181.963 91.3643 179.934 86.4747 176.327 82.8684C172.72 79.262 167.829 77.2335 162.728 77.2277Z" fill="#3F3D56"/>
<path d="M170.756 107.417C170.215 107.418 169.696 107.203 169.313 106.821C168.93 106.439 168.715 105.92 168.714 105.379V93.7862C168.714 93.2457 168.929 92.7276 169.312 92.3454C169.694 91.9633 170.212 91.7483 170.753 91.7477H170.756C171.297 91.7483 171.815 91.9633 172.197 92.3454C172.58 92.7276 172.795 93.2457 172.795 93.7862V105.379C172.795 105.919 172.58 106.438 172.197 106.82C171.815 107.202 171.297 107.417 170.756 107.417ZM165.433 107.417C165.163 107.42 164.895 107.37 164.645 107.268C164.395 107.167 164.167 107.018 163.975 106.828C163.782 106.639 163.63 106.413 163.525 106.165C163.42 105.916 163.366 105.649 163.365 105.379V99.1343C163.365 98.5938 163.58 98.0757 163.962 97.6936C164.345 97.3115 164.863 97.0966 165.403 97.096H165.433C165.973 97.0966 166.491 97.3115 166.874 97.6936C167.256 98.0757 167.471 98.5938 167.471 99.1343V105.379C167.471 105.919 167.256 106.438 166.874 106.82C166.491 107.202 165.973 107.417 165.433 107.417ZM160.058 107.417C159.517 107.418 158.997 107.203 158.615 106.821C158.232 106.439 158.016 105.92 158.015 105.379V87.5502C158.016 87.0098 158.231 86.4916 158.613 86.1095C158.995 85.7273 159.513 85.5123 160.054 85.5117H160.058C160.598 85.5123 161.116 85.7273 161.499 86.1095C161.881 86.4916 162.096 87.0098 162.096 87.5502V105.379C162.096 105.919 161.881 106.438 161.499 106.82C161.116 107.202 160.598 107.417 160.058 107.417ZM154.703 107.417C154.435 107.418 154.17 107.365 153.922 107.263C153.674 107.16 153.449 107.01 153.259 106.821C153.07 106.631 152.92 106.406 152.817 106.159C152.715 105.911 152.662 105.645 152.662 105.377L152.664 102.7C152.665 102.159 152.88 101.641 153.262 101.259C153.645 100.877 154.163 100.662 154.704 100.662C155.245 100.663 155.763 100.877 156.145 101.26C156.528 101.642 156.742 102.161 156.742 102.701V105.379C156.741 105.919 156.526 106.438 156.144 106.82C155.762 107.202 155.244 107.417 154.703 107.417Z" fill="#62B0E5"/>
<path d="M476.234 325.162C472.146 325.162 468.151 323.95 464.752 321.68C461.354 319.41 458.705 316.183 457.141 312.407C455.576 308.632 455.167 304.478 455.964 300.47C456.762 296.462 458.73 292.78 461.62 289.891C464.511 287.001 468.193 285.033 472.202 284.236C476.211 283.439 480.366 283.848 484.143 285.412C487.919 286.975 491.147 289.624 493.417 293.022C495.688 296.419 496.9 300.414 496.9 304.501C496.894 309.978 494.715 315.23 490.84 319.104C486.966 322.977 481.713 325.156 476.234 325.162ZM476.234 285.264C472.428 285.264 468.708 286.392 465.544 288.506C462.38 290.62 459.914 293.624 458.457 297.139C457.001 300.654 456.62 304.522 457.362 308.253C458.105 311.985 459.937 315.413 462.628 318.103C465.319 320.793 468.748 322.625 472.48 323.368C476.213 324.11 480.081 323.729 483.597 322.273C487.113 320.817 490.118 318.351 492.232 315.188C494.347 312.024 495.475 308.305 495.475 304.501C495.469 299.4 493.44 294.511 489.833 290.905C486.226 287.298 481.335 285.27 476.234 285.264Z" fill="#3F3D56"/>
<path d="M481.931 300.915L477.902 307.074C478.225 307.467 478.402 307.96 478.4 308.469C478.399 309.056 478.165 309.619 477.749 310.034C477.334 310.449 476.77 310.682 476.183 310.682C475.596 310.682 475.032 310.449 474.617 310.034C474.201 309.619 473.967 309.056 473.966 308.469C473.967 308.327 473.98 308.184 474.005 308.044L471.345 306.496C471.002 306.828 470.56 307.04 470.086 307.1C469.612 307.16 469.131 307.064 468.716 306.827L465.887 309.477V312.119C465.888 312.641 466.096 313.142 466.465 313.512C466.834 313.882 467.334 314.09 467.857 314.093H484.607C485.13 314.09 485.631 313.882 486.001 313.512C486.371 313.142 486.579 312.642 486.581 312.119V302.323L483.875 300.523C483.604 300.735 483.287 300.88 482.949 300.948C482.612 301.016 482.263 301.004 481.931 300.915H481.931Z" fill="#62B0E5"/>
<path d="M469.81 302.701C470.397 302.701 470.961 302.934 471.377 303.35C471.793 303.766 472.026 304.329 472.026 304.917V305.202L474.8 306.755C475.196 306.43 475.692 306.253 476.204 306.253C476.366 306.254 476.527 306.271 476.685 306.304L480.723 300.055C480.521 299.772 480.389 299.445 480.338 299.101C480.286 298.757 480.317 298.406 480.427 298.076C480.537 297.746 480.724 297.447 480.971 297.203C481.219 296.959 481.521 296.777 481.852 296.671C482.183 296.565 482.535 296.54 482.878 296.596C483.221 296.652 483.547 296.788 483.827 296.994C484.108 297.199 484.336 297.468 484.493 297.778C484.65 298.088 484.731 298.431 484.731 298.779C484.73 298.955 484.71 299.131 484.671 299.302L486.581 300.578V296.882C486.579 296.359 486.371 295.858 486.001 295.489C485.631 295.119 485.13 294.91 484.607 294.908H467.857C467.334 294.91 466.834 295.119 466.465 295.489C466.096 295.859 465.888 296.36 465.887 296.882V307.469L467.733 305.7C467.61 305.365 467.569 305.006 467.614 304.652C467.66 304.299 467.79 303.962 467.994 303.669C468.198 303.377 468.469 303.138 468.786 302.973C469.102 302.808 469.453 302.722 469.81 302.722V302.701Z" fill="#62B0E5"/>
<path d="M250.551 117.126C246.464 117.126 242.468 115.914 239.07 113.644C235.671 111.374 233.022 108.147 231.458 104.371C229.894 100.596 229.484 96.4415 230.282 92.4335C231.079 88.4255 233.048 84.744 235.938 81.8544C238.828 78.9648 242.511 76.997 246.519 76.1998C250.528 75.4025 254.684 75.8117 258.46 77.3755C262.236 78.9393 265.464 81.5876 267.735 84.9854C270.006 88.3832 271.218 92.3779 271.218 96.4644C271.212 101.942 269.032 107.194 265.158 111.068C261.283 114.941 256.03 117.12 250.551 117.126ZM250.551 77.2277C246.746 77.2277 243.026 78.3559 239.861 80.4697C236.697 82.5834 234.231 85.5878 232.775 89.1028C231.318 92.6179 230.937 96.4857 231.68 100.217C232.422 103.949 234.255 107.376 236.946 110.067C239.637 112.757 243.065 114.589 246.797 115.331C250.53 116.074 254.399 115.693 257.915 114.237C261.43 112.781 264.435 110.315 266.55 107.152C268.664 103.988 269.792 100.269 269.792 96.4644C269.787 91.3643 267.758 86.4747 264.15 82.8684C260.543 79.262 255.653 77.2335 250.551 77.2277Z" fill="#3F3D56"/>
<path d="M239.571 103.954C239.274 103.954 238.984 103.866 238.737 103.701C238.49 103.536 238.297 103.302 238.183 103.027C238.069 102.753 238.039 102.451 238.097 102.16C238.155 101.869 238.297 101.601 238.507 101.391L246.143 93.735C246.262 93.6152 246.403 93.5202 246.559 93.4555C246.715 93.3908 246.882 93.3577 247.051 93.3581H247.052C247.22 93.3576 247.387 93.3905 247.543 93.455C247.699 93.5195 247.84 93.6143 247.959 93.7337L251.501 97.2744C251.572 97.3461 251.657 97.403 251.75 97.4418C251.844 97.4805 251.944 97.5003 252.045 97.5H252.046C252.147 97.5002 252.247 97.4804 252.341 97.4417C252.434 97.4029 252.519 97.346 252.59 97.2741L257.59 92.2669C257.614 92.2431 257.633 92.2148 257.646 92.1836C257.659 92.1525 257.665 92.1191 257.665 92.0854C257.665 92.0517 257.658 92.0183 257.646 91.9872C257.633 91.9561 257.614 91.9278 257.59 91.904L255.972 90.2893C255.864 90.1817 255.791 90.0446 255.761 89.8952C255.731 89.7458 255.746 89.5909 255.804 89.4502C255.863 89.3094 255.961 89.1891 256.088 89.1044C256.215 89.0198 256.364 88.9746 256.516 88.9746H262.262C262.466 88.9748 262.662 89.056 262.806 89.2004C262.951 89.3447 263.032 89.5404 263.032 89.7445V95.4855C263.032 95.6378 262.987 95.7867 262.902 95.9133C262.818 96.04 262.698 96.1387 262.557 96.197C262.416 96.2553 262.261 96.2705 262.112 96.2408C261.962 96.2111 261.825 96.1378 261.718 96.0301L260.097 94.4102C260.073 94.3863 260.045 94.3674 260.014 94.3545C259.983 94.3416 259.95 94.335 259.916 94.335C259.882 94.335 259.849 94.3416 259.818 94.3545C259.786 94.3674 259.758 94.3863 259.734 94.4102L252.964 101.175C252.845 101.294 252.703 101.389 252.548 101.453C252.392 101.518 252.225 101.551 252.056 101.55H252.056C251.888 101.551 251.721 101.518 251.565 101.453C251.409 101.389 251.268 101.294 251.149 101.174L247.605 97.632C247.459 97.4921 247.264 97.414 247.061 97.414C246.858 97.414 246.663 97.4921 246.516 97.632L240.633 103.514C240.494 103.654 240.329 103.765 240.146 103.84C239.964 103.916 239.768 103.955 239.571 103.954Z" fill="#62B0E5"/>
<path d="M250.551 171.302C246.464 171.302 242.468 170.09 239.07 167.82C235.671 165.549 233.022 162.322 231.458 158.547C229.894 154.772 229.484 150.617 230.282 146.609C231.079 142.601 233.048 138.92 235.938 136.03C238.828 133.141 242.511 131.173 246.519 130.376C250.528 129.578 254.684 129.987 258.46 131.551C262.236 133.115 265.464 135.763 267.735 139.161C270.006 142.559 271.218 146.554 271.218 150.64C271.212 156.118 269.032 161.37 265.158 165.243C261.283 169.117 256.03 171.296 250.551 171.302Z" fill="#E6E6E6"/>
<path d="M336.169 115.501C332.082 115.501 328.086 114.289 324.688 112.019C321.289 109.749 318.64 106.522 317.076 102.746C315.512 98.9708 315.103 94.8165 315.9 90.8085C316.697 86.8005 318.666 83.119 321.556 80.2294C324.446 77.3398 328.129 75.372 332.138 74.5748C336.146 73.7775 340.302 74.1867 344.078 75.7505C347.854 77.3143 351.082 79.9626 353.353 83.3604C355.624 86.7582 356.836 90.7529 356.836 94.8394C356.83 100.317 354.65 105.569 350.776 109.443C346.902 113.316 341.649 115.495 336.169 115.501Z" fill="#E6E6E6"/>
<path d="M162.729 129.979C159.182 129.983 155.695 130.897 152.602 132.633C157.072 133.028 161.264 134.973 164.452 138.13C167.64 141.288 169.625 145.46 170.062 149.926C170.499 154.391 169.362 158.869 166.846 162.585C164.331 166.301 160.596 169.021 156.287 170.275C157.094 170.542 157.917 170.758 158.752 170.919C160.062 171.177 161.394 171.306 162.729 171.304C168.211 171.304 173.468 169.127 177.344 165.252C181.22 161.377 183.397 156.121 183.397 150.641C183.397 145.161 181.22 139.906 177.344 136.031C173.468 132.155 168.211 129.979 162.729 129.979Z" fill="#E6E6E6"/>
<path d="M154.887 131.528C153.578 131.266 152.245 131.135 150.91 131.138C145.596 131.132 140.484 133.171 136.633 136.832C132.781 140.493 130.487 145.494 130.224 150.801C129.962 156.107 131.752 161.31 135.223 165.333C138.694 169.356 143.58 171.889 148.869 172.408C154.157 172.926 159.443 171.391 163.629 168.119C167.816 164.847 170.583 160.09 171.357 154.834C172.131 149.578 170.852 144.226 167.786 139.887C164.72 135.548 160.101 132.555 154.887 131.528ZM156.286 170.275C153.639 171.044 150.858 171.236 148.13 170.838C145.403 170.44 142.793 169.461 140.477 167.966C138.161 166.472 136.193 164.498 134.706 162.177C133.22 159.857 132.249 157.244 131.86 154.516C131.471 151.788 131.673 149.008 132.452 146.364C133.231 143.721 134.569 141.276 136.375 139.194C138.181 137.112 140.414 135.443 142.922 134.299C145.429 133.155 148.153 132.563 150.91 132.563C151.479 132.563 152.043 132.59 152.601 132.633C157.071 133.028 161.263 134.972 164.451 138.13C167.639 141.288 169.624 145.46 170.061 149.926C170.498 154.391 169.361 158.869 166.845 162.585C164.33 166.3 160.595 169.021 156.286 170.275Z" fill="#3F3D56"/>
<path d="M162.943 148.164C162.26 145.17 160.417 142.57 157.818 140.934C155.219 139.299 152.077 138.76 149.082 139.438C148.79 139.505 148.487 139.587 148.22 139.669L150.982 151.803L163.118 149.047C163.067 148.764 163.01 148.456 162.943 148.164Z" fill="#62B0E5"/>
<path d="M161.768 151.176L149.627 153.932L146.87 141.799C144.753 142.454 142.868 143.702 141.439 145.395C140.01 147.088 139.097 149.155 138.807 151.351C138.518 153.548 138.864 155.781 139.806 157.787C140.747 159.792 142.244 161.486 144.119 162.667C145.993 163.847 148.168 164.466 150.383 164.449C152.599 164.432 154.764 163.78 156.62 162.571C158.477 161.362 159.948 159.645 160.858 157.626C161.769 155.606 162.081 153.368 161.758 151.176H161.768Z" fill="#62B0E5"/>
<path d="M375.115 248.31C371.027 248.31 367.032 247.098 363.633 244.827C360.234 242.557 357.586 239.33 356.021 235.555C354.457 231.779 354.048 227.625 354.845 223.617C355.643 219.609 357.611 215.928 360.501 213.038C363.392 210.148 367.074 208.181 371.083 207.383C375.092 206.586 379.247 206.995 383.023 208.559C386.8 210.123 390.027 212.771 392.298 216.169C394.569 219.567 395.781 223.561 395.781 227.648C395.775 233.126 393.596 238.378 389.721 242.251C385.847 246.125 380.594 248.303 375.115 248.31ZM375.115 208.411C371.309 208.411 367.589 209.539 364.425 211.653C361.261 213.767 358.795 216.771 357.338 220.286C355.882 223.801 355.501 227.669 356.243 231.401C356.986 235.132 358.818 238.56 361.509 241.25C364.2 243.941 367.629 245.773 371.361 246.515C375.093 247.257 378.962 246.876 382.478 245.42C385.994 243.964 388.999 241.499 391.113 238.335C393.227 235.172 394.356 231.453 394.356 227.648C394.35 222.548 392.321 217.658 388.714 214.052C385.107 210.446 380.216 208.417 375.115 208.411Z" fill="#3F3D56"/>
<path d="M384.032 235.927C383.275 235.928 382.536 235.704 381.906 235.284C381.277 234.864 380.787 234.267 380.497 233.569C380.207 232.87 380.13 232.102 380.278 231.36C380.425 230.618 380.788 229.936 381.323 229.401C381.857 228.866 382.539 228.502 383.281 228.353C384.022 228.205 384.791 228.281 385.49 228.57C386.19 228.859 386.787 229.348 387.208 229.977C387.629 230.605 387.853 231.344 387.854 232.101C387.854 233.115 387.452 234.087 386.735 234.805C386.018 235.522 385.046 235.926 384.032 235.927ZM375.114 235.927C374.101 235.926 373.13 235.523 372.413 234.807C371.697 234.09 371.294 233.119 371.292 232.106V223.191C371.294 222.178 371.697 221.207 372.413 220.492C373.13 219.776 374.102 219.374 375.114 219.374C376.127 219.374 377.099 219.776 377.815 220.492C378.532 221.207 378.935 222.178 378.936 223.191V232.106C378.935 233.119 378.532 234.09 377.816 234.807C377.099 235.523 376.128 235.926 375.114 235.927ZM366.2 235.927C365.186 235.926 364.213 235.523 363.496 234.806C362.779 234.089 362.376 233.117 362.375 232.103V228.541C362.375 227.527 362.778 226.554 363.495 225.837C364.212 225.12 365.185 224.717 366.2 224.717C367.214 224.717 368.187 225.12 368.904 225.837C369.621 226.554 370.024 227.527 370.024 228.541V232.103C370.023 233.117 369.62 234.089 368.903 234.806C368.186 235.523 367.214 235.926 366.2 235.927Z" fill="#62B0E5"/>
<path d="M113.054 320.346L119.353 319.631L119.594 295L110.297 296.055L113.054 320.346Z" fill="#FFB8B8"/>
<path d="M132.165 324.1L112.368 326.346L111.5 318.698L123.648 317.32C125.677 317.09 127.714 317.675 129.311 318.946C130.908 320.218 131.935 322.071 132.165 324.1L132.165 324.1Z" fill="#2F2E41"/>
<path d="M48.2716 319.952L54.6111 319.952L57.6267 295.505L48.2705 295.505L48.2716 319.952Z" fill="#FFB8B8"/>
<path d="M66.8379 325.836L46.9135 325.837L46.9132 318.141L59.1395 318.14C61.1811 318.14 63.1392 318.951 64.5829 320.394C66.0267 321.837 66.8378 323.795 66.8379 325.836L66.8379 325.836Z" fill="#2F2E41"/>
<path d="M93.7566 210.627L97.3763 222.398L117.026 264.91L122.197 305.235L110.304 305.752L103.064 268.529L78.2435 241.646L56.5252 311.955L46.7002 310.921C46.7002 310.921 54.9739 219.932 66.3501 210.627C66.3501 210.627 84.9658 201.838 93.7566 210.627Z" fill="#2F2E41"/>
<path d="M77.6996 159.836C84.714 159.836 90.4002 154.151 90.4002 147.138C90.4002 140.125 84.714 134.44 77.6996 134.44C70.6853 134.44 64.999 140.125 64.999 147.138C64.999 154.151 70.6853 159.836 77.6996 159.836Z" fill="#FFB8B8"/>
<path d="M95.0495 212.954C95.0495 212.954 96.6008 160.221 74.8825 163.84C53.1641 167.459 62.2134 218.382 62.2134 218.382C62.2134 218.382 66.8674 227.688 78.2436 217.348C89.6199 207.008 95.0495 212.954 95.0495 212.954Z" fill="#62B0E5"/>
<path d="M140.012 169.062C139.604 169.703 139.061 170.247 138.42 170.656C137.779 171.065 137.056 171.328 136.302 171.427C135.549 171.527 134.783 171.46 134.058 171.231C133.333 171.002 132.667 170.617 132.107 170.103L115.839 178.866L116.691 169.303L132.008 162.448C132.934 161.565 134.152 161.052 135.431 161.006C136.71 160.961 137.962 161.386 138.948 162.201C139.935 163.016 140.588 164.165 140.784 165.429C140.98 166.694 140.705 167.986 140.012 169.062L140.012 169.062Z" fill="#FFB8B8"/>
<path d="M77.5786 170.278L103.985 174.741L127.65 163.572L131.243 171.253L105.337 187.75C105.337 187.75 77.9107 189.611 71.5698 182.38C69.1919 179.669 68.9201 177.201 69.5092 175.175C70.0252 173.515 71.1304 172.101 72.6166 171.199C74.1029 170.297 75.8676 169.97 77.5786 170.278Z" fill="#62B0E5"/>
<path d="M76.1892 160.48C76.2498 160.425 76.297 160.358 76.3269 160.282C76.3568 160.206 76.3686 160.124 76.3614 160.043C76.3542 159.962 76.3282 159.884 76.2855 159.815C76.2427 159.745 76.1844 159.687 76.1151 159.644C74.9873 158.946 74.0684 157.957 73.455 156.781C72.8416 155.605 72.5563 154.285 72.6291 152.961C72.7019 151.637 73.1301 150.356 73.8687 149.255C74.6074 148.153 75.6292 147.271 76.8267 146.7C80.5608 144.92 85.6206 146.305 88.381 142.884C88.9423 142.153 89.3393 141.309 89.5448 140.409C89.7502 139.51 89.7594 138.578 89.5717 137.675C88.976 134.444 86.5469 132.045 83.8265 130.401C80.4847 128.381 76.6439 127.338 72.7392 127.388C68.8345 127.439 65.0222 128.582 61.734 130.688C58.4459 132.794 55.8134 135.779 54.1349 139.304C52.4564 142.829 51.799 146.753 52.2371 150.633C52.5883 153.742 53.5479 157.228 51.6987 159.753C50.0712 161.974 46.9992 162.391 44.3006 162.943C38.5126 164.127 32.9287 166.859 29.0008 171.271C25.073 175.683 22.9776 181.873 24.1618 187.66C25.3461 193.446 30.0972 198.532 35.9366 199.429C40.6896 200.159 45.5975 198.141 49.0878 194.834C52.5782 191.527 54.7844 187.061 56.176 182.459C57.8277 176.997 58.4793 171.111 61.4613 166.245C64.3793 161.484 70.6677 158.071 75.5962 160.551C75.6907 160.6 75.7979 160.62 75.9037 160.607C76.0095 160.594 76.109 160.55 76.1892 160.48Z" fill="#2F2E41"/>
<path d="M444.244 254.467C444.931 254.125 445.535 253.636 446.013 253.036C446.491 252.435 446.832 251.737 447.011 250.991C447.19 250.245 447.203 249.468 447.049 248.716C446.896 247.964 446.579 247.255 446.122 246.638L458.358 178.932L446.939 178.781L438.441 245.734C437.457 246.571 436.813 247.74 436.633 249.02C436.452 250.3 436.748 251.601 437.463 252.677C438.178 253.754 439.263 254.53 440.513 254.86C441.763 255.19 443.09 255.05 444.244 254.467H444.244Z" fill="#FFB8B8"/>
<path d="M408.803 251.257L404.468 271.844L405.01 317.893H413.138L416.931 272.927L422.892 253.966L408.803 251.257Z" fill="#FFB8B8"/>
<path d="M435.667 252.801L431.332 273.388L431.874 319.437H440.002L443.795 274.471L449.756 255.51L435.667 252.801Z" fill="#FFB8B8"/>
<path d="M402.171 317.369L414.984 317.337L415.004 325.402L394.125 325.455C394.122 324.396 394.328 323.346 394.731 322.367C395.134 321.387 395.726 320.497 396.473 319.746C397.22 318.995 398.108 318.399 399.086 317.991C400.064 317.583 401.112 317.372 402.171 317.369Z" fill="#2F2E41"/>
<path d="M429.235 318.241L442.047 318.208L442.067 326.273L421.188 326.326C421.186 325.267 421.392 324.217 421.795 323.238C422.197 322.258 422.789 321.368 423.537 320.617C424.284 319.866 425.172 319.27 426.149 318.862C427.127 318.454 428.176 318.243 429.235 318.241Z" fill="#2F2E41"/>
<path d="M428.582 150.296C435.932 150.296 441.891 144.339 441.891 136.99C441.891 129.641 435.932 123.684 428.582 123.684C421.231 123.684 415.272 129.641 415.272 136.99C415.272 144.339 421.231 150.296 428.582 150.296Z" fill="#FFB8B8"/>
<path d="M457.994 169.901C453.945 163.549 441.231 148.484 422.313 157.131C420.822 157.82 419.578 158.949 418.748 160.366C417.919 161.783 417.542 163.42 417.67 165.057C418.586 177.138 419.741 207.917 409.887 226.336C409.887 226.336 438.607 235.004 454.321 226.878C454.321 226.878 448.903 190.58 454.321 183.537C456.128 181.286 457.592 178.78 458.664 176.1C459.04 175.086 459.175 173.998 459.059 172.922C458.943 171.846 458.579 170.812 457.994 169.901Z" fill="#3F3D56"/>
<path d="M452.696 169.45L458.014 171.665C458.368 171.813 458.673 172.058 458.892 172.373C459.111 172.687 459.236 173.058 459.252 173.441L459.741 185.161L447.819 184.078L452.696 169.45Z" fill="#3F3D56"/>
<path d="M412.055 225.252C412.055 225.252 400.133 247.464 402.301 268.051L419.099 270.76L431.021 242.047L428.311 271.302L445.652 271.843C445.652 271.843 457.031 229.586 453.238 225.794L412.055 225.252Z" fill="#2F2E41"/>
<path d="M395.123 227.234C395.881 227.118 396.606 226.837 397.244 226.411C397.883 225.985 398.42 225.424 398.818 224.768C399.216 224.112 399.466 223.376 399.549 222.613C399.632 221.85 399.547 221.078 399.3 220.352L423.483 174.773L412.654 171.147L392.261 217.149C391.068 217.645 390.098 218.562 389.536 219.726C388.974 220.89 388.858 222.219 389.211 223.462C389.564 224.705 390.36 225.776 391.45 226.471C392.539 227.166 393.846 227.438 395.123 227.234H395.123Z" fill="#FFB8B8"/>
<path d="M426.785 162.435L422.306 160.432C422.306 160.432 418.508 158.078 415.142 163.258C411.775 168.437 408.139 179.788 408.139 179.788L422.754 183.899L426.785 162.435Z" fill="#3F3D56"/>
<path d="M430.714 143.396C431.192 141.737 431.054 139.492 429.445 138.865C428.607 138.538 427.672 138.796 426.777 138.888C425.026 139.06 423.273 138.577 421.857 137.534C420.193 136.297 419.165 134.407 418.189 132.578L416.713 129.812C416.384 129.235 416.104 128.632 415.875 128.009C415.054 125.568 415.946 122.741 417.772 120.922C419.679 119.148 422.19 118.164 424.796 118.169C427.381 118.188 429.936 118.735 432.302 119.777C436.507 121.49 440.316 124.049 443.493 127.294C445.57 129.417 447.46 132.184 447.026 135.122C446.689 137.409 445.021 139.24 443.431 140.919L437.663 147.006C436.641 148.084 435.55 149.206 434.123 149.621C432.697 150.035 430.859 149.427 430.47 147.993C430.47 147.993 430.236 145.055 430.714 143.396Z" fill="#2F2E41"/>
<path d="M510.458 326.48H0.541888C0.39817 326.48 0.260338 326.423 0.158715 326.321C0.0570912 326.22 0 326.082 0 325.938C0 325.795 0.0570912 325.657 0.158715 325.555C0.260338 325.454 0.39817 325.396 0.541888 325.396H510.458C510.602 325.396 510.74 325.454 510.841 325.555C510.943 325.657 511 325.795 511 325.938C511 326.082 510.943 326.22 510.841 326.321C510.74 326.423 510.602 326.48 510.458 326.48Z" fill="#3F3D56"/>
<path d="M343.576 160.469H328.403C327.972 160.469 327.558 160.298 327.253 159.993C326.949 159.688 326.777 159.275 326.777 158.844C326.777 158.413 326.949 158 327.253 157.695C327.558 157.39 327.972 157.219 328.403 157.219H343.576C344.007 157.219 344.421 157.39 344.725 157.695C345.03 158 345.202 158.413 345.202 158.844C345.202 159.275 345.03 159.688 344.725 159.993C344.421 160.298 344.007 160.469 343.576 160.469Z" fill="#62B0E5"/>
<path d="M343.576 153.426H328.403C327.972 153.426 327.558 153.255 327.253 152.95C326.949 152.646 326.777 152.232 326.777 151.801C326.777 151.37 326.949 150.957 327.253 150.652C327.558 150.347 327.972 150.176 328.403 150.176H343.576C344.007 150.176 344.421 150.347 344.725 150.652C345.03 150.957 345.202 151.37 345.202 151.801C345.202 152.232 345.03 152.646 344.725 152.95C344.421 153.255 344.007 153.426 343.576 153.426Z" fill="#62B0E5"/>
<path d="M343.576 146.383H328.403C327.972 146.383 327.558 146.212 327.253 145.907C326.949 145.603 326.777 145.189 326.777 144.758C326.777 144.327 326.949 143.914 327.253 143.609C327.558 143.304 327.972 143.133 328.403 143.133H343.576C344.007 143.133 344.421 143.304 344.725 143.609C345.03 143.914 345.202 144.327 345.202 144.758C345.202 145.189 345.03 145.603 344.725 145.907C344.421 146.212 344.007 146.383 343.576 146.383Z" fill="#62B0E5"/>
</g>
<defs>
<clipPath id="clip0_564_91695">
<rect width="511" height="326" fill="white" transform="translate(0 0.480469)"/>
</clipPath>
</defs>
</svg>
