<svg width="511" height="360" viewBox="0 0 511 360" fill="none" xmlns="http://www.w3.org/2000/svg">
<g clip-path="url(#clip0_564_93032)">
<path d="M417.371 225.691H88.2571C86.0104 225.688 83.8566 224.795 82.2679 223.206C80.6793 221.617 79.7857 219.463 79.7832 217.217V14.2785C79.785 12.6326 80.4397 11.0546 81.6035 9.89076C82.7673 8.7269 84.3453 8.07221 85.9912 8.07031H419.53C421.204 8.07222 422.809 8.73822 423.993 9.9222C425.177 11.1062 425.843 12.7115 425.845 14.3858V217.217C425.842 219.463 424.949 221.617 423.36 223.206C421.772 224.795 419.618 225.688 417.371 225.691Z" fill="#F2F2F2"/>
<path d="M405.365 213.691H98.6396C94.1433 213.691 90.4854 210.266 90.4854 206.055V29.3339C90.4854 26.2114 93.1959 23.6709 96.5278 23.6709H407.377C410.764 23.6709 413.52 26.2533 413.52 29.4272V206.055C413.52 210.266 409.861 213.691 405.365 213.691Z" fill="white"/>
<path d="M425.727 13.7941H79.6641V9.47992C79.6673 7.22581 80.5646 5.06504 82.159 3.47164C83.7533 1.87823 85.9147 0.982331 88.1688 0.980469H417.222C419.476 0.98232 421.638 1.87822 423.232 3.47162C424.826 5.06503 425.724 7.22581 425.727 9.47992V13.7941Z" fill="#CCCCCC"/>
<path d="M95.1197 9.59985C96.3347 9.59985 97.3196 8.61495 97.3196 7.40002C97.3196 6.18509 96.3347 5.2002 95.1197 5.2002C93.9048 5.2002 92.9199 6.18509 92.9199 7.40002C92.9199 8.61495 93.9048 9.59985 95.1197 9.59985Z" fill="white"/>
<path d="M103.47 9.59985C104.685 9.59985 105.67 8.61495 105.67 7.40002C105.67 6.18509 104.685 5.2002 103.47 5.2002C102.255 5.2002 101.271 6.18509 101.271 7.40002C101.271 8.61495 102.255 9.59985 103.47 9.59985Z" fill="white"/>
<path d="M111.82 9.59985C113.035 9.59985 114.02 8.61495 114.02 7.40002C114.02 6.18509 113.035 5.2002 111.82 5.2002C110.605 5.2002 109.62 6.18509 109.62 7.40002C109.62 8.61495 110.605 9.59985 111.82 9.59985Z" fill="white"/>
<path d="M371.603 184.051H133.904C131.522 184.048 129.237 183.101 127.552 181.416C125.867 179.731 124.92 177.446 124.917 175.064V60.4591C124.919 58.677 125.628 56.9685 126.888 55.7084C128.148 54.4482 129.856 53.7394 131.639 53.7373H373.762C375.572 53.7394 377.308 54.4595 378.588 55.7398C379.869 57.0201 380.589 58.7559 380.591 60.5664V175.064C380.588 177.446 379.64 179.731 377.956 181.416C376.271 183.101 373.986 184.048 371.603 184.051ZM131.639 54.7644C130.129 54.7662 128.681 55.3667 127.614 56.4343C126.546 57.5019 125.946 58.9493 125.944 60.4591V175.064C125.946 177.174 126.786 179.198 128.278 180.69C129.771 182.182 131.794 183.022 133.904 183.024H371.603C373.714 183.022 375.737 182.182 377.23 180.69C378.722 179.198 379.561 177.174 379.564 175.064V60.5664C379.562 59.0282 378.95 57.5534 377.863 56.4657C376.775 55.378 375.3 54.7662 373.762 54.7644H131.639Z" fill="#CCCCCC"/>
<path d="M142.121 175.064H363.386C365.566 175.064 367.656 174.199 369.197 172.658C370.738 171.117 371.603 169.027 371.603 166.847V71.0423C371.603 68.863 370.738 66.7729 369.197 65.2319C367.656 63.6909 365.566 62.8252 363.386 62.8252H142.121C139.942 62.8252 137.852 63.6909 136.311 65.2319C134.77 66.7729 133.904 68.863 133.904 71.0423V166.847C133.904 169.027 134.77 171.117 136.311 172.658C137.852 174.199 139.942 175.064 142.121 175.064Z" fill="#F2F2F2"/>
<path d="M167.245 90.6983C169.798 90.6983 171.867 88.6289 171.867 86.0762C171.867 83.5235 169.798 81.4541 167.245 81.4541C164.692 81.4541 162.623 83.5235 162.623 86.0762C162.623 88.6289 164.692 90.6983 167.245 90.6983Z" fill="#CCCCCC"/>
<path d="M167.245 108.159C169.798 108.159 171.867 106.09 171.867 103.537C171.867 100.984 169.798 98.915 167.245 98.915C164.692 98.915 162.623 100.984 162.623 103.537C162.623 106.09 164.692 108.159 167.245 108.159Z" fill="#CCCCCC"/>
<path d="M167.245 125.621C169.798 125.621 171.867 123.552 171.867 120.999C171.867 118.446 169.798 116.377 167.245 116.377C164.692 116.377 162.623 118.446 162.623 120.999C162.623 123.552 164.692 125.621 167.245 125.621Z" fill="#CCCCCC"/>
<path d="M167.245 143.082C169.798 143.082 171.867 141.013 171.867 138.46C171.867 135.907 169.798 133.838 167.245 133.838C164.692 133.838 162.623 135.907 162.623 138.46C162.623 141.013 164.692 143.082 167.245 143.082Z" fill="#CCCCCC"/>
<path d="M342.371 86.5896H190.355C190.219 86.5896 190.089 86.5355 189.992 86.4392C189.896 86.3429 189.842 86.2123 189.842 86.0761C189.842 85.9399 189.896 85.8092 189.992 85.7129C190.089 85.6166 190.219 85.5625 190.355 85.5625H342.371C342.508 85.5625 342.638 85.6166 342.735 85.7129C342.831 85.8092 342.885 85.9399 342.885 86.0761C342.885 86.2123 342.831 86.3429 342.735 86.4392C342.638 86.5355 342.508 86.5896 342.371 86.5896Z" fill="#CCCCCC"/>
<path d="M342.371 104.052H190.355C190.219 104.052 190.089 103.997 189.992 103.901C189.896 103.805 189.842 103.674 189.842 103.538C189.842 103.402 189.896 103.271 189.992 103.175C190.089 103.079 190.219 103.024 190.355 103.024H342.371C342.508 103.024 342.638 103.079 342.735 103.175C342.831 103.271 342.885 103.402 342.885 103.538C342.885 103.674 342.831 103.805 342.735 103.901C342.638 103.997 342.508 104.052 342.371 104.052Z" fill="#CCCCCC"/>
<path d="M342.371 121.512H190.355C190.219 121.512 190.089 121.458 189.992 121.362C189.896 121.266 189.842 121.135 189.842 120.999C189.842 120.863 189.896 120.732 189.992 120.636C190.089 120.539 190.219 120.485 190.355 120.485H342.371C342.508 120.485 342.638 120.539 342.735 120.636C342.831 120.732 342.885 120.863 342.885 120.999C342.885 121.135 342.831 121.266 342.735 121.362C342.638 121.458 342.508 121.512 342.371 121.512Z" fill="#CCCCCC"/>
<path d="M342.371 138.973H190.355C190.219 138.973 190.089 138.919 189.992 138.823C189.896 138.727 189.842 138.596 189.842 138.46C189.842 138.324 189.896 138.193 189.992 138.097C190.089 138 190.219 137.946 190.355 137.946H342.371C342.508 137.946 342.638 138 342.735 138.097C342.831 138.193 342.885 138.324 342.885 138.46C342.885 138.596 342.831 138.727 342.735 138.823C342.638 138.919 342.508 138.973 342.371 138.973Z" fill="#CCCCCC"/>
<path d="M219.116 156.435H204.222C203.541 156.434 202.889 156.163 202.407 155.682C201.926 155.2 201.655 154.548 201.654 153.867V140C201.655 139.32 201.926 138.667 202.407 138.186C202.889 137.704 203.541 137.433 204.222 137.433H219.116C219.796 137.433 220.449 137.704 220.93 138.186C221.412 138.667 221.683 139.32 221.683 140V153.867C221.683 154.548 221.412 155.2 220.93 155.682C220.449 156.163 219.796 156.434 219.116 156.435Z" fill="#62B0E5"/>
<path d="M252.497 156.435H237.604C236.923 156.434 236.27 156.163 235.789 155.682C235.308 155.201 235.037 154.548 235.036 153.867V122.54C235.037 121.859 235.308 121.206 235.789 120.725C236.27 120.243 236.923 119.972 237.604 119.972H252.497C253.178 119.972 253.831 120.243 254.312 120.725C254.794 121.206 255.065 121.859 255.065 122.54V153.867C255.065 154.548 254.794 155.201 254.312 155.682C253.831 156.163 253.178 156.434 252.497 156.435Z" fill="#62B0E5"/>
<path d="M286.393 156.435H271.499C270.819 156.435 270.166 156.164 269.685 155.682C269.203 155.201 268.932 154.548 268.932 153.868V105.079C268.932 104.398 269.203 103.745 269.685 103.264C270.166 102.782 270.819 102.512 271.499 102.511H286.393C287.074 102.512 287.726 102.782 288.208 103.264C288.689 103.745 288.96 104.398 288.961 105.079V153.868C288.96 154.548 288.689 155.201 288.208 155.682C287.726 156.164 287.074 156.435 286.393 156.435Z" fill="#62B0E5"/>
<path d="M321.316 156.435H306.422C305.742 156.434 305.089 156.163 304.607 155.682C304.126 155.201 303.855 154.548 303.854 153.867V88.1303C303.855 87.4495 304.126 86.7969 304.607 86.3155C305.089 85.8341 305.742 85.5633 306.422 85.5625H321.316C321.997 85.5633 322.649 85.8341 323.131 86.3155C323.612 86.7969 323.883 87.4495 323.884 88.1303V153.867C323.883 154.548 323.612 155.201 323.131 155.682C322.649 156.163 321.997 156.434 321.316 156.435Z" fill="#62B0E5"/>
<path d="M342.371 156.435H190.355C190.219 156.435 190.089 156.381 189.992 156.285C189.896 156.189 189.842 156.058 189.842 155.922C189.842 155.786 189.896 155.655 189.992 155.559C190.089 155.462 190.219 155.408 190.355 155.408H342.371C342.508 155.408 342.638 155.462 342.735 155.559C342.831 155.655 342.885 155.786 342.885 155.922C342.885 156.058 342.831 156.189 342.735 156.285C342.638 156.381 342.508 156.435 342.371 156.435Z" fill="#3F3D56"/>
<path d="M409.16 252.24C409.576 251.61 410.125 251.079 410.769 250.684C411.412 250.289 412.135 250.041 412.885 249.955C413.635 249.87 414.395 249.95 415.111 250.19C415.826 250.43 416.481 250.824 417.028 251.344L433.336 242.928L432.322 252.41L416.991 258.949C416.056 259.81 414.838 260.299 413.567 260.321C412.296 260.344 411.061 259.9 410.095 259.073C409.13 258.246 408.502 257.093 408.329 255.834C408.157 254.575 408.452 253.296 409.16 252.24Z" fill="#FFB8B8"/>
<path d="M423.192 255.776C422.822 255.486 422.549 255.09 422.41 254.641L421.113 250.45C420.973 249.996 420.977 249.51 421.123 249.058C421.268 248.606 421.549 248.21 421.928 247.923L435.146 237.939L449.462 211.381C450.061 210.609 450.807 209.962 451.656 209.478C452.506 208.994 453.443 208.682 454.413 208.56C455.383 208.438 456.367 208.508 457.31 208.767C458.253 209.025 459.136 209.467 459.908 210.067C460.68 210.666 461.327 211.412 461.811 212.262C462.295 213.111 462.607 214.048 462.729 215.018C462.851 215.988 462.781 216.972 462.522 217.915C462.264 218.858 461.822 219.741 461.222 220.513L453.078 237.703C450.607 242.92 446.325 247.062 441.028 249.359L425.537 256.078C425.239 256.207 424.918 256.272 424.593 256.268C424.268 256.265 423.948 256.193 423.653 256.057C423.489 255.982 423.334 255.888 423.192 255.776Z" fill="#3F3D56"/>
<path d="M461.583 200.297C468.549 200.297 474.196 194.649 474.196 187.683C474.196 180.717 468.549 175.069 461.583 175.069C454.616 175.069 448.969 180.717 448.969 187.683C448.969 194.649 454.616 200.297 461.583 200.297Z" fill="#FFB8B8"/>
<path d="M456.465 353.153L450.169 353.153L447.175 328.867L456.468 328.868L456.465 353.153Z" fill="#FFB8B8"/>
<path d="M445.672 351.354H457.814V358.999H438.026C438.026 357.995 438.224 357.001 438.608 356.073C438.993 355.146 439.556 354.303 440.266 353.593C440.976 352.883 441.818 352.32 442.746 351.935C443.674 351.551 444.668 351.354 445.672 351.354Z" fill="#2F2E41"/>
<path d="M477.008 353.154L470.712 353.153L467.718 328.867L477.011 328.868L477.008 353.154Z" fill="#FFB8B8"/>
<path d="M466.215 351.354H478.357V359H458.569C458.569 357.996 458.767 357.002 459.151 356.074C459.536 355.147 460.099 354.304 460.809 353.594C461.519 352.884 462.361 352.321 463.289 351.936C464.217 351.552 465.211 351.354 466.215 351.354Z" fill="#2F2E41"/>
<path d="M477.468 346.991L470.09 346.991C469.582 346.99 469.088 346.822 468.685 346.513C468.282 346.204 467.992 345.771 467.859 345.281L457.238 305.89C457.222 305.828 457.183 305.775 457.13 305.741C457.076 305.706 457.012 305.693 456.949 305.703C456.886 305.713 456.83 305.747 456.79 305.796C456.75 305.846 456.73 305.908 456.734 305.972L458.879 343.33C458.898 343.66 458.846 343.991 458.726 344.299C458.607 344.608 458.422 344.887 458.185 345.118C457.948 345.349 457.664 345.526 457.353 345.638C457.042 345.749 456.71 345.793 456.38 345.765L448.087 345.074C447.556 345.028 447.056 344.801 446.673 344.43C446.29 344.059 446.046 343.568 445.984 343.038L438.429 264.593L441.352 266.347L468.74 261.697L479.759 344.375C479.803 344.701 479.776 345.033 479.681 345.348C479.586 345.663 479.424 345.955 479.207 346.202C478.99 346.45 478.723 346.649 478.423 346.785C478.123 346.921 477.798 346.991 477.468 346.991H477.468Z" fill="#2F2E41"/>
<path d="M447.588 272.874C444.567 272.849 441.607 272.016 439.016 270.461C438.617 270.224 438.298 269.873 438.103 269.452C437.907 269.032 437.843 268.562 437.919 268.104C438.882 262.205 443.919 231.945 448.502 215.448C450.369 208.729 454.496 205.11 460.77 204.692C469.946 204.091 478.103 211.27 478.952 220.716C480.45 237.38 474.364 261.057 471.678 270.463C471.574 270.826 471.382 271.158 471.12 271.43C470.857 271.702 470.532 271.905 470.173 272.022C469.814 272.139 469.431 272.166 469.059 272.101C468.687 272.035 468.336 271.88 468.038 271.647L462.563 267.388C462.226 267.13 461.809 266.999 461.386 267.017C460.962 267.034 460.558 267.2 460.243 267.485C455.628 271.601 451.244 272.874 447.588 272.874Z" fill="#3F3D56"/>
<path opacity="0.2" d="M465.696 228.87L470.318 248.386L463.641 264.82L468.264 248.9L465.696 228.87Z" fill="black"/>
<path d="M468.78 198.056C469.902 198.077 471.017 197.876 472.06 197.463C472.52 197.286 472.996 197.141 473.455 196.964C477.502 195.4 480.169 191.089 480.265 186.751C480.36 182.412 478.114 178.202 474.778 175.426C471.442 172.651 467.121 171.226 462.794 170.897C458.133 170.542 452.885 171.723 450.281 175.605C449.587 176.638 449.102 177.891 449.513 179.139C449.636 179.515 449.856 179.853 450.15 180.118C451.313 181.153 452.473 180.375 453.659 180.306C455.288 180.211 456.752 181.531 457.278 183.076C457.804 184.621 457.572 186.323 457.148 187.899C456.824 188.847 456.62 189.832 456.54 190.831C456.506 191.332 456.6 191.833 456.814 192.288C457.027 192.742 457.354 193.134 457.762 193.427C458.78 194.043 460.117 193.687 461.136 193.072C462.155 192.458 463.036 191.603 464.136 191.151C465.237 190.699 466.716 190.799 467.356 191.802C467.56 192.167 467.698 192.565 467.763 192.977C468.337 195.594 468.206 195.44 468.78 198.056Z" fill="#2F2E41"/>
<path d="M449.229 335.535L370.244 308.028C368.889 307.554 367.777 306.562 367.152 305.269C366.527 303.977 366.44 302.489 366.911 301.133L387.436 242.196C387.783 241.204 388.51 240.389 389.457 239.931C390.404 239.473 391.494 239.41 392.487 239.755L474.142 268.192C475.152 268.545 475.981 269.284 476.447 270.247C476.912 271.211 476.977 272.319 476.626 273.33L456.124 332.202C455.65 333.557 454.658 334.669 453.365 335.294C452.073 335.919 450.585 336.006 449.229 335.535Z" fill="#E6E6E6"/>
<path d="M376.984 304.641L446.051 328.694C447.366 329.152 448.809 329.069 450.063 328.462C451.317 327.856 452.279 326.777 452.737 325.462L469.311 277.871C469.769 276.556 469.685 275.113 469.079 273.859C468.473 272.605 467.394 271.643 466.079 271.185L397.012 247.132C395.697 246.674 394.253 246.757 393 247.363C391.746 247.969 390.784 249.049 390.326 250.364L373.752 297.955C373.525 298.606 373.429 299.295 373.469 299.984C373.508 300.672 373.683 301.346 373.983 301.967C374.283 302.588 374.703 303.144 375.218 303.602C375.733 304.061 376.333 304.414 376.984 304.641Z" fill="white"/>
<path d="M394.328 271.204L390.907 270.013C390.722 269.948 390.57 269.813 390.484 269.636C390.399 269.459 390.387 269.255 390.451 269.07L391.642 265.649C391.707 265.464 391.843 265.312 392.02 265.226C392.197 265.141 392.4 265.129 392.586 265.193L396.006 266.385C396.192 266.449 396.344 266.585 396.429 266.762C396.515 266.939 396.527 267.142 396.462 267.328L395.271 270.748C395.206 270.934 395.07 271.086 394.894 271.171C394.717 271.257 394.513 271.269 394.328 271.204Z" fill="#62B0E5"/>
<path d="M391.242 280.067L387.821 278.875C387.636 278.811 387.484 278.675 387.398 278.498C387.313 278.321 387.301 278.118 387.365 277.932L388.556 274.512C388.621 274.326 388.757 274.174 388.934 274.089C389.111 274.003 389.314 273.991 389.5 274.056L392.92 275.247C393.106 275.312 393.258 275.447 393.343 275.624C393.429 275.801 393.441 276.005 393.376 276.19L392.185 279.611C392.12 279.796 391.984 279.948 391.808 280.034C391.631 280.119 391.427 280.131 391.242 280.067Z" fill="#3F3D56"/>
<path d="M388.155 288.929L384.734 287.738C384.549 287.673 384.397 287.537 384.311 287.36C384.226 287.184 384.214 286.98 384.278 286.794L385.47 283.374C385.534 283.189 385.67 283.036 385.847 282.951C386.024 282.865 386.227 282.854 386.413 282.918L389.833 284.109C390.019 284.174 390.171 284.31 390.256 284.487C390.342 284.663 390.354 284.867 390.289 285.052L389.098 288.473C389.033 288.658 388.898 288.811 388.721 288.896C388.544 288.982 388.34 288.993 388.155 288.929Z" fill="#CCCCCC"/>
<path d="M417.312 277.291L400.831 271.552C400.739 271.52 400.654 271.47 400.581 271.405C400.508 271.341 400.449 271.262 400.406 271.175C400.364 271.087 400.339 270.992 400.333 270.894C400.328 270.797 400.341 270.7 400.373 270.608C400.405 270.516 400.455 270.431 400.52 270.358C400.585 270.285 400.664 270.226 400.751 270.184C400.839 270.141 400.934 270.117 401.032 270.111C401.129 270.106 401.226 270.12 401.318 270.152L417.799 275.892C417.891 275.924 417.976 275.973 418.049 276.038C418.122 276.103 418.181 276.181 418.224 276.269C418.266 276.356 418.291 276.452 418.297 276.549C418.302 276.646 418.289 276.744 418.257 276.836C418.225 276.928 418.175 277.013 418.11 277.085C418.045 277.158 417.967 277.217 417.879 277.259C417.791 277.302 417.696 277.326 417.598 277.332C417.501 277.337 417.404 277.323 417.312 277.291Z" fill="#CCCCCC"/>
<path d="M414.226 286.153L397.745 280.413C397.56 280.349 397.407 280.213 397.322 280.036C397.236 279.859 397.225 279.655 397.289 279.47C397.354 279.284 397.49 279.132 397.666 279.047C397.843 278.961 398.047 278.949 398.233 279.014L414.713 284.753C414.805 284.785 414.89 284.835 414.963 284.9C415.036 284.964 415.095 285.043 415.138 285.13C415.18 285.218 415.205 285.313 415.211 285.411C415.216 285.508 415.203 285.605 415.171 285.697C415.139 285.789 415.089 285.874 415.024 285.947C414.959 286.019 414.88 286.079 414.793 286.121C414.705 286.163 414.61 286.188 414.512 286.193C414.415 286.199 414.318 286.185 414.226 286.153Z" fill="#CCCCCC"/>
<path d="M411.139 295.015L394.658 289.275C394.473 289.211 394.32 289.075 394.235 288.898C394.149 288.721 394.138 288.518 394.202 288.332C394.267 288.147 394.403 287.994 394.58 287.909C394.756 287.823 394.96 287.812 395.146 287.876L411.626 293.616C411.812 293.68 411.964 293.816 412.05 293.993C412.135 294.17 412.147 294.373 412.082 294.559C412.018 294.745 411.882 294.897 411.705 294.982C411.528 295.068 411.324 295.08 411.139 295.015Z" fill="#CCCCCC"/>
<path d="M454.997 299.817C455.117 299.529 455.231 299.237 455.335 298.938C456.689 295.049 456.443 290.78 454.651 287.072C452.858 283.364 449.666 280.52 445.776 279.165L440.359 294.72L454.997 299.817Z" fill="#62B0E5"/>
<path d="M438.784 295.666L444.201 280.111C441.338 279.114 438.246 278.977 435.306 279.716C432.367 280.455 429.707 282.038 427.657 284.271C425.606 286.503 424.253 289.287 423.766 292.279C423.278 295.271 423.677 298.34 424.913 301.108C426.149 303.876 428.168 306.222 430.721 307.856C433.274 309.49 436.25 310.342 439.281 310.305C442.312 310.268 445.266 309.345 447.779 307.65C450.292 305.954 452.254 303.561 453.422 300.764L438.784 295.666Z" fill="#3F3D56"/>
<path d="M458.177 273.353C458.116 272.6 458.22 271.843 458.483 271.136C458.746 270.428 459.161 269.786 459.698 269.256C460.236 268.726 460.883 268.32 461.595 268.067C462.306 267.815 463.064 267.721 463.816 267.793L471.454 251.105L476.508 259.193L468.48 273.799C468.275 275.054 467.618 276.19 466.632 276.992C465.646 277.795 464.4 278.207 463.13 278.152C461.86 278.097 460.654 277.578 459.742 276.693C458.829 275.809 458.272 274.62 458.177 273.353Z" fill="#FFB8B8"/>
<path d="M471.401 267.476C470.93 267.476 470.471 267.333 470.084 267.065L466.478 264.568C466.088 264.297 465.791 263.913 465.626 263.467C465.462 263.022 465.439 262.536 465.559 262.077L469.799 246.064L464.674 216.332C464.668 215.353 464.855 214.383 465.224 213.477C465.594 212.571 466.138 211.747 466.826 211.051C467.514 210.355 468.332 209.802 469.234 209.423C470.136 209.044 471.104 208.847 472.083 208.842C473.061 208.837 474.031 209.025 474.937 209.396C475.842 209.766 476.666 210.311 477.361 211C478.056 211.689 478.608 212.508 478.986 213.411C479.364 214.313 479.56 215.281 479.564 216.26L483.763 234.811C485.038 240.442 484.225 246.344 481.475 251.42L473.432 266.266C473.277 266.551 473.064 266.801 472.806 266.999C472.549 267.196 472.253 267.337 471.937 267.413C471.761 267.455 471.581 267.476 471.401 267.476Z" fill="#3F3D56"/>
<path d="M510.486 359.287H412.908C412.772 359.287 412.641 359.233 412.545 359.136C412.449 359.04 412.395 358.91 412.395 358.773C412.395 358.637 412.449 358.507 412.545 358.41C412.641 358.314 412.772 358.26 412.908 358.26H510.486C510.622 358.26 510.753 358.314 510.849 358.41C510.945 358.507 511 358.637 511 358.773C511 358.91 510.945 359.04 510.849 359.136C510.753 359.233 510.622 359.287 510.486 359.287Z" fill="#CCCCCC"/>
<path d="M251.926 352.897L258.222 352.896L261.217 328.611H251.925L251.926 352.897Z" fill="#A0616A"/>
<path d="M250.32 350.841L262.72 350.841H262.72C263.758 350.841 264.786 351.045 265.744 351.442C266.703 351.839 267.574 352.421 268.308 353.155C269.042 353.889 269.624 354.76 270.021 355.719C270.418 356.677 270.622 357.705 270.622 358.743V358.999L250.321 359L250.32 350.841Z" fill="#2F2E41"/>
<path d="M226.761 352.897L233.057 352.896L236.052 328.611H226.76L226.761 352.897Z" fill="#A0616A"/>
<path d="M225.155 350.841L237.555 350.841H237.555C238.593 350.841 239.621 351.045 240.579 351.442C241.538 351.839 242.409 352.421 243.143 353.155C243.877 353.889 244.459 354.76 244.856 355.719C245.253 356.677 245.457 357.705 245.457 358.743V358.999L225.156 359L225.155 350.841Z" fill="#2F2E41"/>
<path d="M253.183 184.765C260.149 184.765 265.797 179.117 265.797 172.151C265.797 165.184 260.149 159.537 253.183 159.537C246.217 159.537 240.569 165.184 240.569 172.151C240.569 179.117 246.217 184.765 253.183 184.765Z" fill="#FFB8B8"/>
<path d="M261.665 347.656H249.981C249.675 347.656 249.372 347.595 249.09 347.477C248.808 347.359 248.552 347.186 248.337 346.969C248.122 346.751 247.952 346.493 247.838 346.209C247.723 345.926 247.666 345.622 247.67 345.316L248.349 289.835C248.351 289.638 248.278 289.448 248.144 289.303C248.011 289.158 247.827 289.07 247.63 289.057C247.433 289.044 247.239 289.106 247.087 289.232C246.935 289.358 246.838 289.537 246.814 289.732L240.014 345.624C239.945 346.184 239.674 346.7 239.251 347.074C238.829 347.448 238.284 347.655 237.72 347.656H225.923C225.605 347.656 225.289 347.59 224.997 347.462C224.705 347.334 224.443 347.148 224.227 346.914C224.01 346.68 223.845 346.404 223.74 346.103C223.636 345.802 223.594 345.482 223.619 345.165L231.409 245.494L231.621 245.471L268.921 241.442L263.973 345.454C263.946 346.048 263.69 346.608 263.26 347.018C262.83 347.428 262.259 347.656 261.665 347.656Z" fill="#2F2E41"/>
<path d="M231.863 251.613C231.264 251.611 230.688 251.377 230.259 250.959C229.829 250.542 229.578 249.973 229.56 249.374C229.356 243.072 229.008 221.265 233.064 205.256C234.171 200.883 236.655 196.982 240.151 194.129C243.646 191.277 247.966 189.625 252.473 189.418C256.908 189.176 261.308 190.337 265.047 192.736C268.785 195.135 271.674 198.65 273.302 202.783C280.12 220.092 286.562 241.427 278.531 244.773C268.005 249.159 240.258 251.114 232.005 251.608C231.957 251.611 231.91 251.613 231.863 251.613Z" fill="#3F3D56"/>
<path d="M280.073 159.402C280.271 159.606 280.485 159.794 280.713 159.964L279.388 185.399L273.881 188.219L277.05 197.087L287.285 193.042C288.112 192.716 288.811 192.13 289.276 191.372C289.741 190.614 289.949 189.726 289.866 188.841L287.185 159.989C288.062 159.335 288.72 158.428 289.069 157.391C289.419 156.354 289.445 155.234 289.143 154.182C288.841 153.13 288.226 152.194 287.38 151.5C286.533 150.806 285.495 150.386 284.404 150.296C283.313 150.206 282.221 150.45 281.272 150.996C280.323 151.542 279.563 152.364 279.093 153.353C278.623 154.341 278.464 155.45 278.64 156.53C278.815 157.611 279.314 158.613 280.073 159.402Z" fill="#FFB8B8"/>
<path d="M279.493 186.346L283.367 197.356C283.478 197.669 283.519 198.003 283.489 198.333C283.459 198.664 283.358 198.984 283.192 199.273C283.027 199.561 282.802 199.81 282.532 200.003C282.262 200.196 281.953 200.329 281.627 200.392L270.202 202.604C268.596 203.159 266.836 203.055 265.307 202.314C263.777 201.573 262.605 200.256 262.045 198.651C261.486 197.046 261.586 195.285 262.323 193.754C263.06 192.223 264.374 191.047 265.977 190.483L276.235 185.069C276.529 184.914 276.852 184.824 277.184 184.805C277.515 184.787 277.847 184.84 278.156 184.961C278.466 185.082 278.745 185.269 278.976 185.508C279.206 185.747 279.383 186.032 279.493 186.346V186.346Z" fill="#3F3D56"/>
<path d="M225.436 159.402C225.238 159.606 225.024 159.794 224.796 159.964L226.12 185.399L231.628 188.219L228.459 197.087L218.224 193.042C217.397 192.716 216.698 192.13 216.233 191.372C215.767 190.614 215.56 189.726 215.643 188.841L218.324 159.989C217.447 159.335 216.789 158.428 216.439 157.391C216.09 156.354 216.064 155.234 216.366 154.182C216.668 153.13 217.283 152.194 218.129 151.5C218.976 150.806 220.013 150.386 221.105 150.296C222.196 150.206 223.288 150.45 224.237 150.996C225.186 151.542 225.946 152.364 226.416 153.353C226.886 154.341 227.045 155.45 226.869 156.53C226.694 157.611 226.195 158.613 225.436 159.402H225.436Z" fill="#FFB8B8"/>
<path d="M227.352 184.961C227.661 184.84 227.993 184.787 228.325 184.805C228.656 184.824 228.98 184.914 229.273 185.069L239.531 190.483C241.134 191.047 242.449 192.223 243.186 193.755C243.923 195.286 244.022 197.047 243.463 198.651C242.904 200.256 241.731 201.573 240.202 202.314C238.673 203.055 236.912 203.16 235.306 202.605L223.881 200.392C223.555 200.329 223.247 200.196 222.977 200.003C222.706 199.81 222.481 199.561 222.316 199.273C222.151 198.985 222.05 198.664 222.019 198.334C221.989 198.003 222.031 197.669 222.141 197.356L226.015 186.346C226.125 186.033 226.302 185.747 226.533 185.508C226.763 185.269 227.043 185.082 227.352 184.961Z" fill="#3F3D56"/>
<path d="M258.082 174.301C258.015 172.692 258.419 171.098 259.244 169.715C260.068 168.332 261.278 167.218 262.725 166.511C266.559 164.532 268.967 160.31 267.912 156.454C266.561 151.52 259.845 148.319 254.403 150.017C252.93 150.54 251.509 151.2 250.16 151.989L246.605 153.895C245.086 154.655 243.621 155.519 242.222 156.482C240.125 158.027 238.482 160.106 237.464 162.503C236.446 164.899 236.09 167.526 236.434 170.107C237.134 175.124 240.419 179.725 244.917 182.875C246.637 184.16 248.623 185.043 250.73 185.458C252.885 185.814 255.285 185.41 256.861 184.069C259.325 181.974 259.07 178.466 258.273 175.536C258.168 175.132 258.104 174.718 258.082 174.301Z" fill="#2F2E41"/>
<path d="M300.951 359.287H203.373C203.237 359.287 203.106 359.233 203.01 359.136C202.913 359.04 202.859 358.91 202.859 358.773C202.859 358.637 202.913 358.507 203.01 358.41C203.106 358.314 203.237 358.26 203.373 358.26H300.951C301.087 358.26 301.218 358.314 301.314 358.41C301.41 358.507 301.464 358.637 301.464 358.773C301.464 358.91 301.41 359.04 301.314 359.136C301.218 359.233 301.087 359.287 300.951 359.287Z" fill="#CCCCCC"/>
<path d="M141.698 265.599L61.1824 298.63C59.7996 299.195 58.249 299.189 56.8708 298.613C55.4925 298.036 54.3992 296.937 53.8306 295.555L29.1835 235.477C28.7692 234.464 28.7737 233.328 29.1959 232.318C29.6182 231.308 30.4237 230.507 31.4358 230.091L114.673 195.943C115.704 195.521 116.86 195.526 117.887 195.955C118.914 196.385 119.729 197.204 120.153 198.234L144.773 258.247C145.338 259.63 145.332 261.18 144.756 262.558C144.179 263.937 143.08 265.03 141.698 265.599Z" fill="#E6E6E6"/>
<path d="M64.0994 291.343L134.505 262.459C135.846 261.909 136.913 260.849 137.472 259.512C138.031 258.175 138.036 256.671 137.486 255.33L117.584 206.817C117.311 206.153 116.911 205.549 116.405 205.04C115.9 204.531 115.299 204.127 114.637 203.85C113.975 203.573 113.265 203.429 112.547 203.427C111.83 203.424 111.119 203.563 110.455 203.836L40.0493 232.719C39.3855 232.992 38.7818 233.392 38.2727 233.898C37.7636 234.403 37.3591 235.004 37.0822 235.666C36.8054 236.328 36.6616 237.038 36.6592 237.756C36.6568 238.473 36.7957 239.184 37.068 239.848L56.9704 288.361C57.2428 289.025 57.6432 289.629 58.1488 290.138C58.6545 290.647 59.2555 291.052 59.9175 291.328C60.5795 291.605 61.2895 291.749 62.007 291.751C62.7246 291.754 63.4356 291.615 64.0994 291.343Z" fill="white"/>
<path d="M117.194 220.047L116.159 220.472L116.23 220.644L117.265 220.22L117.194 220.047Z" fill="#E6E6E6"/>
<path d="M114.139 221.502L112.048 222.359L111.977 222.187L114.068 221.329L114.139 221.502ZM109.957 223.217L107.865 224.075L107.795 223.903L109.886 223.045L109.957 223.217ZM105.774 224.933L103.683 225.791L103.612 225.618L105.704 224.761L105.774 224.933ZM101.592 226.649L99.5009 227.507L99.4301 227.334L101.521 226.476L101.592 226.649ZM97.4098 228.365L95.3187 229.223L95.2479 229.05L97.339 228.192L97.4098 228.365ZM93.2275 230.08L91.1364 230.938L91.0657 230.766L93.1568 229.908L93.2275 230.08ZM89.0453 231.796L86.9542 232.654L86.8834 232.482L88.9745 231.624L89.0453 231.796ZM84.8631 233.512L82.7719 234.37L82.7012 234.197L84.7923 233.339L84.8631 233.512ZM80.6808 235.228L78.5897 236.086L78.5189 235.913L80.61 235.055L80.6808 235.228ZM76.4986 236.943L74.4075 237.801L74.3367 237.629L76.4278 236.771L76.4986 236.943ZM72.3163 238.659L70.2252 239.517L70.1544 239.345L72.2455 238.487L72.3163 238.659ZM68.1341 240.375L66.043 241.233L65.9722 241.06L68.0633 240.202L68.1341 240.375ZM63.9518 242.091L61.8607 242.949L61.7899 242.776L63.881 241.918L63.9518 242.091ZM59.7696 243.806L57.6784 244.664L57.6077 244.492L59.6988 243.634L59.7696 243.806ZM55.5873 245.522L53.4962 246.38L53.4254 246.208L55.5165 245.35L55.5873 245.522ZM51.4051 247.238L49.3139 248.096L49.2432 247.923L51.3343 247.065L51.4051 247.238Z" fill="#E6E6E6"/>
<path d="M47.1523 248.781L46.1172 249.206L46.188 249.379L47.2231 248.954L47.1523 248.781Z" fill="#E6E6E6"/>
<path d="M89.791 250.033L88.7559 250.458L88.8266 250.631L89.8617 250.206L89.791 250.033Z" fill="#E6E6E6"/>
<path d="M86.7657 251.476L84.7056 252.321L84.6348 252.149L86.6949 251.304L86.7657 251.476ZM82.6455 253.166L80.5855 254.012L80.5147 253.839L82.5748 252.994L82.6455 253.166ZM78.5254 254.857L76.4654 255.702L76.3946 255.529L78.4546 254.684L78.5254 254.857ZM74.4053 256.547L72.3452 257.392L72.2745 257.22L74.3345 256.375L74.4053 256.547ZM70.2852 258.237L68.2251 259.082L68.1543 258.91L70.2144 258.065L70.2852 258.237ZM66.165 259.928L64.105 260.773L64.0342 260.6L66.0942 259.755L66.165 259.928ZM62.0449 261.618L59.9848 262.463L59.9141 262.291L61.9741 261.445L62.0449 261.618ZM57.9248 263.308L55.8647 264.153L55.7939 263.981L57.854 263.136L57.9248 263.308Z" fill="#E6E6E6"/>
<path d="M53.7343 264.825L52.6992 265.25L52.77 265.423L53.8051 264.998L53.7343 264.825Z" fill="#E6E6E6"/>
<path d="M72.7197 265.905L71.6846 266.33L71.7553 266.503L72.7904 266.078L72.7197 265.905Z" fill="#E6E6E6"/>
<path d="M69.6361 267.372L67.5166 268.241L67.4458 268.069L69.5653 267.199L69.6361 267.372ZM65.397 269.111L63.2775 269.98L63.2068 269.808L65.3263 268.938L65.397 269.111ZM61.158 270.85L59.0385 271.719L58.9678 271.547L61.0873 270.677L61.158 270.85Z" fill="#E6E6E6"/>
<path d="M56.8486 272.416L55.8135 272.841L55.8843 273.013L56.9194 272.589L56.8486 272.416Z" fill="#E6E6E6"/>
<path d="M78.0341 278.859L76.999 279.283L77.0698 279.456L78.1049 279.031L78.0341 278.859Z" fill="#E6E6E6"/>
<path d="M74.9505 280.326L72.831 281.195L72.7602 281.023L74.8797 280.153L74.9505 280.326ZM70.7115 282.065L68.592 282.934L68.5212 282.762L70.6407 281.892L70.7115 282.065ZM66.4725 283.804L64.353 284.673L64.2822 284.501L66.4017 283.631L66.4725 283.804Z" fill="#E6E6E6"/>
<path d="M62.163 285.37L61.1279 285.795L61.1987 285.967L62.2338 285.543L62.163 285.37Z" fill="#E6E6E6"/>
<path d="M67.0889 283.706L126.753 259.229C128.197 258.634 129.346 257.492 129.948 256.051C130.551 254.61 130.557 252.99 129.966 251.544L117.911 222.16L117.795 222.212L103.153 257.22L92.2941 252.68C92.0937 252.596 91.8765 252.559 91.6595 252.573C91.4425 252.586 91.2316 252.65 91.0433 252.758C90.7605 252.929 90.5418 253.187 90.4208 253.494L82.7475 271.84L74.8078 268.521C74.6365 268.449 74.4527 268.412 74.267 268.411C74.0813 268.411 73.8972 268.447 73.7254 268.517C73.5536 268.588 73.3974 268.691 73.2656 268.822C73.1339 268.953 73.0292 269.109 72.9576 269.28C72.9068 269.405 68.0113 281.416 67.0889 283.706Z" fill="#62B0E5"/>
<path d="M66.9054 283.982L66.7334 283.91L72.8729 269.229C73.0354 268.842 73.345 268.535 73.7338 268.375C74.1226 268.216 74.5588 268.217 74.9466 268.379L82.7295 271.633L90.3591 253.389C90.5217 253.001 90.8313 252.694 91.2201 252.535C91.6089 252.375 92.045 252.376 92.4329 252.538L103.135 257.014L117.852 221.822L118.024 221.894L103.235 257.258L92.361 252.71C92.1915 252.639 92.0098 252.602 91.8261 252.602C91.6425 252.601 91.4605 252.637 91.2906 252.706C91.1207 252.776 90.9662 252.879 90.8359 253.008C90.7056 253.137 90.602 253.291 90.5312 253.461L82.8296 271.877L74.8747 268.551C74.5325 268.408 74.1476 268.407 73.8046 268.548C73.4616 268.688 73.1884 268.959 73.0449 269.301L66.9054 283.982Z" fill="#3F3D56"/>
<path d="M72.7555 267.297C73.4764 267.297 74.0608 266.713 74.0608 265.992C74.0608 265.271 73.4764 264.687 72.7555 264.687C72.0346 264.687 71.4502 265.271 71.4502 265.992C71.4502 266.713 72.0346 267.297 72.7555 267.297Z" fill="#3F3D56"/>
<path d="M89.8258 251.425C90.5467 251.425 91.1311 250.841 91.1311 250.12C91.1311 249.399 90.5467 248.814 89.8258 248.814C89.1049 248.814 88.5205 249.399 88.5205 250.12C88.5205 250.841 89.1049 251.425 89.8258 251.425Z" fill="#3F3D56"/>
<path d="M116.407 221.393C117.128 221.393 117.712 220.808 117.712 220.088C117.712 219.367 117.128 218.782 116.407 218.782C115.686 218.782 115.102 219.367 115.102 220.088C115.102 220.808 115.686 221.393 116.407 221.393Z" fill="#3F3D56"/>
<path d="M43.3452 264.51C44.0238 264.172 44.6201 263.69 45.092 263.097C45.564 262.504 45.9002 261.815 46.077 261.078C46.2537 260.341 46.2667 259.574 46.1151 258.831C45.9634 258.089 45.6508 257.388 45.1992 256.779L49.0759 218.876H40.6979L37.617 255.887C36.6447 256.713 36.0093 257.868 35.8313 259.131C35.6532 260.395 35.9449 261.68 36.651 262.743C37.357 263.806 38.4285 264.573 39.6623 264.898C40.8961 265.224 42.2065 265.086 43.3452 264.51Z" fill="#FFB8B8"/>
<path d="M51.0377 197.958C57.5841 197.958 62.8909 192.651 62.8909 186.105C62.8909 179.559 57.5841 174.252 51.0377 174.252C44.4914 174.252 39.1846 179.559 39.1846 186.105C39.1846 192.651 44.4914 197.958 51.0377 197.958Z" fill="#FFB8B8"/>
<path d="M53.2696 240.95C52.7951 240.95 52.3338 240.794 51.9564 240.507C51.579 240.219 51.3064 239.816 51.1803 239.358C50.2307 235.908 47.76 230.074 43.8369 222.018C42.9517 220.197 42.4616 218.21 42.3986 216.186C42.3356 214.162 42.7011 212.148 43.4713 210.276C44.2415 208.403 45.3989 206.715 46.8676 205.321C48.3363 203.927 50.0831 202.859 51.9933 202.188C53.8036 201.549 55.7237 201.279 57.64 201.395C59.5563 201.511 61.4299 202.01 63.1499 202.863C64.87 203.716 66.4015 204.905 67.654 206.36C68.9064 207.815 69.8543 209.506 70.4416 211.334C73.4824 220.867 73.3356 231.079 73.1313 235.027C73.1059 235.502 72.9254 235.956 72.6173 236.319C72.3093 236.682 71.8907 236.934 71.4258 237.037L53.7353 240.9C53.5824 240.933 53.4262 240.95 53.2696 240.95Z" fill="#FF6584"/>
<path d="M70.4004 353.506H76.3167L79.1316 330.685L70.3994 330.685L70.4004 353.506Z" fill="#FFB8B8"/>
<path d="M87.7285 359L69.1335 359.001L69.1332 351.816L80.5438 351.816C81.4872 351.816 82.4215 352.002 83.2931 352.363C84.1648 352.724 84.9568 353.253 85.624 353.92C86.2912 354.587 86.8204 355.379 87.1815 356.251C87.5426 357.122 87.7285 358.057 87.7285 359Z" fill="#2F2E41"/>
<path d="M11.2383 345.839L16.4233 348.689L29.8849 330.048L22.2333 325.841L11.2383 345.839Z" fill="#FFB8B8"/>
<path d="M23.7754 359.001L7.48065 350.043L10.9419 343.747L20.9409 349.244C22.6106 350.162 23.8473 351.706 24.3789 353.535C24.9104 355.365 24.6934 357.331 23.7754 359.001Z" fill="#2F2E41"/>
<path d="M70.1242 340.839C69.5969 340.839 69.0879 340.646 68.692 340.298C68.2961 339.95 68.0404 339.47 67.9726 338.947L60.5732 281.928C60.5405 281.676 60.429 281.441 60.2545 281.256C60.08 281.071 59.8515 280.946 59.6016 280.898C59.3518 280.851 59.0933 280.884 58.8632 280.992C58.633 281.1 58.443 281.278 58.3202 281.501L27.4827 337.449C27.2282 337.906 26.8183 338.256 26.3274 338.436C25.8365 338.617 25.2973 338.615 24.8077 338.431L18.0861 335.87C17.8157 335.767 17.5686 335.611 17.3594 335.411C17.1502 335.211 16.983 334.972 16.8676 334.706C16.7522 334.441 16.6911 334.155 16.6877 333.866C16.6842 333.577 16.7387 333.29 16.8478 333.022L38.2097 280.545C38.2638 280.412 38.3005 280.272 38.3188 280.129C41.2122 257.735 48.5738 246.347 50.7611 243.39C50.9209 243.173 51.026 242.92 51.0676 242.654C51.1093 242.387 51.0862 242.115 51.0004 241.859L50.6997 240.957C50.5796 240.599 50.555 240.216 50.6283 239.845C50.7016 239.475 50.8703 239.13 51.1177 238.845C58.9992 229.867 72.7363 234.766 72.8742 234.816L72.943 234.842L72.9861 234.901C88.3895 256.025 82.6943 324.638 81.3963 338.177C81.3478 338.686 81.121 339.161 80.7559 339.519C80.3908 339.877 79.9109 340.094 79.4012 340.132L70.2928 340.833C70.2362 340.837 70.18 340.839 70.1242 340.839Z" fill="#2F2E41"/>
<path d="M97.1191 199.874C97.0598 200.134 97.0212 200.399 97.0036 200.665L76.2723 212.625L71.2333 209.724L65.8613 216.757L74.2829 222.759C74.9632 223.244 75.7825 223.495 76.6177 223.475C77.453 223.455 78.2591 223.164 78.915 222.647L100.293 205.782C101.257 206.139 102.308 206.194 103.305 205.939C104.301 205.685 105.197 205.133 105.872 204.357C106.548 203.581 106.971 202.617 107.086 201.595C107.2 200.573 107.001 199.54 106.514 198.633C106.027 197.727 105.276 196.991 104.36 196.522C103.445 196.053 102.408 195.874 101.388 196.008C100.368 196.143 99.4134 196.585 98.6508 197.276C97.8882 197.966 97.354 198.872 97.1191 199.874Z" fill="#FFB8B8"/>
<path d="M75.5794 213.192L68.8791 221.876C68.6884 222.123 68.4468 222.326 68.1705 222.471C67.8943 222.616 67.5901 222.7 67.2784 222.718C66.9668 222.735 66.6552 222.684 66.3648 222.57C66.0744 222.456 65.812 222.28 65.5955 222.056L58.0103 214.179C56.7517 213.196 55.9341 211.755 55.7367 210.17C55.5393 208.586 55.9783 206.988 56.9574 205.727C57.9365 204.465 59.3758 203.644 60.9597 203.442C62.5437 203.24 64.1429 203.675 65.4069 204.65L74.9204 209.97C75.1928 210.122 75.4291 210.332 75.6132 210.584C75.7974 210.836 75.9251 211.124 75.9876 211.43C76.0501 211.736 76.046 212.051 75.9756 212.355C75.9051 212.659 75.77 212.945 75.5794 213.192Z" fill="#FF6584"/>
<path d="M49.6099 228.278L38.8161 226.329C38.509 226.274 38.2174 226.153 37.9613 225.975C37.7051 225.796 37.4904 225.565 37.3318 225.296C37.1732 225.027 37.0743 224.728 37.042 224.417C37.0096 224.107 37.0446 223.793 37.1444 223.497L40.6436 213.137C40.9361 211.567 41.8392 210.178 43.1548 209.273C44.4705 208.368 46.0913 208.022 47.6618 208.31C49.2324 208.598 50.6245 209.498 51.5329 210.811C52.4413 212.124 52.7919 213.744 52.5077 215.315L52.1663 226.21C52.1565 226.522 52.0795 226.828 51.9406 227.107C51.8018 227.387 51.6043 227.633 51.3617 227.829C51.1191 228.026 50.837 228.167 50.5347 228.245C50.2324 228.322 49.917 228.334 49.6098 228.278H49.6099Z" fill="#FF6584"/>
<path d="M52.9142 183.378C55.9608 185.463 59.9609 187.607 63.0725 185.386C64.0458 184.645 64.7528 183.609 65.0878 182.432C65.4228 181.255 65.3677 180.002 64.9308 178.859C63.4409 174.598 59.3474 172.723 55.4329 171.285C50.3442 169.416 44.8033 167.929 39.55 169.267C34.2967 170.606 29.654 175.692 30.6023 181.03C31.3649 185.322 35.4138 188.894 34.839 193.215C34.2605 197.564 29.3693 199.854 25.0512 200.631C20.733 201.408 15.9009 201.658 12.7976 204.76C8.83875 208.717 9.82733 215.789 13.5524 219.966C17.2775 224.144 22.8989 226.038 28.346 227.325C35.5631 229.031 43.3689 229.927 50.2233 227.096C57.0777 224.266 62.4117 216.646 60.4261 209.501C59.5874 206.483 57.6116 203.932 55.7021 201.449C53.7926 198.966 51.8591 196.369 51.1307 193.322C50.5238 190.783 50.973 187.836 52.6566 185.931C52.9629 185.598 53.1556 185.176 53.2071 184.727C53.2587 184.277 53.1664 183.822 52.9435 183.428L52.9142 183.378Z" fill="#2F2E41"/>
<path d="M98.0915 359.287H0.513568C0.377361 359.287 0.246733 359.233 0.15042 359.136C0.0541075 359.04 0 358.91 0 358.773C0 358.637 0.0541075 358.507 0.15042 358.41C0.246733 358.314 0.377361 358.26 0.513568 358.26H98.0915C98.2277 358.26 98.3583 358.314 98.4546 358.41C98.5509 358.507 98.605 358.637 98.605 358.773C98.605 358.91 98.5509 359.04 98.4546 359.136C98.3583 359.233 98.2277 359.287 98.0915 359.287Z" fill="#CCCCCC"/>
</g>
<defs>
<clipPath id="clip0_564_93032">
<rect width="511" height="358.307" fill="white" transform="translate(0 0.980469)"/>
</clipPath>
</defs>
</svg>
