<svg width="429" height="327" viewBox="0 0 429 327" fill="none" xmlns="http://www.w3.org/2000/svg">
<g clip-path="url(#clip0_564_93166)">
<path d="M206.711 121.622C209.047 119.049 212.905 119.801 215.472 121.617C218.775 123.955 219.72 128.223 220.207 132.007C221.032 138.412 221.276 147.467 228.54 150.145C231.896 151.382 235.738 150.361 238.572 148.352C241.668 146.157 243.6 142.782 244.893 139.283C246.459 135.048 247.366 130.517 248.134 126.078C248.92 121.539 249.435 116.951 249.667 112.35C249.893 107.848 249.746 103.377 249.567 98.8783C249.427 95.3661 249.374 91.6779 250.56 88.3195C251.758 84.9275 254.544 82.3475 258.207 82.0072C261.763 81.6769 265.425 83.1763 267.997 85.5961C274.17 91.4024 274.46 100.881 275.84 108.666C276.565 112.757 277.624 116.895 279.845 120.454C281.672 123.381 284.211 125.834 287.135 127.655C293.033 131.327 300.548 132.398 307.093 129.876C313.482 127.413 318.626 122.029 320.851 115.558C321.401 113.96 321.74 112.309 321.913 110.629C321.993 109.849 320.771 109.854 320.692 110.629C319.96 117.768 315.378 124.233 309.099 127.618C302.638 131.102 294.814 130.66 288.501 127.048C285.398 125.273 282.698 122.769 280.823 119.714C278.548 116.011 277.574 111.694 276.865 107.455C275.585 99.7992 275.004 91.0092 269.267 85.1312C264.817 80.5725 256.629 78.743 251.846 83.8208C246.922 89.0494 248.398 97.4719 248.555 103.962C248.786 113.468 247.806 122.996 245.633 132.253C244.688 136.283 243.6 140.438 241.226 143.893C239.057 147.051 235.512 149.498 231.565 149.459C227.628 149.42 224.863 146.527 223.465 143.078C221.991 139.439 221.894 135.508 221.384 131.667C220.915 128.141 220.062 124.238 217.417 121.658C215.361 119.651 212.31 118.359 209.416 118.82C208.025 119.042 206.792 119.718 205.847 120.759C205.32 121.339 206.181 122.205 206.711 121.622H206.711Z" fill="#62B0E5"/>
<path d="M383.165 252.159C382.478 251 379.505 252.241 378.958 251.189C378.413 250.141 381.176 248.545 382.754 244.897C383.039 244.239 384.832 240.094 383.504 238.815C380.988 236.391 369.471 246.396 365.441 243.122C364.557 242.403 363.939 240.969 361.262 238.64C360.197 237.713 359.553 237.295 358.93 237.451C358.045 237.672 357.975 238.855 357.027 241.182C355.605 244.672 354.764 244.461 353.935 247.246C353.32 249.313 353.461 250.514 352.737 250.748C351.713 251.08 350.77 248.887 349.472 249.084C348.148 249.284 347.347 251.837 347.094 253.748C346.619 257.334 347.936 259.701 348.666 262.189C349.46 264.894 349.931 269.007 348.098 274.829L329.965 325.921C333.968 315.437 345.56 286.698 350.431 276.018C351.837 272.935 353.389 269.808 356.577 268.574C359.646 267.386 363.861 268.095 369.235 266.8C369.863 266.649 371.604 266.206 371.823 265.182C372.005 264.335 370.98 263.862 371.138 263.069C371.349 262.005 373.363 261.992 375.839 260.765C377.584 259.899 378.672 258.87 379.607 257.985C379.889 257.718 384.08 253.702 383.165 252.159H383.165H383.165Z" fill="#F2F2F2"/>
<path d="M311.822 279.056C311.055 279.059 310.806 280.876 310.132 280.841C309.46 280.806 309.474 278.989 308.139 277.162C307.898 276.833 306.381 274.756 305.37 275.039C303.454 275.575 305.042 284.114 302.272 285.147C301.664 285.374 300.782 285.263 298.867 285.905C298.105 286.161 297.714 286.356 297.61 286.707C297.463 287.204 298.024 287.58 298.893 288.717C300.195 290.422 299.849 290.774 300.977 291.984C301.814 292.882 302.444 293.16 302.35 293.583C302.217 294.181 300.869 294.011 300.591 294.705C300.307 295.413 301.329 296.542 302.194 297.218C303.817 298.486 305.359 298.522 306.791 298.882C308.347 299.273 310.501 300.229 312.83 302.808L332.674 326.449C328.684 321.46 317.923 307.478 314.087 302.006C312.98 300.426 311.893 298.762 312.207 296.841C312.509 294.992 314.074 293.128 314.989 290.117C315.096 289.766 315.381 288.783 314.941 288.38C314.578 288.046 314.05 288.413 313.706 288.107C313.245 287.696 313.82 286.704 313.932 285.134C314.01 284.028 313.819 283.197 313.654 282.483C313.605 282.267 312.843 279.052 311.822 279.056V279.056Z" fill="#F2F2F2"/>
<path d="M327.124 282.491L326.662 278.366L326.873 278.053C327.85 276.607 328.348 275.194 328.354 273.854C328.355 273.641 328.345 273.427 328.335 273.21C328.296 272.35 328.246 271.28 328.804 270.033C329.116 269.338 329.995 267.728 331.315 267.927C331.671 267.977 331.94 268.141 332.144 268.332C332.174 268.284 332.205 268.236 332.238 268.184C332.649 267.557 332.975 267.288 333.289 267.029C333.53 266.83 333.779 266.625 334.169 266.139C334.34 265.925 334.474 265.738 334.586 265.581C334.928 265.105 335.374 264.537 336.161 264.547C337.002 264.587 337.442 265.282 337.734 265.742C338.255 266.563 338.491 267.155 338.647 267.547C338.704 267.69 338.769 267.852 338.802 267.902C339.072 268.3 341.275 267.927 342.104 267.792C343.968 267.481 345.58 267.212 346.245 268.388C346.721 269.228 346.367 270.34 345.162 271.78C344.787 272.228 344.387 272.569 344.033 272.836C344.326 273.011 344.589 273.28 344.696 273.702C344.947 274.702 344.087 275.704 342.142 276.684C341.659 276.929 341.009 277.256 340.097 277.414C339.668 277.487 339.282 277.505 338.951 277.515C338.944 277.706 338.899 277.914 338.783 278.127C338.441 278.754 337.73 279.053 336.658 278.981C335.479 278.919 334.508 278.694 333.651 278.497C332.903 278.326 332.259 278.18 331.753 278.214C330.815 278.29 330.091 279.041 329.243 280.015L327.124 282.491H327.124Z" fill="#F2F2F2"/>
<path d="M329.268 257.928L325.395 259.421L325.039 259.297C323.392 258.718 321.9 258.595 320.601 258.929C320.395 258.982 320.191 259.046 319.984 259.111C319.162 259.367 318.139 259.687 316.792 259.464C316.04 259.337 314.26 258.896 314.118 257.568C314.076 257.211 314.166 256.91 314.299 256.664C314.245 256.647 314.191 256.629 314.132 256.611C313.421 256.372 313.078 256.125 312.748 255.887C312.494 255.705 312.233 255.516 311.664 255.261C311.414 255.15 311.199 255.068 311.018 254.999C310.471 254.79 309.809 254.502 309.619 253.738C309.444 252.915 310.005 252.313 310.376 251.914C311.038 251.202 311.55 250.823 311.89 250.573C312.014 250.481 312.154 250.378 312.194 250.333C312.511 249.97 311.592 247.934 311.25 247.166C310.477 245.443 309.808 243.951 310.776 243.01C311.469 242.336 312.633 242.397 314.332 243.197C314.861 243.447 315.292 243.746 315.64 244.022C315.735 243.693 315.928 243.37 316.31 243.16C317.214 242.664 318.401 243.241 319.842 244.874C320.202 245.279 320.683 245.826 321.066 246.667C321.246 247.064 321.362 247.433 321.455 247.75C321.642 247.709 321.854 247.699 322.09 247.758C322.783 247.929 323.253 248.541 323.455 249.596C323.694 250.753 323.723 251.749 323.749 252.628C323.774 253.395 323.796 254.055 323.957 254.536C324.269 255.424 325.178 255.933 326.336 256.507L329.268 257.928H329.268Z" fill="#F2F2F2"/>
<path d="M327.124 245.773L326.662 241.648L326.873 241.335C327.85 239.889 328.348 238.477 328.354 237.136C328.355 236.923 328.345 236.71 328.335 236.493C328.296 235.632 328.246 234.562 328.804 233.315C329.116 232.62 329.995 231.011 331.315 231.21C331.671 231.26 331.94 231.423 332.144 231.614C332.174 231.566 332.205 231.518 332.238 231.467C332.649 230.839 332.975 230.57 333.289 230.311C333.53 230.112 333.779 229.907 334.169 229.421C334.34 229.208 334.474 229.02 334.586 228.863C334.928 228.387 335.374 227.819 336.161 227.829C337.002 227.869 337.442 228.564 337.734 229.024C338.255 229.845 338.491 230.437 338.647 230.829C338.704 230.973 338.769 231.134 338.802 231.184C339.072 231.582 341.275 231.21 342.104 231.074C343.968 230.763 345.58 230.495 346.245 231.67C346.721 232.51 346.367 233.622 345.162 235.062C344.787 235.51 344.387 235.851 344.033 236.118C344.326 236.293 344.589 236.562 344.696 236.985C344.947 237.985 344.087 238.987 342.142 239.967C341.659 240.212 341.009 240.538 340.097 240.696C339.668 240.769 339.282 240.787 338.951 240.797C338.944 240.989 338.899 241.196 338.783 241.409C338.441 242.036 337.73 242.335 336.658 242.263C335.479 242.202 334.508 241.977 333.651 241.779C332.903 241.608 332.259 241.463 331.753 241.497C330.815 241.572 330.091 242.323 329.243 243.297L327.124 245.773H327.124Z" fill="#F2F2F2"/>
<path d="M331.346 325.854L330.481 325.312L330.272 324.314L330.481 325.312L329.473 325.427C329.458 325.334 329.403 325.119 329.32 324.782C328.869 322.937 327.493 317.324 326.346 308.483C325.545 302.312 325.092 295.967 324.998 289.623C324.905 283.268 325.206 278.457 325.447 274.591C325.629 271.675 325.85 268.898 326.067 266.193C326.645 258.965 327.19 252.139 326.784 244.581C326.695 242.894 326.506 239.382 324.455 235.645C323.264 233.477 321.625 231.553 319.581 229.928L320.852 228.33C323.108 230.127 324.922 232.258 326.243 234.665C328.518 238.808 328.723 242.635 328.822 244.474C329.234 252.165 328.684 259.057 328.1 266.354C327.885 269.049 327.664 271.814 327.482 274.718C327.243 278.549 326.946 283.318 327.038 289.591C327.13 295.86 327.578 302.127 328.368 308.22C329.501 316.949 330.857 322.479 331.302 324.296C331.539 325.266 331.589 325.469 331.346 325.854V325.854L331.346 325.854Z" fill="#F2F2F2"/>
<path d="M315.84 233.168C315.757 233.168 315.672 233.166 315.586 233.16C313.849 233.067 312.241 232.027 310.804 230.071C310.131 229.15 309.786 228.101 309.099 226.007C308.993 225.684 308.475 224.047 308.16 221.794C307.954 220.322 307.98 219.706 308.271 219.162C308.595 218.557 309.119 218.135 309.709 217.85C309.683 217.654 309.704 217.453 309.788 217.248C310.136 216.397 311.06 216.509 311.56 216.563C311.813 216.595 312.129 216.637 312.47 216.619C313.006 216.593 313.293 216.433 313.73 216.194C314.147 215.965 314.666 215.68 315.436 215.523C316.954 215.206 318.226 215.636 318.645 215.778C320.851 216.513 321.939 218.228 323.198 220.214C323.449 220.613 324.31 222.063 324.879 224.051C325.289 225.485 325.232 226.123 325.108 226.597C324.857 227.571 324.264 228.128 322.76 229.36C321.188 230.648 320.399 231.294 319.722 231.686C318.145 232.597 317.155 233.168 315.84 233.168V233.168Z" fill="#F2F2F2"/>
<path d="M472.681 178H208.781C207.776 178.001 206.812 178.401 206.101 179.112C205.389 179.823 204.989 180.787 204.988 181.792V360.573C204.989 361.579 205.389 362.543 206.101 363.254C206.812 363.965 207.776 364.365 208.781 364.366H472.681C473.686 364.365 474.651 363.965 475.362 363.254C476.073 362.543 476.473 361.579 476.474 360.573V181.792C476.473 180.787 476.073 179.823 475.362 179.112C474.651 178.401 473.686 178.001 472.681 178ZM475.39 360.573C475.39 361.292 475.104 361.981 474.596 362.488C474.088 362.996 473.399 363.282 472.681 363.282H208.781C208.063 363.282 207.374 362.996 206.866 362.488C206.358 361.981 206.072 361.292 206.072 360.573V181.792C206.072 181.074 206.358 180.385 206.866 179.877C207.374 179.369 208.063 179.084 208.781 179.084H472.681C473.399 179.084 474.088 179.369 474.596 179.877C475.104 180.385 475.39 181.074 475.39 181.792V360.573Z" fill="#3F3D56"/>
<path d="M475.932 193.191H205.53V194.275H475.932V193.191Z" fill="#3F3D56"/>
<path d="M214.743 189.377C216.538 189.377 217.994 187.922 217.994 186.127C217.994 184.331 216.538 182.876 214.743 182.876C212.947 182.876 211.491 184.331 211.491 186.127C211.491 187.922 212.947 189.377 214.743 189.377Z" fill="#3F3D56"/>
<path d="M224.09 189.377C225.886 189.377 227.342 187.922 227.342 186.127C227.342 184.331 225.886 182.876 224.09 182.876C222.295 182.876 220.839 184.331 220.839 186.127C220.839 187.922 222.295 189.377 224.09 189.377Z" fill="#3F3D56"/>
<path d="M233.438 189.377C235.234 189.377 236.689 187.922 236.689 186.127C236.689 184.331 235.234 182.876 233.438 182.876C231.642 182.876 230.187 184.331 230.187 186.127C230.187 187.922 231.642 189.377 233.438 189.377Z" fill="#3F3D56"/>
<path d="M340.477 71.5403H312.621C311.919 71.5403 311.348 70.9688 311.348 70.2666C311.348 69.5643 311.919 68.9932 312.621 68.9932H340.477C341.179 68.9932 341.75 69.5643 341.75 70.2666C341.75 70.9688 341.179 71.5403 340.477 71.5403V71.5403Z" fill="#E6E6E6"/>
<path d="M315.823 145.614H287.967C287.265 145.614 286.693 145.043 286.693 144.341C286.693 143.639 287.265 143.067 287.967 143.067H315.823C316.525 143.067 317.096 143.639 317.096 144.341C317.096 145.043 316.525 145.614 315.823 145.614V145.614Z" fill="#E6E6E6"/>
<path d="M338.615 196.082H310.759C310.057 196.082 309.485 195.511 309.485 194.809C309.485 194.106 310.057 193.535 310.759 193.535H338.615C339.317 193.535 339.888 194.106 339.888 194.809C339.888 195.511 339.317 196.082 338.615 196.082V196.082Z" fill="#E6E6E6"/>
<path d="M211.631 43.8645H183.776C183.073 43.8645 182.502 43.2931 182.502 42.5908C182.502 41.8885 183.073 41.3174 183.776 41.3174H211.631C212.333 41.3174 212.905 41.8885 212.905 42.5908C212.905 43.2931 212.333 43.8645 211.631 43.8645V43.8645Z" fill="#E6E6E6"/>
<path d="M0.958984 324.905C0.958984 325.442 1.39043 325.874 1.92769 325.874H427.072C427.609 325.874 428.041 325.442 428.041 324.905C428.041 324.368 427.609 323.937 427.072 323.937H1.92769C1.39043 323.937 0.958984 324.368 0.958984 324.905Z" fill="#CCCCCC"/>
<path d="M324.319 181.303H198.068C197.618 181.303 197.254 180.939 197.254 180.489V60.0171C197.254 59.5672 197.618 59.2031 198.068 59.2031C198.517 59.2031 198.882 59.5672 198.882 60.0171V109.173C198.882 148.11 230.447 179.675 269.384 179.675H324.319C324.769 179.675 325.133 180.039 325.133 180.489C325.133 180.939 324.769 181.303 324.319 181.303H324.319Z" fill="#E6E6E6"/>
<path d="M224.655 132.886H196.799C196.097 132.886 195.525 132.315 195.525 131.612C195.525 130.91 196.097 130.339 196.799 130.339H224.655C225.357 130.339 225.928 130.91 225.928 131.612C225.928 132.315 225.357 132.886 224.655 132.886V132.886Z" fill="#E6E6E6"/>
<path d="M197.035 136.51C201.453 135.052 204.281 131.589 203.352 128.778C202.423 125.967 198.089 124.871 193.67 126.331C191.897 126.89 190.283 127.866 188.964 129.176L170.324 135.594L173.522 144.277L191.559 137.028C193.399 137.296 195.277 137.118 197.035 136.51V136.51Z" fill="#FFB6B6"/>
<path d="M101.217 186.277C101.368 190.927 103.889 194.618 106.848 194.522C109.808 194.425 112.083 190.578 111.932 185.926C111.897 184.067 111.417 182.244 110.533 180.608L109.645 160.914L100.412 161.528L102.268 180.877C101.491 182.567 101.131 184.419 101.217 186.277L101.217 186.277Z" fill="#FFB6B6"/>
<path d="M122.533 318.977L130.774 318.976L132.886 286.978L122.531 287.189L122.533 318.977Z" fill="#FFB6B6"/>
<path d="M150.768 318.79C151.025 319.223 151.16 320.617 151.16 321.12C151.16 322.665 149.908 323.917 148.363 323.917H122.841C121.787 323.917 120.933 323.063 120.933 322.009V320.946C120.933 320.946 119.67 317.753 122.269 313.816C122.269 313.816 125.5 316.899 130.328 312.071L131.751 309.492L142.056 317.029L147.768 317.732C149.017 317.885 150.125 317.708 150.768 318.79H150.768V318.79Z" fill="#2F2E41"/>
<path d="M142.069 318.977L150.31 318.976L152.422 286.978L142.067 287.189L142.069 318.977Z" fill="#FFB6B6"/>
<path d="M170.304 318.79C170.561 319.223 170.696 320.617 170.696 321.12C170.696 322.665 169.444 323.917 167.899 323.917H142.377C141.323 323.917 140.469 323.063 140.469 322.009V320.946C140.469 320.946 139.206 317.753 141.806 313.816C141.806 313.816 145.036 316.899 149.864 312.071L151.287 309.492L161.592 317.029L167.304 317.732C168.554 317.885 169.662 317.708 170.304 318.79H170.304V318.79Z" fill="#2F2E41"/>
<path d="M127.328 80.6397C134.024 80.6397 139.451 75.212 139.451 68.5166C139.451 61.8212 134.024 56.3936 127.328 56.3936C120.633 56.3936 115.205 61.8212 115.205 68.5166C115.205 75.212 120.633 80.6397 127.328 80.6397Z" fill="#FFB6B6"/>
<path d="M110.555 169.354L116.253 250.754L119.509 305.292L134.975 304.478L133.347 245.056L136.603 208.426L141.487 304.478H153.796L158.581 170.168L132.126 166.505L110.555 169.354Z" fill="#2F2E41"/>
<path d="M131.718 78.1862C128.27 81.5053 120.302 79.3045 116.252 78.1862C114.023 77.5706 112.678 76.9362 112.182 75.7442C111.838 74.9156 112.033 74.1299 111.368 72.4882C110.979 71.5265 110.773 71.4548 110.554 70.8602C109.944 69.2027 110.792 67.7259 111.368 65.9762C112.571 62.3252 111.135 61.9152 112.182 59.4642C113.757 55.7793 118.04 54.2801 119.508 53.7662C122.25 52.8066 124.536 52.9081 125.206 52.9522C129.5 53.2349 132.371 55.4384 133.346 56.2082C135.322 57.7686 136.292 59.4192 138.23 62.7202C139.917 65.5927 140.04 66.6951 139.858 67.6042C139.581 68.9894 138.782 68.9946 138.23 70.8602C137.604 72.9779 138.316 74.0422 137.416 74.9302C136.808 75.5305 136.242 75.2807 134.974 75.7442C133.229 76.382 132.367 77.5613 131.718 78.1862Z" fill="#2F2E41"/>
<path d="M141.486 90.3958C141.486 90.3958 129.276 74.9298 113.81 80.6278L108.801 90.3958L107.128 91.9799C100.108 98.625 96.8417 108.32 98.4096 117.858L105.67 162.028C105.67 162.028 104.856 179.122 110.554 184.006C110.554 184.006 118.694 168.54 138.23 175.866C157.766 183.192 161.836 179.122 161.836 179.122L155.324 132.724L141.486 90.3958Z" fill="#2F2E41"/>
<path d="M137.417 92.8382L133.347 101.792L148.813 153.888L191.141 138.422L185.443 128.654L165.093 134.352C165.093 134.352 149.627 88.7682 137.417 92.8382Z" fill="#2F2E41"/>
<path d="M108.52 174.645H99.5655L97.9375 109.525L108.52 131.503V174.645Z" fill="#2F2E41"/>
<path d="M206.606 124.991C208.629 124.991 210.269 123.351 210.269 121.328C210.269 119.305 208.629 117.665 206.606 117.665C204.583 117.665 202.943 119.305 202.943 121.328C202.943 123.351 204.583 124.991 206.606 124.991Z" fill="#3F3D56"/>
<path d="M231.026 153.481C233.049 153.481 234.689 151.841 234.689 149.818C234.689 147.795 233.049 146.155 231.026 146.155C229.003 146.155 227.363 147.795 227.363 149.818C227.363 151.841 229.003 153.481 231.026 153.481Z" fill="#3F3D56"/>
<path d="M258.703 85.1053C260.726 85.1053 262.366 83.4653 262.366 81.4423C262.366 79.4193 260.726 77.7793 258.703 77.7793C256.68 77.7793 255.04 79.4193 255.04 81.4423C255.04 83.4653 256.68 85.1053 258.703 85.1053Z" fill="#3F3D56"/>
<path d="M299.402 133.945C301.425 133.945 303.065 132.305 303.065 130.282C303.065 128.259 301.425 126.619 299.402 126.619C297.379 126.619 295.739 128.259 295.739 130.282C295.739 132.305 297.379 133.945 299.402 133.945Z" fill="#3F3D56"/>
<path d="M323.009 114.409C325.032 114.409 326.672 112.769 326.672 110.746C326.672 108.723 325.032 107.083 323.009 107.083C320.986 107.083 319.346 108.723 319.346 110.746C319.346 112.769 320.986 114.409 323.009 114.409Z" fill="#3F3D56"/>
<path d="M285.016 33.0288L291.715 36.2022C288.967 32.3676 286.599 26.3788 285.332 21.6133C283.186 26.0524 279.726 31.4839 276.301 34.7284L283.382 32.9069C279.019 54.2891 262.609 69.6393 243.818 69.6393L243.552 70.4116C263.18 70.4116 280.561 55.2742 285.016 33.0288V33.0288Z" fill="#3F3D56"/>
<path d="M264.764 0.449219H307.092C308.887 0.449219 310.348 1.90989 310.348 3.70522C310.348 5.50056 308.887 6.96122 307.092 6.96122H264.764C262.968 6.96122 261.508 5.50056 261.508 3.70522C261.508 1.90989 262.968 0.449219 264.764 0.449219Z" fill="#62B0E5"/>
<path d="M324.375 187.966C323.928 187.966 323.478 187.866 323.049 187.665C321.992 187.169 321.327 186.175 321.273 185.008L320.835 175.544C320.778 174.329 321.412 173.224 322.49 172.66C323.568 172.095 324.838 172.205 325.804 172.943L332.25 177.872C333.025 178.464 333.467 179.364 333.464 180.339C333.461 181.315 333.013 182.211 332.235 182.799L326.228 187.334C325.674 187.752 325.029 187.966 324.375 187.966V187.966Z" fill="#E6E6E6"/>
<path d="M205.554 60.8064C205.554 61.2527 205.454 61.703 205.253 62.1319C204.756 63.1895 203.763 63.8537 202.596 63.9078L193.132 64.3465C191.917 64.403 190.812 63.7686 190.248 62.6907C189.683 61.6132 189.793 60.3429 190.531 59.3767L195.46 52.9315C196.052 52.1564 196.952 51.7136 197.926 51.7168C198.903 51.7196 199.798 52.1679 200.387 52.9466L204.922 58.953C205.34 59.5075 205.554 60.1525 205.554 60.8064Z" fill="#E6E6E6"/>
</g>
<defs>
<clipPath id="clip0_564_93166">
<rect width="427.082" height="326" fill="white" transform="translate(0.958984 0.449219)"/>
</clipPath>
</defs>
</svg>
