<svg width="351" height="327" viewBox="0 0 351 327" fill="none" xmlns="http://www.w3.org/2000/svg">
<g clip-path="url(#clip0_564_93240)">
<path d="M236.313 232.004H110.894C100.352 232.004 91.7754 223.428 91.7754 212.886V87.4664C91.7754 76.9242 100.352 68.3477 110.894 68.3477H236.313C246.855 68.3477 255.432 76.9242 255.432 87.4664V212.886C255.432 223.428 246.855 232.004 236.313 232.004ZM110.894 71.4067C102.025 71.4067 94.8344 78.5969 94.8344 87.4664V212.886C94.8344 221.755 102.025 228.945 110.894 228.945H198.747C228.364 228.945 252.373 204.936 252.373 175.319V87.4664C252.373 78.5969 245.183 71.4067 236.313 71.4067H110.894V71.4067Z" fill="#F2F2F2"/>
<path d="M124.415 84.4482C118.479 84.4482 113.65 89.2772 113.65 95.2132V112.063C113.65 117.999 118.479 122.828 124.415 122.828H141.265C147.201 122.828 152.03 117.999 152.03 112.063V95.2132C152.03 89.2772 147.201 84.4482 141.265 84.4482H124.415Z" fill="#F2F2F2"/>
<path d="M124.415 131.882C118.479 131.882 113.65 136.711 113.65 142.647V159.496C113.65 165.432 118.479 170.261 124.415 170.261H141.265C147.201 170.261 152.03 165.432 152.03 159.496V142.647C152.03 136.711 147.201 131.882 141.265 131.882H124.415Z" fill="#F2F2F2"/>
<path d="M124.415 179.315C118.479 179.315 113.65 184.144 113.65 190.08V206.93C113.65 212.866 118.479 217.695 124.415 217.695H141.265C147.201 217.695 152.03 212.866 152.03 206.93V190.08C152.03 184.144 147.201 179.315 141.265 179.315H124.415Z" fill="#F2F2F2"/>
<path d="M135.588 43.3398C128.108 43.3398 122.023 49.4245 122.023 56.904V78.1348C122.023 85.6143 128.108 91.699 135.588 91.699H156.818C164.298 91.699 170.383 85.6143 170.383 78.1348V56.904C170.383 49.4245 164.298 43.3398 156.818 43.3398H135.588Z" fill="#62B0E5"/>
<path d="M205.486 102.671C198.007 102.671 191.922 108.756 191.922 116.235V137.466C191.922 144.945 198.007 151.03 205.486 151.03H226.717C234.196 151.03 240.281 144.945 240.281 137.466V116.235C240.281 108.756 234.196 102.671 226.717 102.671H205.486Z" fill="#62B0E5"/>
<path d="M175.099 316.368L170.786 316.332L168.877 299.308L175.243 299.361L175.099 316.368Z" fill="#FFB6B6"/>
<path d="M161.283 323.226C161.274 324.288 162.13 325.162 163.195 325.172L171.771 325.243L173.272 322.2L173.823 325.259L177.059 325.288L176.242 314.379L175.116 314.304L170.524 313.988L169.043 313.889L169.017 316.975L162.128 321.648C161.604 322.004 161.289 322.593 161.283 323.226H161.283Z" fill="#2F2E41"/>
<path d="M197.043 316.368L192.73 316.332L190.82 299.308L197.186 299.361L197.043 316.368Z" fill="#FFB6B6"/>
<path d="M183.227 323.226C183.217 324.288 184.073 325.162 185.138 325.172L193.714 325.243L195.215 322.2L195.767 325.259L199.002 325.288L198.185 314.379L197.059 314.304L192.468 313.988L190.986 313.889L190.96 316.975L184.072 321.648C183.548 322.004 183.232 322.593 183.227 323.226Z" fill="#2F2E41"/>
<path d="M158.172 178.729L175.655 179.281L192.218 182.961C192.218 182.961 190.561 184.986 196.082 190.507C196.082 190.507 203.444 203.389 198.291 215.903L196.082 265.959C196.082 265.959 202.521 301.246 197.602 312.477L191.1 312.883L180.097 266.367L174.735 216.271L172.158 265.591C172.158 265.591 182.015 299.444 175.791 312.883L168.749 312.477L156.7 265.591C156.7 265.591 151.547 211.486 152.283 201.18C153.019 190.875 158.172 178.729 158.172 178.729H158.172Z" fill="#2F2E41"/>
<path d="M216.884 99.6321C214.494 100.251 213.058 102.69 213.677 105.08C213.961 106.175 214.629 107.066 215.497 107.655L215.497 107.661L215.158 115.873L221.442 118.781L221.944 106.144L221.9 106.145C222.445 105.175 222.633 104.002 222.332 102.839C221.713 100.449 219.274 99.0132 216.884 99.6321V99.6321Z" fill="#FFB6B6"/>
<path d="M181.76 128.941C180.44 127.632 179.674 125.858 179.645 123.929C179.607 121.341 180.904 118.992 183.115 117.645C185.661 116.095 188.844 116.251 191.226 118.044L210.96 132.903L214.476 111.498L222.026 113.928L220.224 141.8C220.098 143.75 218.996 145.467 217.277 146.394C215.557 147.322 213.517 147.298 211.819 146.332L183.3 130.107C182.727 129.781 182.211 129.388 181.76 128.941V128.941Z" fill="#3F3D56"/>
<path d="M151.67 87.6593C152.932 89.7815 152.234 92.5245 150.112 93.786C149.139 94.3641 148.038 94.5263 147.007 94.3331L147.003 94.3376L141.462 100.408L134.951 98.0489L143.492 88.7215L143.522 88.7532C143.819 87.6802 144.511 86.7148 145.543 86.101C147.665 84.8395 150.409 85.5372 151.67 87.6593Z" fill="#FFB6B6"/>
<path d="M154.063 132.946L122.387 124.389C120.501 123.88 119.036 122.46 118.468 120.591C117.899 118.721 118.326 116.726 119.609 115.253L137.953 94.1914L145.025 97.7808L132.452 115.457L156.928 118.799C159.881 119.203 162.252 121.333 162.969 124.226C163.591 126.739 162.858 129.32 161.008 131.131C159.63 132.481 157.837 133.202 155.978 133.202C155.343 133.202 154.7 133.117 154.063 132.946H154.063Z" fill="#3F3D56"/>
<path d="M199.224 186.093L154.928 188.125C153.712 186.277 154.041 183.499 155.745 180.021C162.178 166.887 157.292 142.039 154.006 129.101C153.084 125.471 155.559 121.862 159.286 121.49L163.462 121.072L167.323 109.287H180.844L186.453 115.695L195.973 121.478C194.24 139.327 186.857 164.529 197.375 177.169C199.675 179.933 200.328 182.922 199.224 186.093Z" fill="#3F3D56"/>
<path d="M172.363 109.559C179.637 109.559 185.533 103.663 185.533 96.3895C185.533 89.116 179.637 83.2197 172.363 83.2197C165.09 83.2197 159.193 89.116 159.193 96.3895C159.193 103.663 165.09 109.559 172.363 109.559Z" fill="#FFB6B6"/>
<path d="M187.266 87.9595C189.099 81.2791 169.128 75.5505 165.247 80.9302C164.708 80.1654 162.713 79.7008 161.798 79.9354C160.883 80.1701 160.114 80.7566 159.363 81.3244C158.331 82.1174 157.261 82.9386 156.627 84.0789C155.989 85.2144 155.891 86.763 156.749 87.7484C157.43 88.532 158.625 92.6962 159.648 92.9027C160.362 93.0481 160.962 93.1654 161.478 93.2499C161.938 92.5789 163.111 91.736 163.026 90.9242C163.721 91.384 163.467 92.1931 163.327 93.02C162.861 95.7734 152.357 117.088 158.373 110.807C158.969 111.159 159.706 111.487 160.555 111.788C161.995 109.615 163.178 107.053 163.957 104.374L163.962 104.423C164.231 106.752 165.932 108.662 168.184 109.314C177.214 111.931 184.52 108.092 187.032 101.169C186.113 99.3009 185.712 99.5038 185.794 99.4482C186.943 98.6742 188.521 99.1804 189.014 100.474C189.16 100.856 189.292 101.182 189.407 101.427C190.716 96.7435 192.273 97.4195 187.266 87.9595H187.266Z" fill="#2F2E41"/>
<path d="M181.037 83.113L180.114 78.3968C180.037 78.0004 179.963 77.5703 180.142 77.208C180.372 76.7426 180.962 76.5497 181.476 76.6238C181.989 76.698 182.374 77.1673 182.885 77.2576C184.662 77.5718 187.011 75.8165 187.647 80.2569C187.913 82.1083 190.867 82.3038 191.854 83.8927C192.84 85.4817 192.961 87.7751 191.615 89.0732C190.54 90.1099 188.813 90.2296 187.416 89.7C186.019 89.1704 184.898 88.1007 183.919 86.9726C182.94 85.8446 182.053 84.6239 180.924 83.6463" fill="#2F2E41"/>
<path d="M187.969 90.2864C184.366 89.783 181.909 88.4724 180.668 86.3913C179.045 83.667 180.132 80.6674 180.179 80.541L180.941 80.8242C180.931 80.8518 179.944 83.5976 181.371 85.9821C182.481 87.837 184.739 89.0145 188.082 89.4816L187.969 90.2864Z" fill="#62B0E5"/>
<path d="M204.88 39.3273C194.286 39.3273 185.666 30.7071 185.666 20.1129C185.666 9.51867 194.286 0.898438 204.88 0.898438C215.475 0.898438 224.095 9.51867 224.095 20.1129C224.095 30.7071 215.475 39.3273 204.88 39.3273ZM204.88 8.58422C198.523 8.58422 193.352 13.7556 193.352 20.1129C193.352 26.4702 198.523 31.6416 204.88 31.6416C211.238 31.6416 216.409 26.4702 216.409 20.1129C216.409 13.7556 211.238 8.58422 204.88 8.58422Z" fill="#62B0E5"/>
<path d="M234.444 52.3857C233.502 52.3857 232.558 52.0423 231.817 51.3462L213.782 34.4454C212.233 32.9949 212.154 30.5631 213.606 29.015C215.055 27.4614 217.487 27.3844 219.036 28.8386L237.071 45.7395C238.621 47.1899 238.699 49.6218 237.247 51.1698C236.491 51.9785 235.468 52.3857 234.444 52.3857Z" fill="#62B0E5"/>
<path d="M315.95 315.936C317.256 316.018 317.979 314.394 316.99 313.448L316.892 313.057C316.905 313.026 316.918 312.995 316.931 312.964C318.252 309.813 322.73 309.835 324.04 312.99C325.203 315.791 326.684 318.596 327.048 321.557C327.212 322.864 327.138 324.196 326.848 325.479C329.573 319.527 331.006 313.028 331.006 306.492C331.006 304.85 330.916 303.208 330.733 301.57C330.582 300.23 330.373 298.898 330.104 297.579C328.645 290.447 325.488 283.653 320.933 277.979C318.744 276.783 316.918 274.912 315.815 272.669C315.418 271.86 315.108 270.99 314.961 270.104C315.21 270.136 315.9 266.342 315.713 266.109C316.06 265.582 316.681 265.32 317.061 264.806C318.947 262.248 321.545 262.695 322.902 266.17C325.8 267.633 325.828 270.058 324.05 272.391C322.919 273.876 322.763 275.884 321.77 277.473C321.873 277.604 321.979 277.73 322.081 277.861C323.954 280.263 325.573 282.845 326.939 285.557C326.553 282.543 327.123 278.911 328.094 276.57C329.199 273.903 331.272 271.657 333.097 269.351C335.289 266.581 339.784 267.79 340.17 271.301C340.174 271.335 340.177 271.369 340.181 271.403C339.91 271.556 339.644 271.718 339.385 271.89C337.905 272.868 338.417 275.162 340.17 275.433L340.21 275.439C340.112 276.415 339.944 277.383 339.699 278.335C342.04 287.389 336.986 290.686 329.769 290.835C329.609 290.916 329.454 290.998 329.295 291.076C330.026 293.134 330.61 295.246 331.043 297.387C331.431 299.278 331.701 301.19 331.852 303.11C332.04 305.532 332.023 307.967 331.819 310.385L331.832 310.299C332.35 307.636 333.796 305.148 335.896 303.424C339.024 300.855 343.443 299.909 346.817 297.843C348.442 296.849 350.523 298.134 350.24 300.017L350.226 300.107C349.723 300.312 349.233 300.548 348.759 300.814C348.488 300.967 348.223 301.129 347.963 301.301C346.484 302.279 346.995 304.573 348.748 304.844L348.788 304.85C348.816 304.854 348.841 304.858 348.87 304.862C348.008 306.909 346.807 308.808 345.303 310.446C343.84 318.35 337.552 319.1 330.827 316.798H330.823C330.087 320.001 329.013 323.13 327.632 326.112H316.235C316.195 325.985 316.158 325.854 316.121 325.728C317.175 325.793 318.237 325.732 319.275 325.54C318.429 324.502 317.583 323.456 316.738 322.419C316.717 322.399 316.701 322.378 316.685 322.358C316.256 321.827 315.823 321.3 315.394 320.769L315.394 320.768C315.367 319.138 315.562 317.513 315.949 315.936L315.95 315.936Z" fill="#F2F2F2"/>
<path d="M0.642578 326.145C0.642578 326.563 0.977794 326.898 1.39523 326.898H349.424C349.841 326.898 350.177 326.563 350.177 326.145C350.177 325.728 349.841 325.393 349.424 325.393H1.39523C0.977794 325.393 0.642578 325.728 0.642578 326.145Z" fill="#CCCCCC"/>
<path d="M315.95 315.936C317.256 316.018 317.979 314.394 316.99 313.448L316.892 313.057C316.905 313.026 316.918 312.995 316.931 312.964C318.252 309.813 322.73 309.835 324.04 312.99C325.203 315.791 326.684 318.596 327.048 321.557C327.212 322.864 327.138 324.196 326.848 325.479C329.573 319.527 331.006 313.028 331.006 306.492C331.006 304.85 330.916 303.208 330.733 301.57C330.582 300.23 330.373 298.898 330.104 297.579C328.645 290.447 325.488 283.653 320.933 277.979C318.744 276.783 316.918 274.912 315.815 272.669C315.418 271.86 315.108 270.99 314.961 270.104C315.21 270.136 315.9 266.342 315.713 266.109C316.06 265.582 316.681 265.32 317.061 264.806C318.947 262.248 321.545 262.695 322.902 266.17C325.8 267.633 325.828 270.058 324.05 272.391C322.919 273.876 322.763 275.884 321.77 277.473C321.873 277.604 321.979 277.73 322.081 277.861C323.954 280.263 325.573 282.845 326.939 285.557C326.553 282.543 327.123 278.911 328.094 276.57C329.199 273.903 331.272 271.657 333.097 269.351C335.289 266.581 339.784 267.79 340.17 271.301C340.174 271.335 340.177 271.369 340.181 271.403C339.91 271.556 339.644 271.718 339.385 271.89C337.905 272.868 338.417 275.162 340.17 275.433L340.21 275.439C340.112 276.415 339.944 277.383 339.699 278.335C342.04 287.389 336.986 290.686 329.769 290.835C329.609 290.916 329.454 290.998 329.295 291.076C330.026 293.134 330.61 295.246 331.043 297.387C331.431 299.278 331.701 301.19 331.852 303.11C332.04 305.532 332.023 307.967 331.819 310.385L331.832 310.299C332.35 307.636 333.796 305.148 335.896 303.424C339.024 300.855 343.443 299.909 346.817 297.843C348.442 296.849 350.523 298.134 350.24 300.017L350.226 300.107C349.723 300.312 349.233 300.548 348.759 300.814C348.488 300.967 348.223 301.129 347.963 301.301C346.484 302.279 346.995 304.573 348.748 304.844L348.788 304.85C348.816 304.854 348.841 304.858 348.87 304.862C348.008 306.909 346.807 308.808 345.303 310.446C343.84 318.35 337.552 319.1 330.827 316.798H330.823C330.087 320.001 329.013 323.13 327.632 326.112H316.235C316.195 325.985 316.158 325.854 316.121 325.728C317.175 325.793 318.237 325.732 319.275 325.54C318.429 324.502 317.583 323.456 316.738 322.419C316.717 322.399 316.701 322.378 316.685 322.358C316.256 321.827 315.823 321.3 315.394 320.769L315.394 320.768C315.367 319.138 315.562 317.513 315.949 315.936L315.95 315.936Z" fill="#F2F2F2"/>
</g>
<defs>
<clipPath id="clip0_564_93240">
<rect width="349.623" height="326" fill="white" transform="translate(0.642578 0.898438)"/>
</clipPath>
</defs>
</svg>
