<svg width="467" height="327" viewBox="0 0 467 327" fill="none" xmlns="http://www.w3.org/2000/svg">
<g clip-path="url(#clip0_564_93497)">
<path d="M448.848 170.519H371.066V169.416H447.745V118.113H448.848V170.519Z" fill="#E4E4E4"/>
<path d="M196.746 192.034H195.643V139.628H273.424V140.731H196.746V192.034Z" fill="#E4E4E4"/>
<path d="M310.385 75.0849H232.604V22.6787H233.707V73.9816H310.385V75.0849Z" fill="#E4E4E4"/>
<path d="M217.125 0.634766C216.708 0.635546 216.308 0.801832 216.013 1.09713C215.718 1.39242 215.553 1.79259 215.553 2.20981C215.553 2.62703 215.718 3.0272 216.013 3.32249C216.308 3.61779 216.708 3.78407 217.125 3.78485H249.075C249.493 3.78407 249.892 3.61779 250.187 3.32249C250.482 3.0272 250.647 2.62703 250.647 2.20981C250.647 1.79259 250.482 1.39242 250.187 1.09713C249.892 0.801832 249.493 0.635546 249.075 0.634766H217.125Z" fill="#3F3D56"/>
<path d="M217.126 9.91406C216.708 9.91406 216.307 10.08 216.012 10.3754C215.717 10.6708 215.551 11.0714 215.551 11.4891C215.551 11.9068 215.717 12.3075 216.012 12.6028C216.307 12.8982 216.708 13.0642 217.126 13.0642H249.076C249.494 13.0634 249.893 12.8971 250.188 12.6018C250.483 12.3065 250.648 11.9063 250.648 11.4891C250.648 11.0719 250.483 10.6717 250.188 10.3764C249.893 10.0811 249.494 9.91484 249.076 9.91406H217.126Z" fill="#3F3D56"/>
<path d="M464.485 111.059C464.902 111.059 465.302 110.892 465.597 110.597C465.892 110.302 466.057 109.901 466.057 109.484C466.057 109.067 465.892 108.667 465.597 108.372C465.302 108.076 464.902 107.91 464.485 107.909H432.531C432.324 107.909 432.119 107.949 431.927 108.028C431.736 108.107 431.562 108.223 431.415 108.369C431.269 108.516 431.153 108.69 431.073 108.881C430.994 109.072 430.953 109.277 430.953 109.484C430.953 109.691 430.994 109.896 431.073 110.088C431.153 110.279 431.269 110.453 431.415 110.599C431.562 110.745 431.736 110.861 431.927 110.94C432.119 111.019 432.324 111.06 432.531 111.059H464.485Z" fill="#2F2E41"/>
<path d="M464.485 101.779C464.902 101.778 465.302 101.612 465.597 101.317C465.892 101.021 466.057 100.621 466.057 100.204C466.057 99.7867 465.892 99.3866 465.597 99.0913C465.302 98.796 464.902 98.6297 464.485 98.6289H432.531C432.324 98.6285 432.119 98.669 431.927 98.7479C431.736 98.8269 431.562 98.9429 431.415 99.0892C431.269 99.2355 431.153 99.4092 431.073 99.6005C430.994 99.7918 430.953 99.9969 430.953 100.204C430.953 100.411 430.994 100.616 431.073 100.807C431.153 100.999 431.269 101.172 431.415 101.319C431.562 101.465 431.736 101.581 431.927 101.66C432.119 101.739 432.324 101.779 432.531 101.779H464.485Z" fill="#2F2E41"/>
<path d="M329.141 185.965C317.467 185.965 306.055 182.503 296.348 176.017C286.641 169.531 279.076 160.313 274.608 149.527C270.141 138.742 268.972 126.874 271.249 115.424C273.527 103.974 279.149 93.4563 287.404 85.2014C295.659 76.9465 306.176 71.3248 317.626 69.0473C329.076 66.7697 340.944 67.9387 351.729 72.4062C362.515 76.8737 371.734 84.4392 378.219 94.146C384.705 103.853 388.167 115.265 388.167 126.939C388.149 142.588 381.925 157.591 370.859 168.657C359.794 179.723 344.79 185.947 329.141 185.965ZM329.141 69.0164C317.685 69.0164 306.486 72.4135 296.961 78.7781C287.436 85.1428 280.012 94.189 275.628 104.773C271.244 115.357 270.097 127.003 272.332 138.239C274.566 149.475 280.083 159.796 288.184 167.897C296.284 175.997 306.605 181.514 317.841 183.749C329.077 185.984 340.723 184.837 351.307 180.453C361.891 176.069 370.938 168.644 377.302 159.119C383.667 149.594 387.064 138.395 387.064 126.939C387.046 111.582 380.938 96.8596 370.08 86.0007C359.221 75.1419 344.498 69.0338 329.141 69.0164Z" fill="#E4E4E4"/>
<path d="M305.421 81.7043C309.076 81.7043 312.04 78.7406 312.04 75.0846C312.04 71.4286 309.076 68.4648 305.421 68.4648C301.765 68.4648 298.801 71.4286 298.801 75.0846C298.801 78.7406 301.765 81.7043 305.421 81.7043Z" fill="#62B0E5"/>
<path d="M271.77 147.351C275.426 147.351 278.39 144.387 278.39 140.731C278.39 137.075 275.426 134.111 271.77 134.111C268.114 134.111 265.15 137.075 265.15 140.731C265.15 144.387 268.114 147.351 271.77 147.351Z" fill="#62B0E5"/>
<path d="M368.86 177.139C372.516 177.139 375.48 174.175 375.48 170.519C375.48 166.863 372.516 163.899 368.86 163.899C365.204 163.899 362.24 166.863 362.24 170.519C362.24 174.175 365.204 177.139 368.86 177.139Z" fill="#62B0E5"/>
<path d="M180.005 199.087C179.587 199.087 179.186 199.253 178.891 199.548C178.596 199.844 178.43 200.244 178.43 200.662C178.43 201.08 178.596 201.48 178.891 201.776C179.186 202.071 179.587 202.237 180.005 202.237H211.959C212.376 202.236 212.776 202.07 213.07 201.775C213.365 201.479 213.531 201.079 213.531 200.662C213.531 200.245 213.365 199.845 213.07 199.549C212.776 199.254 212.376 199.088 211.959 199.087H180.005Z" fill="#2F2E41"/>
<path d="M180.006 208.368C179.799 208.368 179.594 208.408 179.402 208.487C179.211 208.566 179.037 208.682 178.89 208.828C178.744 208.975 178.627 209.148 178.548 209.34C178.469 209.531 178.428 209.736 178.428 209.943C178.428 210.15 178.469 210.355 178.548 210.547C178.627 210.738 178.744 210.912 178.89 211.058C179.037 211.204 179.211 211.32 179.402 211.399C179.594 211.478 179.799 211.519 180.006 211.518H211.96C212.377 211.517 212.777 211.351 213.071 211.056C213.366 210.761 213.532 210.36 213.532 209.943C213.532 209.526 213.366 209.126 213.071 208.831C212.777 208.535 212.377 208.369 211.96 208.368H180.006Z" fill="#2F2E41"/>
</g>
<path d="M26.5015 281.563C28.3317 266.846 37.4524 252.346 51.4878 247.557C45.9526 262.704 45.9538 279.322 51.4912 294.469C53.6479 300.303 56.6541 306.567 54.6254 312.446C53.3632 316.105 50.2754 318.904 46.8238 320.654C43.372 322.404 39.5413 323.238 35.7585 324.056L35.014 324.671C29.0088 311.111 24.6713 296.28 26.5015 281.563Z" fill="#F0F0F0"/>
<path d="M51.6274 247.835C43.4538 256.993 38.3737 268.494 37.1086 280.703C36.7896 283.327 36.8862 285.985 37.3947 288.578C37.9717 291.089 39.2105 293.399 40.9823 295.269C42.5993 297.045 44.4591 298.675 45.6161 300.814C46.192 301.918 46.5282 303.131 46.6026 304.373C46.677 305.616 46.4878 306.86 46.0476 308.024C45.0261 310.954 43.0128 313.342 40.9627 315.609C38.6866 318.126 36.2825 320.705 35.315 324.041C35.1977 324.446 34.5773 324.24 34.6943 323.836C36.3777 318.031 42.0133 314.733 44.7009 309.504C45.955 307.064 46.4814 304.232 45.3057 301.656C44.2776 299.404 42.3612 297.721 40.7084 295.937C38.9532 294.138 37.6652 291.937 36.9568 289.525C36.3178 286.966 36.1191 284.317 36.369 281.691C36.8374 275.77 38.2338 269.959 40.5072 264.472C43.067 258.195 46.6817 252.402 51.1949 247.344C51.4743 247.031 51.905 247.524 51.6274 247.835Z" fill="white"/>
<path d="M37.2848 276.748C35.2651 276.258 33.4854 275.065 32.2637 273.384C31.0419 271.703 30.4576 269.642 30.615 267.569C30.6483 267.15 31.3014 267.182 31.268 267.602C31.1178 269.531 31.6623 271.451 32.8032 273.015C33.9441 274.578 35.6063 275.682 37.4898 276.127C37.8989 276.225 37.6917 276.845 37.2848 276.748Z" fill="white"/>
<path d="M40.0436 294.476C43.6915 292.298 46.3844 288.825 47.5853 284.749C47.704 284.345 48.3245 284.551 48.206 284.954C46.9483 289.193 44.1386 292.801 40.3376 295.06C39.9751 295.275 39.6831 294.69 40.0436 294.476Z" fill="white"/>
<path d="M43.6727 258.814C44.4146 259.167 45.2325 259.33 46.0529 259.288C46.8733 259.246 47.6705 259.002 48.3729 258.576C48.7325 258.356 49.0241 258.941 48.6669 259.16C47.8887 259.626 47.0079 259.896 46.1016 259.944C45.1953 259.992 44.291 259.817 43.4678 259.435C43.3872 259.406 43.3208 259.346 43.2822 259.27C43.2436 259.193 43.2356 259.105 43.2599 259.022C43.2875 258.94 43.3463 258.872 43.4236 258.833C43.5009 258.794 43.5904 258.788 43.6727 258.814Z" fill="white"/>
<path d="M94.269 273.842C94.0484 273.986 93.8278 274.129 93.6069 274.278C90.651 276.222 87.8579 278.402 85.2552 280.798C85.051 280.98 84.8469 281.168 84.6483 281.356C78.4393 287.195 73.3684 294.136 69.6933 301.827C68.2338 304.889 67.0092 308.057 66.0304 311.304C64.6787 315.789 63.57 320.759 60.8945 324.428C60.6197 324.814 60.3212 325.182 60.0008 325.531H35.8222C35.7672 325.504 35.712 325.482 35.6568 325.454L34.6914 325.498C34.7302 325.327 34.7741 325.151 34.8129 324.98C34.8349 324.88 34.8624 324.781 34.8845 324.682C34.901 324.615 34.9176 324.549 34.9287 324.489C34.9341 324.467 34.9397 324.444 34.9451 324.428C34.9562 324.367 34.9729 324.312 34.9839 324.257C35.2266 323.269 35.4767 322.282 35.7341 321.295C35.7341 321.289 35.7341 321.289 35.7395 321.284C37.7201 313.765 40.3458 306.345 44.0141 299.56C44.1246 299.356 44.2347 299.146 44.3562 298.942C46.0267 295.893 47.9437 292.985 50.0879 290.248C51.2668 288.753 52.5207 287.319 53.8446 285.951C57.2723 282.422 61.2337 279.455 65.5835 277.158C74.2555 272.579 84.2952 270.825 93.563 273.621C93.8 273.693 94.032 273.765 94.269 273.842Z" fill="#F0F0F0"/>
<path d="M94.2156 274.149C82.1755 276.54 71.1951 282.665 62.8338 291.652C60.9995 293.554 59.4765 295.735 58.3211 298.112C57.2703 300.463 56.8685 303.054 57.1574 305.613C57.3789 308.006 57.8824 310.427 57.5185 312.831C57.314 314.059 56.8522 315.23 56.1634 316.267C55.4747 317.304 54.5745 318.183 53.5219 318.848C50.9424 320.572 47.8971 321.267 44.8954 321.842C41.5626 322.482 38.0908 323.093 35.3093 325.175C34.9723 325.427 34.6006 324.889 34.9371 324.637C39.7765 321.016 46.2616 321.776 51.5557 319.219C54.026 318.026 56.1518 316.081 56.7637 313.316C57.2989 310.899 56.7818 308.402 56.5366 305.982C56.2181 303.489 56.515 300.956 57.4011 298.604C58.4318 296.176 59.8682 293.941 61.6488 291.995C65.5877 287.549 70.201 283.751 75.3198 280.738C81.1428 277.267 87.5166 274.819 94.1654 273.497C94.5769 273.416 94.6244 274.068 94.2156 274.149Z" fill="white"/>
<path d="M65.3562 288.599C64.0388 286.992 63.3357 284.968 63.3725 282.89C63.4092 280.812 64.1835 278.815 65.557 277.255C65.836 276.94 66.3381 277.359 66.0587 277.674C64.7771 279.124 64.056 280.985 64.0257 282.92C63.9954 284.855 64.6579 286.738 65.8935 288.227C66.1616 288.551 65.6228 288.922 65.3562 288.599H65.3562Z" fill="white"/>
<path d="M56.8856 304.416C61.1096 304.873 65.3507 303.721 68.7633 301.19C69.1012 300.939 69.473 301.477 69.1355 301.727C65.5794 304.355 61.1634 305.544 56.7689 305.059C56.35 305.012 56.4691 304.369 56.8856 304.416V304.416Z" fill="white"/>
<path d="M211.578 326.635H1.40125C1.25495 326.635 1.11464 326.576 1.01118 326.473C0.907728 326.37 0.849609 326.229 0.849609 326.083C0.849609 325.937 0.907728 325.796 1.01118 325.693C1.11464 325.589 1.25495 325.531 1.40125 325.531H211.578C211.724 325.531 211.864 325.589 211.968 325.693C212.071 325.796 212.129 325.937 212.129 326.083C212.129 326.229 212.071 326.37 211.968 326.473C211.864 326.576 211.724 326.635 211.578 326.635Z" fill="#3F3D56"/>
<path d="M76.0724 293.056C76.3323 293.554 76.7118 293.979 77.1769 294.294C77.6419 294.609 78.1779 294.804 78.7368 294.861C79.0234 294.889 78.9417 295.328 78.6569 295.3C78.0398 295.235 77.4481 295.019 76.9335 294.672C76.4189 294.325 75.9971 293.858 75.705 293.31C75.6731 293.261 75.6612 293.201 75.6717 293.144C75.6822 293.086 75.7143 293.034 75.7614 292.999C75.8102 292.966 75.8703 292.953 75.9285 292.964C75.9867 292.974 76.0384 293.007 76.0724 293.056Z" fill="white"/>
<path d="M103.162 110.488C105.102 110.439 106.87 111.817 107.765 113.539C108.66 115.26 108.822 117.268 108.777 119.208C108.732 121.148 108.498 123.091 108.669 125.023C109.032 129.136 111.334 133.034 114.759 135.34C113.468 135.44 112.201 134.842 111.226 133.99C110.251 133.139 109.521 132.048 108.803 130.971C108.195 130.059 107.584 129.142 107.148 128.137C106.509 126.664 106.266 125.056 106.037 123.467C105.471 119.556 104.95 115.639 104.472 111.717" fill="#2F2E41"/>
<path d="M70.3001 321.413L76.8464 321.412L79.9605 296.162L70.2988 296.163L70.3001 321.413Z" fill="#FFB6B6"/>
<path d="M92.7278 321.264C92.9316 321.607 93.0391 322.715 93.0391 323.114C93.0391 324.341 92.0444 325.336 90.8173 325.336H70.5444C69.7073 325.336 69.0287 324.657 69.0287 323.82V322.976C69.0287 322.976 68.0258 320.439 70.0905 317.313C70.0905 317.313 72.6568 319.761 76.4913 315.926L77.6221 313.878L85.8075 319.864L90.3445 320.423C91.3371 320.545 92.2171 320.404 92.7277 321.264H92.7278V321.264Z" fill="#2F2E41"/>
<path d="M98.5508 316.646L104.914 318.181L113.866 294.367L104.474 292.101L98.5508 316.646Z" fill="#FFB6B6"/>
<path d="M120.387 321.764C120.505 322.145 120.349 323.248 120.256 323.636C119.968 324.828 118.767 325.562 117.575 325.274L97.8675 320.518C97.0538 320.321 96.5533 319.502 96.7497 318.689L96.9477 317.868C96.9477 317.868 96.568 315.167 99.3087 312.612C99.3087 312.612 101.229 315.594 105.856 312.766L107.436 311.04L113.988 318.78L118.268 320.387C119.204 320.739 120.092 320.808 120.387 321.764L120.387 321.764Z" fill="#2F2E41"/>
<path d="M136.514 195.381C135.294 194.391 134.399 193.209 133.898 192.043L121.684 183.352L125.989 177.661L137.916 187.089C139.16 187.338 140.502 187.97 141.722 188.959C144.508 191.219 145.601 194.489 144.163 196.262C142.725 198.035 139.3 197.64 136.514 195.381H136.514Z" fill="#FFB6B6"/>
<path d="M134.261 182.582L133.691 183.749L130.732 189.789L129.856 191.571L121.249 183.842L114.327 177.628L98.0569 163.022C96.9284 162.009 96.377 160.634 96.377 159.265C96.377 157.627 97.1656 156.001 98.6884 155.014C99.631 154.402 100.75 154.123 101.869 154.219C104.51 154.446 109.832 154.934 115.478 155.607L117.421 161.23L116.469 166.283L113.878 165.516L116.238 167.495L134.261 182.582V182.582Z" fill="#62B0E5"/>
<path d="M82.7949 176.619C84.0493 176.626 86.6801 193.618 84.7185 196.175C83.1093 198.273 112.6 196.175 112.6 196.175C109.828 195.611 111.075 177.458 114.054 176.619L96.2598 171.169L82.7949 176.619Z" fill="#FFB6B6"/>
<path d="M117.42 161.229L116.467 166.282L116.237 167.493L114.326 177.627L111.734 181.44C111.734 181.44 93.2836 175.72 84.6276 182.773L77.666 160.267L85.0396 144.238L90.8103 141.032L91.7721 137.185H103.996L105.878 141.032L111.328 143.596L115.477 155.606L117.42 161.229L117.42 161.229Z" fill="#62B0E5"/>
<path d="M113.709 142.931C112.71 144.143 111.52 145.028 110.35 145.519L101.563 157.664L95.9062 153.314L105.429 141.462C105.688 140.22 106.331 138.883 107.33 137.671C109.612 134.903 112.89 133.836 114.652 135.289C116.413 136.741 115.991 140.162 113.709 142.931V142.931Z" fill="#FFB6B6"/>
<path d="M90.019 144.441C90.019 144.441 80.7129 139.325 77.6914 144.441C75.1134 148.806 72.8727 170.863 72.2705 177.245C72.1647 178.365 72.4351 179.485 73.0392 180.434V180.434C74.828 183.245 78.7986 183.589 81.0442 181.127L109.845 149.557L100.891 145.08L85.5422 161.069L90.019 144.441Z" fill="#62B0E5"/>
<path d="M96.4048 134.739C102.867 134.739 108.106 129.5 108.106 123.038C108.106 116.575 102.867 111.336 96.4048 111.336C89.9421 111.336 84.7031 116.575 84.7031 123.038C84.7031 129.5 89.9421 134.739 96.4048 134.739Z" fill="#FFB6B6"/>
<path d="M105.416 116.713C103.591 117.945 102.424 120.009 102.127 123.085C100.981 122.175 100.811 120.52 101.247 118.402C100.45 120.57 93.982 131.604 93.5553 135.092C93.2843 137.314 94.173 139.554 95.5373 141.327C96.8126 142.98 98.4746 144.277 100.177 145.495C96.977 144.326 94.3108 141.753 93.0443 138.589C91.2135 134.021 92.3022 128.938 93.742 124.152C93.4042 124.787 92.9199 125.947 92.36 126.4C91.6401 126.982 90.7869 126.8 90.2092 127.524C89.5071 128.404 89.3738 129.635 89.5915 130.742C89.8137 131.848 90.3469 132.861 90.8713 133.857C83.4522 132.462 81.2464 123.983 84.6369 118.206C82.4682 122.099 81.9972 129.937 84.7568 133.43C86.3032 135.39 88.5428 136.919 89.316 139.291C89.8582 140.958 89.5604 142.815 88.8139 144.402C88.0674 145.988 86.8987 147.339 85.6633 148.583C85.1567 149.094 84.6368 149.588 84.0947 150.068C83.4956 149.457 82.4789 149.746 82.2577 150.572C82.1348 151.031 81.9407 151.504 81.6951 151.987C79.4996 152.486 76.5349 151.794 76.0826 154.88C75.962 155.703 74.474 155.338 73.6475 155.471C73.8701 154.851 73.151 154.303 72.6253 154.699C71.9383 155.217 71.2067 155.521 70.4391 155.649C68.4838 155.542 66.5686 155.044 64.8711 154.076C70.2835 150.703 75.032 151.676 77.1472 145.659C77.4786 144.718 77.5852 142.755 77.5793 140.547C77.566 135.54 76.3883 130.624 74.3604 126.046C74.113 125.488 73.9244 124.948 73.843 124.476C73.252 121.068 74.1718 116.384 75.6649 114.18C77.158 111.98 79.7398 110.558 82.4016 110.487C83.7303 110.447 84.5212 111.029 85.6944 110.403C86.9475 109.732 87.2408 110.612 88.0896 109.474C89.6049 107.443 92.1867 106.395 94.7196 106.306C97.2525 106.217 98.6701 105.51 100.972 106.572C102.425 107.243 104.099 111.002 105.7 111.025C109.015 111.072 109.651 113.853 105.416 116.713V116.713Z" fill="#2F2E41"/>
<path d="M100.545 145.757C100.42 145.668 100.3 145.584 100.176 145.495C100.274 145.535 100.371 145.571 100.469 145.602L100.545 145.757Z" fill="#2F2E41"/>
<path d="M111.29 193.882H85.0719C85.0719 193.882 74.1387 211.242 74.1387 244.904L69.6504 299.085L80.8711 299.726L98.9506 226.281L108.886 262.338L102.03 300.805H112.895L125.757 257.429L123.189 234.645C123.189 234.645 120.511 203.336 111.29 193.882Z" fill="#2F2E41"/>
<path d="M86.8391 111.671L85.9902 111.408C86.1169 108.43 86.922 105.719 88.497 103.311L89.3458 103.574L86.8391 111.671Z" fill="#62B0E5"/>
<path d="M86.8425 110.628L86.2971 111.33L79.6035 106.129L80.1489 105.428C83.1039 106.471 85.2604 108.276 86.8425 110.628V110.628Z" fill="#62B0E5"/>
<path d="M153.651 315.37C154.994 315.454 155.736 313.786 154.72 312.814L154.619 312.412C154.632 312.38 154.645 312.348 154.659 312.316C156.017 309.078 160.618 309.101 161.964 312.343C163.159 315.221 164.68 318.104 165.055 321.146C165.223 322.489 165.147 323.858 164.849 325.176C167.649 319.06 169.122 312.382 169.122 305.666C169.122 303.979 169.03 302.291 168.841 300.608C168.686 299.231 168.472 297.863 168.195 296.507C166.696 289.178 163.452 282.198 158.771 276.368C156.522 275.138 154.645 273.216 153.512 270.911C153.105 270.08 152.786 269.186 152.635 268.275C152.891 268.309 153.6 264.409 153.407 264.17C153.764 263.629 154.403 263.359 154.792 262.831C156.73 260.203 159.401 260.662 160.795 264.233C163.773 265.736 163.801 268.229 161.974 270.626C160.812 272.151 160.652 274.215 159.632 275.847C159.737 275.982 159.846 276.112 159.951 276.246C161.875 278.714 163.54 281.367 164.943 284.154C164.546 281.057 165.132 277.325 166.13 274.92C167.266 272.179 169.395 269.871 171.27 267.501C173.523 264.656 178.142 265.898 178.539 269.505C178.542 269.54 178.546 269.575 178.55 269.61C178.271 269.767 177.998 269.934 177.732 270.11C176.211 271.116 176.737 273.473 178.538 273.751L178.579 273.757C178.478 274.76 178.306 275.755 178.055 276.733C180.46 286.037 175.266 289.425 167.851 289.577C167.687 289.661 167.527 289.745 167.364 289.825C168.115 291.94 168.715 294.11 169.16 296.31C169.559 298.253 169.836 300.218 169.991 302.191C170.184 304.68 170.168 307.181 169.958 309.666L169.97 309.578C170.503 306.841 171.989 304.285 174.147 302.514C177.361 299.874 181.902 298.901 185.369 296.779C187.038 295.758 189.177 297.078 188.886 299.013L188.871 299.105C188.355 299.315 187.851 299.559 187.364 299.832C187.086 299.989 186.813 300.156 186.546 300.332C185.026 301.338 185.552 303.694 187.353 303.972L187.394 303.979C187.423 303.983 187.448 303.987 187.478 303.991C186.592 306.094 185.358 308.046 183.813 309.729C182.309 317.851 175.849 318.621 168.938 316.256H168.933C168.178 319.547 167.074 322.762 165.655 325.826H153.944C153.902 325.696 153.865 325.562 153.827 325.432C154.91 325.499 156.001 325.436 157.067 325.239C156.198 324.173 155.33 323.098 154.461 322.032C154.44 322.011 154.423 321.99 154.406 321.969C153.965 321.423 153.52 320.882 153.08 320.336L153.079 320.336C153.052 318.66 153.253 316.991 153.651 315.371L153.651 315.37V315.37Z" fill="#F2F2F2"/>
<defs>
<clipPath id="clip0_564_93497">
<rect width="465.211" height="326" fill="white" transform="translate(0.849609 0.634766)"/>
</clipPath>
</defs>
</svg>
