<svg width="361" height="327" viewBox="0 0 361 327" fill="none" xmlns="http://www.w3.org/2000/svg">
<g clip-path="url(#clip0_564_93307)">
<path d="M253.648 319.157L247.514 319.156L244.596 295.494L253.65 295.495L253.648 319.157Z" fill="#FFB6B6"/>
<path d="M253.864 325.556L235 325.555V325.317C235 323.37 235.774 321.502 237.151 320.125C238.528 318.748 240.395 317.975 242.343 317.974H242.343L245.789 315.36L252.218 317.975H253.865L253.864 325.556Z" fill="#2F2E41"/>
<path d="M333.184 285.519L329.221 290.202L309.271 277.148L315.119 270.236L333.184 285.519Z" fill="#FFB6B6"/>
<path d="M338.208 289.487L326.025 303.889L325.842 303.735C324.356 302.478 323.43 300.681 323.268 298.74C323.106 296.8 323.721 294.874 324.979 293.387L324.979 293.387L325.209 289.068L331.357 285.848L332.42 284.591L338.208 289.487Z" fill="#2F2E41"/>
<path d="M34.8364 6.64505H18.1077C17.2861 6.64505 16.4981 6.31866 15.9171 5.73769C15.3362 5.15672 15.0098 4.36875 15.0098 3.54713C15.0098 2.72551 15.3362 1.93755 15.9171 1.35657C16.4981 0.775603 17.2861 0.449219 18.1077 0.449219H34.8364C35.658 0.449219 36.446 0.775603 37.027 1.35657C37.608 1.93755 37.9343 2.72551 37.9343 3.54713C37.9343 4.36875 37.608 5.15672 37.027 5.73769C36.446 6.31866 35.658 6.64505 34.8364 6.64505Z" fill="#E6E6E6"/>
<path d="M144.503 6.33503C146.043 6.33503 147.291 5.08675 147.291 3.54691C147.291 2.00707 146.043 0.758789 144.503 0.758789C142.963 0.758789 141.715 2.00707 141.715 3.54691C141.715 5.08675 142.963 6.33503 144.503 6.33503Z" fill="#E6E6E6"/>
<path d="M153.177 6.33503C154.717 6.33503 155.965 5.08675 155.965 3.54691C155.965 2.00707 154.717 0.758789 153.177 0.758789C151.637 0.758789 150.389 2.00707 150.389 3.54691C150.389 5.08675 151.637 6.33503 153.177 6.33503Z" fill="#E6E6E6"/>
<path d="M161.853 6.33503C163.392 6.33503 164.641 5.08675 164.641 3.54691C164.641 2.00707 163.392 0.758789 161.853 0.758789C160.313 0.758789 159.064 2.00707 159.064 3.54691C159.064 5.08675 160.313 6.33503 161.853 6.33503Z" fill="#E6E6E6"/>
<path d="M52.4945 88.4239H22.7545C20.7012 88.4216 18.7326 87.6049 17.2807 86.1529C15.8288 84.701 15.0121 82.7324 15.0098 80.6791V50.9391C15.0121 48.8858 15.8288 46.9172 17.2807 45.4653C18.7326 44.0134 20.7012 43.1966 22.7545 43.1943H52.4945C54.5479 43.1966 56.5164 44.0134 57.9684 45.4653C59.4203 46.9172 60.237 48.8858 60.2393 50.9391V80.6791C60.237 82.7324 59.4203 84.701 57.9684 86.1529C56.5164 87.6049 54.5479 88.4216 52.4945 88.4239Z" fill="#F2F2F2"/>
<path d="M157.205 88.4239H127.465C125.412 88.4216 123.444 87.6049 121.992 86.1529C120.54 84.701 119.723 82.7324 119.721 80.6791V50.9391C119.723 48.8858 120.54 46.9172 121.992 45.4653C123.444 44.0134 125.412 43.1966 127.465 43.1943H157.205C159.259 43.1966 161.227 44.0134 162.679 45.4653C164.131 46.9172 164.948 48.8858 164.95 50.9391V80.6791C164.948 82.7324 164.131 84.701 162.679 86.1529C161.227 87.6049 159.259 88.4216 157.205 88.4239Z" fill="#F2F2F2"/>
<path d="M104.539 88.4239H74.7995C72.7461 88.4216 70.7776 87.6049 69.3256 86.1529C67.8737 84.701 67.057 82.7324 67.0547 80.6791V50.9391C67.057 48.8858 67.8737 46.9172 69.3256 45.4653C70.7776 44.0134 72.7461 43.1966 74.7995 43.1943H104.539C106.593 43.1966 108.561 44.0134 110.013 45.4653C111.465 46.9172 112.282 48.8858 112.284 50.9391V80.6791C112.282 82.7324 111.465 84.701 110.013 86.1529C108.561 87.6049 106.593 88.4216 104.539 88.4239Z" fill="#F2F2F2"/>
<path d="M22.7541 108.87C20.865 108.872 19.0539 109.624 17.7181 110.959C16.3824 112.295 15.631 114.106 15.6289 115.995V145.735C15.6311 147.624 16.3824 149.435 17.7182 150.771C19.054 152.107 20.865 152.858 22.7541 152.86H52.4941C54.3831 152.858 56.1942 152.107 57.53 150.771C58.8658 149.435 59.6171 147.624 59.6193 145.735V115.995C59.6172 114.106 58.8658 112.295 57.53 110.959C56.1943 109.624 54.3832 108.872 52.4941 108.87H22.7541Z" fill="#F2F2F2"/>
<path d="M157.205 153.481H127.465C125.412 153.478 123.444 152.661 121.992 151.21C120.54 149.758 119.723 147.789 119.721 145.736V115.996C119.723 113.942 120.54 111.974 121.992 110.522C123.444 109.07 125.412 108.253 127.465 108.251H157.205C159.259 108.253 161.227 109.07 162.679 110.522C164.131 111.974 164.948 113.942 164.95 115.996V145.736C164.948 147.789 164.131 149.758 162.679 151.21C161.227 152.661 159.259 153.478 157.205 153.481Z" fill="#F2F2F2"/>
<path d="M104.539 153.481H74.7995C72.7461 153.478 70.7776 152.661 69.3256 151.21C67.8737 149.758 67.057 147.789 67.0547 145.736V115.996C67.057 113.942 67.8737 111.974 69.3256 110.522C70.7776 109.07 72.7461 108.253 74.7995 108.251H104.539C106.593 108.253 108.561 109.07 110.013 110.522C111.465 111.974 112.282 113.942 112.284 115.996V145.736C112.282 147.789 111.465 149.758 110.013 151.21C108.561 152.661 106.593 153.478 104.539 153.481Z" fill="#F2F2F2"/>
<path d="M52.4945 218.536H22.7545C20.7012 218.534 18.7326 217.717 17.2807 216.265C15.8288 214.813 15.0121 212.845 15.0098 210.791V181.051C15.0121 178.998 15.8288 177.03 17.2807 175.578C18.7326 174.126 20.7012 173.309 22.7545 173.307H52.4945C54.5479 173.309 56.5164 174.126 57.9684 175.578C59.4203 177.03 60.237 178.998 60.2393 181.051V210.791C60.237 212.845 59.4203 214.813 57.9684 216.265C56.5164 217.717 54.5479 218.534 52.4945 218.536Z" fill="#F2F2F2"/>
<path d="M157.205 218.536H127.465C125.412 218.534 123.444 217.717 121.992 216.265C120.54 214.813 119.723 212.845 119.721 210.791V181.051C119.723 178.998 120.54 177.03 121.992 175.578C123.444 174.126 125.412 173.309 127.465 173.307H157.205C159.259 173.309 161.227 174.126 162.679 175.578C164.131 177.03 164.948 178.998 164.95 181.051V210.791C164.948 212.845 164.131 214.813 162.679 216.265C161.227 217.717 159.259 218.534 157.205 218.536Z" fill="#F2F2F2"/>
<path d="M104.539 218.536H74.7995C72.7461 218.534 70.7776 217.717 69.3256 216.265C67.8737 214.813 67.057 212.845 67.0547 210.791V181.051C67.057 178.998 67.8737 177.03 69.3256 175.578C70.7776 174.126 72.7461 173.309 74.7995 173.307H104.539C106.593 173.309 108.561 174.126 110.013 175.578C111.465 177.03 112.282 178.998 112.284 181.051V210.791C112.282 212.845 111.465 214.813 110.013 216.265C108.561 217.717 106.593 218.534 104.539 218.536Z" fill="#F2F2F2"/>
<path d="M164.556 202.118H11.6846C8.70583 202.114 5.85003 200.93 3.74372 198.823C1.63741 196.717 0.452584 193.861 0.449219 190.882V130.329C0.452584 127.35 1.63741 124.495 3.74372 122.388C5.85003 120.282 8.70582 119.097 11.6846 119.094H164.556C167.535 119.097 170.39 120.282 172.497 122.388C174.603 124.495 175.788 127.35 175.791 130.329V190.882C175.788 193.861 174.603 196.717 172.497 198.823C170.39 200.93 167.535 202.114 164.556 202.118Z" fill="white"/>
<path d="M164.556 202.118H11.6846C8.70583 202.114 5.85003 200.93 3.74372 198.823C1.63741 196.717 0.452584 193.861 0.449219 190.882V130.329C0.452584 127.35 1.63741 124.495 3.74372 122.388C5.85003 120.282 8.70582 119.097 11.6846 119.094H164.556C167.535 119.097 170.39 120.282 172.497 122.388C174.603 124.495 175.788 127.35 175.791 130.329V190.882C175.788 193.861 174.603 196.717 172.497 198.823C170.39 200.93 167.535 202.114 164.556 202.118ZM41.2295 120.333C30.7425 120.333 20.6851 124.499 13.2697 131.914C5.8543 139.33 1.68838 149.387 1.68838 159.874V190.882C1.68838 192.195 1.94695 193.495 2.44931 194.708C2.95166 195.921 3.68796 197.023 4.6162 197.951C5.54444 198.879 6.64642 199.615 7.85921 200.118C9.07201 200.62 10.3719 200.879 11.6846 200.879H164.556C165.868 200.879 167.168 200.62 168.381 200.118C169.594 199.615 170.696 198.879 171.624 197.951C172.552 197.023 173.289 195.921 173.791 194.708C174.293 193.495 174.552 192.195 174.552 190.882V130.329C174.552 127.678 173.499 125.135 171.624 123.261C169.749 121.386 167.207 120.333 164.556 120.333H41.2295Z" fill="#E6E6E6"/>
<path d="M283.598 145.116L250.711 148.932L237.749 171.139L235.89 178.574L236.732 183.685L234.651 187.248L235.89 194.063L230.934 247.967L244.564 308.686H257.266L253.239 252.304L263.771 203.977L273.065 251.065L316.046 288.495L326.057 274.143L292.892 246.108L289.794 236.195L293.968 227.813L297.229 172.378L283.598 145.116Z" fill="#2F2E41"/>
<path d="M269.657 168.35C269.657 168.35 291.348 169.463 291.652 161.844C291.957 154.225 287.077 146.152 284.837 145.735C282.597 145.318 283.41 138.61 284.588 133.963C285.766 129.316 284.85 127.161 283.449 126.999C282.049 126.838 249.521 82.5377 249.521 82.5377L242.396 82.8475L235.27 77.5811L224.118 81.9181L221.64 91.8315L214.824 98.0273L218.727 125.266C218.727 125.266 223.049 136.259 228.99 147.468C230.839 150.956 232.844 154.464 234.925 157.669C239.825 165.216 245.142 171.078 249.814 171.012C262.842 170.828 269.657 168.35 269.657 168.35Z" fill="#62B0E5"/>
<path d="M189.216 139.407L185.311 141.21L184.407 141.626L182.959 142.3L152.816 156.218C152.142 156.949 151.245 157.437 150.265 157.605C149.286 157.772 148.278 157.61 147.4 157.144C146.395 156.599 145.648 155.678 145.322 154.583C144.996 153.488 145.118 152.308 145.661 151.303C145.681 151.267 145.703 151.237 145.723 151.201C146.301 150.177 147.256 149.418 148.384 149.086C149.513 148.754 150.726 148.875 151.767 149.423C151.976 149.541 152.175 149.675 152.362 149.824L153.144 149.326L155.599 147.769L157.454 146.594L161.142 144.247L162.572 143.34L167.21 140.396L171.684 137.557L177.104 134.116L181.27 131.469L182.567 132.765L189.216 139.407Z" fill="#FFB6B6"/>
<path d="M197.02 138.773C196.489 139.002 195.935 139.172 195.366 139.278C193.565 139.303 195.159 137.715 191.818 140.277C189.104 142.353 188.251 140.087 188.067 141.194C187.759 143.023 186.307 141.616 185.312 141.211C184.87 141.027 184.525 141.046 184.408 141.627C184.359 141.895 184.347 142.17 184.374 142.441C184.431 143.493 183.84 143.221 182.96 142.301C181.509 140.772 179.277 137.47 177.971 135.45C177.592 134.881 177.295 134.409 177.105 134.116C176.967 133.898 176.893 133.772 176.893 133.772C177.041 133.119 177.419 132.54 177.958 132.142C179.07 131.241 180.367 130.597 181.757 130.256C182.721 130.016 183.706 129.873 184.698 129.829C185.071 129.815 185.433 129.696 185.741 129.484L185.747 129.481C185.911 129.325 186.039 129.136 186.121 128.926C186.204 128.716 186.239 128.49 186.224 128.265C186.282 127.136 187.681 126.912 189.122 126.907C190.478 126.911 191.879 127.1 192.226 126.893C192.726 126.596 203.812 110.268 210.885 99.8058C212.44 97.5066 214.829 95.9046 217.547 95.3406C220.264 94.7765 223.094 95.295 225.435 96.7857L230.387 99.9395C232.243 100.676 233.738 102.109 234.553 103.932C235.159 105.496 235.272 107.209 234.876 108.839C234.32 111.132 233.351 113.305 232.016 115.25C225.172 125.869 203.37 136.392 197.02 138.773Z" fill="#62B0E5"/>
<path d="M287.16 118.756L289.669 122.251L290.248 123.06L291.183 124.354L310.542 151.327C311.387 151.851 312.035 152.639 312.385 153.57C312.735 154.501 312.766 155.521 312.474 156.471C312.129 157.561 311.365 158.469 310.351 158.995C309.337 159.522 308.156 159.625 307.066 159.281C307.027 159.269 306.993 159.252 306.955 159.24C305.839 158.866 304.914 158.071 304.375 157.026C303.836 155.98 303.725 154.765 304.067 153.64C304.144 153.413 304.238 153.192 304.348 152.98L303.712 152.306L301.72 150.189L300.215 148.59L297.214 145.411L296.053 144.178L292.286 140.179L288.654 136.322L284.251 131.649L280.865 128.058L281.893 126.539L287.16 118.756Z" fill="#FFB6B6"/>
<path d="M285.064 111.213C285.389 111.691 285.661 112.204 285.872 112.742C286.237 114.506 284.377 113.241 287.523 116.038C290.074 118.311 288.01 119.576 289.132 119.549C290.986 119.505 289.879 121.197 289.669 122.251C289.572 122.719 289.656 123.054 290.248 123.06C290.521 123.057 290.792 123.017 291.054 122.94C292.076 122.684 291.921 123.317 291.183 124.354C289.956 126.068 287.135 128.883 285.397 130.547C284.91 131.027 284.503 131.407 284.251 131.649C284.063 131.826 283.954 131.923 283.954 131.923C283.284 131.901 282.644 131.639 282.151 131.185C281.057 130.263 280.179 129.11 279.582 127.81C279.165 126.909 278.838 125.968 278.608 125.003C278.523 124.639 278.338 124.306 278.072 124.043L278.067 124.038C277.884 123.906 277.674 123.817 277.452 123.775C277.23 123.734 277.002 123.742 276.783 123.799C275.663 123.955 275.179 122.623 274.903 121.21C274.651 119.877 274.571 118.466 274.303 118.164C273.734 117.523 257.302 107.756 257.302 107.756L240.629 85.7787C241.001 83.8167 242.126 82.0781 243.763 80.9343C245.185 80.0436 246.845 79.6094 248.521 79.6902C250.878 79.8029 253.194 80.3446 255.356 81.2887C267.077 86.004 281.526 105.427 285.064 111.213Z" fill="#62B0E5"/>
<path d="M223.17 76.9858C231.059 76.9858 237.455 70.5903 237.455 62.7009C237.455 54.8116 231.059 48.416 223.17 48.416C215.28 48.416 208.885 54.8116 208.885 62.7009C208.885 70.5903 215.28 76.9858 223.17 76.9858Z" fill="#FFB6B6"/>
<path d="M239.441 65.7107C239.441 65.7107 236.492 69.8929 234.652 71.386C234.671 69.2113 234.311 65.5867 234.33 63.4182C234.398 62.2796 234.283 61.1374 233.989 60.0353C233.835 59.486 233.551 58.9816 233.162 58.5644C232.773 58.1472 232.29 57.8294 231.752 57.6375C231.223 57.486 230.659 57.5049 230.141 57.6916C229.623 57.8783 229.177 58.2233 228.865 58.6777C228.554 59.1321 228.394 59.6729 228.407 60.2234C228.421 60.774 228.607 61.3064 228.939 61.7453C228.01 61.9374 227.205 61.039 226.839 60.1592C226.473 59.2794 226.281 58.2633 225.563 57.6313C225.194 57.3462 224.759 57.1601 224.298 57.0906C223.837 57.0212 223.366 57.0709 222.929 57.2348C222.059 57.5682 221.272 58.0885 220.625 58.7589C218.673 60.5743 217.056 62.78 214.819 64.2422C214.371 64.5359 213.896 64.7869 213.4 64.9919C213.005 63.5032 212.11 62.1953 210.866 61.2868C211.118 62.7063 211.104 64.1603 210.823 65.5743C209.576 65.6742 208.337 65.2954 207.359 64.5149C206.31 63.5625 205.648 62.2566 205.501 60.8469C205.417 60.2082 205.398 59.5625 205.445 58.92C205.782 58.7327 206.099 58.5127 206.393 58.2633C207.046 57.7301 207.587 57.0731 207.985 56.3302C207.235 56.5735 206.46 56.7315 205.674 56.8011C205.68 56.7515 205.686 56.7081 205.693 56.6585C205.778 55.5922 206.132 54.5648 206.721 53.6722C207.378 52.8357 208.623 52.3587 209.546 52.8977C210.071 51.1702 210.935 49.5646 212.087 48.1745C213.239 46.7844 214.656 45.6377 216.256 44.8014C217.856 43.965 219.607 43.4558 221.406 43.3034C223.205 43.151 225.016 43.3585 226.734 43.9137C226.369 44.6728 226.157 45.4957 226.108 46.3363C226.804 45.6918 227.581 45.1399 228.419 44.6944C228.83 44.9165 229.182 45.2318 229.449 45.6148C229.716 45.9978 229.889 46.438 229.956 46.9001C231.139 47.117 233.407 47.3958 232.601 48.2198C235.717 49.7572 238.146 52.4034 239.412 55.6394C240.677 58.8753 240.688 62.4673 239.441 65.7107Z" fill="#2F2E41"/>
<path d="M77.7291 148.403L22.035 147.753C21.955 147.753 21.8758 147.737 21.8019 147.706C21.7281 147.675 21.6611 147.63 21.6047 147.573C21.5483 147.516 21.5037 147.449 21.4733 147.375C21.4429 147.301 21.4275 147.221 21.4277 147.141C21.428 147.061 21.4441 146.982 21.475 146.908C21.5058 146.835 21.551 146.768 21.6078 146.711C21.6646 146.655 21.7319 146.61 21.806 146.58C21.88 146.549 21.9593 146.534 22.0393 146.534L77.7335 147.184C77.8951 147.185 78.0499 147.25 78.1638 147.364C78.2777 147.479 78.3413 147.634 78.3408 147.796C78.3402 147.958 78.2754 148.112 78.1607 148.226C78.046 148.34 77.8908 148.404 77.7292 148.403L77.7291 148.403Z" fill="#CCCCCC"/>
<path d="M106.23 158.316L22.035 157.666C21.955 157.666 21.8758 157.65 21.8019 157.619C21.7281 157.588 21.6611 157.543 21.6047 157.486C21.5483 157.429 21.5037 157.362 21.4733 157.288C21.4429 157.214 21.4275 157.135 21.4277 157.055C21.428 156.975 21.4441 156.895 21.475 156.821C21.5058 156.748 21.551 156.681 21.6078 156.624C21.6646 156.568 21.7319 156.523 21.806 156.493C21.88 156.462 21.9593 156.447 22.0393 156.447L106.234 157.097C106.396 157.098 106.551 157.163 106.665 157.278C106.778 157.392 106.842 157.547 106.842 157.709C106.841 157.871 106.776 158.026 106.662 158.139C106.547 158.253 106.392 158.317 106.23 158.316L106.23 158.316Z" fill="#CCCCCC"/>
<path d="M140.253 166.027C147.439 166.027 153.265 160.202 153.265 153.016C153.265 145.83 147.439 140.005 140.253 140.005C133.068 140.005 127.242 145.83 127.242 153.016C127.242 160.202 133.068 166.027 140.253 166.027Z" fill="#62B0E5"/>
<path d="M144.842 156.172L140.253 145.295L135.664 156.172L139.633 154.486V161.07H140.872V154.486L144.842 156.172Z" fill="white"/>
<path d="M153.265 178.108H23.1525C22.7417 178.108 22.3477 178.272 22.0572 178.562C21.7667 178.853 21.6035 179.247 21.6035 179.657C21.6035 180.068 21.7667 180.462 22.0572 180.753C22.3477 181.043 22.7417 181.206 23.1525 181.206H153.265C153.676 181.206 154.07 181.043 154.36 180.753C154.651 180.462 154.814 180.068 154.814 179.657C154.814 179.247 154.651 178.853 154.36 178.562C154.07 178.272 153.676 178.108 153.265 178.108Z" fill="#F2F2F2"/>
<path d="M97.5024 178.108V181.206H23.1525C22.7417 181.206 22.3477 181.043 22.0572 180.753C21.7667 180.462 21.6035 180.068 21.6035 179.657C21.6035 179.247 21.7667 178.853 22.0572 178.562C22.3477 178.272 22.7417 178.108 23.1525 178.108H97.5024Z" fill="#62B0E5"/>
<path d="M325.305 315.71C325.593 315.723 325.878 315.647 326.121 315.493C326.365 315.339 326.555 315.113 326.666 314.847C326.778 314.581 326.804 314.288 326.743 314.006C326.682 313.724 326.535 313.468 326.324 313.273L326.227 312.889C326.24 312.859 326.253 312.828 326.266 312.798C326.556 312.112 327.042 311.528 327.663 311.118C328.284 310.708 329.013 310.491 329.757 310.494C330.501 310.497 331.228 310.719 331.846 311.134C332.464 311.548 332.946 312.136 333.231 312.823C334.37 315.567 335.82 318.315 336.177 321.216C336.335 322.499 336.268 323.798 335.981 325.058C338.657 319.222 340.046 312.878 340.055 306.458C340.056 304.846 339.966 303.237 339.787 301.635C339.639 300.323 339.433 299.02 339.171 297.726C337.737 290.705 334.658 284.125 330.187 278.525C328.023 277.344 326.273 275.529 325.172 273.323C324.774 272.53 324.492 271.683 324.336 270.81C324.58 270.842 325.256 267.124 325.072 266.896C325.412 266.38 326.021 266.123 326.393 265.619C328.241 263.114 330.786 263.551 332.115 266.956C334.955 268.389 334.982 270.765 333.24 273.051C332.132 274.505 331.979 276.472 331.007 278.029C331.107 278.157 331.211 278.281 331.311 278.409C333.14 280.761 334.734 283.286 336.07 285.948C335.745 282.966 336.133 279.948 337.202 277.144C338.285 274.531 340.315 272.331 342.103 270.072C342.576 269.465 343.218 269.012 343.948 268.77C344.678 268.528 345.464 268.508 346.206 268.713C346.947 268.917 347.612 269.337 348.115 269.919C348.618 270.501 348.937 271.219 349.032 271.982C349.036 272.016 349.04 272.049 349.043 272.082C348.777 272.232 348.518 272.391 348.263 272.559C347.944 272.773 347.696 273.078 347.553 273.434C347.41 273.791 347.378 274.182 347.461 274.558C347.544 274.933 347.738 275.274 348.019 275.537C348.299 275.799 348.652 275.971 349.032 276.03L349.071 276.036C348.976 276.993 348.809 277.941 348.571 278.873C350.864 287.743 345.913 290.974 338.842 291.119C338.686 291.199 338.534 291.279 338.378 291.355C339.721 295.159 340.563 299.122 340.883 303.144C341.065 305.517 341.054 307.9 340.851 310.271L340.863 310.187C341.376 307.551 342.782 305.172 344.845 303.452C347.909 300.935 352.239 300.008 355.544 297.985C355.896 297.759 356.304 297.639 356.722 297.638C357.139 297.637 357.548 297.755 357.901 297.979C358.253 298.203 358.534 298.523 358.711 298.901C358.887 299.28 358.952 299.701 358.897 300.114L358.883 300.203C358.391 300.403 357.911 300.635 357.447 300.895C357.181 301.045 356.921 301.204 356.667 301.372C356.347 301.586 356.1 301.891 355.957 302.247C355.813 302.604 355.781 302.995 355.864 303.37C355.948 303.746 356.142 304.087 356.422 304.35C356.703 304.612 357.056 304.784 357.436 304.843L357.475 304.849C357.503 304.853 357.527 304.857 357.555 304.861C356.713 306.871 355.531 308.722 354.061 310.331C352.627 318.074 346.468 318.809 339.879 316.554H339.875C339.152 319.696 338.105 322.753 336.749 325.678H325.585C325.544 325.554 325.508 325.426 325.472 325.302C326.506 325.367 327.543 325.305 328.562 325.118C327.733 324.102 326.905 323.077 326.077 322.061C326.058 322.042 326.041 322.022 326.025 322.001C325.604 321.48 325.18 320.964 324.76 320.444L324.76 320.443C324.737 318.849 324.92 317.258 325.304 315.71L325.305 315.71Z" fill="#F2F2F2"/>
<path d="M202.047 325.712C202.047 325.809 202.065 325.905 202.102 325.994C202.139 326.084 202.194 326.165 202.262 326.234C202.331 326.302 202.412 326.357 202.502 326.394C202.591 326.431 202.687 326.45 202.784 326.449H359.718C359.914 326.449 360.101 326.372 360.24 326.233C360.378 326.095 360.456 325.907 360.456 325.712C360.456 325.516 360.378 325.329 360.24 325.191C360.101 325.052 359.914 324.975 359.718 324.975H202.784C202.687 324.974 202.591 324.993 202.502 325.03C202.412 325.067 202.331 325.121 202.262 325.19C202.194 325.258 202.139 325.34 202.102 325.429C202.065 325.519 202.047 325.615 202.047 325.712Z" fill="#CCCCCC"/>
</g>
<defs>
<clipPath id="clip0_564_93307">
<rect width="360.007" height="326" fill="white" transform="translate(0.449219 0.449219)"/>
</clipPath>
</defs>
</svg>
