<svg width="545" height="327" viewBox="0 0 545 327" fill="none" xmlns="http://www.w3.org/2000/svg">
<g clip-path="url(#clip0_564_93703)">
<path d="M92.0198 310.99C91.5846 311.01 91.1538 310.896 90.7857 310.663C90.4177 310.43 90.1301 310.089 89.962 309.687C89.794 309.285 89.7535 308.841 89.8461 308.416C89.9388 307.99 90.1601 307.603 90.48 307.307L90.6256 306.728C90.6064 306.682 90.5871 306.636 90.5677 306.59C90.1293 305.554 89.3946 304.671 88.456 304.052C87.5174 303.432 86.4167 303.104 85.2922 303.108C84.1676 303.112 83.0694 303.449 82.1354 304.075C81.2014 304.701 80.4734 305.59 80.0426 306.629C78.3212 310.775 76.1295 314.928 75.5899 319.311C75.3522 321.249 75.4525 323.213 75.8862 325.117C71.843 316.297 69.7435 306.711 69.73 297.009C69.7292 294.574 69.8645 292.142 70.1352 289.722C70.359 287.738 70.6694 285.769 71.0665 283.814C73.2336 273.205 77.8863 263.261 84.6427 254.799C87.9127 253.015 90.5573 250.271 92.2199 246.937C92.8223 245.739 93.248 244.46 93.4839 243.14C93.115 243.188 92.0929 237.57 92.3712 237.225C91.8571 236.445 90.937 236.057 90.3756 235.296C87.5833 231.511 83.7362 232.172 81.7279 237.316C77.4376 239.481 77.3961 243.072 80.0286 246.526C81.7034 248.723 81.9335 251.697 83.403 254.049C83.2518 254.242 83.0946 254.43 82.9434 254.623C80.1798 258.177 77.7711 261.993 75.7518 266.017C76.2429 261.509 75.6568 256.949 74.0418 252.713C72.405 248.764 69.3371 245.438 66.6354 242.025C63.3903 237.925 56.7358 239.714 56.1641 244.912C56.1585 244.962 56.1531 245.012 56.1479 245.063C56.5491 245.289 56.942 245.529 57.3263 245.783C57.8091 246.106 58.1833 246.567 58.3997 247.106C58.6161 247.645 58.6647 248.236 58.5391 248.803C58.4135 249.37 58.1195 249.886 57.6958 250.283C57.272 250.68 56.7382 250.94 56.1643 251.028L56.1056 251.037C56.2485 252.484 56.5012 253.917 56.8614 255.325C53.3955 268.728 60.8782 273.61 71.5624 273.83C71.7982 273.951 72.0281 274.072 72.264 274.186C70.2352 279.936 68.9627 285.924 68.4784 292.002C68.2041 295.587 68.2203 299.189 68.5267 302.772L68.5086 302.645C67.7345 298.661 65.6091 295.066 62.4915 292.467C57.861 288.664 51.319 287.263 46.3236 284.205C45.7927 283.865 45.1754 283.683 44.5445 283.681C43.9136 283.68 43.2954 283.858 42.7628 284.197C42.2303 284.535 41.8056 285.019 41.5388 285.59C41.272 286.162 41.1743 286.798 41.2572 287.424C41.2639 287.468 41.2707 287.512 41.2776 287.557C42.0223 287.86 42.7473 288.21 43.4486 288.603C43.8499 288.83 44.2427 289.07 44.627 289.324C45.1098 289.647 45.484 290.108 45.7004 290.646C45.9168 291.185 45.9653 291.777 45.8397 292.344C45.7141 292.911 45.4202 293.427 44.9965 293.824C44.5727 294.221 44.0389 294.48 43.465 294.569L43.4062 294.578C43.3639 294.584 43.3276 294.59 43.2853 294.596C44.5577 297.634 46.3435 300.43 48.5646 302.863C50.7317 314.563 60.0396 315.674 69.9962 312.266H70.0022C71.0947 317.013 72.6775 321.634 74.7252 326.054H91.5971C91.6577 325.867 91.712 325.673 91.7665 325.486C90.2048 325.584 88.6369 325.49 87.0979 325.207C88.3497 323.671 89.6015 322.123 90.8533 320.587C90.8812 320.559 90.9075 320.528 90.9319 320.497C91.5669 319.71 92.2079 318.93 92.8429 318.144L92.8432 318.143C92.8771 315.733 92.6005 313.329 92.0204 310.99L92.0198 310.99Z" fill="#F2F2F2"/>
<path d="M444.417 310.99C444.852 311.01 445.283 310.896 445.651 310.663C446.019 310.43 446.307 310.089 446.475 309.687C446.643 309.285 446.683 308.841 446.591 308.416C446.498 307.99 446.277 307.603 445.957 307.307L445.811 306.728C445.831 306.682 445.85 306.636 445.869 306.59C446.308 305.554 447.042 304.671 447.981 304.052C448.92 303.432 450.02 303.104 451.145 303.108C452.269 303.112 453.368 303.449 454.302 304.075C455.236 304.701 455.964 305.59 456.394 306.629C458.116 310.775 460.307 314.928 460.847 319.311C461.085 321.249 460.985 323.213 460.551 325.117C464.594 316.297 466.693 306.711 466.707 297.009C466.708 294.574 466.573 292.142 466.302 289.722C466.078 287.738 465.768 285.769 465.37 283.814C463.203 273.205 458.551 263.261 451.794 254.799C448.524 253.015 445.88 250.271 444.217 246.937C443.615 245.739 443.189 244.46 442.953 243.14C443.322 243.188 444.344 237.57 444.066 237.225C444.58 236.445 445.5 236.057 446.061 235.296C448.854 231.511 452.701 232.172 454.709 237.316C458.999 239.481 459.041 243.072 456.408 246.526C454.734 248.723 454.503 251.697 453.034 254.049C453.185 254.242 453.342 254.43 453.494 254.623C456.257 258.177 458.666 261.993 460.685 266.017C460.194 261.509 460.78 256.949 462.395 252.713C464.032 248.764 467.1 245.438 469.802 242.025C473.047 237.925 479.701 239.714 480.273 244.912C480.278 244.962 480.284 245.012 480.289 245.063C479.888 245.289 479.495 245.529 479.111 245.783C478.628 246.106 478.254 246.567 478.037 247.106C477.821 247.645 477.772 248.236 477.898 248.803C478.024 249.37 478.317 249.886 478.741 250.283C479.165 250.68 479.699 250.94 480.273 251.028L480.331 251.037C480.188 252.484 479.936 253.917 479.576 255.325C483.041 268.728 475.559 273.61 464.875 273.83C464.639 273.951 464.409 274.072 464.173 274.186C466.202 279.936 467.474 285.924 467.959 292.002C468.233 295.587 468.217 299.189 467.91 302.772L467.928 302.645C468.703 298.661 470.828 295.066 473.946 292.467C478.576 288.664 485.118 287.263 490.113 284.205C490.644 283.865 491.262 283.683 491.893 283.681C492.523 283.68 493.142 283.858 493.674 284.197C494.207 284.535 494.631 285.019 494.898 285.59C495.165 286.162 495.263 286.798 495.18 287.424C495.173 287.468 495.166 287.512 495.159 287.557C494.415 287.86 493.69 288.21 492.988 288.603C492.587 288.83 492.194 289.07 491.81 289.324C491.327 289.647 490.953 290.108 490.737 290.646C490.52 291.185 490.472 291.777 490.597 292.344C490.723 292.911 491.017 293.427 491.441 293.824C491.864 294.221 492.398 294.48 492.972 294.569L493.031 294.578C493.073 294.584 493.109 294.59 493.152 294.596C491.879 297.634 490.094 300.43 487.872 302.863C485.705 314.563 476.397 315.674 466.441 312.266H466.435C465.342 317.013 463.76 321.634 461.712 326.054H444.84C444.779 325.867 444.725 325.673 444.671 325.486C446.232 325.584 447.8 325.49 449.339 325.207C448.087 323.671 446.836 322.123 445.584 320.587C445.556 320.559 445.53 320.528 445.505 320.497C444.87 319.71 444.229 318.93 443.594 318.144L443.594 318.143C443.56 315.733 443.836 313.329 444.417 310.99L444.417 310.99Z" fill="#F2F2F2"/>
<path d="M111.426 325.676H138.652C143.308 309.997 138.677 272.944 144.814 257.799C156.59 228.76 171.633 198.12 199.711 183.941C211.699 177.887 224.77 175.522 238.119 175.651C256.56 175.826 275.519 180.776 292.877 187.337C299.977 190.014 307.013 192.958 314.021 195.967C340.423 207.312 366.538 219.669 394.93 223.009C430.858 227.232 473.1 211.158 482.912 176.534C490.402 150.026 476.914 122.506 462.768 98.831C448.623 75.1566 432.811 49.8259 435.394 22.4159C435.404 22.3239 435.413 22.2226 435.431 22.1306C436.403 12.2854 442.282 5.20996 450.493 0.673828H414.741C414.269 26.2437 429.062 48.8138 442.374 71.0989C456.52 94.7642 470.008 122.294 462.518 148.802C452.706 183.417 371.451 142.841 335.523 138.609C325.377 137.422 341.494 141.645 331.82 138.609C316.647 133.852 314.965 177.482 300.199 171.078C291.007 167.085 281.805 163.119 272.483 159.595C268.623 158.132 264.679 156.761 260.689 155.491C260.68 155.491 260.68 155.491 260.67 155.482C233.88 146.999 204.58 143.696 179.826 155.961C179.659 156.044 179.483 156.126 179.316 156.209C151.239 170.379 136.196 201.019 124.42 230.057C114.691 254.063 116.221 300.355 111.426 325.676Z" fill="#F2F2F2"/>
<path d="M262.9 324.873C331.961 324.873 387.946 268.888 387.946 199.827C387.946 130.765 331.961 74.7803 262.9 74.7803C193.839 74.7803 137.854 130.765 137.854 199.827C137.854 268.888 193.839 324.873 262.9 324.873Z" fill="white"/>
<path d="M262.543 325.677C138.822 328.519 136.109 269.74 136.109 199.827C136.109 129.915 192.988 73.0371 262.9 73.0371C332.813 73.0371 389.691 129.915 389.691 199.827C389.691 269.74 332.456 325.677 262.543 325.677ZM262.9 76.5259C194.911 76.5259 140.743 131.848 139.598 199.827C138.533 263.056 205.703 341.956 262.9 323.13C293.573 289.349 380.294 252.965 386.202 199.827C393.715 132.255 330.889 76.5259 262.9 76.5259V76.5259Z" fill="#3F3D56"/>
<path d="M245.841 264.908C243.682 264.908 241.552 264.405 239.621 263.439C237.689 262.473 236.01 261.071 234.714 259.343L200.6 213.856C199.503 212.395 198.705 210.732 198.251 208.962C197.797 207.192 197.696 205.35 197.954 203.541C198.212 201.733 198.824 199.992 199.755 198.42C200.685 196.848 201.917 195.474 203.379 194.378C204.84 193.282 206.504 192.484 208.274 192.031C210.044 191.578 211.886 191.478 213.695 191.737C215.503 191.996 217.243 192.608 218.815 193.54C220.387 194.471 221.76 195.703 222.855 197.166L245.174 226.922L302.498 140.938C304.545 137.871 307.726 135.742 311.343 135.019C314.959 134.297 318.715 135.041 321.783 137.086C324.852 139.132 326.982 142.312 327.706 145.929C328.431 149.545 327.689 153.3 325.645 156.37L257.416 258.714C256.182 260.564 254.522 262.092 252.575 263.169C250.629 264.246 248.452 264.841 246.228 264.903C246.099 264.906 245.97 264.908 245.841 264.908Z" fill="#F2F2F2"/>
<path d="M0.875004 325.773C0.874651 325.891 0.897711 326.008 0.942851 326.118C0.98799 326.227 1.05432 326.327 1.13803 326.41C1.22174 326.494 1.32116 326.56 1.43059 326.606C1.54003 326.651 1.65732 326.674 1.77569 326.673H543.13C543.369 326.673 543.598 326.578 543.767 326.41C543.936 326.241 544.031 326.012 544.031 325.773C544.031 325.534 543.936 325.305 543.767 325.136C543.598 324.967 543.369 324.872 543.13 324.872H1.77569C1.65732 324.872 1.54004 324.895 1.43061 324.94C1.32117 324.985 1.22175 325.051 1.13804 325.135C1.05433 325.219 0.988003 325.318 0.942862 325.428C0.897721 325.537 0.874655 325.654 0.875004 325.773Z" fill="#CCCCCC"/>
<path d="M342.752 316.944H335.43L331.947 288.701L342.754 288.702L342.752 316.944Z" fill="#FFB6B6"/>
<path d="M343.01 324.583L320.494 324.582V324.297C320.494 321.973 321.418 319.744 323.061 318.1C324.705 316.457 326.934 315.533 329.258 315.533H329.259L333.371 312.413L341.045 315.534L343.011 315.534L343.01 324.583Z" fill="#2F2E41"/>
<path d="M310.919 281.943L304.156 284.747L290.119 259.994L300.102 255.854L310.919 281.943Z" fill="#FFB6B6"/>
<path d="M314.084 288.9L293.285 297.524L293.176 297.261C292.286 295.114 292.285 292.702 293.174 290.554C294.062 288.406 295.767 286.699 297.914 285.809L297.915 285.809L300.519 281.351L308.802 281.294L310.618 280.541L314.084 288.9Z" fill="#2F2E41"/>
<path d="M351.124 156.286L299.161 161.715L292.21 185.126L268.139 223.81C268.139 223.81 284.935 252.081 283.358 251.773C281.781 251.465 284.934 259.172 287.142 258.724C289.35 258.277 291.646 263.301 290.119 264.195C288.593 265.088 294.717 272.642 294.717 272.642L304.077 264.241C306.068 249.223 303.663 235.858 295.092 224.808L321.909 195.858L326.994 193.748L331.031 301.177L345.961 301.423C350.08 280.231 352.15 261.157 348.93 247.551C348.93 247.551 349.392 206.675 351.158 207.122C352.924 207.569 351.427 202.244 351.427 202.244C351.427 202.244 349.881 197.709 351.78 195.827C353.68 193.946 352.494 182.88 352.494 182.88C355.633 172.408 354.688 163.762 351.124 156.286Z" fill="#2F2E41"/>
<path d="M311.17 69.8928L325.536 66.1704L332.241 56.9219L348.166 58.8796L351.556 71.4946L362.893 78.0753C362.893 78.0753 356.627 144.352 358.117 147.991C359.608 151.631 364.952 151.33 360.388 156.021C355.824 160.713 355.219 158.823 356.278 163.93C357.337 169.038 365.058 174.443 356.278 174.389C347.498 174.336 294.52 173.579 296.034 167.524C297.547 161.47 297.524 163.007 299.806 159.211C302.088 155.415 303.625 157.536 302.856 151.935C302.088 146.333 302.845 142.549 302.845 139.521C302.845 136.494 305.381 108.984 305.381 108.984L311.17 69.8928Z" fill="#E6E6E6"/>
<path d="M340.163 55.212C349.483 55.212 357.038 47.6566 357.038 38.3365C357.038 29.0164 349.483 21.4609 340.163 21.4609C330.843 21.4609 323.287 29.0164 323.287 38.3365C323.287 47.6566 330.843 55.212 340.163 55.212Z" fill="#FFB6B6"/>
<path d="M322.48 28.1234C323.962 29.3209 323.623 35.1444 325.274 34.1952C326.925 33.246 327.269 31.5462 329.17 31.5284C330.72 31.614 332.182 32.2756 333.27 33.3835C333.472 33.5664 333.664 33.7581 333.851 33.9477C334.022 33.8878 334.191 33.8334 334.369 33.7889C335.702 33.4633 337.11 33.6615 338.302 34.3426C337.201 34.4212 336.153 34.8437 335.306 35.5504C335.669 35.9571 336.037 36.3661 336.425 36.7441C339.656 39.9114 346.283 36.5384 350.739 35.7774C347.028 39.8294 347.76 42.0915 348.683 47.5076L348.686 47.8034C348.876 46.5544 352.876 46.6167 352.217 48.274C351.389 49.9112 350.352 51.4346 349.134 52.8063C354.584 49.0304 358.985 43.8255 359.957 37.5381C360.157 36.2162 360.546 34.8674 360.17 33.5785C360.01 32.9268 359.638 32.3465 359.113 31.9281C358.589 31.5098 357.94 31.2771 357.269 31.2663C357.876 29.3377 357.95 27.2805 357.481 25.3136C357.013 23.3467 356.02 21.5435 354.608 20.0957C353.197 18.648 351.419 17.6098 349.465 17.0915C347.51 16.5733 345.452 16.5943 343.509 17.1524C341.736 17.7825 340.007 18.5288 338.332 19.3866C336.642 20.2477 334.729 20.5717 332.85 20.3152C331.679 20.0733 330.494 19.4671 329.346 19.8104C328.016 20.2092 327.445 21.6135 326.912 22.9692C327.912 23.3345 328.781 23.9899 329.407 24.8515C328.373 24.4698 327.245 24.424 326.183 24.7205C326.163 24.7239 326.144 24.7291 326.126 24.736C324.922 26.8934 324.852 27.4225 322.48 28.1234Z" fill="#2F2E41"/>
<path d="M328.045 61.649C319.402 60.9531 311.51 67.5635 307.911 75.4533C304.313 83.343 304.077 92.2933 303.903 100.963L303.36 127.913C303.279 131.901 303.199 135.889 303 139.873C302.898 143.75 302.41 147.606 301.545 151.386C299.782 158.323 295.906 164.504 292.086 170.555C301.866 173.512 311.812 175.887 321.872 177.669C326.897 161.419 331.978 144.702 330.743 127.737C330.09 118.761 327.675 109.996 326.757 101.042C325.457 88.3615 327.18 75.5872 328.9 62.9563" fill="#3F3D56"/>
<path d="M349.027 63.165C357.589 64.5417 363.686 72.8371 365.307 81.3557C366.929 89.8742 365.033 98.6245 363.144 107.088C361.186 115.857 359.229 124.626 357.271 133.395C356.402 137.288 355.533 141.182 354.78 145.099C354.049 148.904 357.113 153.785 357.148 157.659C357.212 164.816 355.823 170.71 358.096 177.495C347.894 178.045 337.668 177.99 327.472 177.332C326.451 160.354 325.485 142.908 330.713 126.722C333.48 118.158 337.906 110.217 340.924 101.738C345.198 89.728 346.558 76.9099 347.887 64.232" fill="#3F3D56"/>
<path d="M354.735 185.509C354.099 184.401 353.92 183.088 354.237 181.851C354.555 180.613 355.342 179.548 356.432 178.882C356.656 178.75 356.89 178.637 357.133 178.544L356.041 141.372L367.868 138.361L363.358 181.669C363.666 182.704 363.624 183.812 363.236 184.82C362.849 185.829 362.139 186.68 361.216 187.242C360.688 187.557 360.104 187.765 359.495 187.854C358.887 187.943 358.267 187.911 357.672 187.76C357.076 187.61 356.515 187.343 356.022 186.976C355.529 186.609 355.114 186.148 354.799 185.62C354.777 185.583 354.756 185.546 354.735 185.509Z" fill="#FFB6B6"/>
<path d="M353.871 78.0153C353.871 78.0153 362.126 71.0341 369.072 84.9927C376.019 98.9513 372.137 130.84 371.159 132.542C370.181 134.244 369.585 131.873 370.12 136.409C370.556 140.099 367.966 139.638 368.895 140.425C371.344 142.501 364.485 142.737 368.008 144.567C371.531 146.396 355.764 146.739 355.764 146.739C355.764 146.739 353.857 145.377 355.181 140.241C355.925 137.356 357.788 136.301 355.801 134.966C353.815 133.631 357.853 129.504 357.856 128.599C357.859 127.694 351.559 107.89 351.559 107.89L353.871 78.0153Z" fill="#3F3D56"/>
<path d="M285.56 249.973C283.401 249.973 281.271 249.471 279.34 248.505C277.408 247.539 275.728 246.136 274.433 244.408L240.319 198.922C239.222 197.46 238.424 195.797 237.969 194.028C237.515 192.258 237.415 190.416 237.673 188.607C237.931 186.798 238.543 185.058 239.473 183.485C240.404 181.913 241.636 180.54 243.097 179.443C244.559 178.347 246.222 177.55 247.993 177.097C249.763 176.643 251.605 176.543 253.413 176.802C255.222 177.061 256.962 177.674 258.534 178.605C260.106 179.537 261.479 180.769 262.574 182.231L284.893 211.987L342.216 126.004C343.23 124.484 344.532 123.178 346.05 122.162C347.568 121.145 349.271 120.438 351.062 120.08C352.853 119.721 354.698 119.72 356.49 120.074C358.282 120.429 359.986 121.132 361.506 122.146C363.026 123.159 364.331 124.462 365.348 125.979C366.364 127.497 367.072 129.2 367.43 130.992C367.788 132.783 367.79 134.627 367.436 136.419C367.081 138.211 366.377 139.915 365.364 141.435L297.135 243.779C295.901 245.63 294.241 247.158 292.294 248.235C290.347 249.312 288.171 249.907 285.947 249.969C285.818 249.971 285.689 249.973 285.56 249.973Z" fill="#62B0E5"/>
<path d="M311.564 179.051C312.26 177.98 312.511 176.679 312.262 175.426C312.014 174.173 311.287 173.066 310.235 172.341C310.019 172.197 309.791 172.071 309.554 171.965L312.699 134.909L301.057 131.25L303.166 174.74C302.801 175.757 302.782 176.866 303.113 177.894C303.444 178.922 304.106 179.812 304.996 180.424C305.506 180.767 306.078 181.007 306.681 181.13C307.283 181.252 307.904 181.254 308.507 181.137C309.11 181.019 309.685 180.784 310.197 180.445C310.709 180.105 311.15 179.668 311.493 179.159C311.517 179.123 311.541 179.087 311.564 179.051Z" fill="#FFB6B6"/>
<path d="M318.376 71.8469C318.376 71.8469 310.52 64.4202 302.812 77.9736C295.105 91.5269 297.219 123.581 298.101 125.335C298.983 127.088 299.71 124.754 298.925 129.254C298.286 132.914 300.897 132.596 299.926 133.331C297.365 135.268 304.201 135.883 300.583 137.515C296.964 139.147 312.688 140.361 312.688 140.361C312.688 140.361 314.667 139.106 313.629 133.905C313.046 130.983 311.244 129.827 313.301 128.604C315.359 127.381 311.554 123.037 311.602 122.133C311.649 121.229 319.034 101.803 319.034 101.803L318.376 71.8469Z" fill="#3F3D56"/>
</g>
<defs>
<clipPath id="clip0_564_93703">
<rect width="543.156" height="326" fill="white" transform="translate(0.875 0.673828)"/>
</clipPath>
</defs>
</svg>
