<svg width="20" height="20" viewBox="0 0 20 20" fill="none" xmlns="http://www.w3.org/2000/svg">
<rect x="5" y="5" width="10" height="10" rx="1.5" stroke="#2582C1"/>
<rect x="8" y="8" width="4" height="4" rx="1.5" stroke="#2582C1"/>
<line x1="2.50781" y1="8" x2="5" y2="8" stroke="#2582C1" stroke-linecap="round"/>
<line x1="2.50781" y1="10" x2="5" y2="10" stroke="#2582C1" stroke-linecap="round"/>
<line x1="2.50781" y1="12" x2="5" y2="12" stroke="#2582C1" stroke-linecap="round"/>
<line x1="12" y1="2.5" x2="12" y2="5" stroke="#2582C1" stroke-linecap="round"/>
<line x1="10" y1="2.5" x2="10" y2="5" stroke="#2582C1" stroke-linecap="round"/>
<line x1="8" y1="2.5" x2="8" y2="5" stroke="#2582C1" stroke-linecap="round"/>
<line x1="12" y1="15" x2="12" y2="17.5112" stroke="#2582C1" stroke-linecap="round"/>
<line x1="10" y1="15" x2="10" y2="17.5112" stroke="#2582C1" stroke-linecap="round"/>
<line x1="8" y1="15" x2="8" y2="17.5112" stroke="#2582C1" stroke-linecap="round"/>
<line x1="15" y1="8" x2="17.501" y2="8" stroke="#2582C1" stroke-linecap="round"/>
<line x1="15" y1="10" x2="17.501" y2="10" stroke="#2582C1" stroke-linecap="round"/>
<line x1="15" y1="12" x2="17.501" y2="12" stroke="#2582C1" stroke-linecap="round"/>
<rect x="5" y="5" width="10" height="10" rx="1.5" stroke="#2582C1"/>
</svg>
