<svg width="24" height="25" viewBox="0 0 24 25" fill="none" xmlns="http://www.w3.org/2000/svg">
<path d="M21 13.2966C20.7709 13.0373 20.52 12.7982 20.25 12.5819V12.2346C20.1716 12.2915 20.0918 12.3465 20.0107 12.3996C19.7848 12.2363 19.5477 12.089 19.3013 11.9586C19.6437 11.7658 19.9622 11.5332 20.25 11.2656V7.74063C18.8603 8.93313 15.69 9.76562 12 9.76562C8.31 9.76562 5.13975 8.93313 3.75 7.74137V11.2656C5.115 12.5684 8.20425 13.4849 11.8162 13.5149C11.6295 13.7474 11.46 13.9949 11.3085 14.2551C8.1555 14.1606 5.3715 13.4129 3.75 12.2346V15.0156C3.75 16.3326 6.654 17.6856 10.5405 17.9631C10.5705 18.2234 10.617 18.4776 10.6785 18.7259C7.566 18.5346 4.971 17.6796 3.75 16.5156V18.9726L3.85425 19.1864C4.53675 20.5866 7.959 21.7656 12 21.7656C12.1755 21.7656 12.3503 21.7634 12.5235 21.7589C12.8243 22.0251 13.152 22.2614 13.5015 22.4639C13.0133 22.4976 12.5115 22.5156 12 22.5156C7.64625 22.5156 4.014 21.2271 3.18 19.5156L3 18.7656V6.43863V6.39062C3 4.52688 7.02975 3.01562 12 3.01562C16.9703 3.01562 21 4.52688 21 6.39062V13.2966ZM12 9.01562C16.581 9.01562 20.25 7.63937 20.25 6.39062C20.25 5.14188 16.581 3.76562 12 3.76562C7.419 3.76562 3.75 5.14188 3.75 6.39062C3.75 7.63937 7.419 9.01562 12 9.01562ZM16.875 15.1334V20.1171C16.875 20.2166 16.8355 20.312 16.7652 20.3823C16.6948 20.4526 16.5995 20.4921 16.5 20.4921C16.4005 20.4921 16.3052 20.4526 16.2348 20.3823C16.1645 20.312 16.125 20.2166 16.125 20.1171V15.1034L14.4015 16.6424C14.3273 16.7086 14.2298 16.7427 14.1305 16.737C14.0312 16.7314 13.9382 16.6866 13.872 16.6124C13.8058 16.5382 13.7717 16.4407 13.7773 16.3414C13.783 16.2421 13.8278 16.1491 13.902 16.0829L16.1649 14.0624C16.3583 13.8897 16.6517 13.8935 16.8405 14.0712L18.9855 16.0896C19.023 16.1229 19.0534 16.1634 19.0749 16.2087C19.0965 16.254 19.1087 16.3031 19.1109 16.3532C19.1132 16.4033 19.1053 16.4533 19.0879 16.5003C19.0705 16.5473 19.0438 16.5903 19.0094 16.6268C18.9751 16.6633 18.9337 16.6926 18.8879 16.7129C18.842 16.7331 18.7926 16.744 18.7424 16.7448C18.6923 16.7456 18.6425 16.7364 18.596 16.7176C18.5495 16.6989 18.5073 16.671 18.4718 16.6356L16.875 15.1334ZM16.5 22.5156C15.8106 22.5156 15.1279 22.3798 14.4909 22.116C13.854 21.8522 13.2752 21.4654 12.7877 20.9779C12.3002 20.4904 11.9135 19.9117 11.6496 19.2747C11.3858 18.6378 11.25 17.9551 11.25 17.2656C11.25 16.5762 11.3858 15.8935 11.6496 15.2565C11.9135 14.6196 12.3002 14.0408 12.7877 13.5533C13.2752 13.0658 13.854 12.6791 14.4909 12.4153C15.1279 12.1514 15.8106 12.0156 16.5 12.0156C17.8924 12.0156 19.2277 12.5687 20.2123 13.5533C21.1969 14.5379 21.75 15.8732 21.75 17.2656C21.75 18.658 21.1969 19.9934 20.2123 20.9779C19.2277 21.9625 17.8924 22.5156 16.5 22.5156ZM16.5 21.7656C17.0909 21.7656 17.6761 21.6492 18.2221 21.4231C18.768 21.1969 19.2641 20.8655 19.682 20.4476C20.0998 20.0297 20.4313 19.5337 20.6575 18.9877C20.8836 18.4417 21 17.8566 21 17.2656C21 16.6747 20.8836 16.0895 20.6575 15.5435C20.4313 14.9976 20.0998 14.5015 19.682 14.0836C19.2641 13.6658 18.768 13.3343 18.2221 13.1082C17.6761 12.882 17.0909 12.7656 16.5 12.7656C15.3065 12.7656 14.1619 13.2397 13.318 14.0836C12.4741 14.9276 12 16.0722 12 17.2656C12 18.4591 12.4741 19.6037 13.318 20.4476C14.1619 21.2915 15.3065 21.7656 16.5 21.7656Z" fill="#62B0E5"/>
</svg>
