<svg width="24" height="25" viewBox="0 0 24 25" fill="none" xmlns="http://www.w3.org/2000/svg">
<path d="M20.9189 18.8514H12.7954C12.5989 17.8599 11.7405 17.1122 10.713 17.1122C9.68409 17.1122 8.82575 17.8599 8.6287 18.8514H3.05709C2.82239 18.8514 2.63188 19.046 2.63188 19.2865C2.63188 19.527 2.82242 19.7217 3.05709 19.7217H8.62825C8.82529 20.7132 9.68363 21.4609 10.7125 21.4609C11.7405 21.4609 12.5989 20.7132 12.795 19.7217H20.9184C21.1531 19.7217 21.3436 19.527 21.3436 19.2865C21.3436 19.046 21.1536 18.8514 20.9189 18.8514ZM10.7125 20.5896C10.0075 20.5896 9.43592 20.0066 9.43592 19.2865C9.43592 18.5664 10.0075 17.9824 10.7125 17.9824C11.4166 17.9824 11.9877 18.5664 11.9877 19.2865C11.9877 20.0066 11.4166 20.5896 10.7125 20.5896ZM3.05705 6.67791H5.2264C5.42344 7.67033 6.28088 8.41711 7.30931 8.41711C8.33774 8.41711 9.19563 7.66987 9.39267 6.67791H20.9184C21.1531 6.67791 21.3436 6.48374 21.3436 6.24322C21.3436 6.00318 21.1531 5.80807 20.9184 5.80807H9.39315C9.1961 4.81657 8.33867 4.06934 7.30978 4.06934C6.2809 4.06934 5.42392 4.81705 5.22688 5.80853H3.05705C2.82235 5.80853 2.63184 6.00363 2.63184 6.24368C2.63184 6.48418 2.82237 6.67789 3.05705 6.67789M7.30978 4.93916C8.01431 4.93916 8.58545 5.52358 8.58545 6.24368C8.58545 6.96377 8.01429 7.54774 7.30978 7.54774C6.60478 7.54774 6.03364 6.96379 6.03364 6.24368C6.03364 5.52358 6.60526 4.93916 7.30978 4.93916ZM20.9189 12.3302H19.5995C19.4025 11.3378 18.545 10.5905 17.5166 10.5905C16.4882 10.5905 15.6298 11.3378 15.4332 12.3302H3.05707C2.82237 12.3302 2.63186 12.5244 2.63186 12.7644C2.63186 13.0049 2.82239 13.1996 3.05707 13.1996H15.4328C15.6298 14.1915 16.4877 14.9388 17.5161 14.9388C18.5446 14.9388 19.4025 14.1911 19.599 13.1996H20.9184C21.1531 13.1996 21.3436 13.0049 21.3436 12.7644C21.3441 12.5244 21.1535 12.3302 20.9189 12.3302M17.5166 14.0689C16.8112 14.0689 16.2409 13.485 16.2409 12.7644C16.2409 12.0443 16.8116 11.4599 17.5166 11.4599C18.2216 11.4599 18.7923 12.0443 18.7923 12.7644C18.7923 13.485 18.2211 14.0689 17.5166 14.0689Z" fill="#62B0E5"/>
</svg>
