<svg width="24" height="25" viewBox="0 0 24 25" fill="none" xmlns="http://www.w3.org/2000/svg">
<path d="M21.2334 10.4726H12.0837C11.6823 10.4726 11.3559 10.799 11.3559 11.2004C11.3559 11.6018 11.6823 11.9283 12.0837 11.9283H21.2334C21.6348 11.9283 21.9612 11.6018 21.9612 11.2004C21.9612 10.799 21.6348 10.4726 21.2334 10.4726ZM21.2334 15.0897H12.0837C11.6828 15.0897 11.3559 15.4129 11.3559 15.8175C11.3559 16.2189 11.6823 16.5454 12.0837 16.5454H21.2334C21.6348 16.5454 21.9612 16.2189 21.9612 15.8175C21.9612 15.4162 21.6348 15.0897 21.2334 15.0897ZM21.2334 19.704H12.0837C11.6823 19.704 11.3559 20.0305 11.3559 20.4318C11.3559 20.8332 11.6823 21.1597 12.0837 21.1597H21.2334C21.6348 21.1597 21.9612 20.8332 21.9612 20.4318C21.9612 20.0305 21.6348 19.704 21.2334 19.704Z" fill="#061926" stroke="#061926" stroke-width="0.3"/>
<path d="M3.3379 12.5514H9.1079C9.53552 12.5514 9.87803 12.2043 9.87803 11.7784V6.01124C9.87803 5.58777 9.53508 5.24111 9.1079 5.24111H3.3379C2.91073 5.24111 2.56777 5.58777 2.56777 6.01124V11.7812C2.56777 12.2047 2.91073 12.5514 3.3379 12.5514ZM8.33778 6.78137V11.0111H4.10803V6.78137H8.33778ZM3.3379 21.78H9.1079C9.53419 21.78 9.87803 21.437 9.87803 21.0127V15.2427C9.87803 14.8192 9.53508 14.4726 9.1079 14.4726H3.3379C2.91073 14.4726 2.56777 14.8192 2.56777 15.2427V21.0099C2.56777 21.4333 2.91073 21.78 3.3379 21.78ZM8.33778 16.0128V20.2397H4.10803V16.0128H8.33778Z" fill="#061926" stroke="#061926" stroke-width="0.3"/>
<path d="M21.2334 5.85928H12.0837C11.6823 5.85928 11.3559 6.18576 11.3559 6.58712C11.3559 6.98849 11.6823 7.31497 12.0837 7.31497H21.2334C21.6348 7.31497 21.9612 6.98849 21.9612 6.58712C21.9612 6.18576 21.6348 5.85928 21.2334 5.85928Z" fill="#061926" stroke="#061926" stroke-width="0.3"/>
</svg>
