<svg width="20" height="21" viewBox="0 0 20 21" fill="none" xmlns="http://www.w3.org/2000/svg">
<path d="M1.77225 17.3387V3.47634C1.77225 2.89266 2.25223 2.41927 2.84161 2.41927H14.5092C15.0986 2.41927 15.5786 2.89436 15.5786 3.47634V8.29849H16.2844V3.47634C16.2844 2.5075 15.4886 1.72021 14.5092 1.72021H2.84161C1.86225 1.72021 1.06641 2.5075 1.06641 3.47634V17.3387C1.06641 18.3076 1.86225 19.0949 2.84161 19.0949H12.3776V18.3958H2.84161C2.25223 18.3958 1.77225 17.9224 1.77225 17.3387Z" fill="#62B0E5"/>
<path d="M1.77225 17.3387V3.47634C1.77225 2.89266 2.25223 2.41927 2.84161 2.41927H14.5092C15.0986 2.41927 15.5786 2.89436 15.5786 3.47634V8.29849H16.2844V3.47634C16.2844 2.5075 15.4886 1.72021 14.5092 1.72021H2.84161C1.86225 1.72021 1.06641 2.5075 1.06641 3.47634V17.3387C1.06641 18.3076 1.86225 19.0949 2.84161 19.0949H12.3776V18.3958H2.84161C2.25223 18.3958 1.77225 17.9224 1.77225 17.3387Z" stroke="#62B0E5"/>
<path d="M3.27051 5.01855H11.1513V5.69725H3.27051V5.01855ZM3.27051 7.63324H13.2441V8.31193H3.27051V7.63324ZM3.27051 10.2564H7.38912V10.9351H3.27051V10.2564ZM17.6027 10.1088C16.7098 9.25023 15.5205 8.77684 14.257 8.77684C12.9935 8.77684 11.8042 9.25023 10.9113 10.1088C10.0184 10.9673 9.52606 12.1109 9.52606 13.3258C9.52606 14.5407 10.0184 15.6843 10.9113 16.5428C11.8042 17.4014 12.9935 17.8748 14.257 17.8748C15.5205 17.8748 16.7098 17.4014 17.6027 16.5428C18.4956 15.6843 18.9879 14.5407 18.9879 13.3258C18.9897 12.1109 18.4974 10.9673 17.6027 10.1088ZM14.257 17.1978C12.0371 17.1978 10.2301 15.4603 10.2301 13.3258C10.2301 11.1913 12.0371 9.45384 14.257 9.45384C16.4769 9.45384 18.2838 11.1913 18.2838 13.3258C18.2838 15.4603 16.4769 17.1978 14.257 17.1978Z" fill="#62B0E5"/>
<path d="M3.27051 5.01855H11.1513V5.69725H3.27051V5.01855ZM3.27051 7.63324H13.2441V8.31193H3.27051V7.63324ZM3.27051 10.2564H7.38912V10.9351H3.27051V10.2564ZM17.6027 10.1088C16.7098 9.25023 15.5205 8.77684 14.257 8.77684C12.9935 8.77684 11.8042 9.25023 10.9113 10.1088C10.0184 10.9673 9.52606 12.1109 9.52606 13.3258C9.52606 14.5407 10.0184 15.6843 10.9113 16.5428C11.8042 17.4014 12.9935 17.8748 14.257 17.8748C15.5205 17.8748 16.7098 17.4014 17.6027 16.5428C18.4956 15.6843 18.9879 14.5407 18.9879 13.3258C18.9897 12.1109 18.4974 10.9673 17.6027 10.1088ZM14.257 17.1978C12.0371 17.1978 10.2301 15.4603 10.2301 13.3258C10.2301 11.1913 12.0371 9.45384 14.257 9.45384C16.4769 9.45384 18.2838 11.1913 18.2838 13.3258C18.2838 15.4603 16.4769 17.1978 14.257 17.1978Z" stroke="#62B0E5"/>
<path d="M16.7873 11.6051C16.655 11.4847 16.4468 11.4898 16.3215 11.617L13.5775 14.3929L12.2117 13.1458C12.0793 13.0253 11.8711 13.0304 11.7458 13.1577C11.6205 13.2849 11.6258 13.4851 11.7582 13.6056L13.2952 15.0088C13.3375 15.0461 13.3869 15.0733 13.4416 15.0869C13.4928 15.1174 13.551 15.1327 13.6128 15.1327H13.6216C13.7098 15.131 13.791 15.0953 13.851 15.0343L16.7979 12.0531C16.8579 11.992 16.8897 11.9122 16.8879 11.8274C16.8879 11.7409 16.8508 11.6628 16.7873 11.6051Z" fill="#62B0E5"/>
<path d="M16.7873 11.6051C16.655 11.4847 16.4468 11.4898 16.3215 11.617L13.5775 14.3929L12.2117 13.1458C12.0793 13.0253 11.8711 13.0304 11.7458 13.1577C11.6205 13.2849 11.6258 13.4851 11.7582 13.6056L13.2952 15.0088C13.3375 15.0461 13.3869 15.0733 13.4416 15.0869C13.4928 15.1174 13.551 15.1327 13.6128 15.1327H13.6216C13.7098 15.131 13.791 15.0953 13.851 15.0343L16.7979 12.0531C16.8579 11.992 16.8897 11.9122 16.8879 11.8274C16.8879 11.7409 16.8508 11.6628 16.7873 11.6051Z" stroke="#62B0E5"/>
</svg>
