<svg width="22" height="23" viewBox="0 0 22 23" fill="none" xmlns="http://www.w3.org/2000/svg">
<g clip-path="url(#clip0_701_38333)">
<path d="M11.0055 12.7015C10.9008 12.7002 10.7976 12.6768 10.7026 12.6328L1.06908 7.77461C0.951974 7.7207 0.852779 7.63435 0.783246 7.5258C0.713714 7.41724 0.676758 7.29103 0.676758 7.16212C0.676758 7.0332 0.713714 6.90699 0.783246 6.79844C0.852779 6.68988 0.951974 6.60354 1.06908 6.54963L10.7028 1.69148C10.7968 1.64423 10.9005 1.61963 11.0057 1.61963C11.1109 1.61963 11.2146 1.64423 11.3086 1.69148L20.9424 6.54963C21.0521 6.60316 21.1456 6.68489 21.2133 6.78645C21.281 6.88801 21.3205 7.00575 21.3278 7.12761C21.3278 7.25482 21.2932 7.37965 21.2277 7.48873C21.1623 7.59781 21.0684 7.68703 20.9561 7.74685L11.3221 12.6328C11.2217 12.675 11.1146 12.6984 11.0055 12.7015V12.7015ZM2.89954 7.12761L11.0057 11.2565L19.1119 7.12761L11.0055 2.99899L2.89954 7.12761Z" fill="#62B0E5"/>
<path d="M11.0056 17.4774C10.9065 17.5044 10.8019 17.5044 10.7028 17.4774L1.06925 12.633C0.906451 12.5518 0.782341 12.4095 0.723963 12.2372C0.665585 12.0649 0.677671 11.8765 0.757587 11.7131C0.837503 11.5497 0.978771 11.4244 1.15061 11.3647C1.32245 11.305 1.51093 11.3156 1.67498 11.3942L11.0059 16.0323L20.337 11.3255C20.5013 11.2451 20.6907 11.2334 20.8637 11.2927C21.0367 11.3521 21.1789 11.4777 21.2593 11.642C21.3396 11.8062 21.3514 11.9957 21.292 12.1686C21.2327 12.3416 21.107 12.4839 20.9428 12.5642L11.309 17.4086C11.2158 17.4585 11.1111 17.4824 11.0056 17.4774V17.4774Z" fill="#62B0E5"/>
<path d="M11.0062 22.3353C10.9015 22.3338 10.7983 22.3104 10.7033 22.2665L1.06976 17.4084C0.9823 17.372 0.903281 17.318 0.837643 17.2498C0.772005 17.1815 0.721161 17.1004 0.688292 17.0116C0.655424 16.9228 0.641237 16.8282 0.646621 16.7336C0.652004 16.6391 0.676842 16.5466 0.71958 16.4621C0.762318 16.3776 0.822036 16.3028 0.894998 16.2425C0.967961 16.1821 1.0526 16.1374 1.14361 16.1113C1.23463 16.0851 1.33006 16.078 1.42395 16.0904C1.51784 16.1028 1.60815 16.1345 1.68924 16.1834L11.0064 20.8902L20.3373 16.1971C20.4174 16.1548 20.5052 16.1291 20.5955 16.1214C20.6857 16.1138 20.7766 16.1244 20.8627 16.1527C20.9488 16.181 21.0282 16.2263 21.0964 16.286C21.1646 16.3456 21.22 16.4184 21.2594 16.5C21.341 16.6625 21.355 16.8507 21.2983 17.0235C21.2416 17.1962 21.1188 17.3396 20.9568 17.4221L11.3228 22.2665C11.2224 22.3087 11.1152 22.3321 11.0062 22.3353V22.3353Z" fill="#62B0E5"/>
</g>
<defs>
<clipPath id="clip0_701_38333">
<rect width="22" height="22" fill="white" transform="translate(0 0.984375)"/>
</clipPath>
</defs>
</svg>
