<svg width="24" height="25" viewBox="0 0 24 25" fill="none" xmlns="http://www.w3.org/2000/svg">
<path d="M2.82069 14.5911C2.81249 14.5915 2.80452 14.5918 2.79655 14.5918C2.54858 14.5918 2.34163 14.397 2.32874 14.1462L4.50116 9.40856C3.68577 10.6859 3.25475 12.1657 3.25475 13.6887C3.25475 13.8251 3.25827 13.9632 3.26506 14.0991C3.27819 14.3579 3.07921 14.5779 2.82069 14.5911ZM2.82069 14.5911L2.82576 14.6909C3.13939 14.675 3.38082 14.408 3.36494 14.0941C3.35822 13.9598 3.35475 13.8234 3.35475 13.6887C3.35475 12.1847 3.78037 10.7236 4.58544 9.46237C5.36984 8.23381 6.47567 7.24813 7.7835 6.61192C8.06586 6.47457 8.18362 6.1342 8.04624 5.85177C7.9089 5.5694 7.56852 5.45164 7.28609 5.58902L7.28608 5.58902C5.78962 6.31711 4.52428 7.44477 3.6268 8.85012L3.71108 8.90395L3.6268 8.85013C2.70453 10.2943 2.21725 11.9677 2.21725 13.6885C2.21725 13.8423 2.22128 13.9979 2.22886 14.1512L2.22887 14.1513C2.2445 14.4554 2.49544 14.6918 2.79655 14.6918C2.80651 14.6918 2.81638 14.6915 2.8264 14.6909L2.82069 14.5911ZM15.6989 5.58902L15.6989 5.58902L20.1884 14.6918C20.4895 14.6918 20.7405 14.4554 20.7561 14.1513L20.7561 14.1512C20.7637 13.9979 20.7677 13.8423 20.7677 13.6885C20.7677 11.9677 20.2804 10.2943 19.3582 8.85012C18.4607 7.44477 17.1954 6.31711 15.6989 5.58902ZM6.60859 20.3866L6.60856 20.3867C6.43404 20.6479 6.50389 21.0011 6.76502 21.1757C8.24662 22.1672 9.97599 22.6912 11.7655 22.6912C13.5241 22.6912 15.2283 22.1838 16.6934 21.2239C16.9562 21.0518 17.0295 20.6991 16.8575 20.4364C16.6854 20.1736 16.3328 20.1003 16.0701 20.2723L16.07 20.2723C14.7908 21.1105 13.3023 21.5537 11.7655 21.5537C10.2015 21.5537 8.69136 21.096 7.39751 20.2302C7.13668 20.0556 6.78321 20.1255 6.60859 20.3866ZM19.62 14.0941C19.6041 14.4079 19.8454 14.6748 20.1589 14.6909L19.62 14.094C19.62 14.0941 19.62 14.0941 19.62 14.0941ZM8.96452 4.9402C8.96452 6.48464 10.221 7.74113 11.7655 7.74113C13.3099 7.74113 14.5664 6.48464 14.5664 4.9402C14.5664 3.39575 13.3099 2.13926 11.7655 2.13926C10.221 2.13926 8.96452 3.39575 8.96452 4.9402ZM10.102 4.9402C10.102 4.023 10.8483 3.27676 11.7655 3.27676C12.6827 3.27676 13.4289 4.023 13.4289 4.9402C13.4289 5.85739 12.6827 6.60363 11.7655 6.60363C10.8483 6.60363 10.102 5.85739 10.102 4.9402Z" fill="#303133" stroke="#303133" stroke-width="0.2"/>
<path d="M1.54551 17.9539C1.54551 19.4983 2.802 20.7548 4.34645 20.7548C5.89113 20.7548 7.14738 19.4985 7.14738 17.9539C7.14738 16.4094 5.89089 15.1529 4.34645 15.1529C2.802 15.1529 1.54551 16.4094 1.54551 17.9539ZM2.68301 17.9539C2.68301 17.0367 3.42925 16.2904 4.34645 16.2904C5.26364 16.2904 6.00988 17.0367 6.00988 17.9539C6.00988 18.8711 5.26364 19.6173 4.34645 19.6173C3.42925 19.6173 2.68301 18.8711 2.68301 17.9539Z" fill="#303133" stroke="#303133" stroke-width="0.2"/>
<path d="M16.2262 17.9539C16.2262 19.4983 17.4827 20.7548 19.0271 20.7548C20.5718 20.7548 21.828 19.4985 21.828 17.9539C21.828 16.4094 20.5716 15.1529 19.0271 15.1529C17.4827 15.1529 16.2262 16.4094 16.2262 17.9539ZM17.3637 17.9539C17.3637 17.0367 18.1099 16.2904 19.0271 16.2904C19.9443 16.2904 20.6905 17.0367 20.6905 17.9539C20.6905 18.8711 19.9443 19.6173 19.0271 19.6173C18.1099 19.6173 17.3637 18.8711 17.3637 17.9539Z" fill="#303133" stroke="#303133" stroke-width="0.2"/>
</svg>
