<svg width="105" height="19" viewBox="0 0 105 19" fill="none" xmlns="http://www.w3.org/2000/svg">
<path d="M2.98428 0.965399C1.46877 1.16283 0.606386 1.86975 0.225923 3.22628L0.0800781 3.7294V9.65226C0.0800781 15.0656 0.0864192 15.6133 0.187876 16.0082C0.51127 17.2501 1.22147 17.9697 2.43261 18.2818C2.89551 18.4028 3.14281 18.4092 7.16305 18.4092H11.3989V17.3265V16.2502L7.2645 16.2311C2.75601 16.212 2.95258 16.2247 2.60382 15.849C2.25506 15.4796 2.26774 15.6898 2.26774 9.67137V4.11152L2.42627 3.77398C2.55943 3.48739 2.62919 3.41734 2.91453 3.28359L3.25061 3.12438H7.32791H11.3989V2.00986V0.895344L7.39132 0.901712C5.18463 0.908081 3.19988 0.933556 2.98428 0.965399Z" fill="#D3E9F9"/>
<path d="M43.5039 8.32758C43.5229 15.2758 43.5292 15.7917 43.637 16.1483C43.9921 17.3329 44.7721 18.0653 45.9452 18.32C46.2749 18.3837 47.0041 18.4092 49.1664 18.4092C51.7219 18.4092 52.0009 18.3964 52.4384 18.2882C53.6686 17.9697 54.3534 17.2883 54.6895 16.0528C54.791 15.6834 54.8037 15.2949 54.8037 12.2316C54.8037 9.16824 54.791 8.77975 54.6895 8.41037C54.3788 7.25764 53.751 6.58893 52.6223 6.19407C52.375 6.11128 51.8804 6.09218 49.4328 6.07307L46.5286 6.0476V7.13027V8.21294L49.1474 8.23205L51.7599 8.25115L52.0516 8.42311C52.597 8.74791 52.5843 8.63964 52.6033 12.1615L52.6223 15.2503L52.4638 15.5751C52.3433 15.8108 52.2292 15.9445 52.0326 16.0591L51.7599 16.212H49.1601H46.5603L46.2813 16.0528C46.0784 15.9381 45.9515 15.8044 45.8374 15.5751L45.6725 15.2631L45.6535 8.0792L45.6408 0.895344H44.5565H43.4785L43.5039 8.32758Z" fill="#D3E9F9"/>
<path d="M14.3791 7.13664V8.21294L18.0126 8.23205L21.6397 8.25115L21.9187 8.41037C22.1216 8.52501 22.2484 8.65875 22.3625 8.88802L22.5274 9.20009V12.2316V15.2631L22.3625 15.5751C22.2484 15.8044 22.1216 15.9381 21.9187 16.0528L21.6397 16.212H19.0398H16.44L16.1483 16.04C15.7425 15.798 15.622 15.5305 15.5966 14.8109C15.5713 14.0721 15.7108 13.7537 16.1863 13.5053L16.4971 13.3461L19.0842 13.327L21.6714 13.3079V12.2316V11.1489H18.9954C16.0532 11.1489 15.7805 11.1744 15.0323 11.5247C13.8909 12.0596 13.2885 13.3716 13.3899 15.0656C13.4533 16.1929 13.726 16.9316 14.284 17.4921C14.6772 17.8869 15.1084 18.1162 15.7615 18.2882C16.199 18.3964 16.478 18.4092 19.0335 18.4092C22.0835 18.4092 22.3562 18.3837 23.0474 18.0462C23.4976 17.8296 24.0746 17.2692 24.2902 16.8425C24.677 16.0719 24.6834 16.0337 24.6834 12.2316C24.6834 9.05998 24.6707 8.72244 24.5692 8.34669C24.2332 7.14938 23.4405 6.39787 22.2547 6.14313C21.9187 6.07307 21.069 6.05396 18.1077 6.05396H14.3791V7.13664Z" fill="#D3E9F9"/>
<path d="M26.9355 12.2316V18.4092H28.0135H29.0915V13.3142V8.21931H31.0572H33.023V13.3142V18.4092H34.1009H35.1789V13.3142V8.21931H36.593C38.1529 8.21931 38.4446 8.27026 38.7489 8.58869C39.1167 8.97081 39.1104 8.90713 39.1104 13.862V18.4092H40.1884H41.2663V13.6454C41.2663 9.10456 41.26 8.85618 41.1395 8.3849C40.981 7.76077 40.7591 7.34044 40.3723 6.95195C39.9855 6.56346 39.5669 6.34056 38.9455 6.18134C38.4763 6.06033 38.229 6.05396 32.6932 6.05396H26.9355V12.2316Z" fill="#D3E9F9"/>
<path d="M59.3633 6.18134C58.1648 6.4934 57.4609 7.20033 57.1375 8.42311C57.0424 8.77975 57.0297 9.37204 57.0107 13.6136L56.9854 18.4092H58.095H59.2111V13.8046C59.2111 9.48031 59.2237 9.19372 59.3315 8.95171C59.471 8.63328 59.7691 8.37216 60.0861 8.283C60.213 8.25115 60.7583 8.21931 61.2909 8.21931H62.2548V7.13664V6.05396L61.0373 6.06033C60.0544 6.06033 59.7247 6.08581 59.3633 6.18134Z" fill="#D3E9F9"/>
<path d="M64.3477 12.2316V18.4092H65.4573H66.567V12.2316V6.05396H65.4573H64.3477V12.2316Z" fill="#D3E9F9"/>
<path d="M71.3355 6.18134C71.0819 6.25139 70.7331 6.37877 70.5556 6.4743C70.1434 6.70357 69.579 7.30859 69.3825 7.73529C69.0591 8.44221 69.04 8.69059 69.04 12.2316C69.04 15.7726 69.0591 16.0209 69.3825 16.7279C69.5981 17.2055 70.1751 17.7914 70.6507 18.0271C71.3799 18.3901 71.6082 18.4092 75.1148 18.4092H78.298V17.3265V16.2438H75.3304C71.9696 16.2438 71.8618 16.2311 71.5194 15.8235C71.4179 15.6961 71.3038 15.4669 71.2658 15.314C71.2214 15.1357 71.196 14.0403 71.196 12.2125C71.196 9.11093 71.215 8.91987 71.5638 8.58233C71.9252 8.23205 72.0837 8.21931 75.3304 8.21931H78.298V7.13664V6.05396L75.0514 6.06033C72.0584 6.06033 71.7604 6.07307 71.3355 6.18134Z" fill="#D3E9F9"/>
<path d="M82.44 6.18245C81.3494 6.46904 80.6772 7.0868 80.3158 8.13763L80.1699 8.5707V12.2008C80.1699 15.7928 80.1699 15.8373 80.3158 16.2895C80.6075 17.2321 81.2796 17.9135 82.2181 18.232C82.6303 18.3721 82.7254 18.3784 85.5662 18.3976C88.0075 18.4103 88.5655 18.3976 88.9586 18.3211C90.2332 18.0536 91.0639 17.2257 91.3302 15.9584C91.4634 15.3151 91.4697 9.16298 91.3302 8.52612C91.197 7.87014 90.918 7.34155 90.4868 6.93395C90.0493 6.51362 89.7386 6.34166 89.0981 6.17608C88.6543 6.06781 88.3816 6.05507 85.7564 6.06144C83.1692 6.06144 82.8522 6.07418 82.44 6.18245ZM88.6035 8.38601C88.8889 8.53249 89.1108 8.82544 89.2059 9.16935C89.244 9.30946 89.2693 10.5322 89.2693 12.2391C89.2693 15.3533 89.2503 15.5444 88.9016 15.8819C88.5528 16.2195 88.3245 16.2449 85.7818 16.2449C83.1502 16.2449 82.96 16.2195 82.6176 15.831C82.5161 15.71 82.3956 15.5062 82.3639 15.3724C82.3195 15.2196 82.2942 14.0605 82.2942 12.2327C82.2942 10.4049 82.3195 9.24578 82.3639 9.09293C82.3956 8.95919 82.5161 8.75539 82.6176 8.63439C82.9663 8.23953 83.0551 8.22679 85.8452 8.23953C88.2484 8.25226 88.3626 8.25863 88.6035 8.38601Z" fill="#D3E9F9"/>
<path d="M93.6436 12.2316V18.4092H94.7215H95.7995V13.3142V8.21931H98.7354C100.555 8.21931 101.754 8.24479 101.9 8.283C102.217 8.37216 102.515 8.63328 102.654 8.95171C102.762 9.19372 102.775 9.48031 102.775 13.8046V18.4092H103.891H105L104.975 13.6136C104.95 8.33395 104.962 8.46132 104.544 7.63976C104.17 6.88826 103.548 6.42335 102.597 6.17497C102.147 6.06033 101.868 6.05396 97.8794 6.05396H93.6436V12.2316Z" fill="#D3E9F9"/>
</svg>
