<svg width="80" height="33" viewBox="0 0 80 33" fill="none" xmlns="http://www.w3.org/2000/svg">
<path d="M3.76644 3.8848C-0.697728 8.19438 -0.838184 15.3227 3.45272 19.8063C6.12726 22.6009 9.89214 23.7085 13.4301 23.1027L8.04465 30.2904L10.5038 32.149L24.6435 13.2776C24.9106 15.6484 25.9271 17.9532 27.7005 19.8063C31.9914 24.2899 39.0888 24.431 43.553 20.1214C43.7634 19.9183 43.9642 19.7089 44.1553 19.4939L44.1575 19.4956L44.1803 19.4657C44.542 19.0561 44.869 18.626 45.1612 18.1794L48.9298 13.2372C49.1899 15.6222 50.2079 17.9427 51.9913 19.8063C56.2822 24.2899 63.3796 24.431 67.8438 20.1214C68.1601 19.8161 68.4546 19.4966 68.7275 19.1649L68.7322 19.1686L68.8689 18.9895C68.9458 18.8921 69.0209 18.7937 69.0941 18.6943L79.0968 5.58654L76.654 3.7062L71.2246 10.821C70.9737 8.41772 69.954 6.07702 68.1576 4.19988C63.8666 -0.28372 56.7692 -0.424787 52.3051 3.8848C51.667 4.50073 51.1173 5.17425 50.6562 5.8894L46.9291 10.7771C46.6705 8.38921 45.6523 6.06558 43.8667 4.19988C39.5758 -0.28372 32.4784 -0.424787 28.0143 3.8848C27.4397 4.43943 26.9368 5.04075 26.5057 5.6771L26.4934 5.66779L22.6793 10.7584C22.4173 8.37705 21.3997 6.06068 19.6189 4.19988C15.328 -0.28372 8.23062 -0.424787 3.76644 3.8848Z" fill="#B9DBF2" fill-opacity="0.5"/>
</svg>
