<svg width="126" height="13" viewBox="0 0 126 13" fill="none" xmlns="http://www.w3.org/2000/svg">
<path d="M2.64582 6.4399C1.5296 9.67126 0.610352 12.441 0.610352 12.5729C0.610352 12.7048 1.89073 12.7707 3.43375 12.7378L6.28998 12.6388L7.14356 10.1659L7.99715 7.69288L10.5579 7.59396C11.9368 7.52801 13.0858 7.56098 13.0858 7.62693C13.0858 7.72585 12.7247 8.78099 12.2651 9.96802C11.8055 11.188 11.4443 12.3091 11.4443 12.474C11.4443 12.6718 12.1666 12.8037 13.053 12.8037H14.6617L16.5002 7.42909C17.5179 4.49448 18.5028 1.75771 18.667 1.32906C18.9624 0.636625 18.9296 0.603652 17.2553 0.603652H15.5153L14.6617 2.97772L13.8409 5.38476L11.313 5.48368C9.93413 5.54962 8.8179 5.51665 8.8179 5.4507C8.8179 5.31881 9.93413 2.05447 10.2953 1.1642C10.4922 0.669598 10.2624 0.603652 7.60319 0.603652H4.6813L2.64582 6.4399Z" fill="#D3E9F9"/>
<path d="M20.8675 1.32891C20.8018 1.75757 19.8826 4.46136 18.8649 7.33002C17.8471 10.1987 17.0264 12.6387 17.0264 12.7046C17.0264 12.7706 18.3067 12.7706 19.9154 12.7376L22.7717 12.6387L24.8071 6.8684C25.9234 3.70298 26.8426 0.999184 26.8754 0.834317C26.8754 0.702425 25.5622 0.603506 23.9535 0.603506C21.1958 0.603506 21.0317 0.636478 20.8675 1.32891Z" fill="#D3E9F9"/>
<path d="M30.9777 1.36186C29.2377 2.35105 27.7932 4.4943 27.7275 6.10999L27.6947 7.36297L32.2909 7.46189C34.8188 7.49486 37.0841 7.59378 37.3139 7.6927C37.8721 7.89054 36.9856 9.67109 36.0992 10.1657C35.7381 10.3305 33.3415 10.4954 30.7151 10.4954H25.9875L25.6264 11.3197C25.3966 11.7814 25.2324 12.3419 25.2324 12.5068C25.2324 12.7706 27.0709 12.8365 30.912 12.7376C35.377 12.6387 36.7558 12.5068 37.5766 12.0781C39.8419 10.8251 41.7132 7.59378 40.9581 6.17593C40.6955 5.61539 40.203 5.54945 37.2154 5.54945C34.0966 5.54945 33.7683 5.4835 33.7683 4.95593C33.7683 4.6262 34.1622 3.99971 34.6219 3.53808C35.377 2.81267 35.7709 2.74673 39.1853 2.64781L42.9279 2.51592L43.2562 1.5597L43.5845 0.603474H37.9377C32.6849 0.603474 32.1924 0.66942 30.9777 1.36186Z" fill="#D3E9F9"/>
<path d="M45.6209 1.32906C45.4567 1.75771 44.7345 3.86799 43.9794 6.04422C43.2243 8.22045 42.3707 10.5615 42.1081 11.254C41.8454 11.9134 41.6484 12.5729 41.6484 12.6388C41.6484 12.7378 42.9616 12.8037 44.5375 12.8037H47.4266L49.3635 7.13233C50.4469 3.99988 51.3662 1.26311 51.4318 1.0323C51.5303 0.702571 50.8409 0.603652 48.7069 0.603652C46.1133 0.603652 45.8835 0.669598 45.6209 1.32906Z" fill="#D3E9F9"/>
<path d="M52.5468 4.627C50.9053 9.24324 50.7412 10.9908 51.8246 11.8811C52.4812 12.4087 53.2363 12.4746 58.2593 12.4746C63.545 12.4746 63.9718 12.4416 64.3001 11.8481C64.9567 10.5951 64.7269 10.4962 61.214 10.4962C58.0952 10.4962 57.734 10.4303 57.2744 9.80379C56.8476 9.1773 56.9461 8.74865 58.2593 4.98971C59.0472 2.74753 59.7038 0.835093 59.7038 0.736174C59.7038 0.670228 58.4235 0.604281 56.8476 0.604281H53.9585L52.5468 4.627Z" fill="#D3E9F9"/>
<path d="M70.3759 0.99933C70.2775 1.23014 69.4239 3.7361 68.439 6.53882C67.4541 9.34153 66.5676 11.9134 66.4363 12.2102C66.2393 12.7378 66.4691 12.8037 69.1612 12.8037H72.0831L74.1186 6.93449C75.2348 3.7361 76.1212 0.99933 76.1212 0.834464C76.1212 0.405813 70.5401 0.570679 70.3759 0.99933Z" fill="#D3E9F9"/>
<path d="M80.5525 1.36249C78.8454 2.35169 77.3352 4.39602 76.4816 6.90198C75.4967 9.83659 75.5623 11.3204 76.6786 12.0458C77.4337 12.5404 78.4842 12.6723 83.0804 12.7382L88.5631 12.8701L89.0227 11.749L89.4823 10.6609L86.0023 10.562C84.131 10.529 82.3582 10.2982 82.1284 10.1004C81.5046 9.5728 81.6031 8.61658 82.5552 6.11062C83.7042 3.0771 84.1967 2.78034 88.6944 2.61547C92.1088 2.51655 92.2729 2.48358 92.5684 1.69223C92.7325 1.26357 92.8639 0.834924 92.8639 0.736004C92.8639 0.670058 90.4016 0.604112 87.3812 0.604112C82.2925 0.604112 81.7672 0.670058 80.5525 1.36249Z" fill="#D3E9F9"/>
<path d="M96.606 1.65667C95.3584 2.481 94.7675 3.23938 93.9467 4.88804C91.7799 9.20752 91.7143 11.4827 93.6841 12.34C95.0301 12.9005 100.611 12.9665 102.483 12.4389C105.01 11.7464 106.816 9.24049 107.67 5.25074C108.064 3.30533 107.637 1.45883 106.652 0.931262C106.324 0.733423 104.288 0.601531 102.121 0.601531C98.2475 0.601531 98.1818 0.601531 96.606 1.65667ZM104.026 3.17344L104.781 3.79992L104.058 6.20696C103.172 9.07563 101.99 10.4935 100.414 10.4935C99.1011 10.4935 98.1161 9.9659 98.1161 9.24049C98.1161 8.64698 99.1667 5.61345 99.8233 4.32749C100.184 3.56911 101.826 2.61289 102.745 2.57992C103.041 2.57992 103.632 2.8437 104.026 3.17344Z" fill="#D3E9F9"/>
<path d="M109.639 6.4399C108.523 9.67126 107.637 12.441 107.637 12.5729C107.637 12.7048 108.326 12.8037 109.18 12.7378L110.756 12.6388L112.036 9.04477L113.349 5.4507L114.433 8.55018C115.943 12.7048 116.041 12.8037 118.963 12.8037C120.473 12.8037 121.458 12.6388 121.655 12.3751C121.819 12.1772 122.542 10.3307 123.231 8.35234C123.888 6.34098 124.807 3.80205 125.234 2.64799L125.989 0.570679L124.282 0.669598L122.574 0.768517L121.425 3.96691C120.802 5.71449 120.178 7.23125 120.079 7.33017C119.981 7.42909 119.488 6.308 118.963 4.79124C117.519 0.537705 117.617 0.603652 114.4 0.603652H111.675L109.639 6.4399Z" fill="#D3E9F9"/>
</svg>
