<svg width="120" height="15" viewBox="0 0 120 15" fill="none" xmlns="http://www.w3.org/2000/svg">
<path d="M8.4983 1.06976C7.7545 2.03023 0.954102 14.125 0.954102 14.4808V14.8721H2.86671H4.81475L7.04613 10.9235L9.27751 6.97487L9.38377 10.9235L9.49002 14.8721H11.5089H13.5632L15.6883 11.1369L17.778 7.40175L17.8843 11.1369L17.9905 14.8721H20.2573H22.5595V7.75748V0.642889H19.9386H17.3176L15.582 3.70216L13.8819 6.79701L13.7757 3.70216L13.6694 0.642889H11.261H8.81707L8.4983 1.06976Z" fill="#D3E9F9"/>
<path d="M27.6949 0.891899C26.3844 1.24763 25.4635 2.10138 24.8968 3.5243L24.3301 4.91164V9.89186V14.8721H30.4929H36.6558L37.3996 13.6626C37.8246 13.0223 38.1434 12.3108 38.1434 12.0618V11.6705H33.3619H28.5803V8.32665V4.94722L29.147 4.41362L29.6783 3.84445H33.0077H36.3016L37.0454 2.63497C37.4704 1.99466 37.7892 1.2832 37.7892 1.03419V0.642889L33.1139 0.678462C30.5284 0.714035 28.0845 0.820754 27.6949 0.891899Z" fill="#D3E9F9"/>
<path d="M40.2686 7.75804V14.9082L45.5459 14.8015L50.8588 14.6948L51.8505 13.9477C52.3818 13.5209 53.161 12.6671 53.5506 11.9912L54.259 10.7817V7.75804V4.73434L53.4798 3.48929C53.0547 2.8134 52.1693 1.92408 51.5317 1.53277L50.3629 0.821314L45.3334 0.714595L40.2686 0.572303V7.75804ZM48.5565 4.20074L49.442 4.5209L49.8316 6.01497L50.2212 7.47346L50.0087 8.89637C49.867 9.67898 49.442 10.6394 49.0878 10.9952L48.4149 11.6711H46.2897H44.1646V7.75804V3.84501H45.9001C46.8564 3.84501 48.0607 3.98731 48.5565 4.20074Z" fill="#D3E9F9"/>
<path d="M56.207 7.75748V14.8721H58.3322H60.4573V7.75748V0.642889H58.3322H56.207V7.75748Z" fill="#D3E9F9"/>
<path d="M66.0892 6.40571C64.2829 9.60727 62.6536 12.2752 62.5119 12.3108C62.2286 12.4531 61.166 14.3029 61.166 14.6942C61.166 14.8009 62.1577 14.8721 63.3974 14.8721H65.6288L68.2498 10.2832L70.9062 5.65868L71.0124 10.2832L71.1187 14.8721H73.2084H75.3335V7.75748V0.642889H72.3583H69.3832L66.0892 6.40571Z" fill="#D3E9F9"/>
<path d="M77.5646 2.06581C77.1042 2.81284 76.75 3.5243 76.75 3.63102C76.75 3.77331 77.7771 3.84445 79.0522 3.84445H81.3544V9.35826V14.8721H83.4796H85.6047V9.35826V3.84445H87.3756H89.1466L89.8549 2.67055C90.2445 2.06581 90.5633 1.31878 90.5633 1.06976V0.642889H84.4713H78.3438L77.5646 2.06581Z" fill="#D3E9F9"/>
<path d="M93.5035 1.17648C92.866 1.46107 92.016 2.2081 91.6263 2.84841L90.918 4.02232V9.42941V14.8721H97.0454H103.137L103.952 13.4492C104.377 12.7021 104.731 11.9907 104.731 11.8839C104.731 11.7417 102.571 11.6705 99.9498 11.6705H95.1682V8.11321V4.59149L95.8412 4.20018C96.2308 4.02232 97.9309 3.84445 99.6664 3.84445H102.783L103.598 2.42154C104.023 1.6745 104.377 0.963045 104.377 0.856327C104.377 0.714035 102.181 0.642889 99.5247 0.642889L94.6369 0.678462L93.5035 1.17648Z" fill="#D3E9F9"/>
<path d="M106.147 7.75748V14.8721H108.273H110.398V7.75748V0.642889H108.273H106.147V7.75748Z" fill="#D3E9F9"/>
<path d="M113.834 4.23576L111.779 7.82863L113.763 11.3503L115.782 14.8721H117.871C119.005 14.8721 119.961 14.7654 119.961 14.6586C119.961 14.5519 119.076 12.9867 118.013 11.1725L116.065 7.82863L118.013 4.52034C119.076 2.67055 119.961 1.06976 119.961 0.891899C119.961 0.749608 119.04 0.642889 117.907 0.642889H115.852L113.834 4.23576Z" fill="#D3E9F9"/>
<path d="M30.1748 7.75726C29.8915 8.32642 29.6436 8.86002 29.6436 9.00231C29.6436 9.10903 31.0603 9.18018 32.8312 9.18018H35.9835L36.5502 8.11299C36.8336 7.54382 37.0815 7.01023 37.0815 6.86793C37.0815 6.76122 35.6647 6.69007 33.8938 6.69007H30.7415L30.1748 7.75726Z" fill="#D3E9F9"/>
<path d="M96.4082 7.75726C96.1249 8.32642 95.877 8.86002 95.877 9.00231C95.877 9.10903 97.2937 9.18018 99.0292 9.18018H102.181L102.925 7.93512L103.634 6.69007H100.304H96.9749L96.4082 7.75726Z" fill="#D3E9F9"/>
</svg>
