<svg width="88" height="18" viewBox="0 0 88 18" fill="none" xmlns="http://www.w3.org/2000/svg">
<path d="M0.339844 8.69587V16.6035H2.58654H4.83323V10.4691V4.33468L6.9328 4.35465C9.22721 4.37462 9.29084 4.37861 9.92309 4.62622C10.8735 4.99764 11.4381 5.88026 11.6528 7.32201C11.7642 8.08482 11.792 9.08726 11.792 12.8813V16.6035L13.9711 16.5955L16.1462 16.5835L16.1582 12.2703C16.1701 7.02248 16.1462 6.42342 15.8599 5.2812C15.6691 4.50242 15.4146 3.91533 15.0209 3.32026C14.2177 2.11814 12.9492 1.35134 11.1836 1.00787C10.1219 0.800199 9.80778 0.788218 4.88493 0.788218H0.339844V8.69587Z" fill="#D3E9F9"/>
<path d="M16.8018 0.828155C16.8018 0.864099 21.2395 14.7185 21.7167 16.1762L21.8598 16.6035L25.0648 16.5955L28.2698 16.5835L30.8188 8.71584C32.2224 4.3866 33.3637 0.836143 33.3557 0.816174C33.3478 0.800199 32.3218 0.788218 31.0772 0.788218H28.8146L28.751 1.01586C28.4329 2.11415 25.1444 13.1888 25.1284 13.2048C25.1205 13.2128 25.1125 13.2088 25.1125 13.1928C25.1125 13.1329 21.6411 0.927999 21.6053 0.856112C21.5735 0.792212 21.4184 0.788218 19.1876 0.788218C17.5891 0.788218 16.8018 0.800199 16.8018 0.828155Z" fill="#D3E9F9"/>
<path d="M35.2129 8.69587V16.6035H37.4397H39.6665V8.69587V0.788218H37.4397H35.2129V8.69587Z" fill="#D3E9F9"/>
<path d="M42.3513 0.837195C42.3394 0.865151 42.3354 4.4196 42.3394 8.73686L42.3513 16.5846L46.1091 16.5966C49.9265 16.6086 51.1552 16.5806 52.0539 16.4608C53.3104 16.297 54.2051 15.9775 54.9885 15.4144C55.3901 15.1269 56.1059 14.424 56.3166 14.1085C56.9131 13.2179 57.3386 11.832 57.5056 10.2545C57.5851 9.48768 57.5652 7.79433 57.4658 7.13935C57.2431 5.66166 56.8375 4.47551 56.257 3.61685C55.2549 2.13916 53.7359 1.26852 51.6164 0.968989C50.5945 0.825214 50.336 0.817226 46.3556 0.801251C43.0671 0.785276 42.3672 0.793264 42.3513 0.837195ZM49.8986 4.35969C50.9484 4.56737 51.5966 4.89086 52.1692 5.5059C52.698 6.07302 53.0321 6.88375 53.1514 7.90216C53.215 8.47327 53.1752 9.59951 53.0758 10.0748C52.7656 11.5085 52.034 12.3991 50.7933 12.8544C50.0736 13.118 49.2942 13.2099 47.7116 13.2099H46.7851V8.73286V4.25586L48.1887 4.27582C49.2067 4.2918 49.672 4.31576 49.8986 4.35969Z" fill="#D3E9F9"/>
<path d="M59.6091 0.83658C59.5972 0.864536 59.5932 4.41898 59.5972 8.73624L59.6091 16.584H61.8359H64.0627V8.6963V0.808623L61.8439 0.796642C60.0903 0.788655 59.6211 0.796642 59.6091 0.83658Z" fill="#D3E9F9"/>
<path d="M72.007 0.856112C71.9911 0.896049 70.5994 4.44251 68.9094 8.7358C67.2234 13.0291 65.8475 16.5556 65.8595 16.5716C65.8674 16.5915 66.8575 16.6035 68.0545 16.6035H70.2335L70.7227 15.2057L71.2118 13.8079H74.8582H78.5046L78.9778 15.1937L79.451 16.5835L81.8289 16.5955C83.7137 16.6035 84.2028 16.5955 84.1988 16.5556C84.1988 16.5276 82.7991 12.9732 81.0893 8.65593L77.9797 0.808187L75.0053 0.796205C72.2019 0.788218 72.0309 0.792212 72.007 0.856112ZM76.2738 7.46579C76.9816 9.41474 77.5621 11.0202 77.5621 11.0322C77.5621 11.0442 76.3533 11.0522 74.8741 11.0522C72.7387 11.0522 72.19 11.0402 72.2019 11.0003C72.2098 10.9763 72.8262 9.33087 73.5698 7.34997C74.6236 4.53037 74.9258 3.76756 74.9496 3.83546C74.9695 3.88338 75.562 5.51683 76.2738 7.46579Z" fill="#D3E9F9"/>
<path d="M86.1912 14.3039C85.7418 14.4037 85.4197 14.6513 85.2289 15.0387C85.1096 15.2823 85.0977 15.3343 85.0977 15.6857C85.0977 16.0212 85.1096 16.0931 85.209 16.2928C85.3482 16.5763 85.6464 16.8519 85.9446 16.9677C86.1196 17.0396 86.2508 17.0596 86.5292 17.0596C86.8075 17.0596 86.9388 17.0396 87.1137 16.9677C87.412 16.8519 87.7102 16.5763 87.8494 16.2928C87.9488 16.0891 87.9607 16.0212 87.9607 15.6657C87.9607 15.3103 87.9488 15.2424 87.8494 15.0387C87.6625 14.6553 87.2768 14.3798 86.8075 14.2919C86.5292 14.24 86.4735 14.24 86.1912 14.3039ZM86.9666 14.7232C87.1972 14.8271 87.408 15.0787 87.4875 15.3502C87.6625 15.9533 87.3324 16.5603 86.7678 16.6882C86.1117 16.8359 85.539 16.3726 85.539 15.6937C85.539 15.3582 85.6027 15.1585 85.7856 14.9589C86.0878 14.6234 86.5332 14.5315 86.9666 14.7232Z" fill="#D3E9F9"/>
<path d="M85.9521 15.663V16.4458H86.1311H86.31V16.1263C86.31 15.691 86.3856 15.691 86.6242 16.1263L86.7991 16.4458H86.994C87.1212 16.4458 87.1848 16.4298 87.1848 16.3939C87.1848 16.3699 87.1053 16.2182 87.0059 16.0664C86.8508 15.8188 86.8389 15.7868 86.9065 15.7748C87.0457 15.7509 87.1848 15.5672 87.1848 15.4034C87.1848 15.024 87.0218 14.9202 86.4015 14.8962L85.9521 14.8763V15.663ZM86.7793 15.3435C86.7952 15.4873 86.7395 15.5272 86.5009 15.5272H86.31V15.3675V15.2037L86.5407 15.2157C86.7594 15.2277 86.7673 15.2317 86.7793 15.3435Z" fill="#D3E9F9"/>
</svg>
