<svg width="109" height="21" viewBox="0 0 109 21" fill="none" xmlns="http://www.w3.org/2000/svg">
<path d="M8.00914 0.919868C7.4365 0.983772 6.21699 1.35654 5.46408 1.68671C4.99749 1.88907 3.78858 2.66656 3.48106 2.97543C3.3538 3.09258 3.19474 3.19909 3.13111 3.19909C3.07809 3.19909 3.02507 3.24169 3.02507 3.3056C3.02507 3.35885 2.94023 3.4973 2.84479 3.60381C2.52666 3.92333 1.93281 4.69017 1.80556 4.93513C1.74194 5.06294 1.61468 5.2866 1.54045 5.43571C1.39199 5.70197 1.25413 6.04279 0.95721 6.87353C0.6921 7.61907 0.543638 8.65218 0.554243 9.64268C0.554243 10.6651 0.745122 12.0284 0.914792 12.1988C0.967814 12.2521 1.01023 12.3799 1.01023 12.4864C1.01023 12.5929 1.05265 12.7633 1.10567 12.8698C1.15869 12.9657 1.34957 13.3491 1.52985 13.7218C1.99644 14.6804 2.83419 15.7561 3.54468 16.2993C3.73556 16.4484 3.94765 16.6081 4.02188 16.672C4.24457 16.8638 4.56271 17.0448 4.75359 17.1087C4.84902 17.1513 4.93386 17.2152 4.93386 17.2578C4.93386 17.3111 5.07172 17.375 5.25199 17.4176C5.42166 17.4602 5.57012 17.5241 5.57012 17.556C5.57012 17.5986 5.86705 17.7158 6.2382 17.833C6.59875 17.9395 7.04414 18.0779 7.21381 18.1525C7.691 18.3335 10.6284 18.3122 11.0632 18.1205C11.3813 17.9927 11.4238 17.9927 11.5616 18.1738C11.6464 18.2909 11.7419 18.5039 11.7737 18.6637C11.8161 18.8235 11.9328 19.143 12.0494 19.3879C12.1661 19.6223 12.2827 19.9631 12.3251 20.1335C12.3569 20.3145 12.4206 20.453 12.4736 20.453C12.5266 20.453 12.569 20.5276 12.569 20.6128C12.569 20.8364 12.9084 20.8897 14.0006 20.8577L14.955 20.8258L14.9232 20.3039C14.9126 20.0057 14.8596 19.7501 14.8066 19.7181C14.7641 19.6755 14.6899 19.537 14.6475 19.3879C14.5627 19.0897 14.4884 18.898 14.2233 18.2909C14.1279 18.0673 14.0536 17.7904 14.0536 17.6839C14.0536 17.5667 14.0112 17.4708 13.9476 17.4708C13.8946 17.4708 13.8416 17.3643 13.8416 17.2259C13.8416 17.0448 13.99 16.8638 14.3294 16.6188C14.9974 16.1395 15.6337 15.5005 16.0685 14.8615C16.27 14.5632 16.4608 14.3076 16.4927 14.2757C16.5987 14.1692 17.235 12.8165 17.235 12.6994C17.235 12.6248 17.2774 12.4864 17.3304 12.3799C17.5213 12.0391 17.7652 10.4415 17.7652 9.58943C17.7652 8.73738 17.5213 7.1398 17.3304 6.79898C17.2774 6.69247 17.235 6.55402 17.235 6.47946C17.235 6.36231 16.5987 5.00968 16.4927 4.90318C16.4608 4.87123 16.323 4.66887 16.1745 4.45586C16.0261 4.23219 15.8776 4.05113 15.8352 4.05113C15.7822 4.05113 15.7503 4.00853 15.7503 3.94463C15.7503 3.84877 14.8384 2.87957 14.7429 2.87957C14.7111 2.87957 14.5733 2.77307 14.4354 2.65591C14.1491 2.4003 13.9158 2.26184 13.2053 1.89972C12.9402 1.76126 12.7069 1.63346 12.6751 1.60151C12.6433 1.56955 12.3357 1.46305 11.9858 1.34589C11.6358 1.23939 11.2435 1.11158 11.1056 1.05833C10.8299 0.95182 8.59238 0.845316 8.00914 0.919868ZM10.8617 3.38015C11.1905 3.48665 11.4768 3.60381 11.5086 3.63576C11.5404 3.67836 11.6995 3.75292 11.8585 3.78487C12.0176 3.82747 12.1449 3.90203 12.1449 3.95528C12.1449 4.00853 12.2191 4.05113 12.2933 4.05113C12.5372 4.05113 13.8734 5.42506 14.2339 6.02149C14.5308 6.52206 14.6687 6.86288 15.008 7.93859C15.2095 8.54567 15.1777 10.6545 14.9656 11.4426C14.7853 12.1456 14.2551 13.3171 14.1385 13.3171C14.0855 13.3171 14.0536 13.381 14.0536 13.4556C14.0536 13.5301 13.9688 13.6686 13.8734 13.7538C13.7673 13.8496 13.5446 14.084 13.3856 14.2863C13.0038 14.7336 12.8341 14.6378 12.569 13.8496C12.4524 13.5301 12.3251 13.1893 12.2721 13.1041C12.2191 13.0083 12.1342 12.7846 12.1024 12.5929C12.06 12.4118 11.9752 12.2308 11.9222 12.1988C11.8691 12.1562 11.8267 12.0604 11.8267 11.9645C11.8267 11.8686 11.7525 11.6982 11.6464 11.5917C11.5086 11.432 11.3071 11.4 10.4906 11.4C9.18622 11.4 9.02716 11.5491 9.3771 12.4118C9.43013 12.529 9.54677 12.8378 9.65282 13.1041C9.74826 13.3704 9.87551 13.6686 9.92853 13.7644C9.98155 13.871 10.024 14.0094 10.024 14.0733C10.024 14.1372 10.0982 14.3502 10.183 14.5526C10.2679 14.7549 10.4163 15.0851 10.5118 15.2981C10.7981 15.9372 10.7239 15.9798 9.26046 15.9798C8.27425 15.9798 7.80765 15.9265 7.37287 15.7774C6.52452 15.4898 6.10034 15.3088 6.10034 15.2129C6.10034 15.1703 6.03672 15.1277 5.95188 15.1277C5.58073 15.1277 3.87342 13.168 3.87342 12.7313C3.87342 12.6461 3.831 12.5716 3.78858 12.5716C3.69315 12.5716 3.39622 11.6982 3.23716 10.974C3.03567 10.0154 3.14172 8.09835 3.44924 7.40606C3.50227 7.28891 3.5765 7.07589 3.61891 6.92679C3.66133 6.77768 3.71435 6.63922 3.75677 6.60727C3.78858 6.57532 3.93705 6.3197 4.08551 6.03214C4.62633 4.95643 5.92007 3.92333 7.37287 3.40145C8.06216 3.14584 10.077 3.13519 10.8617 3.38015Z" fill="#D3E9F9"/>
<path d="M46.4713 1.38854C46.3016 1.5909 46.291 2.18733 46.291 9.58947C46.291 16.9916 46.3016 17.588 46.4713 17.7904C46.6304 17.9715 46.7894 18.0034 47.5848 18.0034C48.4013 18.0034 48.5285 17.9821 48.624 17.7904C48.7831 17.5028 48.7724 1.6761 48.624 1.37789C48.5285 1.19683 48.3907 1.17553 47.5848 1.17553C46.7894 1.17553 46.6304 1.20748 46.4713 1.38854Z" fill="#D3E9F9"/>
<path d="M36.3232 6.49001C35.5915 6.68172 34.4144 7.2249 34.4144 7.37401C34.4144 7.41661 34.3614 7.45921 34.2978 7.45921C34.2342 7.45921 33.9266 7.71482 33.6297 8.03434C33.1737 8.52427 32.792 9.142 32.283 10.239C32.1027 10.6224 31.9648 12.2094 32.0285 12.9869C32.1451 14.233 32.4526 15.0637 33.1525 16.0329C33.757 16.8637 34.5205 17.492 35.3688 17.8329C35.634 17.9394 35.9627 18.0778 36.1005 18.1524C36.249 18.2163 36.8959 18.2695 37.5958 18.2695C38.2957 18.2695 38.9425 18.2163 39.091 18.1524C39.2288 18.0778 39.547 17.9394 39.8015 17.8435C40.0454 17.737 40.4908 17.4175 40.7877 17.1299C41.0846 16.8424 41.3603 16.64 41.3921 16.6719C41.424 16.7039 41.4452 16.9382 41.424 17.1938C41.3815 17.8968 41.5512 18.0033 42.6859 18.0033C43.2055 18.0033 43.6509 17.9607 43.6933 17.8968C43.8206 17.6944 43.7569 6.90538 43.6297 6.75627C43.5448 6.64977 43.2479 6.60717 42.6329 6.60717C41.5512 6.60717 41.3497 6.75627 41.4346 7.51246C41.4664 7.77873 41.4452 7.99174 41.3921 7.99174C41.3391 7.99174 41.1164 7.81068 40.9043 7.57637C39.8651 6.47936 38.0199 6.04269 36.3232 6.49001ZM39.0274 8.73728C39.0592 8.79053 39.1864 8.84378 39.2925 8.84378C39.3985 8.84378 39.5576 8.91834 39.653 9.00354C39.7379 9.08875 39.8439 9.1633 39.8969 9.1633C40.003 9.1633 40.7771 9.99404 40.968 10.3136C41.2755 10.8567 41.4134 11.4958 41.4134 12.433C41.4134 12.9656 41.3709 13.4342 41.3179 13.4661C41.2649 13.4981 41.1907 13.7004 41.1588 13.9028C41.1164 14.1052 41.0422 14.2756 40.9892 14.2756C40.9256 14.2756 40.8831 14.3288 40.8831 14.3821C40.8831 14.5099 40.7559 14.6803 40.3317 15.1063C39.9393 15.5004 39.8333 15.5749 39.3985 15.788C37.9669 16.5015 36.1536 16.0436 35.2098 14.7335C34.2448 13.4022 34.1493 11.8685 34.9235 10.3562C35.0189 10.1751 35.1355 10.0153 35.178 10.0153C35.231 10.0153 35.2628 9.95144 35.2628 9.87689C35.2628 9.80233 35.4113 9.63193 35.5915 9.48282C35.7718 9.33371 35.9733 9.1633 36.0475 9.11005C36.3551 8.82248 37.0549 8.65207 37.9881 8.64142C38.5396 8.63077 38.9956 8.67338 39.0274 8.73728Z" fill="#D3E9F9"/>
<path d="M54.7217 6.47976C54.3188 6.56497 53.9582 6.67147 53.9264 6.70343C53.8946 6.73538 53.6401 6.88448 53.3432 7.03359C52.2721 7.57677 50.7451 9.49387 50.7451 10.2927C50.7451 10.4098 50.6921 10.5589 50.6178 10.6335C50.4482 10.8039 50.427 13.7115 50.5966 14.0736C50.6709 14.2121 50.8087 14.5635 50.9042 14.8618C51.0102 15.1493 51.1587 15.4688 51.2329 15.5647C51.3177 15.6499 51.3814 15.7671 51.3814 15.799C51.3814 15.9375 52.1661 16.8002 52.6327 17.1729C52.9826 17.4605 54.0431 18.0037 54.2339 18.0037C54.34 18.0037 54.4778 18.0676 54.5415 18.1421C54.7217 18.3125 57.6061 18.3232 57.9667 18.1528C58.1046 18.0782 58.4545 17.9398 58.7514 17.8333C59.0377 17.7268 59.3453 17.5777 59.4195 17.5031C59.4937 17.4285 59.621 17.3646 59.6846 17.3646C59.8331 17.354 60.2148 16.8641 60.1618 16.7469C60.0027 16.3741 59.2286 15.4369 59.0483 15.3836C58.8893 15.341 58.5711 15.4369 58.147 15.6393C56.9381 16.225 56.4609 16.2783 55.305 15.9801C54.8384 15.8629 53.7143 15.1067 53.7143 14.915C53.7143 14.8618 53.6507 14.7553 53.5871 14.6807C53.3538 14.4357 53.0781 13.8819 53.0781 13.6582C53.0781 13.5304 53.0356 13.4026 52.972 13.3707C52.8236 13.2855 52.8342 11.6666 52.9826 11.198C53.4492 9.69623 54.3612 8.82289 55.7822 8.53532C56.323 8.42882 57.638 8.58858 57.638 8.75898C57.638 8.81224 57.7122 8.84419 57.797 8.84419C57.8819 8.84419 58.1364 8.94004 58.3485 9.0572C58.8787 9.34477 59.1544 9.32346 59.3983 8.9933C59.5043 8.84419 59.6528 8.66313 59.7164 8.58858C59.7694 8.52467 59.9179 8.31166 60.0346 8.11995L60.236 7.75783L59.8755 7.44897C58.6878 6.44781 56.5881 6.05374 54.7217 6.47976Z" fill="#D3E9F9"/>
<path d="M65.4423 6.45806C65.0394 6.53261 64.5515 6.67107 64.3607 6.76693C64.1698 6.85213 63.9683 6.92668 63.9047 6.92668C63.8411 6.92668 63.788 6.96929 63.788 7.02254C63.788 7.07579 63.7032 7.1397 63.6078 7.1823C63.5017 7.21425 63.3214 7.29945 63.2048 7.37401C62.9927 7.51247 61.9323 8.57752 61.7202 8.86509C61.4975 9.17395 61.0309 10.1964 60.9142 10.6544C60.7446 11.2934 60.6703 13.2957 60.8082 13.5726C60.8612 13.7004 60.9354 13.9561 60.9673 14.1478C61.0627 14.6803 61.5505 15.6069 62.0701 16.214C62.5579 16.7891 63.682 17.6838 63.9153 17.6838C63.9895 17.6838 64.1486 17.7583 64.2546 17.8435C64.3713 17.9287 64.5622 18.0033 64.6894 18.0033C64.8167 18.0033 64.9757 18.0672 65.0394 18.1311C65.1348 18.2269 65.612 18.2695 66.6512 18.2695C67.6905 18.2695 68.1676 18.2269 68.2631 18.1311C68.3267 18.0672 68.4646 18.0033 68.5706 18.0033C68.7721 18.0033 69.981 17.3749 70.0234 17.2471C70.0446 17.1938 70.1189 17.1512 70.1825 17.1512C70.3416 17.1512 71.7413 15.6708 71.7413 15.5004C71.7413 15.4791 71.858 15.2022 71.9958 14.8933C72.3352 14.1478 72.5897 13.0401 72.5897 12.3265C72.5897 11.3147 72.017 9.46152 71.5611 8.97159C71.4868 8.89704 71.4232 8.79053 71.4232 8.74793C71.4232 8.57752 70.4476 7.65092 69.9068 7.3101C69.1008 6.79888 68.7085 6.63912 67.7965 6.45806C66.8315 6.2557 66.4285 6.2557 65.4423 6.45806ZM68.1995 8.96094C68.5282 9.13135 68.9418 9.41892 69.1008 9.58932C70.1295 10.6224 70.4052 12.8803 69.6735 14.2223C69.3235 14.8401 68.6873 15.4791 68.0828 15.7986C67.4784 16.1075 65.9407 16.1181 65.2726 15.8199C64.5409 15.5004 64.0319 15.0318 63.5972 14.2969C63.1836 13.5726 62.8973 11.9324 63.1412 11.6875C63.2048 11.6236 63.2578 11.4319 63.2578 11.2721C63.2578 10.9632 63.4381 10.5798 63.8941 9.89819C64.1698 9.47217 65.0075 8.84379 65.2939 8.84379C65.3893 8.84379 65.5059 8.79053 65.5378 8.73728C65.5696 8.67338 66.0468 8.63077 66.5982 8.63077C67.5102 8.63077 67.648 8.66273 68.1995 8.96094Z" fill="#D3E9F9"/>
<path d="M19.5993 6.76616C19.4297 6.95787 19.3979 14.7541 19.5675 14.8606C19.6312 14.8925 19.6736 15.0203 19.6736 15.1375C19.6736 16.0747 21.4551 18.0025 22.3247 18.0025C22.4307 18.0025 22.5368 18.0664 22.558 18.1303C22.6322 18.3327 25.3681 18.322 25.7817 18.1197C25.9514 18.0345 26.2483 17.896 26.4498 17.8001C26.6513 17.7043 27.033 17.4274 27.2981 17.1718C27.5526 16.9268 27.8072 16.7244 27.8602 16.7244C27.9026 16.7244 27.945 16.9587 27.945 17.2357C27.945 17.5126 27.998 17.8001 28.0723 17.8747C28.1571 17.9599 28.5495 18.0025 29.1327 18.0025C29.9386 18.0025 30.0765 17.9812 30.1719 17.8001C30.2356 17.6617 30.278 15.7339 30.278 12.2618C30.278 7.56495 30.2568 6.92591 30.1083 6.77681C29.8962 6.55314 28.3162 6.53184 28.1041 6.74485C27.998 6.86201 27.9556 7.65015 27.9238 10.4512L27.8814 14.0085L27.5951 14.5411C27.436 14.8286 27.2451 15.1481 27.1709 15.2334C26.9588 15.5103 26.2907 15.9789 26.1104 15.9789C26.0256 15.9789 25.9302 16.0321 25.909 16.1067C25.8453 16.2878 23.8729 16.2984 23.6926 16.1067C23.6184 16.0428 23.4806 15.9789 23.3957 15.9789C23.2261 15.9682 22.7276 15.5742 22.3989 15.1694C22.2929 15.0416 22.1126 14.6795 22.0065 14.3707C21.8157 13.8488 21.7945 13.508 21.7945 10.4086C21.7945 8.27853 21.752 6.94722 21.6884 6.80876C21.593 6.6277 21.4551 6.6064 20.6492 6.6064C19.9917 6.61705 19.6842 6.65965 19.5993 6.76616Z" fill="#D3E9F9"/>
<path d="M76.7038 6.78895C76.619 6.89546 76.4705 7.17237 76.3645 7.40669C76.269 7.641 76.1418 7.91791 76.0887 8.01377C76.0251 8.12027 75.9827 8.26938 75.9827 8.36524C75.9827 8.50369 75.7918 9.01492 75.5585 9.48355C75.5161 9.5794 75.4419 9.80306 75.3995 9.99477C75.3676 10.1865 75.2828 10.3356 75.2298 10.3356C75.1768 10.3356 75.1343 10.4314 75.1343 10.5486C75.1343 10.7297 74.9647 11.2089 74.7102 11.7202C74.6678 11.816 74.5935 12.0397 74.5511 12.2314C74.5193 12.4231 74.4345 12.5722 74.3814 12.5722C74.3284 12.5722 74.286 12.6681 74.286 12.7852C74.286 12.8917 74.2224 13.1473 74.1375 13.3391C74.0527 13.5308 73.9148 13.8609 73.8194 14.0846C73.724 14.2976 73.6497 14.5426 73.6497 14.6384C73.6497 14.7343 73.6073 14.8088 73.5437 14.8088C73.4907 14.8088 73.4376 14.9047 73.4376 15.0218C73.4376 15.1283 73.374 15.384 73.2892 15.5757C73.2043 15.7674 73.0665 16.0975 72.971 16.3212C72.8756 16.5342 72.8014 16.7792 72.8014 16.8644C72.8014 16.9602 72.759 17.0561 72.7059 17.088C72.5893 17.1626 72.4938 17.6845 72.5575 17.8655C72.5999 17.9614 72.8862 18.004 73.6497 18.004C74.6784 18.004 74.6996 18.004 74.9117 17.6951C75.0389 17.5247 75.1343 17.333 75.1343 17.2798C75.1343 17.1839 75.3888 16.449 75.8767 15.1816C76.2372 14.223 76.3326 13.9887 76.4069 13.8396C76.4599 13.7438 76.5341 13.4882 76.5659 13.2751C76.6084 13.0621 76.6826 12.8917 76.7356 12.8917C76.7886 12.8917 76.831 12.7852 76.831 12.6468C76.831 12.5083 76.9053 12.3059 76.9901 12.1888C77.0749 12.0823 77.1492 11.9119 77.1492 11.816C77.1492 11.7202 77.2234 11.4965 77.3082 11.3367C77.3931 11.1663 77.4673 10.9427 77.4673 10.8468C77.4673 10.751 77.5203 10.6338 77.5734 10.6019C77.637 10.5699 77.6794 10.4421 77.6794 10.3249C77.6794 10.2078 77.743 10.048 77.8173 9.96282C77.9339 9.84567 77.9763 9.85632 78.0824 10.0267C78.1566 10.1332 78.2096 10.293 78.2096 10.3782C78.2096 10.4527 78.2839 10.6658 78.3687 10.8255C78.4535 10.9959 78.5278 11.2196 78.5278 11.3154C78.5278 11.4113 78.5808 11.5285 78.6338 11.5604C78.6974 11.5924 78.7398 11.6989 78.7398 11.7947C78.7398 11.8799 78.8141 12.1249 78.9095 12.3379C79.005 12.5616 79.1428 12.8917 79.2276 13.0834C79.3125 13.2751 79.3761 13.5201 79.3761 13.616C79.3761 13.7225 79.4185 13.8503 79.4609 13.9142C79.514 13.9674 79.6412 14.2443 79.7367 14.5426C79.8427 14.8301 79.9912 15.2242 80.076 15.4159C80.1608 15.597 80.2245 15.8206 80.2245 15.9058C80.2245 16.0017 80.2669 16.0975 80.3199 16.1401C80.3729 16.1721 80.4578 16.3532 80.5002 16.5342C80.532 16.7259 80.6062 16.9496 80.6486 17.0454C80.691 17.1307 80.8077 17.3863 80.9137 17.6099L81.1152 18.0146L82.1757 17.9827L83.2361 17.9507L83.4164 17.578C83.5118 17.3756 83.6815 16.9922 83.7769 16.7259C83.883 16.4597 84.0314 16.0975 84.1057 15.9058C84.1905 15.7248 84.2541 15.5224 84.2541 15.4585C84.2541 15.3946 84.2965 15.2562 84.3496 15.1496C84.4026 15.0538 84.5298 14.7556 84.6253 14.4893C84.7313 14.223 84.8798 13.8609 84.954 13.6692C85.0389 13.4882 85.1025 13.2751 85.1025 13.1899C85.1025 13.1047 85.1449 12.9982 85.1873 12.9343C85.2403 12.8811 85.3676 12.5935 85.463 12.3059C85.5691 12.0077 85.7175 11.6243 85.8024 11.4326C85.8872 11.2515 85.9508 11.0492 85.9508 10.9853C85.9508 10.9214 85.9933 10.7829 86.0463 10.6764C86.0993 10.5806 86.2053 10.3356 86.269 10.1439C86.375 9.86697 86.428 9.82436 86.5447 9.92022C86.6295 9.98412 86.6931 10.1439 86.6931 10.2717C86.6931 10.3888 86.7674 10.5912 86.8522 10.6977C86.937 10.8149 87.0113 11.0172 87.0113 11.1557C87.0113 11.2941 87.0537 11.4006 87.1067 11.4006C87.1597 11.4006 87.234 11.5711 87.2764 11.7841C87.3082 11.9971 87.3824 12.2527 87.4248 12.3485C87.6793 12.8491 87.8596 13.3497 87.8596 13.5308C87.8596 13.6479 87.902 13.7438 87.9551 13.7438C88.0081 13.7438 88.0823 13.9142 88.1247 14.1272C88.1565 14.3402 88.2308 14.5958 88.2838 14.6917C88.4959 15.107 88.708 15.6502 88.708 15.7993C88.708 15.8952 88.761 16.0017 88.814 16.0336C88.8776 16.0656 88.9201 16.1721 88.9201 16.268C88.9201 16.3532 88.9837 16.5768 89.0685 16.7579C89.1428 16.9496 89.2912 17.3011 89.3973 17.546L89.5881 18.004H90.6592C91.9105 18.004 91.9317 17.9933 92.2605 16.9922C92.3771 16.6407 92.5256 16.236 92.5998 16.0869C92.674 15.9378 92.7376 15.7354 92.7376 15.6396C92.7376 15.5437 92.7907 15.4266 92.8437 15.3946C92.9073 15.3627 92.9497 15.2562 92.9497 15.1603C92.9497 15.0112 93.1618 14.4574 93.3845 14.042C93.4375 13.9355 93.48 13.797 93.48 13.7331C93.48 13.6692 93.5436 13.4669 93.6284 13.2858C93.7133 13.0941 93.8617 12.6787 93.9678 12.3592C94.0738 12.0397 94.1905 11.7202 94.2329 11.6669C94.2753 11.603 94.3389 11.4006 94.3813 11.2089C94.4131 11.0279 94.498 10.8681 94.551 10.8681C94.604 10.8681 94.6464 10.7616 94.6464 10.6232C94.657 10.2717 94.8903 9.79241 95.0176 9.88827C95.0812 9.93087 95.2085 10.2291 95.3251 10.5486C95.4312 10.8681 95.5796 11.2728 95.6539 11.4539C95.7281 11.6243 95.919 12.1355 96.078 12.5722C96.2371 13.0089 96.428 13.5201 96.5128 13.7118C96.5976 13.8929 96.6613 14.0952 96.6613 14.1591C96.6613 14.223 96.7037 14.3615 96.7567 14.468C96.8097 14.5639 96.937 14.8621 97.0324 15.1283C97.1279 15.3946 97.2551 15.6928 97.3081 15.7887C97.3612 15.8952 97.4036 16.0336 97.4036 16.0975C97.4036 16.1615 97.4672 16.3638 97.552 16.5449C97.6369 16.7366 97.7747 17.0987 97.8808 17.365C97.9762 17.6312 98.1141 17.8762 98.1777 17.9188C98.2519 17.9614 98.7397 18.004 99.27 18.004C100.065 18.004 100.267 17.972 100.405 17.8123C100.511 17.7058 100.585 17.5567 100.585 17.4928C100.585 17.4289 100.649 17.2159 100.733 17.0241C100.818 16.8324 100.956 16.5023 101.051 16.2786C101.147 16.0656 101.221 15.8313 101.221 15.7461C101.221 15.6609 101.264 15.5544 101.306 15.5011C101.359 15.4372 101.486 15.1496 101.582 14.8621C101.688 14.5639 101.836 14.1804 101.921 13.9887C102.006 13.8077 102.07 13.6053 102.07 13.5414C102.07 13.4775 102.112 13.3391 102.165 13.2325C102.229 13.1367 102.388 12.7107 102.536 12.3059C102.685 11.8906 102.865 11.4113 102.928 11.2409C103.003 11.0598 103.13 10.7084 103.225 10.4527C103.395 9.98412 103.66 9.73916 103.66 10.048C103.66 10.1332 103.734 10.3462 103.819 10.506C103.904 10.6764 103.978 10.9001 103.978 10.9959C103.978 11.0918 104.031 11.2089 104.084 11.2409C104.148 11.2728 104.19 11.3793 104.19 11.4752C104.19 11.5604 104.254 11.7841 104.339 11.9651C104.424 12.1568 104.572 12.5403 104.668 12.8385C104.774 13.126 104.911 13.5095 104.986 13.6905C105.06 13.8609 105.198 14.223 105.293 14.4893C105.558 15.2668 105.983 16.449 106.089 16.6727C106.142 16.7898 106.269 17.0987 106.364 17.365C106.46 17.6312 106.598 17.8762 106.661 17.9188C106.735 17.9614 107.244 18.004 107.806 18.004C108.602 18.004 108.846 17.972 108.888 17.8549C108.952 17.6951 108.782 16.9602 108.644 16.7792C108.602 16.7153 108.475 16.3745 108.369 16.0123C108.262 15.6396 108.135 15.3414 108.093 15.3414C108.04 15.3414 108.008 15.2668 108.008 15.1709C108.008 15.0751 107.934 14.8301 107.838 14.6171C107.743 14.3935 107.605 14.0633 107.52 13.8716C107.435 13.6799 107.372 13.4562 107.372 13.3817C107.372 13.2538 107.17 12.7639 106.937 12.3379C106.884 12.2314 106.841 12.061 106.841 11.9651C106.841 11.8586 106.767 11.6776 106.682 11.5711C106.598 11.4539 106.523 11.2515 106.523 11.1131C106.523 10.9746 106.481 10.8681 106.428 10.8681C106.375 10.8681 106.301 10.6764 106.258 10.4421C106.216 10.2078 106.152 10.0161 106.099 10.0161C106.057 10.0161 105.993 9.90957 105.961 9.77111C105.876 9.37704 105.431 8.20548 105.251 7.86466C105.187 7.75815 105.145 7.60905 105.145 7.52384C105.145 7.25758 104.784 6.7144 104.562 6.6505C104.445 6.61854 103.893 6.60789 103.342 6.6292L102.335 6.66115L102.154 7.03392C101.826 7.7262 101.645 8.18418 101.645 8.34394C101.645 8.43979 101.603 8.5463 101.539 8.57825C101.486 8.6102 101.433 8.74866 101.433 8.88712C101.433 9.01492 101.359 9.21728 101.274 9.33444C101.189 9.44094 101.115 9.6433 101.115 9.77111C101.115 9.89892 101.073 10.0374 101.009 10.0693C100.956 10.1013 100.903 10.2078 100.903 10.3036C100.903 10.3888 100.839 10.6125 100.755 10.7936C100.68 10.9853 100.532 11.3687 100.426 11.6669C100.33 11.9545 100.182 12.3485 100.097 12.5403C100.012 12.7213 99.9486 12.9343 99.9486 13.0195C99.9486 13.1047 99.9062 13.2112 99.8638 13.2645C99.8214 13.3284 99.6941 13.6479 99.5775 13.9781C99.4714 14.3189 99.3548 14.5958 99.3124 14.5958C99.2063 14.5958 98.8882 13.8716 98.8882 13.6373C98.8882 13.5308 98.8458 13.4136 98.7928 13.371C98.7397 13.3391 98.6549 13.158 98.6125 12.9769C98.5807 12.7852 98.5064 12.5616 98.464 12.4657C98.2413 12.0397 98.0398 11.5072 98.0398 11.3687C98.0398 11.2728 97.9974 11.177 97.9444 11.1344C97.8914 11.1024 97.8066 10.9214 97.7641 10.7403C97.7323 10.5486 97.6581 10.3249 97.6157 10.2291C97.3612 9.71786 97.1915 9.23858 97.1915 9.05752C97.1915 8.94037 97.1491 8.84451 97.0961 8.84451C97.043 8.84451 96.9688 8.6528 96.9264 8.41849C96.884 8.18418 96.8097 7.99247 96.7567 7.99247C96.7037 7.99247 96.6613 7.89661 96.6613 7.79011C96.6613 7.5771 96.375 6.98066 96.1629 6.74635C96.078 6.6505 95.7069 6.60789 94.9328 6.60789H93.8193L93.5966 7.05522C93.4163 7.44929 92.7695 9.18533 92.3983 10.2823C92.3453 10.4527 92.2286 10.7403 92.165 10.9214C92.0908 11.0918 91.9635 11.4113 91.8893 11.6137C91.8151 11.816 91.6878 12.1355 91.6136 12.3272C91.5287 12.5083 91.4651 12.7213 91.4651 12.8065C91.4651 12.8917 91.4333 12.9982 91.4015 13.0302C91.2955 13.1367 90.9455 14.1911 90.9349 14.4041C90.9349 14.7769 90.6274 14.5958 90.5001 14.1378C90.4259 13.8929 90.3305 13.6479 90.2774 13.5947C90.235 13.5308 90.1926 13.4243 90.1926 13.3391C90.1926 13.2538 90.129 13.0408 90.0441 12.8598C89.7472 12.1888 88.708 9.31314 88.708 9.15338C88.708 9.06817 88.6656 8.95102 88.6231 8.88712C88.5701 8.83386 88.3686 8.35459 88.1778 7.83271C87.9763 7.30018 87.7536 6.81026 87.69 6.7357C87.5945 6.6505 87.2022 6.60789 86.4811 6.60789C85.4948 6.60789 85.3888 6.6292 85.1979 6.84221C85.0919 6.98066 85.007 7.17237 84.9964 7.26823C84.9964 7.37473 84.954 7.45994 84.901 7.45994C84.848 7.45994 84.7843 7.65165 84.7419 7.88596C84.7101 8.12027 84.6253 8.31199 84.5723 8.31199C84.5086 8.31199 84.4662 8.40784 84.4662 8.525C84.4662 8.72736 83.9254 10.2078 83.7239 10.5699C83.6603 10.6764 83.6179 10.8255 83.6179 10.9214C83.6179 11.0598 83.4058 11.6137 83.1831 12.061C83.1301 12.1675 83.0876 12.3059 83.0876 12.3698C83.0876 12.4338 83.024 12.6361 82.9392 12.8172C82.865 13.0089 82.6847 13.4669 82.5468 13.8396C82.409 14.2017 82.2499 14.5213 82.1863 14.5319C82.1332 14.5319 82.0378 14.3935 81.9848 14.223C81.9318 14.042 81.8257 13.7544 81.7515 13.5627C81.6667 13.3817 81.603 13.1793 81.603 13.1154C81.603 13.0515 81.5606 12.913 81.5076 12.8065C81.2637 12.3166 81.0728 11.7947 81.0728 11.6137C81.0728 11.4965 81.0304 11.4006 80.9668 11.4006C80.9137 11.4006 80.8607 11.3154 80.8607 11.2089C80.8607 11.1131 80.7865 10.8894 80.7017 10.719C80.6168 10.5593 80.5426 10.3569 80.5426 10.2823C80.5426 10.2078 80.4684 10.0054 80.3835 9.84567C80.2987 9.67526 80.2245 9.4516 80.2245 9.35574C80.2245 9.25988 80.182 9.14273 80.1184 9.11078C80.0654 9.07882 80.0124 8.97232 80.0124 8.87646C80.0124 8.79126 79.9487 8.5676 79.8639 8.38654C79.7791 8.19483 79.6306 7.80076 79.5246 7.51319C79.217 6.6292 79.1746 6.60789 77.9445 6.60789C77.0431 6.60789 76.8417 6.63985 76.7038 6.78895Z" fill="#D3E9F9"/>
</svg>
