<svg width="115" height="27" viewBox="0 0 115 27" fill="none" xmlns="http://www.w3.org/2000/svg">
<path d="M100.781 0.0910077C100.781 0.11432 100.874 0.20757 100.99 0.289163C101.163 0.440694 101.175 0.429037 101.024 0.242538C100.874 0.0560392 100.781 -0.00224179 100.781 0.0910077Z" fill="#D3E9F9"/>
<path d="M51.4198 5.14171C51.3966 5.19999 50.7366 7.81098 49.9493 10.9698L48.5367 16.7047L47.3557 17.2875C45.0862 18.4181 43.1757 18.6046 41.4737 17.8586C40.86 17.5905 40.1537 16.8912 40.0379 16.4249C39.5979 14.6532 41.4621 12.7182 44.3684 11.914C45.0747 11.7158 45.6536 11.6575 47.1704 11.6342L49.0809 11.6109L49.324 10.7483C49.463 10.2704 49.6135 9.71094 49.6598 9.51278L49.7409 9.13979H46.6841C42.5621 9.13979 40.9526 9.37291 39.2043 10.2005C38.058 10.7483 36.9233 11.9373 36.3096 13.2195C35.5917 14.7114 35.3254 15.912 35.3138 17.5905C35.3022 18.8611 35.3254 19.0476 35.6033 19.6304C36.0201 20.5279 36.3906 20.9359 37.2011 21.3671C38.1506 21.8684 39.2969 22.1015 41.0337 22.1131C42.8052 22.1364 43.7084 21.915 45.6073 20.9592C47.1588 20.1899 48.5946 19.1758 50.123 17.7421C50.7598 17.1476 51.2229 16.7396 51.1535 16.8329C50.5745 17.6488 49.4514 18.931 48.583 19.7702C47.8072 20.5162 47.4946 20.9125 47.4136 21.2273C47.1588 22.1481 46.962 22.0898 49.9724 22.0548L52.6587 22.0199L53.1797 19.8985C53.4692 18.7328 53.7471 17.7537 53.7818 17.7071C53.8629 17.6372 54.4071 18.2899 56.4334 20.8309L57.4175 22.0665L60.4048 22.0782C62.0374 22.0782 63.3806 22.0548 63.3806 22.0199C63.3806 21.9966 62.1532 20.3997 60.648 18.4647C59.1543 16.5415 57.9386 14.9096 57.9617 14.863C57.9849 14.8047 58.8417 14.1053 59.8722 13.3127C60.9027 12.5317 62.5585 11.2496 63.5543 10.4802L65.3721 9.08151L62.2922 9.04654L59.2007 9.02322L57.2091 10.5968C56.1092 11.4594 55.1829 12.1704 55.1481 12.1704C55.1134 12.1704 55.4607 10.6318 55.9239 8.75513C56.3986 6.89014 56.7807 5.28159 56.7807 5.19999C56.7807 5.09509 56.167 5.06012 54.1292 5.06012C52.6587 5.06012 51.4429 5.09509 51.4198 5.14171Z" fill="#D3E9F9"/>
<path d="M78.9536 5.19924C78.9304 5.28083 78.3052 7.81023 77.5757 10.8292C76.8347 13.8481 76.1863 16.4125 76.1284 16.5524C76.0589 16.6922 75.6305 16.9953 75.0515 17.2751C73.2684 18.1493 71.7516 18.464 70.5937 18.2309C68.8338 17.8579 67.8612 16.9137 67.8496 15.5499C67.838 13.9297 69.4243 12.4377 71.7864 11.8666C72.6895 11.6451 75.1094 11.6101 76.0589 11.7966C76.3715 11.8666 76.661 11.9015 76.6726 11.8782C76.7305 11.8316 77.3904 9.34884 77.3904 9.20897C77.3904 9.03413 70.7327 9.22063 69.7601 9.41878C68.1043 9.76847 66.4717 10.5611 65.5339 11.447C64.4339 12.5077 63.3107 14.5358 62.9634 16.0861C62.7087 17.2751 62.7781 19.1284 63.1139 19.8744C63.6234 21.0167 64.5844 21.786 65.9275 22.1357C67.0044 22.4154 69.899 22.3222 71.1958 21.9725C73.0137 21.4713 75.4452 19.8394 77.9925 17.4266C78.4325 17.0186 78.7799 16.7156 78.7799 16.7505C78.7799 16.9137 77.0083 18.9419 76.0936 19.8394C75.2831 20.6204 75.0747 20.8885 74.9705 21.3081C74.901 21.5995 74.8431 21.8909 74.8431 21.9608C74.8431 22.0424 75.6652 22.0774 77.5178 22.0541L80.2041 22.0191L80.5862 20.2707C81.1188 17.8928 81.7209 15.7714 82.1609 14.8156C82.7282 13.58 83.9093 12.6709 85.3103 12.3795C86.1092 12.2279 86.6534 12.461 86.9544 13.0672C87.3134 13.8481 86.966 15.7597 85.7271 19.6529C85.345 20.8418 85.0324 21.8792 85.0324 21.9492C85.0324 22.0424 85.8313 22.0774 87.6376 22.0774H90.2312L90.3586 21.5762C90.4396 21.3081 90.7523 20.1425 91.0649 18.9885C91.9333 15.8763 92.1185 14.8739 92.1301 13.3353C92.1417 12.158 92.107 11.9132 91.8754 11.377C90.9838 9.37216 88.7028 8.92922 84.3956 9.89669C83.6545 10.0715 83.0293 10.1881 83.0061 10.1648C82.9945 10.1415 83.284 9.05744 83.6545 7.74029C84.025 6.42314 84.3261 5.28083 84.3377 5.19924C84.3377 5.09433 83.724 5.05937 81.6746 5.05937C79.6367 5.05937 78.9883 5.09433 78.9536 5.19924Z" fill="#D3E9F9"/>
<path d="M5.16372 6.53868C4.97846 7.17977 0.856445 22.6592 0.856445 22.7175C0.856445 22.8224 7.32894 22.7758 7.38683 22.6825C7.43315 22.6009 8.12787 20.0249 8.9268 16.971C9.03101 16.5747 9.14679 16.2483 9.18153 16.2599C9.21626 16.2599 9.96888 17.7286 10.8373 19.5237L12.4351 22.7758H16.3487C18.5024 22.7758 20.2971 22.7408 20.3434 22.7058C20.3781 22.6709 20.1234 22.158 19.7876 21.5752C18.2013 18.8127 16.3603 15.5256 16.3951 15.5023C16.4182 15.4906 17.0782 15.1526 17.8771 14.768C20.0655 13.6956 21.235 12.5067 21.6402 10.9447C22.3118 8.32208 21.0497 6.65525 18.0508 6.22397C17.5992 6.16569 14.554 6.1074 11.2657 6.1074H5.29109L5.16372 6.53868ZM13.8709 10.0822C14.4846 10.257 14.9825 10.7699 14.9825 11.2245C14.9825 12.2735 14.2877 12.9846 12.7593 13.4974C12.0067 13.7539 9.92257 14.0802 9.78362 13.952C9.73731 13.9171 10.6173 10.6417 10.8373 10.0822C10.9415 9.80242 10.9415 9.80242 12.1804 9.87235C12.8636 9.91898 13.6277 10.0122 13.8709 10.0822Z" fill="#D3E9F9"/>
<path d="M28.6214 8.7883C25.8657 9.23124 23.7236 10.4901 22.4268 12.425C21.3847 13.9986 20.9563 15.5489 21.0258 17.5304C21.0837 19.0691 21.4195 19.9083 22.3342 20.7825C23.3531 21.75 24.4531 22.2046 26.4215 22.426C29.0614 22.7408 31.9561 22.053 33.8202 20.6893L34.3066 20.3396L33.9939 19.6635C33.7045 19.0458 33.6813 18.8709 33.6929 17.647C33.7045 15.2925 34.515 13.1011 35.9391 11.5392L36.4023 11.0379L35.9391 10.5134C35.395 9.88398 34.1908 9.21958 33.1487 8.96315C32.2687 8.74168 29.5477 8.63677 28.6214 8.7883ZM30.8561 12.4367C31.6203 12.9379 31.8056 13.8238 31.5392 15.5256C31.2614 17.2041 30.4045 18.5212 29.3972 18.801C28.2972 19.104 27.232 18.8709 26.7572 18.2182C26.132 17.3556 26.5488 14.5465 27.4983 13.2177C28.2046 12.2385 29.953 11.8306 30.8561 12.4367Z" fill="#D3E9F9"/>
<path d="M103.698 9.01047C102.343 9.12703 101.209 9.25525 101.162 9.30188C101.104 9.36016 100.444 12.1926 100.479 12.2509C100.491 12.2509 100.931 12.1576 101.475 12.0294C102.065 11.9012 103.119 11.7846 104.092 11.738C105.551 11.6797 105.817 11.7031 106.535 11.9245C107.936 12.3441 108.642 13.3932 108.503 14.8619C108.364 16.4122 107.102 17.6827 105.284 18.1023C104.404 18.3121 102.517 18.2538 101.22 17.9857C99.1244 17.5545 99.4371 17.4262 98.6497 19.0581C98.2097 19.9556 97.7813 20.6783 97.4687 21.0047C97.0287 21.4593 96.9592 21.4943 96.7277 21.3777C96.4729 21.2378 96.4729 21.1795 96.5308 20.282C96.635 18.9299 97.6424 14.9668 98.9855 10.6657C99.2055 9.93131 99.3792 9.32519 99.3676 9.31353C99.3444 9.29022 98.395 9.32519 97.2487 9.37181C96.1024 9.43009 94.7361 9.47672 94.2151 9.47672L93.254 9.48837V10.0129V10.5374H94.2961C95.0256 10.5374 95.3382 10.5841 95.3382 10.6773C95.3382 10.7472 95.0256 11.8662 94.6435 13.1484C94.273 14.4423 93.833 16.0158 93.6709 16.6569C92.8604 19.9207 93.0109 21.739 94.1224 22.4267C95.014 22.9862 96.635 22.4617 98.0129 21.1679L98.6729 20.5618L98.5687 21.0163C98.1518 22.9163 97.4108 26.3665 97.3876 26.5414C97.3645 26.7395 97.515 26.7512 99.796 26.7395C101.128 26.7395 102.228 26.7162 102.251 26.7046C102.262 26.6813 102.459 25.7837 102.691 24.6997C102.911 23.604 103.119 22.6016 103.154 22.4501C103.212 22.2053 103.258 22.1936 104.81 22.1936C108.874 22.182 111.05 21.5525 112.672 19.8857C113.98 18.5452 114.871 16.2839 114.987 13.9644C115.219 9.59328 112.232 8.28779 103.698 9.01047Z" fill="#D3E9F9"/>
</svg>
