<svg width="112" height="27" viewBox="0 0 112 27" fill="none" xmlns="http://www.w3.org/2000/svg">
<path d="M64.9655 1.20734C64.0066 2.23017 62.2855 2.80395 59.2613 3.10332C54.8848 3.52741 53.2128 4.25088 51 6.67074C48.5413 9.36501 47.6316 13.4064 48.5905 17.1485C49.0822 19.0694 49.7706 20.3916 50.9508 21.6888C55.0569 26.2042 61.7446 26.1543 65.7031 21.589C67.7439 19.244 68.5306 16.7992 68.334 13.2817C68.211 11.3857 68.0635 10.787 67.3259 9.24028C66.8341 8.2424 65.8998 6.89526 65.2606 6.24664C64.5229 5.47328 64.2033 4.99929 64.4 4.92445C65.0147 4.67498 67.0062 3.22805 67.2521 2.80395C67.4488 2.45469 67.3505 2.20522 66.662 1.48176C66.1949 1.00777 65.7523 0.608616 65.6785 0.608616C65.5802 0.608616 65.2606 0.883032 64.9655 1.20734ZM60.9086 6.27158C62.6297 6.87031 64.9409 9.24028 65.5802 11.0864C67.9651 18.0965 61.4741 24.8571 55.229 21.8635C50.0657 19.3688 48.9101 12.184 53.0161 8.09271C55.1552 5.94727 58.0565 5.2737 60.9086 6.27158Z" fill="#D3E9F9"/>
<path d="M56.5573 8.24237C55.1558 8.66647 53.3117 10.5874 52.9184 11.9844C52.2053 14.554 52.7217 16.9239 54.3198 18.5455C56.7785 21.0152 60.3929 20.8905 62.6303 18.2461C64.2776 16.2753 64.5727 13.6559 63.3925 11.3108C62.8024 10.1383 62.3352 9.93876 61.8927 10.6622C61.6714 11.0614 61.7697 11.261 62.6057 11.9595C63.7613 12.9574 63.6138 13.3066 62.2369 12.7328C61.696 12.5083 61.2042 12.3337 61.1305 12.3337C61.0813 12.3337 60.8846 12.7827 60.7371 13.3316C60.565 13.8804 60.2945 14.4542 60.0978 14.6039C59.8273 14.8284 59.7782 14.6288 59.7782 13.4812V12.0842H58.5242C57.049 12.0842 56.9998 11.6601 58.4259 11.1612C58.9422 10.9865 59.4094 10.787 59.4831 10.7371C59.5323 10.6622 59.434 9.98866 59.2618 9.24025C58.9914 7.96795 58.893 7.84322 58.3275 7.86816C57.9833 7.86816 57.1719 8.04279 56.5573 8.24237Z" fill="#D3E9F9"/>
<path d="M59.5322 8.2176C59.5322 8.34234 60.1961 9.41506 60.6632 10.0637C60.7124 10.1136 61.032 9.96389 61.4009 9.71442L62.0647 9.29033L61.3517 8.84128C60.5157 8.31739 59.5322 7.99308 59.5322 8.2176Z" fill="#D3E9F9"/>
<path d="M2.98171 4.55001C1.35896 5.39821 0.695104 6.54577 0.695104 8.51658C0.695104 10.6121 1.94905 11.9593 4.67823 12.7326C5.44043 12.9571 6.66979 13.3064 7.4074 13.506C8.26795 13.7555 9.05474 14.2045 9.59566 14.7533C10.3087 15.4768 10.407 15.7013 10.2841 16.4996C10.0136 18.196 8.68593 19.0692 6.42391 19.0692C4.01437 19.0692 1.99822 17.6222 1.99822 15.8759C1.99822 15.402 1.87529 15.3271 1.01474 15.3271C0.252535 15.3271 0.03125 15.4269 0.03125 15.7512C0.03125 17.4975 1.55565 19.7677 3.203 20.4662C4.40777 20.9901 7.06318 21.1897 8.29254 20.8404C9.62025 20.4911 10.825 19.6429 11.5135 18.5952C11.956 17.9216 12.079 17.3977 12.079 16.1254C12.079 13.2565 11.0709 12.3584 6.54685 11.0861C3.32593 10.1631 2.48997 9.61425 2.48997 8.3669C2.48997 6.19651 5.6863 4.94916 8.21878 6.12167C8.85804 6.42103 9.86612 7.99269 9.86612 8.69121C9.86612 8.99057 10.112 9.09036 10.8496 9.09036C11.7102 9.09036 11.8331 9.01552 11.8331 8.51658C11.8331 8.19227 11.538 7.31913 11.1692 6.57071C10.6037 5.4481 10.2595 5.09884 9.15309 4.52506C7.23529 3.55213 4.82575 3.55213 2.98171 4.55001Z" fill="#D3E9F9"/>
<path d="M74.2849 4.07622C72.9326 4.37558 72.0475 4.89947 71.2607 5.89735C69.7854 7.76837 70.2526 10.3629 72.3917 12.159C74.6783 14.08 76.006 15.5518 76.006 16.1755C76.006 17.6973 73.8177 17.9966 70.4247 16.9489C69.9084 16.7742 69.8838 16.7992 70.1297 17.6973C70.2772 18.2212 70.3263 19.0195 70.228 19.4685C70.1051 20.2169 70.1542 20.3167 70.7689 20.4913C71.1377 20.5911 72.7851 20.6909 74.4078 20.6909C76.9895 20.6909 77.4812 20.6161 78.3909 20.1421C79.5957 19.4935 80.2842 18.5704 80.653 17.1983C81.1693 15.2026 80.4317 14.0051 76.5469 10.5874C75.6126 9.73919 75.2684 9.26519 75.2684 8.76625C75.2684 7.71848 76.1781 7.26943 78.0467 7.41912C78.8827 7.49396 79.817 7.61869 80.1366 7.71848C80.653 7.89311 80.6775 7.84321 80.653 6.82039C80.653 5.82251 80.5546 5.64788 79.4974 4.87452C78.5139 4.15106 78.1205 4.02632 76.7436 3.95148C75.8585 3.90159 74.752 3.97643 74.2849 4.07622Z" fill="#D3E9F9"/>
<path d="M14.3651 5.99706C13.9963 6.59578 13.9963 6.72052 14.3159 7.31925C14.7093 8.04271 15.8158 8.31713 16.4058 7.81819C16.6025 7.6685 16.7501 7.21946 16.7501 6.82031C16.7501 5.37338 15.1519 4.7996 14.3651 5.99706Z" fill="#D3E9F9"/>
<path d="M83.824 8.11781L83.7503 9.46495L82.8406 9.53979L81.9062 9.61463V10.9618C81.9062 12.284 81.9062 12.3089 82.693 12.3837L83.4552 12.4586L83.3569 14.7038C83.2094 18.6454 83.2585 19.5186 83.7503 20.0674C84.4141 20.7909 85.9385 21.1401 87.7334 20.9406C89.2086 20.7909 89.2824 20.741 89.2824 20.1173C89.2824 19.7431 89.3808 19.0945 89.5037 18.6454C89.725 17.8721 89.725 17.8721 88.9382 17.9968C87.6105 18.2213 87.2908 17.5727 87.3646 14.8036L87.4384 12.4586L88.594 12.3837L89.725 12.3089L89.8233 10.9368L89.8971 9.58968H88.7415H87.5613V8.34233V7.09498L86.5286 7.14487C85.9385 7.16982 85.1272 7.09498 84.6846 6.99519L83.8978 6.79562L83.824 8.11781Z" fill="#D3E9F9"/>
<path d="M109.297 9.81429C108.855 10.0887 108.437 10.413 108.363 10.5627C108.092 11.0117 107.724 10.887 107.724 10.3631C107.724 9.93903 107.502 9.86419 105.904 9.78934L104.109 9.7145L103.937 14.7039C103.839 17.4481 103.691 19.9428 103.617 20.2421C103.495 20.791 103.544 20.8159 105.535 20.8159H107.601L107.65 18.1466C107.699 14.18 108.51 12.8329 110.797 12.8329H111.707L111.535 11.2612C111.436 10.413 111.338 9.68956 111.313 9.66461C111.313 9.63966 111.018 9.56482 110.674 9.48998C110.281 9.39019 109.789 9.48998 109.297 9.81429Z" fill="#D3E9F9"/>
<path d="M14.292 15.3773V21.1899L15.5214 21.1151L16.7507 21.0153V15.3024V9.58959H15.5214H14.292V15.3773Z" fill="#D3E9F9"/>
<path d="M21.6434 10.288C17.9799 12.2339 17.6849 17.6973 21.1271 20.1421C22.1597 20.8656 22.4548 20.9404 24.0038 20.9404C25.2823 20.9404 25.897 20.8157 26.4133 20.4664C26.7821 20.2169 27.1509 20.0673 27.2493 20.1421C27.323 20.2169 27.2984 20.8157 27.2247 21.4394C26.905 23.51 25.0856 24.907 23.2907 24.4579C22.3318 24.2085 21.2008 23.1108 20.9058 22.1129C20.6599 21.2148 20.6107 21.1899 19.6518 21.2647C18.6683 21.3645 18.6683 21.3895 18.7913 22.2377C19.0126 23.5598 20.0944 25.2313 21.2254 26.0047C22.1105 26.5784 22.5039 26.6782 24.0283 26.6782C25.6019 26.6782 25.9216 26.6034 26.8559 25.9298C27.5197 25.4558 28.1836 24.6825 28.6016 23.8343L29.29 22.5121V16.0508V9.58953H28.3065C27.4951 9.58953 27.323 9.66437 27.323 10.0885C27.323 10.6872 27.3722 10.6872 26.0691 10.0885C24.5447 9.38995 23.217 9.46479 21.6434 10.288ZM25.9707 12.6081C27.5689 14.055 27.6427 16.45 26.0937 17.9468C25.4298 18.5954 25.1348 18.6952 24.0038 18.6952C22.8727 18.6952 22.5777 18.5954 21.9139 17.9468C20.3157 16.4001 20.3649 14.1049 22.0368 12.6081C23.2661 11.5104 24.7414 11.5104 25.9707 12.6081Z" fill="#D3E9F9"/>
<path d="M31.675 9.76395C31.5767 9.83879 31.5029 12.4333 31.5029 15.5018V21.0649H32.6094H33.7158V17.1732V13.2815L34.4288 12.558C34.8714 12.1339 35.4123 11.8346 35.8057 11.8346C36.1991 11.8346 36.74 12.1339 37.1826 12.558L37.8956 13.2815V17.1732V21.0649H39.002H40.1084V17.1732V13.2815L40.8215 12.558C41.7558 11.61 42.6409 11.61 43.5752 12.558L44.2883 13.2815V17.1732V21.0649H45.3947H46.5011V17.3728C46.5011 13.3314 46.3044 12.2337 45.3455 11.0861C43.8949 9.31491 41.5837 9.11533 39.6659 10.6121C39.1004 11.0362 39.0758 11.0362 37.9448 10.3128C36.6171 9.46459 35.6336 9.38975 34.5272 10.0883C33.7158 10.5872 33.7158 10.5872 33.7158 10.0883C33.7158 9.68911 33.5437 9.58932 32.7815 9.58932C32.2651 9.58932 31.7488 9.66416 31.675 9.76395Z" fill="#D3E9F9"/>
<path d="M94.4462 9.88891C92.7988 10.1883 92.7251 10.2631 92.4792 11.5853C92.3071 12.5582 92.3317 12.6081 92.8234 12.4584C96.2165 11.4606 97.8884 11.5354 97.8884 12.683C97.8884 13.5062 97.5687 13.7058 95.1838 14.3295C92.9955 14.9033 91.8153 15.502 91.3482 16.2504C90.4139 17.7722 90.9302 19.9924 92.3563 20.666C93.1922 21.0652 95.2576 21.1899 96.6344 20.9155C97.1508 20.7907 97.3966 20.6161 97.3966 20.2918C97.3966 20.0174 97.5196 19.8178 97.6425 19.8178C97.79 19.8178 97.8884 20.0423 97.8884 20.3168C97.8884 20.7658 98.0605 20.8157 99.7324 20.8157C101.331 20.8157 101.576 20.7658 101.576 20.3666C101.576 20.1421 101.699 18.1464 101.847 15.976C102.142 11.4855 101.994 10.8369 100.74 10.1633C99.8062 9.66438 96.3886 9.5147 94.4462 9.88891ZM97.9867 17.2483C97.913 17.9218 97.79 18.5206 97.7163 18.6204C97.6671 18.7201 97.1262 18.8698 96.5361 18.9696C95.2821 19.1442 94.692 18.8199 94.692 17.9468C94.692 17.2483 95.0854 16.899 96.4377 16.4749C98.1588 15.9261 98.1834 15.9261 97.9867 17.2483Z" fill="#D3E9F9"/>
</svg>
