<svg width="111" height="17" viewBox="0 0 111 17" fill="none" xmlns="http://www.w3.org/2000/svg">
<path d="M7.03851 4.74076C7.88641 4.70851 8.99965 4.70027 10.4595 4.70027C15.8105 4.70027 15.8105 4.70027 16.575 3.13521C16.9866 2.24933 17.31 1.39298 17.31 1.2158C17.31 0.613588 4.39016 0.226772 2.28652 2.25685C1.88591 2.6223 1.55945 3.04089 1.3108 3.49408C0.227373 5.37261 0.501441 7.64206 2.25646 9.42498C3.31491 10.4585 4.10875 10.6062 9.07759 10.6062C13.6054 10.6062 14.017 10.6652 14.5169 11.1967C14.5201 11.2003 14.5233 11.2039 14.5266 11.2075C16.0864 12.9439 8.60209 12.6728 8.4892 12.6728C6.9666 12.6728 5.78336 12.6819 4.8648 12.7171C4.26671 12.7396 3.78045 12.8198 3.38566 12.9315C2.02334 13.3171 0.487418 14.7253 0.933397 16.0691C1.04344 16.3393 3.33487 16.4971 6.08852 16.5425C9.17159 16.6655 12.8858 16.5937 14.7019 16.2677C18.2579 15.8085 19.693 10.9256 17.1336 8.42098C15.8105 7.12169 14.1346 6.76733 9.40101 6.76733C4.96139 6.76733 4.37336 6.67874 4.37336 5.91098C4.37336 5.11722 4.73369 4.84953 7.03851 4.74076Z" fill="#D3E9F9"/>
<path fill-rule="evenodd" clip-rule="evenodd" d="M35.0378 3.09661C38.7852 6.56216 38.4357 11.1798 35.5108 14.0047C31.2354 18.4088 22.562 17.5573 19.9256 11.8076C19.3267 10.5174 19.1975 9.08071 19.445 7.69212C19.769 4.98736 21.5433 2.51511 24.5415 1.3839C27.5992 0.232253 32.8915 1.08861 35.0378 3.09661ZM33.1971 11.119C34.327 9.10935 34.0922 6.69402 32.3047 5.46865C31.2968 4.78069 28.4699 4.61484 27.3065 4.58277C25.1899 4.86679 23.9922 6.03633 23.2281 7.5621C21.5621 11.3412 26.3563 13.5223 29.2176 13.1463C30.4426 12.8857 32.4622 12.1101 33.1971 11.119Z" fill="#D3E9F9"/>
<path d="M38.8018 8.94383C38.8018 4.80971 38.9194 1.8863 39.0958 1.53195C39.1315 1.46613 39.0958 1.48206 39.2146 1.33441C39.2146 1.33441 39.3616 1.18677 39.5087 1.18677C44.3874 1.18677 53.4818 -0.987931 55.0796 5.43912C55.2923 6.25813 55.3351 7.07698 55.2162 7.85782C54.849 11.2481 52.4569 12.7976 47.4752 12.9598C43.506 13.078 43.1532 12.7827 44.388 10.5089C45.1819 9.03242 45.3583 8.94383 48.2396 8.94383C51.1798 8.94383 52.591 7.67407 51.5032 5.99089C51.0438 5.29874 50.4875 5.07666 49.6777 4.87272C48.1479 4.73038 44.7655 4.18471 43.5572 5.274C42.918 5.85027 42.918 7.14181 42.918 10.0364C42.918 14.228 42.918 15.4147 42.3525 15.8364C41.7807 16.2627 40.1134 16.4924 39.5216 16.1345C38.789 15.6915 38.8018 14.0052 38.8018 8.94383Z" fill="#D3E9F9"/>
<path d="M56.5615 1.35275C56.5027 1.55946 56.4733 4.89628 56.5027 8.79417C56.5909 15.8812 56.5909 15.8812 58.2962 15.9698C59.5017 16.0289 59.9721 15.9403 60.0015 15.6745C60.0897 13.3122 59.9427 1.44134 59.7957 1.23464C59.5605 0.821224 56.738 0.909813 56.5615 1.35275Z" fill="#D3E9F9"/>
<path d="M68.4384 3.83717C68.3502 6.73106 68.3502 6.73106 64.7633 6.81964C60.6177 6.90823 60.5589 6.96729 61.8525 9.30012C62.5582 10.5699 62.5582 10.5699 65.3513 10.6585C68.5855 10.7471 68.4972 10.6585 68.4972 14.0248C68.4972 16.0328 68.4972 16.0328 70.2319 16.0328C72.4076 16.0328 72.29 16.5644 72.2606 8.50282C72.2312 0.884232 72.2606 0.97282 70.1143 0.97282C68.5266 0.97282 68.5266 0.97282 68.4384 3.83717Z" fill="#D3E9F9"/>
<path d="M78.9344 1.38351C80.3162 0.851981 90.5185 0.851981 90.7244 1.38351C91.0172 2.06987 89.7392 3.8854 89.1745 4.32843C88.562 4.80892 87.5759 4.80892 84.4618 4.80892C81.2313 4.80892 79.0763 5.28339 77.9645 6.26499C76.8793 7.80642 76.9536 9.13071 77.7583 10.8329C78.9344 13.2839 87.0198 13.7268 87.0198 11.3349C87.0198 11.1577 86.4317 11.0101 85.6085 11.0101C84.1384 11.0101 83.7856 10.8034 82.9918 9.32692C81.9921 7.52563 82.1685 7.43704 87.108 7.52563C91.577 7.61422 91.577 7.61422 91.6652 9.23834C91.871 13.461 88.5486 16.2663 83.0506 16.5321C78.3814 16.7683 73.4951 14.0704 73.4951 8.79539C73.4951 7.0993 74.2815 4.84677 75.5139 3.64435C76.381 2.64735 77.7208 1.84278 78.9344 1.38351Z" fill="#D3E9F9"/>
<path fill-rule="evenodd" clip-rule="evenodd" d="M98.0163 1.44245C92.0478 3.56857 91.254 12.4569 96.7226 15.4689C102.262 18.4897 108.72 16.2959 110.486 11.5035C110.62 11.3293 110.71 11.0356 110.765 10.5597C110.89 9.99958 110.956 9.41031 110.953 8.79527C110.953 8.19806 110.89 7.62435 110.77 7.07761C110.714 6.55935 110.62 6.24881 110.475 6.07089C110.321 5.65675 110.133 5.26174 109.913 4.88771C109.796 4.39566 109.425 3.92948 108.873 3.50719C106.459 0.957513 102.262 -0.0559016 98.0163 1.44245ZM107.566 7.83203C107.294 7.04822 106.738 6.24621 105.866 5.48768C104.073 3.95215 98.3395 4.69039 97.1928 6.6098C96.4888 7.81298 96.3255 8.94448 96.6186 9.90185C96.6504 9.96754 96.6758 10.0416 96.6936 10.1178C97.317 11.7193 99.2738 12.7815 102.132 12.7815C104.432 12.7815 106.126 12.0503 107.027 10.9601C107.054 10.8602 107.117 10.7831 107.192 10.7434C107.325 10.555 107.435 10.3574 107.522 10.1523C107.572 9.80984 107.601 9.33456 107.601 8.79429C107.601 8.439 107.588 8.11182 107.566 7.83203Z" fill="#D3E9F9"/>
</svg>
