<svg width="24" height="24" viewBox="0 0 24 24" fill="none" xmlns="http://www.w3.org/2000/svg">
<path d="M8.86471 6.26667C8.58856 6.26667 8.36471 6.04281 8.36471 5.76667L8.36471 5.63333C8.36471 5.35719 8.14085 5.13333 7.86471 5.13333H4.61765C4.3415 5.13333 4.11765 5.35719 4.11765 5.63333V19.3667C4.11765 19.6428 4.3415 19.8667 4.61765 19.8667H20.3824C20.6585 19.8667 20.8824 19.6428 20.8824 19.3667V6.76667C20.8824 6.49052 20.6585 6.26667 20.3824 6.26667H8.86471ZM22 6.26667V20.5C22 20.7761 21.7761 21 21.5 21H3.5C3.22386 21 3 20.7761 3 20.5V4.5C3 4.22386 3.22386 4 3.5 4H8.64706C8.9232 4 9.14706 4.22386 9.14706 4.5V4.63333C9.14706 4.90948 9.37092 5.13333 9.64706 5.13333H21.5C21.7761 5.13333 22 5.35719 22 5.63333V6.26667Z" fill="#061926" stroke="#061926" stroke-width="0.5"/>
<rect x="14" y="13" width="4" height="4" rx="0.5" stroke="#061926" stroke-width="1.5"/>
</svg>
