<svg width="24" height="24" viewBox="0 0 24 24" fill="none" xmlns="http://www.w3.org/2000/svg">
<path d="M4.48802 16.4532H2.35742C1.95531 16.4532 1.62817 16.7805 1.62817 17.1829V19.3224C1.62817 19.7247 1.95531 20.0521 2.35742 20.0521H4.48802C4.89013 20.0521 5.21724 19.7248 5.21724 19.3224V17.1829C5.21727 16.7805 4.89013 16.4532 4.48802 16.4532ZM4.01671 18.8516H2.82875V17.6537H4.01671V18.8516ZM7.63334 6.17722H21.7964C22.1279 6.17722 22.3967 5.90846 22.3967 5.57695C22.3967 5.24545 22.1279 4.97669 21.7964 4.97669H7.63334C7.30182 4.97669 7.03308 5.24545 7.03308 5.57695C7.03308 5.90846 7.30182 6.17722 7.63334 6.17722ZM3.35714 5.95872L2.55507 5.15335L1.70439 6.00053L3.35714 7.66006L6.23722 4.76805L5.38655 3.9209L3.35714 5.95872ZM21.7932 11.3145H7.63015C7.29862 11.3145 7.02989 11.5833 7.02989 11.9148C7.02989 12.2463 7.29865 12.5151 7.63015 12.5151H21.7932C22.1247 12.5151 22.3935 12.2463 22.3935 11.9148C22.3935 11.5833 22.1247 11.3145 21.7932 11.3145ZM21.7932 17.6524H7.63015C7.29862 17.6524 7.02989 17.9211 7.02989 18.2526C7.02989 18.5842 7.29865 18.8529 7.63015 18.8529H21.7932C22.1247 18.8529 22.3935 18.5842 22.3935 18.2526C22.3935 17.9211 22.1247 17.6524 21.7932 17.6524ZM4.48802 10.1153H2.35742C1.95531 10.1153 1.62817 10.4427 1.62817 10.8451V12.9845C1.62817 13.3869 1.95531 13.7143 2.35742 13.7143H4.48802C4.89013 13.7143 5.21724 13.3869 5.21724 12.9845V10.8451C5.21727 10.4427 4.89013 10.1153 4.48802 10.1153ZM4.01671 12.5137H2.82875V11.3159H4.01671V12.5137Z" fill="#061926" stroke="#061926" stroke-width="0.5"/>
</svg>
