<svg width="24" height="24" viewBox="0 0 24 24" fill="none" xmlns="http://www.w3.org/2000/svg">
<mask id="path-1-outside-1_2755_8282" maskUnits="userSpaceOnUse" x="1.63184" y="2.30371" width="21" height="19" fill="black">
<rect fill="white" x="1.63184" y="2.30371" width="21" height="19"/>
<path d="M20.9189 18.0858H12.7954C12.5989 17.0943 11.7405 16.3466 10.713 16.3466C9.68409 16.3466 8.82575 17.0943 8.6287 18.0858H3.05709C2.82239 18.0858 2.63188 18.2804 2.63188 18.5209C2.63188 18.7614 2.82242 18.9561 3.05709 18.9561H8.62825C8.82529 19.9476 9.68363 20.6952 10.7125 20.6952C11.7405 20.6952 12.5989 19.9475 12.795 18.9561H20.9184C21.1531 18.9561 21.3436 18.7614 21.3436 18.5209C21.3436 18.2804 21.1536 18.0858 20.9189 18.0858ZM10.7125 19.824C10.0075 19.824 9.43592 19.241 9.43592 18.5209C9.43592 17.8008 10.0075 17.2168 10.7125 17.2168C11.4166 17.2168 11.9877 17.8008 11.9877 18.5209C11.9877 19.241 11.4166 19.824 10.7125 19.824ZM3.05705 5.91229H5.2264C5.42344 6.9047 6.28088 7.65148 7.30931 7.65148C8.33774 7.65148 9.19563 6.90425 9.39267 5.91229H20.9184C21.1531 5.91229 21.3436 5.71812 21.3436 5.4776C21.3436 5.23755 21.1531 5.04244 20.9184 5.04244H9.39315C9.1961 4.05094 8.33867 3.30371 7.30978 3.30371C6.2809 3.30371 5.42392 4.05142 5.22688 5.0429H3.05705C2.82235 5.0429 2.63184 5.23801 2.63184 5.47805C2.63184 5.71856 2.82237 5.91227 3.05705 5.91227M7.30978 4.17354C8.01431 4.17354 8.58545 4.75796 8.58545 5.47805C8.58545 6.19815 8.01429 6.78211 7.30978 6.78211C6.60478 6.78211 6.03364 6.19817 6.03364 5.47805C6.03364 4.75796 6.60526 4.17354 7.30978 4.17354ZM20.9189 11.5646H19.5995C19.4025 10.5722 18.545 9.82491 17.5166 9.82491C16.4882 9.82491 15.6298 10.5722 15.4332 11.5646H3.05707C2.82237 11.5646 2.63186 11.7588 2.63186 11.9988C2.63186 12.2393 2.82239 12.4339 3.05707 12.4339H15.4328C15.6298 13.4259 16.4877 14.1732 17.5161 14.1732C18.5446 14.1732 19.4025 13.4254 19.599 12.4339H20.9184C21.1531 12.4339 21.3436 12.2393 21.3436 11.9988C21.3441 11.7587 21.1535 11.5646 20.9189 11.5646M17.5166 13.3033C16.8112 13.3033 16.2409 12.7194 16.2409 11.9988C16.2409 11.2787 16.8116 10.6943 17.5166 10.6943C18.2216 10.6943 18.7923 11.2787 18.7923 11.9988C18.7923 12.7194 18.2211 13.3033 17.5166 13.3033Z"/>
</mask>
<path d="M20.9189 18.0858H12.7954C12.5989 17.0943 11.7405 16.3466 10.713 16.3466C9.68409 16.3466 8.82575 17.0943 8.6287 18.0858H3.05709C2.82239 18.0858 2.63188 18.2804 2.63188 18.5209C2.63188 18.7614 2.82242 18.9561 3.05709 18.9561H8.62825C8.82529 19.9476 9.68363 20.6952 10.7125 20.6952C11.7405 20.6952 12.5989 19.9475 12.795 18.9561H20.9184C21.1531 18.9561 21.3436 18.7614 21.3436 18.5209C21.3436 18.2804 21.1536 18.0858 20.9189 18.0858ZM10.7125 19.824C10.0075 19.824 9.43592 19.241 9.43592 18.5209C9.43592 17.8008 10.0075 17.2168 10.7125 17.2168C11.4166 17.2168 11.9877 17.8008 11.9877 18.5209C11.9877 19.241 11.4166 19.824 10.7125 19.824ZM3.05705 5.91229H5.2264C5.42344 6.9047 6.28088 7.65148 7.30931 7.65148C8.33774 7.65148 9.19563 6.90425 9.39267 5.91229H20.9184C21.1531 5.91229 21.3436 5.71812 21.3436 5.4776C21.3436 5.23755 21.1531 5.04244 20.9184 5.04244H9.39315C9.1961 4.05094 8.33867 3.30371 7.30978 3.30371C6.2809 3.30371 5.42392 4.05142 5.22688 5.0429H3.05705C2.82235 5.0429 2.63184 5.23801 2.63184 5.47805C2.63184 5.71856 2.82237 5.91227 3.05705 5.91227M7.30978 4.17354C8.01431 4.17354 8.58545 4.75796 8.58545 5.47805C8.58545 6.19815 8.01429 6.78211 7.30978 6.78211C6.60478 6.78211 6.03364 6.19817 6.03364 5.47805C6.03364 4.75796 6.60526 4.17354 7.30978 4.17354ZM20.9189 11.5646H19.5995C19.4025 10.5722 18.545 9.82491 17.5166 9.82491C16.4882 9.82491 15.6298 10.5722 15.4332 11.5646H3.05707C2.82237 11.5646 2.63186 11.7588 2.63186 11.9988C2.63186 12.2393 2.82239 12.4339 3.05707 12.4339H15.4328C15.6298 13.4259 16.4877 14.1732 17.5161 14.1732C18.5446 14.1732 19.4025 13.4254 19.599 12.4339H20.9184C21.1531 12.4339 21.3436 12.2393 21.3436 11.9988C21.3441 11.7587 21.1535 11.5646 20.9189 11.5646M17.5166 13.3033C16.8112 13.3033 16.2409 12.7194 16.2409 11.9988C16.2409 11.2787 16.8116 10.6943 17.5166 10.6943C18.2216 10.6943 18.7923 11.2787 18.7923 11.9988C18.7923 12.7194 18.2211 13.3033 17.5166 13.3033Z" fill="#061926"/>
<path d="M12.7954 18.0858L12.5012 18.1441L12.5491 18.3858H12.7954V18.0858ZM8.6287 18.0858V18.3858H8.87495L8.92295 18.1442L8.6287 18.0858ZM8.62825 18.9561L8.92249 18.8976L8.8745 18.6561H8.62825V18.9561ZM12.795 18.9561V18.6561H12.5485L12.5007 18.8978L12.795 18.9561ZM5.2264 5.91229L5.52066 5.85386L5.47269 5.61229H5.2264V5.91229ZM9.39267 5.91229V5.61229H9.14641L9.09842 5.85384L9.39267 5.91229ZM9.39315 5.04244L9.0989 5.10092L9.1469 5.34244H9.39315V5.04244ZM5.22688 5.0429V5.3429H5.47312L5.52112 5.10138L5.22688 5.0429ZM19.5995 11.5646L19.3053 11.623L19.3532 11.8646H19.5995V11.5646ZM15.4332 11.5646V11.8646H15.6796L15.7275 11.6229L15.4332 11.5646ZM15.4328 12.4339L15.727 12.3755L15.679 12.1339H15.4328V12.4339ZM19.599 12.4339V12.1339H19.3527L19.3048 12.3756L19.599 12.4339ZM21.3436 11.9988L21.0436 11.9982V11.9988H21.3436ZM20.9189 17.7858H12.7954V18.3858H20.9189V17.7858ZM13.0897 18.0274C12.8668 16.9028 11.8911 16.0466 10.713 16.0466V16.6466C11.5899 16.6466 12.331 17.2857 12.5012 18.1441L13.0897 18.0274ZM10.713 16.0466C9.53359 16.0466 8.55794 16.9027 8.33446 18.0273L8.92295 18.1442C9.09355 17.2858 9.83459 16.6466 10.713 16.6466V16.0466ZM8.6287 17.7858H3.05709V18.3858H8.6287V17.7858ZM3.05709 17.7858C2.65036 17.7858 2.33188 18.1211 2.33188 18.5209H2.93188C2.93188 18.4397 2.99443 18.3858 3.05709 18.3858V17.7858ZM2.33188 18.5209C2.33188 18.9207 2.65039 19.2561 3.05709 19.2561V18.6561C2.99444 18.6561 2.93188 18.6021 2.93188 18.5209H2.33188ZM3.05709 19.2561H8.62825V18.6561H3.05709V19.2561ZM8.334 19.0145C8.55749 20.1391 9.53313 20.9952 10.7125 20.9952V20.3952C9.83413 20.3952 9.0931 19.756 8.92249 18.8976L8.334 19.0145ZM10.7125 20.9952C11.8911 20.9952 12.8668 20.139 13.0893 19.0143L12.5007 18.8978C12.3309 19.7561 11.59 20.3952 10.7125 20.3952V20.9952ZM12.795 19.2561H20.9184V18.6561H12.795V19.2561ZM20.9184 19.2561C21.3252 19.2561 21.6436 18.9207 21.6436 18.5209H21.0436C21.0436 18.6021 20.9811 18.6561 20.9184 18.6561V19.2561ZM21.6436 18.5209C21.6436 18.1216 21.326 17.7858 20.9189 17.7858V18.3858C20.9811 18.3858 21.0436 18.4392 21.0436 18.5209H21.6436ZM10.7125 19.524C10.1789 19.524 9.73592 19.0811 9.73592 18.5209H9.13592C9.13592 19.4009 9.83612 20.124 10.7125 20.124V19.524ZM9.73592 18.5209C9.73592 17.9604 10.1792 17.5168 10.7125 17.5168V16.9168C9.83586 16.9168 9.13592 17.6411 9.13592 18.5209H9.73592ZM10.7125 17.5168C11.2446 17.5168 11.6877 17.9601 11.6877 18.5209H12.2877C12.2877 17.6414 11.5885 16.9168 10.7125 16.9168V17.5168ZM11.6877 18.5209C11.6877 19.0814 11.2449 19.524 10.7125 19.524V20.124C11.5883 20.124 12.2877 19.4006 12.2877 18.5209H11.6877ZM3.05705 6.21229H5.2264V5.61229H3.05705V6.21229ZM4.93214 5.97071C5.1556 7.09615 6.1303 7.95148 7.30931 7.95148V7.35148C6.43146 7.35148 5.69129 6.71326 5.52066 5.85386L4.93214 5.97071ZM7.30931 7.95148C8.4883 7.95148 9.46346 7.09571 9.68692 5.97074L9.09842 5.85384C8.9278 6.71278 8.18718 7.35148 7.30931 7.35148V7.95148ZM9.39267 6.21229H20.9184V5.61229H9.39267V6.21229ZM20.9184 6.21229C21.3247 6.21229 21.6436 5.87781 21.6436 5.4776H21.0436C21.0436 5.55843 20.9815 5.61229 20.9184 5.61229V6.21229ZM21.6436 5.4776C21.6436 5.07849 21.3253 4.74244 20.9184 4.74244V5.34244C20.9808 5.34244 21.0436 5.39661 21.0436 5.4776H21.6436ZM20.9184 4.74244H9.39315V5.34244H20.9184V4.74244ZM9.68739 4.98397C9.46392 3.85948 8.48924 3.00371 7.30978 3.00371V3.60371C8.18811 3.60371 8.92829 4.24241 9.0989 5.10092L9.68739 4.98397ZM7.30978 3.00371C6.13016 3.00371 5.15607 3.86013 4.93263 4.98442L5.52112 5.10138C5.69177 4.24271 6.43164 3.60371 7.30978 3.60371V3.00371ZM5.22688 4.7429H3.05705V5.3429H5.22688V4.7429ZM3.05705 4.7429C2.65011 4.7429 2.33184 5.07895 2.33184 5.47805H2.93184C2.93184 5.39706 2.99459 5.3429 3.05705 5.3429V4.7429ZM2.33184 5.47805C2.33184 5.87868 2.65118 6.21227 3.05705 6.21227V5.61227C2.99357 5.61227 2.93184 5.55843 2.93184 5.47805H2.33184ZM7.30978 4.47354C7.84228 4.47354 8.28545 4.91723 8.28545 5.47805H8.88545C8.88545 4.59869 8.18634 3.87354 7.30978 3.87354V4.47354ZM8.28545 5.47805C8.28545 6.03874 7.8424 6.48211 7.30978 6.48211V7.08211C8.18618 7.08211 8.88545 6.35756 8.88545 5.47805H8.28545ZM7.30978 6.48211C6.7766 6.48211 6.33364 6.03868 6.33364 5.47805H5.73364C5.73364 6.35765 6.43296 7.08211 7.30978 7.08211V6.48211ZM6.33364 5.47805C6.33364 4.91738 6.77714 4.47354 7.30978 4.47354V3.87354C6.43337 3.87354 5.73364 4.59854 5.73364 5.47805H6.33364ZM20.9189 11.2646H19.5995V11.8646H20.9189V11.2646ZM19.8938 11.5062C19.6703 10.3808 18.6957 9.52491 17.5166 9.52491V10.1249C18.3944 10.1249 19.1346 10.7635 19.3053 11.623L19.8938 11.5062ZM17.5166 9.52491C16.3377 9.52491 15.3619 10.3807 15.1389 11.5063L15.7275 11.6229C15.8977 10.7637 16.6387 10.1249 17.5166 10.1249V9.52491ZM15.4332 11.2646H3.05707V11.8646H15.4332V11.2646ZM3.05707 11.2646C2.65096 11.2646 2.33186 11.5989 2.33186 11.9988H2.93186C2.93186 11.9187 2.99379 11.8646 3.05707 11.8646V11.2646ZM2.33186 11.9988C2.33186 12.3986 2.65037 12.7339 3.05707 12.7339V12.1339C2.99442 12.1339 2.93186 12.08 2.93186 11.9988H2.33186ZM3.05707 12.7339H15.4328V12.1339H3.05707V12.7339ZM15.1385 12.4924C15.362 13.6174 16.3371 14.4732 17.5161 14.4732V13.8732C16.6383 13.8732 15.8976 13.2344 15.727 12.3755L15.1385 12.4924ZM17.5161 14.4732C18.6952 14.4732 19.6704 13.6169 19.8933 12.4923L19.3048 12.3756C19.1346 13.234 18.394 13.8732 17.5161 13.8732V14.4732ZM19.599 12.7339H20.9184V12.1339H19.599V12.7339ZM20.9184 12.7339C21.3251 12.7339 21.6436 12.3986 21.6436 11.9988H21.0436C21.0436 12.08 20.9811 12.1339 20.9184 12.1339V12.7339ZM21.6436 11.9994C21.6444 11.5988 21.3248 11.2646 20.9189 11.2646V11.8646C20.9823 11.8646 21.0438 11.9186 21.0436 11.9982L21.6436 11.9994ZM17.5166 13.0033C16.9833 13.0033 16.5409 12.5602 16.5409 11.9988H15.9409C15.9409 12.8786 16.6391 13.6033 17.5166 13.6033V13.0033ZM16.5409 11.9988C16.5409 11.4379 16.9837 10.9943 17.5166 10.9943V10.3943C16.6395 10.3943 15.9409 11.1195 15.9409 11.9988H16.5409ZM17.5166 10.9943C18.0495 10.9943 18.4923 11.4379 18.4923 11.9988H19.0923C19.0923 11.1195 18.3937 10.3943 17.5166 10.3943V10.9943ZM18.4923 11.9988C18.4923 12.56 18.0492 13.0033 17.5166 13.0033V13.6033C18.3931 13.6033 19.0923 12.8787 19.0923 11.9988H18.4923Z" fill="#061926" mask="url(#path-1-outside-1_2755_8282)"/>
</svg>
