<svg width="25" height="25" viewBox="0 0 25 25" fill="none" xmlns="http://www.w3.org/2000/svg">
<path fill-rule="evenodd" clip-rule="evenodd" d="M5.07369 17.0432C2.36881 14.2291 2.45735 9.75513 5.27145 7.05025C8.08555 4.34537 12.5596 4.43392 15.2645 7.24802C16.3969 8.42618 17.0397 9.8953 17.1978 11.4037L20.6204 6.93816L22.1603 8.11834L15.8548 16.3453C15.8087 16.4077 15.7613 16.4695 15.7129 16.5306L15.6267 16.643L15.6237 16.6407C15.4517 16.8489 15.266 17.0494 15.0667 17.241C12.2526 19.9459 7.77857 19.8573 5.07369 17.0432ZM14.2939 15.1927L14.1912 15.3267C14.0486 15.5065 13.8923 15.6788 13.7222 15.8423C11.6806 17.8046 8.43479 17.7404 6.47242 15.6988C4.51006 13.6572 4.5743 10.4113 6.6159 8.44898C8.6575 6.48662 11.9034 6.55086 13.8657 8.59246C15.6244 10.4222 15.7554 13.2192 14.2939 15.1927Z" fill="#48A2DF"/>
</svg>
