<svg width="23" height="15" viewBox="0 0 23 15" fill="none" xmlns="http://www.w3.org/2000/svg">
<path fill-rule="evenodd" clip-rule="evenodd" d="M5.41704 3.25327C5.68877 2.85388 6.00579 2.47648 6.36794 2.12838C9.18204 -0.576501 13.6561 -0.487959 16.3609 2.32614C17.4865 3.49716 18.1284 4.95561 18.2914 6.45441L20.7525 3.24092L22.2928 4.42056L17.1763 11.1012C16.9925 11.3809 16.7868 11.6502 16.5594 11.9067L16.5444 11.9263L16.5429 11.9252C16.4224 12.0602 16.2958 12.1916 16.1632 12.3191C13.3491 15.024 8.87506 14.9355 6.17018 12.1214C5.05228 10.9583 4.41152 9.51177 4.24311 8.02375L1.62832 11.4984L0.078125 10.3319L5.40933 3.24746L5.41704 3.25327ZM14.9622 3.67058C16.6379 5.41389 16.8358 8.03526 15.5868 9.98582L15.0654 10.6667C14.9866 10.7534 14.9044 10.838 14.8187 10.9204C12.7771 12.8828 9.53127 12.8185 7.56891 10.7769C5.60655 8.73533 5.67078 5.48947 7.71239 3.52711C9.75399 1.56475 12.9998 1.62898 14.9622 3.67058Z" fill="#48A2DF"/>
</svg>
