<svg width="284" height="174" viewBox="0 0 284 174" fill="none" xmlns="http://www.w3.org/2000/svg">
<g filter="url(#filter0_d_564_88251)">

</g>
<path d="M283.136 67.3988L233.104 37.4368C231.522 36.4894 229.743 36.0156 227.965 36.0156C226.155 36.0153 224.378 36.5065 222.825 37.4368L172.794 67.3988C171.31 68.2871 170.083 69.5446 169.23 71.0487C168.378 72.5529 167.93 74.2522 167.93 75.9811V137.126C167.93 138.882 168.392 140.607 169.27 142.128C170.148 143.649 171.411 144.912 172.931 145.79L222.963 174.675C224.511 175.569 226.238 176.016 227.965 176.016C229.692 176.016 231.419 175.569 232.967 174.675L282.998 145.79C284.519 144.912 285.782 143.649 286.66 142.128C287.538 140.607 288 138.882 288 137.126V75.9811C288 74.2522 287.552 72.5528 286.699 71.0487C285.847 69.5446 284.619 68.2871 283.136 67.3988ZM227.965 46.0189L273.13 73.0664L227.92 100.159L182.783 73.0768L227.965 46.0189ZM177.933 81.8328L222.917 108.823V163.098L177.933 137.126V81.8328ZM232.921 163.151V108.825L277.996 81.812V137.126L232.921 163.151Z" fill="#D3E9F9"/>
<path d="M24.3807 37.6509V53.3109H35.4327V55.9749H21.1767V59.5029H35.4327V65.8029H39.1767V59.5029H53.4327V55.9749H39.1767V53.3109H50.2287V37.6509H43.8207C44.7567 36.3549 45.6567 34.8789 46.4487 33.2589L42.8127 31.9629C41.9847 33.9789 41.0127 35.8509 39.8967 37.6509H32.9127L35.0367 36.5709C33.9567 34.9509 32.8047 33.4749 31.5807 32.1429L28.4487 33.6549C29.5287 34.8429 30.5727 36.1749 31.5807 37.6509H24.3807ZM46.5927 49.9989H39.1767V47.0109H46.5927V49.9989ZM35.4327 49.9989H28.0167V47.0109H35.4327V49.9989ZM28.0167 43.8429V40.9269H35.4327V43.8429H28.0167ZM39.1767 40.9269H46.5927V43.8429H39.1767V40.9269ZM86.0487 33.6909H60.5967V65.6949H64.4127V63.5349H82.2687V65.6229H86.0487V33.6909ZM64.4127 59.8989V54.2829H82.2687V59.8989H64.4127ZM64.4127 50.8629V45.6429H82.2687V50.8629H64.4127ZM64.4127 42.1869V37.2909H82.2687V42.1869H64.4127ZM102.357 35.6709C99.8367 35.6709 97.7487 36.3549 96.1287 37.7949C94.4007 39.2349 93.4647 41.2509 93.2487 43.8429H97.3887C97.5327 42.2949 98.0367 41.1429 98.9007 40.3869C99.7287 39.6309 100.881 39.2709 102.393 39.2709C103.869 39.2709 104.985 39.5949 105.741 40.2429C106.425 40.8909 106.785 41.8269 106.785 43.0869C106.785 44.3469 106.389 45.3189 105.633 45.9669C104.841 46.6149 103.689 46.9389 102.177 46.9389H100.377V50.1069H102.177C103.833 50.1069 105.093 50.4309 105.957 51.1509C106.821 51.8349 107.289 52.9149 107.289 54.3909C107.289 55.6149 106.857 56.6229 106.029 57.4509C105.093 58.3509 103.797 58.8189 102.177 58.8189C100.701 58.8189 99.5127 58.3869 98.6127 57.5589C97.6047 56.6589 97.1007 55.3629 97.0287 53.7069H92.7447C92.9607 56.5869 93.9687 58.8189 95.7687 60.3309C97.3887 61.6989 99.5487 62.3829 102.213 62.3829C105.021 62.3829 107.289 61.5909 109.017 60.0429C110.673 58.5309 111.501 56.5869 111.501 54.2109C111.501 52.6989 111.069 51.4389 110.205 50.4669C109.413 49.5309 108.225 48.8469 106.713 48.3789C109.557 47.4429 110.997 45.5709 110.997 42.7629C110.997 40.5309 110.205 38.8029 108.657 37.5429C107.073 36.2829 104.949 35.6709 102.357 35.6709ZM115.411 36.1749V61.8789H124.807C128.983 61.8789 132.115 60.7269 134.275 58.4229C136.327 56.2269 137.371 53.0949 137.371 49.0269C137.371 44.9229 136.327 41.7909 134.275 39.6309C132.115 37.3269 128.983 36.1749 124.807 36.1749H115.411ZM119.623 39.7749H124.015C127.219 39.7749 129.559 40.4949 131.035 41.9709C132.475 43.4109 133.195 45.7869 133.195 49.0269C133.195 52.1949 132.475 54.5349 131.035 56.0469C129.559 57.5229 127.219 58.2789 124.015 58.2789H119.623V39.7749ZM140.817 38.9469V42.5829H144.777C143.769 46.6509 142.149 50.2869 139.917 53.4549L141.537 57.6309C142.833 55.3269 143.949 52.8069 144.885 50.1429V65.4789H148.593V47.9109C149.205 48.9909 149.925 50.3229 150.717 51.8349L152.841 48.6309C151.437 46.9389 150.033 45.3909 148.593 43.9509V42.5829H151.869V38.9469H148.593V32.3229H144.885V38.9469H140.817ZM156.873 43.9509V45.8229H168.105V44.0229C169.185 45.0669 170.373 46.0749 171.741 47.0109L173.829 43.8429C169.221 40.5669 165.981 36.7509 164.109 32.3949H160.653C158.421 37.1109 155.253 40.9269 151.149 43.8429L153.201 47.0109C154.461 46.1469 155.685 45.1029 156.873 43.9509ZM166.521 42.3669H158.313C159.789 40.5669 161.157 38.4789 162.381 36.1029C163.425 38.3349 164.793 40.4229 166.521 42.3669ZM151.977 61.0509V64.6869H172.929V61.0509H167.997C169.293 57.3069 170.409 53.0589 171.345 48.3069L167.781 47.4069C166.773 52.7709 165.621 57.3069 164.289 61.0509H151.977ZM156.873 48.3789L153.633 49.4589C154.569 52.7349 155.397 56.1549 156.045 59.7189L159.321 58.8549C158.601 54.8949 157.809 51.4029 156.873 48.3789ZM162.201 47.0829L158.997 48.1629C159.861 51.3309 160.581 54.6069 161.157 58.0629L164.577 57.1629C163.857 53.3829 163.065 50.0349 162.201 47.0829ZM179.121 32.8269L176.601 35.2389C178.797 37.0029 180.489 38.6589 181.641 40.1709L184.089 37.7229C182.721 36.1029 181.065 34.4829 179.121 32.8269ZM178.545 41.6469L176.025 44.0589C178.149 45.9309 179.805 47.6949 180.957 49.3509L183.369 46.9029C182.073 45.1749 180.453 43.4109 178.545 41.6469ZM180.705 51.5469C179.409 55.6869 177.933 59.7549 176.205 63.7509L179.589 65.2269C181.173 61.3389 182.577 57.1989 183.873 52.8069L180.705 51.5469ZM197.769 33.9789H184.701V56.5509H188.013V37.1829H194.457V56.3349H197.769V33.9789ZM193.917 57.7029L191.685 59.8989C193.809 61.9509 195.429 63.8589 196.581 65.6589L199.101 63.1749C197.661 61.3749 195.933 59.5389 193.917 57.7029ZM189.705 39.0909V50.3589C189.597 53.5269 189.093 56.0829 188.229 58.0269C187.329 59.8269 185.601 61.3749 183.045 62.5989L184.989 65.7309C187.653 64.4709 189.597 62.6709 190.785 60.3669C192.009 57.8469 192.657 54.5349 192.801 50.3589V39.0909H189.705ZM205.005 65.3349C207.237 65.3349 208.353 64.1109 208.353 61.6989V32.5389H204.825V60.7989C204.825 61.6629 204.465 62.1309 203.781 62.1309C202.665 62.1309 201.477 62.0229 200.253 61.8789L201.045 65.3349H205.005ZM199.605 35.4909V57.6669H202.881V35.4909H199.605Z" fill="#2582C1"/>
<defs>
<filter id="filter0_d_564_88251" x="0" y="0.789062" width="292" height="181.227" filterUnits="userSpaceOnUse" color-interpolation-filters="sRGB">
<feFlood flood-opacity="0" result="BackgroundImageFix"/>
<feColorMatrix in="SourceAlpha" type="matrix" values="0 0 0 0 0 0 0 0 0 0 0 0 0 0 0 0 0 0 127 0" result="hardAlpha"/>
<feOffset dy="2"/>
<feGaussianBlur stdDeviation="2"/>
<feComposite in2="hardAlpha" operator="out"/>
<feColorMatrix type="matrix" values="0 0 0 0 0.694118 0 0 0 0 0.74902 0 0 0 0 0.792157 0 0 0 0.36 0"/>
<feBlend mode="normal" in2="BackgroundImageFix" result="effect1_dropShadow_564_88251"/>
<feBlend mode="normal" in="SourceGraphic" in2="effect1_dropShadow_564_88251" result="shape"/>
</filter>
</defs>
</svg>
