<svg width="284" height="174" viewBox="0 0 284 174" fill="none" xmlns="http://www.w3.org/2000/svg">
<g filter="url(#filter0_d_564_88226)">

</g>
<path d="M287.586 105.453C287.586 66.2393 255.8 34.4531 216.586 34.4531C177.372 34.4531 145.586 66.2393 145.586 105.453C145.586 144.667 177.372 176.453 216.586 176.453C255.8 176.453 287.586 144.667 287.586 105.453ZM152.971 105.453C152.971 70.3216 181.454 41.8377 216.586 41.8377C251.717 41.8377 280.201 70.3216 280.201 105.453C280.201 140.585 251.717 169.069 216.586 169.069C181.454 169.069 152.971 140.585 152.971 105.453Z" fill="#D3E9F9" stroke="#D3E9F9" stroke-width="2"/>
<path d="M237.158 84.8854C231.702 79.4297 224.303 76.3647 216.587 76.3647C208.872 76.3647 201.472 79.4297 196.017 84.8854C190.561 90.341 187.496 97.7405 187.496 105.456C187.496 113.171 190.561 120.571 196.017 126.027C201.472 131.482 208.872 134.547 216.587 134.547C224.303 134.547 231.702 131.482 237.158 126.027C242.614 120.571 245.678 113.171 245.678 105.456C245.678 97.7405 242.614 90.341 237.158 84.8854ZM200.742 89.6102C204.944 85.4076 210.644 83.0466 216.587 83.0466C222.531 83.0466 228.231 85.4076 232.433 89.6102C236.636 93.8127 238.997 99.5126 238.997 105.456C238.997 111.399 236.636 117.099 232.433 121.302C228.231 125.504 222.531 127.865 216.587 127.865C210.644 127.865 204.944 125.504 200.742 121.302C196.539 117.099 194.178 111.399 194.178 105.456C194.178 99.5126 196.539 93.8127 200.742 89.6102Z" fill="#D3E9F9" stroke="#D3E9F9" stroke-width="2"/>
<path d="M253.157 143.2L252.443 142.499L248.383 138.507L247.671 137.807L248.371 137.094C253.494 131.879 257.255 125.484 259.322 118.472C261.39 111.461 261.7 104.048 260.227 96.8881C258.753 89.7282 255.54 83.0409 250.871 77.4159C246.203 71.7909 240.222 67.4011 233.456 64.6334C226.69 61.8658 219.347 60.8054 212.075 61.5458C204.802 62.2861 197.824 64.8045 191.754 68.8789C185.685 72.9532 180.712 78.4583 177.272 84.9087C173.833 91.3591 172.034 98.5567 172.033 105.867L172.033 105.902L172.033 105.903L172.033 105.942C172.033 105.943 172.033 105.944 172.033 105.945L172.033 106.867H171.919C171.779 107.427 171.514 107.952 171.139 108.402C170.563 109.092 169.763 109.558 168.878 109.72L168.838 109.728L168.798 109.732L168.286 109.783L168.236 109.788L168.186 109.788C167.673 109.788 167.164 109.685 166.691 109.486C166.217 109.286 165.789 108.994 165.43 108.626C165.071 108.258 164.79 107.822 164.603 107.344C164.417 106.87 164.327 106.363 164.339 105.855C164.342 92.0017 169.846 78.717 179.642 68.9214C189.441 59.1229 202.73 53.6182 216.587 53.6182L253.157 143.2ZM253.157 143.2L253.858 142.487M253.157 143.2L253.858 142.487M253.858 142.487C261.074 135.144 265.959 125.833 267.901 115.722C269.843 105.612 268.755 95.1533 264.773 85.6594C260.792 76.1654 254.094 68.0593 245.521 62.3588C236.948 56.6583 226.882 53.6175 216.587 53.6182L253.858 142.487Z" fill="#D3E9F9" stroke="#D3E9F9" stroke-width="2"/>
<path d="M205.817 105.452C205.817 108.309 206.952 111.048 208.972 113.067C210.991 115.087 213.73 116.222 216.587 116.222C219.443 116.222 222.182 115.087 224.202 113.067C226.221 111.048 227.356 108.309 227.356 105.452C227.356 102.596 226.221 99.857 224.202 97.8373C222.182 95.8177 219.443 94.6831 216.587 94.6831C213.73 94.6831 210.991 95.8177 208.972 97.8373C206.952 99.857 205.817 102.596 205.817 105.452Z" fill="#D3E9F9"/>
<path d="M218.722 102.438L218.752 102.462L219.129 102.769L219.169 102.801L219.205 102.837L264.892 148.529C265.546 149.181 265.932 150.053 265.975 150.975C266.018 151.897 265.714 152.802 265.122 153.511C264.531 154.22 263.696 154.682 262.781 154.805C261.866 154.929 260.939 154.705 260.18 154.179L260.146 154.154L260.113 154.127L259.736 153.815L259.7 153.785L259.667 153.752L213.979 108.065C213.979 108.064 213.979 108.064 213.979 108.064C213.635 107.721 213.363 107.314 213.176 106.866C212.99 106.417 212.895 105.936 212.895 105.45C212.895 104.965 212.99 104.484 213.176 104.035C213.363 103.587 213.635 103.179 213.979 102.836L218.722 102.438ZM218.722 102.438L218.691 102.415M218.722 102.438L218.691 102.415M218.691 102.415C217.98 101.923 217.12 101.696 216.259 101.772C215.398 101.849 214.591 102.226 213.979 102.836L218.691 102.415Z" fill="#D3E9F9" stroke="#D3E9F9" stroke-width="2"/>
<path d="M174.893 67.7595C177.749 67.7595 180.489 68.8941 182.508 70.9137C184.528 72.9334 185.662 75.6726 185.662 78.5287C185.662 81.3849 184.528 84.1241 182.508 86.1437C180.489 88.1633 177.749 89.298 174.893 89.298C172.037 89.298 169.298 88.1633 167.278 86.1437C165.259 84.1241 164.124 81.3849 164.124 78.5287C164.124 75.6726 165.259 72.9334 167.278 70.9137C169.298 68.8941 172.037 67.7595 174.893 67.7595ZM262.355 40.8364C265.925 40.8364 269.349 42.2547 271.874 44.7792C274.398 47.3037 275.816 50.7277 275.816 54.298C275.816 57.8682 274.398 61.2922 271.874 63.8167C269.349 66.3412 265.925 67.7595 262.355 67.7595C258.785 67.7595 255.361 66.3412 252.836 63.8167C250.312 61.2922 248.893 57.8682 248.893 54.298C248.893 50.7277 250.312 47.3037 252.836 44.7792C255.361 42.2547 258.785 40.8364 262.355 40.8364Z" fill="#D3E9F9"/>
<path d="M50.6346 33.1284H25.1826V65.1324H28.9986V62.9724H46.8546V65.0604H50.6346V33.1284ZM28.9986 59.3364V53.7204H46.8546V59.3364H28.9986ZM28.9986 50.3004V45.0804H46.8546V50.3004H28.9986ZM28.9986 41.6244V36.7284H46.8546V41.6244H28.9986ZM62.1906 31.8324V38.2404H58.1946V41.8764H62.1546C61.0746 45.9444 59.3466 49.5804 57.0066 52.7844L58.6266 56.8884C59.9946 54.5844 61.1826 52.0644 62.1906 49.4004V65.0604H65.8986V48.2124C66.7626 49.4364 67.7346 50.9484 68.8506 52.7484L70.9746 49.5444C69.2466 47.5284 67.5546 45.6924 65.8986 44.0364V41.8764H69.6786V38.2404H65.8986V31.8324H62.1906ZM72.8466 48.2124C71.9466 52.3524 70.3986 56.2404 68.2026 59.9124L71.4786 62.0004C73.5666 58.3284 75.1506 54.0084 76.2666 48.9684L72.8466 48.2124ZM87.0306 47.8884L83.6826 49.0404C84.9426 52.9284 86.0946 57.3564 87.1746 62.3964L90.6306 60.8484C89.6226 56.2404 88.3986 51.9204 87.0306 47.8884ZM78.3186 64.6644C80.8026 64.6644 82.0626 63.4044 82.0626 60.8844V45.7644H90.4866V42.1644H69.9666V45.7644H78.3186V59.9484C78.3186 60.8844 77.8866 61.3884 77.0586 61.3884C76.0506 61.3884 75.0066 61.3164 73.8906 61.1724L74.6826 64.6644H78.3186ZM71.8386 33.5244V37.0884H88.6146V33.5244H71.8386ZM93.9066 38.3844V42.0204H97.8666C96.8586 46.0884 95.2386 49.7244 93.0066 52.8924L94.6266 57.0684C95.9226 54.7644 97.0386 52.2444 97.9746 49.5804V64.9164H101.683V47.3484C102.295 48.4284 103.015 49.7604 103.807 51.2724L105.931 48.0684C104.527 46.3764 103.123 44.8284 101.683 43.3884V42.0204H104.959V38.3844H101.683V31.7604H97.9746V38.3844H93.9066ZM109.963 43.3884V45.2604H121.195V43.4604C122.275 44.5044 123.463 45.5124 124.831 46.4484L126.919 43.2804C122.311 40.0044 119.071 36.1884 117.199 31.8324H113.743C111.511 36.5484 108.343 40.3644 104.239 43.2804L106.291 46.4484C107.551 45.5844 108.775 44.5404 109.963 43.3884ZM119.611 41.8044H111.403C112.879 40.0044 114.247 37.9164 115.471 35.5404C116.515 37.7724 117.883 39.8604 119.611 41.8044ZM105.067 60.4884V64.1244H126.019V60.4884H121.087C122.383 56.7444 123.499 52.4964 124.435 47.7444L120.871 46.8444C119.863 52.2084 118.711 56.7444 117.379 60.4884H105.067ZM109.963 47.8164L106.723 48.8964C107.659 52.1724 108.487 55.5924 109.135 59.1564L112.411 58.2924C111.691 54.3324 110.899 50.8404 109.963 47.8164ZM115.291 46.5204L112.087 47.6004C112.951 50.7684 113.671 54.0444 114.247 57.5004L117.667 56.6004C116.947 52.8204 116.155 49.4724 115.291 46.5204ZM132.211 32.2644L129.691 34.6764C131.887 36.4404 133.579 38.0964 134.731 39.6084L137.179 37.1604C135.811 35.5404 134.155 33.9204 132.211 32.2644ZM131.635 41.0844L129.115 43.4964C131.239 45.3684 132.895 47.1324 134.047 48.7884L136.459 46.3404C135.163 44.6124 133.543 42.8484 131.635 41.0844ZM133.795 50.9844C132.499 55.1244 131.023 59.1924 129.295 63.1884L132.679 64.6644C134.263 60.7764 135.667 56.6364 136.963 52.2444L133.795 50.9844ZM150.859 33.4164H137.791V55.9884H141.103V36.6204H147.547V55.7724H150.859V33.4164ZM147.007 57.1404L144.775 59.3364C146.899 61.3884 148.519 63.2964 149.671 65.0964L152.191 62.6124C150.751 60.8124 149.023 58.9764 147.007 57.1404ZM142.795 38.5284V49.7964C142.687 52.9644 142.183 55.5204 141.319 57.4644C140.419 59.2644 138.691 60.8124 136.135 62.0364L138.079 65.1684C140.743 63.9084 142.687 62.1084 143.875 59.8044C145.099 57.2844 145.747 53.9724 145.891 49.7964V38.5284H142.795ZM158.095 64.7724C160.327 64.7724 161.443 63.5484 161.443 61.1364V31.9764H157.915V60.2364C157.915 61.1004 157.555 61.5684 156.871 61.5684C155.755 61.5684 154.567 61.4604 153.343 61.3164L154.135 64.7724H158.095ZM152.695 34.9284V57.1044H155.971V34.9284H152.695Z" fill="#2582C1"/>
<defs>
<filter id="filter0_d_564_88226" x="0.585938" y="0.226562" width="292" height="181.227" filterUnits="userSpaceOnUse" color-interpolation-filters="sRGB">
<feFlood flood-opacity="0" result="BackgroundImageFix"/>
<feColorMatrix in="SourceAlpha" type="matrix" values="0 0 0 0 0 0 0 0 0 0 0 0 0 0 0 0 0 0 127 0" result="hardAlpha"/>
<feOffset dy="2"/>
<feGaussianBlur stdDeviation="2"/>
<feComposite in2="hardAlpha" operator="out"/>
<feColorMatrix type="matrix" values="0 0 0 0 0.694118 0 0 0 0 0.74902 0 0 0 0 0.792157 0 0 0 0.36 0"/>
<feBlend mode="normal" in2="BackgroundImageFix" result="effect1_dropShadow_564_88226"/>
<feBlend mode="normal" in="SourceGraphic" in2="effect1_dropShadow_564_88226" result="shape"/>
</filter>
</defs>
</svg>
