<svg width="284" height="174" viewBox="0 0 284 174" fill="none" xmlns="http://www.w3.org/2000/svg">
<g filter="url(#filter0_d_564_88245)">

</g>
<path d="M221.329 113.936C219.422 110.896 218.681 104.242 225.98 89.7608C226.469 88.785 226.615 87.6727 226.394 86.6038C226.172 85.5349 225.597 84.572 224.76 83.8707C224.693 83.8175 224.61 83.7981 224.542 83.7449C224.726 83.7497 224.901 83.7981 225.085 83.7981C238.428 83.7981 249.284 72.9424 249.284 59.599C249.284 46.2556 238.428 35.3999 225.085 35.3999C211.741 35.3999 200.885 46.2556 200.885 59.599C200.885 71.1178 208.997 80.749 219.795 83.1738C219.436 83.3238 219.069 83.469 218.744 83.711L185.625 108.568C185.097 108.942 184.649 109.418 184.308 109.967C183.967 110.517 183.739 111.13 183.639 111.769C183.538 112.408 183.567 113.061 183.723 113.689C183.88 114.317 184.161 114.907 184.549 115.425C184.937 115.943 185.426 116.377 185.985 116.702C186.544 117.028 187.163 117.238 187.805 117.32C188.447 117.403 189.098 117.355 189.722 117.181C190.345 117.007 190.927 116.71 191.433 116.307L211.223 101.454C209.612 108.665 210.25 114.492 213.13 119.076C214.534 121.321 216.029 123.335 217.457 125.251C221.953 131.286 224.049 134.442 222.582 140.269C221.484 144.62 217.384 152.495 204.08 165.272C203.153 166.161 202.618 167.382 202.591 168.667C202.565 169.951 203.05 171.193 203.939 172.12C204.829 173.047 206.05 173.582 207.334 173.609C208.619 173.635 209.861 173.15 210.788 172.26C222.97 160.562 229.895 150.873 231.972 142.636C234.629 132.1 229.852 125.682 225.225 119.477C223.942 117.749 222.592 115.949 221.329 113.936ZM210.565 59.599C210.565 51.5939 217.079 45.0795 225.085 45.0795C233.09 45.0795 239.604 51.5939 239.604 59.599C239.604 67.6041 233.09 74.1185 225.085 74.1185C217.079 74.1185 210.565 67.6041 210.565 59.599Z" fill="#D3E9F9"/>
<path d="M260.628 137.231C255.827 126.187 248.059 118.133 237.547 113.284C236.97 113.017 236.346 112.867 235.711 112.842C235.076 112.817 234.442 112.917 233.846 113.137C233.249 113.357 232.702 113.692 232.235 114.123C231.768 114.554 231.391 115.073 231.125 115.65C230.858 116.227 230.708 116.851 230.683 117.486C230.658 118.121 230.758 118.755 230.978 119.352C231.198 119.948 231.533 120.495 231.964 120.962C232.395 121.429 232.914 121.806 233.491 122.073C241.893 125.949 247.871 132.169 251.747 141.088C255.997 150.914 259.279 161.131 261.548 171.594C261.822 172.848 262.583 173.942 263.663 174.635C264.198 174.978 264.796 175.212 265.421 175.324C266.047 175.437 266.689 175.425 267.31 175.289C267.931 175.153 268.519 174.897 269.041 174.534C269.562 174.171 270.007 173.708 270.351 173.173C270.694 172.638 270.928 172.041 271.04 171.415C271.153 170.79 271.141 170.148 271.005 169.527C268.602 158.451 265.126 147.634 260.628 137.231ZM267.999 102.709C261.669 103.928 255.958 103.468 250.518 101.281C245.281 99.1659 241.525 95.87 239.038 91.1995C238.434 90.0661 237.404 89.219 236.176 88.8446C234.947 88.4702 233.621 88.5992 232.487 89.2031C231.354 89.807 230.507 90.8365 230.132 92.065C229.758 93.2935 229.887 94.6204 230.491 95.7538C234.043 102.413 239.565 107.297 246.898 110.254C251.51 112.112 256.439 113.059 261.412 113.042C264.166 113.042 266.983 112.761 269.843 112.204C271.064 111.921 272.126 111.175 272.808 110.123C273.489 109.072 273.737 107.798 273.498 106.568C273.259 105.338 272.553 104.249 271.527 103.529C270.502 102.809 269.237 102.515 267.999 102.709Z" fill="#D3E9F9"/>
<path d="M40.0229 37.2872H50.7509C50.1029 38.3672 49.3829 39.3392 48.5909 40.1312L51.3269 42.2552C52.5869 40.8152 53.7749 38.9792 54.8549 36.7832V33.8672H41.5709C41.7869 33.2192 41.9669 32.5712 42.1469 31.8872L38.4749 31.4552C37.6829 34.4792 36.2069 37.0352 33.9749 39.1232L36.2429 42.0752C37.7549 40.6712 39.0149 39.0872 40.0229 37.2872ZM27.3509 31.9952L24.7949 34.4432C27.1709 35.9552 28.9709 37.3592 30.2669 38.6552L32.8229 36.1352C31.3109 34.7672 29.5109 33.3632 27.3509 31.9952ZM31.8509 38.9792C29.6549 41.7152 27.1709 44.1272 24.4349 46.1792L26.9549 49.0232C29.6189 46.9352 32.2109 44.2712 34.6589 41.0672L31.8509 38.9792ZM23.9669 50.5712V54.0272H32.8949C31.9229 55.2872 30.8789 56.5832 29.7989 57.8792C32.4989 58.4552 35.1989 59.1032 37.9349 59.8592C34.3349 61.0472 29.7989 61.6592 24.3989 61.6592L26.3789 64.8272C33.0749 64.6832 38.5109 63.4952 42.7229 61.2632C46.4669 62.4152 50.2109 63.7112 53.9549 65.1872L56.2589 62.1632C52.8749 60.9032 49.5269 59.7872 46.2509 58.8512C47.6549 57.5912 48.9869 55.9712 50.2829 54.0272H56.2949V50.5712H39.8789C40.3469 49.8872 40.8869 49.1312 41.4629 48.3032L38.5829 47.4032C40.5269 46.7552 42.0389 45.9632 43.0829 45.0272C43.6229 44.5232 44.1269 43.9832 44.5589 43.3712C46.4669 45.9632 49.8509 47.8712 54.7469 49.0952L56.5109 45.9272C51.0389 44.8472 47.5469 42.9392 46.0349 40.2392C46.1789 39.6632 46.3229 39.0872 46.4309 38.4752L42.9749 38.1152C42.6149 40.1312 41.7149 41.7512 40.2749 42.9032C38.7629 43.9832 36.3509 44.8472 33.0389 45.4232L34.3709 48.5192C35.4509 48.3032 36.4589 48.0512 37.4309 47.7632C36.8189 48.6632 36.1709 49.5992 35.4869 50.5712H23.9669ZM42.2909 57.7712C39.9869 57.1952 37.7189 56.6912 35.4869 56.2592C36.0629 55.5752 36.6389 54.8192 37.2869 54.0272H46.3589C45.2789 55.4312 43.9109 56.6912 42.2909 57.7712ZM74.1869 31.3112C74.0429 32.6072 73.7909 33.8672 73.4669 35.0552H61.1189V38.6912H72.0269C71.4869 39.6992 70.8389 40.5992 70.1189 41.3912C67.9229 43.6952 64.3229 45.4952 59.2829 46.7552L60.7949 50.2472C64.9709 49.1312 68.3189 47.7272 70.7669 45.9992C72.4229 47.3672 74.0069 48.8432 75.4469 50.3552L78.0389 47.7272C76.2389 46.1432 74.6549 44.8112 73.2149 43.8032C74.4389 42.3632 75.4469 40.6712 76.2389 38.7272C78.0389 43.4792 82.8269 47.2952 90.6749 50.1032L92.6909 46.8632C85.9949 44.8832 81.7829 42.1472 80.0549 38.6912H90.7829V35.0552H77.3549C77.6069 33.9752 77.7869 32.8592 77.9309 31.7072L74.1869 31.3112ZM62.7029 52.6592C62.1269 55.6832 61.0829 58.5272 59.6069 61.1912L62.8469 63.2432C64.3589 60.5072 65.5469 57.2312 66.4109 53.4872L62.7029 52.6592ZM77.4989 51.2192L74.1869 52.3352C75.3029 54.1352 76.3469 56.2592 77.2829 58.6712L80.7389 57.1232C79.8029 55.0352 78.7229 53.0552 77.4989 51.2192ZM88.3709 52.0472L84.7349 53.2352C86.3909 55.8272 87.9029 58.7792 89.2709 62.1632L92.7269 60.6152C91.5029 57.5552 90.0269 54.7112 88.3709 52.0472ZM81.2429 64.2512C82.6829 64.2512 83.7629 63.9272 84.4469 63.3512C85.2389 62.7032 85.7789 60.7592 86.0669 57.4472L82.5029 56.2592C82.3949 58.3472 82.1789 59.6072 81.8189 60.0032C81.5309 60.3992 81.0989 60.6152 80.5229 60.6152H73.1789C72.2429 60.6152 71.7749 60.1112 71.7749 59.1752V52.5512H67.9589V59.9672C67.9589 62.8112 69.2909 64.2512 72.0269 64.2512H81.2429ZM96.1469 38.3312V41.9672H100.107C99.0989 46.0352 97.4789 49.6712 95.2469 52.8392L96.8669 57.0152C98.1629 54.7112 99.2789 52.1912 100.215 49.5272V64.8632H103.923V47.2952C104.535 48.3752 105.255 49.7072 106.047 51.2192L108.171 48.0152C106.767 46.3232 105.363 44.7752 103.923 43.3352V41.9672H107.199V38.3312H103.923V31.7072H100.215V38.3312H96.1469ZM112.203 43.3352V45.2072H123.435V43.4072C124.515 44.4512 125.703 45.4592 127.071 46.3952L129.159 43.2272C124.551 39.9512 121.311 36.1352 119.439 31.7792H115.983C113.751 36.4952 110.583 40.3112 106.479 43.2272L108.531 46.3952C109.791 45.5312 111.015 44.4872 112.203 43.3352ZM121.851 41.7512H113.643C115.119 39.9512 116.487 37.8632 117.711 35.4872C118.755 37.7192 120.123 39.8072 121.851 41.7512ZM107.307 60.4352V64.0712H128.259V60.4352H123.327C124.623 56.6912 125.739 52.4432 126.675 47.6912L123.111 46.7912C122.103 52.1552 120.951 56.6912 119.619 60.4352H107.307ZM112.203 47.7632L108.963 48.8432C109.899 52.1192 110.727 55.5392 111.375 59.1032L114.651 58.2392C113.931 54.2792 113.139 50.7872 112.203 47.7632ZM117.531 46.4672L114.327 47.5472C115.191 50.7152 115.911 53.9912 116.487 57.4472L119.907 56.5472C119.187 52.7672 118.395 49.4192 117.531 46.4672ZM134.451 32.2112L131.931 34.6232C134.127 36.3872 135.819 38.0432 136.971 39.5552L139.419 37.1072C138.051 35.4872 136.395 33.8672 134.451 32.2112ZM133.875 41.0312L131.355 43.4432C133.479 45.3152 135.135 47.0792 136.287 48.7352L138.699 46.2872C137.403 44.5592 135.783 42.7952 133.875 41.0312ZM136.035 50.9312C134.739 55.0712 133.263 59.1392 131.535 63.1352L134.919 64.6112C136.503 60.7232 137.907 56.5832 139.203 52.1912L136.035 50.9312ZM153.099 33.3632H140.031V55.9352H143.343V36.5672H149.787V55.7192H153.099V33.3632ZM149.247 57.0872L147.015 59.2832C149.139 61.3352 150.759 63.2432 151.911 65.0432L154.431 62.5592C152.991 60.7592 151.263 58.9232 149.247 57.0872ZM145.035 38.4752V49.7432C144.927 52.9112 144.423 55.4672 143.559 57.4112C142.659 59.2112 140.931 60.7592 138.375 61.9832L140.319 65.1152C142.983 63.8552 144.927 62.0552 146.115 59.7512C147.339 57.2312 147.987 53.9192 148.131 49.7432V38.4752H145.035ZM160.335 64.7192C162.567 64.7192 163.683 63.4952 163.683 61.0832V31.9232H160.155V60.1832C160.155 61.0472 159.795 61.5152 159.111 61.5152C157.995 61.5152 156.807 61.4072 155.583 61.2632L156.375 64.7192H160.335ZM154.935 34.8752V57.0512H158.211V34.8752H154.935Z" fill="#2582C1"/>
<defs>
<filter id="filter0_d_564_88245" x="0" y="0.789062" width="292" height="181.227" filterUnits="userSpaceOnUse" color-interpolation-filters="sRGB">
<feFlood flood-opacity="0" result="BackgroundImageFix"/>
<feColorMatrix in="SourceAlpha" type="matrix" values="0 0 0 0 0 0 0 0 0 0 0 0 0 0 0 0 0 0 127 0" result="hardAlpha"/>
<feOffset dy="2"/>
<feGaussianBlur stdDeviation="2"/>
<feComposite in2="hardAlpha" operator="out"/>
<feColorMatrix type="matrix" values="0 0 0 0 0.694118 0 0 0 0 0.74902 0 0 0 0 0.792157 0 0 0 0.36 0"/>
<feBlend mode="normal" in2="BackgroundImageFix" result="effect1_dropShadow_564_88245"/>
<feBlend mode="normal" in="SourceGraphic" in2="effect1_dropShadow_564_88245" result="shape"/>
</filter>
</defs>
</svg>
