<svg width="64" height="21" viewBox="0 0 64 21" fill="none" xmlns="http://www.w3.org/2000/svg">
<path d="M37.576 8.99487V14.8889H38.556V8.99487H40.992V8.02887H34.86V5.84487C36.834 5.77487 38.626 5.52287 40.222 5.10287L39.746 4.22087C38.01 4.69687 36.078 4.94887 33.922 4.99087V8.61687C33.852 10.8009 33.39 12.5089 32.522 13.7409L33.222 14.4689C34.174 13.0969 34.72 11.2629 34.832 8.99487H37.576ZM29.792 4.30487L29.106 4.96287C30.086 5.77487 30.856 6.54487 31.416 7.24487L32.144 6.53087C31.5 5.78887 30.716 5.04687 29.792 4.30487ZM37.926 16.7089H41.16L41.412 15.7009C41.048 15.7289 40.516 15.7429 39.83 15.7569C39.13 15.7569 38.458 15.7709 37.786 15.7709C36.708 15.7709 35.798 15.7569 35.07 15.7429C34.258 15.7149 33.628 15.6169 33.208 15.4209C32.816 15.2249 32.466 14.9309 32.13 14.5389C32.018 14.4129 31.906 14.3009 31.794 14.2169V8.96687H28.854V9.89087H30.856V14.1469C30.282 14.3989 29.624 15.1129 28.882 16.2889L29.638 16.9749C30.408 15.6869 30.954 15.0429 31.29 15.0429C31.458 15.0429 31.64 15.1549 31.822 15.3929C32.256 15.9109 32.746 16.2609 33.292 16.4289C33.852 16.5689 34.566 16.6529 35.462 16.6809C36.344 16.6949 37.17 16.7089 37.926 16.7089ZM42.476 5.55087V6.60087H47.866L44.142 15.5469H45.36L49.042 6.48887V5.55087H42.476ZM50.7623 9.06487V10.0309H55.6343C55.3963 10.9549 55.1023 11.7249 54.7383 12.3409C53.8563 13.8249 52.3723 15.0989 50.2863 16.1629L50.9163 16.9889C53.1562 15.7989 54.7383 14.3709 55.6903 12.7189C56.0543 12.0749 56.3483 11.2629 56.5863 10.3109C57.5803 13.1949 59.5123 15.4209 62.3963 16.9889L63.0263 16.1769C60.2823 14.7489 58.4203 12.6909 57.4403 10.0309H62.5923V9.06487H56.8522C57.0203 8.11287 57.1323 7.04887 57.2163 5.84487H62.1863V4.86487H51.1263V5.84487H56.1943C56.1243 7.03487 56.0123 8.11287 55.8443 9.06487H50.7623Z" fill="#62B0E5"/>
<path d="M14.6426 3.79688C14.6426 2.86523 13.8867 2.10938 12.9551 2.10938H12.6738C11.7422 2.10938 10.9863 2.86523 10.9863 3.79688H7.03125C7.03125 2.86523 6.27539 2.10938 5.34375 2.10938H5.0625C4.13086 2.10938 3.375 2.86523 3.375 3.79688H1.125C0.504492 3.79688 0 4.30137 0 4.92188V17.8594C0 18.4799 0.504492 18.9844 1.125 18.9844H16.875C17.4955 18.9844 18 18.4799 18 17.8594V4.92188C18 4.30137 17.4955 3.79688 16.875 3.79688H14.6426ZM12.8145 3.23438C13.2029 3.23438 13.5176 3.54902 13.5176 3.9375V5.34375C13.5176 5.73223 13.2029 6.04688 12.8145 6.04688C12.426 6.04688 12.1113 5.73223 12.1113 5.34375V3.9375C12.1113 3.54902 12.426 3.23438 12.8145 3.23438ZM5.20312 3.23438C5.5916 3.23438 5.90625 3.54902 5.90625 3.9375V5.34375C5.90625 5.73223 5.5916 6.04688 5.20312 6.04688C4.81465 6.04688 4.5 5.73223 4.5 5.34375V3.9375C4.5 3.54902 4.81465 3.23438 5.20312 3.23438ZM16.3125 17.8594H1.6875C1.37637 17.8594 1.125 17.608 1.125 17.2969V9.42188H16.875V17.2969C16.875 17.608 16.6236 17.8594 16.3125 17.8594ZM16.875 8.29688H1.125V5.48438C1.125 5.17324 1.37637 4.92188 1.6875 4.92188H3.375V5.48438C3.375 6.41602 4.13086 7.17188 5.0625 7.17188H5.34375C6.27539 7.17188 7.03125 6.41602 7.03125 5.48438V4.92188H10.9863V5.34375C10.9863 6.35273 11.8055 7.17188 12.8145 7.17188C13.8234 7.17188 14.6426 6.35273 14.6426 5.34375V4.92188H16.3125C16.6236 4.92188 16.875 5.17324 16.875 5.48438V8.29688Z" fill="#62B0E5"/>
</svg>
