<svg width="25" height="25" viewBox="0 0 25 25" fill="none" xmlns="http://www.w3.org/2000/svg">
<mask id="path-1-outside-1_990_9826" maskUnits="userSpaceOnUse" x="3.14062" y="2.68262" width="19" height="19" fill="black">
<rect fill="white" x="3.14062" y="2.68262" width="19" height="19"/>
<path d="M21.8112 17.9524V4.77614C21.8114 4.63249 21.7832 4.49022 21.7283 4.35747C21.6734 4.22473 21.5928 4.10412 21.4913 4.00254C21.3897 3.90097 21.2691 3.82043 21.1363 3.76553C21.0036 3.71063 20.8613 3.68246 20.7177 3.68262H7.56723C7.27721 3.68262 6.99907 3.79783 6.79399 4.0029C6.58892 4.20798 6.47371 4.48612 6.47371 4.77614V6.02552C6.47371 6.04148 6.46144 6.05375 6.44548 6.05375H5.23414C4.94412 6.05375 4.66598 6.16896 4.46091 6.37403C4.25584 6.57911 4.14063 6.85725 4.14063 7.14727V20.2977C4.14046 20.4414 4.16864 20.5836 4.22354 20.7164C4.27843 20.8491 4.35897 20.9697 4.46055 21.0713C4.56212 21.1729 4.68274 21.2534 4.81548 21.3083C4.94823 21.3632 5.0905 21.3914 5.23414 21.3912H18.3846C18.5282 21.3914 18.6705 21.3632 18.8033 21.3083C18.936 21.2534 19.0566 21.1729 19.1582 21.0713C19.2598 20.9697 19.3403 20.8491 19.3952 20.7164C19.4501 20.5836 19.4783 20.4414 19.4781 20.2977V19.0483C19.4781 19.0324 19.4904 19.0201 19.5063 19.0201H20.7484C21.0306 19.0185 21.3007 18.9053 21.4998 18.7053C21.6989 18.5052 21.8109 18.2346 21.8112 17.9524ZM7.33159 4.60677C7.33159 4.56872 7.36227 4.5405 7.39786 4.5405H20.8588C20.9104 4.5405 20.9533 4.58345 20.9533 4.635V18.0677C20.953 18.0927 20.9429 18.1165 20.9253 18.1342C20.9076 18.1518 20.8838 18.1619 20.8588 18.1622H19.5039C19.4964 18.1622 19.4892 18.1592 19.4839 18.154C19.4786 18.1487 19.4757 18.1415 19.4757 18.134L19.5162 7.16077C19.5163 7.01712 19.4881 6.87485 19.4332 6.7421C19.3783 6.60936 19.2978 6.48875 19.1962 6.38717C19.0947 6.2856 18.974 6.20506 18.8413 6.15016C18.7086 6.09526 18.5663 6.06709 18.4226 6.06725L7.35982 6.05375C7.35233 6.05375 7.34515 6.05077 7.33986 6.04548C7.33456 6.04019 7.33159 6.03301 7.33159 6.02552V4.60677ZM18.5515 20.5309H5.09178C5.06671 20.5309 5.04268 20.5209 5.02496 20.5032C5.00723 20.4855 4.99728 20.4615 4.99728 20.4364V7.00367C4.99728 6.95213 5.039 6.90917 5.09178 6.90917L18.565 6.92267C18.6165 6.92267 18.6595 6.96563 18.6595 7.01717L18.619 20.4622C18.6192 20.4711 18.6175 20.48 18.6142 20.4884C18.6109 20.4967 18.606 20.5043 18.5997 20.5107C18.5934 20.5171 18.5859 20.5222 18.5776 20.5256C18.5693 20.5291 18.5605 20.5309 18.5515 20.5309Z"/>
</mask>
<path d="M21.8112 17.9524V4.77614C21.8114 4.63249 21.7832 4.49022 21.7283 4.35747C21.6734 4.22473 21.5928 4.10412 21.4913 4.00254C21.3897 3.90097 21.2691 3.82043 21.1363 3.76553C21.0036 3.71063 20.8613 3.68246 20.7177 3.68262H7.56723C7.27721 3.68262 6.99907 3.79783 6.79399 4.0029C6.58892 4.20798 6.47371 4.48612 6.47371 4.77614V6.02552C6.47371 6.04148 6.46144 6.05375 6.44548 6.05375H5.23414C4.94412 6.05375 4.66598 6.16896 4.46091 6.37403C4.25584 6.57911 4.14063 6.85725 4.14063 7.14727V20.2977C4.14046 20.4414 4.16864 20.5836 4.22354 20.7164C4.27843 20.8491 4.35897 20.9697 4.46055 21.0713C4.56212 21.1729 4.68274 21.2534 4.81548 21.3083C4.94823 21.3632 5.0905 21.3914 5.23414 21.3912H18.3846C18.5282 21.3914 18.6705 21.3632 18.8033 21.3083C18.936 21.2534 19.0566 21.1729 19.1582 21.0713C19.2598 20.9697 19.3403 20.8491 19.3952 20.7164C19.4501 20.5836 19.4783 20.4414 19.4781 20.2977V19.0483C19.4781 19.0324 19.4904 19.0201 19.5063 19.0201H20.7484C21.0306 19.0185 21.3007 18.9053 21.4998 18.7053C21.6989 18.5052 21.8109 18.2346 21.8112 17.9524ZM7.33159 4.60677C7.33159 4.56872 7.36227 4.5405 7.39786 4.5405H20.8588C20.9104 4.5405 20.9533 4.58345 20.9533 4.635V18.0677C20.953 18.0927 20.9429 18.1165 20.9253 18.1342C20.9076 18.1518 20.8838 18.1619 20.8588 18.1622H19.5039C19.4964 18.1622 19.4892 18.1592 19.4839 18.154C19.4786 18.1487 19.4757 18.1415 19.4757 18.134L19.5162 7.16077C19.5163 7.01712 19.4881 6.87485 19.4332 6.7421C19.3783 6.60936 19.2978 6.48875 19.1962 6.38717C19.0947 6.2856 18.974 6.20506 18.8413 6.15016C18.7086 6.09526 18.5663 6.06709 18.4226 6.06725L7.35982 6.05375C7.35233 6.05375 7.34515 6.05077 7.33986 6.04548C7.33456 6.04019 7.33159 6.03301 7.33159 6.02552V4.60677ZM18.5515 20.5309H5.09178C5.06671 20.5309 5.04268 20.5209 5.02496 20.5032C5.00723 20.4855 4.99728 20.4615 4.99728 20.4364V7.00367C4.99728 6.95213 5.039 6.90917 5.09178 6.90917L18.565 6.92267C18.6165 6.92267 18.6595 6.96563 18.6595 7.01717L18.619 20.4622C18.6192 20.4711 18.6175 20.48 18.6142 20.4884C18.6109 20.4967 18.606 20.5043 18.5997 20.5107C18.5934 20.5171 18.5859 20.5222 18.5776 20.5256C18.5693 20.5291 18.5605 20.5309 18.5515 20.5309Z" fill="#303133"/>
<path d="M21.8112 4.77614L21.6112 4.77591V4.77614H21.8112ZM20.7177 3.68262V3.88262L20.7179 3.88262L20.7177 3.68262ZM7.56723 3.68262V3.48262V3.68262ZM5.23414 6.05375V5.85375V6.05375ZM4.14063 7.14727H3.94063H4.14063ZM4.14063 20.2977L4.34063 20.2979V20.2977H4.14063ZM5.23414 21.3912V21.1912L5.23392 21.1912L5.23414 21.3912ZM18.3846 21.3912L18.3848 21.1912H18.3846V21.3912ZM19.4781 20.2977H19.2781V20.2979L19.4781 20.2977ZM20.7484 19.0201V19.2201L20.7495 19.2201L20.7484 19.0201ZM20.9533 18.0677L21.1533 18.0703V18.0677H20.9533ZM20.8588 18.1622V18.3622L20.8614 18.3622L20.8588 18.1622ZM19.4757 18.134L19.2757 18.1333V18.134H19.4757ZM19.5162 7.16077L19.7162 7.1615L19.7162 7.16099L19.5162 7.16077ZM18.4226 6.06725L18.4224 6.26725L18.4229 6.26725L18.4226 6.06725ZM7.35982 6.05375L7.36006 5.85375H7.35982V6.05375ZM5.09178 6.90917L5.09198 6.70917H5.09178V6.90917ZM18.565 6.92267L18.5648 7.12267H18.565V6.92267ZM18.6595 7.01717L18.8595 7.01778V7.01717H18.6595ZM18.619 20.4622L18.419 20.4616L18.419 20.4658L18.619 20.4622ZM22.0112 17.9524V4.77614H21.6112V17.9524H22.0112ZM22.0112 4.77636C22.0114 4.60641 21.978 4.43809 21.9131 4.28104L21.5435 4.43391C21.5883 4.54235 21.6113 4.65857 21.6112 4.77591L22.0112 4.77636ZM21.9131 4.28104C21.8482 4.12399 21.7529 3.98129 21.6327 3.86112L21.3498 4.14396C21.4328 4.22694 21.4986 4.32547 21.5435 4.43391L21.9131 4.28104ZM21.6327 3.86112C21.5125 3.74095 21.3698 3.64566 21.2128 3.58071L21.0599 3.95035C21.1683 3.99519 21.2669 4.06099 21.3498 4.14396L21.6327 3.86112ZM21.2128 3.58071C21.0557 3.51576 20.8874 3.48243 20.7174 3.48262L20.7179 3.88262C20.8352 3.88249 20.9515 3.9055 21.0599 3.95035L21.2128 3.58071ZM20.7177 3.48262H7.56723V3.88262H20.7177V3.48262ZM7.56723 3.48262C7.22417 3.48262 6.89515 3.6189 6.65257 3.86148L6.93542 4.14432C7.10298 3.97676 7.33025 3.88262 7.56723 3.88262V3.48262ZM6.65257 3.86148C6.40999 4.10406 6.27371 4.43307 6.27371 4.77614H6.67371C6.67371 4.53916 6.76785 4.31189 6.93542 4.14432L6.65257 3.86148ZM6.27371 4.77614V6.02552H6.67371V4.77614H6.27371ZM6.27371 6.02552C6.27371 5.93102 6.35098 5.85375 6.44548 5.85375V6.25375C6.57189 6.25375 6.67371 6.15193 6.67371 6.02552H6.27371ZM6.44548 5.85375H5.23414V6.25375H6.44548V5.85375ZM5.23414 5.85375C4.89108 5.85375 4.56207 5.99003 4.31949 6.23261L4.60233 6.51545C4.7699 6.34789 4.99717 6.25375 5.23414 6.25375V5.85375ZM4.31949 6.23261C4.07691 6.47519 3.94063 6.8042 3.94063 7.14727H4.34063C4.34063 6.91029 4.43476 6.68302 4.60233 6.51545L4.31949 6.23261ZM3.94063 7.14727V20.2977H4.34063V7.14727H3.94063ZM3.94063 20.2975C3.94043 20.4674 3.97377 20.6358 4.03872 20.7928L4.40835 20.6399C4.36351 20.5315 4.34049 20.4153 4.34063 20.2979L3.94063 20.2975ZM4.03872 20.7928C4.10367 20.9499 4.19896 21.0926 4.31913 21.2127L4.60197 20.9299C4.51899 20.8469 4.4532 20.7484 4.40835 20.6399L4.03872 20.7928ZM4.31913 21.2127C4.4393 21.3329 4.582 21.4282 4.73905 21.4931L4.89191 21.1235C4.78348 21.0787 4.68495 21.0129 4.60197 20.9299L4.31913 21.2127ZM4.73905 21.4931C4.8961 21.5581 5.06442 21.5914 5.23437 21.5912L5.23392 21.1912C5.11657 21.1914 5.00035 21.1683 4.89191 21.1235L4.73905 21.4931ZM5.23414 21.5912H18.3846V21.1912H5.23414V21.5912ZM18.3844 21.5912C18.5543 21.5914 18.7226 21.5581 18.8797 21.4931L18.7268 21.1235C18.6184 21.1683 18.5022 21.1914 18.3848 21.1912L18.3844 21.5912ZM18.8797 21.4931C19.0367 21.4282 19.1794 21.3329 19.2996 21.2127L19.0168 20.9299C18.9338 21.0129 18.8353 21.0787 18.7268 21.1235L18.8797 21.4931ZM19.2996 21.2127C19.4198 21.0926 19.5151 20.9499 19.58 20.7928L19.2104 20.6399C19.1655 20.7484 19.0997 20.8469 19.0168 20.9299L19.2996 21.2127ZM19.58 20.7928C19.645 20.6358 19.6783 20.4674 19.6781 20.2975L19.2781 20.2979C19.2782 20.4153 19.2552 20.5315 19.2104 20.6399L19.58 20.7928ZM19.6781 20.2977V19.0483H19.2781V20.2977H19.6781ZM19.6781 19.0483C19.6781 19.1428 19.6008 19.2201 19.5063 19.2201V18.8201C19.3799 18.8201 19.2781 18.9219 19.2781 19.0483H19.6781ZM19.5063 19.2201H20.7484V18.8201H19.5063V19.2201ZM20.7495 19.2201C21.0845 19.2182 21.4052 19.0838 21.6416 18.8464L21.3581 18.5642C21.1962 18.7268 20.9766 18.8188 20.7472 18.8201L20.7495 19.2201ZM21.6416 18.8464C21.8779 18.6089 22.0108 18.2876 22.0112 17.9526L21.6112 17.9521C21.6109 18.1816 21.5199 18.4016 21.3581 18.5642L21.6416 18.8464ZM7.53159 4.60677C7.53159 4.68398 7.46786 4.7405 7.39786 4.7405V4.3405C7.25668 4.3405 7.13159 4.45346 7.13159 4.60677H7.53159ZM7.39786 4.7405H20.8588V4.3405H7.39786V4.7405ZM20.8588 4.7405C20.7999 4.7405 20.7533 4.69391 20.7533 4.635H21.1533C21.1533 4.473 21.0208 4.3405 20.8588 4.3405V4.7405ZM20.7533 4.635V18.0677H21.1533V4.635H20.7533ZM20.7533 18.0652C20.7537 18.038 20.7646 18.012 20.7839 17.9928L21.0667 18.2756C21.1212 18.2211 21.1523 18.1474 21.1533 18.0703L20.7533 18.0652ZM20.7839 17.9928C20.8031 17.9735 20.8291 17.9626 20.8563 17.9622L20.8614 18.3622C20.9385 18.3612 21.0122 18.3301 21.0667 18.2756L20.7839 17.9928ZM20.8588 17.9622H19.5039V18.3622H20.8588V17.9622ZM19.5039 17.9622C19.5494 17.9622 19.5931 17.9803 19.6253 18.0125L19.3425 18.2954C19.3853 18.3382 19.4433 18.3622 19.5039 18.3622V17.9622ZM19.6253 18.0125C19.6575 18.0447 19.6757 18.0884 19.6757 18.134H19.2757C19.2757 18.1945 19.2997 18.2526 19.3425 18.2954L19.6253 18.0125ZM19.6757 18.1347L19.7162 7.1615L19.3162 7.16003L19.2757 18.1333L19.6757 18.1347ZM19.7162 7.16099C19.7163 6.99104 19.683 6.82272 19.6181 6.66567L19.2484 6.81854C19.2933 6.92698 19.3163 7.0432 19.3162 7.16054L19.7162 7.16099ZM19.6181 6.66567C19.5531 6.50862 19.4578 6.36592 19.3377 6.24575L19.0548 6.52859C19.1378 6.61157 19.2036 6.7101 19.2484 6.81854L19.6181 6.66567ZM19.3377 6.24575C19.2175 6.12558 19.0748 6.03029 18.9177 5.96534L18.7649 6.33498C18.8733 6.37982 18.9718 6.44562 19.0548 6.52859L19.3377 6.24575ZM18.9177 5.96534C18.7607 5.90039 18.5924 5.86706 18.4224 5.86725L18.4229 6.26725C18.5402 6.26712 18.6564 6.29013 18.7649 6.33498L18.9177 5.96534ZM18.4229 5.86725L7.36006 5.85375L7.35957 6.25375L18.4224 6.26725L18.4229 5.86725ZM7.35982 5.85375C7.40537 5.85375 7.44906 5.87185 7.48128 5.90406L7.19843 6.1869C7.24123 6.2297 7.29928 6.25375 7.35982 6.25375V5.85375ZM7.48128 5.90406C7.51349 5.93627 7.53159 5.97996 7.53159 6.02552H7.13159C7.13159 6.08605 7.15564 6.1441 7.19843 6.1869L7.48128 5.90406ZM7.53159 6.02552V4.60677H7.13159V6.02552H7.53159ZM18.5515 20.3309H5.09178V20.7309H18.5515V20.3309ZM5.09178 20.3309C5.11976 20.3309 5.14659 20.342 5.16638 20.3618L4.88353 20.6446C4.93876 20.6999 5.01367 20.7309 5.09178 20.7309V20.3309ZM5.16638 20.3618C5.18616 20.3816 5.19728 20.4084 5.19728 20.4364H4.79728C4.79728 20.5145 4.8283 20.5894 4.88353 20.6446L5.16638 20.3618ZM5.19728 20.4364V7.00367H4.79728V20.4364H5.19728ZM5.19728 7.00367C5.19728 7.06089 5.15115 7.10917 5.09178 7.10917V6.70917C4.92686 6.70917 4.79728 6.84336 4.79728 7.00367H5.19728ZM5.09158 7.10917L18.5648 7.12267L18.5652 6.72267L5.09198 6.70917L5.09158 7.10917ZM18.565 7.12267C18.5061 7.12267 18.4595 7.07609 18.4595 7.01717H18.8595C18.8595 6.85517 18.727 6.72267 18.565 6.72267V7.12267ZM18.4595 7.01657L18.419 20.4616L18.819 20.4628L18.8595 7.01778L18.4595 7.01657ZM18.419 20.4658C18.4187 20.4482 18.4219 20.4307 18.4284 20.4144L18.8 20.5624C18.8132 20.5294 18.8196 20.4941 18.819 20.4585L18.419 20.4658ZM18.4284 20.4144C18.4349 20.398 18.4447 20.3831 18.457 20.3706L18.7424 20.6508C18.7673 20.6255 18.7869 20.5954 18.8 20.5624L18.4284 20.4144ZM18.457 20.3706C18.4693 20.358 18.484 20.348 18.5003 20.3412L18.655 20.7101C18.6877 20.6963 18.7175 20.6762 18.7424 20.6508L18.457 20.3706ZM18.5003 20.3412C18.5165 20.3344 18.5339 20.3309 18.5515 20.3309L18.5515 20.7309C18.587 20.7309 18.6222 20.7238 18.655 20.7101L18.5003 20.3412Z" fill="#303133" mask="url(#path-1-outside-1_990_9826)"/>
<path d="M10.8917 8.4274L10.8917 8.42734H10.8882H7.90835V8.42729L7.90501 8.4274C7.60331 8.4375 7.31733 8.5644 7.10742 8.78133C6.8975 8.99826 6.78006 9.28825 6.77988 9.59012V9.59018V12.262C6.77988 12.9051 7.30207 13.4273 7.94517 13.4273H10.8526C11.1617 13.4273 11.4581 13.3045 11.6766 13.086C11.8951 12.8674 12.0179 12.5711 12.0179 12.262V9.59018V9.49018H12.0111C11.9881 9.22503 11.8748 8.9746 11.6884 8.78179C11.4788 8.56489 11.1931 8.43784 10.8917 8.4274ZM10.9576 9.48277V12.3694H7.83531V9.48277H10.9576ZM15.6068 8.4274L15.6068 8.42734H15.6035H13.8485V8.42728L13.845 8.4274C13.5435 8.43784 13.2579 8.56489 13.0483 8.78179C12.8386 8.99868 12.7214 9.28848 12.7212 9.59012V9.59018V18.142C12.7212 18.7851 13.2434 19.3073 13.8865 19.3073H15.5667C15.8757 19.3073 16.1721 19.1845 16.3906 18.9659C16.6092 18.7474 16.732 18.451 16.732 18.142V9.59018V9.59012C16.7318 9.28825 16.6143 8.99826 16.4044 8.78133C16.1945 8.5644 15.9085 8.4375 15.6068 8.4274ZM15.6741 9.48399V18.2506H13.7791V9.48399H15.6741ZM12.0695 15.564H12.0708L12.0707 15.4639C12.0705 15.1621 11.9531 14.8721 11.7432 14.6552C11.5332 14.4382 11.2473 14.3113 10.9456 14.3012L10.9456 14.3012H10.9422H7.9599V14.3011L7.95656 14.3012C7.65486 14.3113 7.36888 14.4382 7.15896 14.6552C6.94905 14.8721 6.83161 15.1621 6.83143 15.4639V15.464V18.1358C6.83143 18.7789 7.35362 19.3011 7.99672 19.3011H10.9042C11.2132 19.3011 11.5096 19.1783 11.7282 18.9598C11.9467 18.7413 12.0695 18.4449 12.0695 18.1358V15.564ZM11.0116 15.3566V18.2432H7.88931V15.3566H11.0116Z" fill="#303133" stroke="#303133" stroke-width="0.2"/>
</svg>
