<svg width="25" height="25" viewBox="0 0 25 25" fill="none" xmlns="http://www.w3.org/2000/svg">
<mask id="path-1-inside-1_990_9841" fill="white">
<rect x="4.73535" y="5.19336" width="13.2122" height="9.35167" rx="0.5"/>
</mask>
<rect x="4.73535" y="5.19336" width="13.2122" height="9.35167" rx="0.5" stroke="#62B0E5" stroke-width="2" stroke-linejoin="round" mask="url(#path-1-inside-1_990_9841)"/>
<mask id="path-2-inside-2_990_9841" fill="white">
<path fill-rule="evenodd" clip-rule="evenodd" d="M16.9209 11.173L20.4931 13.2354C20.8264 13.4279 21.2431 13.1873 21.2431 12.8024V6.14332C21.2431 5.75842 20.8264 5.51786 20.4931 5.71031L16.9209 7.77273V11.173Z"/>
</mask>
<path d="M20.4931 13.2354L20.9931 12.3694H20.9931L20.4931 13.2354ZM16.9209 11.173H15.9209C15.9209 11.5303 16.1115 11.8604 16.4209 12.039L16.9209 11.173ZM20.4931 5.71031L20.9931 6.57634V6.57634L20.4931 5.71031ZM16.9209 7.77273L16.4209 6.9067C16.1115 7.08533 15.9209 7.41546 15.9209 7.77273H16.9209ZM20.9931 12.3694L17.4209 10.307L16.4209 12.039L19.9931 14.1015L20.9931 12.3694ZM20.2431 12.8024C20.2431 12.4175 20.6598 12.177 20.9931 12.3694L19.9931 14.1015C20.9931 14.6788 22.2431 13.9571 22.2431 12.8024H20.2431ZM20.2431 6.14332V12.8024H22.2431V6.14332H20.2431ZM20.9931 6.57634C20.6598 6.76879 20.2431 6.52823 20.2431 6.14332H22.2431C22.2431 4.98862 20.9931 4.26694 19.9931 4.84429L20.9931 6.57634ZM17.4209 8.63875L20.9931 6.57634L19.9931 4.84429L16.4209 6.9067L17.4209 8.63875ZM15.9209 7.77273V11.173H17.9209V7.77273H15.9209Z" fill="#62B0E5" mask="url(#path-2-inside-2_990_9841)"/>
<mask id="path-4-inside-3_990_9841" fill="white">
<rect x="4.73535" y="16.3438" width="16.5076" height="3.55612" rx="0.5"/>
</mask>
<rect x="4.73535" y="16.3438" width="16.5076" height="3.55612" rx="0.5" stroke="#62B0E5" stroke-width="2" stroke-linejoin="round" mask="url(#path-4-inside-3_990_9841)"/>
</svg>
