<svg width="25" height="25" viewBox="0 0 25 25" fill="none" xmlns="http://www.w3.org/2000/svg">
<path d="M21.9072 18.6326H13.7837C13.5871 17.6411 12.7288 16.8934 11.7013 16.8934C10.6724 16.8934 9.81403 17.6411 9.61698 18.6326H4.04537C3.81068 18.6326 3.62016 18.8273 3.62016 19.0678C3.62016 19.3083 3.8107 19.5029 4.04537 19.5029H9.61653C9.81357 20.4944 10.6719 21.2421 11.7008 21.2421C12.7288 21.2421 13.5871 20.4944 13.7833 19.5029H21.9067C22.1414 19.5029 22.3319 19.3083 22.3319 19.0678C22.3319 18.8273 22.1418 18.6326 21.9072 18.6326ZM11.7008 20.3709C10.9958 20.3709 10.4242 19.7879 10.4242 19.0678C10.4242 18.3476 10.9958 17.7637 11.7008 17.7637C12.4049 17.7637 12.976 18.3476 12.976 19.0678C12.976 19.7879 12.4049 20.3709 11.7008 20.3709ZM4.04533 6.45916H6.21468C6.41173 7.45158 7.26916 8.19836 8.29759 8.19836C9.32602 8.19836 10.1839 7.45112 10.381 6.45916H21.9067C22.1414 6.45916 22.3319 6.26499 22.3319 6.02447C22.3319 5.78443 22.1414 5.58932 21.9067 5.58932H10.3814C10.1844 4.59782 9.32695 3.85059 8.29807 3.85059C7.26918 3.85059 6.4122 4.5983 6.21516 5.58978H4.04533C3.81063 5.58978 3.62012 5.78488 3.62012 6.02493C3.62012 6.26543 3.81066 6.45914 4.04533 6.45914M8.29807 4.72041C9.00259 4.72041 9.57373 5.30483 9.57373 6.02493C9.57373 6.74502 9.00257 7.32899 8.29807 7.32899C7.59306 7.32899 7.02192 6.74504 7.02192 6.02493C7.02192 5.30483 7.59354 4.72041 8.29807 4.72041ZM21.9072 12.1115H20.5878C20.3908 11.119 19.5333 10.3718 18.5049 10.3718C17.4765 10.3718 16.6181 11.119 16.4215 12.1115H4.04535C3.81066 12.1115 3.62014 12.3056 3.62014 12.5457C3.62014 12.7862 3.81068 12.9808 4.04535 12.9808H16.4211C16.6181 13.9728 17.476 14.72 18.5044 14.72C19.5328 14.72 20.3908 13.9723 20.5873 12.9808H21.9067C22.1414 12.9808 22.3319 12.7862 22.3319 12.5457C22.3324 12.3056 22.1418 12.1115 21.9071 12.1115M18.5049 13.8502C17.7994 13.8502 17.2292 13.2662 17.2292 12.5457C17.2292 11.8256 17.7999 11.2411 18.5049 11.2411C19.2099 11.2411 19.7806 11.8256 19.7806 12.5457C19.7806 13.2662 19.2094 13.8502 18.5049 13.8502Z" fill="#62B0E5"/>
</svg>
