<svg width="292" height="182" viewBox="0 0 292 182" fill="none" xmlns="http://www.w3.org/2000/svg">

<path d="M22.2927 33.6578V37.2218H35.8287V33.6578H22.2927ZM20.9607 43.3418V47.0138H25.4247C23.8767 52.8458 22.6167 56.4458 21.6807 57.8138C21.5367 57.9218 21.2847 58.0298 20.9247 58.1378L21.7887 61.6658C26.1087 60.8738 30.1767 59.8658 33.9567 58.5698C34.2447 59.2538 34.5327 59.9738 34.8207 60.7658L37.9167 59.1818C37.1247 60.4418 36.2247 61.5938 35.1807 62.6018L38.0247 65.0858C42.9207 60.2978 45.4047 52.7378 45.5127 42.4058V42.1178H49.6167C49.5447 51.6578 49.4367 57.2378 49.2207 58.8578C48.9327 60.4418 48.0687 61.2338 46.5567 61.2338C45.6207 61.2338 44.5407 61.1618 43.2807 61.0898L44.1447 64.3658C45.5847 64.4738 46.5567 64.5458 47.1327 64.5458C50.4447 64.5458 52.3167 63.2138 52.7487 60.5498C53.0727 57.7418 53.2527 50.3978 53.2527 38.5178H45.5127V31.6058H41.7687V38.5178H37.3407V42.1178H41.7687V42.4058C41.6967 49.2458 40.4727 54.7898 38.0607 58.9658C36.5487 55.3658 34.9647 52.0898 33.3807 49.1378L30.2487 50.6498C31.0407 52.1618 31.8327 53.7458 32.6247 55.4738C30.4287 56.2658 28.1967 56.9498 25.9287 57.4538C26.8287 55.1498 27.8727 51.6938 29.0607 47.0138H37.1247V43.3418H20.9607ZM73.2327 39.8858H74.2767V64.9418H78.0927V56.9138H88.0287V53.2778H78.0927V48.3458H88.0287V44.6738H78.0927V39.8858H89.3967V36.1778H74.8887C75.3927 34.8458 75.8967 33.4778 76.4007 32.0378L72.5847 31.1738C70.4247 37.3658 67.9047 42.1178 65.0247 45.5018L67.7247 48.7418C69.7407 46.2938 71.5767 43.3418 73.2327 39.8858ZM60.6327 46.1138V64.9418H64.4487V40.7138C65.8887 38.2658 67.0767 35.6738 67.9767 32.9738L64.4127 31.3178C62.6487 36.7178 59.9487 41.4338 56.3127 45.4298L57.5727 49.4618C58.6527 48.3818 59.6607 47.2658 60.6327 46.1138ZM106.497 33.2618V51.1898H124.101V33.2618H106.497ZM120.321 47.5898H110.241V36.8978H120.321V47.5898ZM97.7127 31.7498L95.0847 34.3418C97.6047 36.2138 99.5847 37.9418 100.953 39.5978L103.509 37.0058C101.925 35.2778 99.9807 33.5138 97.7127 31.7498ZM92.6727 42.1538V45.7538H97.5327V58.5338C97.5327 59.2898 97.2087 59.9378 96.5967 60.4778L98.0367 63.8618C100.521 62.1698 102.861 60.2618 105.093 58.1018L104.049 54.1778C103.041 55.1858 102.069 56.1218 101.169 56.9498V42.1538H92.6727ZM110.241 52.6658C108.549 56.5538 106.497 59.9018 104.121 62.6738L107.433 65.0858C109.809 62.0618 111.825 58.4258 113.553 54.2498L110.241 52.6658ZM120.069 52.4858L117.009 54.4298C119.601 58.2458 121.653 61.7378 123.165 64.9058L126.405 62.6378C124.929 59.7578 122.805 56.3738 120.069 52.4858ZM135.909 44.9978C135.837 46.1858 135.729 47.3378 135.657 48.4178H129.285V51.9098H135.117C134.829 53.1698 134.505 54.2498 134.109 55.1498C133.029 57.7418 131.121 59.9378 128.457 61.7738L130.869 64.7978C133.965 62.4938 136.161 59.8298 137.493 56.7338C137.997 55.4378 138.465 53.8538 138.825 51.9098H143.253C143.181 55.7978 143.073 58.0658 142.893 58.7138C142.641 60.2978 141.777 61.0898 140.301 61.0898C139.509 61.0898 138.537 61.0178 137.457 60.9458L138.357 64.2218C139.545 64.3298 140.409 64.4018 140.913 64.4018C144.189 64.4018 146.025 63.0338 146.385 60.3698C146.745 58.8578 146.925 54.8618 146.925 48.4178H139.293C139.401 47.3378 139.509 46.2218 139.581 44.9978H146.421V32.6498H130.473V44.9978H135.909ZM149.661 34.7018V56.8418H153.333V34.7018H149.661ZM156.897 64.5098C159.489 64.5098 160.821 63.1058 160.821 60.3698V31.6418H157.077V59.3978C157.077 60.5498 156.573 61.1618 155.601 61.1618C154.125 61.1618 152.541 61.0898 150.885 60.9458L151.713 64.5098H156.897ZM142.857 41.6138H134.037V36.0338H142.857V41.6138Z" fill="#2582C1"/>
<path d="M242 17.75C229.637 17.75 219.75 27.7945 219.75 40C219.75 52.2112 229.789 62.25 242 62.25C254.211 62.25 264.25 52.2112 264.25 40C264.25 27.7945 254.363 17.75 242 17.75ZM242 57.7083C232.336 57.7083 224.438 49.8096 224.438 40.1458C224.438 30.482 232.336 22.5833 242 22.5833C251.664 22.5833 259.562 30.482 259.562 40.1458C259.562 49.816 251.803 57.7083 242 57.7083Z" fill="#D3E9F9" stroke="#D3E9F9" stroke-width="2.5"/>
<path d="M255.028 39.7045H244.194V28.9545C244.194 27.6972 243.196 26.75 241.972 26.75C240.748 26.75 239.75 27.6972 239.75 28.9545V42.0455C239.75 43.3028 240.748 44.25 241.972 44.25H242.111H255.028C256.252 44.25 257.25 43.3028 257.25 42.0455C257.25 41.4488 257.064 40.8536 256.639 40.3951C256.21 39.9313 255.624 39.7045 255.028 39.7045Z" fill="#D3E9F9" stroke="#D3E9F9" stroke-width="2.5"/>
<path d="M165.007 171.168L165.012 171.171C165.686 171.592 166.429 171.75 167.138 171.75C168.381 171.75 169.687 171.097 170.429 169.945L170.431 169.942L189.714 139.656L189.716 139.653C190.917 137.749 191.627 135.487 191.627 133.145C191.627 133.145 191.627 133.144 191.627 133.143L191.76 113.954V113.949C191.76 110.277 190.202 106.883 187.446 104.483L187.442 104.479L161.708 82.4292L161.705 82.427C160.07 81.0383 157.6 81.1917 156.193 82.8447C154.803 84.4787 154.956 86.9453 156.61 88.3509C156.611 88.3514 156.611 88.3519 156.612 88.3524L182.276 110.4L182.276 110.4L182.285 110.407C183.299 111.251 183.876 112.561 183.877 113.88C183.877 113.88 183.877 113.881 183.877 113.882L183.744 133.071V133.076C183.744 133.929 183.519 134.722 183.06 135.468C183.059 135.469 183.058 135.471 183.057 135.472L163.779 165.749C163.779 165.749 163.779 165.749 163.779 165.749C162.62 167.568 163.202 170.021 165.007 171.168ZM219.569 169.942L219.571 169.945C220.308 171.09 221.544 171.75 222.862 171.75C223.617 171.75 224.342 171.503 224.896 171.186L224.905 171.181L224.914 171.176C226.818 170.018 227.301 167.549 226.154 165.749C226.154 165.749 226.154 165.749 226.154 165.749L206.876 135.472C206.875 135.471 206.874 135.469 206.874 135.468C206.415 134.722 206.19 133.929 206.19 133.076L206.19 133.071L206.057 113.882C206.057 113.881 206.057 113.881 206.057 113.88C206.058 112.5 206.631 111.255 207.649 110.407L207.649 110.407L207.657 110.4L233.388 88.3524C233.389 88.352 233.389 88.3515 233.39 88.351C235.044 86.9453 235.197 84.4787 233.807 82.8447C232.4 81.1917 229.93 81.0383 228.295 82.427L228.292 82.4292L202.558 104.479L202.554 104.483C199.798 106.883 198.24 110.277 198.24 113.949L198.24 113.954L198.373 133.143C198.373 133.143 198.373 133.144 198.373 133.145C198.372 135.454 199.037 137.715 200.286 139.657C200.287 139.658 200.287 139.658 200.288 139.659L219.569 169.942ZM179.022 80.2093C179.022 88.9928 186.208 96.1685 195 96.1685C203.792 96.1685 210.978 88.9928 210.978 80.2093C210.978 71.4258 203.792 64.25 195 64.25C186.208 64.25 179.022 71.4258 179.022 80.2093ZM186.906 80.2093C186.906 75.776 190.559 72.1259 195 72.1259C199.504 72.1259 203.094 75.7723 203.094 80.2093C203.094 84.6426 199.441 88.2926 195 88.2926C190.559 88.2926 186.906 84.6426 186.906 80.2093Z" fill="#D3E9F9" stroke="#D3E9F9" stroke-width="1.5"/>
<defs>
<filter id="filter0_d_1762_105535" x="0" y="0" width="292" height="181.227" filterUnits="userSpaceOnUse" color-interpolation-filters="sRGB">
<feFlood flood-opacity="0" result="BackgroundImageFix"/>
<feColorMatrix in="SourceAlpha" type="matrix" values="0 0 0 0 0 0 0 0 0 0 0 0 0 0 0 0 0 0 127 0" result="hardAlpha"/>
<feOffset dy="2"/>
<feGaussianBlur stdDeviation="2"/>
<feComposite in2="hardAlpha" operator="out"/>
<feColorMatrix type="matrix" values="0 0 0 0 0.694118 0 0 0 0 0.74902 0 0 0 0 0.792157 0 0 0 0.36 0"/>
<feBlend mode="normal" in2="BackgroundImageFix" result="effect1_dropShadow_1762_105535"/>
<feBlend mode="normal" in="SourceGraphic" in2="effect1_dropShadow_1762_105535" result="shape"/>
</filter>
</defs>
</svg>
