<svg width="284" height="174" viewBox="0 0 284 174" fill="none" xmlns="http://www.w3.org/2000/svg">
<g filter="url(#filter0_d_564_88241)">

</g>
<path d="M169.045 78.8342C164.627 78.8342 161.045 82.4159 161.045 86.8342V125.951C161.045 130.37 164.627 133.951 169.045 133.951H205.993C210.412 133.951 213.993 130.37 213.993 125.951V86.8342C213.993 82.4159 210.412 78.8342 205.993 78.8342H169.045ZM203.389 123.341H171.546V89.3721H203.389V123.341ZM243.052 78.8342C238.634 78.8342 235.052 82.4159 235.052 86.8342V125.951C235.052 130.37 238.634 133.951 243.052 133.951H280.001C284.419 133.951 288.001 130.37 288.001 125.951V86.8342C288.001 82.4159 284.419 78.8342 280.001 78.8342H243.052ZM277.396 123.341H245.554V89.3721H277.396V123.341ZM219.462 41.3622C219.462 38.4396 221.832 36.0703 224.754 36.0703C227.677 36.0703 230.046 38.4396 230.046 41.3622V170.778C230.046 173.701 227.677 176.07 224.754 176.07C221.832 176.07 219.462 173.701 219.462 170.778V41.3622Z" fill="#D3E9F9"/>
<path d="M24.3087 32.0484L21.7527 34.4604C24.3447 36.5484 26.3607 38.5284 27.7647 40.3284L30.3927 37.7364C28.7367 35.8644 26.6847 33.9564 24.3087 32.0484ZM44.8287 64.4844H53.0727L53.9727 60.7764C53.0007 60.8484 51.5967 60.9204 49.7607 60.9924C47.8887 60.9924 46.0887 61.0284 44.2887 61.0284C41.4807 61.0284 39.0687 60.9924 36.9807 60.9564C34.8567 60.8844 33.2727 60.5964 32.2287 60.0564C31.3647 59.5884 30.5367 58.8684 29.7087 57.9324L29.3127 57.5364V43.8564H21.0687V47.3124H25.8207V57.1764C24.3807 57.9684 22.7967 59.8044 20.9967 62.6844L23.7687 65.2404C25.5687 62.0004 26.7927 60.4164 27.5127 60.4164C27.9087 60.4164 28.3407 60.7044 28.8447 61.3164C29.9247 62.5404 31.1847 63.3684 32.6247 63.8004C34.1367 64.1604 36.0447 64.3764 38.3847 64.4124C40.6887 64.4484 42.8487 64.4844 44.8287 64.4844ZM38.4567 35.8644L36.5487 37.7364C37.9167 38.4924 39.1407 39.2484 40.2567 39.9684H32.2647V59.5164H35.7927V53.6484H40.4727V59.4804H43.9287V53.6484H48.7527V55.1604C48.7527 55.9164 48.3567 56.3124 47.5647 56.3124L45.0807 56.2044L45.9087 59.3004H48.6087C51.0567 59.3004 52.2807 58.1484 52.2807 55.9164V39.9684H45.0087L44.9367 39.8964C47.3127 38.6364 49.5087 37.1244 51.5607 35.3964V32.7684H31.6527V35.8644H38.4567ZM42.6687 38.1684C41.6607 37.4124 40.5087 36.6564 39.2847 35.8644H46.4847C45.2967 36.6924 44.0367 37.4484 42.6687 38.1684ZM35.7927 48.3564H40.4727V50.6244H35.7927V48.3564ZM43.9287 48.3564H48.7527V50.6244H43.9287V48.3564ZM48.7527 45.3324H43.9287V43.0644H48.7527V45.3324ZM40.4727 45.3324H35.7927V43.0644H40.4727V45.3324ZM63.6207 45.0444H71.5407V50.2284H63.6207V45.0444ZM63.4407 53.6844H71.5407V63.8364H75.3567V53.6844H83.9247V58.6884C83.9247 60.0564 83.3487 60.7764 82.2687 60.7764C81.0447 60.7764 79.7487 60.7044 78.3087 60.5604L79.3167 64.2324H83.4567C86.3007 64.2324 87.7407 62.8284 87.7407 60.0564V32.8764H59.8407V50.6964C59.7687 55.3764 58.6887 59.2284 56.5647 62.2524L59.4447 64.8444C61.6407 61.8924 62.9727 58.1484 63.4407 53.6844ZM83.9247 50.2284H75.3567V45.0444H83.9247V50.2284ZM83.9247 41.5884H75.3567V36.5484H83.9247V41.5884ZM71.5407 36.5484V41.5884H63.6207V36.5484H71.5407ZM103.725 32.3724C102.249 35.1084 100.701 37.3764 99.0807 39.2484C97.0647 41.5164 94.9047 43.2444 92.6727 44.4684L94.7247 47.8164C97.8927 45.5484 100.269 43.4964 101.925 41.6244C103.617 39.7524 105.309 37.3044 106.965 34.3524L103.725 32.3724ZM104.697 49.2924C103.977 52.1724 102.969 54.5124 101.709 56.3124C100.053 58.4004 97.6047 60.3084 94.3647 62.0364L96.8127 65.1684C100.485 63.0804 103.257 60.7044 105.129 58.0764C106.569 55.8804 107.685 52.9644 108.513 49.2924H116.289C116.145 54.2604 115.749 57.5004 115.173 59.0124C114.597 60.4524 113.445 61.2084 111.681 61.2084C109.809 61.2084 107.793 61.1364 105.669 61.0644L106.677 64.7724H113.589C115.425 64.6644 116.757 64.0524 117.585 62.9724C118.449 61.8204 119.025 59.8404 119.385 56.9604C119.745 54.0804 119.961 50.3364 120.105 45.6564H98.2167V49.2924H104.697ZM114.993 31.9404L111.717 33.7764C113.913 39.4644 117.801 44.0724 123.345 47.6364L125.901 44.6484C120.573 41.5524 116.937 37.3044 114.993 31.9404ZM132.417 44.7204V47.6004H137.385V49.4004H130.041V52.3524H137.385V54.0444H141.057V52.3524H148.545V49.4004H141.057V47.6004H146.061V44.7204H141.057V43.0284H147.537V40.7964H149.265V34.2804H140.877C140.589 33.3084 140.301 32.4084 140.013 31.6164L136.305 32.2644C136.593 32.8764 136.845 33.5604 137.133 34.2804H129.717V40.8324H130.833V43.0284H137.385V44.7204H132.417ZM145.773 40.0764H141.057V38.3124H137.385V40.0764H133.245V37.5204H145.773V40.0764ZM150.741 35.1444V57.0324H154.269V35.1444H150.741ZM157.221 64.7004C159.597 64.7004 160.821 63.4764 160.821 61.0644V31.8324H157.149V60.1284C157.149 60.9924 156.753 61.4244 155.961 61.4244C154.701 61.4244 153.405 61.3164 152.037 61.1724L152.793 64.7004H157.221ZM147.645 54.5124H131.409V64.9524H134.937V63.8364H144.153V65.0964H147.645V54.5124ZM134.937 60.7404V57.6444H144.153V60.7404H134.937Z" fill="#2582C1"/>
<defs>
<filter id="filter0_d_564_88241" x="0" y="0.226562" width="292" height="181.227" filterUnits="userSpaceOnUse" color-interpolation-filters="sRGB">
<feFlood flood-opacity="0" result="BackgroundImageFix"/>
<feColorMatrix in="SourceAlpha" type="matrix" values="0 0 0 0 0 0 0 0 0 0 0 0 0 0 0 0 0 0 127 0" result="hardAlpha"/>
<feOffset dy="2"/>
<feGaussianBlur stdDeviation="2"/>
<feComposite in2="hardAlpha" operator="out"/>
<feColorMatrix type="matrix" values="0 0 0 0 0.694118 0 0 0 0 0.74902 0 0 0 0 0.792157 0 0 0 0.36 0"/>
<feBlend mode="normal" in2="BackgroundImageFix" result="effect1_dropShadow_564_88241"/>
<feBlend mode="normal" in="SourceGraphic" in2="effect1_dropShadow_564_88241" result="shape"/>
</filter>
</defs>
</svg>
