<svg width="284" height="174" viewBox="0 0 284 174" fill="none" xmlns="http://www.w3.org/2000/svg">
<g filter="url(#filter0_d_564_88237)">

</g>
<path d="M198.769 113.476C201.75 113.477 204.621 114.604 206.806 116.633C208.991 118.661 210.329 121.44 210.551 124.414L210.586 125.3V164.251C210.587 167.233 209.46 170.106 207.432 172.292C205.403 174.478 202.623 175.817 199.649 176.039L198.763 176.068H159.818C156.836 176.069 153.965 174.943 151.778 172.916C149.592 170.889 148.253 168.11 148.03 165.137L148 164.251V125.294C148.001 122.314 149.127 119.443 151.154 117.258C153.181 115.074 155.959 113.735 158.931 113.512L159.818 113.476H198.774H198.769ZM272.109 113.476C275.09 113.477 277.961 114.604 280.146 116.633C282.331 118.661 283.669 121.44 283.891 124.414L283.926 125.3V164.251C283.927 167.233 282.8 170.106 280.772 172.292C278.743 174.478 275.963 175.817 272.989 176.039L272.103 176.068H233.158C230.176 176.069 227.305 174.943 225.119 172.916C222.932 170.889 221.593 168.11 221.37 165.137L221.34 164.251V125.294C221.341 122.314 222.467 119.443 224.495 117.258C226.522 115.074 229.299 113.735 232.272 113.512L233.158 113.476H272.115H272.109ZM198.769 125.294H159.812V164.251H198.769V125.294ZM272.109 125.294H233.152V164.251H272.109V125.294ZM244.278 39.5216C246.369 37.4318 249.167 36.2016 252.121 36.0736C255.074 35.9456 257.968 36.9292 260.232 38.8302L260.988 39.5216L284.541 63.08C286.631 65.1709 287.861 67.9691 287.989 70.9225C288.117 73.8759 287.133 76.77 285.232 79.0338L284.541 79.7901L260.988 103.349C258.897 105.442 256.096 106.674 253.14 106.802C250.184 106.93 247.287 105.944 245.023 104.04L244.272 103.349L220.714 79.7901C218.622 77.699 217.391 74.8996 217.263 71.9448C217.135 68.99 218.12 66.0946 220.023 63.8304L220.714 63.08L244.272 39.5216H244.278ZM198.769 40.1361C201.75 40.1367 204.621 41.2643 206.806 43.2926C208.991 45.3209 210.329 48.1002 210.551 51.0733L210.586 51.9596V90.9105C210.587 93.8929 209.46 96.7654 207.432 98.9517C205.403 101.138 202.623 102.476 199.649 102.699L198.763 102.728H159.818C156.836 102.729 153.965 101.603 151.778 99.5758C149.592 97.5486 148.253 94.7699 148.03 91.7969L148 90.9105V51.9537C148.001 48.9733 149.127 46.1031 151.154 43.9182C153.181 41.7333 155.959 40.3951 158.931 40.1715L159.818 40.1361H198.774H198.769ZM252.627 47.8766L229.081 71.441L252.633 94.9994L276.192 71.441L252.633 47.8825L252.627 47.8766ZM198.769 51.9537H159.812V90.9105H198.769V51.9537Z" fill="#D3E9F9"/>
<path d="M33.2727 36.6564C32.1927 39.1404 30.0687 41.2644 26.9727 42.9924L29.0247 45.7284C30.1767 45.0084 31.2567 44.2164 32.2287 43.3524C33.0207 44.1444 33.9567 44.9004 34.9647 45.6204C32.5887 46.5564 29.7447 47.2764 26.3967 47.8164L28.0167 50.8044C31.9767 49.9404 35.2887 48.8244 37.9887 47.4564C40.4007 48.7524 43.2447 49.8324 46.5207 50.6964L48.4647 47.8884C45.7287 47.2764 43.2807 46.5204 41.0847 45.5844C42.8847 44.2524 44.2527 42.7404 45.1167 41.0484V38.5644H35.9367C36.1887 38.0964 36.4047 37.5924 36.6207 37.0884L33.2727 36.6564ZM38.0607 44.1084C36.5847 43.2804 35.2887 42.3444 34.1367 41.3364C34.1367 41.3004 34.1727 41.2644 34.2087 41.2284H41.3727C40.5447 42.2724 39.4287 43.2444 38.0607 44.1084ZM31.1847 53.8284L29.7087 56.6004C34.4967 57.5004 39.1047 58.7604 43.5687 60.3804L44.7927 57.3204C40.4367 55.8084 35.9007 54.6564 31.1847 53.8284ZM34.7847 49.0044L33.1287 51.4524C35.8287 52.2084 38.4567 53.2524 41.0487 54.6204L42.7767 51.9564C40.3647 50.8044 37.7007 49.8324 34.7847 49.0044ZM52.4967 32.9844H22.1127V65.0604H25.7847V63.8724H48.8247V65.0604H52.4967V32.9844ZM25.7847 60.5604V36.2964H48.8247V60.5604H25.7847ZM67.0407 44.3244H87.5247V40.7244H80.1447V31.7604H76.4367V40.7244H67.0407V32.8044H63.2607V46.1244C63.1887 53.6484 61.3887 59.1204 57.8607 62.5404L60.7767 65.0964C63.6567 62.2524 65.5647 58.2204 66.4647 53.0004H79.6407V65.1684H83.4207V49.4004H66.8967C66.9687 48.3564 67.0407 47.2764 67.0407 46.1244V44.3244ZM103.725 32.3724C102.249 35.1084 100.701 37.3764 99.0807 39.2484C97.0647 41.5164 94.9047 43.2444 92.6727 44.4684L94.7247 47.8164C97.8927 45.5484 100.269 43.4964 101.925 41.6244C103.617 39.7524 105.309 37.3044 106.965 34.3524L103.725 32.3724ZM104.697 49.2924C103.977 52.1724 102.969 54.5124 101.709 56.3124C100.053 58.4004 97.6047 60.3084 94.3647 62.0364L96.8127 65.1684C100.485 63.0804 103.257 60.7044 105.129 58.0764C106.569 55.8804 107.685 52.9644 108.513 49.2924H116.289C116.145 54.2604 115.749 57.5004 115.173 59.0124C114.597 60.4524 113.445 61.2084 111.681 61.2084C109.809 61.2084 107.793 61.1364 105.669 61.0644L106.677 64.7724H113.589C115.425 64.6644 116.757 64.0524 117.585 62.9724C118.449 61.8204 119.025 59.8404 119.385 56.9604C119.745 54.0804 119.961 50.3364 120.105 45.6564H98.2167V49.2924H104.697ZM114.993 31.9404L111.717 33.7764C113.913 39.4644 117.801 44.0724 123.345 47.6364L125.901 44.6484C120.573 41.5524 116.937 37.3044 114.993 31.9404ZM147.213 44.7564C150.957 46.0524 154.665 47.7084 158.265 49.7964L160.317 46.6644C156.357 44.9364 151.965 43.4964 147.213 42.2724V42.0204H160.641V38.5284H147.213V31.6884H143.397V38.5284H129.969V42.0204H140.013C137.961 43.8204 134.541 45.4404 129.753 46.9524L131.733 50.1924C137.313 47.9244 141.201 45.2604 143.397 42.2004V48.0684H147.213V44.7564ZM145.053 56.4204C148.401 60.5244 153.261 63.4764 159.597 65.2044L161.505 61.8204C156.105 60.5964 151.785 58.5084 148.617 55.5564H160.929V52.0644H146.781C146.997 51.1284 147.177 50.1564 147.321 49.1484H143.505C143.361 50.1564 143.145 51.1284 142.857 52.0644H129.681V55.5564H141.165C140.733 56.1324 140.193 56.7084 139.617 57.2484C137.457 59.1204 134.001 60.5604 129.177 61.6044L130.689 65.0964C136.413 63.7284 140.409 61.8924 142.713 59.5884C143.577 58.6524 144.369 57.6084 145.053 56.4204ZM136.953 32.2284L133.713 33.3084C134.793 34.8564 135.693 36.4764 136.413 38.1684L139.581 37.3404C138.789 35.3964 137.925 33.7044 136.953 32.2284ZM153.621 32.1564C152.829 34.1004 151.929 35.7204 150.849 37.0164L153.981 38.1324C155.169 36.6564 156.141 34.9644 156.897 33.0204L153.621 32.1564Z" fill="#2582C1"/>
<defs>
<filter id="filter0_d_564_88237" x="0" y="0.226562" width="292" height="181.227" filterUnits="userSpaceOnUse" color-interpolation-filters="sRGB">
<feFlood flood-opacity="0" result="BackgroundImageFix"/>
<feColorMatrix in="SourceAlpha" type="matrix" values="0 0 0 0 0 0 0 0 0 0 0 0 0 0 0 0 0 0 127 0" result="hardAlpha"/>
<feOffset dy="2"/>
<feGaussianBlur stdDeviation="2"/>
<feComposite in2="hardAlpha" operator="out"/>
<feColorMatrix type="matrix" values="0 0 0 0 0.694118 0 0 0 0 0.74902 0 0 0 0 0.792157 0 0 0 0.36 0"/>
<feBlend mode="normal" in2="BackgroundImageFix" result="effect1_dropShadow_564_88237"/>
<feBlend mode="normal" in="SourceGraphic" in2="effect1_dropShadow_564_88237" result="shape"/>
</filter>
</defs>
</svg>
