<svg width="284" height="174" viewBox="0 0 284 174" fill="none" xmlns="http://www.w3.org/2000/svg">
<g filter="url(#filter0_d_564_88255)">


</g>
<path d="M278.625 173.561H155.174C154.035 173.561 152.91 173.317 151.874 172.846C150.839 172.374 149.916 171.685 149.169 170.826C148.423 169.967 147.869 168.958 147.546 167.866C147.223 166.775 147.139 165.626 147.298 164.499C147.913 160.207 149.22 156.578 151.293 153.406C153.176 150.522 155.643 148.102 158.837 145.999C164.519 142.258 171.703 140.093 179.309 137.8C182.357 136.883 185.508 135.933 188.656 134.853C194.544 132.836 198.094 128.982 199.464 123.099L198.117 122.087C192.098 117.573 188.098 110.872 186.981 103.432C185.349 103.07 183.606 102.091 182.143 99.9174C180.851 97.9954 180.105 95.612 179.447 93.5101C179.168 92.6212 178.906 91.782 178.638 91.0959C177.215 87.4538 176.332 83.1226 176.332 79.7976C176.332 76.8694 177.46 74.4443 179.508 72.9698C180.493 72.2671 181.629 71.805 182.825 71.6205L180.649 54.94C180.346 52.6206 180.51 50.2638 181.134 48.0091C181.757 45.7545 182.826 43.6476 184.277 41.8131C185.729 39.9787 187.533 38.4538 189.584 37.3287C191.635 36.2036 193.891 35.5011 196.218 35.2628L208.806 33.9761C211.475 33.7031 214.155 33.565 216.837 33.5625H216.899C229.836 33.5625 246.909 36.7214 253.436 40.3238C253.81 40.5301 254.14 40.8099 254.404 41.1464C254.668 41.4829 254.861 41.8691 254.973 42.282C255.084 42.695 255.111 43.1261 255.052 43.5497C254.993 43.9733 254.849 44.3807 254.629 44.7474C254.611 44.7773 252.714 47.9849 251.269 52.5358C252.282 55.9424 252.563 59.5247 252.093 63.0476L250.975 71.6215C252.171 71.8068 253.307 72.2692 254.292 72.9717C256.34 74.4463 257.474 76.8714 257.474 79.7996C257.474 83.1246 256.59 87.4558 255.168 91.0979C254.9 91.784 254.638 92.6232 254.36 93.5121C253.701 95.614 252.956 97.9974 251.663 99.9194C250.2 102.093 248.457 103.072 246.826 103.434C245.708 110.874 241.708 117.575 235.689 122.089L234.341 123.101C235.711 128.984 239.261 132.838 245.149 134.855C248.3 135.935 251.451 136.885 254.496 137.802C262.102 140.095 269.286 142.26 274.968 146.001C278.162 148.104 280.629 150.527 282.512 153.408C284.584 156.58 285.893 160.209 286.507 164.501C286.667 165.629 286.582 166.777 286.259 167.869C285.936 168.96 285.382 169.97 284.635 170.829C283.888 171.688 282.965 172.377 281.929 172.848C280.893 173.32 279.768 173.563 278.629 173.562L278.625 173.561ZM189.357 97.198H189.784C190.556 97.1987 191.302 97.4801 191.882 97.9898C192.462 98.4994 192.837 99.2026 192.936 99.9681L193.209 102.056C193.6 105.001 194.573 107.838 196.071 110.403C197.569 112.968 199.562 115.209 201.935 116.997L204.868 119.196C205.327 119.54 205.684 120.001 205.902 120.532C206.12 121.062 206.191 121.641 206.107 122.209C204.734 131.441 199.414 137.895 190.722 140.873C187.458 141.991 184.249 142.961 181.146 143.893C173.997 146.048 167.244 148.082 162.337 151.314C157.205 154.695 154.51 159.039 153.598 165.402C153.565 165.624 153.582 165.849 153.645 166.064C153.709 166.278 153.818 166.476 153.966 166.644C154.115 166.819 154.301 166.958 154.51 167.054C154.719 167.149 154.946 167.198 155.176 167.197H278.625C278.854 167.198 279.082 167.149 279.29 167.054C279.499 166.958 279.685 166.819 279.835 166.644C279.982 166.476 280.092 166.278 280.155 166.064C280.219 165.849 280.235 165.624 280.203 165.402C279.291 159.039 276.595 154.694 271.464 151.314C266.557 148.082 259.803 146.044 252.654 143.893C249.551 142.959 246.342 141.991 243.078 140.873C234.386 137.89 229.066 131.441 227.693 122.209C227.609 121.642 227.679 121.062 227.897 120.532C228.115 120.002 228.472 119.54 228.93 119.196L231.861 116.997C234.233 115.209 236.225 112.968 237.722 110.404C239.22 107.84 240.192 105.004 240.583 102.06L240.856 99.9721C240.955 99.2048 241.33 98.4999 241.912 97.9893C242.493 97.4787 243.24 97.1974 244.014 97.198H244.441C244.581 97.1978 244.72 97.2071 244.858 97.2258C245.301 97.2845 245.72 97.3391 246.375 96.3647C247.152 95.2113 247.726 93.3818 248.279 91.61C248.578 90.6574 248.886 89.6731 249.233 88.7832C250.369 85.8708 251.103 82.3441 251.103 79.7976C251.103 79.3194 251.035 78.4663 250.572 78.1342C250.198 77.8647 249.358 77.7484 248.323 78.0954C247.812 78.2665 247.265 78.3047 246.735 78.2065C246.204 78.1083 245.708 77.8769 245.291 77.534C244.875 77.1911 244.553 76.748 244.354 76.2463C244.156 75.7447 244.089 75.2009 244.159 74.666L245.782 62.2223C246.169 59.3163 245.876 56.3599 244.925 53.5868C244.712 52.9664 244.696 52.2954 244.88 51.6658C245.585 49.2692 246.468 46.929 247.524 44.6649C240.837 42.2676 227.836 39.935 216.959 39.926H216.899C214.412 39.9263 211.927 40.053 209.453 40.3059L196.868 41.5935C195.387 41.745 193.952 42.1918 192.647 42.9075C191.341 43.6232 190.193 44.5933 189.269 45.7604C188.345 46.9275 187.665 48.268 187.268 49.7026C186.871 51.1372 186.766 52.6368 186.959 54.1128L189.643 74.666C189.713 75.2009 189.646 75.7447 189.448 76.2463C189.25 76.748 188.927 77.1911 188.511 77.534C188.095 77.8769 187.598 78.1083 187.068 78.2065C186.537 78.3047 185.991 78.2665 185.479 78.0954C184.445 77.7484 183.605 77.8647 183.231 78.1342C182.764 78.4663 182.695 79.3194 182.695 79.7976C182.695 82.3441 183.429 85.8708 184.565 88.7832C184.912 89.678 185.221 90.6574 185.519 91.61C186.073 93.3798 186.646 95.2113 187.423 96.3647C188.078 97.3391 188.497 97.2835 188.94 97.2258C189.078 97.2071 189.218 97.1978 189.357 97.198Z" fill="#D3E9F9"/>
<path d="M46.5666 64.9538C49.3026 64.9538 50.6706 63.5498 50.6706 60.7418V41.4458H39.9066V31.8698H36.1626V41.4458H24.9666V65.2058H28.6026V57.5378H47.0346V59.9138C47.0346 60.9218 46.4586 61.4258 45.3426 61.4258L41.4906 61.2818L42.4626 64.9538H46.5666ZM28.6026 54.1538V51.3458H47.0346V54.1538H28.6026ZM28.6026 47.9618V44.9378H47.0346V47.9618H28.6026ZM28.2066 32.4458L24.8946 34.0658C26.4786 36.0098 27.9546 38.2058 29.3226 40.6538L32.5986 38.9978C31.1946 36.6218 29.7186 34.4258 28.2066 32.4458ZM48.2226 32.3018C47.1066 34.5338 45.5946 36.8018 43.6866 39.1058L46.8546 40.7618C48.7626 38.5298 50.3106 36.2618 51.5346 33.8858L48.2226 32.3018ZM68.0226 41.3738V47.5298H73.2066C71.4786 48.8258 69.1746 49.7978 66.3306 50.3738L67.6986 53.4338C71.1186 52.7138 73.8906 51.4178 76.0146 49.6178C76.3026 49.9778 76.5906 50.3378 76.8786 50.7698C74.3226 52.7858 70.7946 54.4418 66.2946 55.7378L68.0946 58.7978C72.2706 57.3578 75.6546 55.5218 78.2106 53.2898C78.3906 53.7218 78.5706 54.1898 78.7146 54.6938C75.6906 57.3218 71.4786 59.4818 66.1506 61.1738L68.0586 64.3778C72.5946 62.6858 76.3026 60.5978 79.2186 58.0778V58.2218C79.2186 59.6618 79.0026 60.6338 78.6426 61.1378C78.2106 61.5698 77.6706 61.8218 77.0226 61.8938C76.3026 61.9298 75.3666 61.9658 74.2866 61.9658L75.4026 65.3498C76.1586 65.3498 76.8426 65.3138 77.4906 65.2778C79.5066 65.0258 80.8746 64.4858 81.6306 63.6578C82.4946 62.6498 82.9626 60.8138 82.9626 58.2218C82.8906 56.9978 82.7466 55.8098 82.4586 54.6578C82.7106 54.5498 82.9986 54.4418 83.2866 54.2978C84.3666 57.7178 86.0586 60.8498 88.3626 63.6938L90.8466 60.5978C88.6146 58.3658 87.0306 55.7738 86.1306 52.8938C87.2466 52.2458 88.2906 51.5618 89.2626 50.8058L86.8146 47.9978C85.3026 49.3658 83.4666 50.5538 81.3066 51.5258C80.6226 50.0858 79.7226 48.7538 78.6066 47.5298H88.7226V38.8178H82.7106C83.3946 38.0978 84.0786 37.2698 84.7266 36.3338V33.9938H76.3386L77.5266 32.3738L73.7106 31.5098C71.3346 34.6778 68.4906 37.1618 65.2506 38.8898C66.0786 37.0538 66.7626 35.1458 67.3386 33.2018L63.8466 31.5458C62.3346 37.0898 60.0306 41.8778 56.9346 45.9458L58.1946 49.9778C59.1306 48.8618 60.0306 47.7098 60.8946 46.5218V65.1338H64.6746V40.0778C64.8546 39.7178 65.0346 39.3218 65.2146 38.9258L67.5186 41.6978L68.0226 41.3738ZM78.1386 38.8178H71.6226C72.3786 38.1698 73.0986 37.5218 73.8186 36.8018H80.3346C79.5786 37.5218 78.8586 38.2058 78.1386 38.8178ZM85.0866 44.5058H79.6506C79.9746 43.6778 80.2266 42.7778 80.4426 41.8418H85.0866V44.5058ZM75.8346 44.5058H71.6586V41.8418H76.8786C76.6266 42.7778 76.2666 43.6778 75.8346 44.5058ZM104.311 32.4818C102.835 35.2178 101.287 37.4858 99.6666 39.3578C97.6506 41.6258 95.4906 43.3538 93.2586 44.5778L95.3106 47.9258C98.4786 45.6578 100.855 43.6058 102.511 41.7338C104.203 39.8618 105.895 37.4138 107.551 34.4618L104.311 32.4818ZM105.283 49.4018C104.563 52.2818 103.555 54.6218 102.295 56.4218C100.639 58.5098 98.1906 60.4178 94.9506 62.1458L97.3986 65.2778C101.071 63.1898 103.843 60.8138 105.715 58.1858C107.155 55.9898 108.271 53.0738 109.099 49.4018H116.875C116.731 54.3698 116.335 57.6098 115.759 59.1218C115.183 60.5618 114.031 61.3178 112.267 61.3178C110.395 61.3178 108.379 61.2458 106.255 61.1738L107.263 64.8818H114.175C116.011 64.7738 117.343 64.1618 118.171 63.0818C119.035 61.9298 119.611 59.9498 119.971 57.0698C120.331 54.1898 120.547 50.4458 120.691 45.7658H98.8026V49.4018H105.283ZM115.579 32.0498L112.303 33.8858C114.499 39.5738 118.387 44.1818 123.931 47.7458L126.487 44.7578C121.159 41.6618 117.523 37.4138 115.579 32.0498ZM133.003 44.8298V47.7098H137.971V49.5098H130.627V52.4618H137.971V54.1538H141.643V52.4618H149.131V49.5098H141.643V47.7098H146.647V44.8298H141.643V43.1378H148.123V40.9058H149.851V34.3898H141.463C141.175 33.4178 140.887 32.5178 140.599 31.7258L136.891 32.3738C137.179 32.9858 137.431 33.6698 137.719 34.3898H130.303V40.9418H131.419V43.1378H137.971V44.8298H133.003ZM146.359 40.1858H141.643V38.4218H137.971V40.1858H133.831V37.6298H146.359V40.1858ZM151.327 35.2538V57.1418H154.855V35.2538H151.327ZM157.807 64.8098C160.183 64.8098 161.407 63.5858 161.407 61.1738V31.9418H157.735V60.2378C157.735 61.1018 157.339 61.5338 156.547 61.5338C155.287 61.5338 153.991 61.4258 152.623 61.2818L153.379 64.8098H157.807ZM148.231 54.6218H131.995V65.0618H135.523V63.9458H144.739V65.2058H148.231V54.6218ZM135.523 60.8498V57.7538H144.739V60.8498H135.523Z" fill="#2582C1"/>
<defs>
<filter id="filter0_d_564_88255" x="0.585938" y="0.335938" width="292" height="181.227" filterUnits="userSpaceOnUse" color-interpolation-filters="sRGB">
<feFlood flood-opacity="0" result="BackgroundImageFix"/>
<feColorMatrix in="SourceAlpha" type="matrix" values="0 0 0 0 0 0 0 0 0 0 0 0 0 0 0 0 0 0 127 0" result="hardAlpha"/>
<feOffset dy="2"/>
<feGaussianBlur stdDeviation="2"/>
<feComposite in2="hardAlpha" operator="out"/>
<feColorMatrix type="matrix" values="0 0 0 0 0.694118 0 0 0 0 0.74902 0 0 0 0 0.792157 0 0 0 0.36 0"/>
<feBlend mode="normal" in2="BackgroundImageFix" result="effect1_dropShadow_564_88255"/>
<feBlend mode="normal" in="SourceGraphic" in2="effect1_dropShadow_564_88255" result="shape"/>
</filter>
</defs>
</svg>
