<svg width="236" height="169" viewBox="0 0 236 169" fill="none" xmlns="http://www.w3.org/2000/svg">
<g clip-path="url(#clip0_564_88653)">
<path d="M10.907 34.4242C12.9839 34.4242 14.6675 32.7457 14.6675 30.675C14.6675 28.6044 12.9839 26.9258 10.907 26.9258C8.83012 26.9258 7.14648 28.6044 7.14648 30.675C7.14648 32.7457 8.83012 34.4242 10.907 34.4242Z" fill="#E6E6E6"/>
<path d="M22.1883 34.4242C24.2651 34.4242 25.9488 32.7457 25.9488 30.675C25.9488 28.6044 24.2651 26.9258 22.1883 26.9258C20.1114 26.9258 18.4277 28.6044 18.4277 30.675C18.4277 32.7457 20.1114 34.4242 22.1883 34.4242Z" fill="#E6E6E6"/>
<path d="M33.4715 34.4242C35.5483 34.4242 37.232 32.7457 37.232 30.675C37.232 28.6044 35.5483 26.9258 33.4715 26.9258C31.3946 26.9258 29.7109 28.6044 29.7109 30.675C29.7109 32.7457 31.3946 34.4242 33.4715 34.4242Z" fill="#E6E6E6"/>
<path d="M44.7527 34.4242C46.8296 34.4242 48.5132 32.7457 48.5132 30.675C48.5132 28.6044 46.8296 26.9258 44.7527 26.9258C42.6758 26.9258 40.9922 28.6044 40.9922 30.675C40.9922 32.7457 42.6758 34.4242 44.7527 34.4242Z" fill="#E6E6E6"/>
<path d="M56.034 34.4242C58.1108 34.4242 59.7945 32.7457 59.7945 30.675C59.7945 28.6044 58.1108 26.9258 56.034 26.9258C53.9571 26.9258 52.2734 28.6044 52.2734 30.675C52.2734 32.7457 53.9571 34.4242 56.034 34.4242Z" fill="#E6E6E6"/>
<path d="M67.3152 34.4242C69.3921 34.4242 71.0757 32.7457 71.0757 30.675C71.0757 28.6044 69.3921 26.9258 67.3152 26.9258C65.2383 26.9258 63.5547 28.6044 63.5547 30.675C63.5547 32.7457 65.2383 34.4242 67.3152 34.4242Z" fill="#E6E6E6"/>
<path d="M78.5965 34.4242C80.6733 34.4242 82.357 32.7457 82.357 30.675C82.357 28.6044 80.6733 26.9258 78.5965 26.9258C76.5196 26.9258 74.8359 28.6044 74.8359 30.675C74.8359 32.7457 76.5196 34.4242 78.5965 34.4242Z" fill="#E6E6E6"/>
<path d="M87.2867 35.2407H2.21783C1.81211 35.2402 1.42314 35.0793 1.13625 34.7933C0.849358 34.5073 0.687977 34.1195 0.6875 33.715V27.6351C0.687976 27.2306 0.849358 26.8428 1.13625 26.5568C1.42314 26.2708 1.81211 26.1098 2.21783 26.1094H87.2867C87.6925 26.1099 88.0814 26.2708 88.3683 26.5568C88.6552 26.8428 88.8166 27.2306 88.8171 27.6351V33.715C88.8166 34.1195 88.6552 34.5073 88.3683 34.7933C88.0814 35.0793 87.6925 35.2402 87.2867 35.2407ZM2.21783 26.7197C1.97439 26.7199 1.741 26.8165 1.56886 26.9881C1.39672 27.1597 1.2999 27.3924 1.29963 27.6351V33.715C1.2999 33.9577 1.39672 34.1904 1.56886 34.362C1.741 34.5336 1.97439 34.6302 2.21783 34.6304H87.2867C87.5302 34.6302 87.7636 34.5336 87.9357 34.362C88.1078 34.1904 88.2047 33.9577 88.2049 33.715V27.6351C88.2047 27.3924 88.1078 27.1597 87.9357 26.9881C87.7636 26.8165 87.5302 26.7199 87.2867 26.7197L2.21783 26.7197Z" fill="#E6E6E6"/>
<path d="M20.4229 1.09538C20.6561 1.09564 20.8795 1.18809 21.0444 1.35243C21.2092 1.51677 21.3019 1.73958 21.3022 1.97199V20.9684C21.3019 21.2008 21.2092 21.4236 21.0444 21.5879C20.8795 21.7523 20.6561 21.8447 20.4229 21.845H1.75854C1.52543 21.8447 1.30194 21.7523 1.13711 21.5879C0.972274 21.4236 0.879551 21.2008 0.879285 20.9684V1.97201C0.879551 1.7396 0.972274 1.51678 1.13711 1.35244C1.30194 1.1881 1.52543 1.09566 1.75854 1.09539H20.4229M20.4229 0.218763H1.75854C1.29215 0.218763 0.844858 0.40348 0.515068 0.73228C0.185278 1.06108 0 1.50703 0 1.97202V20.9684C0 21.4334 0.185278 21.8793 0.515068 22.2081C0.844858 22.5369 1.29215 22.7216 1.75854 22.7216H20.4229C20.8893 22.7216 21.3366 22.5369 21.6664 22.2081C21.9962 21.8793 22.1815 21.4334 22.1815 20.9684V1.97201C22.1815 1.50702 21.9962 1.06107 21.6664 0.732268C21.3366 0.403468 20.8893 0.218751 20.4229 0.21875V0.218763Z" fill="#E6E6E6"/>
<path d="M17.5123 6.08854H5.05952C5.00156 6.08889 4.9441 6.07782 4.89045 6.05595C4.8368 6.03408 4.78802 6.00185 4.74691 5.96112C4.7058 5.92038 4.67317 5.87194 4.65091 5.81859C4.62865 5.76524 4.61719 5.70802 4.61719 5.65023C4.61719 5.59245 4.62865 5.53523 4.65091 5.48187C4.67317 5.42852 4.7058 5.38008 4.74691 5.33935C4.78802 5.29861 4.8368 5.26638 4.89045 5.24451C4.9441 5.22264 5.00156 5.21157 5.05952 5.21192H17.5123C17.5702 5.21157 17.6277 5.22264 17.6813 5.24451C17.735 5.26638 17.7838 5.29861 17.8249 5.33935C17.866 5.38008 17.8986 5.42852 17.9209 5.48187C17.9431 5.53523 17.9546 5.59245 17.9546 5.65023C17.9546 5.70802 17.9431 5.76524 17.9209 5.81859C17.8986 5.87194 17.866 5.92038 17.8249 5.96112C17.7838 6.00185 17.735 6.03408 17.6813 6.05595C17.6277 6.07782 17.5702 6.08889 17.5123 6.08854Z" fill="#62B0E5"/>
<path d="M17.5123 9.19254H5.05952C5.00156 9.1929 4.9441 9.18182 4.89045 9.15995C4.8368 9.13808 4.78802 9.10585 4.74691 9.06512C4.7058 9.02438 4.67317 8.97594 4.65091 8.92259C4.62865 8.86924 4.61719 8.81202 4.61719 8.75423C4.61719 8.69645 4.62865 8.63923 4.65091 8.58587C4.67317 8.53252 4.7058 8.48409 4.74691 8.44335C4.78802 8.40261 4.8368 8.37038 4.89045 8.34852C4.9441 8.32665 5.00156 8.31557 5.05952 8.31593H17.5123C17.5702 8.31557 17.6277 8.32665 17.6813 8.34852C17.735 8.37038 17.7838 8.40261 17.8249 8.44335C17.866 8.48409 17.8986 8.53252 17.9209 8.58587C17.9431 8.63923 17.9546 8.69645 17.9546 8.75423C17.9546 8.81202 17.9431 8.86924 17.9209 8.92259C17.8986 8.97594 17.866 9.02438 17.8249 9.06512C17.7838 9.10585 17.735 9.13808 17.6813 9.15995C17.6277 9.18182 17.5702 9.1929 17.5123 9.19254Z" fill="#62B0E5"/>
<path d="M17.5123 12.2965H5.05952C5.00156 12.2969 4.9441 12.2858 4.89045 12.264C4.8368 12.2421 4.78802 12.2099 4.74691 12.1691C4.7058 12.1284 4.67317 12.0799 4.65091 12.0266C4.62865 11.9732 4.61719 11.916 4.61719 11.8582C4.61719 11.8004 4.62865 11.7432 4.65091 11.6899C4.67317 11.6365 4.7058 11.5881 4.74691 11.5473C4.78802 11.5066 4.8368 11.4744 4.89045 11.4525C4.9441 11.4306 5.00156 11.4196 5.05952 11.4199H17.5123C17.5702 11.4196 17.6277 11.4306 17.6813 11.4525C17.735 11.4744 17.7838 11.5066 17.8249 11.5473C17.866 11.5881 17.8986 11.6365 17.9209 11.6899C17.9431 11.7432 17.9546 11.8004 17.9546 11.8582C17.9546 11.916 17.9431 11.9732 17.9209 12.0266C17.8986 12.0799 17.866 12.1284 17.8249 12.1691C17.7838 12.2099 17.735 12.2421 17.6813 12.264C17.6277 12.2858 17.5702 12.2969 17.5123 12.2965Z" fill="#62B0E5"/>
<path d="M17.5123 15.4006H5.05952C5.00156 15.4009 4.9441 15.3898 4.89045 15.368C4.8368 15.3461 4.78802 15.3139 4.74691 15.2731C4.7058 15.2324 4.67317 15.184 4.65091 15.1306C4.62865 15.0772 4.61719 15.02 4.61719 14.9622C4.61719 14.9045 4.62865 14.8472 4.65091 14.7939C4.67317 14.7405 4.7058 14.6921 4.74691 14.6514C4.78802 14.6106 4.8368 14.5784 4.89045 14.5565C4.9441 14.5347 5.00156 14.5236 5.05952 14.5239H17.5123C17.5702 14.5236 17.6277 14.5347 17.6813 14.5565C17.735 14.5784 17.7838 14.6106 17.8249 14.6514C17.866 14.6921 17.8986 14.7405 17.9209 14.7939C17.9431 14.8472 17.9546 14.9045 17.9546 14.9622C17.9546 15.02 17.9431 15.0772 17.9209 15.1306C17.8986 15.184 17.866 15.2324 17.8249 15.2731C17.7838 15.3139 17.735 15.3461 17.6813 15.368C17.6277 15.3898 17.5702 15.4009 17.5123 15.4006Z" fill="#62B0E5"/>
<path d="M17.5115 18.5041H5.05877C4.94218 18.5041 4.83035 18.4579 4.7479 18.3757C4.66546 18.2935 4.61914 18.182 4.61914 18.0658C4.61914 17.9495 4.66546 17.838 4.7479 17.7558C4.83035 17.6736 4.94218 17.6274 5.05877 17.6274H17.5115C17.6281 17.6274 17.7399 17.6736 17.8224 17.7558C17.9048 17.838 17.9512 17.9495 17.9512 18.0658C17.9512 18.182 17.9048 18.2935 17.8224 18.3757C17.7399 18.4579 17.6281 18.5041 17.5115 18.5041Z" fill="#62B0E5"/>
<path d="M84.171 1.09538C84.4041 1.09564 84.6276 1.18809 84.7924 1.35243C84.9573 1.51677 85.05 1.73958 85.0502 1.97199V20.9684C85.05 21.2008 84.9573 21.4236 84.7924 21.5879C84.6276 21.7523 84.4041 21.8447 84.171 21.845H65.5066C65.2735 21.8447 65.05 21.7523 64.8852 21.5879C64.7203 21.4236 64.6276 21.2008 64.6273 20.9684V1.97201C64.6276 1.7396 64.7203 1.51678 64.8852 1.35244C65.05 1.1881 65.2735 1.09566 65.5066 1.09539H84.171M84.171 0.218763H65.5066C65.0402 0.218763 64.5929 0.40348 64.2631 0.73228C63.9333 1.06108 63.748 1.50703 63.748 1.97202V20.9684C63.748 21.4334 63.9333 21.8793 64.2631 22.2081C64.5929 22.5369 65.0402 22.7216 65.5066 22.7216H84.171C84.6374 22.7216 85.0847 22.5369 85.4145 22.2081C85.7443 21.8793 85.9295 21.4334 85.9295 20.9684V1.97201C85.9295 1.50702 85.7443 1.06107 85.4145 0.732268C85.0847 0.403467 84.6374 0.21875 84.171 0.21875V0.218763Z" fill="#E6E6E6"/>
<path d="M81.2584 6.08854H68.8056C68.7477 6.08889 68.6902 6.07782 68.6365 6.05595C68.5829 6.03408 68.5341 6.00185 68.493 5.96112C68.4519 5.92038 68.4193 5.87194 68.397 5.81859C68.3747 5.76524 68.3633 5.70802 68.3633 5.65023C68.3633 5.59245 68.3747 5.53523 68.397 5.48187C68.4193 5.42852 68.4519 5.38008 68.493 5.33935C68.5341 5.29861 68.5829 5.26638 68.6365 5.24451C68.6902 5.22264 68.7477 5.21157 68.8056 5.21192H81.2584C81.3745 5.21263 81.4856 5.25913 81.5675 5.34125C81.6494 5.42337 81.6953 5.53445 81.6953 5.65023C81.6953 5.76602 81.6494 5.87709 81.5675 5.95921C81.4856 6.04134 81.3745 6.08783 81.2584 6.08854H81.2584Z" fill="#62B0E5"/>
<path d="M81.2584 9.19254H68.8056C68.7477 9.1929 68.6902 9.18182 68.6365 9.15995C68.5829 9.13808 68.5341 9.10585 68.493 9.06512C68.4519 9.02438 68.4193 8.97594 68.397 8.92259C68.3747 8.86924 68.3633 8.81202 68.3633 8.75423C68.3633 8.69645 68.3747 8.63923 68.397 8.58587C68.4193 8.53252 68.4519 8.48409 68.493 8.44335C68.5341 8.40261 68.5829 8.37038 68.6365 8.34852C68.6902 8.32665 68.7477 8.31557 68.8056 8.31593H81.2584C81.3745 8.31664 81.4856 8.36313 81.5675 8.44525C81.6494 8.52737 81.6953 8.63845 81.6953 8.75423C81.6953 8.87002 81.6494 8.9811 81.5675 9.06322C81.4856 9.14534 81.3745 9.19183 81.2584 9.19254H81.2584Z" fill="#62B0E5"/>
<path d="M81.2584 12.2965H68.8056C68.7477 12.2969 68.6902 12.2858 68.6365 12.264C68.5829 12.2421 68.5341 12.2099 68.493 12.1691C68.4519 12.1284 68.4193 12.0799 68.397 12.0266C68.3747 11.9732 68.3633 11.916 68.3633 11.8582C68.3633 11.8004 68.3747 11.7432 68.397 11.6899C68.4193 11.6365 68.4519 11.5881 68.493 11.5473C68.5341 11.5066 68.5829 11.4744 68.6365 11.4525C68.6902 11.4306 68.7477 11.4196 68.8056 11.4199H81.2584C81.3745 11.4206 81.4856 11.4671 81.5675 11.5493C81.6494 11.6314 81.6953 11.7425 81.6953 11.8582C81.6953 11.974 81.6494 12.0851 81.5675 12.1672C81.4856 12.2493 81.3745 12.2958 81.2584 12.2965H81.2584Z" fill="#62B0E5"/>
<path d="M81.2584 15.4006H68.8056C68.7477 15.4009 68.6902 15.3898 68.6365 15.368C68.5829 15.3461 68.5341 15.3139 68.493 15.2731C68.4519 15.2324 68.4193 15.184 68.397 15.1306C68.3747 15.0772 68.3633 15.02 68.3633 14.9622C68.3633 14.9045 68.3747 14.8472 68.397 14.7939C68.4193 14.7405 68.4519 14.6921 68.493 14.6514C68.5341 14.6106 68.5829 14.5784 68.6365 14.5565C68.6902 14.5347 68.7477 14.5236 68.8056 14.5239H81.2584C81.3745 14.5246 81.4856 14.5711 81.5675 14.6533C81.6494 14.7354 81.6953 14.8465 81.6953 14.9622C81.6953 15.078 81.6494 15.1891 81.5675 15.2712C81.4856 15.3533 81.3745 15.3998 81.2584 15.4006H81.2584Z" fill="#62B0E5"/>
<path d="M81.2596 18.5041H68.8068C68.6902 18.5041 68.5784 18.4579 68.496 18.3757C68.4135 18.2935 68.3672 18.182 68.3672 18.0658C68.3672 17.9495 68.4135 17.838 68.496 17.7558C68.5784 17.6736 68.6902 17.6274 68.8068 17.6274H81.2596C81.3762 17.6274 81.488 17.6736 81.5705 17.7558C81.6529 17.838 81.6992 17.9495 81.6992 18.0658C81.6992 18.182 81.6529 18.2935 81.5705 18.3757C81.488 18.4579 81.3762 18.5041 81.2596 18.5041H81.2596Z" fill="#62B0E5"/>
<path d="M147.607 37.6208C147.84 37.621 148.063 37.7135 148.228 37.8778C148.393 38.0422 148.486 38.265 148.486 38.4974V57.4938C148.486 57.7262 148.393 57.949 148.228 58.1133C148.063 58.2777 147.84 58.3701 147.607 58.3704H128.942C128.709 58.3701 128.486 58.2777 128.321 58.1133C128.156 57.949 128.063 57.7262 128.063 57.4938V38.4974C128.063 38.265 128.156 38.0422 128.321 37.8778C128.486 37.7135 128.709 37.6211 128.942 37.6208H147.607M147.607 36.7442H128.942C128.476 36.7442 128.028 36.9289 127.699 37.2577C127.369 37.5865 127.184 38.0324 127.184 38.4974V57.4938C127.184 57.9588 127.369 58.4047 127.699 58.7335C128.028 59.0623 128.476 59.2471 128.942 59.2471H147.607C148.073 59.247 148.52 59.0623 148.85 58.7335C149.18 58.4047 149.365 57.9588 149.365 57.4938V38.4974C149.365 38.0324 149.18 37.5865 148.85 37.2577C148.52 36.9289 148.073 36.7441 147.607 36.7441V36.7442Z" fill="#62B0E5"/>
<path d="M144.696 42.6144H132.243C132.185 42.6148 132.128 42.6037 132.074 42.5818C132.02 42.56 131.972 42.5277 131.931 42.487C131.889 42.4463 131.857 42.3978 131.835 42.3445C131.812 42.2911 131.801 42.2339 131.801 42.1761C131.801 42.1183 131.812 42.0611 131.835 42.0078C131.857 41.9544 131.889 41.906 131.931 41.8652C131.972 41.8245 132.02 41.7923 132.074 41.7704C132.128 41.7485 132.185 41.7374 132.243 41.7378H144.696C144.812 41.7385 144.923 41.785 145.005 41.8671C145.087 41.9493 145.133 42.0603 145.133 42.1761C145.133 42.2919 145.087 42.403 145.005 42.4851C144.923 42.5672 144.812 42.6137 144.696 42.6144Z" fill="#62B0E5"/>
<path d="M144.697 45.7184H132.244C132.128 45.7184 132.016 45.6722 131.933 45.59C131.851 45.5078 131.805 45.3964 131.805 45.2801C131.805 45.1639 131.851 45.0524 131.933 44.9702C132.016 44.888 132.128 44.8418 132.244 44.8418H144.697C144.814 44.8418 144.925 44.888 145.008 44.9702C145.09 45.0524 145.137 45.1639 145.137 45.2801C145.137 45.3964 145.09 45.5078 145.008 45.59C144.925 45.6722 144.814 45.7184 144.697 45.7184Z" fill="#62B0E5"/>
<path d="M144.695 48.8219H132.243C132.185 48.8222 132.127 48.8111 132.074 48.7892C132.02 48.7673 131.971 48.7351 131.93 48.6943C131.889 48.6536 131.857 48.6052 131.834 48.5519C131.812 48.4985 131.801 48.4414 131.801 48.3836C131.801 48.3259 131.812 48.2687 131.834 48.2154C131.857 48.1621 131.889 48.1136 131.93 48.0729C131.971 48.0322 132.02 47.9999 132.074 47.978C132.127 47.9561 132.185 47.945 132.243 47.9453H144.695C144.812 47.946 144.923 47.9925 145.005 48.0746C145.086 48.1568 145.132 48.2678 145.132 48.3836C145.132 48.4994 145.086 48.6105 145.005 48.6926C144.923 48.7747 144.812 48.8212 144.695 48.8219Z" fill="#62B0E5"/>
<path d="M144.696 51.9259H132.243C132.185 51.9263 132.128 51.9152 132.074 51.8934C132.02 51.8715 131.972 51.8392 131.931 51.7985C131.889 51.7578 131.857 51.7093 131.835 51.656C131.812 51.6026 131.801 51.5454 131.801 51.4876C131.801 51.4298 131.812 51.3726 131.835 51.3193C131.857 51.2659 131.889 51.2175 131.931 51.1767C131.972 51.136 132.02 51.1038 132.074 51.0819C132.128 51.06 132.185 51.049 132.243 51.0493H144.696C144.812 51.05 144.923 51.0965 145.005 51.1786C145.087 51.2608 145.133 51.3718 145.133 51.4876C145.133 51.6034 145.087 51.7145 145.005 51.7966C144.923 51.8787 144.812 51.9252 144.696 51.9259Z" fill="#62B0E5"/>
<path d="M144.696 55.0299H132.243C132.185 55.0303 132.128 55.0192 132.074 54.9974C132.02 54.9755 131.972 54.9433 131.931 54.9025C131.889 54.8618 131.857 54.8133 131.835 54.76C131.812 54.7066 131.801 54.6494 131.801 54.5916C131.801 54.5339 131.812 54.4766 131.835 54.4233C131.857 54.3699 131.889 54.3215 131.931 54.2808C131.972 54.24 132.02 54.2078 132.074 54.1859C132.128 54.164 132.185 54.153 132.243 54.1533H144.696C144.812 54.154 144.923 54.2005 145.005 54.2826C145.087 54.3648 145.133 54.4759 145.133 54.5916C145.133 54.7074 145.087 54.8185 145.005 54.9006C144.923 54.9827 144.812 55.0292 144.696 55.0299Z" fill="#62B0E5"/>
<path d="M52.5404 22.7214H33.3873C32.8693 22.7208 32.3727 22.5154 32.0065 22.1502C31.6402 21.7851 31.4342 21.29 31.4336 20.7736V7.10964C31.4342 6.5932 31.6402 6.09807 32.0064 5.73288C32.3727 5.36768 32.8693 5.16224 33.3873 5.16162H52.5404C53.0584 5.16219 53.555 5.36761 53.9214 5.73281C54.2877 6.09801 54.4937 6.59317 54.4943 7.10964V20.7736C54.4936 21.2901 54.2876 21.7852 53.9213 22.1503C53.555 22.5155 53.0584 22.7209 52.5404 22.7214ZM33.3873 6.03825C33.1024 6.0386 32.8293 6.1516 32.6279 6.35246C32.4264 6.55331 32.3132 6.82562 32.3129 7.10964V20.7736C32.3132 21.0576 32.4265 21.3299 32.6279 21.5307C32.8293 21.7315 33.1024 21.8445 33.3873 21.8448H52.5404C52.8253 21.8445 53.0984 21.7315 53.2998 21.5307C53.5013 21.3299 53.6146 21.0576 53.615 20.7736V7.10964C53.6146 6.82559 53.5013 6.55329 53.2999 6.35243C53.0984 6.15158 52.8253 6.03859 52.5404 6.03825H33.3873Z" fill="#E6E6E6"/>
<path d="M49.1905 11.276H36.7377C36.6216 11.2753 36.5105 11.2288 36.4286 11.1467C36.3467 11.0646 36.3008 10.9535 36.3008 10.8377C36.3008 10.7219 36.3467 10.6109 36.4286 10.5287C36.5105 10.4466 36.6216 10.4001 36.7377 10.3994H49.1905C49.2484 10.3991 49.3059 10.4101 49.3596 10.432C49.4132 10.4539 49.462 10.4861 49.5031 10.5268C49.5442 10.5676 49.5768 10.616 49.5991 10.6694C49.6214 10.7227 49.6328 10.7799 49.6328 10.8377C49.6328 10.8955 49.6214 10.9527 49.5991 11.0061C49.5768 11.0594 49.5442 11.1079 49.5031 11.1486C49.462 11.1894 49.4132 11.2216 49.3596 11.2435C49.3059 11.2653 49.2484 11.2764 49.1905 11.276Z" fill="#62B0E5"/>
<path d="M49.1905 14.38H36.7377C36.6216 14.3793 36.5105 14.3328 36.4286 14.2507C36.3467 14.1686 36.3008 14.0575 36.3008 13.9417C36.3008 13.826 36.3467 13.7149 36.4286 13.6328C36.5105 13.5506 36.6216 13.5041 36.7377 13.5034H49.1905C49.2484 13.5031 49.3059 13.5141 49.3596 13.536C49.4132 13.5579 49.462 13.5901 49.5031 13.6308C49.5442 13.6716 49.5768 13.72 49.5991 13.7734C49.6214 13.8267 49.6328 13.8839 49.6328 13.9417C49.6328 13.9995 49.6214 14.0567 49.5991 14.1101C49.5768 14.1634 49.5442 14.2119 49.5031 14.2526C49.462 14.2934 49.4132 14.3256 49.3596 14.3475C49.3059 14.3693 49.2484 14.3804 49.1905 14.38Z" fill="#62B0E5"/>
<path d="M49.1905 17.484H36.7377C36.6216 17.4833 36.5105 17.4368 36.4286 17.3547C36.3467 17.2726 36.3008 17.1615 36.3008 17.0457C36.3008 16.93 36.3467 16.8189 36.4286 16.7368C36.5105 16.6546 36.6216 16.6081 36.7377 16.6074H49.1905C49.2484 16.6071 49.3059 16.6181 49.3596 16.64C49.4132 16.6619 49.462 16.6941 49.5031 16.7348C49.5442 16.7756 49.5768 16.824 49.5991 16.8774C49.6214 16.9307 49.6328 16.9879 49.6328 17.0457C49.6328 17.1035 49.6214 17.1607 49.5991 17.2141C49.5768 17.2674 49.5442 17.3159 49.5031 17.3566C49.462 17.3974 49.4132 17.4296 49.3596 17.4515C49.3059 17.4733 49.2484 17.4844 49.1905 17.484Z" fill="#62B0E5"/>
<path d="M116.093 30.2933L97.698 24.9747C97.2007 24.8303 96.7812 24.4951 96.5315 24.0427C96.2817 23.5903 96.2221 23.0576 96.3658 22.5614L100.183 9.43815C100.328 8.94231 100.664 8.52397 101.118 8.27493C101.572 8.02589 102.106 7.96648 102.604 8.10973L120.999 13.4283C121.496 13.5727 121.916 13.9079 122.166 14.3604C122.415 14.8129 122.475 15.3456 122.331 15.8418L118.514 28.9651C118.369 29.4609 118.033 29.8792 117.579 30.1282C117.125 30.3772 116.591 30.4366 116.093 30.2933ZM102.359 8.95167C102.085 8.8729 101.791 8.90559 101.542 9.04256C101.292 9.17954 101.107 9.40961 101.028 9.68231L97.2103 22.8056C97.1313 23.0784 97.164 23.3714 97.3014 23.6202C97.4387 23.869 97.6694 24.0533 97.9429 24.1327L116.338 29.4513C116.612 29.5302 116.906 29.4975 117.155 29.3606C117.405 29.2237 117.59 28.9936 117.669 28.7209L121.487 15.5977C121.566 15.3248 121.533 15.0318 121.396 14.7829C121.258 14.5341 121.027 14.3497 120.754 14.2703L102.359 8.95167Z" fill="#E6E6E6"/>
<path d="M116.073 18.3703L104.113 14.9123C104.001 14.8797 103.907 14.8043 103.851 14.7025C103.795 14.6007 103.782 14.481 103.814 14.3695C103.847 14.258 103.922 14.1638 104.024 14.1078C104.126 14.0517 104.246 14.0382 104.358 14.0703L116.318 17.5283C116.43 17.5607 116.525 17.6361 116.581 17.7379C116.637 17.8398 116.65 17.9597 116.618 18.0714C116.585 18.183 116.51 18.2772 116.408 18.3333C116.305 18.3893 116.185 18.4026 116.073 18.3703H116.073Z" fill="#62B0E5"/>
<path d="M115.207 21.3515L103.247 17.8935C103.191 17.8774 103.14 17.8507 103.095 17.8147C103.05 17.7787 103.012 17.7343 102.984 17.6838C102.956 17.6334 102.939 17.578 102.932 17.5208C102.926 17.4636 102.931 17.4057 102.947 17.3504C102.963 17.2951 102.99 17.2435 103.026 17.1986C103.062 17.1537 103.107 17.1163 103.157 17.0885C103.208 17.0607 103.263 17.0432 103.321 17.0369C103.378 17.0305 103.436 17.0355 103.492 17.0515L115.452 20.5095C115.564 20.5421 115.658 20.6175 115.714 20.7193C115.77 20.821 115.783 20.9408 115.751 21.0523C115.718 21.1638 115.643 21.2579 115.541 21.314C115.439 21.3701 115.319 21.3836 115.207 21.3515Z" fill="#62B0E5"/>
<path d="M114.339 24.3327L102.379 20.8747C102.267 20.8421 102.173 20.7667 102.117 20.6649C102.061 20.5631 102.047 20.4434 102.08 20.3319C102.112 20.2204 102.188 20.1262 102.29 20.0702C102.392 20.0141 102.512 20.0006 102.624 20.0327L114.584 23.4907C114.696 23.5231 114.79 23.5985 114.846 23.7003C114.903 23.8022 114.916 23.9221 114.884 24.0338C114.851 24.1454 114.775 24.2396 114.673 24.2957C114.571 24.3517 114.451 24.365 114.339 24.3327Z" fill="#62B0E5"/>
<path d="M236.001 167.394H43.0684V168.219H236.001V167.394Z" fill="#E6E6E6"/>
<path d="M155.089 166.104H123.715L124.778 152.32H154.025L155.089 166.104Z" fill="#E6E6E6"/>
<path d="M157.215 164.513H122.119V167.694H157.215V164.513Z" fill="#E6E6E6"/>
<path d="M199.49 63.5176H79.5792C78.733 63.5176 77.9215 63.8527 77.3232 64.4493C76.7248 65.0458 76.3887 65.8549 76.3887 66.6985V139.595H202.681V66.6985C202.681 66.2808 202.598 65.8672 202.438 65.4812C202.277 65.0953 202.042 64.7446 201.746 64.4493C201.45 64.1539 201.098 63.9196 200.711 63.7597C200.324 63.5999 199.909 63.5176 199.49 63.5176H199.49Z" fill="#3F3D56"/>
<path d="M76.3887 139.596V151.524C76.3887 151.942 76.4712 152.356 76.6315 152.742C76.7919 153.128 77.0269 153.478 77.3232 153.774C77.6194 154.069 77.9711 154.303 78.3582 154.463C78.7453 154.623 79.1602 154.705 79.5792 154.705H199.49C200.336 154.705 201.148 154.37 201.746 153.774C202.345 153.177 202.681 152.368 202.681 151.524V139.596H76.3887Z" fill="#E6E6E6"/>
<path d="M196.565 70.1445H82.7695V133.764H196.565V70.1445Z" fill="#E6E6E6"/>
<path d="M139.667 150.199C141.429 150.199 142.858 148.775 142.858 147.018C142.858 145.261 141.429 143.837 139.667 143.837C137.905 143.837 136.477 145.261 136.477 147.018C136.477 148.775 137.905 150.199 139.667 150.199Z" fill="#3F3D56"/>
<path d="M86.3164 72.8318C86.6508 72.8318 86.9219 72.5616 86.9219 72.2282C86.9219 71.8948 86.6508 71.6245 86.3164 71.6245C85.982 71.6245 85.7109 71.8948 85.7109 72.2282C85.7109 72.5616 85.982 72.8318 86.3164 72.8318Z" fill="white"/>
<path d="M88.6152 72.8318C88.9496 72.8318 89.2207 72.5616 89.2207 72.2282C89.2207 71.8948 88.9496 71.6245 88.6152 71.6245C88.2808 71.6245 88.0098 71.8948 88.0098 72.2282C88.0098 72.5616 88.2808 72.8318 88.6152 72.8318Z" fill="white"/>
<path d="M90.9141 72.8318C91.2485 72.8318 91.5196 72.5616 91.5196 72.2282C91.5196 71.8948 91.2485 71.6245 90.9141 71.6245C90.5797 71.6245 90.3086 71.8948 90.3086 72.2282C90.3086 72.5616 90.5797 72.8318 90.9141 72.8318Z" fill="white"/>
<path d="M193.284 74.2793H85.7109V127.709H193.284V74.2793Z" fill="white"/>
<path d="M92.8627 82.4062C92.7619 82.4063 92.6652 82.4463 92.5939 82.5174C92.5226 82.5885 92.4825 82.6849 92.4824 82.7854V101.95C92.4825 102.051 92.5226 102.147 92.5939 102.218C92.6652 102.29 92.7619 102.329 92.8627 102.33H115.062C115.163 102.329 115.259 102.29 115.331 102.218C115.402 102.147 115.442 102.051 115.442 101.95V82.7854C115.442 82.6849 115.402 82.5885 115.331 82.5174C115.259 82.4463 115.163 82.4063 115.062 82.4062H92.8627Z" fill="#E6E6E6"/>
<path d="M128.505 82.4683C128.405 82.4683 128.308 82.5083 128.237 82.5794C128.165 82.6505 128.125 82.7469 128.125 82.8474V101.951C128.125 102.051 128.165 102.148 128.237 102.219C128.308 102.29 128.405 102.33 128.505 102.33H150.634C150.735 102.33 150.831 102.29 150.903 102.219C150.974 102.148 151.014 102.051 151.014 101.951V82.8474C151.014 82.7469 150.974 82.6505 150.903 82.5795C150.831 82.5084 150.735 82.4684 150.634 82.4683H128.505Z" fill="#E6E6E6"/>
<path d="M163.777 82.2676C163.676 82.2677 163.579 82.3077 163.508 82.3788C163.437 82.4499 163.397 82.5462 163.396 82.6467V101.95C163.397 102.051 163.437 102.147 163.508 102.218C163.579 102.289 163.676 102.329 163.777 102.33H186.135C186.236 102.329 186.333 102.289 186.404 102.218C186.475 102.147 186.515 102.051 186.515 101.95V82.6467C186.515 82.5462 186.475 82.4499 186.404 82.3788C186.333 82.3077 186.236 82.2677 186.135 82.2676H163.777Z" fill="#E6E6E6"/>
<path d="M93.2691 111.816C93.0609 111.817 92.8613 111.9 92.7141 112.047C92.567 112.193 92.4844 112.393 92.4844 112.6C92.4844 112.808 92.567 113.007 92.7141 113.154C92.8613 113.301 93.0609 113.384 93.2691 113.384H114.141C114.349 113.384 114.549 113.301 114.696 113.154C114.843 113.007 114.926 112.808 114.926 112.6C114.926 112.393 114.843 112.193 114.696 112.047C114.549 111.9 114.349 111.817 114.141 111.816H93.2691Z" fill="#E6E6E6"/>
<path d="M93.2692 115.545C93.0609 115.545 92.8613 115.628 92.7142 115.775C92.567 115.922 92.4844 116.121 92.4844 116.329C92.4844 116.537 92.567 116.736 92.7142 116.883C92.8613 117.03 93.0609 117.112 93.2692 117.113H102.667C102.875 117.112 103.074 117.03 103.222 116.883C103.369 116.736 103.451 116.537 103.451 116.329C103.451 116.121 103.369 115.922 103.222 115.775C103.074 115.628 102.875 115.545 102.667 115.545H93.2692Z" fill="#62B0E5"/>
<path d="M129.295 111.816C129.086 111.817 128.887 111.9 128.74 112.047C128.592 112.193 128.51 112.393 128.51 112.6C128.51 112.808 128.592 113.007 128.74 113.154C128.887 113.301 129.086 113.384 129.295 113.384H150.166C150.374 113.384 150.574 113.301 150.721 113.154C150.868 113.007 150.951 112.808 150.951 112.6C150.951 112.393 150.868 112.193 150.721 112.047C150.574 111.9 150.374 111.817 150.166 111.816H129.295Z" fill="#E6E6E6"/>
<path d="M129.295 115.545C129.086 115.545 128.887 115.628 128.74 115.775C128.592 115.922 128.51 116.121 128.51 116.329C128.51 116.537 128.592 116.736 128.74 116.883C128.887 117.03 129.086 117.112 129.295 117.113H138.692C138.9 117.112 139.1 117.03 139.247 116.883C139.394 116.736 139.477 116.537 139.477 116.329C139.477 116.121 139.394 115.922 139.247 115.775C139.1 115.628 138.9 115.545 138.692 115.545H129.295Z" fill="#62B0E5"/>
<path d="M164.421 111.816C164.213 111.817 164.014 111.9 163.866 112.047C163.719 112.193 163.637 112.393 163.637 112.6C163.637 112.808 163.719 113.007 163.866 113.154C164.014 113.301 164.213 113.384 164.421 113.384H185.293C185.501 113.384 185.701 113.301 185.848 113.154C185.995 113.007 186.078 112.808 186.078 112.6C186.078 112.393 185.995 112.193 185.848 112.047C185.701 111.9 185.501 111.817 185.293 111.816H164.421Z" fill="#E6E6E6"/>
<path d="M93.2691 107.965C93.0609 107.966 92.8613 108.048 92.7141 108.195C92.567 108.342 92.4844 108.542 92.4844 108.749C92.4844 108.957 92.567 109.156 92.7141 109.303C92.8613 109.45 93.0609 109.533 93.2691 109.533H114.141C114.349 109.533 114.549 109.45 114.696 109.303C114.843 109.156 114.926 108.957 114.926 108.749C114.926 108.542 114.843 108.342 114.696 108.195C114.549 108.048 114.349 107.966 114.141 107.965H93.2691Z" fill="#E6E6E6"/>
<path d="M129.295 107.965C129.086 107.966 128.887 108.048 128.74 108.195C128.592 108.342 128.51 108.542 128.51 108.749C128.51 108.957 128.592 109.156 128.74 109.303C128.887 109.45 129.086 109.533 129.295 109.533H150.166C150.374 109.533 150.574 109.45 150.721 109.303C150.868 109.156 150.951 108.957 150.951 108.749C150.951 108.542 150.868 108.342 150.721 108.195C150.574 108.048 150.374 107.966 150.166 107.965H129.295Z" fill="#E6E6E6"/>
<path d="M164.421 107.965C164.213 107.966 164.014 108.048 163.866 108.195C163.719 108.342 163.637 108.542 163.637 108.749C163.637 108.957 163.719 109.156 163.866 109.303C164.014 109.45 164.213 109.533 164.421 109.533H185.293C185.501 109.533 185.701 109.45 185.848 109.303C185.995 109.156 186.078 108.957 186.078 108.749C186.078 108.542 185.995 108.342 185.848 108.195C185.701 108.048 185.501 107.966 185.293 107.965H164.421Z" fill="#E6E6E6"/>
<path d="M164.422 115.545C164.213 115.545 164.014 115.628 163.867 115.775C163.719 115.922 163.637 116.121 163.637 116.329C163.637 116.537 163.719 116.736 163.867 116.883C164.014 117.03 164.213 117.112 164.422 117.113H173.819C174.027 117.112 174.227 117.03 174.374 116.883C174.521 116.736 174.604 116.537 174.604 116.329C174.604 116.121 174.521 115.922 174.374 115.775C174.227 115.628 174.027 115.545 173.819 115.545H164.422Z" fill="#62B0E5"/>
</g>
<defs>
<clipPath id="clip0_564_88653">
<rect width="236" height="168" fill="white" transform="translate(0 0.21875)"/>
</clipPath>
</defs>
</svg>
