<svg width="18" height="19" viewBox="0 0 18 19" fill="none" xmlns="http://www.w3.org/2000/svg">
<path d="M15.75 15.8418H1.6875C1.53832 15.8418 1.39524 15.7825 1.28975 15.677C1.18426 15.5716 1.125 15.4285 1.125 15.2793V4.0293C1.125 3.88011 1.18426 3.73704 1.28975 3.63155C1.39524 3.52606 1.53832 3.4668 1.6875 3.4668C1.83668 3.4668 1.97976 3.52606 2.08525 3.63155C2.19074 3.73704 2.25 3.88011 2.25 4.0293V14.7168H15.75C15.8992 14.7168 16.0423 14.7761 16.1477 14.8815C16.2532 14.987 16.3125 15.1301 16.3125 15.2793C16.3125 15.4285 16.2532 15.5716 16.1477 15.677C16.0423 15.7825 15.8992 15.8418 15.75 15.8418Z" fill="#48A2DF"/>
<path d="M9 13.3133C8.85082 13.3133 8.70774 13.2541 8.60225 13.1486C8.49676 13.0431 8.4375 12.9 8.4375 12.7508V6.25508C8.4375 6.10589 8.49676 5.96282 8.60225 5.85733C8.70774 5.75184 8.85082 5.69258 9 5.69258C9.14918 5.69258 9.29226 5.75184 9.39775 5.85733C9.50324 5.96282 9.5625 6.10589 9.5625 6.25508V12.7508C9.5625 12.9 9.50324 13.0431 9.39775 13.1486C9.29226 13.2541 9.14918 13.3133 9 13.3133ZM5.625 13.3206C5.47582 13.3206 5.33274 13.2614 5.22725 13.1559C5.12176 13.0504 5.0625 12.9073 5.0625 12.7581V9.09176C5.0625 8.94258 5.12176 8.79951 5.22725 8.69402C5.33274 8.58853 5.47582 8.52926 5.625 8.52926C5.77418 8.52926 5.91726 8.58853 6.02275 8.69402C6.12824 8.79951 6.1875 8.94258 6.1875 9.09176V12.7581C6.1875 12.9073 6.12824 13.0504 6.02275 13.1559C5.91726 13.2614 5.77418 13.3206 5.625 13.3206ZM15.75 13.3223C15.6008 13.3223 15.4577 13.2631 15.3523 13.1576C15.2468 13.0521 15.1875 12.909 15.1875 12.7598V2.96558C15.1875 2.81639 15.2468 2.67332 15.3523 2.56783C15.4577 2.46234 15.6008 2.40308 15.75 2.40308C15.8992 2.40308 16.0423 2.46234 16.1477 2.56783C16.2532 2.67332 16.3125 2.81639 16.3125 2.96558V12.7598C16.3125 12.909 16.2532 13.0521 16.1477 13.1576C16.0423 13.2631 15.8992 13.3223 15.75 13.3223ZM12.375 13.3235C12.2258 13.3235 12.0827 13.2642 11.9773 13.1587C11.8718 13.0532 11.8125 12.9101 11.8125 12.761V4.02926C11.8125 3.88008 11.8718 3.73701 11.9773 3.63152C12.0827 3.52603 12.2258 3.46676 12.375 3.46676C12.5242 3.46676 12.6673 3.52603 12.7727 3.63152C12.8782 3.73701 12.9375 3.88008 12.9375 4.02926V12.761C12.9375 12.9101 12.8782 13.0532 12.7727 13.1587C12.6673 13.2642 12.5242 13.3235 12.375 13.3235Z" fill="#48A2DF"/>
</svg>
