<svg width="20" height="20" viewBox="0 0 20 20" fill="none" xmlns="http://www.w3.org/2000/svg">
<path fill-rule="evenodd" clip-rule="evenodd" d="M4.8002 10.8001H11.2002V9.2001H4.8002V10.8001ZM4.8002 14.0001H11.2002V12.4001H4.8002V14.0001ZM4.8002 7.6001H8.0002V6.0001H4.8002V7.6001ZM12.5658 6.2345L10.1658 3.8345C10.0162 3.6841 9.813 3.6001 9.6002 3.6001H4.0002C3.5578 3.6001 3.2002 3.9585 3.2002 4.4001V15.6001C3.2002 16.0417 3.5578 16.4001 4.0002 16.4001H12.0002C12.4426 16.4001 12.8002 16.0417 12.8002 15.6001V6.8001C12.8002 6.5881 12.7162 6.3841 12.5658 6.2345Z" fill="#637381"/>
<mask id="mask0_564_84947" style="mask-type:alpha" maskUnits="userSpaceOnUse" x="3" y="3" width="10" height="14">
<path fill-rule="evenodd" clip-rule="evenodd" d="M4.8002 10.8001H11.2002V9.2001H4.8002V10.8001ZM4.8002 14.0001H11.2002V12.4001H4.8002V14.0001ZM4.8002 7.6001H8.0002V6.0001H4.8002V7.6001ZM12.5658 6.2345L10.1658 3.8345C10.0162 3.6841 9.813 3.6001 9.6002 3.6001H4.0002C3.5578 3.6001 3.2002 3.9585 3.2002 4.4001V15.6001C3.2002 16.0417 3.5578 16.4001 4.0002 16.4001H12.0002C12.4426 16.4001 12.8002 16.0417 12.8002 15.6001V6.8001C12.8002 6.5881 12.7162 6.3841 12.5658 6.2345Z" fill="white"/>
</mask>
<g mask="url(#mask0_564_84947)">
</g>
</svg>
