<svg width="18" height="19" viewBox="0 0 18 19" fill="none" xmlns="http://www.w3.org/2000/svg">
<path d="M1.15559 2.35753C1.15564 2.24047 1.20217 2.12821 1.28494 2.04544C1.36772 1.96266 1.47997 1.91614 1.59703 1.91608H7.09898C7.21604 1.91614 7.32829 1.96266 7.41107 2.04544C7.49384 2.12821 7.54037 2.24047 7.54042 2.35753V7.85948C7.54037 7.97654 7.49384 8.08879 7.41107 8.17157C7.32829 8.25434 7.21604 8.30087 7.09898 8.30092H1.5971C1.48004 8.30087 1.36778 8.25434 1.28501 8.17157C1.20223 8.08879 1.15571 7.97654 1.15565 7.85948V2.35759L1.15559 2.35753ZM0.136719 2.35753V7.85948C0.136719 8.66575 0.79056 9.31979 1.59703 9.31979H7.09898C7.90525 9.31979 8.55929 8.66595 8.55929 7.85948V2.35759C8.55936 1.55126 7.90552 0.897217 7.09905 0.897217H1.5971C0.790764 0.897217 0.136719 1.55106 0.136719 2.35753ZM1.15559 11.867C1.15564 11.7499 1.20217 11.6376 1.28494 11.5549C1.36772 11.4721 1.47997 11.4256 1.59703 11.4255H7.09898C7.21604 11.4256 7.32829 11.4721 7.41107 11.5549C7.49384 11.6376 7.54037 11.7499 7.54042 11.867V17.3689C7.54037 17.486 7.49384 17.5982 7.41107 17.681C7.32829 17.7638 7.21604 17.8103 7.09898 17.8104H1.5971C1.48004 17.8103 1.36778 17.7638 1.28501 17.681C1.20223 17.5982 1.15571 17.486 1.15565 17.3689V11.867L1.15559 11.867ZM0.136719 11.867V17.3689C0.136719 18.1752 0.79056 18.8292 1.59703 18.8292H7.09898C7.90525 18.8292 8.55929 18.1754 8.55929 17.3689V11.867C8.55929 11.0608 7.90545 10.4067 7.09898 10.4067H1.5971C0.790764 10.4067 0.136719 11.0605 0.136719 11.867ZM10.5971 2.35753C10.5972 2.24047 10.6437 2.12821 10.7265 2.04544C10.8092 1.96266 10.9215 1.91614 11.0385 1.91608H16.5405C16.6576 1.91614 16.7698 1.96266 16.8526 2.04544C16.9354 2.12821 16.9819 2.24047 16.9819 2.35753V7.85948C16.9819 7.97654 16.9354 8.08879 16.8526 8.17157C16.7698 8.25434 16.6576 8.30087 16.5405 8.30092H11.0386C10.9215 8.30087 10.8093 8.25434 10.7265 8.17157C10.6437 8.08879 10.5972 7.97654 10.5972 7.85948V2.35759L10.5971 2.35753ZM9.57823 2.35753V7.85948C9.57823 8.66575 10.2321 9.31979 11.0385 9.31979H16.5405C17.3468 9.31979 18.0008 8.66595 18.0008 7.85948V2.35759C18.0009 1.55126 17.347 0.897217 16.5406 0.897217H11.0386C10.2323 0.897217 9.5783 1.55106 9.5783 2.35753H9.57823ZM16.5401 17.8104H11.0387C10.9216 17.8104 10.8093 17.7639 10.7265 17.6811C10.6437 17.5983 10.5972 17.4861 10.5971 17.369V11.867C10.5972 11.75 10.6437 11.6377 10.7265 11.5549C10.8092 11.4722 10.9215 11.4256 11.0385 11.4256H16.5405C16.5985 11.4256 16.6559 11.437 16.7095 11.4592C16.7631 11.4814 16.8118 11.5139 16.8528 11.555C16.8938 11.596 16.9263 11.6447 16.9484 11.6983C16.9706 11.7519 16.982 11.8093 16.9819 11.8673V15.687C16.9819 15.8221 17.0356 15.9517 17.1311 16.0473C17.2267 16.1428 17.3563 16.1965 17.4914 16.1965C17.6265 16.1965 17.7561 16.1428 17.8516 16.0473C17.9471 15.9517 18.0008 15.8221 18.0008 15.687V11.8673C18.0008 11.0604 17.3471 10.4067 16.5405 10.4067H11.0386C10.2323 10.4067 9.5783 11.0606 9.5783 11.867V17.3689C9.5783 18.1752 10.2323 18.8292 11.0387 18.8292H16.5402C16.6753 18.8292 16.8048 18.7756 16.9004 18.68C16.9959 18.5845 17.0496 18.4549 17.0496 18.3198C17.0496 18.1847 16.9959 18.0551 16.9004 17.9596C16.8048 17.864 16.6753 17.8104 16.5402 17.8104L16.5401 17.8104Z" fill="#62B0E5"/>
</svg>
