<svg width="179" height="181" viewBox="0 0 179 181" fill="none" xmlns="http://www.w3.org/2000/svg">
<g clip-path="url(#clip0_564_94941)">
<rect x="0.740234" y="0.855469" width="178" height="180" rx="4" fill="white"/>
<path d="M45.1262 104.748V105.714H53.5402V104.748H45.1262ZM50.7962 103.012V109.508C50.7962 109.704 50.7402 109.774 50.5162 109.788C50.2642 109.788 49.4802 109.788 48.6262 109.76C48.7662 110.054 48.9342 110.488 48.9622 110.754C50.0822 110.754 50.8242 110.754 51.2582 110.586C51.7062 110.432 51.8462 110.124 51.8462 109.522V103.012H50.7962ZM46.1342 106.596C46.8482 107.338 47.6462 108.416 47.9542 109.116L48.8782 108.584C48.5282 107.884 47.7162 106.862 46.9882 106.134L46.1342 106.596ZM43.4462 97.9024V110.768H44.4682V97.9024H43.4462ZM40.7722 106.862L41.3602 107.758C42.1862 107.016 43.1802 106.064 44.0902 105.182L43.6842 104.328C42.6202 105.308 41.5002 106.288 40.7722 106.862ZM40.8422 100.366C41.5702 101.066 42.3822 102.074 42.7322 102.732L43.5022 102.088C43.1522 101.43 42.2982 100.478 41.5842 99.7924L40.8422 100.366ZM48.5422 99.0224L47.9962 99.8904H52.3642L52.5742 99.0224H48.5422ZM49.0042 97.8884C48.2342 99.0084 46.7642 100.156 45.1542 100.842C45.3642 101.01 45.6862 101.318 45.8402 101.528C47.4922 100.744 49.1022 99.5124 50.0682 98.1964L49.0042 97.8884ZM47.2962 101.108C47.8702 101.584 48.4862 102.256 48.7522 102.718L49.5782 102.214C49.2842 101.752 48.6402 101.094 48.0802 100.646L47.2962 101.108ZM52.2102 99.0224V99.1904C51.0902 101.556 48.1362 103.026 45.2662 103.586C45.4482 103.782 45.6722 104.16 45.7842 104.426C48.8642 103.726 51.9582 102.172 53.2882 99.3444L52.6022 98.9804L52.4062 99.0224H52.2102ZM64.3762 100.842C62.7802 105.616 59.7282 108.318 54.7442 109.76C54.9542 109.998 55.2762 110.488 55.4022 110.74C60.4842 109.116 63.6762 106.246 65.4682 101.15L64.3762 100.842ZM58.0202 100.898L57.0402 101.206C58.8182 105.938 62.0242 109.298 67.0502 110.684C67.2182 110.39 67.5262 109.942 67.7782 109.704C62.8782 108.486 59.6022 105.238 58.0202 100.898ZM54.9402 100.366V101.388H67.5962V100.366H54.9402ZM60.1622 98.1264C60.5822 98.8264 61.0162 99.7504 61.1982 100.324L62.3462 99.9604C62.1502 99.3724 61.6742 98.4624 61.2542 97.8044L60.1622 98.1264ZM76.6962 98.0704V110.768H77.7462V98.0704H76.6962ZM74.2742 98.6024C73.9522 100.422 73.3642 102.228 72.5522 103.404C72.8182 103.516 73.2522 103.768 73.4622 103.922C74.2602 102.676 74.9042 100.758 75.2822 98.7984L74.2742 98.6024ZM74.4142 100.758L74.1482 101.794H80.9522V100.758H74.4142ZM72.6642 104.874V105.91H81.5682V104.874H72.6642ZM71.9782 97.9444C71.2362 100.072 69.9902 102.172 68.6742 103.53C68.8702 103.782 69.1782 104.328 69.2762 104.566C70.7322 102.984 72.0902 100.618 72.9722 98.2524L71.9782 97.9444ZM70.5642 101.556V110.754H71.5722V100.576L71.5582 100.562L70.5642 101.556ZM82.6322 105.392L82.8982 106.414C84.0882 106.022 85.6282 105.532 87.0982 105.042L86.9582 104.076C85.3622 104.58 83.7242 105.084 82.6322 105.392ZM82.7582 100.716V101.696H87.0142V100.716H82.7582ZM84.5502 97.9024V109.452C84.5502 109.662 84.4802 109.718 84.3122 109.718C84.1442 109.718 83.5982 109.718 82.9962 109.704C83.1362 109.998 83.2762 110.46 83.3042 110.726C84.1862 110.726 84.7462 110.684 85.0822 110.516C85.4462 110.348 85.5722 110.054 85.5722 109.466V97.9024H84.5502ZM88.8482 99.8484V100.8H95.5542V99.8484H88.8482ZM91.1862 101.248V108.416H92.1102V101.248H91.1862ZM89.1702 97.8884C88.6802 99.6664 87.8122 101.36 86.7342 102.466C86.9722 102.606 87.4062 102.928 87.5882 103.096C88.6662 101.892 89.6182 100.058 90.1922 98.1124L89.1702 97.8884ZM87.0982 105.308L87.4062 106.19L94.3082 103.516L94.0002 102.634L87.0982 105.308ZM88.5402 102.382V109.032C88.5402 110.334 88.9742 110.656 90.5282 110.656C90.8642 110.656 93.5242 110.656 93.8882 110.656C95.2042 110.656 95.5122 110.18 95.6662 108.528C95.3862 108.472 94.9802 108.332 94.7562 108.178C94.6862 109.494 94.5602 109.746 93.8462 109.746C93.2862 109.746 90.9902 109.746 90.5702 109.746C89.6602 109.746 89.4922 109.62 89.4922 109.032V102.382H88.5402ZM93.8182 102.83C93.8182 104.958 93.8042 106.54 93.7482 106.792C93.7062 107.002 93.6222 107.044 93.4402 107.044C93.3002 107.044 92.9222 107.058 92.6562 107.03C92.7682 107.268 92.8522 107.66 92.8802 107.954C93.2302 107.968 93.7062 107.954 94.0142 107.856C94.4062 107.758 94.6302 107.506 94.6722 107.002C94.7142 106.596 94.7422 104.832 94.7562 102.914L94.7842 102.746L94.1122 102.48L93.9302 102.62L93.6922 102.83H93.8182ZM97.5842 105.21V106.134H104.15V105.21H97.5842ZM100.342 103.698V109.116H101.336V103.698H100.342ZM97.1082 109.074L97.3462 110.068C99.1802 109.718 101.854 109.2 104.346 108.71L104.29 107.786C101.658 108.29 98.8722 108.794 97.1082 109.074ZM97.2202 98.8124V99.7504H104.43V98.8124H97.2202ZM101.546 100.66C102.316 101.626 103.226 102.942 103.632 103.754L104.43 103.222C104.024 102.424 103.086 101.15 102.302 100.198L101.546 100.66ZM105.214 99.1064V107.59H106.194V99.1064H105.214ZM107.986 98.1264V109.13C107.986 109.368 107.916 109.438 107.678 109.452C107.426 109.452 106.656 109.452 105.844 109.424C105.998 109.718 106.18 110.194 106.222 110.474C107.244 110.474 107.986 110.446 108.434 110.278C108.84 110.11 109.008 109.788 109.008 109.13V98.1264H107.986ZM97.8922 103.502C97.8922 103.278 98.5502 102.956 98.5502 102.956V102.942C99.3202 102.046 100.16 100.73 100.762 99.4564L99.7402 99.0504C99.2782 100.282 98.4802 101.556 98.2282 101.892C97.9762 102.228 97.7662 102.48 97.5562 102.522C97.6822 102.788 97.8362 103.278 97.8922 103.502ZM97.8922 103.502C98.2422 103.348 98.8022 103.292 103.59 102.83C103.464 102.62 103.254 102.284 103.142 102.018L98.4382 102.41L97.8782 102.746L97.8922 103.502ZM114.972 102.214V103.236H117.66V102.214H114.972ZM114.594 97.9024V109.256L115.672 109.116V97.9024H114.594ZM111.99 100.73V109.648L113.012 109.508V100.73H111.99ZM110.856 109.466L111.038 110.586C112.802 110.25 115.35 109.788 117.744 109.34L117.66 108.29C115.182 108.738 112.55 109.2 110.856 109.466ZM122.476 100.954C121.594 101.766 120.054 102.746 118.668 103.446C118.808 103.67 119.004 104.034 119.074 104.258C120.544 103.558 122.182 102.676 123.344 101.794L122.476 100.954ZM118.36 97.9024V108.402C118.36 109.914 118.724 110.32 120.026 110.32C120.292 110.32 121.874 110.32 122.154 110.32C123.414 110.32 123.694 109.536 123.82 107.268C123.526 107.198 123.092 107.016 122.812 106.806C122.742 108.794 122.658 109.298 122.07 109.298C121.734 109.298 120.432 109.298 120.152 109.298C119.564 109.298 119.466 109.158 119.466 108.43V97.9024H118.36ZM127.53 100.114V101.094H130.596V100.114H127.53ZM130.274 100.114V100.366C129.714 105.63 127.726 108.514 124.716 109.97C124.982 110.138 125.388 110.558 125.57 110.796C128.622 109.214 130.722 106.008 131.38 100.268L130.68 100.086L130.484 100.114H130.274ZM127.306 101.878L126.466 102.172C127.894 109.186 131.38 110.348 135.258 110.348H137.316C137.372 110.04 137.568 109.508 137.736 109.242C137.19 109.256 135.748 109.256 135.314 109.256C131.898 109.256 128.622 108.29 127.306 101.878ZM127.32 97.9444C126.928 100.688 126.074 103.334 124.968 104.804C125.234 104.944 125.626 105.224 125.822 105.392C127.012 103.81 127.922 101.066 128.426 98.2104L127.32 97.9444ZM133.48 101.822C134.544 103.012 135.846 104.65 136.434 105.658L137.344 105.084C136.714 104.076 135.398 102.508 134.32 101.346L133.48 101.822ZM132.85 97.9164V108.22H133.97V97.9164H132.85ZM61.9542 119.93C62.0242 126.566 63.2562 132.782 66.0422 132.782C67.1062 132.782 67.5122 132.096 67.6942 129.674C67.4002 129.576 67.0082 129.324 66.7702 129.086C66.6862 130.948 66.5322 131.69 66.1262 131.69C64.4182 131.69 63.0462 126.328 63.0742 119.93H61.9542ZM63.9142 120.588C64.7822 120.994 65.8042 121.652 66.3082 122.128L66.9522 121.386C66.4342 120.924 65.3982 120.308 64.5302 119.944L63.9142 120.588ZM65.7482 124.172C64.6422 127.7 62.6262 130.388 59.7142 131.956C59.9382 132.152 60.3582 132.572 60.5122 132.782C63.4522 131.018 65.5662 128.204 66.7842 124.424L65.7482 124.172ZM55.1782 122.128V123.164H67.3442V122.128H55.1782ZM55.1082 130.738L55.3042 131.816C56.9422 131.466 59.2382 130.962 61.3802 130.486L61.2962 129.478C59.0142 129.968 56.6342 130.444 55.1082 130.738ZM56.9562 125.32H59.8122V127.77H56.9562V125.32ZM55.9902 124.41V128.666H60.8482V124.41H55.9902ZM74.5962 119.888V124.662H75.6602V119.888H74.5962ZM71.5442 125.152H78.8662V127.658H71.5442V125.152ZM70.5502 124.158V128.638H79.9302V124.158H70.5502ZM75.0862 121.386V122.38H80.9802V121.386H75.0862ZM72.9862 129.856C73.1682 130.766 73.2802 131.942 73.2802 132.656L74.3582 132.516C74.3442 131.83 74.1902 130.682 73.9942 129.772L72.9862 129.856ZM75.8842 129.87C76.3042 130.752 76.7242 131.914 76.8642 132.614L77.9002 132.362C77.7322 131.648 77.2702 130.514 76.8362 129.674L75.8842 129.87ZM78.7402 129.758C79.4542 130.654 80.2242 131.886 80.5462 132.656L81.5402 132.25C81.2042 131.466 80.3922 130.276 79.6782 129.408L78.7402 129.758ZM70.7182 129.492C70.2842 130.528 69.5562 131.662 68.8142 132.292L69.7802 132.768C70.5362 132.026 71.2502 130.836 71.7122 129.744L70.7182 129.492ZM84.1862 122.072V123.108H94.3782V122.072H84.1862ZM83.1502 125.306V126.356H95.3582V125.306H83.1502ZM88.7222 119.902V131.648H89.8282V119.902H88.7222ZM93.0902 127.434V132.782H94.1542V127.434H93.0902ZM84.2982 127.434V131.984H93.7902V130.948H85.4042V127.434H84.2982ZM102.82 124.424V125.474H108.574V124.424H102.82ZM96.9542 131.06V132.11H109.526V131.06H96.9542ZM102.218 120.098V131.62H103.324V120.098H102.218ZM113.95 119.944C113.166 122.072 111.864 124.172 110.478 125.53C110.674 125.768 110.968 126.328 111.066 126.566C112.592 124.998 114.02 122.632 114.944 120.252L113.95 119.944ZM112.466 123.556V132.754H113.488V122.562L113.474 122.548L112.466 123.556ZM116.862 126.832V127.812H122.056V126.832H116.862ZM121.72 126.832V126.944C120.978 127.854 119.522 129.492 118.332 130.724L119.186 131.256C120.404 129.982 121.832 128.386 122.826 127.224L122.084 126.762L121.916 126.832H121.72ZM118.262 119.972C117.674 122.408 116.694 125.824 115.98 127.812H117.114C117.73 125.922 118.668 122.576 119.284 120.112L118.262 119.972ZM115.112 121.526V122.492H122.938V121.526H115.112ZM114.3 124.172V125.152H123.582V124.172H114.3ZM116.792 129.898C118.122 130.724 119.704 131.97 120.46 132.782L121.244 131.998C120.46 131.214 118.906 130.066 117.548 129.268L116.792 129.898Z" fill="#8C8C8C"/>
<path d="M99.0739 66.1888L89.7406 56.8555L80.4072 66.1888" stroke="#606266" stroke-width="2" stroke-linecap="round" stroke-linejoin="round"/>
<path d="M89.7402 56.8555V77.8555" stroke="#606266" stroke-width="2" stroke-linecap="round" stroke-linejoin="round"/>
<path d="M109.317 71.7656C111.593 70.5249 113.391 68.5617 114.427 66.1857C115.463 63.8098 115.678 61.1565 115.039 58.6445C114.4 56.1326 112.942 53.9051 110.896 52.3136C108.85 50.7222 106.333 49.8573 103.741 49.8556H100.801C100.094 47.1238 98.778 44.5877 96.9505 42.4379C95.123 40.2881 92.8319 38.5806 90.2495 37.4437C87.6671 36.3068 84.8606 35.7701 82.0409 35.874C79.2212 35.9779 76.4618 36.7196 73.97 38.0435C71.4783 39.3673 69.3191 41.2388 67.6547 43.5173C65.9904 45.7957 64.8642 48.4218 64.3609 51.1982C63.8576 53.9745 63.9902 56.8288 64.7488 59.5465C65.5074 62.2642 66.8722 64.7746 68.7406 66.8889" stroke="#606266" stroke-width="2" stroke-linecap="round" stroke-linejoin="round"/>
<path d="M99.0739 66.1888L89.7406 56.8555L80.4072 66.1888" stroke="#606266" stroke-width="2" stroke-linecap="round" stroke-linejoin="round"/>
</g>

<defs>
<clipPath id="clip0_564_94941">
<rect x="0.740234" y="0.855469" width="178" height="180" rx="4" fill="white"/>
</clipPath>
</defs>
</svg>
