<svg width="168" height="96" viewBox="0 0 168 96" fill="none" xmlns="http://www.w3.org/2000/svg">
<path d="M2.114 3.16397V8.91797H6.496V10.248H0.784V11.2H6.496V13.86H7.504V11.2H13.216V10.248H7.504V8.91797H11.886V3.16397H9.198C9.618 2.58997 9.996 1.94597 10.332 1.23197L9.352 0.881968C9.002 1.69397 8.596 2.46397 8.148 3.16397H2.114ZM10.906 8.02197H7.504V6.45397H10.906V8.02197ZM6.496 8.02197H3.094V6.45397H6.496V8.02197ZM3.094 5.58597V4.04597H6.496V5.58597H3.094ZM7.504 4.04597H10.906V5.58597H7.504V4.04597ZM4.592 0.951968L3.738 1.35797C4.214 1.88997 4.648 2.47797 5.068 3.14997L5.908 2.72997C5.488 2.08597 5.054 1.48397 4.592 0.951968ZM20.762 4.07397H25.844C25.564 5.16597 25.214 6.14597 24.78 7.01397L25.774 7.29397C26.25 6.13197 26.628 4.95597 26.922 3.76597V3.10797H21.042C21.196 2.49197 21.322 1.81997 21.434 1.09197L20.426 0.937968C20.09 3.37397 19.348 5.29197 18.2 6.66397L19.04 7.25197C19.754 6.43997 20.328 5.37597 20.762 4.07397ZM22.204 5.02597C22.176 6.84597 21.938 8.35797 21.49 9.54797C20.86 10.948 19.6 12.124 17.696 13.048L18.354 13.846C20.51 12.782 21.882 11.41 22.484 9.72997C22.596 9.42197 22.694 9.09997 22.778 8.74997C23.674 10.766 25.018 12.446 26.838 13.818L27.496 13.048C25.382 11.592 23.912 9.61797 23.072 7.12597C23.142 6.48197 23.184 5.78197 23.184 5.02597H22.204ZM15.512 1.58197L14.7 2.08597C15.764 3.14997 16.618 4.12997 17.248 4.99797L18.032 4.43797C17.444 3.62597 16.604 2.67397 15.512 1.58197ZM17.22 7.58797C16.464 9.40797 15.582 11.2 14.546 12.95L15.484 13.37C16.45 11.676 17.318 9.85597 18.102 7.92397L17.22 7.58797ZM34.412 1.55397V2.50597H37.52C37.464 3.03797 37.38 3.56997 37.268 4.07397H34.93V10.668H35.882V4.96997H39.928V10.668H40.88V4.07397H38.234C38.346 3.56997 38.444 3.05197 38.514 2.50597H41.356V1.55397H34.412ZM38.892 10.668L38.248 11.298C39.326 12.18 40.18 13.02 40.796 13.804L41.496 13.104C40.796 12.292 39.928 11.48 38.892 10.668ZM37.38 5.76797V8.28797C37.352 9.49197 37.086 10.458 36.61 11.214C36.078 11.942 35.14 12.516 33.81 12.95L34.356 13.804C35.742 13.328 36.736 12.684 37.352 11.858C37.982 10.976 38.318 9.78597 38.36 8.28797V5.76797H37.38ZM30.114 3.31797L29.372 3.77997C30.128 4.50797 30.786 5.20797 31.332 5.85197H28.616V6.78997H30.632V12.404C30.632 12.74 30.478 12.908 30.198 12.908C29.806 12.908 29.4 12.88 28.98 12.838L29.176 13.748H30.52C31.22 13.748 31.584 13.37 31.584 12.642V6.78997H33.068C32.872 7.54597 32.634 8.17597 32.382 8.70797L33.208 9.02997C33.516 8.41397 33.796 7.55997 34.02 6.46797V5.85197H32.424C32.228 5.59997 32.004 5.31997 31.738 5.01197C32.41 4.26997 33.04 3.38797 33.614 2.35197V1.55397H29.008V2.49197H32.536C32.116 3.19197 31.654 3.82197 31.15 4.36797C30.842 4.03197 30.492 3.68197 30.114 3.31797ZM43.512 1.27397L42.826 1.93197C43.68 2.58997 44.352 3.21997 44.828 3.80797L45.486 3.13597C44.954 2.51997 44.296 1.88997 43.512 1.27397ZM43.288 4.71797L42.602 5.36197C43.428 6.07597 44.072 6.74797 44.548 7.37797L45.206 6.71997C44.688 6.04797 44.044 5.38997 43.288 4.71797ZM44.52 8.48397C43.988 10.108 43.372 11.704 42.672 13.258L43.596 13.65C44.24 12.138 44.842 10.528 45.374 8.81997L44.52 8.48397ZM50.736 1.66597H46.046V10.29H46.942V2.53397H49.84V10.206H50.736V1.66597ZM49.238 10.864L48.622 11.452C49.518 12.292 50.204 13.076 50.708 13.818L51.38 13.146C50.806 12.39 50.092 11.62 49.238 10.864ZM47.978 3.49997V7.93797C47.95 9.23997 47.74 10.29 47.376 11.102C46.984 11.886 46.284 12.516 45.276 12.992L45.808 13.832C46.844 13.328 47.6 12.628 48.062 11.76C48.538 10.808 48.79 9.53397 48.818 7.93797V3.49997H47.978ZM53.76 13.706C54.488 13.706 54.866 13.3 54.866 12.516V1.06397H53.914V12.278C53.914 12.642 53.746 12.838 53.424 12.838C52.976 12.838 52.5 12.81 52.01 12.768L52.22 13.706H53.76ZM51.842 2.21197V10.948H52.724V2.21197H51.842ZM58.436 3.33197V9.98197C57.848 10.15 57.246 10.304 56.616 10.458L56.91 11.452C58.534 11.018 59.962 10.542 61.194 10.024V9.01597C60.648 9.23997 60.074 9.44997 59.472 9.65997V3.33197H61.096V2.35197H56.77V3.33197H58.436ZM61.628 1.58197V2.56197H65.044C64.974 3.07997 64.876 3.58397 64.736 4.05997H62.272V10.64H63.238V4.98397H67.732V10.64H68.712V4.05997H65.744C65.856 3.58397 65.954 3.09397 66.038 2.56197H69.384V1.58197H61.628ZM66.626 10.668L65.954 11.312C67.158 12.236 68.11 13.104 68.81 13.916L69.538 13.188C68.754 12.348 67.774 11.508 66.626 10.668ZM64.918 5.87997V8.28797C64.876 9.50597 64.554 10.5 63.966 11.256C63.322 11.984 62.174 12.572 60.55 13.006L61.096 13.874C62.776 13.398 63.98 12.74 64.722 11.914C65.478 11.004 65.87 9.79997 65.926 8.28797V5.87997H64.918ZM81.704 1.66597H72.31V13.832H73.332V12.894H80.696V13.804H81.704V1.66597ZM73.332 11.914V9.28197H80.696V11.914H73.332ZM73.332 8.35797V5.89397H80.696V8.35797H73.332ZM73.332 4.96997V2.64597H80.696V4.96997H73.332ZM86.59 3.44397V8.00797H95.41V3.44397H93.072C93.534 2.82797 93.982 2.07197 94.43 1.17597L93.464 0.825968C93.058 1.76397 92.568 2.63197 91.98 3.44397H86.59ZM94.402 7.05597H87.598V4.39597H94.402V7.05597ZM88.312 0.881968L87.458 1.30197C87.99 1.91797 88.494 2.60397 88.97 3.38797L89.824 2.96797C89.348 2.21197 88.844 1.51197 88.312 0.881968ZM86.002 9.16997C85.708 10.43 85.246 11.592 84.602 12.642L85.456 13.188C86.1 12.124 86.604 10.85 86.968 9.37997L86.002 9.16997ZM91.28 8.56797L90.398 8.86197C90.874 9.57597 91.308 10.388 91.7 11.312L92.624 10.906C92.246 10.066 91.798 9.29597 91.28 8.56797ZM95.69 8.90397L94.724 9.21197C95.34 10.234 95.9 11.41 96.404 12.754L97.328 12.348C96.866 11.116 96.32 9.96797 95.69 8.90397ZM93.002 13.636C93.534 13.636 93.926 13.524 94.178 13.3C94.458 13.006 94.654 12.222 94.752 10.962L93.786 10.654C93.73 11.634 93.632 12.222 93.464 12.432C93.338 12.6 93.128 12.684 92.82 12.684H89.74C89.334 12.684 89.138 12.46 89.138 12.026V9.29597H88.116V12.236C88.116 13.16 88.55 13.636 89.432 13.636H93.002ZM107.212 4.08797H109.284C109.228 5.97797 108.934 7.62997 108.388 9.04397C107.828 7.86797 107.38 6.45397 107.03 4.81597L107.212 4.08797ZM107.926 10.052C107.282 11.242 106.428 12.208 105.336 12.964L105.854 13.804C106.904 13.048 107.772 12.11 108.444 10.99C109.144 12.166 109.984 13.118 110.964 13.818L111.51 12.992C110.502 12.306 109.648 11.34 108.92 10.08C109.704 8.42797 110.138 6.42597 110.208 4.08797H111.118V3.12197H107.422C107.534 2.50597 107.646 1.83397 107.73 1.11997L106.75 0.951968C106.47 3.61197 105.91 5.72597 105.084 7.29397L105.714 8.06397C106.008 7.55997 106.288 6.98597 106.54 6.34197C106.918 7.74197 107.38 8.97397 107.926 10.052ZM101.29 7.48997C101.192 7.76997 101.08 8.06397 100.954 8.37197H98.91V9.25397H100.562C100.282 9.81397 99.96 10.388 99.596 11.004C100.282 11.256 100.926 11.522 101.542 11.788C100.73 12.25 99.736 12.628 98.588 12.936L99.064 13.776C100.464 13.384 101.626 12.866 102.55 12.222C103.376 12.586 104.09 12.964 104.706 13.328L105.252 12.544C104.636 12.208 103.992 11.9 103.32 11.592C104.048 10.92 104.566 10.122 104.874 9.19797V8.37197H101.948C102.032 8.11997 102.13 7.86797 102.228 7.60197L101.29 7.48997ZM102.396 11.2C101.892 10.99 101.36 10.794 100.8 10.598C101.08 10.178 101.332 9.72997 101.556 9.25397H103.964C103.628 9.98197 103.096 10.64 102.396 11.2ZM100.016 1.24597L99.218 1.51197C99.554 2.04397 99.862 2.64597 100.156 3.33197L100.884 2.99597C100.632 2.37997 100.352 1.79197 100.016 1.24597ZM104.272 1.20397C104.02 1.79197 103.656 2.37997 103.208 2.98197L103.922 3.34597C104.37 2.75797 104.72 2.15597 105 1.53997L104.272 1.20397ZM98.938 3.66797V4.54997H100.926C100.506 5.31997 99.75 6.01997 98.672 6.64997L99.162 7.46197C100.366 6.64997 101.206 5.69797 101.668 4.59197V7.25197H102.606V5.43197C103.11 5.76797 103.712 6.21597 104.412 6.77597L104.93 5.99197C104.146 5.51597 103.362 5.08197 102.606 4.70397V4.54997H105.154V3.66797H102.606V0.993968H101.668V3.66797H98.938ZM114.142 6.84597V10.416H118.482V11.2H113.792V11.872H118.482V12.698H112.742V13.482H125.258V12.698H119.49V11.872H124.236V11.2H119.49V10.416H123.886V6.84597H114.142ZM122.92 9.78597H119.49V8.93197H122.92V9.78597ZM118.482 9.78597H115.108V8.93197H118.482V9.78597ZM115.108 8.34397V7.47597H118.482V8.34397H115.108ZM119.49 7.47597H122.92V8.34397H119.49V7.47597ZM114.45 1.20397V4.66197H123.592V1.20397H114.45ZM122.612 4.05997H115.43V3.23397H122.612V4.05997ZM115.43 2.63197V1.81997H122.612V2.63197H115.43ZM112.728 5.38997V6.14597H125.272V5.38997H112.728ZM127.05 1.70797V2.70197H133.266C132.034 5.30597 129.822 7.51797 126.658 9.33797L127.316 10.22C129.444 8.94597 131.166 7.48997 132.482 5.85197V13.846H133.518V4.36797C133.84 3.83597 134.134 3.27597 134.386 2.70197H138.95V1.70797H127.05ZM135.282 5.47397L134.554 6.15997C136.248 7.54597 137.578 8.84797 138.558 10.08L139.328 9.29597C138.236 8.02197 136.892 6.74797 135.282 5.47397ZM146.944 0.937968C145.712 2.28197 143.85 3.17797 141.358 3.65397L141.946 4.57797C143.444 4.24197 144.732 3.75197 145.824 3.10797H149.912C149.128 4.25597 147.994 5.13797 146.538 5.72597C146.09 5.16597 145.614 4.66197 145.11 4.18597L144.228 4.60597C144.704 5.03997 145.166 5.52997 145.6 6.06197C144.592 6.35597 143.472 6.53797 142.212 6.62197L142.646 7.53197C146.734 7.20997 149.548 5.69797 151.06 3.00997V2.21197H147.042C147.322 1.95997 147.588 1.69397 147.84 1.41397L146.944 0.937968ZM146.412 9.68797L145.516 10.108C146.034 10.612 146.524 11.186 147 11.816C145.418 12.348 143.528 12.614 141.344 12.628L141.75 13.594C147.182 13.468 150.878 11.76 152.866 8.45597V7.65797H149.03C149.422 7.36397 149.772 7.04197 150.108 6.70597L149.24 6.22997C147.784 7.76997 145.53 8.70797 142.478 9.01597L143.08 9.91197C144.774 9.61797 146.23 9.16997 147.462 8.58197H151.606C150.71 9.81397 149.492 10.78 147.938 11.452C147.462 10.822 146.944 10.234 146.412 9.68797ZM155.694 1.52597V2.50597H160.608V6.31397H154.812V7.32197H160.608V12.04C160.608 12.516 160.356 12.754 159.866 12.754C159.222 12.754 158.536 12.726 157.822 12.698L158.032 13.664H160.216C161.154 13.664 161.63 13.202 161.63 12.292V7.32197H167.188V6.31397H161.63V2.50597H166.208V1.52597H155.694ZM4.34 22.226C3.332 22.226 2.506 22.562 1.89 23.234C1.274 23.892 0.952 24.788 0.952 25.908H2.1C2.114 25.026 2.324 24.354 2.716 23.906C3.08 23.43 3.612 23.206 4.298 23.206C4.942 23.206 5.46 23.374 5.824 23.71C6.188 24.046 6.37 24.508 6.37 25.124C6.37 25.768 6.104 26.37 5.6 26.916C5.334 27.196 4.816 27.602 4.032 28.162C2.968 28.89 2.254 29.492 1.862 29.94C1.19 30.682 0.868 31.508 0.868 32.418H7.532V31.396H2.282C2.464 30.724 3.192 29.954 4.466 29.1C5.502 28.4 6.188 27.854 6.538 27.49C7.182 26.79 7.518 26.006 7.518 25.138C7.518 24.27 7.21 23.556 6.622 23.024C6.02 22.492 5.264 22.226 4.34 22.226ZM12.5945 22.226C11.3905 22.226 10.4945 22.744 9.89253 23.808C9.36053 24.704 9.09453 25.908 9.09453 27.42C9.09453 28.932 9.36053 30.136 9.89253 31.032C10.4945 32.082 11.3905 32.614 12.5945 32.614C13.7845 32.614 14.6805 32.082 15.2965 31.032C15.8285 30.136 16.0945 28.932 16.0945 27.42C16.0945 25.908 15.8285 24.704 15.2965 23.808C14.6805 22.744 13.7845 22.226 12.5945 22.226ZM12.5945 23.206C13.4905 23.206 14.1345 23.682 14.5265 24.648C14.8065 25.32 14.9605 26.244 14.9605 27.42C14.9605 28.582 14.8065 29.506 14.5265 30.192C14.1345 31.144 13.4905 31.634 12.5945 31.634C11.6985 31.634 11.0545 31.144 10.6625 30.192C10.3825 29.506 10.2425 28.582 10.2425 27.42C10.2425 26.244 10.3825 25.32 10.6625 24.648C11.0545 23.682 11.6985 23.206 12.5945 23.206ZM23.2711 25.124V33.804H24.3071V25.124H23.2711ZM23.3411 20.994C21.9271 23.094 19.9111 24.816 17.2931 26.146L17.8951 27.056C20.2751 25.852 22.2351 24.144 23.7891 21.932C25.0771 23.948 27.0511 25.628 29.6831 27L30.2851 26.09C27.4291 24.62 25.4131 22.926 24.2371 20.994H23.3411ZM2.114 43.164V48.918H6.496V50.248H0.784V51.2H6.496V53.86H7.504V51.2H13.216V50.248H7.504V48.918H11.886V43.164H9.198C9.618 42.59 9.996 41.946 10.332 41.232L9.352 40.882C9.002 41.694 8.596 42.464 8.148 43.164H2.114ZM10.906 48.022H7.504V46.454H10.906V48.022ZM6.496 48.022H3.094V46.454H6.496V48.022ZM3.094 45.586V44.046H6.496V45.586H3.094ZM7.504 44.046H10.906V45.586H7.504V44.046ZM4.592 40.952L3.738 41.358C4.214 41.89 4.648 42.478 5.068 43.15L5.908 42.73C5.488 42.086 5.054 41.484 4.592 40.952ZM20.664 40.994V46.776H19.502V47.756H20.664V52.404C20.664 52.628 20.51 52.796 20.23 52.908L20.678 53.818C21.994 53.454 23.156 52.978 24.164 52.39L23.982 51.424C23.198 51.9 22.414 52.264 21.644 52.544V47.756H23.128C23.954 50.332 25.186 52.278 26.81 53.622L27.496 52.852C25.998 51.662 24.836 49.968 24.024 47.756H27.258V46.776H21.644V40.994H20.664ZM26.012 41.708C25.2 42.94 23.982 44.046 22.33 45.026L22.918 45.81C24.612 44.802 25.872 43.682 26.712 42.436L26.012 41.708ZM16.128 45.6H18.718V41.54H14.784V42.478H17.752V44.662H15.232L14.798 48.75H17.934C17.934 50.416 17.864 51.508 17.752 52.026C17.612 52.53 17.136 52.796 16.324 52.796C15.932 52.796 15.554 52.768 15.19 52.74L15.442 53.664C15.806 53.692 16.184 53.72 16.548 53.72C17.808 53.664 18.522 53.244 18.69 52.446C18.844 51.704 18.928 50.164 18.928 47.84H15.862L16.128 45.6ZM33.656 42.8C33.208 43.864 32.34 44.774 31.066 45.53L31.626 46.258C32.158 45.922 32.634 45.558 33.054 45.166C33.446 45.586 33.922 45.978 34.468 46.342C33.488 46.804 32.27 47.168 30.828 47.42L31.276 48.232C32.872 47.882 34.202 47.42 35.28 46.846C36.26 47.392 37.422 47.84 38.78 48.204L39.312 47.448C38.108 47.168 37.044 46.79 36.106 46.342C36.904 45.782 37.492 45.124 37.884 44.382V43.682H34.188C34.328 43.43 34.44 43.178 34.552 42.912L33.656 42.8ZM35.28 45.908C34.636 45.516 34.062 45.082 33.572 44.606C33.6 44.55 33.642 44.494 33.698 44.438H36.876C36.498 44.998 35.966 45.488 35.28 45.908ZM32.508 49.674L32.116 50.43C33.992 50.794 35.798 51.312 37.534 51.984L37.87 51.172C36.162 50.528 34.37 50.024 32.508 49.674ZM33.964 47.714L33.502 48.386C34.538 48.722 35.532 49.17 36.498 49.758L36.974 49.03C36.064 48.526 35.056 48.078 33.964 47.714ZM40.712 41.596H29.288V53.818H30.268V53.244H39.732V53.818H40.712V41.596ZM30.268 52.348V42.492H39.732V52.348H30.268ZM46.34 45.67H54.586V44.704H51.436V40.98H50.442V44.704H46.34V41.372H45.318V46.51C45.29 49.534 44.548 51.746 43.078 53.132L43.848 53.804C45.038 52.684 45.808 51.06 46.144 48.96H51.772V53.846H52.78V47.98H46.27C46.298 47.518 46.326 47.028 46.34 46.51V45.67ZM57.05 41.708V42.702H63.266C62.034 45.306 59.822 47.518 56.658 49.338L57.316 50.22C59.444 48.946 61.166 47.49 62.482 45.852V53.846H63.518V44.368C63.84 43.836 64.134 43.276 64.386 42.702H68.95V41.708H57.05ZM65.282 45.474L64.554 46.16C66.248 47.546 67.578 48.848 68.558 50.08L69.328 49.296C68.236 48.022 66.892 46.748 65.282 45.474ZM70.854 44.662V45.642H76.132C75.404 49.086 73.556 51.55 70.574 53.02L71.204 53.86C74.186 52.306 76.118 49.828 76.986 46.426C78.036 49.59 79.968 52.026 82.782 53.762L83.412 52.95C80.542 51.242 78.61 48.806 77.63 45.642H83.146V44.662H77.336C77.448 43.794 77.518 42.884 77.518 41.904V40.994H76.482V42.128C76.468 43.01 76.412 43.85 76.3 44.662H70.854ZM85.694 41.526V42.506H90.608V46.314H84.812V47.322H90.608V52.04C90.608 52.516 90.356 52.754 89.866 52.754C89.222 52.754 88.536 52.726 87.822 52.698L88.032 53.664H90.216C91.154 53.664 91.63 53.202 91.63 52.292V47.322H97.188V46.314H91.63V42.506H96.208V41.526H85.694ZM101.22 42.422C100.884 42.8 100.492 43.136 100.016 43.444C99.54 43.724 99.064 43.92 98.616 44.046V45.194C99.554 44.914 100.338 44.466 100.968 43.822V52.418H102.116V42.422H101.22ZM107.819 42.226C106.615 42.226 105.719 42.744 105.117 43.808C104.585 44.704 104.319 45.908 104.319 47.42C104.319 48.932 104.585 50.136 105.117 51.032C105.719 52.082 106.615 52.614 107.819 52.614C109.009 52.614 109.905 52.082 110.521 51.032C111.053 50.136 111.319 48.932 111.319 47.42C111.319 45.908 111.053 44.704 110.521 43.808C109.905 42.744 109.009 42.226 107.819 42.226ZM107.819 43.206C108.715 43.206 109.359 43.682 109.751 44.648C110.031 45.32 110.185 46.244 110.185 47.42C110.185 48.582 110.031 49.506 109.751 50.192C109.359 51.144 108.715 51.634 107.819 51.634C106.923 51.634 106.279 51.144 105.887 50.192C105.607 49.506 105.467 48.582 105.467 47.42C105.467 46.244 105.607 45.32 105.887 44.648C106.279 43.682 106.923 43.206 107.819 43.206ZM117.684 42.422V52.418H118.832V44.466H118.874L122.332 52.418H123.368L126.826 44.466H126.868V52.418H128.016V42.422H126.588L122.878 50.948H122.836L119.112 42.422H117.684ZM130.029 42.422V52.418H134.467C135.489 52.418 136.301 52.208 136.889 51.816C137.575 51.34 137.925 50.612 137.925 49.632C137.925 48.96 137.729 48.428 137.365 48.008C137.001 47.588 136.497 47.308 135.839 47.196C136.343 47.028 136.749 46.762 137.057 46.398C137.351 45.992 137.505 45.502 137.505 44.942C137.505 44.158 137.239 43.542 136.707 43.094C136.161 42.646 135.419 42.422 134.495 42.422H130.029ZM131.177 43.388H134.229C134.929 43.388 135.461 43.514 135.825 43.794C136.189 44.074 136.371 44.494 136.371 45.054C136.371 45.628 136.175 46.062 135.811 46.356C135.447 46.636 134.915 46.79 134.215 46.79H131.177V43.388ZM131.177 47.742H134.369C135.139 47.742 135.727 47.882 136.133 48.19C136.553 48.498 136.777 48.974 136.777 49.618C136.777 50.262 136.525 50.752 136.035 51.06C135.615 51.312 135.069 51.452 134.369 51.452H131.177V47.742ZM2.114 63.164V68.918H6.496V70.248H0.784V71.2H6.496V73.86H7.504V71.2H13.216V70.248H7.504V68.918H11.886V63.164H9.198C9.618 62.59 9.996 61.946 10.332 61.232L9.352 60.882C9.002 61.694 8.596 62.464 8.148 63.164H2.114ZM10.906 68.022H7.504V66.454H10.906V68.022ZM6.496 68.022H3.094V66.454H6.496V68.022ZM3.094 65.586V64.046H6.496V65.586H3.094ZM7.504 64.046H10.906V65.586H7.504V64.046ZM4.592 60.952L3.738 61.358C4.214 61.89 4.648 62.478 5.068 63.15L5.908 62.73C5.488 62.086 5.054 61.484 4.592 60.952ZM20.482 65.124V73.804H21.518V65.124H20.482ZM20.552 60.994C19.138 63.094 17.122 64.816 14.504 66.146L15.106 67.056C17.486 65.852 19.446 64.144 21 61.932C22.288 63.948 24.262 65.628 26.894 67L27.496 66.09C24.64 64.62 22.624 62.926 21.448 60.994H20.552ZM30.674 68.008V73.818H31.668V67.896C32.172 68.288 32.69 68.764 33.194 69.324L33.768 68.456C33.152 67.854 32.452 67.308 31.682 66.832C32.438 65.838 32.998 64.83 33.362 63.808V62.954H31.612L32.018 62.8C31.822 62.212 31.556 61.554 31.22 60.854L30.254 61.134C30.576 61.722 30.856 62.324 31.094 62.954H28.91V63.92H32.354C31.724 65.46 30.464 67.028 28.588 68.638L28.896 69.688C29.54 69.128 30.142 68.568 30.674 68.008ZM40.348 61.54H34.398V69.282H35.392V62.506H39.326V69.282H40.348V61.54ZM40.054 73.594C40.488 73.594 40.81 73.482 41.02 73.272C41.244 73.02 41.398 72.306 41.482 71.158L40.544 70.864C40.502 71.732 40.418 72.264 40.306 72.446C40.222 72.586 40.082 72.67 39.872 72.67H39.004C38.696 72.67 38.542 72.502 38.542 72.166V69.254H37.562V72.376C37.562 73.188 37.94 73.594 38.71 73.594H40.054ZM36.848 63.5V66.174C36.82 67.938 36.526 69.38 35.994 70.472C35.42 71.536 34.398 72.376 32.928 73.02L33.474 73.902C34.986 73.258 36.064 72.348 36.736 71.186C37.408 69.94 37.772 68.274 37.828 66.174V63.5H36.848ZM51.688 67.77V69.646H49.014C49.056 69.296 49.084 68.918 49.098 68.512V67.77H51.688ZM51.688 70.57V73.706H52.654V70.57H55.23V69.646H52.654V67.77H54.684V66.846H52.402C52.752 66.426 53.074 65.964 53.368 65.46L52.402 65.124C52.094 65.74 51.73 66.314 51.324 66.846H49.14C48.832 66.258 48.496 65.712 48.16 65.208L47.306 65.614C47.572 65.978 47.838 66.398 48.104 66.846H45.836V67.77H48.104V68.512C48.09 68.904 48.062 69.282 48.02 69.646H45.332V70.57H47.81C47.726 70.836 47.628 71.088 47.516 71.326C47.124 72.026 46.438 72.572 45.444 72.992L46.004 73.874C47.082 73.426 47.852 72.796 48.328 71.984C48.552 71.578 48.72 71.102 48.86 70.57H51.688ZM53.522 62.422V63.864H45.052V62.422H53.522ZM45.052 64.816H54.502V61.47H44.058V66.132C44.044 68.946 43.582 71.242 42.658 73.034L43.526 73.79C44.534 71.662 45.038 69.1 45.052 66.132V64.816ZM57.05 61.708V62.702H63.266C62.034 65.306 59.822 67.518 56.658 69.338L57.316 70.22C59.444 68.946 61.166 67.49 62.482 65.852V73.846H63.518V64.368C63.84 63.836 64.134 63.276 64.386 62.702H68.95V61.708H57.05ZM65.282 65.474L64.554 66.16C66.248 67.546 67.578 68.848 68.558 70.08L69.328 69.296C68.236 68.022 66.892 66.748 65.282 65.474ZM70.854 64.662V65.642H76.132C75.404 69.086 73.556 71.55 70.574 73.02L71.204 73.86C74.186 72.306 76.118 69.828 76.986 66.426C78.036 69.59 79.968 72.026 82.782 73.762L83.412 72.95C80.542 71.242 78.61 68.806 77.63 65.642H83.146V64.662H77.336C77.448 63.794 77.518 62.884 77.518 61.904V60.994H76.482V62.128C76.468 63.01 76.412 63.85 76.3 64.662H70.854ZM85.694 61.526V62.506H90.608V66.314H84.812V67.322H90.608V72.04C90.608 72.516 90.356 72.754 89.866 72.754C89.222 72.754 88.536 72.726 87.822 72.698L88.032 73.664H90.216C91.154 73.664 91.63 73.202 91.63 72.292V67.322H97.188V66.314H91.63V62.506H96.208V61.526H85.694ZM101.22 62.422C100.884 62.8 100.492 63.136 100.016 63.444C99.54 63.724 99.064 63.92 98.616 64.046V65.194C99.554 64.914 100.338 64.466 100.968 63.822V72.418H102.116V62.422H101.22ZM107.819 62.226C106.615 62.226 105.719 62.744 105.117 63.808C104.585 64.704 104.319 65.908 104.319 67.42C104.319 68.932 104.585 70.136 105.117 71.032C105.719 72.082 106.615 72.614 107.819 72.614C109.009 72.614 109.905 72.082 110.521 71.032C111.053 70.136 111.319 68.932 111.319 67.42C111.319 65.908 111.053 64.704 110.521 63.808C109.905 62.744 109.009 62.226 107.819 62.226ZM107.819 63.206C108.715 63.206 109.359 63.682 109.751 64.648C110.031 65.32 110.185 66.244 110.185 67.42C110.185 68.582 110.031 69.506 109.751 70.192C109.359 71.144 108.715 71.634 107.819 71.634C106.923 71.634 106.279 71.144 105.887 70.192C105.607 69.506 105.467 68.582 105.467 67.42C105.467 66.244 105.607 65.32 105.887 64.648C106.279 63.682 106.923 63.206 107.819 63.206ZM116.214 62.226C115.01 62.226 114.114 62.744 113.512 63.808C112.98 64.704 112.714 65.908 112.714 67.42C112.714 68.932 112.98 70.136 113.512 71.032C114.114 72.082 115.01 72.614 116.214 72.614C117.404 72.614 118.3 72.082 118.916 71.032C119.448 70.136 119.714 68.932 119.714 67.42C119.714 65.908 119.448 64.704 118.916 63.808C118.3 62.744 117.404 62.226 116.214 62.226ZM116.214 63.206C117.11 63.206 117.754 63.682 118.146 64.648C118.426 65.32 118.58 66.244 118.58 67.42C118.58 68.582 118.426 69.506 118.146 70.192C117.754 71.144 117.11 71.634 116.214 71.634C115.318 71.634 114.674 71.144 114.282 70.192C114.002 69.506 113.862 68.582 113.862 67.42C113.862 66.244 114.002 65.32 114.282 64.648C114.674 63.682 115.318 63.206 116.214 63.206ZM126.078 62.422V72.418H127.226V64.466H127.268L130.726 72.418H131.762L135.22 64.466H135.262V72.418H136.41V62.422H134.982L131.272 70.948H131.23L127.506 62.422H126.078ZM138.424 62.422V72.418H142.862C143.884 72.418 144.696 72.208 145.284 71.816C145.97 71.34 146.32 70.612 146.32 69.632C146.32 68.96 146.124 68.428 145.76 68.008C145.396 67.588 144.892 67.308 144.234 67.196C144.738 67.028 145.144 66.762 145.452 66.398C145.746 65.992 145.9 65.502 145.9 64.942C145.9 64.158 145.634 63.542 145.102 63.094C144.556 62.646 143.814 62.422 142.89 62.422H138.424ZM139.572 63.388H142.624C143.324 63.388 143.856 63.514 144.22 63.794C144.584 64.074 144.766 64.494 144.766 65.054C144.766 65.628 144.57 66.062 144.206 66.356C143.842 66.636 143.31 66.79 142.61 66.79H139.572V63.388ZM139.572 67.742H142.764C143.534 67.742 144.122 67.882 144.528 68.19C144.948 68.498 145.172 68.974 145.172 69.618C145.172 70.262 144.92 70.752 144.43 71.06C144.01 71.312 143.464 71.452 142.764 71.452H139.572V67.742ZM6.454 80.98V82.814H1.008V83.794H6.454V85.936H2.072V86.874H3.15C3.374 87.63 3.738 88.344 4.242 88.988C4.788 89.688 5.432 90.318 6.16 90.864C4.648 91.76 2.828 92.46 0.7 92.964L1.274 93.86C3.5 93.258 5.404 92.46 7 91.452C7.7 91.9 8.484 92.306 9.338 92.67C10.416 93.118 11.564 93.51 12.768 93.832L13.356 92.95C12.222 92.67 11.158 92.348 10.164 91.97C9.324 91.634 8.554 91.256 7.854 90.864C9.338 89.744 10.472 88.4 11.256 86.832V85.936H7.49V83.794H12.992V82.814H7.49V80.98H6.454ZM6.986 90.318C6.37 89.898 5.81 89.408 5.32 88.848C4.788 88.274 4.396 87.616 4.144 86.874H10.122C9.394 88.218 8.344 89.366 6.986 90.318ZM22.806 81.022V82.478H20.062V83.388H22.806V85.026H19.558V85.978H27.202V85.026H23.8V83.388H26.67V82.478H23.8V81.022H22.806ZM19.334 87.77V88.708H24.486V92.222C24.486 92.6 24.29 92.796 23.898 92.796C23.352 92.796 22.778 92.768 22.176 92.74L22.4 93.72H24.262C25.074 93.72 25.494 93.3 25.494 92.474V88.708H27.216V87.77H25.494V86.692H24.486V87.77H19.334ZM16.338 93.692C17.136 93.692 17.542 93.272 17.542 92.432V88.456C18.046 88.246 18.536 88.022 19.012 87.77V86.734C18.536 86.986 18.046 87.224 17.542 87.448V84.634H18.998V83.668H17.542V81.162H16.548V83.668H14.826V84.634H16.548V87.84C15.932 88.064 15.316 88.246 14.672 88.4L14.924 89.408C15.456 89.24 16.002 89.058 16.548 88.862V92.18C16.548 92.586 16.352 92.796 15.988 92.796C15.638 92.796 15.274 92.768 14.896 92.726L15.106 93.692H16.338ZM20.79 89.366L19.978 89.856C20.692 90.71 21.252 91.48 21.672 92.18L22.47 91.62C22.078 90.976 21.518 90.22 20.79 89.366ZM29.848 90.752C29.596 90.752 29.4 90.836 29.246 91.004C29.078 91.172 28.994 91.368 28.994 91.62C28.994 91.858 29.078 92.054 29.246 92.222C29.4 92.39 29.596 92.474 29.848 92.474C30.072 92.474 30.282 92.39 30.45 92.222C30.618 92.054 30.702 91.858 30.702 91.62C30.702 91.368 30.618 91.172 30.45 91.004C30.282 90.836 30.072 90.752 29.848 90.752ZM33.6234 82.45C33.3854 82.45 33.1894 82.52 33.0214 82.688C32.8534 82.828 32.7834 83.024 32.7834 83.276C32.7834 83.514 32.8534 83.71 33.0214 83.878C33.1894 84.032 33.3854 84.116 33.6234 84.116C33.8614 84.116 34.0714 84.032 34.2394 83.878C34.3934 83.71 34.4774 83.514 34.4774 83.276C34.4774 83.024 34.3934 82.828 34.2394 82.688C34.0714 82.52 33.8614 82.45 33.6234 82.45ZM33.0634 85.18V93.216C33.0634 93.902 32.7274 94.252 32.0694 94.252H31.4814V95.19H32.1534C33.4974 95.19 34.1834 94.546 34.1834 93.258V85.18H33.0634ZM39.7498 84.984C38.6578 84.984 37.8598 85.446 37.3418 86.37V85.18H36.2918V95.19H37.4118V91.102C37.9718 92.11 38.7698 92.614 39.8058 92.614C40.8418 92.614 41.6398 92.222 42.2278 91.466C42.7598 90.766 43.0398 89.884 43.0398 88.82C43.0398 87.728 42.7598 86.846 42.2138 86.146C41.6118 85.362 40.7858 84.984 39.7498 84.984ZM39.6098 85.908C40.3798 85.908 40.9678 86.188 41.3738 86.776C41.7098 87.28 41.8918 87.966 41.8918 88.82C41.8918 89.688 41.7098 90.374 41.3458 90.878C40.9398 91.41 40.3518 91.69 39.5678 91.69C38.8958 91.69 38.3778 91.424 37.9858 90.92C37.5658 90.402 37.3698 89.73 37.3698 88.89V88.75C37.3698 87.938 37.5518 87.266 37.9158 86.762C38.3078 86.188 38.8818 85.908 39.6098 85.908ZM47.477 84.984C46.469 84.984 45.671 85.334 45.083 86.048C44.495 86.72 44.215 87.574 44.215 88.638C44.215 89.688 44.495 90.542 45.083 91.214C45.671 91.9 46.469 92.25 47.477 92.25C48.569 92.25 49.381 91.76 49.913 90.794V92.068C49.913 93.664 49.185 94.476 47.729 94.476C47.071 94.476 46.581 94.35 46.259 94.112C45.937 93.888 45.727 93.524 45.643 93.034H44.523C44.649 93.818 44.971 94.406 45.489 94.798C45.993 95.19 46.749 95.386 47.729 95.386C49.927 95.386 51.033 94.224 51.033 91.914V85.18H49.913V86.426C49.381 85.46 48.569 84.984 47.477 84.984ZM47.645 85.908C48.359 85.908 48.919 86.16 49.339 86.692C49.731 87.168 49.927 87.826 49.927 88.638C49.927 89.422 49.731 90.066 49.339 90.556C48.919 91.06 48.359 91.312 47.631 91.312C46.847 91.312 46.273 91.032 45.881 90.5C45.531 90.024 45.363 89.394 45.363 88.638C45.363 87.826 45.559 87.168 45.951 86.692C46.357 86.16 46.917 85.908 47.645 85.908ZM58.4085 90.752C58.1565 90.752 57.9605 90.836 57.8065 91.004C57.6385 91.172 57.5545 91.368 57.5545 91.62C57.5545 91.858 57.6385 92.054 57.8065 92.222C57.9605 92.39 58.1565 92.474 58.4085 92.474C58.6325 92.474 58.8425 92.39 59.0105 92.222C59.1785 92.054 59.2625 91.858 59.2625 91.62C59.2625 91.368 59.1785 91.172 59.0105 91.004C58.8425 90.836 58.6325 90.752 58.4085 90.752ZM62.184 82.45C61.946 82.45 61.75 82.52 61.582 82.688C61.414 82.828 61.344 83.024 61.344 83.276C61.344 83.514 61.414 83.71 61.582 83.878C61.75 84.032 61.946 84.116 62.184 84.116C62.422 84.116 62.632 84.032 62.8 83.878C62.954 83.71 63.038 83.514 63.038 83.276C63.038 83.024 62.954 82.828 62.8 82.688C62.632 82.52 62.422 82.45 62.184 82.45ZM61.624 85.18V93.216C61.624 93.902 61.288 94.252 60.63 94.252H60.042V95.19H60.714C62.058 95.19 62.744 94.546 62.744 93.258V85.18H61.624ZM68.3104 84.984C67.2184 84.984 66.4204 85.446 65.9024 86.37V85.18H64.8524V95.19H65.9724V91.102C66.5324 92.11 67.3304 92.614 68.3664 92.614C69.4024 92.614 70.2004 92.222 70.7884 91.466C71.3204 90.766 71.6004 89.884 71.6004 88.82C71.6004 87.728 71.3204 86.846 70.7744 86.146C70.1724 85.362 69.3464 84.984 68.3104 84.984ZM68.1704 85.908C68.9404 85.908 69.5284 86.188 69.9344 86.776C70.2704 87.28 70.4524 87.966 70.4524 88.82C70.4524 89.688 70.2704 90.374 69.9064 90.878C69.5004 91.41 68.9124 91.69 68.1284 91.69C67.4564 91.69 66.9384 91.424 66.5464 90.92C66.1264 90.402 65.9304 89.73 65.9304 88.89V88.75C65.9304 87.938 66.1124 87.266 66.4764 86.762C66.8684 86.188 67.4424 85.908 68.1704 85.908ZM76.0375 84.984C75.0295 84.984 74.2315 85.334 73.6435 86.048C73.0555 86.72 72.7755 87.574 72.7755 88.638C72.7755 89.688 73.0555 90.542 73.6435 91.214C74.2315 91.9 75.0295 92.25 76.0375 92.25C77.1295 92.25 77.9415 91.76 78.4735 90.794V92.068C78.4735 93.664 77.7455 94.476 76.2895 94.476C75.6315 94.476 75.1415 94.35 74.8195 94.112C74.4975 93.888 74.2875 93.524 74.2035 93.034H73.0835C73.2095 93.818 73.5315 94.406 74.0495 94.798C74.5535 95.19 75.3095 95.386 76.2895 95.386C78.4875 95.386 79.5935 94.224 79.5935 91.914V85.18H78.4735V86.426C77.9415 85.46 77.1295 84.984 76.0375 84.984ZM76.2055 85.908C76.9195 85.908 77.4795 86.16 77.8995 86.692C78.2915 87.168 78.4875 87.826 78.4875 88.638C78.4875 89.422 78.2915 90.066 77.8995 90.556C77.4795 91.06 76.9195 91.312 76.1915 91.312C75.4075 91.312 74.8335 91.032 74.4415 90.5C74.0915 90.024 73.9235 89.394 73.9235 88.638C73.9235 87.826 74.1195 87.168 74.5115 86.692C74.9175 86.16 75.4775 85.908 76.2055 85.908ZM84.309 84.984C83.259 84.984 82.433 85.362 81.817 86.118C81.201 86.832 80.907 87.728 80.907 88.792C80.907 89.968 81.215 90.892 81.859 91.592C82.475 92.264 83.315 92.614 84.351 92.614C85.289 92.614 86.059 92.334 86.661 91.802C87.151 91.354 87.473 90.794 87.641 90.094H86.521C86.339 90.598 86.101 90.976 85.793 91.228C85.429 91.522 84.939 91.676 84.351 91.676C83.665 91.676 83.119 91.452 82.727 91.004C82.335 90.556 82.125 89.926 82.069 89.114H87.781C87.753 87.854 87.473 86.86 86.941 86.16C86.353 85.376 85.471 84.984 84.309 84.984ZM84.337 85.922C85.709 85.922 86.479 86.692 86.619 88.246H82.097C82.167 87.532 82.391 86.972 82.783 86.552C83.175 86.132 83.693 85.922 84.337 85.922ZM94.7347 90.752C94.4827 90.752 94.2867 90.836 94.1327 91.004C93.9647 91.172 93.8807 91.368 93.8807 91.62C93.8807 91.858 93.9647 92.054 94.1327 92.222C94.2867 92.39 94.4827 92.474 94.7347 92.474C94.9587 92.474 95.1687 92.39 95.3367 92.222C95.5047 92.054 95.5887 91.858 95.5887 91.62C95.5887 91.368 95.5047 91.172 95.3367 91.004C95.1687 90.836 94.9587 90.752 94.7347 90.752ZM105.566 84.984C104.474 84.984 103.676 85.446 103.158 86.37V85.18H102.108V95.19H103.228V91.102C103.788 92.11 104.586 92.614 105.622 92.614C106.658 92.614 107.456 92.222 108.044 91.466C108.576 90.766 108.856 89.884 108.856 88.82C108.856 87.728 108.576 86.846 108.03 86.146C107.428 85.362 106.602 84.984 105.566 84.984ZM105.426 85.908C106.196 85.908 106.784 86.188 107.19 86.776C107.526 87.28 107.708 87.966 107.708 88.82C107.708 89.688 107.526 90.374 107.162 90.878C106.756 91.41 106.168 91.69 105.384 91.69C104.712 91.69 104.194 91.424 103.802 90.92C103.382 90.402 103.186 89.73 103.186 88.89V88.75C103.186 87.938 103.368 87.266 103.732 86.762C104.124 86.188 104.698 85.908 105.426 85.908ZM113.699 84.984C113.223 84.984 112.789 85.096 112.397 85.32C112.005 85.53 111.683 85.838 111.431 86.244V85.18H110.311V92.418H111.431V88.05C111.473 87.392 111.683 86.874 112.075 86.482C112.439 86.118 112.873 85.936 113.377 85.936C114.637 85.936 115.281 86.636 115.281 88.05V92.418H116.401V87.966C116.401 85.978 115.491 84.984 113.699 84.984ZM121.114 84.984C120.106 84.984 119.308 85.334 118.72 86.048C118.132 86.72 117.852 87.574 117.852 88.638C117.852 89.688 118.132 90.542 118.72 91.214C119.308 91.9 120.106 92.25 121.114 92.25C122.206 92.25 123.018 91.76 123.55 90.794V92.068C123.55 93.664 122.822 94.476 121.366 94.476C120.708 94.476 120.218 94.35 119.896 94.112C119.574 93.888 119.364 93.524 119.28 93.034H118.16C118.286 93.818 118.608 94.406 119.126 94.798C119.63 95.19 120.386 95.386 121.366 95.386C123.564 95.386 124.67 94.224 124.67 91.914V85.18H123.55V86.426C123.018 85.46 122.206 84.984 121.114 84.984ZM121.282 85.908C121.996 85.908 122.556 86.16 122.976 86.692C123.368 87.168 123.564 87.826 123.564 88.638C123.564 89.422 123.368 90.066 122.976 90.556C122.556 91.06 121.996 91.312 121.268 91.312C120.484 91.312 119.91 91.032 119.518 90.5C119.168 90.024 119 89.394 119 88.638C119 87.826 119.196 87.168 119.588 86.692C119.994 86.16 120.554 85.908 121.282 85.908ZM132.045 90.752C131.793 90.752 131.597 90.836 131.443 91.004C131.275 91.172 131.191 91.368 131.191 91.62C131.191 91.858 131.275 92.054 131.443 92.222C131.597 92.39 131.793 92.474 132.045 92.474C132.269 92.474 132.479 92.39 132.647 92.222C132.815 92.054 132.899 91.858 132.899 91.62C132.899 91.368 132.815 91.172 132.647 91.004C132.479 90.836 132.269 90.752 132.045 90.752ZM137.921 84.984C137.109 84.984 136.423 85.362 135.877 86.146V85.18H134.757V92.418H135.877V88.008C135.877 87.434 136.045 86.944 136.381 86.552C136.717 86.132 137.137 85.936 137.655 85.936C138.761 85.936 139.321 86.566 139.321 87.854V92.418H140.441V87.882C140.441 87.294 140.595 86.832 140.931 86.468C141.239 86.104 141.645 85.936 142.121 85.936C142.737 85.936 143.185 86.09 143.465 86.426C143.731 86.734 143.871 87.21 143.871 87.854V92.418H144.991V87.672C144.991 86.846 144.753 86.188 144.305 85.698C143.829 85.222 143.227 84.984 142.471 84.984C141.967 84.984 141.547 85.096 141.197 85.32C140.805 85.53 140.469 85.88 140.189 86.356C139.783 85.432 139.027 84.984 137.921 84.984ZM150.191 84.984C149.099 84.984 148.301 85.446 147.783 86.37V85.18H146.733V95.19H147.853V91.102C148.413 92.11 149.211 92.614 150.247 92.614C151.283 92.614 152.081 92.222 152.669 91.466C153.201 90.766 153.481 89.884 153.481 88.82C153.481 87.728 153.201 86.846 152.655 86.146C152.053 85.362 151.227 84.984 150.191 84.984ZM150.051 85.908C150.821 85.908 151.409 86.188 151.815 86.776C152.151 87.28 152.333 87.966 152.333 88.82C152.333 89.688 152.151 90.374 151.787 90.878C151.381 91.41 150.793 91.69 150.009 91.69C149.337 91.69 148.819 91.424 148.427 90.92C148.007 90.402 147.811 89.73 147.811 88.89V88.75C147.811 87.938 147.993 87.266 148.357 86.762C148.749 86.188 149.323 85.908 150.051 85.908ZM159.444 82.422L154.404 89.058V90.15H159.43V92.418H160.522V90.15H162.146V89.212H160.522V82.422H159.444ZM159.388 83.92H159.43V89.212H155.37L159.388 83.92Z" fill="#8C8C8C"/>
</svg>
