<svg width="40" height="40" viewBox="0 0 40 40" fill="none" xmlns="http://www.w3.org/2000/svg">
<path fill-rule="evenodd" clip-rule="evenodd" d="M17.5 8.75001C17.5482 8.75001 17.5963 8.75031 17.6444 8.75092C20.7435 8.71262 23.8507 9.86878 26.168 12.204C28.029 14.0794 29.0853 16.4179 29.3452 18.8191L34.9695 11.7108L37.5 13.5894L27.1383 26.685C27.1013 26.7333 27.064 26.7814 27.0261 26.8292C26.9862 26.8797 26.9458 26.93 26.9048 26.98L26.7633 27.1589L26.7584 27.1552C26.4758 27.4866 26.1706 27.8058 25.843 28.1108C23.5518 30.2441 20.591 31.2858 17.6459 31.2491C17.5973 31.2497 17.5487 31.25 17.5 31.25C11.2868 31.25 6.25 26.2132 6.25 20C6.25 13.7868 11.2868 8.75001 17.5 8.75001ZM15 20C15.6904 20 16.25 19.4404 16.25 18.75C16.25 18.0596 15.6904 17.5 15 17.5C14.3096 17.5 13.75 18.0596 13.75 18.75C13.75 19.4404 14.3096 20 15 20ZM21.875 23.75C21.875 25.4129 20.7557 26.7609 19.375 26.7609C17.9943 26.7609 16.875 25.4129 16.875 23.75H19.375H21.875ZM23.75 20C24.4404 20 25 19.4404 25 18.75C25 18.0596 24.4404 17.5 23.75 17.5C23.0596 17.5 22.5 18.0596 22.5 18.75C22.5 19.4404 23.0596 20 23.75 20Z" fill="#62B0E5"/>
</svg>
