<svg width="104" height="40" viewBox="0 0 104 40" fill="none" xmlns="http://www.w3.org/2000/svg">
<path d="M4.13043 24.2799C-1.53467 18.5695 -1.34923 9.4907 4.54462 4.00189C10.4385 -1.48692 19.8089 -1.30725 25.474 4.4032C27.8251 6.77317 29.1685 9.72331 29.5144 12.7562L34.5501 6.27277L34.5663 6.28464C35.1355 5.47415 35.7994 4.70829 36.558 4.00189C42.4518 -1.48692 51.8222 -1.30725 57.4873 4.4032C59.8446 6.77939 61.1889 9.73881 61.5304 12.7801L66.4514 6.55469C67.0601 5.64398 67.7858 4.78628 68.6281 4.00189C74.5219 -1.48692 83.8923 -1.30725 89.5574 4.4032C91.9292 6.79397 93.2755 9.77514 93.6067 12.8361L100.775 3.77442L104 6.16929L90.794 22.8636C90.6973 22.9902 90.5981 23.1156 90.4965 23.2397L90.3161 23.4678L90.3099 23.4631C89.9497 23.8855 89.5608 24.2924 89.1432 24.6812C83.2494 30.1701 73.879 29.9904 68.2139 24.2799C65.8592 21.9064 64.5153 18.951 64.1719 15.9133L59.1964 22.2077C58.8106 22.7766 58.3788 23.3245 57.9011 23.8464L57.8712 23.8842L57.8683 23.8821C57.616 24.1559 57.3509 24.4226 57.0731 24.6812C51.1793 30.1701 41.8089 29.9904 36.1438 24.2799C33.8024 21.9198 32.4604 18.9843 32.1077 15.9647L13.4396 40L10.1929 37.6328L17.3031 28.4784C12.6321 29.2499 7.66149 27.8393 4.13043 24.2799Z" fill="#061926"/>
</svg>
