<?xml version="1.0" encoding="utf-8"?>
<!-- Generator: Adobe Illustrator 26.3.1, SVG Export Plug-In . SVG Version: 6.00 Build 0)  -->
<svg version="1.1" id="图层_1" xmlns="http://www.w3.org/2000/svg" xmlns:xlink="http://www.w3.org/1999/xlink" x="0px" y="0px"
	 viewBox="0 0 20 20" style="enable-background:new 0 0 20 20;" xml:space="preserve">
<style type="text/css">
	.st0{fill:#FFFFFF;}
	.st1{clip-path:url(#SVGID_00000140712880270354403040000017106624871050726053_);}
	.st2{fill:#62B0E5;}
</style>
<g>
	<circle class="st0" cx="10" cy="10" r="10"/>
	<g>
		<defs>
			<rect id="SVGID_1_" x="4" y="4" width="12" height="12"/>
		</defs>
		<clipPath id="SVGID_00000074408267432785817640000006553386168646624661_">
			<use xlink:href="#SVGID_1_"  style="overflow:visible;"/>
		</clipPath>
		<g style="clip-path:url(#SVGID_00000074408267432785817640000006553386168646624661_);">
			<path class="st2" d="M13.1,6.3L13,6l-0.1-0.4c-0.1-0.5-0.4-0.9-0.8-0.9H7.9c-0.4,0-0.7,0.4-0.8,0.9L6.9,6.3H5.5
				c-0.4,0-0.8,0.4-0.8,0.9v7.3c0,0.5,0.4,0.9,0.8,0.9h9c0.4,0,0.8-0.4,0.8-0.9V7.1c0-0.5-0.4-0.9-0.8-0.9H13.1L13.1,6.3z M13.6,5.6
				h0.9c0.8,0,1.5,0.7,1.5,1.6v7.3c0,0.9-0.7,1.6-1.5,1.6h-9C4.7,16,4,15.3,4,14.5V7.1c0-0.9,0.7-1.6,1.5-1.6h0.9l0-0.1
				C6.6,4.6,7.2,4,7.9,4h4.1c0.7,0,1.4,0.6,1.5,1.4L13.6,5.6z"/>
			<path class="st2" d="M10,13.3c-0.3,0-0.7-0.1-1-0.2c-0.3-0.1-0.6-0.3-0.9-0.6c-0.2-0.2-0.4-0.5-0.6-0.9c-0.1-0.3-0.2-0.7-0.2-1
				c0-0.3,0.1-0.7,0.2-1c0.1-0.3,0.3-0.6,0.6-0.9C8.4,8.6,8.7,8.4,9,8.3c0.3-0.1,0.7-0.2,1-0.2c0.7,0,1.4,0.3,1.9,0.8
				c0.5,0.5,0.8,1.2,0.8,1.9c0,0.7-0.3,1.4-0.8,1.9C11.4,13.1,10.7,13.3,10,13.3z M10,12.6c0.5,0,1-0.2,1.3-0.5
				c0.4-0.4,0.5-0.8,0.5-1.3c0-0.5-0.2-1-0.5-1.3C11,9,10.5,8.8,10,8.8S9,9,8.7,9.4c-0.4,0.4-0.5,0.8-0.5,1.3c0,0.5,0.2,1,0.5,1.3
				C9,12.4,9.5,12.6,10,12.6z"/>
		</g>
	</g>
</g>
</svg>
