<svg width="80" height="32" viewBox="0 0 80 32" fill="none" xmlns="http://www.w3.org/2000/svg">
<path d="M3.76644 3.68899C-0.697728 7.99858 -0.838184 15.1269 3.45272 19.6105C6.12726 22.4051 9.89214 23.5127 13.4301 22.9069L8.04465 30.0946L10.5038 31.9532L24.6435 13.0818C24.9106 15.4526 25.9271 17.7574 27.7005 19.6105C31.9914 24.0941 39.0888 24.2351 43.553 19.9256C43.7634 19.7225 43.9642 19.5131 44.1553 19.2981L44.1575 19.2998L44.1803 19.2699C44.542 18.8603 44.869 18.4302 45.1612 17.9836L48.9298 13.0414C49.1899 15.4264 50.2079 17.7469 51.9913 19.6105C56.2822 24.0941 63.3796 24.2351 67.8438 19.9256C68.1601 19.6203 68.4546 19.3008 68.7275 18.9691L68.7322 18.9728L68.8689 18.7937C68.9458 18.6963 69.0209 18.5979 69.0941 18.4985L79.0968 5.39074L76.654 3.5104L71.2246 10.6252C70.9737 8.22192 69.954 5.88122 68.1576 4.00408C63.8666 -0.479521 56.7692 -0.620588 52.3051 3.68899C51.667 4.30493 51.1173 4.97845 50.6562 5.6936L46.9291 10.5813C46.6705 8.19341 45.6523 5.86977 43.8667 4.00408C39.5758 -0.479521 32.4784 -0.620588 28.0143 3.68899C27.4397 4.24363 26.9368 4.84494 26.5057 5.4813L26.4934 5.47199L22.6793 10.5626C22.4173 8.18125 21.3997 5.86488 19.6189 4.00408C15.328 -0.479521 8.23062 -0.620588 3.76644 3.68899Z" fill="#B9DBF2" fill-opacity="0.5"/>
</svg>
