<svg width="284" height="250" viewBox="0 0 284 250" fill="none" xmlns="http://www.w3.org/2000/svg">
<path d="M115.584 213.269V214.741H117.68V215.685H119.232V214.741H121.328V215.685H122.896V214.741H125.2V213.269H122.896V212.117H121.328V213.269H119.232V212.117H117.68V213.269H115.584ZM120.16 223.861C121.024 225.093 122.416 226.117 124.304 226.949L125.44 225.605C123.808 225.061 122.576 224.357 121.712 223.525H125.232V222.021H120.864C120.928 221.749 120.976 221.461 121.024 221.173H124.24V216.037H116.304V221.173H119.552C119.488 221.461 119.424 221.749 119.344 222.021H115.216V223.525H118.576C118.544 223.573 118.496 223.637 118.432 223.717C117.76 224.485 116.656 225.093 115.136 225.509L115.712 226.885C117.568 226.341 118.88 225.605 119.616 224.661C119.808 224.405 119.984 224.149 120.16 223.861ZM114.272 219.253C114.592 219.797 114.96 220.453 115.376 221.237L116.256 219.909C115.584 218.997 114.912 218.165 114.272 217.413V216.581H115.776V215.061H114.272V212.165H112.704V215.061H111.024V216.581H112.704V216.725C112.24 218.421 111.504 219.941 110.512 221.285L111.232 223.141C111.808 222.133 112.288 221.045 112.704 219.877V226.821H114.272V219.253ZM122.736 219.925H117.792V219.221H122.736V219.925ZM117.792 218.005V217.317H122.736V218.005H117.792ZM127.392 212.629V214.101H128.832V216.037H126.976V217.573H128.736C128.544 218.629 128.096 219.445 127.36 220.005L128.624 221.109C129.584 220.309 130.176 219.141 130.368 217.573H132.032V220.917H133.632V217.573H135.456V216.037H133.632V214.101H135.104V212.629H127.392ZM130.448 214.101H132.032V216.037H130.448V214.101ZM136.064 213.157V218.629H137.648V213.157H136.064ZM127.808 222.165V223.701H133.232V225.029H126.912V226.549H141.088V225.029H134.896V223.701H140.208V222.165H134.896V221.093H133.232V222.165H127.808ZM139.04 221.125C140.048 221.125 140.56 220.517 140.56 219.301V212.277H138.944V218.901C138.944 219.413 138.784 219.669 138.48 219.669C137.872 219.669 137.216 219.621 136.528 219.557L136.896 221.125H139.04ZM145.344 215.349L143.84 215.893C144.144 216.501 144.416 217.157 144.64 217.829H142.736V219.429H150.8V217.829H149.168C149.472 217.237 149.76 216.565 150.016 215.797L148.496 215.269C148.224 216.181 147.904 217.029 147.536 217.829H146.224C145.952 216.869 145.664 216.037 145.344 215.349ZM151.392 212.565V226.837H153.008V214.101H155.216C154.704 215.749 154.192 217.157 153.664 218.341C154.912 219.797 155.552 220.981 155.568 221.893C155.552 222.437 155.52 222.789 155.456 222.949C155.36 223.125 155.184 223.221 154.928 223.237C154.496 223.237 153.968 223.189 153.344 223.125L153.872 224.885C155.232 224.885 156.144 224.661 156.592 224.229C157.008 223.797 157.232 223.013 157.232 221.893C157.216 220.965 156.624 219.781 155.44 218.341C156.016 216.965 156.56 215.445 157.056 213.813V212.565H151.392ZM143.04 213.461V215.061H150.656V213.461H147.536C147.408 212.917 147.28 212.405 147.152 211.957L145.44 212.245C145.6 212.613 145.744 213.013 145.888 213.461H143.04ZM150.208 220.485H143.568V226.837H145.2V226.053H148.544V226.837H150.208V220.485ZM145.2 224.469V222.069H148.544V224.469H145.2ZM160.096 212.549V215.877H164.672V216.565H160.608V217.845H164.672V218.613H158.864V220.021H165.36C163.472 220.725 161.28 221.205 158.816 221.445L159.712 222.805C160.416 222.661 161.104 222.501 161.776 222.341V226.997H163.408V226.341H169.68V226.997H171.312V220.821H166.48C167.072 220.565 167.648 220.309 168.208 220.021H173.216V218.613H170.528C171.264 218.069 171.952 217.493 172.56 216.853L171.2 216.133C170.704 216.693 170.144 217.221 169.52 217.701V216.565H166.304V215.877H171.84V212.549H160.096ZM168.24 218.613H166.304V217.845H169.344C168.992 218.101 168.624 218.357 168.24 218.613ZM170.256 214.677H168.416V213.765H170.256V214.677ZM166.896 214.677H165.072V213.765H166.896V214.677ZM163.552 214.677H161.68V213.765H163.552V214.677ZM163.408 224.181H169.68V224.997H163.408V224.181ZM169.68 222.933H163.408V222.069H169.68V222.933Z" fill="#3693D1"/>
<g clip-path="url(#clip0_564_81713)">
<path d="M246 130.045C246.004 130.882 245.675 131.687 245.085 132.282C244.495 132.877 243.692 133.214 242.854 133.218H104.437C104.022 133.216 103.611 133.132 103.228 132.972C102.845 132.811 102.498 132.577 102.206 132.282C101.914 131.987 101.682 131.638 101.525 131.254C101.369 130.871 101.289 130.46 101.291 130.045V35.6731C101.287 34.8359 101.616 34.0313 102.206 33.4362C102.796 32.8411 103.598 32.5044 104.437 32.5H242.854C243.269 32.5022 243.68 32.5859 244.063 32.7466C244.445 32.9072 244.793 33.1415 245.085 33.4362C245.377 33.7308 245.608 34.08 245.765 34.4638C245.922 34.8476 246.002 35.2585 246 35.673V35.6731V130.045Z" fill="#E6E6E6"/>
<path d="M244.368 128.5C244.368 129.313 244.044 130.094 243.467 130.669C242.891 131.245 242.109 131.568 241.294 131.568H106.093C105.278 131.568 104.496 131.245 103.92 130.669C103.343 130.094 103.02 129.313 103.02 128.5V37.2618C103.02 36.448 103.343 35.6676 103.92 35.0922C104.496 34.5169 105.278 34.1936 106.093 34.1936H241.3C242.114 34.1952 242.894 34.5192 243.469 35.0944C244.045 35.6696 244.368 36.4491 244.368 37.2618V128.5Z" fill="white"/>
<path d="M110.245 38.1548H237.286C237.77 38.1548 238.234 38.3467 238.576 38.6882C238.918 39.0297 239.11 39.4929 239.11 39.9759V125.432C239.11 125.915 238.918 126.378 238.576 126.719C238.234 127.061 237.77 127.253 237.286 127.253H110.245C109.762 127.253 109.297 127.061 108.955 126.719C108.613 126.378 108.421 125.915 108.421 125.432V39.9759C108.421 39.4929 108.613 39.0297 108.955 38.6882C109.297 38.3467 109.762 38.1548 110.245 38.1548Z" fill="#E6E6E6"/>
<path d="M111.853 40.2043H235.539C236.023 40.2043 236.487 40.3962 236.829 40.7377C237.171 41.0793 237.364 41.5425 237.364 42.0255V122.921C237.364 123.404 237.171 123.867 236.829 124.209C236.487 124.55 236.023 124.742 235.539 124.742H111.853C111.369 124.742 110.905 124.55 110.563 124.209C110.221 123.867 110.028 123.404 110.028 122.921V42.0255C110.028 41.5425 110.221 41.0793 110.563 40.7377C110.905 40.3962 111.369 40.2043 111.853 40.2043Z" fill="white"/>
<path d="M199.184 96.4008C198.697 96.4004 198.216 96.2981 197.771 96.1003C197.668 96.0545 197.569 95.9985 197.477 95.9333L188.488 89.6176C188.032 89.2973 187.66 88.8723 187.403 88.3784C187.146 87.8845 187.012 87.3362 187.012 86.7798V78.1665C187.012 77.6101 187.146 77.0618 187.403 76.5679C187.66 76.074 188.032 75.649 188.488 75.3287L197.477 69.0131C197.569 68.9478 197.668 68.8918 197.771 68.846C198.301 68.611 198.881 68.5118 199.458 68.5574C200.036 68.603 200.593 68.792 201.079 69.1072C201.565 69.4223 201.964 69.8536 202.241 70.362C202.517 70.8703 202.662 71.4395 202.662 72.0179V92.9284C202.662 93.849 202.295 94.732 201.643 95.383C200.991 96.034 200.106 96.3997 199.184 96.3997L199.184 96.4008Z" fill="#3F3D56"/>
<path d="M179.067 98.0943H153.996C148.881 98.0901 144.736 94.79 144.73 90.7177V74.2289C144.736 70.1566 148.881 66.8565 153.996 66.8523H179.132C184.21 66.8571 188.326 70.1336 188.332 74.1768V90.7177C188.327 94.79 184.181 98.0901 179.067 98.0943Z" fill="#3F3D56"/>
<path d="M214.045 141.363C214.05 142.2 213.721 143.005 213.131 143.6C212.541 144.195 211.738 144.532 210.9 144.536H72.483C72.0677 144.534 71.6569 144.45 71.274 144.289C70.8911 144.129 70.5437 143.895 70.2516 143.6C69.9595 143.305 69.7283 142.956 69.5714 142.572C69.4145 142.188 69.3348 141.778 69.337 141.363V46.991C69.3326 46.1538 69.6616 45.3492 70.2515 44.7541C70.8415 44.159 71.6441 43.8222 72.4829 43.8179H210.899C211.315 43.82 211.726 43.9038 212.108 44.0644C212.491 44.2251 212.839 44.4594 213.131 44.754C213.423 45.0487 213.654 45.3979 213.811 45.7817C213.968 46.1655 214.048 46.5764 214.045 46.9909V46.991V141.363Z" fill="#E6E6E6"/>
<path d="M212.413 139.818C212.413 140.631 212.089 141.412 211.512 141.987C210.936 142.562 210.154 142.886 209.339 142.886H74.1383C73.3231 142.886 72.5412 142.562 71.9648 141.987C71.3883 141.412 71.0645 140.631 71.0645 139.818V48.5796C71.0645 47.7659 71.3883 46.9855 71.9648 46.4101C72.5412 45.8347 73.3231 45.5115 74.1383 45.5115H209.345C210.159 45.5131 210.939 45.8371 211.514 46.4123C212.09 46.9875 212.413 47.767 212.413 48.5796V139.818Z" fill="white"/>
<path d="M78.2903 49.4727H205.331C205.815 49.4727 206.279 49.6645 206.621 50.0061C206.963 50.3476 207.155 50.8108 207.155 51.2938V136.749C207.155 137.232 206.963 137.696 206.621 138.037C206.279 138.379 205.815 138.571 205.331 138.571H78.2903C77.8065 138.571 77.3424 138.379 77.0002 138.037C76.658 137.696 76.4658 137.232 76.4658 136.749V51.2938C76.4658 50.8108 76.658 50.3476 77.0002 50.0061C77.3424 49.6645 77.8065 49.4727 78.2903 49.4727Z" fill="#E6E6E6"/>
<path d="M79.8978 51.5222H203.584C204.068 51.5222 204.532 51.7141 204.874 52.0556C205.216 52.3971 205.409 52.8604 205.409 53.3434V134.239C205.409 134.722 205.216 135.185 204.874 135.527C204.532 135.868 204.068 136.06 203.584 136.06H79.8978C79.4139 136.06 78.9498 135.868 78.6076 135.527C78.2655 135.185 78.0732 134.722 78.0732 134.239V53.3434C78.0732 52.8604 78.2655 52.3971 78.6076 52.0556C78.9498 51.7141 79.4139 51.5222 79.8978 51.5222Z" fill="white"/>
<path d="M167.229 107.719C166.742 107.718 166.261 107.616 165.816 107.418C165.713 107.372 165.614 107.316 165.522 107.251L156.533 100.935C156.077 100.615 155.705 100.19 155.448 99.6963C155.191 99.2024 155.057 98.6541 155.057 98.0977V89.4844C155.057 88.9279 155.191 88.3797 155.448 87.8858C155.705 87.3919 156.077 86.9669 156.533 86.6466L165.522 80.3309C165.614 80.2657 165.713 80.2097 165.816 80.1639C166.346 79.9289 166.925 79.8297 167.503 79.8753C168.081 79.9209 168.638 80.1099 169.124 80.425C169.61 80.7402 170.009 81.1715 170.285 81.6798C170.562 82.1882 170.707 82.7574 170.707 83.3358V104.246C170.707 105.167 170.34 106.05 169.688 106.701C169.036 107.352 168.151 107.718 167.229 107.718L167.229 107.719Z" fill="#3F3D56"/>
<path d="M147.111 109.412H122.041C116.926 109.408 112.781 106.108 112.775 102.036V85.5468C112.781 81.4745 116.926 78.1744 122.041 78.1702H147.177C152.255 78.175 156.371 81.4515 156.377 85.4947V102.036C156.371 106.108 152.226 109.408 147.111 109.412Z" fill="#3F3D56"/>
<path d="M195.644 123.282L189.7 119.857C189.677 119.844 189.65 119.836 189.623 119.836C189.596 119.836 189.569 119.844 189.546 119.857C189.522 119.871 189.503 119.89 189.489 119.913C189.476 119.937 189.469 119.963 189.469 119.99V126.841C189.469 126.868 189.476 126.894 189.489 126.918C189.503 126.941 189.522 126.961 189.546 126.974C189.569 126.988 189.596 126.995 189.623 126.995C189.65 126.995 189.677 126.988 189.7 126.974L195.644 123.549C195.667 123.535 195.687 123.516 195.7 123.493C195.714 123.469 195.721 123.443 195.721 123.416C195.721 123.389 195.714 123.362 195.7 123.339C195.687 123.315 195.667 123.296 195.644 123.282L189.7 119.857C189.677 119.844 189.65 119.836 189.623 119.836C189.596 119.836 189.569 119.844 189.546 119.857C189.522 119.871 189.503 119.89 189.489 119.913C189.476 119.937 189.469 119.963 189.469 119.99V126.841C189.469 126.868 189.476 126.894 189.489 126.918C189.503 126.941 189.522 126.961 189.546 126.974C189.569 126.988 189.596 126.995 189.623 126.995C189.65 126.995 189.677 126.988 189.7 126.974L195.644 123.549C195.667 123.535 195.687 123.516 195.7 123.493C195.714 123.469 195.721 123.443 195.721 123.416C195.721 123.389 195.714 123.362 195.7 123.339C195.687 123.315 195.667 123.296 195.644 123.282Z" fill="white"/>
<path d="M182.709 154.327C182.713 155.164 182.384 155.969 181.794 156.564C181.204 157.159 180.401 157.496 179.563 157.5H41.1461C40.7308 157.498 40.3199 157.414 39.9371 157.253C39.5542 157.093 39.2068 156.858 38.9147 156.564C38.6225 156.269 38.3914 155.92 38.2345 155.536C38.0775 155.152 37.9979 154.741 38 154.327V59.9548C37.9957 59.1177 38.3246 58.313 38.9146 57.718C39.5046 57.1229 40.3072 56.7861 41.146 56.7817H179.562C179.978 56.7839 180.389 56.8677 180.771 57.0283C181.154 57.1889 181.502 57.4233 181.794 57.7179C182.086 58.0125 182.317 58.3617 182.474 58.7455C182.631 59.1293 182.711 59.5402 182.709 59.9548V59.9548V154.327Z" fill="#E6E6E6"/>
<path d="M181.076 152.781C181.076 153.595 180.752 154.376 180.175 154.951C179.599 155.526 178.817 155.85 178.002 155.85H42.8014C41.9862 155.85 41.2043 155.526 40.6279 154.951C40.0514 154.376 39.7275 153.595 39.7275 152.781V61.5435C39.7275 60.7298 40.0514 59.9494 40.6279 59.374C41.2043 58.7986 41.9862 58.4753 42.8014 58.4753H178.008C178.822 58.477 179.602 58.8009 180.177 59.3762C180.753 59.9514 181.076 60.7308 181.076 61.5435V152.781Z" fill="white"/>
<path d="M46.9534 62.4365H173.994C174.478 62.4365 174.942 62.6284 175.284 62.9699C175.626 63.3115 175.818 63.7747 175.818 64.2577V149.713C175.818 150.196 175.626 150.659 175.284 151.001C174.942 151.343 174.478 151.534 173.994 151.534H46.9534C46.4695 151.534 46.0055 151.343 45.6633 151.001C45.3211 150.659 45.1289 150.196 45.1289 149.713V64.2577C45.1289 63.7747 45.3211 63.3115 45.6633 62.9699C46.0055 62.6284 46.4695 62.4365 46.9534 62.4365Z" fill="#E6E6E6"/>
<path d="M48.5618 64.4861H172.248C172.488 64.4861 172.725 64.5332 172.946 64.6247C173.168 64.7162 173.369 64.8504 173.538 65.0195C173.708 65.1886 173.842 65.3893 173.934 65.6103C174.025 65.8313 174.073 66.0681 174.073 66.3072V147.203C174.073 147.442 174.025 147.679 173.934 147.9C173.842 148.121 173.708 148.321 173.538 148.491C173.369 148.66 173.168 148.794 172.946 148.885C172.725 148.977 172.488 149.024 172.248 149.024H48.5618C48.0779 149.024 47.6139 148.832 47.2717 148.491C46.9295 148.149 46.7373 147.686 46.7373 147.203V66.3072C46.7373 65.8242 46.9295 65.361 47.2717 65.0195C47.6139 64.678 48.0779 64.4861 48.5618 64.4861Z" fill="white"/>
<path d="M135.893 120.683C135.406 120.682 134.925 120.58 134.48 120.382C134.377 120.336 134.278 120.28 134.186 120.215L125.197 113.9C124.741 113.579 124.369 113.154 124.112 112.66C123.855 112.167 123.721 111.618 123.721 111.062V102.449C123.721 101.892 123.855 101.344 124.112 100.85C124.369 100.356 124.741 99.931 125.197 99.6107L134.186 93.295C134.278 93.2298 134.377 93.1738 134.48 93.128C135.01 92.893 135.59 92.7938 136.167 92.8394C136.745 92.885 137.302 93.074 137.788 93.3891C138.274 93.7043 138.673 94.1356 138.95 94.644C139.226 95.1523 139.371 95.7215 139.371 96.2999V117.21C139.371 118.131 139.004 119.014 138.352 119.665C137.7 120.316 136.815 120.682 135.893 120.682L135.893 120.683Z" fill="#62B0E5"/>
<path d="M115.776 122.376H90.7047C85.5898 122.372 81.4447 119.072 81.4395 114.999V98.5106C81.4447 94.4384 85.5898 91.1382 90.7047 91.134H115.841C120.919 91.1388 125.035 94.4153 125.041 98.4586V114.999C125.036 119.072 120.89 122.372 115.776 122.376Z" fill="#62B0E5"/>
<path d="M164.308 136.246L158.364 132.821C158.341 132.808 158.314 132.801 158.287 132.801C158.26 132.801 158.233 132.808 158.21 132.821C158.187 132.835 158.167 132.854 158.153 132.878C158.14 132.901 158.133 132.928 158.133 132.955V139.805C158.133 139.832 158.14 139.858 158.153 139.882C158.167 139.905 158.187 139.925 158.21 139.938C158.233 139.952 158.26 139.959 158.287 139.959C158.314 139.959 158.341 139.952 158.364 139.938L164.308 136.513C164.331 136.5 164.351 136.48 164.364 136.457C164.378 136.433 164.385 136.407 164.385 136.38C164.385 136.353 164.378 136.326 164.364 136.303C164.351 136.279 164.331 136.26 164.308 136.246L158.364 132.821C158.341 132.808 158.314 132.801 158.287 132.801C158.26 132.801 158.233 132.808 158.21 132.821C158.187 132.835 158.167 132.854 158.153 132.878C158.14 132.901 158.133 132.928 158.133 132.955V139.805C158.133 139.832 158.14 139.858 158.153 139.882C158.167 139.905 158.187 139.925 158.21 139.938C158.233 139.952 158.26 139.959 158.287 139.959C158.314 139.959 158.341 139.952 158.364 139.938L164.308 136.513C164.331 136.5 164.351 136.48 164.364 136.457C164.378 136.433 164.385 136.407 164.385 136.38C164.385 136.353 164.378 136.326 164.364 136.303C164.351 136.279 164.331 136.26 164.308 136.246Z" fill="white"/>
</g>
<defs>
<clipPath id="clip0_564_81713">
<rect width="208" height="125" fill="white" transform="translate(38 32.5)"/>
</clipPath>
</defs>
</svg>
