<svg width="284" height="250" viewBox="0 0 284 250" fill="none" xmlns="http://www.w3.org/2000/svg">
<path d="M116.384 212.069V224.693H110.832V226.325H125.216V224.693H118.112V218.437H124.032V216.821H118.112V212.069H116.384ZM128.416 218.565V226.901H130.08V216.197C130.72 215.109 131.248 213.957 131.632 212.773L130.048 212.037C129.264 214.453 128.064 216.549 126.448 218.325L127.008 220.117C127.504 219.621 127.968 219.109 128.416 218.565ZM131.536 213.941V215.541H134.176C134.048 215.989 133.92 216.453 133.792 216.917H130.832V218.501H133.296C132.928 219.573 132.544 220.613 132.128 221.605H138.8C138.16 222.341 137.328 223.061 136.272 223.765C135.392 223.349 134.464 222.981 133.504 222.629L132.624 223.941C134.672 224.677 136.688 225.701 138.64 226.997L139.568 225.557C138.976 225.173 138.368 224.821 137.728 224.485C139.008 223.493 139.968 222.501 140.592 221.509V220.069H134.304C134.496 219.589 134.704 219.061 134.912 218.501H141.44V216.917H135.44C135.568 216.485 135.696 216.021 135.824 215.541H140.784V213.941H136.24C136.368 213.381 136.512 212.805 136.64 212.197L135.008 212.037L134.576 213.941H131.536ZM152.72 215.941H154.672C154.608 217.749 154.336 219.365 153.856 220.773C153.328 219.573 152.896 218.181 152.544 216.597C152.608 216.373 152.656 216.165 152.72 215.941ZM153.088 222.485C152.4 223.717 151.472 224.709 150.32 225.477L151.184 226.885C152.272 226.101 153.2 225.141 153.952 224.021C154.704 225.205 155.584 226.165 156.576 226.901L157.504 225.541C156.448 224.821 155.536 223.813 154.768 222.533C155.616 220.709 156.08 218.517 156.176 215.941H157.056V214.325H153.056C153.168 213.701 153.264 213.045 153.36 212.341L151.728 212.053C151.424 214.997 150.832 217.349 149.952 219.109L150.992 220.405C151.248 219.957 151.504 219.461 151.744 218.933C152.128 220.245 152.576 221.429 153.088 222.485ZM145.52 219.477C145.424 219.765 145.312 220.053 145.2 220.373H142.976V221.797H144.56C144.272 222.389 143.936 223.013 143.552 223.653C144.256 223.925 144.944 224.197 145.584 224.469C144.736 224.853 143.744 225.189 142.592 225.445L143.36 226.837C144.944 226.421 146.256 225.893 147.312 225.221C148.176 225.621 148.912 226.005 149.52 226.373L150.416 225.061C149.824 224.741 149.216 224.453 148.592 224.181C149.296 223.477 149.776 222.645 150.048 221.717V220.373H146.832C146.912 220.149 146.992 219.909 147.088 219.669L145.52 219.477ZM147.088 223.557C146.576 223.349 146.064 223.157 145.552 222.997C145.776 222.613 146 222.213 146.208 221.797H148.576C148.24 222.453 147.744 223.045 147.088 223.557ZM144.544 212.293L143.248 212.709C143.6 213.301 143.936 213.973 144.256 214.741L145.44 214.213C145.184 213.525 144.88 212.885 144.544 212.293ZM149.04 212.277C148.752 212.917 148.336 213.557 147.824 214.213L148.992 214.805C149.488 214.165 149.888 213.509 150.208 212.837L149.04 212.277ZM143.008 214.981V216.437H144.912C144.432 217.141 143.664 217.781 142.624 218.373L143.456 219.717C144.608 218.885 145.44 217.941 145.984 216.853V219.365H147.52V217.685C147.968 217.989 148.528 218.405 149.2 218.933L150.064 217.621C149.2 217.189 148.352 216.805 147.52 216.469V216.437H150.24V214.981H147.52V212.085H145.984V214.981H143.008ZM160.64 226.725C161.696 226.725 162.224 226.165 162.224 225.077V220.741C162.64 220.533 163.072 220.325 163.52 220.101V218.469C163.104 218.693 162.672 218.901 162.224 219.109V216.565H163.584V214.949H162.224V212.117H160.592V214.949H158.864V216.565H160.592V219.765C159.92 219.989 159.232 220.181 158.544 220.341L158.976 221.989C159.52 221.813 160.048 221.621 160.592 221.429V224.661C160.592 225.061 160.416 225.269 160.08 225.269C159.712 225.269 159.328 225.221 158.928 225.157L159.28 226.725H160.64ZM165.696 219.829H168.416V221.365H165.904V226.869H167.44V226.213H171.04V226.869H172.576V221.365H170.048V219.829H173.28V218.309H170.048V216.805H172.928V212.565H164.16V217.877C164.144 221.077 163.616 223.701 162.576 225.733L163.888 226.901C164.896 224.853 165.504 222.501 165.696 219.829ZM168.416 216.805V218.309H165.76C165.76 218.165 165.776 218.021 165.776 217.877V216.805H168.416ZM167.44 224.741V222.837H171.04V224.741H167.44ZM171.296 214.085V215.333H165.776V214.085H171.296Z" fill="#3693D1"/>
<g clip-path="url(#clip0_564_81738)">
<path d="M47.6132 50.8372C49.4436 50.8372 50.9275 49.3484 50.9275 47.512C50.9275 45.6755 49.4436 44.1868 47.6132 44.1868C45.7827 44.1868 44.2988 45.6755 44.2988 47.512C44.2988 49.3484 45.7827 50.8372 47.6132 50.8372Z" fill="#E6E6E6"/>
<path d="M57.5565 50.8372C59.387 50.8372 60.8709 49.3484 60.8709 47.512C60.8709 45.6755 59.387 44.1868 57.5565 44.1868C55.7261 44.1868 54.2422 45.6755 54.2422 47.512C54.2422 49.3484 55.7261 50.8372 57.5565 50.8372Z" fill="#E6E6E6"/>
<path d="M67.4999 50.8372C69.3304 50.8372 70.8143 49.3484 70.8143 47.512C70.8143 45.6755 69.3304 44.1868 67.4999 44.1868C65.6694 44.1868 64.1855 45.6755 64.1855 47.512C64.1855 49.3484 65.6694 50.8372 67.4999 50.8372Z" fill="#E6E6E6"/>
<path d="M77.4423 50.8372C79.2727 50.8372 80.7566 49.3484 80.7566 47.512C80.7566 45.6755 79.2727 44.1868 77.4423 44.1868C75.6118 44.1868 74.1279 45.6755 74.1279 47.512C74.1279 49.3484 75.6118 50.8372 77.4423 50.8372Z" fill="#E6E6E6"/>
<path d="M87.3856 50.8372C89.2161 50.8372 90.7 49.3484 90.7 47.512C90.7 45.6755 89.2161 44.1868 87.3856 44.1868C85.5552 44.1868 84.0713 45.6755 84.0713 47.512C84.0713 49.3484 85.5552 50.8372 87.3856 50.8372Z" fill="#E6E6E6"/>
<path d="M97.329 50.8372C99.1595 50.8372 100.643 49.3484 100.643 47.512C100.643 45.6755 99.1595 44.1868 97.329 44.1868C95.4985 44.1868 94.0146 45.6755 94.0146 47.512C94.0146 49.3484 95.4985 50.8372 97.329 50.8372Z" fill="#E6E6E6"/>
<path d="M107.271 50.8372C109.102 50.8372 110.586 49.3484 110.586 47.512C110.586 45.6755 109.102 44.1868 107.271 44.1868C105.441 44.1868 103.957 45.6755 103.957 47.512C103.957 49.3484 105.441 50.8372 107.271 50.8372Z" fill="#E6E6E6"/>
<path d="M114.93 51.5613H39.9542C39.5966 51.5609 39.2538 51.4182 39.001 51.1645C38.7481 50.9108 38.6059 50.5669 38.6055 50.2081V44.8158C38.6059 44.4571 38.7481 44.1131 39.001 43.8595C39.2538 43.6058 39.5966 43.4631 39.9542 43.4626H114.93C115.288 43.4631 115.631 43.6058 115.883 43.8595C116.136 44.1131 116.279 44.4571 116.279 44.8158V50.2081C116.279 50.5669 116.136 50.9108 115.883 51.1645C115.631 51.4182 115.288 51.5609 114.93 51.5613ZM39.9542 44.0039C39.7397 44.0042 39.534 44.0898 39.3823 44.242C39.2305 44.3942 39.1452 44.6006 39.145 44.8158V50.2081C39.1452 50.4234 39.2305 50.6297 39.3823 50.7819C39.534 50.9342 39.7397 51.0198 39.9542 51.02H114.93C115.145 51.0198 115.35 50.9342 115.502 50.7819C115.654 50.6297 115.739 50.4234 115.739 50.2081V44.8158C115.739 44.6006 115.654 44.3942 115.502 44.242C115.35 44.0898 115.145 44.0042 114.93 44.0039L39.9542 44.0039Z" fill="#E6E6E6"/>
<path d="M55.9999 21.2775C56.2053 21.2777 56.4023 21.3597 56.5476 21.5055C56.6929 21.6512 56.7746 21.8488 56.7748 22.055V38.9029C56.7746 39.1091 56.6929 39.3067 56.5476 39.4524C56.4023 39.5982 56.2053 39.6802 55.9999 39.6804H39.5499C39.3444 39.6802 39.1475 39.5982 39.0022 39.4524C38.8569 39.3067 38.7752 39.1091 38.775 38.9029V22.055C38.7752 21.8488 38.8569 21.6512 39.0022 21.5055C39.1475 21.3597 39.3444 21.2777 39.5499 21.2775H55.9999M55.9999 20.5H39.5499C39.1388 20.5 38.7446 20.6638 38.454 20.9555C38.1633 21.2471 38 21.6426 38 22.055V38.9029C38 39.3153 38.1633 39.7109 38.454 40.0025C38.7446 40.2941 39.1388 40.4579 39.5499 40.4579H55.9999C56.4109 40.4579 56.8052 40.2941 57.0958 40.0025C57.3865 39.7109 57.5498 39.3153 57.5498 38.9029V22.055C57.5498 21.6426 57.3865 21.2471 57.0958 20.9554C56.8052 20.6638 56.4109 20.5 55.9999 20.5V20.5Z" fill="#E6E6E6"/>
<path d="M53.4345 25.7062H42.4592C42.4081 25.7065 42.3575 25.6967 42.3102 25.6773C42.2629 25.6579 42.2199 25.6293 42.1837 25.5932C42.1474 25.5571 42.1187 25.5141 42.0991 25.4668C42.0794 25.4195 42.0693 25.3687 42.0693 25.3175C42.0693 25.2662 42.0794 25.2155 42.0991 25.1681C42.1187 25.1208 42.1474 25.0779 42.1837 25.0417C42.2199 25.0056 42.2629 24.977 42.3102 24.9576C42.3575 24.9382 42.4081 24.9284 42.4592 24.9287H53.4345C53.4856 24.9284 53.5362 24.9382 53.5835 24.9576C53.6308 24.977 53.6738 25.0056 53.71 25.0417C53.7462 25.0779 53.775 25.1208 53.7946 25.1681C53.8142 25.2155 53.8243 25.2662 53.8243 25.3175C53.8243 25.3687 53.8142 25.4195 53.7946 25.4668C53.775 25.5141 53.7462 25.5571 53.71 25.5932C53.6738 25.6293 53.6308 25.6579 53.5835 25.6773C53.5362 25.6967 53.4856 25.7065 53.4345 25.7062Z" fill="#62B0E5"/>
<path d="M53.4345 28.4589H42.4592C42.4081 28.4592 42.3575 28.4494 42.3102 28.43C42.2629 28.4106 42.2199 28.382 42.1837 28.3459C42.1474 28.3097 42.1187 28.2668 42.0991 28.2195C42.0794 28.1721 42.0693 28.1214 42.0693 28.0701C42.0693 28.0189 42.0794 27.9681 42.0991 27.9208C42.1187 27.8735 42.1474 27.8305 42.1837 27.7944C42.2199 27.7583 42.2629 27.7297 42.3102 27.7103C42.3575 27.6909 42.4081 27.6811 42.4592 27.6814H53.4345C53.4856 27.6811 53.5362 27.6909 53.5835 27.7103C53.6308 27.7297 53.6738 27.7583 53.71 27.7944C53.7462 27.8305 53.775 27.8735 53.7946 27.9208C53.8142 27.9681 53.8243 28.0189 53.8243 28.0701C53.8243 28.1214 53.8142 28.1721 53.7946 28.2195C53.775 28.2668 53.7462 28.3097 53.71 28.3459C53.6738 28.382 53.6308 28.4106 53.5835 28.43C53.5362 28.4494 53.4856 28.4592 53.4345 28.4589Z" fill="#62B0E5"/>
<path d="M53.4345 31.2118H42.4592C42.4081 31.2121 42.3575 31.2023 42.3102 31.1829C42.2629 31.1635 42.2199 31.1349 42.1837 31.0988C42.1474 31.0627 42.1187 31.0197 42.0991 30.9724C42.0794 30.9251 42.0693 30.8743 42.0693 30.8231C42.0693 30.7718 42.0794 30.7211 42.0991 30.6738C42.1187 30.6264 42.1474 30.5835 42.1837 30.5473C42.2199 30.5112 42.2629 30.4826 42.3102 30.4632C42.3575 30.4438 42.4081 30.434 42.4592 30.4343H53.4345C53.4856 30.434 53.5362 30.4438 53.5835 30.4632C53.6308 30.4826 53.6738 30.5112 53.71 30.5473C53.7462 30.5835 53.775 30.6264 53.7946 30.6738C53.8142 30.7211 53.8243 30.7718 53.8243 30.8231C53.8243 30.8743 53.8142 30.9251 53.7946 30.9724C53.775 31.0197 53.7462 31.0627 53.71 31.0988C53.6738 31.1349 53.6308 31.1635 53.5835 31.1829C53.5362 31.2023 53.4856 31.2121 53.4345 31.2118Z" fill="#62B0E5"/>
<path d="M53.4345 33.9647H42.4592C42.4081 33.9651 42.3575 33.9552 42.3102 33.9358C42.2629 33.9164 42.2199 33.8879 42.1837 33.8517C42.1474 33.8156 42.1187 33.7726 42.0991 33.7253C42.0794 33.678 42.0693 33.6273 42.0693 33.576C42.0693 33.5247 42.0794 33.474 42.0991 33.4267C42.1187 33.3794 42.1474 33.3364 42.1837 33.3003C42.2199 33.2641 42.2629 33.2356 42.3102 33.2162C42.3575 33.1968 42.4081 33.1869 42.4592 33.1873H53.4345C53.4856 33.1869 53.5362 33.1968 53.5835 33.2162C53.6308 33.2356 53.6738 33.2641 53.71 33.3003C53.7462 33.3364 53.775 33.3794 53.7946 33.4267C53.8142 33.474 53.8243 33.5247 53.8243 33.576C53.8243 33.6273 53.8142 33.678 53.7946 33.7253C53.775 33.7726 53.7462 33.8156 53.71 33.8517C53.6738 33.8879 53.6308 33.9164 53.5835 33.9358C53.5362 33.9552 53.4856 33.9651 53.4345 33.9647Z" fill="#62B0E5"/>
<path d="M53.4341 36.7174H42.4588C42.356 36.7174 42.2574 36.6765 42.1848 36.6036C42.1121 36.5307 42.0713 36.4318 42.0713 36.3287C42.0713 36.2256 42.1121 36.1267 42.1848 36.0538C42.2574 35.9809 42.356 35.9399 42.4588 35.9399H53.4341C53.5368 35.9399 53.6354 35.9809 53.7081 36.0538C53.7807 36.1267 53.8215 36.2256 53.8215 36.3287C53.8215 36.4318 53.7807 36.5307 53.7081 36.6036C53.6354 36.6765 53.5368 36.7174 53.4341 36.7174Z" fill="#62B0E5"/>
<path d="M112.183 21.2775C112.389 21.2777 112.586 21.3597 112.731 21.5055C112.876 21.6512 112.958 21.8488 112.958 22.055V38.9029C112.958 39.1091 112.876 39.3067 112.731 39.4524C112.586 39.5982 112.389 39.6802 112.183 39.6804H95.7335C95.528 39.6802 95.3311 39.5982 95.1858 39.4524C95.0405 39.3067 94.9588 39.1091 94.9586 38.9029V22.055C94.9588 21.8488 95.0405 21.6512 95.1858 21.5055C95.3311 21.3597 95.528 21.2777 95.7335 21.2775H112.183M112.183 20.5H95.7335C95.3224 20.5 94.9282 20.6638 94.6376 20.9555C94.3469 21.2471 94.1836 21.6426 94.1836 22.055V38.9029C94.1836 39.3153 94.3469 39.7109 94.6376 40.0025C94.9282 40.2941 95.3224 40.4579 95.7335 40.4579H112.183C112.595 40.4579 112.989 40.2941 113.279 40.0025C113.57 39.7109 113.733 39.3153 113.733 38.9029V22.055C113.733 21.6426 113.57 21.2471 113.279 20.9554C112.989 20.6638 112.595 20.5 112.183 20.5V20.5Z" fill="#E6E6E6"/>
<path d="M109.618 25.7062H98.6428C98.5917 25.7065 98.5411 25.6967 98.4938 25.6773C98.4465 25.6579 98.4035 25.6293 98.3673 25.5932C98.331 25.5571 98.3023 25.5141 98.2826 25.4668C98.263 25.4195 98.2529 25.3687 98.2529 25.3175C98.2529 25.2662 98.263 25.2155 98.2826 25.1681C98.3023 25.1208 98.331 25.0779 98.3673 25.0417C98.4035 25.0056 98.4465 24.977 98.4938 24.9576C98.5411 24.9382 98.5917 24.9284 98.6428 24.9287H109.618C109.72 24.9293 109.818 24.9706 109.891 25.0434C109.963 25.1163 110.003 25.2148 110.003 25.3175C110.003 25.4201 109.963 25.5187 109.891 25.5915C109.818 25.6643 109.72 25.7056 109.618 25.7062H109.618Z" fill="#62B0E5"/>
<path d="M109.618 28.4589H98.6428C98.5917 28.4592 98.5411 28.4494 98.4938 28.43C98.4465 28.4106 98.4035 28.382 98.3673 28.3459C98.331 28.3097 98.3023 28.2668 98.2826 28.2195C98.263 28.1721 98.2529 28.1214 98.2529 28.0701C98.2529 28.0189 98.263 27.9681 98.2826 27.9208C98.3023 27.8735 98.331 27.8305 98.3673 27.7944C98.4035 27.7583 98.4465 27.7297 98.4938 27.7103C98.5411 27.6909 98.5917 27.6811 98.6428 27.6814H109.618C109.72 27.682 109.818 27.7233 109.891 27.7961C109.963 27.8689 110.003 27.9675 110.003 28.0701C110.003 28.1728 109.963 28.2713 109.891 28.3442C109.818 28.417 109.72 28.4582 109.618 28.4589H109.618Z" fill="#62B0E5"/>
<path d="M109.618 31.2118H98.6428C98.5917 31.2121 98.5411 31.2023 98.4938 31.1829C98.4465 31.1635 98.4035 31.1349 98.3673 31.0988C98.331 31.0627 98.3023 31.0197 98.2826 30.9724C98.263 30.9251 98.2529 30.8743 98.2529 30.8231C98.2529 30.7718 98.263 30.7211 98.2826 30.6738C98.3023 30.6264 98.331 30.5835 98.3673 30.5473C98.4035 30.5112 98.4465 30.4826 98.4938 30.4632C98.5411 30.4438 98.5917 30.434 98.6428 30.4343H109.618C109.72 30.435 109.818 30.4762 109.891 30.549C109.963 30.6219 110.003 30.7204 110.003 30.8231C110.003 30.9258 109.963 31.0243 109.891 31.0971C109.818 31.1699 109.72 31.2112 109.618 31.2118H109.618Z" fill="#62B0E5"/>
<path d="M109.618 33.9647H98.6428C98.5917 33.9651 98.5411 33.9552 98.4938 33.9358C98.4465 33.9164 98.4035 33.8879 98.3673 33.8517C98.331 33.8156 98.3023 33.7726 98.2826 33.7253C98.263 33.678 98.2529 33.6273 98.2529 33.576C98.2529 33.5247 98.263 33.474 98.2826 33.4267C98.3023 33.3794 98.331 33.3364 98.3673 33.3003C98.4035 33.2641 98.4465 33.2356 98.4938 33.2162C98.5411 33.1968 98.5917 33.1869 98.6428 33.1873H109.618C109.72 33.1879 109.818 33.2291 109.891 33.302C109.963 33.3748 110.003 33.4733 110.003 33.576C110.003 33.6787 109.963 33.7772 109.891 33.85C109.818 33.9229 109.72 33.9641 109.618 33.9647H109.618Z" fill="#62B0E5"/>
<path d="M109.618 36.7174H98.6424C98.5396 36.7174 98.441 36.6765 98.3684 36.6036C98.2957 36.5307 98.2549 36.4318 98.2549 36.3287C98.2549 36.2256 98.2957 36.1267 98.3684 36.0538C98.441 35.9809 98.5396 35.9399 98.6424 35.9399H109.618C109.72 35.9399 109.819 35.9809 109.892 36.0538C109.964 36.1267 110.005 36.2256 110.005 36.3287C110.005 36.4318 109.964 36.5307 109.892 36.6036C109.819 36.6765 109.72 36.7174 109.618 36.7174H109.618Z" fill="#62B0E5"/>
<path d="M168.095 53.6723C168.3 53.6725 168.497 53.7545 168.642 53.9002C168.788 54.046 168.869 54.2436 168.87 54.4497V71.2977C168.869 71.5038 168.788 71.7014 168.642 71.8472C168.497 71.993 168.3 72.0749 168.095 72.0752H151.645C151.439 72.0749 151.242 71.993 151.097 71.8472C150.952 71.7014 150.87 71.5038 150.87 71.2977V54.4498C150.87 54.2436 150.952 54.046 151.097 53.9003C151.242 53.7545 151.439 53.6725 151.645 53.6723H168.095M168.095 52.8948H151.645C151.234 52.8948 150.839 53.0586 150.549 53.3502C150.258 53.6419 150.095 54.0374 150.095 54.4498V71.2977C150.095 71.7101 150.258 72.1057 150.549 72.3973C150.839 72.6889 151.234 72.8527 151.645 72.8527H168.095C168.506 72.8527 168.9 72.6889 169.191 72.3973C169.481 72.1057 169.645 71.7101 169.645 71.2977V54.4498C169.645 54.0373 169.481 53.6418 169.191 53.3502C168.9 53.0586 168.506 52.8948 168.095 52.8948V52.8948Z" fill="#62B0E5"/>
<path d="M165.529 58.1007H154.554C154.503 58.101 154.452 58.0912 154.405 58.0718C154.358 58.0524 154.315 58.0238 154.278 57.9877C154.242 57.9516 154.213 57.9086 154.194 57.8613C154.174 57.814 154.164 57.7632 154.164 57.712C154.164 57.6607 154.174 57.61 154.194 57.5627C154.213 57.5154 154.242 57.4724 154.278 57.4363C154.315 57.4001 154.358 57.3716 154.405 57.3522C154.452 57.3328 154.503 57.3229 154.554 57.3232H165.529C165.632 57.3239 165.73 57.3651 165.802 57.438C165.874 57.5108 165.914 57.6093 165.914 57.712C165.914 57.8147 165.874 57.9132 165.802 57.986C165.73 58.0589 165.632 58.1001 165.529 58.1007Z" fill="#62B0E5"/>
<path d="M165.529 60.8537H154.554C154.451 60.8537 154.352 60.8127 154.28 60.7398C154.207 60.6669 154.166 60.568 154.166 60.4649C154.166 60.3618 154.207 60.2629 154.28 60.19C154.352 60.1171 154.451 60.0762 154.554 60.0762H165.529C165.632 60.0762 165.73 60.1171 165.803 60.19C165.875 60.2629 165.916 60.3618 165.916 60.4649C165.916 60.568 165.875 60.6669 165.803 60.7398C165.73 60.8127 165.632 60.8537 165.529 60.8537Z" fill="#62B0E5"/>
<path d="M165.529 63.6066H154.553C154.502 63.6068 154.452 63.597 154.405 63.5776C154.357 63.5581 154.314 63.5295 154.278 63.4934C154.242 63.4573 154.213 63.4143 154.194 63.3671C154.174 63.3198 154.164 63.2691 154.164 63.2178C154.164 63.1666 154.174 63.1159 154.194 63.0686C154.213 63.0213 154.242 62.9784 154.278 62.9423C154.314 62.9061 154.357 62.8776 154.405 62.8581C154.452 62.8387 154.502 62.8288 154.553 62.8291H165.529C165.631 62.8297 165.729 62.871 165.801 62.9438C165.873 63.0166 165.914 63.1151 165.914 63.2178C165.914 63.3205 165.873 63.419 165.801 63.4919C165.729 63.5647 165.631 63.6059 165.529 63.6066Z" fill="#62B0E5"/>
<path d="M165.529 66.3593H154.554C154.503 66.3596 154.452 66.3498 154.405 66.3304C154.358 66.311 154.315 66.2824 154.278 66.2463C154.242 66.2101 154.213 66.1672 154.194 66.1198C154.174 66.0725 154.164 66.0218 154.164 65.9705C154.164 65.9193 154.174 65.8685 154.194 65.8212C154.213 65.7739 154.242 65.7309 154.278 65.6948C154.315 65.6587 154.358 65.6301 154.405 65.6107C154.452 65.5913 154.503 65.5815 154.554 65.5818H165.529C165.632 65.5824 165.73 65.6237 165.802 65.6965C165.874 65.7693 165.914 65.8678 165.914 65.9705C165.914 66.0732 165.874 66.1717 165.802 66.2446C165.73 66.3174 165.632 66.3586 165.529 66.3593Z" fill="#62B0E5"/>
<path d="M165.529 69.1122H154.554C154.503 69.1125 154.452 69.1027 154.405 69.0833C154.358 69.0639 154.315 69.0353 154.278 68.9992C154.242 68.9631 154.213 68.9201 154.194 68.8728C154.174 68.8255 154.164 68.7747 154.164 68.7235C154.164 68.6722 154.174 68.6215 154.194 68.5741C154.213 68.5268 154.242 68.4839 154.278 68.4477C154.315 68.4116 154.358 68.383 154.405 68.3636C154.452 68.3442 154.503 68.3344 154.554 68.3347H165.529C165.632 68.3354 165.73 68.3766 165.802 68.4494C165.874 68.5223 165.914 68.6208 165.914 68.7235C165.914 68.8262 165.874 68.9247 165.802 68.9975C165.73 69.0703 165.632 69.1116 165.529 69.1122Z" fill="#62B0E5"/>
<path d="M84.3067 40.4579H67.426C66.9695 40.4574 66.5318 40.2752 66.209 39.9513C65.8862 39.6275 65.7046 39.1884 65.7041 38.7304V26.6117C65.7046 26.1537 65.8862 25.7146 66.209 25.3907C66.5318 25.0668 66.9694 24.8846 67.426 24.884H84.3067C84.7633 24.8845 85.201 25.0667 85.5238 25.3906C85.8467 25.7145 86.0283 26.1537 86.0288 26.6117V38.7304C86.0282 39.1884 85.8466 39.6275 85.5238 39.9514C85.2009 40.2752 84.7632 40.4574 84.3067 40.4579ZM67.426 25.6615C67.1749 25.6618 66.9342 25.7621 66.7567 25.9402C66.5792 26.1183 66.4793 26.3598 66.4791 26.6117V38.7304C66.4793 38.9823 66.5792 39.2238 66.7567 39.4019C66.9342 39.58 67.1749 39.6801 67.426 39.6804H84.3067C84.5578 39.6802 84.7985 39.58 84.9761 39.4019C85.1536 39.2238 85.2535 38.9823 85.2538 38.7304V26.6117C85.2535 26.3598 85.1536 26.1183 84.9761 25.9402C84.7985 25.762 84.5578 25.6618 84.3067 25.6615H67.426Z" fill="#E6E6E6"/>
<path d="M81.3546 30.307H70.3792C70.2769 30.3064 70.1789 30.2652 70.1068 30.1923C70.0346 30.1195 69.9941 30.021 69.9941 29.9183C69.9941 29.8156 70.0346 29.7171 70.1068 29.6442C70.1789 29.5714 70.2769 29.5302 70.3792 29.5295H81.3546C81.4056 29.5292 81.4563 29.5391 81.5036 29.5585C81.5508 29.5778 81.5938 29.6064 81.6301 29.6426C81.6663 29.6787 81.6951 29.7217 81.7147 29.769C81.7343 29.8163 81.7444 29.867 81.7444 29.9183C81.7444 29.9695 81.7343 30.0203 81.7147 30.0676C81.6951 30.1149 81.6663 30.1579 81.6301 30.194C81.5938 30.2301 81.5508 30.2587 81.5036 30.2781C81.4563 30.2975 81.4056 30.3073 81.3546 30.307Z" fill="#62B0E5"/>
<path d="M81.3546 33.0597H70.3792C70.2769 33.0591 70.1789 33.0178 70.1068 32.945C70.0346 32.8722 69.9941 32.7737 69.9941 32.671C69.9941 32.5683 70.0346 32.4698 70.1068 32.3969C70.1789 32.3241 70.2769 32.2829 70.3792 32.2822H81.3546C81.4056 32.2819 81.4563 32.2917 81.5036 32.3111C81.5508 32.3305 81.5938 32.3591 81.6301 32.3952C81.6663 32.4314 81.6951 32.4743 81.7147 32.5217C81.7343 32.569 81.7444 32.6197 81.7444 32.671C81.7444 32.7222 81.7343 32.773 81.7147 32.8203C81.6951 32.8676 81.6663 32.9106 81.6301 32.9467C81.5938 32.9828 81.5508 33.0114 81.5036 33.0308C81.4563 33.0502 81.4056 33.06 81.3546 33.0597Z" fill="#62B0E5"/>
<path d="M81.3546 35.8126H70.3792C70.2769 35.812 70.1789 35.7708 70.1068 35.6979C70.0346 35.6251 69.9941 35.5266 69.9941 35.4239C69.9941 35.3212 70.0346 35.2227 70.1068 35.1499C70.1789 35.077 70.2769 35.0358 70.3792 35.0352H81.3546C81.4056 35.0348 81.4563 35.0447 81.5036 35.0641C81.5508 35.0835 81.5938 35.112 81.6301 35.1482C81.6663 35.1843 81.6951 35.2273 81.7147 35.2746C81.7343 35.3219 81.7444 35.3726 81.7444 35.4239C81.7444 35.4752 81.7343 35.5259 81.7147 35.5732C81.6951 35.6205 81.6663 35.6635 81.6301 35.6996C81.5938 35.7358 81.5508 35.7643 81.5036 35.7837C81.4563 35.8031 81.4056 35.813 81.3546 35.8126Z" fill="#62B0E5"/>
<path d="M140.32 47.1732L124.107 42.4561C123.669 42.3281 123.299 42.0308 123.079 41.6295C122.859 41.2283 122.806 40.7558 122.933 40.3158L126.297 28.6767C126.425 28.237 126.721 27.8659 127.121 27.6451C127.521 27.4242 127.992 27.3715 128.431 27.4985L144.643 32.2156C145.082 32.3437 145.452 32.641 145.672 33.0423C145.892 33.4436 145.944 33.9161 145.818 34.3562L142.453 45.9953C142.326 46.435 142.029 46.806 141.629 47.0268C141.229 47.2477 140.758 47.3003 140.32 47.1732ZM128.215 28.2453C127.974 28.1754 127.715 28.2044 127.495 28.3259C127.275 28.4474 127.112 28.6514 127.041 28.8933L123.677 40.5324C123.608 40.7744 123.636 41.0342 123.757 41.2549C123.878 41.4755 124.082 41.639 124.323 41.7094L140.536 46.4265C140.777 46.4964 141.036 46.4675 141.256 46.346C141.476 46.2246 141.639 46.0206 141.709 45.7787L145.073 34.1396C145.143 33.8976 145.114 33.6377 144.993 33.417C144.872 33.1963 144.669 33.0328 144.427 32.9624L128.215 28.2453Z" fill="#E6E6E6"/>
<path d="M140.302 36.5988L129.761 33.5319C129.663 33.503 129.58 33.4361 129.53 33.3459C129.481 33.2556 129.469 33.1494 129.498 33.0505C129.526 32.9516 129.593 32.8681 129.683 32.8184C129.773 32.7686 129.878 32.7567 129.977 32.7852L140.518 35.8521C140.617 35.8808 140.7 35.9477 140.75 36.038C140.799 36.1283 140.811 36.2347 140.782 36.3337C140.754 36.4328 140.687 36.5163 140.597 36.566C140.507 36.6157 140.401 36.6275 140.302 36.5988H140.302Z" fill="#62B0E5"/>
<path d="M139.538 39.2428L128.997 36.1759C128.948 36.1617 128.903 36.138 128.863 36.1061C128.823 36.0742 128.79 36.0347 128.766 35.99C128.741 35.9453 128.726 35.8961 128.72 35.8454C128.715 35.7947 128.719 35.7433 128.733 35.6943C128.747 35.6453 128.771 35.5995 128.803 35.5597C128.835 35.5198 128.874 35.4866 128.918 35.462C128.963 35.4374 129.012 35.4218 129.063 35.4162C129.113 35.4106 129.164 35.415 129.213 35.4292L139.754 38.4961C139.853 38.525 139.936 38.5919 139.985 38.6821C140.035 38.7724 140.046 38.8786 140.018 38.9775C139.989 39.0764 139.923 39.1599 139.833 39.2096C139.743 39.2594 139.637 39.2713 139.538 39.2428Z" fill="#62B0E5"/>
<path d="M138.774 41.8867L128.233 38.8198C128.134 38.7909 128.051 38.724 128.002 38.6337C127.953 38.5435 127.941 38.4372 127.969 38.3383C127.998 38.2394 128.065 38.156 128.154 38.1062C128.244 38.0565 128.35 38.0445 128.449 38.073L138.99 41.1399C139.088 41.1687 139.172 41.2355 139.221 41.3259C139.271 41.4162 139.283 41.5226 139.254 41.6216C139.225 41.7206 139.159 41.8042 139.069 41.8539C138.979 41.9036 138.873 41.9154 138.774 41.8867Z" fill="#62B0E5"/>
<path d="M246 168.768H75.958V169.5H246V168.768Z" fill="#E6E6E6"/>
<path d="M174.688 167.624H147.036L147.974 155.399H173.75L174.688 167.624Z" fill="#E6E6E6"/>
<path d="M176.562 166.213H145.63V169.035H176.562V166.213Z" fill="#E6E6E6"/>
<path d="M213.821 76.6401H108.137C107.391 76.6401 106.676 76.9374 106.149 77.4665C105.621 77.9955 105.325 78.7131 105.325 79.4613V144.114H216.633V79.4613C216.633 79.0909 216.561 78.724 216.419 78.3817C216.278 78.0394 216.071 77.7284 215.81 77.4665C215.549 77.2045 215.239 76.9967 214.897 76.8549C214.556 76.7131 214.191 76.6401 213.821 76.6401H213.821Z" fill="#3F3D56"/>
<path d="M105.325 144.114V154.694C105.325 155.064 105.398 155.431 105.539 155.773C105.681 156.115 105.888 156.426 106.149 156.688C106.41 156.95 106.72 157.158 107.061 157.3C107.402 157.442 107.768 157.515 108.137 157.515H213.821C214.567 157.515 215.282 157.218 215.81 156.688C216.337 156.159 216.633 155.442 216.633 154.694V144.114H105.325Z" fill="#E6E6E6"/>
<path d="M211.244 82.5178H110.949V138.942H211.244V82.5178Z" fill="#E6E6E6"/>
<path d="M161.096 153.518C162.649 153.518 163.908 152.255 163.908 150.697C163.908 149.139 162.649 147.876 161.096 147.876C159.543 147.876 158.284 149.139 158.284 150.697C158.284 152.255 159.543 153.518 161.096 153.518Z" fill="#3F3D56"/>
<path d="M114.077 84.9009C114.371 84.9009 114.61 84.6612 114.61 84.3655C114.61 84.0698 114.371 83.8301 114.077 83.8301C113.782 83.8301 113.543 84.0698 113.543 84.3655C113.543 84.6612 113.782 84.9009 114.077 84.9009Z" fill="white"/>
<path d="M116.102 84.9009C116.397 84.9009 116.636 84.6612 116.636 84.3655C116.636 84.0698 116.397 83.8301 116.102 83.8301C115.807 83.8301 115.568 84.0698 115.568 84.3655C115.568 84.6612 115.807 84.9009 116.102 84.9009Z" fill="white"/>
<path d="M118.127 84.9009C118.422 84.9009 118.661 84.6612 118.661 84.3655C118.661 84.0698 118.422 83.8301 118.127 83.8301C117.833 83.8301 117.594 84.0698 117.594 84.3655C117.594 84.6612 117.833 84.9009 118.127 84.9009Z" fill="white"/>
<path d="M208.353 86.1848H113.543V133.572H208.353V86.1848Z" fill="white"/>
<path d="M119.845 93.3926C119.756 93.3927 119.671 93.4281 119.608 93.4912C119.545 93.5542 119.51 93.6397 119.51 93.7288V110.726C119.51 110.816 119.545 110.901 119.608 110.964C119.671 111.027 119.756 111.063 119.845 111.063H139.41C139.499 111.063 139.584 111.027 139.647 110.964C139.71 110.901 139.745 110.816 139.745 110.726V93.7288C139.745 93.6397 139.71 93.5542 139.647 93.4912C139.584 93.4281 139.499 93.3927 139.41 93.3926H119.845Z" fill="#E6E6E6"/>
<path d="M151.259 93.4473C151.17 93.4473 151.085 93.4828 151.022 93.5458C150.959 93.6089 150.924 93.6944 150.924 93.7835V110.726C150.924 110.816 150.959 110.901 151.022 110.964C151.085 111.027 151.17 111.063 151.259 111.063H170.762C170.851 111.063 170.936 111.027 170.999 110.964C171.062 110.901 171.097 110.816 171.097 110.726V93.7835C171.097 93.6944 171.062 93.6089 170.999 93.5459C170.936 93.4828 170.851 93.4474 170.762 93.4473H151.259Z" fill="#E6E6E6"/>
<path d="M182.345 93.2698C182.256 93.2699 182.171 93.3054 182.108 93.3684C182.045 93.4314 182.01 93.5169 182.01 93.606V110.727C182.01 110.816 182.045 110.901 182.108 110.964C182.171 111.027 182.256 111.063 182.345 111.063H202.051C202.14 111.063 202.225 111.027 202.287 110.964C202.35 110.901 202.386 110.816 202.386 110.727V93.606C202.386 93.5169 202.35 93.4314 202.287 93.3684C202.225 93.3054 202.14 93.2699 202.051 93.2698H182.345Z" fill="#E6E6E6"/>
<path d="M120.202 119.477C120.019 119.477 119.843 119.55 119.713 119.681C119.584 119.811 119.511 119.988 119.511 120.172C119.511 120.356 119.584 120.533 119.713 120.663C119.843 120.793 120.019 120.867 120.202 120.867H138.598C138.781 120.867 138.957 120.793 139.087 120.663C139.217 120.533 139.289 120.356 139.289 120.172C139.289 119.988 139.217 119.811 139.087 119.681C138.957 119.55 138.781 119.477 138.598 119.477H120.202Z" fill="#E6E6E6"/>
<path d="M120.202 122.783C120.019 122.784 119.843 122.857 119.713 122.988C119.584 123.118 119.511 123.295 119.511 123.479C119.511 123.663 119.584 123.84 119.713 123.97C119.843 124.1 120.019 124.174 120.202 124.174H128.485C128.668 124.174 128.844 124.1 128.974 123.97C129.104 123.84 129.177 123.663 129.177 123.479C129.177 123.295 129.104 123.118 128.974 122.988C128.844 122.857 128.668 122.784 128.485 122.783H120.202Z" fill="#62B0E5"/>
<path d="M151.954 119.477C151.771 119.477 151.595 119.55 151.465 119.681C151.336 119.811 151.263 119.988 151.263 120.172C151.263 120.356 151.336 120.533 151.465 120.663C151.595 120.793 151.771 120.867 151.954 120.867H170.35C170.533 120.867 170.709 120.793 170.839 120.663C170.969 120.533 171.041 120.356 171.041 120.172C171.041 119.988 170.969 119.811 170.839 119.681C170.709 119.55 170.533 119.477 170.35 119.477H151.954Z" fill="#E6E6E6"/>
<path d="M151.954 122.783C151.771 122.784 151.595 122.857 151.465 122.988C151.336 123.118 151.263 123.295 151.263 123.479C151.263 123.663 151.336 123.84 151.465 123.97C151.595 124.1 151.771 124.174 151.954 124.174H160.237C160.42 124.174 160.596 124.1 160.726 123.97C160.856 123.84 160.929 123.663 160.929 123.479C160.929 123.295 160.856 123.118 160.726 122.988C160.596 122.857 160.42 122.784 160.237 122.783H151.954Z" fill="#62B0E5"/>
<path d="M182.913 119.477C182.73 119.477 182.554 119.55 182.424 119.681C182.295 119.811 182.222 119.988 182.222 120.172C182.222 120.356 182.295 120.533 182.424 120.663C182.554 120.793 182.73 120.867 182.913 120.867H201.309C201.492 120.867 201.668 120.793 201.798 120.663C201.927 120.533 202 120.356 202 120.172C202 119.988 201.927 119.811 201.798 119.681C201.668 119.55 201.492 119.477 201.309 119.477H182.913Z" fill="#E6E6E6"/>
<path d="M120.202 116.061C120.019 116.061 119.843 116.135 119.713 116.265C119.584 116.395 119.511 116.572 119.511 116.756C119.511 116.94 119.584 117.117 119.713 117.247C119.843 117.378 120.019 117.451 120.202 117.451H138.598C138.781 117.451 138.957 117.378 139.087 117.247C139.217 117.117 139.289 116.94 139.289 116.756C139.289 116.572 139.217 116.395 139.087 116.265C138.957 116.135 138.781 116.061 138.598 116.061H120.202Z" fill="#E6E6E6"/>
<path d="M151.954 116.061C151.771 116.061 151.595 116.135 151.465 116.265C151.336 116.395 151.263 116.572 151.263 116.756C151.263 116.94 151.336 117.117 151.465 117.247C151.595 117.378 151.771 117.451 151.954 117.451H170.35C170.533 117.451 170.709 117.378 170.839 117.247C170.969 117.117 171.041 116.94 171.041 116.756C171.041 116.572 170.969 116.395 170.839 116.265C170.709 116.135 170.533 116.061 170.35 116.061H151.954Z" fill="#E6E6E6"/>
<path d="M182.913 116.061C182.73 116.061 182.554 116.135 182.424 116.265C182.295 116.395 182.222 116.572 182.222 116.756C182.222 116.94 182.295 117.117 182.424 117.247C182.554 117.378 182.73 117.451 182.913 117.451H201.309C201.492 117.451 201.668 117.378 201.798 117.247C201.927 117.117 202 116.94 202 116.756C202 116.572 201.927 116.395 201.798 116.265C201.668 116.135 201.492 116.061 201.309 116.061H182.913Z" fill="#E6E6E6"/>
<path d="M182.913 122.783C182.73 122.784 182.554 122.857 182.424 122.988C182.295 123.118 182.222 123.295 182.222 123.479C182.222 123.663 182.295 123.84 182.424 123.97C182.554 124.1 182.73 124.174 182.913 124.174H191.196C191.379 124.174 191.555 124.1 191.685 123.97C191.815 123.84 191.887 123.663 191.887 123.479C191.887 123.295 191.815 123.118 191.685 122.988C191.555 122.857 191.379 122.784 191.196 122.783H182.913Z" fill="#62B0E5"/>
</g>
<defs>
<clipPath id="clip0_564_81738">
<rect width="208" height="149" fill="white" transform="translate(38 20.5)"/>
</clipPath>
</defs>
</svg>
