<svg width="284" height="250" viewBox="0 0 284 250" fill="none" xmlns="http://www.w3.org/2000/svg">
<path d="M99.552 213.813H93.68C93.952 213.333 94.176 212.821 94.336 212.261L92.64 212.021C92.48 212.629 92.224 213.237 91.904 213.813H88.448V226.869H90.144V226.005H97.856V226.869H99.552V213.813ZM90.144 224.421V222.325H97.856V224.421H90.144ZM90.144 220.789V218.821H97.856V220.789H90.144ZM90.144 217.285V215.413H97.856V217.285H90.144ZM103.328 213.013V214.597H109.344V213.013H103.328ZM102.736 217.317V218.949H104.72C104.032 221.541 103.472 223.141 103.056 223.749C102.992 223.797 102.88 223.845 102.72 223.893L103.104 225.461C105.024 225.109 106.832 224.661 108.512 224.085C108.64 224.389 108.768 224.709 108.896 225.061L110.272 224.357C109.92 224.917 109.52 225.429 109.056 225.877L110.32 226.981C112.496 224.853 113.6 221.493 113.648 216.901V216.773H115.472C115.44 221.013 115.392 223.493 115.296 224.213C115.168 224.917 114.784 225.269 114.112 225.269C113.696 225.269 113.216 225.237 112.656 225.205L113.04 226.661C113.68 226.709 114.112 226.741 114.368 226.741C115.84 226.741 116.672 226.149 116.864 224.965C117.008 223.717 117.088 220.453 117.088 215.173H113.648V212.101H111.984V215.173H110.016V216.773H111.984V216.901C111.952 219.941 111.408 222.405 110.336 224.261C109.664 222.661 108.96 221.205 108.256 219.893L106.864 220.565C107.216 221.237 107.568 221.941 107.92 222.709C106.944 223.061 105.952 223.365 104.944 223.589C105.344 222.565 105.808 221.029 106.336 218.949H109.92V217.317H102.736ZM123.264 211.909C122.24 214.389 120.656 216.549 118.528 218.373L119.072 220.117C119.776 219.525 120.448 218.917 121.072 218.293V226.901H122.736V216.341C123.6 215.173 124.304 213.941 124.832 212.645L123.264 211.909ZM130.96 226.613C131.776 226.613 132.336 226.421 132.64 226.053C132.944 225.669 133.152 224.549 133.264 222.709L131.728 222.181C131.696 223.605 131.6 224.437 131.44 224.677C131.28 224.901 131.024 225.029 130.672 225.029H128.368C127.872 225.029 127.632 224.805 127.632 224.373V219.317C129.568 218.117 131.296 216.741 132.832 215.173L131.664 213.845C130.496 215.125 129.152 216.277 127.632 217.301V212.181H125.968V218.325C125.2 218.741 124.4 219.141 123.552 219.525L124.304 221.109C124.864 220.837 125.424 220.565 125.968 220.277V224.613C125.968 225.941 126.64 226.613 127.984 226.613H130.96ZM143.952 213.173V225.813H145.552V213.173H143.952ZM147.28 212.389V226.901H148.912V212.389H147.28ZM140.768 212.437V219.541C140.736 222.453 140.144 224.565 138.992 225.877L140.256 226.997C141.632 225.429 142.352 222.933 142.384 219.541V212.437H140.768ZM136.848 212.165L135.664 213.317C136.8 214.149 137.68 214.933 138.288 215.669L139.44 214.501C138.72 213.733 137.856 212.949 136.848 212.165ZM134.624 216.789V218.389H136.832V223.893C136.832 224.261 136.672 224.565 136.384 224.789L137.024 226.277C138.032 225.541 138.992 224.709 139.888 223.781L139.44 222.053C139.088 222.421 138.736 222.773 138.416 223.109V216.789H134.624ZM155.76 223.301C154.304 223.877 152.592 224.325 150.624 224.677L150.848 226.341C152.688 225.973 154.32 225.509 155.76 224.933V223.301ZM152.96 212.005C152.512 213.701 151.968 215.269 151.36 216.709C151.136 217.013 150.896 217.221 150.64 217.349L151.056 218.885C151.792 218.741 152.48 218.613 153.152 218.485C152.512 219.701 152 220.549 151.584 221.045C151.376 221.237 151.12 221.397 150.832 221.525L151.264 223.061C152.72 222.837 154.272 222.421 155.904 221.781V220.293C155.008 220.629 154.112 220.901 153.248 221.109C154.048 219.957 155.04 218.213 156.208 215.845L154.656 215.269L153.872 217.013L152.544 217.205C153.216 216.021 153.872 214.485 154.544 212.629L152.96 212.005ZM157.456 221.733C157.008 223.013 156.368 224.261 155.536 225.509L156.96 226.309C157.696 225.205 158.336 223.877 158.912 222.341L157.456 221.733ZM163.984 221.733L162.512 222.229C163.104 223.381 163.648 224.725 164.128 226.261L165.552 225.637C165.104 224.245 164.576 222.949 163.984 221.733ZM160.16 226.725C161.216 226.725 161.76 226.229 161.76 225.269V221.061H165.008V219.605H161.76V216.501H159.696C159.824 216.085 159.968 215.669 160.112 215.237H164.992V213.685H160.544C160.656 213.269 160.768 212.821 160.896 212.373L159.264 212.069C159.136 212.613 159.008 213.157 158.88 213.685H155.504V215.237H158.432C158.288 215.669 158.144 216.085 158.016 216.501H156.08V218.005H157.424C157.168 218.613 156.88 219.157 156.592 219.653L156.944 221.061H160.176V224.773C160.176 225.109 160 225.285 159.68 225.285L158.176 225.205L158.576 226.725H160.16ZM159.12 218.005H160.176V219.605H158.416C158.656 219.109 158.896 218.581 159.12 218.005ZM171.584 213.269V214.741H173.68V215.685H175.232V214.741H177.328V215.685H178.896V214.741H181.2V213.269H178.896V212.117H177.328V213.269H175.232V212.117H173.68V213.269H171.584ZM176.16 223.861C177.024 225.093 178.416 226.117 180.304 226.949L181.44 225.605C179.808 225.061 178.576 224.357 177.712 223.525H181.232V222.021H176.864C176.928 221.749 176.976 221.461 177.024 221.173H180.24V216.037H172.304V221.173H175.552C175.488 221.461 175.424 221.749 175.344 222.021H171.216V223.525H174.576C174.544 223.573 174.496 223.637 174.432 223.717C173.76 224.485 172.656 225.093 171.136 225.509L171.712 226.885C173.568 226.341 174.88 225.605 175.616 224.661C175.808 224.405 175.984 224.149 176.16 223.861ZM170.272 219.253C170.592 219.797 170.96 220.453 171.376 221.237L172.256 219.909C171.584 218.997 170.912 218.165 170.272 217.413V216.581H171.776V215.061H170.272V212.165H168.704V215.061H167.024V216.581H168.704V216.725C168.24 218.421 167.504 219.941 166.512 221.285L167.232 223.141C167.808 222.133 168.288 221.045 168.704 219.877V226.821H170.272V219.253ZM178.736 219.925H173.792V219.221H178.736V219.925ZM173.792 218.005V217.317H178.736V218.005H173.792ZM183.392 212.629V214.101H184.832V216.037H182.976V217.573H184.736C184.544 218.629 184.096 219.445 183.36 220.005L184.624 221.109C185.584 220.309 186.176 219.141 186.368 217.573H188.032V220.917H189.632V217.573H191.456V216.037H189.632V214.101H191.104V212.629H183.392ZM186.448 214.101H188.032V216.037H186.448V214.101ZM192.064 213.157V218.629H193.648V213.157H192.064ZM183.808 222.165V223.701H189.232V225.029H182.912V226.549H197.088V225.029H190.896V223.701H196.208V222.165H190.896V221.093H189.232V222.165H183.808ZM195.04 221.125C196.048 221.125 196.56 220.517 196.56 219.301V212.277H194.944V218.901C194.944 219.413 194.784 219.669 194.48 219.669C193.872 219.669 193.216 219.621 192.528 219.557L192.896 221.125H195.04Z" fill="#3693D1"/>
<path d="M180.098 41.4862L38 126.349L42.2735 133.617L184.372 48.7547L180.098 41.4862Z" fill="#F2F2F2"/>
<path d="M210.983 48.601L68.8848 133.463L73.1583 140.732L215.256 55.8695L210.983 48.601Z" fill="#F2F2F2"/>
<path d="M238.337 56.3827L96.2393 141.245L100.513 148.514L242.611 63.6512L238.337 56.3827Z" fill="#F2F2F2"/>
<path d="M130.556 140.966C155.126 140.966 175.045 120.891 175.045 96.1274C175.045 71.3639 155.126 51.2891 130.556 51.2891C105.985 51.2891 86.0664 71.3639 86.0664 96.1274C86.0664 120.891 105.985 140.966 130.556 140.966Z" fill="white"/>
<path d="M85.7354 96.1274C85.7354 71.2196 105.842 50.9556 130.556 50.9556C155.269 50.9556 175.376 71.2196 175.376 96.1274C175.376 121.035 155.269 141.299 130.556 141.299C105.842 141.299 85.7354 121.035 85.7354 96.1274ZM86.3972 96.1274C86.3972 120.667 106.207 140.632 130.556 140.632C154.905 140.632 174.714 120.667 174.714 96.1274C174.714 71.5874 154.905 51.6226 130.556 51.6226C106.207 51.6226 86.3972 71.5874 86.3972 96.1274H86.3972Z" fill="#3F3D56"/>
<path d="M122.625 96.3223C122.625 94.7414 123.09 93.1961 123.962 91.8816C124.833 90.5672 126.072 89.5427 127.521 88.9378C128.97 88.3328 130.564 88.1745 132.103 88.4829C133.641 88.7913 135.054 89.5526 136.164 90.6704C137.273 91.7883 138.028 93.2125 138.334 94.7629C138.64 96.3134 138.483 97.9205 137.883 99.381C137.282 100.842 136.266 102.09 134.962 102.968C133.658 103.846 132.124 104.315 130.556 104.315C128.452 104.315 126.435 103.473 124.948 101.974C123.461 100.475 122.625 98.4421 122.625 96.3223V96.3223ZM130.556 88.7193C128.556 88.7215 126.638 89.5233 125.224 90.9486C123.81 92.374 123.014 94.3065 123.012 96.3223C123.012 97.826 123.454 99.296 124.283 100.546C125.112 101.797 126.29 102.771 127.669 103.347C129.047 103.922 130.564 104.073 132.027 103.779C133.491 103.486 134.835 102.762 135.89 101.698C136.945 100.635 137.664 99.2804 137.955 97.8056C138.246 96.3307 138.096 94.802 137.525 93.4127C136.954 92.0235 135.987 90.836 134.747 90.0006C133.506 89.1652 132.048 88.7193 130.556 88.7193Z" fill="#3F3D56"/>
<path d="M115.468 96.3222C115.468 93.3148 116.353 90.3748 118.011 87.8742C119.668 85.3736 122.025 83.4246 124.782 82.2737C127.539 81.1228 130.572 80.8217 133.499 81.4084C136.426 81.9951 139.114 83.4434 141.224 85.57C143.334 87.6966 144.771 90.406 145.353 93.3557C145.935 96.3054 145.637 99.3628 144.495 102.141C143.353 104.92 141.419 107.295 138.938 108.966C136.457 110.636 133.539 111.528 130.555 111.528C128.574 111.528 126.612 111.135 124.782 110.371C122.951 109.607 121.288 108.487 119.887 107.075C118.486 105.663 117.374 103.986 116.616 102.141C115.858 100.296 115.468 98.3191 115.468 96.3222V96.3222ZM130.555 81.5061C127.648 81.5061 124.806 82.3751 122.388 84.0031C119.971 85.6311 118.086 87.9451 116.974 90.6524C115.861 93.3597 115.57 96.3387 116.137 99.2127C116.704 102.087 118.104 104.727 120.16 106.799C122.216 108.871 124.836 110.282 127.687 110.854C130.539 111.425 133.495 111.132 136.181 110.011C138.867 108.889 141.163 106.99 142.779 104.554C144.394 102.117 145.256 99.2526 145.256 96.3223C145.252 92.3941 143.702 88.6281 140.946 85.8505C138.19 83.0729 134.453 81.5105 130.555 81.5061Z" fill="#CCCCCC"/>
<path d="M101.154 96.3222C101.154 90.4615 102.879 84.7324 106.109 79.8594C109.34 74.9864 113.932 71.1884 119.304 68.9456C124.677 66.7028 130.589 66.116 136.292 67.2593C141.995 68.4027 147.234 71.2249 151.346 75.3691C155.458 79.5132 158.258 84.7932 159.393 90.5413C160.527 96.2894 159.945 102.247 157.719 107.662C155.494 113.077 151.726 117.705 146.891 120.961C142.055 124.217 136.371 125.955 130.556 125.955C122.761 125.946 115.288 122.821 109.776 117.266C104.264 111.71 101.163 104.178 101.154 96.3222ZM130.556 67.0799C124.817 67.0799 119.208 68.7949 114.436 72.0081C109.665 75.2213 105.946 79.7883 103.75 85.1317C101.554 90.475 100.979 96.3547 102.099 102.027C103.218 107.7 105.982 112.91 110.039 117C114.097 121.089 119.267 123.874 124.895 125.003C130.524 126.131 136.358 125.552 141.659 123.339C146.961 121.125 151.493 117.377 154.681 112.568C157.869 107.76 159.571 102.106 159.571 96.3223C159.562 88.5694 156.502 81.1366 151.063 75.6544C145.623 70.1723 138.248 67.0886 130.556 67.0799Z" fill="#CCCCCC"/>
<path d="M130.556 99.8314C132.586 99.8314 134.231 98.1731 134.231 96.1274C134.231 94.0817 132.586 92.4233 130.556 92.4233C128.526 92.4233 126.881 94.0817 126.881 96.1274C126.881 98.1731 128.526 99.8314 130.556 99.8314Z" fill="#62B0E5"/>
<path d="M121.078 110.554C123.107 110.554 124.753 108.895 124.753 106.85C124.753 104.804 123.107 103.146 121.078 103.146C119.048 103.146 117.402 104.804 117.402 106.85C117.402 108.895 119.048 110.554 121.078 110.554Z" fill="#62B0E5"/>
<path d="M158.055 108.994C160.085 108.994 161.73 107.336 161.73 105.29C161.73 103.244 160.085 101.586 158.055 101.586C156.025 101.586 154.38 103.244 154.38 105.29C154.38 107.336 156.025 108.994 158.055 108.994Z" fill="#62B0E5"/>
<path d="M130.556 97.8819C131.518 97.8819 132.297 97.0963 132.297 96.1273C132.297 95.1583 131.518 94.3728 130.556 94.3728C129.595 94.3728 128.815 95.1583 128.815 96.1273C128.815 97.0963 129.595 97.8819 130.556 97.8819Z" fill="#2F2E41"/>
<path d="M158.055 107.044C159.017 107.044 159.796 106.259 159.796 105.29C159.796 104.321 159.017 103.535 158.055 103.535C157.094 103.535 156.314 104.321 156.314 105.29C156.314 106.259 157.094 107.044 158.055 107.044Z" fill="#2F2E41"/>
<path d="M121.078 108.799C122.039 108.799 122.819 108.013 122.819 107.044C122.819 106.075 122.039 105.29 121.078 105.29C120.116 105.29 119.337 106.075 119.337 107.044C119.337 108.013 120.116 108.799 121.078 108.799Z" fill="#2F2E41"/>
<path d="M49.3141 48.6573C50.2756 48.6573 51.055 47.8717 51.055 46.9027C51.055 45.9337 50.2756 45.1482 49.3141 45.1482C48.3527 45.1482 47.5732 45.9337 47.5732 46.9027C47.5732 47.8717 48.3527 48.6573 49.3141 48.6573Z" fill="#62B0E5"/>
<path d="M130.459 47.0003H54.0537V46.6104H130.846V96.1016H130.459V47.0003Z" fill="#2F2E41"/>
<path d="M44.2852 46.9027C44.2852 45.9002 44.5801 44.9202 45.1327 44.0867C45.6853 43.2531 46.4708 42.6035 47.3898 42.2198C48.3087 41.8362 49.32 41.7358 50.2955 41.9314C51.2711 42.127 52.1672 42.6097 52.8706 43.3186C53.5739 44.0274 54.0529 44.9306 54.247 45.9138C54.441 46.897 54.3414 47.9162 53.9608 48.8424C53.5801 49.7685 52.9355 50.5602 52.1085 51.1171C51.2814 51.6741 50.3091 51.9714 49.3144 51.9714C48.6539 51.9714 48 51.8403 47.3898 51.5855C46.7796 51.3308 46.2252 50.9575 45.7582 50.4868C45.2912 50.0161 44.9207 49.4573 44.668 48.8424C44.4152 48.2274 44.2852 47.5683 44.2852 46.9027ZM49.3144 42.2239C48.3962 42.2239 47.4987 42.4983 46.7352 43.0124C45.9718 43.5265 45.3768 44.2572 45.0254 45.1122C44.674 45.9671 44.5821 46.9079 44.7612 47.8155C44.9403 48.7231 45.3825 49.5567 46.0317 50.2111C46.681 50.8654 47.5082 51.311 48.4087 51.4916C49.3092 51.6721 50.2427 51.5794 51.0909 51.2253C51.9392 50.8712 52.6643 50.2715 53.1744 49.5021C53.6845 48.7326 53.9567 47.8281 53.9567 46.9027C53.9553 45.6622 53.4658 44.473 52.5955 43.5959C51.7252 42.7187 50.5452 42.2253 49.3144 42.2239Z" fill="#2F2E41"/>
<path d="M60.9206 150.742C61.882 150.742 62.6615 149.957 62.6615 148.988C62.6615 148.019 61.882 147.233 60.9206 147.233C59.9591 147.233 59.1797 148.019 59.1797 148.988C59.1797 149.957 59.9591 150.742 60.9206 150.742Z" fill="#62B0E5"/>
<path d="M55.8916 148.988C55.8916 147.986 56.1866 147.006 56.7392 146.172C57.2918 145.339 58.0772 144.689 58.9962 144.305C59.9152 143.922 60.9264 143.821 61.902 144.017C62.8775 144.212 63.7737 144.695 64.477 145.404C65.1804 146.113 65.6594 147.016 65.8534 147.999C66.0475 148.982 65.9479 150.002 65.5672 150.928C65.1866 151.854 64.542 152.646 63.7149 153.203C62.8879 153.76 61.9155 154.057 60.9208 154.057C59.587 154.057 58.3078 153.523 57.3646 152.572C56.4215 151.622 55.8916 150.332 55.8916 148.988ZM60.9208 144.309C60.0026 144.309 59.1051 144.584 58.3417 145.098C57.5782 145.612 56.9832 146.343 56.6318 147.198C56.2805 148.053 56.1885 148.993 56.3677 149.901C56.5468 150.808 56.9889 151.642 57.6382 152.297C58.2874 152.951 59.1146 153.396 60.0151 153.577C60.9157 153.758 61.8491 153.665 62.6974 153.311C63.5456 152.957 64.2707 152.357 64.7808 151.588C65.2909 150.818 65.5632 149.913 65.5632 148.988C65.5618 147.748 65.0722 146.558 64.2019 145.681C63.3316 144.804 62.1516 144.311 60.9208 144.309Z" fill="#2F2E41"/>
<path d="M212.023 86.3799C212.985 86.3799 213.764 85.5944 213.764 84.6254C213.764 83.6564 212.985 82.8708 212.023 82.8708C211.062 82.8708 210.282 83.6564 210.282 84.6254C210.282 85.5944 211.062 86.3799 212.023 86.3799Z" fill="#62B0E5"/>
<path d="M206.993 84.6253C206.993 83.6228 207.288 82.6429 207.841 81.8093C208.393 80.9758 209.179 80.3261 210.098 79.9425C211.017 79.5588 212.028 79.4585 213.004 79.654C213.979 79.8496 214.875 80.3324 215.579 81.0412C216.282 81.7501 216.761 82.6532 216.955 83.6365C217.149 84.6197 217.049 85.6388 216.669 86.565C216.288 87.4912 215.644 88.2828 214.816 88.8398C213.989 89.3967 213.017 89.694 212.022 89.694C211.362 89.694 210.708 89.5629 210.098 89.3082C209.488 89.0534 208.933 88.6801 208.466 88.2094C207.999 87.7388 207.629 87.18 207.376 86.565C207.123 85.9501 206.993 85.291 206.993 84.6253ZM212.022 79.9466C210.792 79.948 209.612 80.4414 208.741 81.3185C207.871 82.1956 207.381 83.3849 207.38 84.6253C207.38 85.5507 207.652 86.4553 208.162 87.2247C208.673 87.9941 209.398 88.5938 210.246 88.948C211.094 89.3021 212.028 89.3947 212.928 89.2142C213.829 89.0337 214.656 88.5881 215.305 87.9337C215.954 87.2794 216.396 86.4457 216.576 85.5381C216.755 84.6305 216.663 83.6898 216.311 82.8348C215.96 81.9799 215.365 81.2492 214.602 80.7351C213.838 80.2209 212.941 79.9465 212.022 79.9465V79.9466Z" fill="#2F2E41"/>
<path d="M157.861 85.2131L207.183 84.4304L207.189 84.8201L158.248 85.597V105.29H157.861V85.2131Z" fill="#2F2E41"/>
<path d="M65.7568 148.793H120.885V107.044H121.272V149.183H65.7568V148.793Z" fill="#2F2E41"/>
<path d="M59.9533 56.0654H38.6758V57.4301H59.9533V56.0654Z" fill="#CCCCCC"/>
<path d="M59.9533 59.9644H38.6758V61.329H59.9533V59.9644Z" fill="#CCCCCC"/>
<path d="M59.9533 63.8633H38.6758V65.2279H59.9533V63.8633Z" fill="#CCCCCC"/>
<path d="M71.5597 158.151H50.2822V159.515H71.5597V158.151Z" fill="#CCCCCC"/>
<path d="M71.5597 162.05H50.2822V163.414H71.5597V162.05Z" fill="#CCCCCC"/>
<path d="M71.5597 165.949H50.2822V167.313H71.5597V165.949Z" fill="#CCCCCC"/>
<path d="M222.661 93.9829H201.384V95.3476H222.661V93.9829Z" fill="#CCCCCC"/>
<path d="M222.661 97.8818H201.384V99.2465H222.661V97.8818Z" fill="#CCCCCC"/>
<path d="M222.661 101.781H201.384V103.145H222.661V101.781Z" fill="#CCCCCC"/>
</svg>
