<svg width="196" height="169" viewBox="0 0 196 169" fill="none" xmlns="http://www.w3.org/2000/svg">
<g clip-path="url(#clip0_567_98308)">
<path d="M14.7987 154.34C15.9269 154.737 17.1381 154.836 18.3158 154.629C19.4935 154.421 20.5979 153.914 21.5226 153.156C23.8776 151.179 24.6161 147.924 25.2168 144.908L26.9938 135.989L23.2735 138.551C20.5978 140.393 17.8621 142.295 16.0097 144.963C14.1573 147.631 13.3492 151.274 14.8371 154.161" fill="#E6E6E6"/>
<path d="M15.3738 165.759C14.9056 162.348 14.4238 158.892 14.753 155.444C15.0448 152.382 15.9791 149.391 17.8812 146.938C18.8908 145.639 20.1193 144.526 21.5115 143.649C21.8744 143.42 22.2085 143.995 21.8472 144.223C19.4382 145.745 17.575 147.993 16.5261 150.643C15.3676 153.589 15.1816 156.801 15.3811 159.931C15.5018 161.824 15.7581 163.704 16.0155 165.582C16.0358 165.667 16.0231 165.757 15.98 165.832C15.9368 165.908 15.8665 165.965 15.7831 165.991C15.6981 166.014 15.6074 166.003 15.5309 165.959C15.4543 165.916 15.3979 165.844 15.3741 165.759L15.3738 165.759Z" fill="#F2F2F2"/>
<path d="M18.7441 160.285C19.2279 161.021 19.8929 161.619 20.6752 162.023C21.4574 162.427 22.3305 162.623 23.2103 162.591C25.4718 162.484 27.3563 160.906 29.0526 159.408L34.0711 154.977L30.7498 154.818C28.3613 154.704 25.9112 154.596 23.6362 155.334C21.3612 156.071 19.2632 157.843 18.8472 160.198" fill="#E6E6E6"/>
<path d="M14.0496 167.72C16.304 163.731 18.9186 159.298 23.591 157.881C24.89 157.488 26.2521 157.348 27.604 157.467C28.0301 157.504 27.9237 158.16 27.4984 158.124C25.2323 157.936 22.9706 158.534 21.0941 159.818C19.2882 161.047 17.8821 162.756 16.6922 164.568C15.9632 165.678 15.3103 166.835 14.6573 167.991C14.4487 168.36 13.8385 168.094 14.0496 167.72Z" fill="#F2F2F2"/>
<path d="M194.432 118.478H70.1457C69.7628 118.478 69.3956 118.325 69.1248 118.055C68.854 117.784 68.7017 117.417 68.7012 117.034V1.61254C68.7017 1.22957 68.854 0.862426 69.1248 0.591626C69.3956 0.320826 69.7628 0.168469 70.1457 0.167969H194.432C194.815 0.168469 195.182 0.320826 195.453 0.591626C195.724 0.862426 195.876 1.22957 195.877 1.61254V117.033C195.876 117.416 195.724 117.784 195.453 118.054C195.182 118.325 194.815 118.478 194.432 118.478V118.478Z" fill="white"/>
<path d="M194.432 118.478H70.1457C69.7628 118.478 69.3956 118.325 69.1248 118.055C68.854 117.784 68.7017 117.417 68.7012 117.034V1.61254C68.7017 1.22957 68.854 0.862426 69.1248 0.591626C69.3956 0.320826 69.7628 0.168469 70.1457 0.167969H194.432C194.815 0.168469 195.182 0.320826 195.453 0.591626C195.724 0.862426 195.876 1.22957 195.877 1.61254V117.033C195.876 117.416 195.724 117.784 195.453 118.054C195.182 118.325 194.815 118.478 194.432 118.478V118.478ZM70.1457 0.744658C69.9162 0.745156 69.6962 0.836555 69.534 0.99885C69.3717 1.16115 69.2803 1.38112 69.2798 1.61064V117.033C69.2803 117.263 69.3717 117.483 69.534 117.645C69.6962 117.808 69.9162 117.899 70.1457 117.899H194.432C194.662 117.899 194.882 117.808 195.044 117.645C195.206 117.483 195.298 117.263 195.298 117.033V1.61254C195.298 1.38302 195.206 1.16304 195.044 1.00075C194.882 0.838451 194.662 0.747052 194.432 0.746553L70.1457 0.744658Z" fill="#CACACA"/>
<path d="M128.874 30.1602C128.614 30.1606 128.365 30.2641 128.181 30.448C127.998 30.6319 127.895 30.8811 127.895 31.1409C127.895 31.4007 127.998 31.6499 128.181 31.8338C128.365 32.0176 128.614 32.1212 128.874 32.1216H182.688C182.948 32.1212 183.197 32.0176 183.38 31.8338C183.564 31.6499 183.667 31.4007 183.667 31.1409C183.667 30.8811 183.564 30.6319 183.38 30.448C183.197 30.2641 182.948 30.1606 182.688 30.1602H128.874Z" fill="#E4E4E4"/>
<path d="M128.875 36.0459C128.615 36.0465 128.366 36.1501 128.183 36.334C127.999 36.5178 127.896 36.7669 127.896 37.0266C127.896 37.2863 127.999 37.5354 128.183 37.7193C128.366 37.9031 128.615 38.0067 128.875 38.0073H156.348C156.608 38.0067 156.857 37.9031 157.04 37.7193C157.223 37.5354 157.326 37.2863 157.326 37.0266C157.326 36.7669 157.223 36.5178 157.04 36.334C156.857 36.1501 156.608 36.0465 156.348 36.0459H128.875Z" fill="#E4E4E4"/>
<path d="M81.8397 67.6924C81.58 67.693 81.3311 67.7966 81.1477 67.9805C80.9643 68.1643 80.8613 68.4134 80.8613 68.6731C80.8613 68.9328 80.9643 69.1819 81.1477 69.3657C81.3311 69.5496 81.58 69.6532 81.8397 69.6538H182.742C183.001 69.6532 183.25 69.5496 183.434 69.3657C183.617 69.1819 183.72 68.9328 183.72 68.6731C183.72 68.4134 183.617 68.1643 183.434 67.9805C183.25 67.7966 183.001 67.693 182.742 67.6924H81.8397Z" fill="#E4E4E4"/>
<path d="M81.8397 73.5771C81.58 73.5778 81.3311 73.6814 81.1477 73.8652C80.9643 74.0491 80.8613 74.2982 80.8613 74.5579C80.8613 74.8176 80.9643 75.0667 81.1477 75.2505C81.3311 75.4344 81.58 75.538 81.8397 75.5386H156.401C156.66 75.538 156.909 75.4344 157.093 75.2505C157.276 75.0667 157.379 74.8176 157.379 74.5579C157.379 74.2982 157.276 74.0491 157.093 73.8652C156.909 73.6814 156.66 73.5778 156.401 73.5771H81.8397Z" fill="#E4E4E4"/>
<path d="M81.8397 79.3291C81.58 79.3297 81.3311 79.4333 81.1477 79.6172C80.9643 79.801 80.8613 80.0501 80.8613 80.3098C80.8613 80.5695 80.9643 80.8186 81.1477 81.0025C81.3311 81.1863 81.58 81.2899 81.8397 81.2905H182.742C183.001 81.2899 183.25 81.1863 183.434 81.0025C183.617 80.8186 183.72 80.5695 183.72 80.3098C183.72 80.0501 183.617 79.801 183.434 79.6172C183.25 79.4333 183.001 79.3297 182.742 79.3291H81.8397Z" fill="#E4E4E4"/>
<path d="M81.8397 85.2139C81.58 85.2145 81.3311 85.3181 81.1477 85.502C80.9643 85.6858 80.8613 85.9349 80.8613 86.1946C80.8613 86.4543 80.9643 86.7034 81.1477 86.8872C81.3311 87.0711 81.58 87.1747 81.8397 87.1753H156.401C156.66 87.1747 156.909 87.0711 157.093 86.8872C157.276 86.7034 157.379 86.4543 157.379 86.1946C157.379 85.9349 157.276 85.6858 157.093 85.502C156.909 85.3181 156.66 85.2145 156.401 85.2139H81.8397Z" fill="#E4E4E4"/>
<path d="M81.8397 91.1191C81.58 91.1198 81.3311 91.2234 81.1477 91.4072C80.9643 91.5911 80.8613 91.8402 80.8613 92.0999C80.8613 92.3596 80.9643 92.6086 81.1477 92.7925C81.3311 92.9763 81.58 93.08 81.8397 93.0806H182.742C183.001 93.08 183.25 92.9763 183.434 92.7925C183.617 92.6086 183.72 92.3596 183.72 92.0999C183.72 91.8402 183.617 91.5911 183.434 91.4072C183.25 91.2234 183.001 91.1198 182.742 91.1191H81.8397Z" fill="#E4E4E4"/>
<path d="M81.8397 97.0039C81.58 97.0045 81.3311 97.1081 81.1477 97.292C80.9643 97.4758 80.8613 97.7249 80.8613 97.9846C80.8613 98.2443 80.9643 98.4934 81.1477 98.6773C81.3311 98.8611 81.58 98.9647 81.8397 98.9653H156.401C156.66 98.9647 156.909 98.8611 157.093 98.6773C157.276 98.4934 157.379 98.2443 157.379 97.9846C157.379 97.7249 157.276 97.4758 157.093 97.292C156.909 97.1081 156.66 97.0045 156.401 97.0039H81.8397Z" fill="#E4E4E4"/>
<path d="M97.8209 48.1738C95.0341 48.1738 92.3099 47.3474 89.9927 45.7992C87.6756 44.2509 85.8696 42.0503 84.8031 39.4757C83.7366 36.901 83.4575 34.0679 84.0012 31.3347C84.5449 28.6014 85.8868 26.0907 87.8574 24.1202C89.8279 22.1496 92.3386 20.8076 95.0718 20.2639C97.8051 19.7202 100.638 19.9993 103.213 21.0657C105.788 22.1322 107.988 23.9382 109.536 26.2553C111.085 28.5724 111.911 31.2967 111.911 34.0835C111.907 37.8191 110.421 41.4006 107.779 44.0421C105.138 46.6836 101.557 48.1695 97.8209 48.1738Z" fill="#62B0E5"/>
<path d="M55.0483 101.45C55.0239 100.936 54.8871 100.433 54.6474 99.9773C54.4078 99.5216 54.0711 99.124 53.6612 98.8125C53.2512 98.501 52.7779 98.2832 52.2747 98.1743C51.7715 98.0655 51.2505 98.0684 50.7485 98.1827L46.0911 91.6191L41.4121 93.4766L48.1194 102.653C48.3674 103.484 48.9114 104.195 49.6484 104.651C50.3854 105.107 51.2642 105.277 52.1183 105.129C52.9724 104.981 53.7424 104.524 54.2824 103.846C54.8224 103.168 55.0949 102.316 55.0483 101.45H55.0483Z" fill="#A0616A"/>
<path d="M45.9714 100.964L31.8789 82.6818L37.1592 66.0865C37.5462 61.9143 40.157 60.7492 40.2681 60.7016L40.4376 60.6289L45.0325 72.8823L41.6587 81.8788L49.9394 95.8058L45.9714 100.964Z" fill="#3F3D56"/>
<path d="M94.9136 44.6056C94.4027 44.6697 93.9121 44.845 93.4763 45.1192C93.0405 45.3933 92.6701 45.7597 92.3912 46.1925C92.1124 46.6254 91.9318 47.114 91.8622 47.6242C91.7926 48.1343 91.8357 48.6535 91.9885 49.1452L85.8047 54.2961L88.0184 58.8175L96.6489 51.4207C97.4579 51.1093 98.1246 50.512 98.5225 49.7419C98.9205 48.9718 99.0222 48.0824 98.8083 47.2424C98.5944 46.4024 98.0798 45.67 97.362 45.184C96.6441 44.698 95.773 44.4922 94.9136 44.6056Z" fill="#FFB6B6"/>
<path d="M95.1303 53.6931L77.9923 69.1569L61.0385 65.1755C56.8488 65.1123 55.4854 62.5993 55.4293 62.4922L55.3438 62.3289L67.2052 56.8004L76.4356 59.4684L89.6807 50.1357L95.1303 53.6931Z" fill="#3F3D56"/>
<path d="M65.4442 163.626L70.0489 163.626L72.2392 145.865L65.4434 145.866L65.4442 163.626Z" fill="#FFB6B6"/>
<path d="M78.9297 167.901L64.4581 167.902L64.4578 162.311L74.8694 162.31C75.9462 162.31 76.9789 162.738 77.7403 163.499C78.5018 164.261 78.9296 165.293 78.9296 166.37L78.9297 167.901L78.9297 167.901Z" fill="#2F2E41"/>
<path d="M47.0396 163.626L51.6443 163.626L53.8349 145.865L47.0391 145.866L47.0396 163.626Z" fill="#FFB6B6"/>
<path d="M60.5254 167.901L46.0538 167.902L46.0535 162.311L56.4651 162.31C56.9983 162.31 57.5262 162.415 58.0188 162.619C58.5114 162.823 58.959 163.122 59.336 163.499C59.7131 163.876 60.0121 164.324 60.2162 164.816C60.4203 165.309 60.5253 165.837 60.5253 166.37L60.5254 167.901Z" fill="#2F2E41"/>
<path d="M45.4023 98.7979L45.7779 125.089L46.1537 159.643L54.4164 158.892L58.548 111.192L63.8063 158.892H72.3367L73.1959 110.817L70.1912 100.3L45.4023 98.7979Z" fill="#2F2E41"/>
<path d="M61.575 102.328C52.5844 102.329 44.3087 98.2597 44.197 98.2039L44.1042 98.1575L43.3497 80.0511C43.1309 79.4112 38.8228 66.7858 38.0932 62.7729C37.3539 58.7071 48.0681 55.139 49.3691 54.7217L49.6644 51.451L61.6709 50.1572L63.1927 54.3422L67.5001 55.9574C67.9885 56.1406 68.3926 56.4966 68.636 56.9579C68.8794 57.4193 68.9451 57.9538 68.8206 58.4603L66.4266 68.1959L72.2736 100.406L71.0148 100.46C67.9975 101.823 64.741 102.328 61.575 102.328Z" fill="#3F3D56"/>
<path d="M60.2847 47.0261C64.474 44.736 66.0136 39.4835 63.7235 35.2942C61.4334 31.1049 56.1809 29.5653 51.9916 31.8554C47.8023 34.1455 46.2627 39.398 48.5528 43.5873C50.8429 47.7766 56.0954 49.3162 60.2847 47.0261Z" fill="#FFB6B6"/>
<path d="M49.1366 47.81C50.7841 49.565 53.8437 48.6229 54.0584 46.2254C54.0752 46.0393 54.074 45.8519 54.0547 45.666C53.9439 44.604 53.3304 43.6399 53.4773 42.5186C53.5106 42.2395 53.6145 41.9736 53.7794 41.7459C55.0922 39.9879 58.174 42.5322 59.413 40.9408C60.1727 39.9649 59.2797 38.4285 59.8627 37.3378C60.6322 35.8983 62.9113 36.6084 64.3406 35.8201C65.9308 34.9429 65.8357 32.503 64.7889 31.019C63.5123 29.2091 61.274 28.2434 59.0635 28.1042C56.8531 27.965 54.6579 28.5625 52.5943 29.3667C50.2495 30.2805 47.9244 31.5433 46.4815 33.605C44.7268 36.1123 44.5579 39.4831 45.4355 42.4149C45.9693 44.1983 47.7913 46.3769 49.1366 47.81Z" fill="#2F2E41"/>
<path d="M109.944 168.124H0.385213C0.308948 168.124 0.235803 168.094 0.181875 168.04C0.127948 167.986 0.0976562 167.913 0.0976562 167.836C0.0976562 167.76 0.127948 167.687 0.181875 167.633C0.235803 167.579 0.308948 167.549 0.385213 167.549H109.944C110.021 167.549 110.094 167.579 110.148 167.633C110.202 167.687 110.232 167.76 110.232 167.836C110.232 167.913 110.202 167.986 110.148 168.04C110.094 168.094 110.021 168.124 109.944 168.124Z" fill="#CACACA"/>
<path d="M97.0071 39.4053C96.753 39.4056 96.5083 39.3095 96.3224 39.1363L91.6762 34.8208C91.481 34.6391 91.3658 34.3873 91.3561 34.1207C91.3464 33.8542 91.4429 33.5946 91.6245 33.3992C91.806 33.2038 92.0577 33.0884 92.3243 33.0784C92.5908 33.0684 92.8504 33.1647 93.0461 33.346L96.9814 37.0014L104.768 29.2155C104.861 29.1214 104.972 29.0467 105.094 28.9957C105.216 28.9446 105.348 28.9182 105.48 28.918C105.613 28.9177 105.744 28.9436 105.866 28.9942C105.989 29.0448 106.1 29.1191 106.194 29.2128C106.287 29.3065 106.362 29.4178 106.412 29.5403C106.463 29.6627 106.489 29.794 106.488 29.9265C106.488 30.059 106.462 30.1901 106.411 30.3124C106.359 30.4346 106.285 30.5456 106.191 30.6389L97.719 39.1106C97.6256 39.2042 97.5146 39.2784 97.3924 39.3289C97.2703 39.3795 97.1393 39.4055 97.0071 39.4053Z" fill="white"/>
</g>
<defs>
<clipPath id="clip0_567_98308">
<rect width="195.78" height="168" fill="white" transform="translate(0.0976562 0.167969)"/>
</clipPath>
</defs>
</svg>
