<svg width="196" height="220" viewBox="0 0 196 220" fill="none" xmlns="http://www.w3.org/2000/svg">
<g clip-path="url(#clip0_564_93814)">
<path d="M111.41 169.52C158.052 169.52 195.863 131.709 195.863 85.0665C195.863 38.4243 158.052 0.613281 111.41 0.613281C64.768 0.613281 26.957 38.4243 26.957 85.0665C26.957 131.709 64.768 169.52 111.41 169.52Z" fill="#F2F2F2"/>
<path d="M166.599 38.381H11.8927C11.5609 38.3739 11.2977 38.0993 11.3048 37.7675C11.3117 37.4458 11.5709 37.1866 11.8927 37.1797H166.599C166.931 37.1868 167.194 37.4615 167.187 37.7932C167.18 38.115 166.921 38.3742 166.599 38.381Z" fill="#CACACA"/>
<path d="M113.874 58.624H71.1074C67.8951 58.624 65.291 61.2281 65.291 64.4404V64.4404C65.291 67.6527 67.8951 70.2568 71.1074 70.2568H113.874C117.087 70.2568 119.691 67.6527 119.691 64.4404C119.691 61.2281 117.087 58.624 113.874 58.624Z" fill="white"/>
<path d="M43.4804 81.8896H141.503C144.715 81.8896 147.319 84.4937 147.319 87.706C147.319 90.9183 144.715 93.5224 141.503 93.5224H43.4804C40.2681 93.5224 37.6641 90.9183 37.6641 87.706C37.6641 84.4937 40.2681 81.8896 43.4804 81.8896Z" fill="white"/>
<path d="M43.4804 105.155H141.503C144.715 105.155 147.319 107.759 147.319 110.972C147.319 114.184 144.715 116.788 141.503 116.788H43.4804C40.2681 116.788 37.6641 114.184 37.6641 110.972C37.6641 107.759 40.2681 105.155 43.4804 105.155Z" fill="white"/>
<path d="M31.3328 219.314L31.1021 219.291C23.275 218.483 16.1993 214.274 11.7549 207.781C10.5375 205.971 9.55277 204.016 8.82395 201.961L8.75389 201.765L8.96128 201.748C11.4374 201.549 13.981 201.128 15.111 200.928L7.82453 198.46L7.77948 198.243C7.34748 196.214 8.1938 194.126 9.91691 192.97C11.6447 191.758 13.9359 191.719 15.7036 192.872C16.497 193.378 17.3267 193.88 18.1291 194.366C20.8866 196.034 23.7379 197.758 25.8756 200.118C29.1173 203.768 30.5382 208.687 29.7425 213.503L31.3328 219.314Z" fill="#F2F2F2"/>
<path d="M57.8194 215.69L61.4103 215.689L63.119 201.837L57.8184 201.837L57.8194 215.69Z" fill="#FFB6B6"/>
<path d="M57.6935 219.437L68.7371 219.436V219.297C68.7369 216.923 66.8125 214.998 64.4386 214.998H64.4384L62.4211 213.468L58.6574 214.998L57.6934 214.998L57.6935 219.437Z" fill="#2F2E41"/>
<path d="M29.0391 205.743L31.9115 207.898L41.5913 197.843L37.3514 194.662L29.0391 205.743Z" fill="#FFB6B6"/>
<path d="M26.6895 208.664L35.5235 215.291L35.6073 215.179C37.0318 213.28 36.6473 210.586 34.7485 209.161L34.7483 209.161L34.0531 206.726L30.1239 205.692L29.3528 205.113L26.6895 208.664H26.6895Z" fill="#2F2E41"/>
<path d="M40.9771 150.685C40.9771 150.685 41.1753 156.092 41.4254 160.429C41.4664 161.14 39.8001 161.913 39.8432 162.687C39.8718 163.2 40.185 163.699 40.2141 164.235C40.2448 164.799 39.8124 165.299 39.8432 165.884C39.8733 166.454 40.3666 167.109 40.3964 167.693C40.7166 173.98 41.8775 181.507 40.7151 183.611C40.1422 184.648 32.8398 199.014 32.8398 199.014C32.8398 199.014 36.9084 205.117 38.0709 203.082C39.6063 200.395 51.4392 187.825 51.4392 185.425C51.4392 183.027 54.1767 165.058 54.1767 165.058L56.0856 175.692L56.9608 177.799L56.6858 179.036L57.2514 180.705L57.282 182.357L57.8327 185.425C57.8327 185.425 56.1762 209.325 57.1091 209.99C58.0448 210.659 62.5755 211.859 63.1102 210.659C63.6421 209.458 67.1037 185.715 67.1037 185.715C67.1037 185.715 67.6617 174.835 68.2662 164.721C68.3011 164.134 68.7138 163.425 68.7457 162.847C68.7835 162.175 68.522 161.304 68.5568 160.653C68.5946 159.906 68.9259 159.38 68.9579 158.665C69.2049 153.14 67.8182 146.413 67.3765 145.75C66.0425 143.751 64.8423 142.152 64.8423 142.152C64.8423 142.152 46.8759 136.249 42.0749 142.247L40.9771 150.685L40.9771 150.685Z" fill="#2F2E41"/>
<path d="M58.8968 95.0758L51.7745 93.6514L48.4508 98.1622C42.2489 104.26 42.1555 109.642 43.2626 118.269V130.377L42.4613 138.494C42.4613 138.494 39.6246 144.427 42.5504 145.809C45.4761 147.19 64.694 147.073 66.5288 146.521C68.3636 145.97 66.7732 145.293 66.2914 142.722C65.3863 137.895 65.9917 140.224 66.054 138.687C66.947 116.638 64.867 107.586 64.6557 105.207L61.0335 98.637L58.8968 95.0758Z" fill="#3F3D56"/>
<path d="M96.4346 112.853C95.6923 114.259 93.9504 114.798 92.544 114.055C92.394 113.976 92.2513 113.884 92.1176 113.78L76.7363 123.546L76.7807 118.229L91.7224 109.558C92.7867 108.365 94.6168 108.26 95.81 109.324C96.8085 110.215 97.0667 111.674 96.4346 112.853Z" fill="#A0616A"/>
<path d="M53.2731 101.234L51.522 101.048C49.9039 100.88 48.3164 101.573 47.3394 102.874C46.9652 103.367 46.6964 103.932 46.5497 104.534L46.5487 104.538C46.1094 106.349 46.7984 108.246 48.2969 109.353L54.3451 113.812C58.5895 119.548 66.5664 123.353 75.9233 126.444L90.4675 117.411L85.3232 111.181L75.3473 116.527L60.5187 105.048L60.5101 105.041L54.8663 101.405L53.2731 101.234L53.2731 101.234Z" fill="#3F3D56"/>
<path d="M56.4892 91.578C61.0763 91.578 64.7948 87.8595 64.7948 83.2724C64.7948 78.6853 61.0763 74.9668 56.4892 74.9668C51.9021 74.9668 48.1836 78.6853 48.1836 83.2724C48.1836 87.8595 51.9021 91.578 56.4892 91.578Z" fill="#FFB6B6"/>
<path d="M56.6812 91.5801C56.6143 91.5823 56.5472 91.5838 56.4801 91.5856C56.4514 91.66 56.4205 91.7338 56.3848 91.8062L56.6812 91.5801V91.5801Z" fill="#2F2E41"/>
<path d="M58.9609 83.5029C58.974 83.5848 58.9939 83.6653 59.0205 83.7438C59.0095 83.6616 58.9896 83.5808 58.9609 83.5029Z" fill="#2F2E41"/>
<path d="M64.9016 75.3226C64.5597 76.3842 64.2546 75.0376 63.13 75.2798C61.7771 75.5712 60.2028 75.4711 59.0949 74.6418C57.4441 73.4307 55.3049 73.1046 53.3683 73.769C51.4725 74.4397 48.2966 74.9126 47.8026 76.8618C47.6309 77.5394 47.5627 78.2747 47.1466 78.8362C46.7827 79.3272 46.2084 79.6071 45.7281 79.985C44.1065 81.2609 45.3459 84.8858 46.1134 86.8012C46.8809 88.7166 48.6415 90.1119 50.5772 90.8266C52.4501 91.5182 54.4828 91.6401 56.4807 91.5858C56.8282 90.6845 56.6781 89.6436 56.3914 88.7093C56.081 87.6978 55.6213 86.7217 55.4917 85.6716C55.362 84.6216 55.6468 83.4289 56.5272 82.8421C57.3365 82.3029 58.6534 82.6314 58.9613 83.5033C58.7816 82.4132 59.8858 81.3584 61.0244 81.1729C62.2468 80.9737 63.4692 81.4151 64.6881 81.6347C65.907 81.8544 65.4744 76.7228 64.9016 75.3226Z" fill="#2F2E41"/>
<path d="M111.352 97.0122C112.127 87.6569 105.17 79.4454 95.8153 78.6711C86.46 77.8968 78.2485 84.8531 77.4742 94.2083C76.6999 103.564 83.6562 111.775 93.0114 112.549C102.367 113.324 110.578 106.367 111.352 97.0122Z" fill="#FF4D4F"/>
<path d="M98.878 88.5284L94.4132 92.9932L89.9484 88.5284C89.2257 87.8056 88.0539 87.8056 87.3311 88.5284C86.6084 89.2511 86.6084 90.4229 87.3311 91.1457L91.7959 95.6105L87.3311 100.075C86.609 100.799 86.6101 101.971 87.3336 102.693C88.056 103.414 89.226 103.414 89.9484 102.693L94.4132 98.2278L98.878 102.693C99.6015 103.415 100.773 103.414 101.495 102.69C102.216 101.968 102.216 100.798 101.495 100.075L97.0306 95.6105L101.495 91.1457C102.218 90.4229 102.218 89.2511 101.495 88.5284C100.773 87.8056 99.6008 87.8056 98.878 88.5284Z" fill="white"/>
<path d="M87.7155 81.3241C88.2165 82.8335 87.3991 84.4632 85.8897 84.9642C85.7288 85.0176 85.5635 85.0567 85.3957 85.0811L81.7946 102.942L77.9883 99.2283L82.0755 82.4434C81.9513 80.8493 83.1428 79.4563 84.737 79.3321C86.0708 79.2281 87.3022 80.0517 87.7155 81.3241Z" fill="#A0616A"/>
<path d="M49.4499 104.426L48.1036 105.561C46.8624 106.612 46.2634 108.238 46.5255 109.843C46.6223 110.455 46.8439 111.04 47.1764 111.562L47.1792 111.566C48.1816 113.137 50.0277 113.953 51.8639 113.638L59.2688 112.361C66.3458 113.268 74.6139 110.146 83.3223 105.534L86.8733 88.7858L78.816 88.1846L75.7676 99.0846L57.2184 101.838L57.2076 101.84L50.6764 103.395L49.4499 104.426L49.4499 104.426Z" fill="#3F3D56"/>
<path d="M91.6129 219.723L1.2579 219.826C1.03925 219.825 0.862575 219.647 0.863283 219.428C0.863985 219.211 1.04025 219.035 1.2579 219.034L91.6129 218.932C91.8315 218.932 92.0082 219.11 92.0075 219.329C92.0068 219.546 91.8305 219.723 91.6129 219.723Z" fill="#CACACA"/>
<path d="M19.7415 30.7713C21.2943 30.7713 22.5532 29.4844 22.5532 27.8969C22.5532 26.3094 21.2943 25.0225 19.7415 25.0225C18.1886 25.0225 16.9297 26.3094 16.9297 27.8969C16.9297 29.4844 18.1886 30.7713 19.7415 30.7713Z" fill="#3F3D56"/>
<path d="M29.4543 30.7713C31.0072 30.7713 32.2661 29.4844 32.2661 27.8969C32.2661 26.3094 31.0072 25.0225 29.4543 25.0225C27.9014 25.0225 26.6426 26.3094 26.6426 27.8969C26.6426 29.4844 27.9014 30.7713 29.4543 30.7713Z" fill="#3F3D56"/>
<path d="M39.1672 30.7713C40.7201 30.7713 41.979 29.4844 41.979 27.8969C41.979 26.3094 40.7201 25.0225 39.1672 25.0225C37.6143 25.0225 36.3555 26.3094 36.3555 27.8969C36.3555 29.4844 37.6143 30.7713 39.1672 30.7713Z" fill="#3F3D56"/>
<path d="M50.2434 30.1685C50.1571 30.1685 50.0708 30.1351 50.0057 30.0685L48.1085 28.1291C47.9821 27.9999 47.9821 27.7933 48.1085 27.6641L50.0057 25.7248C50.1345 25.5937 50.3452 25.5916 50.4759 25.7196C50.6073 25.8481 50.6095 26.0586 50.4811 26.1898L48.8113 27.8966L50.4811 29.6036C50.6095 29.7347 50.6073 29.9453 50.4759 30.0737C50.4113 30.137 50.3274 30.1685 50.2434 30.1685Z" fill="#3F3D56"/>
<path d="M53.4321 30.1688C53.3482 30.1688 53.2643 30.1373 53.1996 30.074C53.0683 29.9455 53.066 29.7351 53.1944 29.6038L54.8641 27.8968L53.1944 26.1901C53.066 26.0589 53.0683 25.8483 53.1996 25.7199C53.3307 25.5913 53.5414 25.5938 53.6698 25.7251L55.5669 27.6644C55.6933 27.7936 55.6933 28.0001 55.5669 28.1293L53.6698 30.0688C53.6047 30.1353 53.5185 30.1688 53.4321 30.1688Z" fill="#3F3D56"/>
<path d="M152.684 25.3555H149.156C148.754 25.3555 148.428 25.6813 148.428 26.0836V29.6147C148.428 30.017 148.754 30.3429 149.156 30.3429H152.684C153.086 30.3429 153.415 30.017 153.415 29.6147V26.0836C153.415 25.6813 153.086 25.3555 152.684 25.3555Z" fill="#3F3D56"/>
<path d="M144.039 25.3555H140.511C140.109 25.3555 139.783 25.6813 139.783 26.0836V29.6147C139.783 30.017 140.109 30.3429 140.511 30.3429H144.039C144.441 30.3429 144.771 30.017 144.771 29.6147V26.0836C144.771 25.6813 144.441 25.3555 144.039 25.3555Z" fill="#3F3D56"/>
<path d="M160.83 25.5215H157.302C156.9 25.5215 156.574 25.8473 156.574 26.2496V29.7807C156.574 30.183 156.9 30.5089 157.302 30.5089H160.83C161.232 30.5089 161.562 30.183 161.562 29.7807V26.2496C161.562 25.8473 161.232 25.5215 160.83 25.5215Z" fill="#3F3D56"/>
<path d="M107.657 26.8652H79.4581C78.966 26.8652 78.5703 27.2642 78.5703 27.753C78.5703 28.2418 78.966 28.6408 79.4581 28.6408H107.657C108.146 28.6408 108.545 28.2418 108.545 27.753C108.545 27.2643 108.146 26.8652 107.657 26.8652Z" fill="#3F3D56"/>
</g>
<defs>
<clipPath id="clip0_564_93814">
<rect width="195" height="219.212" fill="white" transform="translate(0.863281 0.613281)"/>
</clipPath>
</defs>
</svg>
