<svg width="21" height="21" viewBox="0 0 21 21" fill="none" xmlns="http://www.w3.org/2000/svg">
<path fill-rule="evenodd" clip-rule="evenodd" d="M10.5 2.1853C6.082 2.1853 2.5 5.83673 2.5 10.3404C2.5 14.844 6.082 18.4954 10.5 18.4954C14.918 18.4954 18.5 14.844 18.5 10.3404C18.5 5.83673 14.918 2.1853 10.5 2.1853ZM12.2071 6.5614C12.5976 6.9595 12.5976 7.60494 12.2071 8.00303L9.91421 10.3404L12.2071 12.6777C12.5976 13.0758 12.5976 13.7212 12.2071 14.1193C11.8166 14.5174 11.1834 14.5174 10.7929 14.1193L7.79289 11.0612C7.40237 10.6631 7.40237 10.0176 7.79289 9.61955L10.7929 6.5614C11.1834 6.16331 11.8166 6.16331 12.2071 6.5614Z" fill="#D2D2D2"/>
</svg>
