<svg width="12" height="13" viewBox="0 0 12 13" fill="none" xmlns="http://www.w3.org/2000/svg">
<path d="M11.3701 7.36014H10.4668V5.63986H11.3701C11.7179 5.63986 12 5.35781 12 5.00995C12 4.6621 11.7179 4.38004 11.3701 4.38004H10.4668V3.62315C10.4668 2.74652 9.75348 2.03363 8.87699 2.03363H8.1201V1.12991C8.1201 0.782055 7.83804 0.5 7.49019 0.5C7.14233 0.5 6.86028 0.782055 6.86028 1.12991V2.03363H5.13986V1.12991C5.13986 0.782055 4.85781 0.5 4.50995 0.5C4.1621 0.5 3.88004 0.782055 3.88004 1.12991V2.03363H3.12315C2.24652 2.03363 1.53363 2.74652 1.53363 3.62315V4.38004H0.62991C0.282055 4.38004 0 4.6621 0 5.00995C0 5.35781 0.282055 5.63986 0.62991 5.63986H1.53363V7.36014H0.62991C0.282055 7.36014 0 7.64219 0 7.99005C0 8.3379 0.282055 8.61996 0.62991 8.61996H1.53363V9.37685C1.53363 10.2535 2.24652 10.9666 3.12315 10.9666H3.88004V11.8704C3.88004 12.2182 4.1621 12.5003 4.50995 12.5003C4.85781 12.5003 5.13986 12.2182 5.13986 11.8704V10.9666H6.86014V11.8704C6.86014 12.2182 7.14219 12.5003 7.49005 12.5003C7.8379 12.5003 8.11996 12.2182 8.11996 11.8704V10.9666H8.87685C9.75348 10.9666 10.4666 10.2533 10.4666 9.37685V8.61996H11.37C11.7178 8.61996 11.9999 8.3379 11.9999 7.99005C12 7.64219 11.7179 7.36014 11.3701 7.36014ZM9.20697 9.37685C9.20697 9.55888 9.05902 9.70683 8.87699 9.70683H3.12315C2.9414 9.70683 2.79345 9.55888 2.79345 9.37685V3.62315C2.79345 3.4414 2.9414 3.29345 3.12315 3.29345H8.87699C9.05902 3.29345 9.20697 3.4414 9.20697 3.62315V9.37685Z" fill="#48A2DF"/>
</svg>
