<svg width="65" height="65" viewBox="0 0 65 65" fill="none" xmlns="http://www.w3.org/2000/svg">
<path d="M43.6546 43.0924L32.988 32.4258L22.3213 43.0924" stroke="#606266" stroke-width="2" stroke-linecap="round" stroke-linejoin="round"/>
<path d="M32.9883 32.4258V56.4258" stroke="#606266" stroke-width="2" stroke-linecap="round" stroke-linejoin="round"/>
<path d="M55.3615 49.4656C57.9624 48.0476 60.0171 45.8039 61.2012 43.0886C62.3853 40.3732 62.6314 37.3409 61.9007 34.4701C61.17 31.5993 59.5041 29.0536 57.166 27.2348C54.8278 25.4159 51.9505 24.4275 48.9882 24.4256H45.6282C44.821 21.3036 43.3166 18.4051 41.228 15.9482C39.1395 13.4913 36.5211 11.5398 33.5698 10.2405C30.6185 8.94121 27.411 8.32787 24.1885 8.4466C20.966 8.56532 17.8124 9.41304 14.9646 10.926C12.1169 12.439 9.64927 14.5778 7.74717 17.1818C5.84506 19.7857 4.55802 22.787 3.98279 25.96C3.40756 29.1329 3.55912 32.395 4.42608 35.5009C5.29303 38.6069 6.85282 41.4759 8.98818 43.8922" stroke="#606266" stroke-width="2" stroke-linecap="round" stroke-linejoin="round"/>
<path d="M43.6546 43.0924L32.988 32.4258L22.3213 43.0924" stroke="#606266" stroke-width="2" stroke-linecap="round" stroke-linejoin="round"/>
</svg>
