<svg width="25" height="25" viewBox="0 0 25 25" fill="none" xmlns="http://www.w3.org/2000/svg">
<g clip-path="url(#clip0_818_56128)">
<path d="M3.49197 24.1227C3.5969 24.1225 3.70076 24.1016 3.79765 24.0613C3.89477 24.021 3.98299 23.9619 4.05727 23.8874C4.13155 23.8129 4.19043 23.7246 4.23056 23.6273C4.27069 23.5301 4.29127 23.4259 4.29114 23.3208C4.29101 23.2156 4.27016 23.1115 4.22979 23.0143C4.18942 22.9172 4.13031 22.829 4.05584 22.7547C3.98138 22.6804 3.89301 22.6216 3.79579 22.5814C3.69857 22.5413 3.59439 22.5207 3.48922 22.5208L3.48759 22.5209C3.37369 22.5217 3.26129 22.4948 3.16017 22.4424L3.0451 22.6643L3.16017 22.4424C3.05904 22.3899 2.97225 22.3136 2.90734 22.22L2.90623 22.2184C2.836 22.1188 2.79107 22.0036 2.77533 21.8828C2.75959 21.7619 2.77351 21.639 2.81589 21.5248L2.81589 21.5248L2.81656 21.5229C3.3277 20.1105 4.15259 18.8324 5.22912 17.7849C6.30565 16.7373 7.60578 15.9477 9.03165 15.4753L9.03891 15.4729L9.04602 15.47C9.23507 15.3943 9.38823 15.2494 9.47446 15.0649C9.56068 14.8804 9.5735 14.67 9.51033 14.4764C9.44715 14.2828 9.31271 14.1204 9.13425 14.0223L9.01377 14.2413L9.13425 14.0223C8.9558 13.9241 8.7467 13.8975 8.54935 13.9478L8.54079 13.95L8.53241 13.9528C6.87553 14.5025 5.36486 15.4207 4.11405 16.6384C2.86324 17.8561 1.90486 19.3417 1.311 20.9832L1.31092 20.9834C1.18245 21.3397 1.14155 21.7215 1.19167 22.0969C1.24175 22.472 1.38127 22.8295 1.59845 23.1394C1.81024 23.445 2.09341 23.6943 2.42339 23.8656C2.75337 24.037 3.12017 24.1252 3.49197 24.1227ZM3.49197 24.1227C3.49172 24.1227 3.49147 24.1227 3.49123 24.1227L3.49091 23.8727L3.49271 24.1227C3.49246 24.1227 3.49221 24.1227 3.49197 24.1227ZM21.9459 22.2197L21.9455 22.2202C21.8099 22.4134 21.5999 22.5222 21.3625 22.5222C21.1503 22.5222 20.9467 22.6065 20.7967 22.7566C20.6466 22.9067 20.5623 23.1102 20.5623 23.3225C20.5623 23.5347 20.6466 23.7382 20.7967 23.8883C20.9467 24.0384 21.1503 24.1227 21.3625 24.1227C22.124 24.1227 22.8168 23.7654 23.2517 23.1415C23.6964 22.5134 23.8007 21.7085 23.5428 20.9856L23.5424 20.9846C22.9484 19.3431 21.9899 17.8577 20.7392 16.64C19.4884 15.4223 17.9778 14.504 16.3211 13.9542L16.3211 13.9542L16.3174 13.953C16.116 13.8896 15.8977 13.9082 15.71 14.0049C15.5222 14.1016 15.3803 14.2686 15.315 14.4694C15.2498 14.6702 15.2665 14.8887 15.3615 15.0773C15.4565 15.2659 15.6222 15.4093 15.8224 15.4764L15.823 15.4766C17.2484 15.9497 18.548 16.7397 19.6243 17.7871C20.7005 18.8346 21.5254 20.1124 22.0369 21.5244L22.0374 21.5257C22.0795 21.6401 22.0932 21.763 22.0773 21.8839C22.0614 22.0048 22.0163 22.1201 21.9459 22.2197Z" fill="#62B0E5" stroke="#62B0E5" stroke-width="0.5"/>
<path d="M5.02246 9.01438C5.02246 13.0975 8.34439 16.4194 12.4275 16.4194C16.5107 16.4194 19.8311 13.096 19.8311 9.013C19.8311 4.92992 16.5106 1.60938 12.4275 1.60938C8.34439 1.60938 5.02246 4.9313 5.02246 9.01438ZM8.32512 4.91109C9.41331 3.82315 10.8886 3.21131 12.4274 3.20983C13.9657 3.21237 15.4403 3.82459 16.5281 4.91237C17.6159 6.00015 18.2281 7.47477 18.2306 9.01311C18.2288 10.5519 17.6169 12.0271 16.529 13.1155C15.4412 14.2038 13.9662 14.8164 12.4274 14.8189C10.8884 14.8167 9.41311 14.2043 8.32499 13.1159C7.23684 12.0275 6.62474 10.552 6.62291 9.013C6.62474 7.47424 7.23692 5.99904 8.32512 4.91109Z" fill="#62B0E5" stroke="#62B0E5" stroke-width="0.5"/>
</g>
<defs>
<clipPath id="clip0_818_56128">
<rect width="24" height="24" fill="white" transform="translate(0.5 0.939453)"/>
</clipPath>
</defs>
</svg>
