<svg width="18" height="18" viewBox="0 0 18 18" fill="none" xmlns="http://www.w3.org/2000/svg">
<path d="M15.5227 4.54545H12.5V3.43182C12.5 2.63636 11.8636 2 11.0682 2H6.93182C6.13636 2 5.5 2.63636 5.5 3.43182V4.54545H2.47727C2.22273 4.54545 2 4.76818 2 5.02273C2 5.27727 2.22273 5.5 2.47727 5.5H15.5227C15.7773 5.5 16 5.27727 16 5.02273C16 4.76818 15.7773 4.54545 15.5227 4.54545ZM6.45455 4.54545V3.43182C6.45455 3.17727 6.67727 2.95455 6.93182 2.95455H11.0682C11.3227 2.95455 11.5455 3.17727 11.5455 3.43182V4.54545H6.45455ZM13.9 6.45455C13.6455 6.45455 13.4227 6.67727 13.4227 6.93182V14.1545C13.4227 14.6318 13.0409 15.0455 12.5318 15.0455H5.43636C4.95909 15.0455 4.54545 14.6636 4.54545 14.1545V6.93182C4.54545 6.67727 4.32273 6.45455 4.06818 6.45455C3.81364 6.45455 3.59091 6.67727 3.59091 6.93182V14.1545C3.59091 15.1727 4.41818 16 5.43636 16H12.5636C13.5818 16 14.4091 15.1727 14.4091 14.1545V6.93182C14.3773 6.67727 14.1545 6.45455 13.9 6.45455Z" fill="#FF6177"/>
<path d="M7.83333 13.5V6.5C7.83333 6.23333 7.63889 6 7.41667 6C7.19444 6 7 6.23333 7 6.5V13.5C7 13.7667 7.19444 14 7.41667 14C7.63889 14 7.83333 13.7667 7.83333 13.5ZM11 13.5V6.5C11 6.23333 10.8056 6 10.5833 6C10.3611 6 10.1667 6.23333 10.1667 6.5V13.5C10.1667 13.7667 10.3611 14 10.5833 14C10.8056 14 11 13.7667 11 13.5Z" fill="#FF6177"/>
</svg>
