<svg width="24" height="25" viewBox="0 0 24 25" fill="none" xmlns="http://www.w3.org/2000/svg">
<mask id="path-1-outside-1_564_85481" maskUnits="userSpaceOnUse" x="0.863281" y="2.13574" width="21" height="21" fill="black">
<rect fill="white" x="0.863281" y="2.13574" width="21" height="21"/>
<path d="M15.9054 3.13574C16.1769 3.13574 16.4379 3.23324 16.6411 3.40949L16.7244 3.48899L20.6941 7.70624C20.862 7.88413 20.9673 8.11188 20.9941 8.35499L21.0001 8.47724V21.51C21.0001 21.7897 20.8959 22.0593 20.7079 22.2663C20.5199 22.4733 20.2615 22.6029 19.9831 22.6297L19.8751 22.635H4.12436C3.8447 22.635 3.57507 22.5308 3.36805 22.3428C3.16102 22.1548 3.03146 21.8964 3.00461 21.618L2.99936 21.51V19.2412C2.99919 19.1475 3.03411 19.0572 3.09724 18.9879C3.16038 18.9187 3.24715 18.8756 3.34048 18.8671C3.4338 18.8586 3.52692 18.8854 3.60148 18.9422C3.67605 18.9989 3.72666 19.0815 3.74336 19.1737L3.74936 19.2412V21.51C3.74933 21.5978 3.78009 21.6828 3.83628 21.7502C3.89247 21.8176 3.97052 21.8632 4.05686 21.879L4.12436 21.885H19.8751C19.9629 21.885 20.0479 21.8543 20.1153 21.7981C20.1827 21.7419 20.2283 21.6638 20.2441 21.5775L20.2501 21.51V8.47724C20.2501 8.40605 20.2298 8.33633 20.1916 8.27624L20.1481 8.21999L16.1784 4.00349C16.1221 3.94388 16.0478 3.90436 15.9669 3.89099L15.9054 3.88574H4.12436C4.03659 3.88571 3.95159 3.91647 3.88417 3.97266C3.81674 4.02885 3.77116 4.10691 3.75536 4.19324L3.74936 4.26074V5.73824C3.74953 5.83195 3.71461 5.92233 3.65148 5.99158C3.58834 6.06083 3.50157 6.10393 3.40824 6.1124C3.31492 6.12087 3.2218 6.09408 3.14724 6.03733C3.07267 5.98057 3.02205 5.89795 3.00536 5.80574L2.99936 5.73824V4.26074C2.99919 3.98095 3.10328 3.71114 3.29132 3.50396C3.47936 3.29678 3.73786 3.1671 4.01636 3.14024L4.12436 3.13574H15.9054ZM11.6244 14.3805C12.3206 14.3805 12.9882 14.6571 13.4805 15.1493C13.9728 15.6416 14.2494 16.3093 14.2494 17.0055C14.2494 17.7017 13.9728 18.3694 13.4805 18.8616C12.9882 19.3539 12.3206 19.6305 11.6244 19.6305C10.9282 19.6305 10.2605 19.3539 9.7682 18.8616C9.27592 18.3694 8.99936 17.7017 8.99936 17.0055C8.99936 16.3093 9.27592 15.6416 9.7682 15.1493C10.2605 14.6571 10.9282 14.3805 11.6244 14.3805ZM11.6244 15.1305C11.1271 15.1305 10.6502 15.328 10.2985 15.6797C9.9469 16.0313 9.74936 16.5082 9.74936 17.0055C9.74936 17.5028 9.9469 17.9797 10.2985 18.3313C10.6502 18.6829 11.1271 18.8805 11.6244 18.8805C12.1216 18.8805 12.5986 18.6829 12.9502 18.3313C13.3018 17.9797 13.4994 17.5028 13.4994 17.0055C13.4994 16.5082 13.3018 16.0313 12.9502 15.6797C12.5986 15.328 12.1216 15.1305 11.6244 15.1305ZM13.8744 6.88049C14.165 6.88061 14.4516 6.9483 14.7116 7.0782C14.9716 7.2081 15.1978 7.39666 15.3725 7.629C15.5471 7.86134 15.6653 8.13108 15.7178 8.41695C15.7702 8.70281 15.7555 8.99695 15.6748 9.27616C15.5941 9.55537 15.4496 9.81199 15.2527 10.0258C15.0558 10.2395 14.8119 10.4046 14.5403 10.508C14.2686 10.6113 13.9767 10.6501 13.6875 10.6212C13.3983 10.5924 13.1197 10.4967 12.8739 10.3417L11.5981 11.478C11.8554 12.0165 11.9994 12.6195 11.9994 13.2555C11.9994 13.3549 11.9599 13.4503 11.8895 13.5207C11.8192 13.591 11.7238 13.6305 11.6244 13.6305C11.5249 13.6305 11.4295 13.591 11.3592 13.5207C11.2889 13.4503 11.2494 13.3549 11.2494 13.2555C11.2494 12.588 11.0514 11.9355 10.6806 11.3804C10.3097 10.8254 9.78262 10.3928 9.16592 10.1374C8.54922 9.88195 7.87062 9.81512 7.21593 9.94534C6.56124 10.0756 5.95988 10.397 5.48787 10.869C5.01587 11.341 4.69443 11.9424 4.56421 12.5971C4.43398 13.2517 4.50082 13.9303 4.75627 14.547C5.01171 15.1637 5.44429 15.6909 5.99931 16.0617C6.55433 16.4326 7.20685 16.6305 7.87436 16.6305C7.97382 16.6305 8.0692 16.67 8.13953 16.7403C8.20985 16.8107 8.24936 16.906 8.24936 17.0055C8.24936 17.1049 8.20985 17.2003 8.13953 17.2707C8.0692 17.341 7.97382 17.3805 7.87436 17.3805C7.169 17.3804 6.47545 17.1994 5.85997 16.8549C5.2445 16.5103 4.72765 16.0137 4.35883 15.4124C3.99 14.8112 3.78151 14.1254 3.75328 13.4206C3.72505 12.7158 3.87802 12.0155 4.19757 11.3867C4.51713 10.7579 4.99259 10.2215 5.57853 9.82884C6.16448 9.43615 6.84133 9.20028 7.54442 9.14376C8.24751 9.08723 8.95336 9.21195 9.59451 9.50598C10.2357 9.80001 10.7907 10.2535 11.2066 10.8232L12.3316 9.82124C12.1372 9.53985 12.0235 9.21064 12.0027 8.86925C11.982 8.52786 12.055 8.1873 12.2139 7.88444C12.3728 7.58157 12.6115 7.32792 12.9042 7.15097C13.1968 6.97401 13.5323 6.88048 13.8744 6.88049ZM5.99936 12.1305C6.19827 12.1305 6.38904 12.2095 6.52969 12.3502C6.67034 12.4908 6.74936 12.6816 6.74936 12.8805C6.74936 13.0794 6.67034 13.2702 6.52969 13.4108C6.38904 13.5515 6.19827 13.6305 5.99936 13.6305C5.80045 13.6305 5.60968 13.5515 5.46903 13.4108C5.32838 13.2702 5.24936 13.0794 5.24936 12.8805C5.24936 12.6816 5.32838 12.4908 5.46903 12.3502C5.60968 12.2095 5.80045 12.1305 5.99936 12.1305ZM4.67186 6.51749C5.18546 6.55343 5.67715 6.7396 6.08575 7.05285C6.49434 7.3661 6.8018 7.79259 6.96986 8.27924C6.98635 8.32587 6.99345 8.3753 6.99076 8.42469C6.98807 8.47408 6.97563 8.52244 6.95417 8.567C6.93271 8.61156 6.90264 8.65144 6.8657 8.68433C6.82876 8.71722 6.78569 8.74248 6.73894 8.75865C6.6922 8.77483 6.64273 8.7816 6.59336 8.77857C6.54399 8.77554 6.49571 8.76278 6.4513 8.74101C6.40688 8.71925 6.36722 8.68891 6.33457 8.65175C6.30193 8.61459 6.27697 8.57134 6.26111 8.52449C6.16408 8.24371 6.00173 7.99 5.78743 7.78427C5.57313 7.57854 5.313 7.42668 5.0285 7.34119C4.74399 7.2557 4.44325 7.23904 4.15104 7.29257C3.85883 7.34611 3.58353 7.46831 3.34781 7.6491C3.11209 7.8299 2.9227 8.06412 2.79525 8.33247C2.6678 8.60081 2.60594 8.89559 2.61476 9.19253C2.62358 9.48948 2.70283 9.78007 2.84598 10.0404C2.98912 10.3007 3.19208 10.5233 3.43811 10.6897C3.48043 10.7166 3.51693 10.7517 3.54545 10.793C3.57397 10.8342 3.59392 10.8808 3.60413 10.9299C3.61434 10.979 3.6146 11.0296 3.60489 11.0788C3.59518 11.128 3.5757 11.1748 3.54761 11.2163C3.51952 11.2579 3.48338 11.2934 3.44133 11.3207C3.39928 11.348 3.35218 11.3666 3.30281 11.3754C3.25344 11.3842 3.20281 11.383 3.15391 11.3719C3.10501 11.3608 3.05883 11.34 3.01811 11.3107C2.53955 10.9872 2.18107 10.5149 1.99824 9.96691C1.8154 9.41896 1.81842 8.82599 2.00682 8.27992C2.19522 7.73385 2.55849 7.26518 3.04032 6.94654C3.52214 6.6279 4.09562 6.47709 4.67186 6.51749ZM13.8744 7.63049C13.576 7.63049 13.2898 7.74902 13.0789 7.96C12.8679 8.17098 12.7494 8.45712 12.7494 8.75549C12.7494 9.05386 12.8679 9.34001 13.0789 9.55099C13.2898 9.76197 13.576 9.88049 13.8744 9.88049C14.1727 9.88049 14.4589 9.76197 14.6699 9.55099C14.8808 9.34001 14.9994 9.05386 14.9994 8.75549C14.9994 8.45712 14.8808 8.17098 14.6699 7.96C14.4589 7.74902 14.1727 7.63049 13.8744 7.63049Z"/>
</mask>
<path d="M15.9054 3.13574C16.1769 3.13574 16.4379 3.23324 16.6411 3.40949L16.7244 3.48899L20.6941 7.70624C20.862 7.88413 20.9673 8.11188 20.9941 8.35499L21.0001 8.47724V21.51C21.0001 21.7897 20.8959 22.0593 20.7079 22.2663C20.5199 22.4733 20.2615 22.6029 19.9831 22.6297L19.8751 22.635H4.12436C3.8447 22.635 3.57507 22.5308 3.36805 22.3428C3.16102 22.1548 3.03146 21.8964 3.00461 21.618L2.99936 21.51V19.2412C2.99919 19.1475 3.03411 19.0572 3.09724 18.9879C3.16038 18.9187 3.24715 18.8756 3.34048 18.8671C3.4338 18.8586 3.52692 18.8854 3.60148 18.9422C3.67605 18.9989 3.72666 19.0815 3.74336 19.1737L3.74936 19.2412V21.51C3.74933 21.5978 3.78009 21.6828 3.83628 21.7502C3.89247 21.8176 3.97052 21.8632 4.05686 21.879L4.12436 21.885H19.8751C19.9629 21.885 20.0479 21.8543 20.1153 21.7981C20.1827 21.7419 20.2283 21.6638 20.2441 21.5775L20.2501 21.51V8.47724C20.2501 8.40605 20.2298 8.33633 20.1916 8.27624L20.1481 8.21999L16.1784 4.00349C16.1221 3.94388 16.0478 3.90436 15.9669 3.89099L15.9054 3.88574H4.12436C4.03659 3.88571 3.95159 3.91647 3.88417 3.97266C3.81674 4.02885 3.77116 4.10691 3.75536 4.19324L3.74936 4.26074V5.73824C3.74953 5.83195 3.71461 5.92233 3.65148 5.99158C3.58834 6.06083 3.50157 6.10393 3.40824 6.1124C3.31492 6.12087 3.2218 6.09408 3.14724 6.03733C3.07267 5.98057 3.02205 5.89795 3.00536 5.80574L2.99936 5.73824V4.26074C2.99919 3.98095 3.10328 3.71114 3.29132 3.50396C3.47936 3.29678 3.73786 3.1671 4.01636 3.14024L4.12436 3.13574H15.9054ZM11.6244 14.3805C12.3206 14.3805 12.9882 14.6571 13.4805 15.1493C13.9728 15.6416 14.2494 16.3093 14.2494 17.0055C14.2494 17.7017 13.9728 18.3694 13.4805 18.8616C12.9882 19.3539 12.3206 19.6305 11.6244 19.6305C10.9282 19.6305 10.2605 19.3539 9.7682 18.8616C9.27592 18.3694 8.99936 17.7017 8.99936 17.0055C8.99936 16.3093 9.27592 15.6416 9.7682 15.1493C10.2605 14.6571 10.9282 14.3805 11.6244 14.3805ZM11.6244 15.1305C11.1271 15.1305 10.6502 15.328 10.2985 15.6797C9.9469 16.0313 9.74936 16.5082 9.74936 17.0055C9.74936 17.5028 9.9469 17.9797 10.2985 18.3313C10.6502 18.6829 11.1271 18.8805 11.6244 18.8805C12.1216 18.8805 12.5986 18.6829 12.9502 18.3313C13.3018 17.9797 13.4994 17.5028 13.4994 17.0055C13.4994 16.5082 13.3018 16.0313 12.9502 15.6797C12.5986 15.328 12.1216 15.1305 11.6244 15.1305ZM13.8744 6.88049C14.165 6.88061 14.4516 6.9483 14.7116 7.0782C14.9716 7.2081 15.1978 7.39666 15.3725 7.629C15.5471 7.86134 15.6653 8.13108 15.7178 8.41695C15.7702 8.70281 15.7555 8.99695 15.6748 9.27616C15.5941 9.55537 15.4496 9.81199 15.2527 10.0258C15.0558 10.2395 14.8119 10.4046 14.5403 10.508C14.2686 10.6113 13.9767 10.6501 13.6875 10.6212C13.3983 10.5924 13.1197 10.4967 12.8739 10.3417L11.5981 11.478C11.8554 12.0165 11.9994 12.6195 11.9994 13.2555C11.9994 13.3549 11.9599 13.4503 11.8895 13.5207C11.8192 13.591 11.7238 13.6305 11.6244 13.6305C11.5249 13.6305 11.4295 13.591 11.3592 13.5207C11.2889 13.4503 11.2494 13.3549 11.2494 13.2555C11.2494 12.588 11.0514 11.9355 10.6806 11.3804C10.3097 10.8254 9.78262 10.3928 9.16592 10.1374C8.54922 9.88195 7.87062 9.81512 7.21593 9.94534C6.56124 10.0756 5.95988 10.397 5.48787 10.869C5.01587 11.341 4.69443 11.9424 4.56421 12.5971C4.43398 13.2517 4.50082 13.9303 4.75627 14.547C5.01171 15.1637 5.44429 15.6909 5.99931 16.0617C6.55433 16.4326 7.20685 16.6305 7.87436 16.6305C7.97382 16.6305 8.0692 16.67 8.13953 16.7403C8.20985 16.8107 8.24936 16.906 8.24936 17.0055C8.24936 17.1049 8.20985 17.2003 8.13953 17.2707C8.0692 17.341 7.97382 17.3805 7.87436 17.3805C7.169 17.3804 6.47545 17.1994 5.85997 16.8549C5.2445 16.5103 4.72765 16.0137 4.35883 15.4124C3.99 14.8112 3.78151 14.1254 3.75328 13.4206C3.72505 12.7158 3.87802 12.0155 4.19757 11.3867C4.51713 10.7579 4.99259 10.2215 5.57853 9.82884C6.16448 9.43615 6.84133 9.20028 7.54442 9.14376C8.24751 9.08723 8.95336 9.21195 9.59451 9.50598C10.2357 9.80001 10.7907 10.2535 11.2066 10.8232L12.3316 9.82124C12.1372 9.53985 12.0235 9.21064 12.0027 8.86925C11.982 8.52786 12.055 8.1873 12.2139 7.88444C12.3728 7.58157 12.6115 7.32792 12.9042 7.15097C13.1968 6.97401 13.5323 6.88048 13.8744 6.88049ZM5.99936 12.1305C6.19827 12.1305 6.38904 12.2095 6.52969 12.3502C6.67034 12.4908 6.74936 12.6816 6.74936 12.8805C6.74936 13.0794 6.67034 13.2702 6.52969 13.4108C6.38904 13.5515 6.19827 13.6305 5.99936 13.6305C5.80045 13.6305 5.60968 13.5515 5.46903 13.4108C5.32838 13.2702 5.24936 13.0794 5.24936 12.8805C5.24936 12.6816 5.32838 12.4908 5.46903 12.3502C5.60968 12.2095 5.80045 12.1305 5.99936 12.1305ZM4.67186 6.51749C5.18546 6.55343 5.67715 6.7396 6.08575 7.05285C6.49434 7.3661 6.8018 7.79259 6.96986 8.27924C6.98635 8.32587 6.99345 8.3753 6.99076 8.42469C6.98807 8.47408 6.97563 8.52244 6.95417 8.567C6.93271 8.61156 6.90264 8.65144 6.8657 8.68433C6.82876 8.71722 6.78569 8.74248 6.73894 8.75865C6.6922 8.77483 6.64273 8.7816 6.59336 8.77857C6.54399 8.77554 6.49571 8.76278 6.4513 8.74101C6.40688 8.71925 6.36722 8.68891 6.33457 8.65175C6.30193 8.61459 6.27697 8.57134 6.26111 8.52449C6.16408 8.24371 6.00173 7.99 5.78743 7.78427C5.57313 7.57854 5.313 7.42668 5.0285 7.34119C4.74399 7.2557 4.44325 7.23904 4.15104 7.29257C3.85883 7.34611 3.58353 7.46831 3.34781 7.6491C3.11209 7.8299 2.9227 8.06412 2.79525 8.33247C2.6678 8.60081 2.60594 8.89559 2.61476 9.19253C2.62358 9.48948 2.70283 9.78007 2.84598 10.0404C2.98912 10.3007 3.19208 10.5233 3.43811 10.6897C3.48043 10.7166 3.51693 10.7517 3.54545 10.793C3.57397 10.8342 3.59392 10.8808 3.60413 10.9299C3.61434 10.979 3.6146 11.0296 3.60489 11.0788C3.59518 11.128 3.5757 11.1748 3.54761 11.2163C3.51952 11.2579 3.48338 11.2934 3.44133 11.3207C3.39928 11.348 3.35218 11.3666 3.30281 11.3754C3.25344 11.3842 3.20281 11.383 3.15391 11.3719C3.10501 11.3608 3.05883 11.34 3.01811 11.3107C2.53955 10.9872 2.18107 10.5149 1.99824 9.96691C1.8154 9.41896 1.81842 8.82599 2.00682 8.27992C2.19522 7.73385 2.55849 7.26518 3.04032 6.94654C3.52214 6.6279 4.09562 6.47709 4.67186 6.51749ZM13.8744 7.63049C13.576 7.63049 13.2898 7.74902 13.0789 7.96C12.8679 8.17098 12.7494 8.45712 12.7494 8.75549C12.7494 9.05386 12.8679 9.34001 13.0789 9.55099C13.2898 9.76197 13.576 9.88049 13.8744 9.88049C14.1727 9.88049 14.4589 9.76197 14.6699 9.55099C14.8808 9.34001 14.9994 9.05386 14.9994 8.75549C14.9994 8.45712 14.8808 8.17098 14.6699 7.96C14.4589 7.74902 14.1727 7.63049 13.8744 7.63049Z" fill="#061926"/>
<path d="M15.9054 3.13574C16.1769 3.13574 16.4379 3.23324 16.6411 3.40949L16.7244 3.48899L20.6941 7.70624C20.862 7.88413 20.9673 8.11188 20.9941 8.35499L21.0001 8.47724V21.51C21.0001 21.7897 20.8959 22.0593 20.7079 22.2663C20.5199 22.4733 20.2615 22.6029 19.9831 22.6297L19.8751 22.635H4.12436C3.8447 22.635 3.57507 22.5308 3.36805 22.3428C3.16102 22.1548 3.03146 21.8964 3.00461 21.618L2.99936 21.51V19.2412C2.99919 19.1475 3.03411 19.0572 3.09724 18.9879C3.16038 18.9187 3.24715 18.8756 3.34048 18.8671C3.4338 18.8586 3.52692 18.8854 3.60148 18.9422C3.67605 18.9989 3.72666 19.0815 3.74336 19.1737L3.74936 19.2412V21.51C3.74933 21.5978 3.78009 21.6828 3.83628 21.7502C3.89247 21.8176 3.97052 21.8632 4.05686 21.879L4.12436 21.885H19.8751C19.9629 21.885 20.0479 21.8543 20.1153 21.7981C20.1827 21.7419 20.2283 21.6638 20.2441 21.5775L20.2501 21.51V8.47724C20.2501 8.40605 20.2298 8.33633 20.1916 8.27624L20.1481 8.21999L16.1784 4.00349C16.1221 3.94388 16.0478 3.90436 15.9669 3.89099L15.9054 3.88574H4.12436C4.03659 3.88571 3.95159 3.91647 3.88417 3.97266C3.81674 4.02885 3.77116 4.10691 3.75536 4.19324L3.74936 4.26074V5.73824C3.74953 5.83195 3.71461 5.92233 3.65148 5.99158C3.58834 6.06083 3.50157 6.10393 3.40824 6.1124C3.31492 6.12087 3.2218 6.09408 3.14724 6.03733C3.07267 5.98057 3.02205 5.89795 3.00536 5.80574L2.99936 5.73824V4.26074C2.99919 3.98095 3.10328 3.71114 3.29132 3.50396C3.47936 3.29678 3.73786 3.1671 4.01636 3.14024L4.12436 3.13574H15.9054ZM11.6244 14.3805C12.3206 14.3805 12.9882 14.6571 13.4805 15.1493C13.9728 15.6416 14.2494 16.3093 14.2494 17.0055C14.2494 17.7017 13.9728 18.3694 13.4805 18.8616C12.9882 19.3539 12.3206 19.6305 11.6244 19.6305C10.9282 19.6305 10.2605 19.3539 9.7682 18.8616C9.27592 18.3694 8.99936 17.7017 8.99936 17.0055C8.99936 16.3093 9.27592 15.6416 9.7682 15.1493C10.2605 14.6571 10.9282 14.3805 11.6244 14.3805ZM11.6244 15.1305C11.1271 15.1305 10.6502 15.328 10.2985 15.6797C9.9469 16.0313 9.74936 16.5082 9.74936 17.0055C9.74936 17.5028 9.9469 17.9797 10.2985 18.3313C10.6502 18.6829 11.1271 18.8805 11.6244 18.8805C12.1216 18.8805 12.5986 18.6829 12.9502 18.3313C13.3018 17.9797 13.4994 17.5028 13.4994 17.0055C13.4994 16.5082 13.3018 16.0313 12.9502 15.6797C12.5986 15.328 12.1216 15.1305 11.6244 15.1305ZM13.8744 6.88049C14.165 6.88061 14.4516 6.9483 14.7116 7.0782C14.9716 7.2081 15.1978 7.39666 15.3725 7.629C15.5471 7.86134 15.6653 8.13108 15.7178 8.41695C15.7702 8.70281 15.7555 8.99695 15.6748 9.27616C15.5941 9.55537 15.4496 9.81199 15.2527 10.0258C15.0558 10.2395 14.8119 10.4046 14.5403 10.508C14.2686 10.6113 13.9767 10.6501 13.6875 10.6212C13.3983 10.5924 13.1197 10.4967 12.8739 10.3417L11.5981 11.478C11.8554 12.0165 11.9994 12.6195 11.9994 13.2555C11.9994 13.3549 11.9599 13.4503 11.8895 13.5207C11.8192 13.591 11.7238 13.6305 11.6244 13.6305C11.5249 13.6305 11.4295 13.591 11.3592 13.5207C11.2889 13.4503 11.2494 13.3549 11.2494 13.2555C11.2494 12.588 11.0514 11.9355 10.6806 11.3804C10.3097 10.8254 9.78262 10.3928 9.16592 10.1374C8.54922 9.88195 7.87062 9.81512 7.21593 9.94534C6.56124 10.0756 5.95988 10.397 5.48787 10.869C5.01587 11.341 4.69443 11.9424 4.56421 12.5971C4.43398 13.2517 4.50082 13.9303 4.75627 14.547C5.01171 15.1637 5.44429 15.6909 5.99931 16.0617C6.55433 16.4326 7.20685 16.6305 7.87436 16.6305C7.97382 16.6305 8.0692 16.67 8.13953 16.7403C8.20985 16.8107 8.24936 16.906 8.24936 17.0055C8.24936 17.1049 8.20985 17.2003 8.13953 17.2707C8.0692 17.341 7.97382 17.3805 7.87436 17.3805C7.169 17.3804 6.47545 17.1994 5.85997 16.8549C5.2445 16.5103 4.72765 16.0137 4.35883 15.4124C3.99 14.8112 3.78151 14.1254 3.75328 13.4206C3.72505 12.7158 3.87802 12.0155 4.19757 11.3867C4.51713 10.7579 4.99259 10.2215 5.57853 9.82884C6.16448 9.43615 6.84133 9.20028 7.54442 9.14376C8.24751 9.08723 8.95336 9.21195 9.59451 9.50598C10.2357 9.80001 10.7907 10.2535 11.2066 10.8232L12.3316 9.82124C12.1372 9.53985 12.0235 9.21064 12.0027 8.86925C11.982 8.52786 12.055 8.1873 12.2139 7.88444C12.3728 7.58157 12.6115 7.32792 12.9042 7.15097C13.1968 6.97401 13.5323 6.88048 13.8744 6.88049ZM5.99936 12.1305C6.19827 12.1305 6.38904 12.2095 6.52969 12.3502C6.67034 12.4908 6.74936 12.6816 6.74936 12.8805C6.74936 13.0794 6.67034 13.2702 6.52969 13.4108C6.38904 13.5515 6.19827 13.6305 5.99936 13.6305C5.80045 13.6305 5.60968 13.5515 5.46903 13.4108C5.32838 13.2702 5.24936 13.0794 5.24936 12.8805C5.24936 12.6816 5.32838 12.4908 5.46903 12.3502C5.60968 12.2095 5.80045 12.1305 5.99936 12.1305ZM4.67186 6.51749C5.18546 6.55343 5.67715 6.7396 6.08575 7.05285C6.49434 7.3661 6.8018 7.79259 6.96986 8.27924C6.98635 8.32587 6.99345 8.3753 6.99076 8.42469C6.98807 8.47408 6.97563 8.52244 6.95417 8.567C6.93271 8.61156 6.90264 8.65144 6.8657 8.68433C6.82876 8.71722 6.78569 8.74248 6.73894 8.75865C6.6922 8.77483 6.64273 8.7816 6.59336 8.77857C6.54399 8.77554 6.49571 8.76278 6.4513 8.74101C6.40688 8.71925 6.36722 8.68891 6.33457 8.65175C6.30193 8.61459 6.27697 8.57134 6.26111 8.52449C6.16408 8.24371 6.00173 7.99 5.78743 7.78427C5.57313 7.57854 5.313 7.42668 5.0285 7.34119C4.74399 7.2557 4.44325 7.23904 4.15104 7.29257C3.85883 7.34611 3.58353 7.46831 3.34781 7.6491C3.11209 7.8299 2.9227 8.06412 2.79525 8.33247C2.6678 8.60081 2.60594 8.89559 2.61476 9.19253C2.62358 9.48948 2.70283 9.78007 2.84598 10.0404C2.98912 10.3007 3.19208 10.5233 3.43811 10.6897C3.48043 10.7166 3.51693 10.7517 3.54545 10.793C3.57397 10.8342 3.59392 10.8808 3.60413 10.9299C3.61434 10.979 3.6146 11.0296 3.60489 11.0788C3.59518 11.128 3.5757 11.1748 3.54761 11.2163C3.51952 11.2579 3.48338 11.2934 3.44133 11.3207C3.39928 11.348 3.35218 11.3666 3.30281 11.3754C3.25344 11.3842 3.20281 11.383 3.15391 11.3719C3.10501 11.3608 3.05883 11.34 3.01811 11.3107C2.53955 10.9872 2.18107 10.5149 1.99824 9.96691C1.8154 9.41896 1.81842 8.82599 2.00682 8.27992C2.19522 7.73385 2.55849 7.26518 3.04032 6.94654C3.52214 6.6279 4.09562 6.47709 4.67186 6.51749ZM13.8744 7.63049C13.576 7.63049 13.2898 7.74902 13.0789 7.96C12.8679 8.17098 12.7494 8.45712 12.7494 8.75549C12.7494 9.05386 12.8679 9.34001 13.0789 9.55099C13.2898 9.76197 13.576 9.88049 13.8744 9.88049C14.1727 9.88049 14.4589 9.76197 14.6699 9.55099C14.8808 9.34001 14.9994 9.05386 14.9994 8.75549C14.9994 8.45712 14.8808 8.17098 14.6699 7.96C14.4589 7.74902 14.1727 7.63049 13.8744 7.63049Z" stroke="#061926" stroke-width="0.6" mask="url(#path-1-outside-1_564_85481)"/>
</svg>
