<?xml version="1.0" encoding="UTF-8"?>
<svg width="540px" height="159px" viewBox="0 0 540 159" version="1.1" xmlns="http://www.w3.org/2000/svg" xmlns:xlink="http://www.w3.org/1999/xlink">
    <title>编组@1x</title>
    <defs>
        <polygon id="path-1" points="0 0.099 393.8237 0.099 393.8237 157.9995 0 157.9995"></polygon>
        <polygon id="path-3" points="0 158.901 539.521 158.901 539.521 1 0 1"></polygon>
    </defs>
    <g id="页面-1" stroke="none" stroke-width="1" fill="none" fill-rule="evenodd">
        <g id="编组">
            <g transform="translate(0.000000, 0.901000)">
                <mask id="mask-2" fill="white">
                    <use xlink:href="#path-1"></use>
                </mask>
                <g id="Clip-2"></g>
                <path d="M381.4077,14.6855 L354.9367,49.8905 C351.6947,21.9025 327.8617,0.0985 299.0177,0.0985 C280.6137,0.0985 264.2467,8.9745 253.9657,22.6685 L233.5737,49.8195 C230.2997,21.8665 206.4827,0.0985 177.6637,0.0985 C159.2647,0.0985 142.9007,8.9705 132.6187,22.6585 L112.2077,49.7285 C108.8927,21.8185 85.0957,0.0985 56.3087,0.0985 C25.2607,0.0985 -0.0003,25.3595 -0.0003,56.4075 C-0.0003,87.4555 25.2607,112.7155 56.3087,112.7155 C59.3857,112.7155 62.4007,112.4575 65.3457,111.9805 L37.7337,148.6595 L50.1437,157.9995 L99.2227,92.8035 L121.7397,62.8925 C124.9677,90.8955 148.8087,112.7155 177.6637,112.7155 C196.0667,112.7155 212.4347,103.8395 222.7167,90.1445 L243.1077,62.9955 C246.3827,90.9485 270.1997,112.7155 299.0177,112.7155 C317.4177,112.7155 333.7827,103.8435 344.0637,90.1535 L393.8237,24.0225 L381.4077,14.6855 Z" id="Fill-1" fill="#000000" mask="url(#mask-2)"></path>
            </g>
            <path d="M465.4478,86.9381 C466.5498,88.3841 469.0348,86.9601 467.9188,85.4951 C466.0168,82.9951 464.1158,80.4961 462.2148,77.9971 C461.1138,76.5511 458.6298,77.9741 459.7448,79.4401 C461.6458,81.9401 463.5478,84.4391 465.4478,86.9381" id="Fill-3" fill="#000000"></path>
            <path d="M442.2271,101.9698 C441.1261,100.5248 438.6421,101.9478 439.7571,103.4138 C442.4291,106.9228 445.1001,110.4318 447.7721,113.9408 C448.8731,115.3868 451.3581,113.9638 450.2431,112.4978 C447.5701,108.9888 444.8991,105.4788 442.2271,101.9698" id="Fill-5" fill="#000000"></path>
            <path d="M424.0982,101.9698 C421.4272,105.4788 418.7562,108.9888 416.0832,112.4978 C414.9692,113.9618 417.4522,115.3878 418.5542,113.9408 C421.2262,110.4318 423.8972,106.9228 426.5692,103.4138 C427.6842,101.9488 425.2012,100.5228 424.0982,101.9698" id="Fill-7" fill="#000000"></path>
            <mask id="mask-4" fill="white">
                <use xlink:href="#path-3"></use>
            </mask>
            <g id="Clip-10"></g>
            <path d="M426.999,97.079 L439.691,97.079 L439.691,86.589 L426.999,86.589 L426.999,97.079 Z M451.497,97.079 L442.625,97.079 L442.625,86.588 L451.302,86.588 L451.302,86.586 C451.307,86.586 451.31,86.588 451.313,86.588 C452.077,86.588 452.695,85.97 452.695,85.207 C452.695,84.444 452.077,83.826 451.313,83.826 C451.31,83.826 451.307,83.828 451.302,83.828 L451.302,83.826 L442.625,83.826 L442.625,76.444 C442.625,75.634 441.968,74.977 441.158,74.977 C440.348,74.977 439.691,75.634 439.691,76.444 L439.691,83.826 L426.999,83.826 L426.999,76.444 C426.999,75.634 426.341,74.977 425.532,74.977 C424.721,74.977 424.065,75.634 424.065,76.444 L424.065,83.826 L415.777,83.826 C415.014,83.826 414.395,84.444 414.395,85.207 C414.395,85.97 415.014,86.588 415.777,86.588 L424.065,86.588 L424.065,97.079 L415.409,97.079 C414.634,97.079 414.006,97.707 414.006,98.481 C414.006,99.255 414.634,99.883 415.409,99.883 L451.497,99.883 C452.271,99.883 452.899,99.255 452.899,98.481 C452.899,97.707 452.271,97.079 451.497,97.079 L451.497,97.079 Z" id="Fill-9" fill="#000000" mask="url(#mask-4)"></path>
            <path d="M473.3374,105.5587 C478.7704,101.7287 481.7134,97.9837 483.3534,92.0717 C487.6264,96.6027 491.1924,102.0697 493.6104,105.6087 C494.1114,106.2757 495.0584,106.4107 495.7254,105.9107 C496.3924,105.4097 496.5274,104.4627 496.0264,103.7957 C493.3084,99.8677 488.8364,93.7107 484.0444,88.9617 C484.2164,87.9697 484.3894,86.9777 484.5194,85.8967 L494.1134,85.8967 C494.8884,85.8967 495.5164,85.2687 495.5164,84.4947 C495.5164,83.7197 494.8884,83.0917 494.1134,83.0917 L484.8204,83.0917 C485.0364,80.3717 485.1654,79.5387 485.2524,76.6477 C485.2524,75.8367 484.5964,75.1797 483.7844,75.1797 C482.9734,75.1797 482.3164,75.8367 482.3164,76.6477 C482.2304,79.5387 482.1454,80.3717 481.9294,83.0917 L472.8524,83.0917 C472.0774,83.0917 471.4484,83.7197 471.4484,84.4947 C471.4484,85.2687 472.0774,85.8967 472.8524,85.8967 L481.6274,85.8967 C480.6334,93.5817 477.5074,98.9927 471.3954,103.3567 C470.7864,103.8927 470.7294,104.8207 471.2654,105.4287 C471.8004,106.0367 472.7284,106.0947 473.3374,105.5587" id="Fill-11" fill="#000000" mask="url(#mask-4)"></path>
            <path d="M496.8589,109.8976 L482.7489,109.8976 C477.7859,109.8976 474.2889,109.5976 471.4819,107.7396 C470.0179,106.7626 469.4749,105.9846 468.1169,105.2356 L468.1169,92.3676 C468.1169,91.4406 467.3649,90.6896 466.4389,90.6896 L459.8339,90.6896 L459.8339,90.6966 C459.8229,90.6966 459.8129,90.6896 459.8009,90.6896 C459.0389,90.6896 458.4209,91.3086 458.4209,92.0716 C458.4209,92.8346 459.0389,93.4526 459.8009,93.4526 C459.8129,93.4526 459.8229,93.4466 459.8339,93.4466 L459.8339,93.4526 L465.2669,93.4526 L465.2669,105.0646 C463.6289,106.7026 459.7059,110.0316 459.3909,110.3466 C458.7639,110.8156 458.6349,111.7046 459.1029,112.3316 C459.5719,112.9596 460.4619,113.0876 461.0879,112.6196 C463.8839,109.8226 466.6909,107.2666 466.6909,107.2666 C466.6909,107.2666 469.0219,108.9056 470.7059,110.0706 C473.6839,112.0996 477.2229,112.5756 482.6639,112.5756 L496.8339,112.5756 C497.5739,112.5826 498.1779,111.9886 498.184961,111.2496 C498.1919,110.5096 497.5989,109.9046 496.8589,109.8976" id="Fill-12" fill="#000000" mask="url(#mask-4)"></path>
            <path d="M538.4332,103.6696 C537.7172,103.5446 537.0362,104.0226 536.9092,104.7376 C536.6072,109.8316 536.1752,110.2866 533.6282,110.2866 L522.8802,110.2866 C519.9892,110.2866 519.4282,109.7266 519.4282,107.3956 L519.4282,88.6586 L525.6432,87.5846 L525.6432,102.3996 C525.6432,103.1506 526.2512,103.7596 527.0032,103.7596 C527.7542,103.7596 528.3632,103.1506 528.3632,102.3996 L528.3632,87.1136 L534.7932,86.0016 C534.7902,92.8246 534.7052,97.7866 534.4492,98.8916 C534.2332,99.8836 533.7592,100.0996 533.1102,100.0996 L530.7752,100.0996 C530.1082,100.1006 529.5682,100.6436 529.5692,101.3116 C529.5712,101.9786 530.1142,102.5186 530.7812,102.5176 C531.9472,102.5176 533.6282,102.5176 534.7512,102.2566 C536.0032,101.9986 537.1782,101.5466 537.1782,99.6236 L537.3222,84.3696 C537.3222,84.3256 537.3012,84.2886 537.2962,84.2456 C537.2942,84.2316 537.3002,84.2176 537.2972,84.2026 C537.2942,84.1836 537.2822,84.1696 537.2772,84.1496 C537.2162,83.8146 537.0322,83.5346 536.7612,83.3476 C536.7492,83.3386 536.7372,83.3316 536.7242,83.3226 C536.6212,83.2556 536.5122,83.2066 536.3912,83.1726 C536.3012,83.1426 536.2102,83.1276 536.1152,83.1166 C536.0942,83.1156 536.0782,83.1056 536.0582,83.1056 C536.0422,83.1056 536.0302,83.1136 536.0142,83.1136 C535.9232,83.1106 535.8362,83.0906 535.7432,83.1066 L528.3632,84.3826 L528.3632,77.3276 C528.3632,76.5766 527.7542,75.9676 527.0032,75.9676 C526.2512,75.9676 525.6432,76.5766 525.6432,77.3276 L525.6432,84.8536 L524.5832,85.0366 L519.4282,85.9276 L519.4282,78.5166 C519.4282,77.7656 518.8192,77.1566 518.0682,77.1566 C517.3162,77.1566 516.7072,77.7656 516.7072,78.5166 L516.7072,86.3986 L515.2382,86.6526 C514.5042,86.7796 514.0142,87.4756 514.1402,88.2076 C514.2682,88.9406 514.9632,89.4316 515.6962,89.3046 L516.7072,89.1296 L516.7072,107.3956 C516.7072,111.7966 518.0462,112.8766 522.8372,112.8766 L533.7152,112.8766 C538.1192,112.8766 539.0252,111.0206 539.5002,105.1926 C539.6262,104.4776 539.1482,103.7956 538.4332,103.6696" id="Fill-13" fill="#000000" mask="url(#mask-4)"></path>
            <path d="M511.6275,92.0494 C512.3775,92.0494 512.9865,91.4404 512.9865,90.6904 C512.9865,89.9394 512.3775,89.3314 511.6275,89.3314 L508.4195,89.3314 L508.4195,79.4454 C508.4195,78.6954 507.8115,78.0864 507.0595,78.0864 C506.3085,78.0864 505.6995,78.6954 505.6995,79.4454 L505.6995,89.3314 L502.0625,89.3314 C501.3125,89.3314 500.7025,89.9394 500.7025,90.6904 C500.7025,91.4404 501.3125,92.0494 502.0625,92.0494 L505.6995,92.0494 L505.6995,105.1234 L505.4555,105.1644 L501.8705,105.7784 C501.1305,105.9044 500.6335,106.6074 500.7605,107.3464 C500.8875,108.0874 501.5895,108.5844 502.3285,108.4574 L505.9145,107.8444 L511.7575,106.8444 C512.4975,106.7184 512.9945,106.0154 512.8675,105.2764 C512.7415,104.5364 512.0385,104.0394 511.2995,104.1654 L508.4195,104.6574 L508.4195,92.0494 L511.6275,92.0494 Z" id="Fill-14" fill="#000000" mask="url(#mask-4)"></path>
        </g>
    </g>
</svg>