<svg width="98" height="27" viewBox="0 0 98 27" fill="none" xmlns="http://www.w3.org/2000/svg">
<path fill-rule="evenodd" clip-rule="evenodd" d="M65.3797 9.88021C65.5921 10.028 65.9108 10.1019 66.3357 10.1019C66.7143 10.1019 67.0515 10.0511 67.3471 9.94948C67.6426 9.84788 67.9197 9.70934 68.1783 9.53384C68.2892 9.45071 68.4 9.36297 68.5108 9.2706C68.6217 9.17824 68.7325 9.07663 68.8434 8.9658C68.908 9.14129 69.0142 9.27522 69.162 9.36758C69.3098 9.45995 69.4622 9.50613 69.6192 9.50613H69.6885C69.7162 9.4969 69.7393 9.49228 69.7578 9.49228C69.9979 9.44609 70.2196 9.33987 70.4228 9.17362C70.6352 8.99812 70.8292 8.7903 71.0047 8.55016C71.1894 8.31001 71.3557 8.06524 71.5035 7.81586C71.6513 7.56647 71.7806 7.34941 71.8914 7.16468C71.8984 7.15062 71.9051 7.13655 71.9115 7.12249C72.1119 6.78508 72.2777 6.48511 72.409 6.22256L72.7692 5.50211C72.8524 5.53906 72.9586 5.55753 73.0879 5.55753C73.2541 5.55753 73.425 5.52521 73.6005 5.46055C73.776 5.38666 73.9284 5.29429 74.0577 5.18346C73.9099 5.41437 73.7806 5.6499 73.6698 5.89005C73.5682 6.1302 73.4851 6.32878 73.4204 6.4858C73.2449 6.91992 73.1064 7.34479 73.0048 7.76044C72.9032 8.17608 72.8523 8.55477 72.8523 8.89652C72.8523 9.20133 72.9032 9.46457 73.0048 9.68624C73.1341 9.93563 73.3465 10.0603 73.6421 10.0603C73.8637 10.0603 74.0947 9.98181 74.3348 9.82479C74.5842 9.66777 74.8151 9.48304 75.0275 9.2706C75.2492 9.05816 75.4201 8.86881 75.5402 8.70256C75.6991 8.48004 75.8546 8.25411 76.0067 8.02476C76.0001 8.10803 75.9968 8.1908 75.9968 8.27306C75.9968 8.4855 76.0245 8.6887 76.08 8.88267C76.2 9.30755 76.431 9.61697 76.7727 9.81094C77.1145 10.0049 77.4839 10.1019 77.8811 10.1019C78.3521 10.1019 78.8001 9.99105 79.225 9.76937C79.4744 9.64006 79.7053 9.48304 79.9177 9.29831C80.1302 9.11358 80.3195 8.91038 80.4858 8.6887C80.6527 8.46338 80.8158 8.23052 80.9752 7.99012C80.9666 8.08509 80.9623 8.1794 80.9623 8.27306C80.9623 8.4855 80.9901 8.6887 81.0455 8.88267C81.1656 9.30755 81.3965 9.61697 81.7382 9.81094C82.08 10.0049 82.4494 10.1019 82.8466 10.1019C83.3177 10.1019 83.7656 9.99105 84.1905 9.76937C84.4399 9.64006 84.6708 9.48304 84.8832 9.29831C85.0957 9.11358 85.285 8.91038 85.4513 8.6887C85.636 8.43932 85.8161 8.1807 85.9916 7.91284C86.1007 7.74923 86.2001 7.59368 86.2898 7.44617C86.2939 7.44207 86.2979 7.43598 86.3019 7.42792C86.3851 7.28937 86.4821 7.13235 86.5929 6.95686C86.7037 6.77213 86.8146 6.59664 86.9254 6.43038C87.0455 6.26412 87.1425 6.14405 87.2164 6.07016C87.3364 5.95932 87.4796 5.87157 87.6459 5.80692C87.8121 5.74226 88.0199 5.70994 88.2693 5.70994C88.4448 5.70994 88.6619 5.72841 88.9205 5.76535C89.1791 5.79306 89.41 5.82539 89.6132 5.86234L89.918 5.9039L89.6132 6.19485C89.4193 6.37958 89.1653 6.61973 88.8512 6.9153C88.5372 7.20163 88.1954 7.50643 87.826 7.82971C87.4657 8.15299 87.1194 8.44855 86.7869 8.71641C86.6575 8.82725 86.519 8.92885 86.3712 9.02122C86.2327 9.11358 86.1126 9.22442 86.011 9.35373C85.8817 9.51999 85.817 9.68162 85.817 9.83864C85.817 10.0234 85.8955 10.1157 86.0526 10.1157C86.1819 10.1157 86.3389 10.0418 86.5236 9.89406C86.5975 9.83864 86.6714 9.76937 86.7453 9.68624C86.8192 9.60311 86.8885 9.51999 86.9531 9.43686C86.9993 9.40915 87.0501 9.39529 87.1055 9.39529C87.1886 9.39529 87.2902 9.41838 87.4103 9.46457C87.5304 9.51075 87.6597 9.57079 87.7982 9.64468C88.0846 9.79246 88.3478 9.92639 88.588 10.0465C88.8281 10.1665 89.0729 10.2266 89.3223 10.2266C89.4793 10.2266 89.6363 10.1989 89.7933 10.1434C89.9596 10.088 90.1305 9.99567 90.306 9.86635C90.4907 9.73704 90.6662 9.56617 90.8324 9.35373C91.0079 9.14129 91.1834 8.91961 91.3589 8.6887C91.4328 8.59634 91.5021 8.49935 91.5667 8.39775C91.6406 8.29615 91.7145 8.18993 91.7884 8.07909C91.8056 8.05252 91.8224 8.02647 91.8388 8.00096C91.8309 8.09227 91.8269 8.18297 91.8269 8.27306C91.8269 8.4855 91.8547 8.6887 91.9101 8.88267C92.0302 9.30755 92.2611 9.61697 92.6028 9.81094C92.9446 10.0049 93.314 10.1019 93.7112 10.1019C94.1823 10.1019 94.6302 9.99105 95.0551 9.76937C95.3045 9.64006 95.5354 9.48304 95.7478 9.29831C95.9603 9.11358 96.1496 8.91038 96.3159 8.6887C96.5006 8.43932 96.6807 8.1807 96.8562 7.91284C97.0409 7.63574 97.198 7.38174 97.3273 7.15083C97.3827 7.04923 97.4196 6.95224 97.4381 6.85988C97.4658 6.75828 97.4797 6.66591 97.4797 6.58278C97.4797 6.435 97.452 6.36111 97.3965 6.36111C97.3688 6.36111 97.3365 6.39344 97.2996 6.45809C97.161 6.72595 97.0409 6.95224 96.9393 7.13697C96.8377 7.31247 96.7408 7.46949 96.6484 7.60803C96.556 7.74658 96.4452 7.89436 96.3159 8.05138C96.1496 8.26382 95.9418 8.4855 95.6924 8.71641C95.4523 8.94732 95.189 9.14129 94.9027 9.29831C94.6256 9.45533 94.3439 9.53384 94.0576 9.53384C93.7158 9.53384 93.4664 9.42762 93.3094 9.21518C93.1524 8.99351 93.0739 8.71179 93.0739 8.37004C93.0739 7.99135 93.1616 7.57571 93.3371 7.12312C93.5403 7.22472 93.8313 7.27552 94.21 7.27552C94.3947 7.27552 94.5887 7.26166 94.7919 7.23396C95.0043 7.19701 95.2029 7.14621 95.3876 7.08155C95.7663 6.94301 96.0711 6.74442 96.302 6.4858C96.5422 6.21794 96.6622 5.90852 96.6622 5.55753C96.6622 5.26197 96.5422 5.00334 96.302 4.78167C96.0619 4.55999 95.7247 4.44916 95.2906 4.44916C94.7087 4.44916 94.1776 4.61079 93.6973 4.93407C93.217 5.25735 92.8199 5.66375 92.5058 6.15329C92.3659 6.36961 92.2434 6.60126 92.1385 6.84826C92.0655 6.97821 91.9857 7.11601 91.8993 7.26167C91.7238 7.548 91.5436 7.81124 91.3589 8.05138C91.0726 8.42084 90.7216 8.72103 90.306 8.95194C89.8903 9.17362 89.4654 9.28446 89.0313 9.28446C88.7819 9.28446 88.5325 9.24289 88.2832 9.15976C88.043 9.07664 87.8121 8.94732 87.5904 8.77183L88.9759 7.41407C89.447 6.95224 89.918 6.49504 90.3891 6.04245C90.7031 5.74688 91.0033 5.46517 91.2896 5.19731C91.5852 4.92022 91.8531 4.67083 92.0932 4.44916C92.0378 4.43068 91.9731 4.41221 91.8993 4.39374C91.8254 4.36603 91.7515 4.35217 91.6776 4.35217C91.5667 4.35217 91.4836 4.3845 91.4282 4.44916C91.2896 4.61541 91.1557 4.73549 91.0264 4.80938C90.9063 4.87403 90.7447 4.90636 90.5415 4.90636C90.3937 4.90636 90.2044 4.88789 89.9734 4.85094C89.7425 4.814 89.4516 4.76781 89.1006 4.71239L88.9343 4.68469C88.805 4.66621 88.6803 4.64774 88.5603 4.62927C88.4402 4.61079 88.3293 4.60156 88.2277 4.60156C88.0523 4.60156 87.886 4.62927 87.729 4.68469C87.5073 4.77705 87.3226 4.9156 87.1748 5.10033C87.0362 5.28506 86.8977 5.52059 86.7591 5.80692C86.7499 5.83463 86.7176 5.9039 86.6622 6.01474L86.4821 6.37496C86.4774 6.38575 86.4728 6.39644 86.4682 6.40703C86.4576 6.42091 86.4465 6.43793 86.435 6.45809C86.2964 6.72595 86.1763 6.95224 86.0747 7.13697C85.9731 7.31247 85.8762 7.46949 85.7838 7.60803C85.6914 7.74658 85.5806 7.89436 85.4513 8.05138C85.285 8.26382 85.0772 8.4855 84.8278 8.71641C84.5877 8.94732 84.3244 9.14129 84.0381 9.29831C83.761 9.45533 83.4793 9.53384 83.193 9.53384C82.8512 9.53384 82.6018 9.42762 82.4448 9.21518C82.2878 8.99351 82.2093 8.71179 82.2093 8.37004C82.2093 7.99135 82.297 7.57571 82.4725 7.12312C82.6757 7.22472 82.9667 7.27552 83.3454 7.27552C83.5301 7.27552 83.7241 7.26166 83.9273 7.23396C84.1397 7.19701 84.3383 7.14621 84.523 7.08155C84.9017 6.94301 85.2065 6.74442 85.4374 6.4858C85.6776 6.21794 85.7977 5.90852 85.7977 5.55753C85.7977 5.26197 85.6776 5.00334 85.4374 4.78167C85.1973 4.55999 84.8601 4.44916 84.426 4.44916C83.8441 4.44916 83.313 4.61079 82.8327 4.93407C82.3524 5.25735 81.9553 5.66375 81.6412 6.15329C81.5195 6.34137 81.4111 6.54104 81.3159 6.75231C81.2401 6.89601 81.1712 7.02423 81.1092 7.13697C81.0076 7.31247 80.9106 7.46949 80.8183 7.60803C80.7259 7.74658 80.6151 7.89436 80.4858 8.05138C80.3195 8.26382 80.1117 8.4855 79.8623 8.71641C79.6222 8.94732 79.3589 9.14129 79.0726 9.29831C78.7955 9.45533 78.5138 9.53384 78.2274 9.53384C77.8857 9.53384 77.6363 9.42762 77.4793 9.21518C77.3223 8.99351 77.2438 8.71179 77.2438 8.37004C77.2438 7.99135 77.3315 7.57571 77.507 7.12312C77.7102 7.22472 78.0012 7.27552 78.3799 7.27552C78.5646 7.27552 78.7585 7.26166 78.9617 7.23396C79.1742 7.19701 79.3728 7.14621 79.5575 7.08155C79.9362 6.94301 80.241 6.74442 80.4719 6.4858C80.7121 6.21794 80.8321 5.90852 80.8321 5.55753C80.8321 5.26197 80.7121 5.00334 80.4719 4.78167C80.2318 4.55999 79.8946 4.44916 79.4605 4.44916C78.8786 4.44916 78.3475 4.61079 77.8672 4.93407C77.3869 5.25735 76.9898 5.66375 76.6757 6.15329C76.5271 6.38289 76.3983 6.62978 76.2893 6.89395C76.2203 7.01586 76.1461 7.14305 76.0667 7.27552C75.9004 7.55261 75.7249 7.81124 75.5402 8.05138C75.3739 8.26382 75.1846 8.45779 74.9721 8.63328C74.732 8.81801 74.5472 8.91038 74.4179 8.91038C74.2332 8.91038 74.1408 8.77183 74.1408 8.49474C74.1408 8.42085 74.1455 8.35157 74.1547 8.28692C74.1732 8.21302 74.1916 8.13451 74.2101 8.05138C74.321 7.61727 74.4826 7.16468 74.695 6.69362C74.9075 6.21332 75.1384 5.73303 75.3878 5.25273C75.4247 5.18807 75.4755 5.09571 75.5402 4.97563C75.6048 4.85556 75.6741 4.7401 75.748 4.62927C75.8219 4.51843 75.8865 4.44454 75.942 4.40759C75.8588 4.41683 75.7203 4.41683 75.5263 4.40759C75.3416 4.39835 75.1984 4.39374 75.0968 4.39374C74.9029 4.39374 74.7227 4.46301 74.5565 4.60156C74.3902 4.7401 74.2424 4.90174 74.1131 5.08647C73.8453 5.12342 73.5959 5.07262 73.365 4.93407C73.1341 4.79552 73.0186 4.58308 73.0186 4.29675V4.17206C73.0278 4.12588 73.0371 4.08431 73.0463 4.04737C72.917 3.91806 72.7508 3.8534 72.5476 3.8534C72.4737 3.8534 72.3951 3.86726 72.312 3.89497C72.1735 3.95962 72.0673 4.05199 71.9934 4.17206C71.9287 4.29213 71.8964 4.42606 71.8964 4.57385C71.8964 4.72163 71.9379 4.87403 72.0211 5.03105C72.1042 5.17884 72.2289 5.29429 72.3951 5.37742C72.3859 5.41437 72.3443 5.50673 72.2705 5.65452C72.1966 5.8023 72.1134 5.97318 72.0211 6.16714C71.9287 6.35187 71.8363 6.53198 71.744 6.70748C71.7405 6.71443 71.7371 6.72142 71.7338 6.72845C71.6382 6.89953 71.5291 7.08189 71.4065 7.27552C71.2402 7.55261 71.0647 7.81124 70.88 8.05138C70.7692 8.18993 70.6491 8.3331 70.5198 8.48088C70.3997 8.62867 70.2704 8.74874 70.1319 8.8411C70.0025 8.93347 69.8732 8.97965 69.7439 8.97965C69.6146 8.97965 69.5084 8.93347 69.4253 8.8411C69.3421 8.7395 69.296 8.61481 69.2867 8.46703C69.6192 8.06062 69.8917 7.61265 70.1041 7.12312C70.3166 6.62435 70.4228 6.1302 70.4228 5.64066C70.4228 5.17884 70.3304 4.85094 70.1457 4.65698C69.9702 4.46301 69.7485 4.36603 69.4807 4.36603C69.1666 4.36603 68.8434 4.4861 68.5108 4.72625C68.1783 4.9664 67.8643 5.26658 67.5687 5.62681C67.4209 5.81154 67.2685 6.02398 67.1115 6.26412C66.9545 6.50427 66.8021 6.75366 66.6543 7.01228C66.8113 6.40267 67.0145 5.76997 67.2639 5.11418C67.5133 4.45839 67.7765 3.83493 68.0536 3.24379C68.3307 2.65266 68.5986 2.14927 68.8572 1.73363C69.1158 1.30875 69.3329 1.03165 69.5084 0.902344C69.4714 0.91158 69.3791 0.916198 69.2313 0.916198H68.8711C68.7602 0.916198 68.6494 0.920817 68.5386 0.930054C68.437 0.93929 68.3492 0.953145 68.2753 0.971617C68.1091 1.00856 67.9567 1.12402 67.8181 1.31799C67.6796 1.50272 67.4902 1.82599 67.2501 2.28782C67.0561 2.65728 66.8575 3.10063 66.6543 3.61787C66.4511 4.12588 66.2525 4.65236 66.0586 5.19731C65.8738 5.73303 65.7076 6.24103 65.5598 6.72133C65.4212 7.20163 65.315 7.59418 65.2411 7.89898C65.1303 8.35157 65.0749 8.73027 65.0749 9.03507C65.0749 9.45071 65.1765 9.73243 65.3797 9.88021ZM67.1946 9.36758C66.9914 9.5246 66.8113 9.60311 66.6543 9.60311C66.4511 9.60311 66.3264 9.49689 66.2802 9.28446L66.2525 9.14591V9.02122C66.2525 8.75336 66.3126 8.46241 66.4326 8.14837C66.5619 7.83433 66.7236 7.52491 66.9175 7.2201C67.1208 6.90606 67.3286 6.62435 67.541 6.37496C67.7535 6.12558 67.9428 5.93623 68.1091 5.80692C68.34 5.62219 68.5478 5.52982 68.7325 5.52982H68.8018C68.8295 5.52982 68.8526 5.53444 68.8711 5.54368C69.0096 5.58062 69.0789 5.71455 69.0789 5.94547C69.0789 6.20409 69.005 6.52736 68.8572 6.9153C68.7094 7.30323 68.5293 7.67731 68.3169 8.03753C68.1783 8.26844 68.0075 8.50859 67.8043 8.75798C67.6103 8.99813 67.4071 9.20133 67.1946 9.36758ZM78.1166 6.87373C78.0612 6.8645 78.0104 6.84602 77.9642 6.81831C77.8811 6.78137 77.8395 6.71209 77.8395 6.61049C77.8395 6.49042 77.8903 6.35187 77.9919 6.19485C78.0935 6.02859 78.1997 5.88081 78.3106 5.7515C78.4307 5.61295 78.5138 5.52059 78.56 5.47441C78.6985 5.33586 78.8417 5.21578 78.9895 5.11418C79.1372 5.01258 79.285 4.94331 79.4328 4.90636C79.5436 4.87865 79.636 4.8648 79.7099 4.8648C79.8577 4.8648 79.9593 4.90636 80.0147 4.98949C80.0794 5.06338 80.1071 5.15575 80.0978 5.26658C80.0794 5.52521 79.9962 5.75612 79.8484 5.95932C79.7007 6.16252 79.5206 6.33802 79.3081 6.4858C79.1788 6.57817 79.0218 6.67053 78.8371 6.7629C78.6523 6.84602 78.4676 6.88759 78.2829 6.88759C78.2274 6.88759 78.172 6.88297 78.1166 6.87373ZM83.0821 6.87373C83.0267 6.8645 82.9759 6.84602 82.9297 6.81831C82.8466 6.78137 82.805 6.71209 82.805 6.61049C82.805 6.49042 82.8558 6.35187 82.9574 6.19485C83.059 6.02859 83.1653 5.88081 83.2761 5.7515C83.3962 5.61295 83.4793 5.52059 83.5255 5.47441C83.664 5.33586 83.8072 5.21578 83.955 5.11418C84.1028 5.01258 84.2505 4.94331 84.3983 4.90636C84.5092 4.87865 84.6015 4.8648 84.6754 4.8648C84.8232 4.8648 84.9248 4.90636 84.9802 4.98949C85.0449 5.06338 85.0726 5.15575 85.0633 5.26658C85.0449 5.52521 84.9617 5.75612 84.814 5.95932C84.6662 6.16252 84.4861 6.33802 84.2736 6.4858C84.1443 6.57817 83.9873 6.67053 83.8026 6.7629C83.6178 6.84602 83.4331 6.88759 83.2484 6.88759C83.193 6.88759 83.1375 6.88297 83.0821 6.87373ZM93.9467 6.87373C93.8913 6.8645 93.8405 6.84602 93.7943 6.81831C93.7112 6.78137 93.6696 6.71209 93.6696 6.61049C93.6696 6.49042 93.7204 6.35187 93.822 6.19485C93.9236 6.02859 94.0299 5.88081 94.1407 5.7515C94.2608 5.61295 94.3439 5.52059 94.3901 5.47441C94.5286 5.33586 94.6718 5.21578 94.8196 5.11418C94.9673 5.01258 95.1151 4.94331 95.2629 4.90636C95.3738 4.87865 95.4661 4.8648 95.54 4.8648C95.6878 4.8648 95.7894 4.90636 95.8448 4.98949C95.9095 5.06338 95.9372 5.15575 95.9279 5.26658C95.9095 5.52521 95.8263 5.75612 95.6786 5.95932C95.5308 6.16252 95.3507 6.33802 95.1382 6.4858C95.0089 6.57817 94.8519 6.67053 94.6672 6.7629C94.4824 6.84602 94.2977 6.88759 94.113 6.88759C94.0575 6.88759 94.0021 6.88297 93.9467 6.87373Z" fill="#48A2DF"/>
<path d="M2.95093 16.6157C-0.429405 13.0989 -0.318752 7.50762 3.19808 4.12728C6.71492 0.746943 12.3062 0.857596 15.6865 4.37443C17.0894 5.834 17.8911 7.65088 18.0974 9.51872L21.1022 5.52582L21.1119 5.53314C21.4515 5.03399 21.8477 4.56233 22.3003 4.12728C25.8171 0.746943 31.4084 0.857596 34.7887 4.37443C36.1953 5.83783 36.9975 7.66042 37.2013 9.53344L40.1376 5.69945C40.5008 5.13858 40.9338 4.61035 41.4364 4.12728C44.9532 0.746943 50.5445 0.857596 53.9248 4.37443C55.34 5.84681 56.1434 7.6828 56.341 9.56792L60.6183 3.98719L62.5426 5.4621L54.6627 15.7435C54.605 15.8214 54.5458 15.8987 54.4852 15.9751L54.3775 16.1155L54.3738 16.1127C54.1589 16.3728 53.9268 16.6234 53.6777 16.8629C50.1608 20.2432 44.5696 20.1326 41.1892 16.6157C39.7842 15.154 38.9823 13.3338 38.7774 11.463L35.8086 15.3395C35.5783 15.6899 35.3207 16.0273 35.0356 16.3487L35.0178 16.372L35.0161 16.3707C34.8655 16.5394 34.7073 16.7036 34.5416 16.8629C31.0247 20.2432 25.4335 20.1326 22.0531 16.6157C20.6561 15.1622 19.8553 13.3544 19.6448 11.4947L8.5057 26.2971L6.56839 24.8392L10.811 19.2014C8.02383 19.6765 5.05791 18.8078 2.95093 16.6157Z" fill="#061926"/>
</svg>
