<svg width="196" height="169" viewBox="0 0 196 169" fill="none" xmlns="http://www.w3.org/2000/svg">
<g clip-path="url(#clip0_564_88804)">
<path d="M14.7987 155.156C15.9269 155.553 17.1381 155.652 18.3158 155.445C19.4935 155.237 20.5979 154.73 21.5226 153.972C23.8776 151.995 24.6161 148.739 25.2168 145.724L26.9938 136.805L23.2735 139.367C20.5978 141.209 17.8621 143.11 16.0097 145.779C14.1573 148.447 13.3492 152.09 14.8371 154.977" fill="#E6E6E6"/>
<path d="M15.3738 166.575C14.9056 163.164 14.4238 159.708 14.753 156.26C15.0448 153.198 15.9791 150.207 17.8812 147.754C18.8908 146.455 20.1193 145.342 21.5115 144.465C21.8744 144.235 22.2085 144.811 21.8472 145.039C19.4382 146.561 17.575 148.809 16.5261 151.459C15.3676 154.405 15.1816 157.617 15.3811 160.747C15.5018 162.64 15.7581 164.52 16.0155 166.398C16.0358 166.483 16.0231 166.572 15.98 166.648C15.9368 166.724 15.8665 166.781 15.7831 166.807C15.6981 166.83 15.6074 166.818 15.5309 166.775C15.4543 166.731 15.3979 166.66 15.3741 166.575L15.3738 166.575Z" fill="#F2F2F2"/>
<path d="M18.7441 161.101C19.2279 161.837 19.8929 162.435 20.6752 162.839C21.4574 163.243 22.3305 163.439 23.2103 163.407C25.4718 163.3 27.3563 161.722 29.0526 160.224L34.0711 155.793L30.7498 155.634C28.3613 155.52 25.9112 155.412 23.6362 156.15C21.3612 156.887 19.2632 158.659 18.8472 161.014" fill="#E6E6E6"/>
<path d="M14.0496 168.536C16.304 164.548 18.9186 160.114 23.591 158.697C24.89 158.305 26.2521 158.164 27.604 158.283C28.0301 158.32 27.9237 158.977 27.4984 158.94C25.2323 158.752 22.9706 159.35 21.0941 160.634C19.2882 161.864 17.8821 163.573 16.6922 165.385C15.9632 166.495 15.3103 167.652 14.6573 168.807C14.4487 169.177 13.8385 168.91 14.0496 168.536Z" fill="#F2F2F2"/>
<path d="M194.432 119.295H70.1457C69.7628 119.294 69.3956 119.142 69.1248 118.871C68.854 118.6 68.7017 118.233 68.7012 117.85V2.42894C68.7017 2.04597 68.854 1.67883 69.1248 1.40803C69.3956 1.13723 69.7628 0.984876 70.1457 0.984375H194.432C194.815 0.984876 195.182 1.13723 195.453 1.40803C195.724 1.67883 195.876 2.04597 195.877 2.42894V117.85C195.876 118.233 195.724 118.6 195.453 118.871C195.182 119.142 194.815 119.294 194.432 119.294V119.295Z" fill="white"/>
<path d="M194.432 119.295H70.1457C69.7628 119.294 69.3956 119.142 69.1248 118.871C68.854 118.6 68.7017 118.233 68.7012 117.85V2.42894C68.7017 2.04597 68.854 1.67883 69.1248 1.40803C69.3956 1.13723 69.7628 0.984876 70.1457 0.984375H194.432C194.815 0.984876 195.182 1.13723 195.453 1.40803C195.724 1.67883 195.876 2.04597 195.877 2.42894V117.85C195.876 118.233 195.724 118.6 195.453 118.871C195.182 119.142 194.815 119.294 194.432 119.294V119.295ZM70.1457 1.56106C69.9162 1.56156 69.6962 1.65296 69.534 1.81526C69.3717 1.97755 69.2803 2.19753 69.2798 2.42705V117.85C69.2803 118.079 69.3717 118.299 69.534 118.462C69.6962 118.624 69.9162 118.715 70.1457 118.716H194.432C194.662 118.715 194.882 118.624 195.044 118.462C195.206 118.299 195.298 118.079 195.298 117.85V2.42894C195.298 2.19942 195.206 1.97945 195.044 1.81715C194.882 1.65486 194.662 1.56346 194.432 1.56296L70.1457 1.56106Z" fill="#CACACA"/>
<path d="M128.874 30.9771C128.614 30.9775 128.365 31.081 128.181 31.2649C127.998 31.4488 127.895 31.698 127.895 31.9578C127.895 32.2176 127.998 32.4668 128.181 32.6507C128.365 32.8345 128.614 32.938 128.874 32.9385H182.688C182.948 32.938 183.197 32.8345 183.38 32.6507C183.564 32.4668 183.667 32.2176 183.667 31.9578C183.667 31.698 183.564 31.4488 183.38 31.2649C183.197 31.081 182.948 30.9775 182.688 30.9771H128.874Z" fill="#E4E4E4"/>
<path d="M128.875 36.8618C128.615 36.8624 128.366 36.966 128.183 37.1499C127.999 37.3338 127.896 37.5829 127.896 37.8425C127.896 38.1022 127.999 38.3513 128.183 38.5352C128.366 38.719 128.615 38.8226 128.875 38.8233H156.348C156.608 38.8226 156.857 38.719 157.04 38.5352C157.223 38.3513 157.326 38.1022 157.326 37.8425C157.326 37.5829 157.223 37.3338 157.04 37.1499C156.857 36.966 156.608 36.8624 156.348 36.8618H128.875Z" fill="#E4E4E4"/>
<path d="M81.8397 68.5088C81.58 68.5094 81.3311 68.613 81.1477 68.7969C80.9643 68.9807 80.8613 69.2298 80.8613 69.4895C80.8613 69.7492 80.9643 69.9983 81.1477 70.1822C81.3311 70.366 81.58 70.4696 81.8397 70.4702H182.742C183.001 70.4696 183.25 70.366 183.434 70.1822C183.617 69.9983 183.72 69.7492 183.72 69.4895C183.72 69.2298 183.617 68.9807 183.434 68.7969C183.25 68.613 183.001 68.5094 182.742 68.5088H81.8397Z" fill="#E4E4E4"/>
<path d="M81.8397 74.3936C81.58 74.3942 81.3311 74.4978 81.1477 74.6816C80.9643 74.8655 80.8613 75.1146 80.8613 75.3743C80.8613 75.634 80.9643 75.8831 81.1477 76.0669C81.3311 76.2508 81.58 76.3544 81.8397 76.355H156.401C156.66 76.3544 156.909 76.2508 157.093 76.0669C157.276 75.8831 157.379 75.634 157.379 75.3743C157.379 75.1146 157.276 74.8655 157.093 74.6816C156.909 74.4978 156.66 74.3942 156.401 74.3936H81.8397Z" fill="#E4E4E4"/>
<path d="M81.8397 80.1455C81.58 80.1461 81.3311 80.2497 81.1477 80.4336C80.9643 80.6174 80.8613 80.8665 80.8613 81.1262C80.8613 81.3859 80.9643 81.635 81.1477 81.8189C81.3311 82.0027 81.58 82.1063 81.8397 82.1069H182.742C183.001 82.1063 183.25 82.0027 183.434 81.8189C183.617 81.635 183.72 81.3859 183.72 81.1262C183.72 80.8665 183.617 80.6174 183.434 80.4336C183.25 80.2497 183.001 80.1461 182.742 80.1455H81.8397Z" fill="#E4E4E4"/>
<path d="M81.8397 86.0303C81.58 86.0309 81.3311 86.1345 81.1477 86.3184C80.9643 86.5022 80.8613 86.7513 80.8613 87.011C80.8613 87.2707 80.9643 87.5198 81.1477 87.7036C81.3311 87.8875 81.58 87.9911 81.8397 87.9917H156.401C156.66 87.9911 156.909 87.8875 157.093 87.7036C157.276 87.5198 157.379 87.2707 157.379 87.011C157.379 86.7513 157.276 86.5022 157.093 86.3184C156.909 86.1345 156.66 86.0309 156.401 86.0303H81.8397Z" fill="#E4E4E4"/>
<path d="M81.8397 91.9351C81.58 91.9357 81.3311 92.0393 81.1477 92.2231C80.9643 92.407 80.8613 92.6561 80.8613 92.9158C80.8613 93.1755 80.9643 93.4246 81.1477 93.6084C81.3311 93.7923 81.58 93.8959 81.8397 93.8965H182.742C183.001 93.8959 183.25 93.7923 183.434 93.6084C183.617 93.4246 183.72 93.1755 183.72 92.9158C183.72 92.6561 183.617 92.407 183.434 92.2231C183.25 92.0393 183.001 91.9357 182.742 91.9351H81.8397Z" fill="#E4E4E4"/>
<path d="M81.8397 97.8198C81.58 97.8205 81.3311 97.9241 81.1477 98.1079C80.9643 98.2918 80.8613 98.5409 80.8613 98.8005C80.8613 99.0602 80.9643 99.3093 81.1477 99.4932C81.3311 99.677 81.58 99.7806 81.8397 99.7813H156.401C156.66 99.7806 156.909 99.677 157.093 99.4932C157.276 99.3093 157.379 99.0602 157.379 98.8005C157.379 98.5409 157.276 98.2918 157.093 98.1079C156.909 97.9241 156.66 97.8205 156.401 97.8198H81.8397Z" fill="#E4E4E4"/>
<path d="M97.8209 48.9902C95.0341 48.9902 92.3099 48.1638 89.9927 46.6156C87.6756 45.0673 85.8696 42.8667 84.8031 40.2921C83.7366 37.7174 83.4575 34.8843 84.0012 32.1511C84.5449 29.4178 85.8868 26.9071 87.8574 24.9366C89.8279 22.966 92.3386 21.624 95.0718 21.0803C97.8051 20.5366 100.638 20.8157 103.213 21.8821C105.788 22.9486 107.988 24.7546 109.536 27.0717C111.085 29.3888 111.911 32.1131 111.911 34.8999C111.907 38.6355 110.421 42.217 107.779 44.8585C105.138 47.5 101.557 48.9859 97.8209 48.9902Z" fill="#62B0E5"/>
<path d="M55.0483 102.267C55.0239 101.753 54.8871 101.25 54.6474 100.794C54.4078 100.339 54.0711 99.9409 53.6612 99.6294C53.2512 99.3179 52.7779 99.1 52.2747 98.9912C51.7715 98.8824 51.2505 98.8853 50.7485 98.9996L46.0911 92.436L41.4121 94.2935L48.1194 103.47C48.3674 104.301 48.9114 105.012 49.6484 105.468C50.3854 105.924 51.2642 106.094 52.1183 105.946C52.9724 105.798 53.7424 105.341 54.2824 104.663C54.8224 103.985 55.0949 103.132 55.0483 102.267H55.0483Z" fill="#A0616A"/>
<path d="M45.9714 101.78L31.8789 83.4982L37.1592 66.9029C37.5462 62.7307 40.157 61.5656 40.2681 61.518L40.4376 61.4453L45.0325 73.6987L41.6587 82.6952L49.9394 96.6222L45.9714 101.78Z" fill="#3F3D56"/>
<path d="M94.9136 45.422C94.4027 45.4861 93.9121 45.6614 93.4763 45.9356C93.0405 46.2097 92.6701 46.5761 92.3912 47.009C92.1124 47.4418 91.9318 47.9304 91.8622 48.4406C91.7926 48.9507 91.8357 49.47 91.9885 49.9616L85.8047 55.1126L88.0184 59.6339L96.6489 52.2371C97.4579 51.9257 98.1246 51.3284 98.5225 50.5583C98.9205 49.7882 99.0222 48.8989 98.8083 48.0588C98.5944 47.2188 98.0798 46.4864 97.362 46.0004C96.6441 45.5144 95.773 45.3086 94.9136 45.422Z" fill="#FFB6B6"/>
<path d="M95.1303 54.51L77.9923 69.9738L61.0385 65.9924C56.8488 65.9292 55.4854 63.4162 55.4293 63.3091L55.3438 63.1458L67.2052 57.6173L76.4356 60.2853L89.6807 50.9526L95.1303 54.51Z" fill="#3F3D56"/>
<path d="M65.4442 164.443L70.0489 164.442L72.2392 146.682L65.4434 146.682L65.4442 164.443Z" fill="#FFB6B6"/>
<path d="M78.9297 168.717L64.4581 168.718L64.4578 163.127L74.8694 163.126C75.9462 163.126 76.9789 163.554 77.7403 164.315C78.5018 165.077 78.9296 166.109 78.9296 167.186L78.9297 168.717L78.9297 168.717Z" fill="#2F2E41"/>
<path d="M47.0396 164.443L51.6443 164.442L53.8349 146.682L47.0391 146.682L47.0396 164.443Z" fill="#FFB6B6"/>
<path d="M60.5254 168.717L46.0538 168.718L46.0535 163.127L56.4651 163.126C56.9983 163.126 57.5262 163.231 58.0188 163.435C58.5114 163.639 58.959 163.938 59.336 164.315C59.7131 164.692 60.0121 165.14 60.2162 165.632C60.4203 166.125 60.5253 166.653 60.5253 167.186L60.5254 168.717Z" fill="#2F2E41"/>
<path d="M45.4023 99.6138L45.7779 125.905L46.1537 160.459L54.4164 159.708L58.548 112.008L63.8063 159.708H72.3367L73.1959 111.633L70.1912 101.116L45.4023 99.6138Z" fill="#2F2E41"/>
<path d="M61.575 103.145C52.5844 103.145 44.3087 99.0762 44.197 99.0203L44.1042 98.9739L43.3497 80.8675C43.1309 80.2276 38.8228 67.6022 38.0932 63.5893C37.3539 59.5235 48.0681 55.9554 49.3691 55.5381L49.6644 52.2674L61.6709 50.9736L63.1927 55.1586L67.5001 56.7738C67.9885 56.957 68.3926 57.313 68.636 57.7744C68.8794 58.2357 68.9451 58.7702 68.8206 59.2768L66.4266 69.0123L72.2736 101.222L71.0148 101.277C67.9975 102.64 64.741 103.144 61.575 103.145Z" fill="#3F3D56"/>
<path d="M60.2847 47.8425C64.474 45.5524 66.0136 40.2999 63.7235 36.1106C61.4334 31.9213 56.1809 30.3817 51.9916 32.6718C47.8023 34.9619 46.2627 40.2144 48.5528 44.4037C50.8429 48.593 56.0954 50.1326 60.2847 47.8425Z" fill="#FFB6B6"/>
<path d="M49.1366 48.6259C50.7841 50.3809 53.8437 49.4388 54.0584 47.0413C54.0752 46.8552 54.074 46.6678 54.0547 46.4819C53.9439 45.42 53.3304 44.4558 53.4773 43.3345C53.5106 43.0554 53.6145 42.7895 53.7794 42.5619C55.0922 40.8038 58.174 43.3482 59.413 41.7567C60.1727 40.7808 59.2797 39.2444 59.8627 38.1537C60.6322 36.7142 62.9113 37.4243 64.3406 36.636C65.9308 35.7588 65.8357 33.319 64.7889 31.8349C63.5123 30.025 61.274 29.0593 59.0635 28.9201C56.8531 28.7809 54.6579 29.3784 52.5943 30.1827C50.2495 31.0964 47.9244 32.3593 46.4815 34.421C44.7268 36.9282 44.5579 40.299 45.4355 43.2308C45.9693 45.0142 47.7913 47.1929 49.1366 48.6259Z" fill="#2F2E41"/>
<path d="M109.944 168.94H0.385213C0.308948 168.94 0.235803 168.91 0.181875 168.856C0.127948 168.802 0.0976562 168.729 0.0976562 168.653C0.0976562 168.577 0.127948 168.503 0.181875 168.449C0.235803 168.396 0.308948 168.365 0.385213 168.365H109.944C110.021 168.365 110.094 168.396 110.148 168.449C110.202 168.503 110.232 168.577 110.232 168.653C110.232 168.729 110.202 168.802 110.148 168.856C110.094 168.91 110.021 168.94 109.944 168.94Z" fill="#CACACA"/>
<path d="M97.0071 40.2217C96.753 40.222 96.5083 40.1259 96.3224 39.9527L91.6762 35.6373C91.481 35.4555 91.3658 35.2037 91.3561 34.9371C91.3464 34.6706 91.4429 34.4111 91.6245 34.2156C91.806 34.0202 92.0577 33.9048 92.3243 33.8948C92.5908 33.8848 92.8504 33.9811 93.0461 34.1624L96.9814 37.8178L104.768 30.0319C104.861 29.9378 104.972 29.8631 105.094 29.8121C105.216 29.761 105.348 29.7346 105.48 29.7344C105.613 29.7341 105.744 29.76 105.866 29.8106C105.989 29.8612 106.1 29.9355 106.194 30.0292C106.287 30.1229 106.362 30.2342 106.412 30.3567C106.463 30.4791 106.489 30.6104 106.488 30.7429C106.488 30.8754 106.462 31.0065 106.411 31.1288C106.359 31.251 106.285 31.362 106.191 31.4553L97.719 39.927C97.6256 40.0206 97.5146 40.0948 97.3924 40.1454C97.2703 40.1959 97.1393 40.2219 97.0071 40.2217Z" fill="white"/>
</g>
<defs>
<clipPath id="clip0_564_88804">
<rect width="195.78" height="168" fill="white" transform="translate(0.0976562 0.984375)"/>
</clipPath>
</defs>
</svg>
