<svg width="20" height="20" viewBox="0 0 20 20" fill="none" xmlns="http://www.w3.org/2000/svg">
<mask id="path-1-inside-1_123_80625" fill="white">
<path fill-rule="evenodd" clip-rule="evenodd" d="M7.18174 8.5126C7.18173 8.51258 7.18171 8.51258 7.1817 8.51259V8.51259C5.19909 10.2607 4.47756 12.6823 5.57011 13.9214C6.66266 15.1605 9.15556 14.7479 11.1382 12.9999V12.9999C11.1382 12.9999 11.1382 12.9998 11.1382 12.9998L7.18174 8.5126Z"/>
</mask>
<path d="M11.1382 12.9998L10.3881 13.6612L11.1382 12.9998ZM7.18174 8.5126L7.93182 7.85125L7.18174 8.5126ZM6.32019 13.2601C6.08422 12.9924 5.94618 12.4818 6.18109 11.6934C6.41125 10.9209 6.96983 10.0326 7.84305 9.26267L6.52035 7.76252C5.41096 8.74068 4.61748 9.93717 4.26436 11.1223C3.91599 12.2915 3.96345 13.6112 4.82003 14.5828L6.32019 13.2601ZM10.4768 12.2498C9.6036 13.0197 8.65229 13.4626 7.85708 13.5943C7.04547 13.7286 6.55615 13.5277 6.32019 13.2601L4.82003 14.5828C5.67661 15.5543 6.98002 15.7666 8.18365 15.5674C9.40367 15.3655 10.6901 14.7281 11.7995 13.7499L10.4768 12.2498ZM11.8882 12.3385L7.93182 7.85125L6.43166 9.17395L10.3881 13.6612L11.8882 12.3385ZM11.7995 13.7499C12.2138 13.3847 12.2535 12.7527 11.8882 12.3385L10.3881 13.6612C10.0228 13.2469 10.0626 12.615 10.4768 12.2498L11.7995 13.7499ZM7.84305 9.26267C7.42442 9.63178 6.79303 9.58379 6.43166 9.17395L7.93182 7.85125C7.57043 7.44138 6.939 7.39339 6.52035 7.76252L7.84305 9.26267Z" fill="#061926" mask="url(#path-1-inside-1_123_80625)"/>
<mask id="path-3-inside-2_123_80625" fill="white">
<path fill-rule="evenodd" clip-rule="evenodd" d="M12.8392 11.4698C12.8392 11.4698 12.8393 11.4699 12.8393 11.4698V11.4698C14.8219 9.72175 15.5434 7.30015 14.4509 6.06102C13.3583 4.82189 10.8654 5.23448 8.88284 6.98255V6.98255C8.88281 6.98258 8.8828 6.98262 8.88283 6.98265L12.8392 11.4698Z"/>
</mask>
<path d="M8.88283 6.98265L9.63291 6.3213L8.88283 6.98265ZM12.8392 11.4698L12.0891 12.1312L12.8392 11.4698ZM13.7008 6.72237C13.9368 6.98999 14.0748 7.50062 13.8399 8.28902C13.6097 9.06148 13.0512 9.94983 12.1779 10.7197L13.5006 12.2199C14.61 11.2417 15.4035 10.0453 15.7566 8.86012C16.105 7.69091 16.0575 6.37117 15.201 5.39967L13.7008 6.72237ZM9.54419 7.73263C10.4174 6.96271 11.3687 6.51978 12.1639 6.38817C12.9755 6.25384 13.4648 6.45475 13.7008 6.72237L15.201 5.39967C14.3444 4.42817 13.041 4.2158 11.8374 4.41501C10.6173 4.61693 9.33088 5.25432 8.22149 6.23247L9.54419 7.73263ZM8.13275 7.644L12.0891 12.1312L13.5893 10.8085L9.63291 6.3213L8.13275 7.644ZM8.22149 6.23247C7.8072 6.59776 7.76748 7.22972 8.13275 7.644L9.63291 6.3213C9.99813 6.73553 9.95842 7.3674 9.54419 7.73263L8.22149 6.23247ZM12.1779 10.7197C12.591 10.3556 13.223 10.393 13.5893 10.8085L12.0891 12.1312C12.4555 12.5467 13.0876 12.5841 13.5006 12.2199L12.1779 10.7197Z" fill="#061926" mask="url(#path-3-inside-2_123_80625)"/>
<path d="M9.53174 11.8545L10.8779 10.6676" stroke="#061926" stroke-linecap="round"/>
<path d="M8.09863 10.2285L9.44482 9.04158" stroke="#061926" stroke-linecap="round"/>
<path d="M5.77349 13.4281C3.50816 14.4044 6.08356 17.183 2.85984 17.4371" stroke="#061926" stroke-linecap="round"/>
<path d="M14.018 6.33364C16.2833 5.35734 13.7079 2.57876 16.9317 2.32465" stroke="#061926" stroke-linecap="round"/>
</svg>
