<svg width="20" height="20" viewBox="0 0 20 20" fill="none" xmlns="http://www.w3.org/2000/svg">
<mask id="path-1-inside-1_123_80626" fill="white">
<path fill-rule="evenodd" clip-rule="evenodd" d="M7.18174 8.5126C7.18173 8.51258 7.18171 8.51258 7.1817 8.51259V8.51259C5.19909 10.2607 4.47756 12.6823 5.57011 13.9214C6.66266 15.1605 9.15556 14.7479 11.1382 12.9999V12.9999C11.1382 12.9999 11.1382 12.9998 11.1382 12.9998L7.18174 8.5126Z"/>
</mask>
<path d="M11.1382 12.9998L10.013 13.9918L11.1382 12.9998ZM7.18174 8.5126L8.30686 7.52057L7.18174 8.5126ZM6.69523 12.9294C6.61442 12.8377 6.45373 12.5294 6.66027 11.8362C6.85969 11.1669 7.35955 10.3556 8.17372 9.63771L6.18967 7.38748C5.02124 8.4177 4.16903 9.69123 3.78518 10.9795C3.40844 12.2439 3.43326 13.766 4.44499 14.9134L6.69523 12.9294ZM10.1461 11.8748C9.33197 12.5926 8.46444 12.9869 7.77544 13.101C7.06184 13.2191 6.77604 13.021 6.69523 12.9294L4.44499 14.9134C5.45673 16.0609 6.96365 16.2761 8.26529 16.0607C9.59152 15.8412 10.9617 15.1552 12.1302 14.125L10.1461 11.8748ZM12.2633 12.0078L8.30686 7.52057L6.05663 9.50462L10.013 13.9918L12.2633 12.0078ZM12.1302 14.125C12.7516 13.5771 12.8112 12.6292 12.2633 12.0078L10.013 13.9918C9.46518 13.3705 9.52476 12.4226 10.1461 11.8748L12.1302 14.125ZM8.17372 9.63771C7.54577 10.1914 6.59868 10.1194 6.05663 9.50462L8.30686 7.52057C7.76478 6.90577 6.81765 6.83379 6.18967 7.38748L8.17372 9.63771Z" fill="white" mask="url(#path-1-inside-1_123_80626)"/>
<mask id="path-3-inside-2_123_80626" fill="white">
<path fill-rule="evenodd" clip-rule="evenodd" d="M12.8392 11.4698C12.8392 11.4698 12.8393 11.4699 12.8393 11.4698V11.4698C14.8219 9.72175 15.5434 7.30015 14.4509 6.06102C13.3583 4.82189 10.8654 5.23448 8.88284 6.98255V6.98255C8.88281 6.98258 8.8828 6.98262 8.88283 6.98265L12.8392 11.4698Z"/>
</mask>
<path d="M13.3258 7.05304C13.4066 7.1447 13.5673 7.45305 13.3607 8.14624C13.1613 8.81554 12.6614 9.62685 11.8473 10.3447L13.8313 12.5949C14.9998 11.5647 15.852 10.2912 16.2358 9.00289C16.6126 7.73848 16.5877 6.21647 15.576 5.069L13.3258 7.05304ZM9.87486 8.10767C10.689 7.38981 11.5566 6.99549 12.2456 6.88145C12.9592 6.76335 13.245 6.96139 13.3258 7.05304L15.576 5.069C14.5643 3.92152 13.0573 3.70629 11.7557 3.92172C10.4295 4.14121 9.05925 4.82722 7.89081 5.85744L9.87486 8.10767ZM7.75771 7.97467L11.7141 12.4618L13.9643 10.4778L10.0079 5.99063L7.75771 7.97467ZM7.89081 5.85744C7.26939 6.40535 7.20981 7.35327 7.75771 7.97467L10.0079 5.99063C10.5558 6.61198 10.4962 7.55981 9.87486 8.10767L7.89081 5.85744ZM11.8473 10.3447C12.4668 9.79844 13.4149 9.85465 13.9643 10.4778L11.7141 12.4618C12.2636 13.0851 13.2117 13.1413 13.8313 12.5949L11.8473 10.3447Z" fill="white" mask="url(#path-3-inside-2_123_80626)"/>
<path d="M9.53174 11.8545L10.8779 10.6676" stroke="white" stroke-width="1.5" stroke-linecap="round"/>
<path d="M8.09863 10.2285L9.44482 9.04158" stroke="white" stroke-width="1.5" stroke-linecap="round"/>
<path d="M5.77349 13.4281C3.50816 14.4044 6.08356 17.183 2.85984 17.4371" stroke="white" stroke-width="1.5" stroke-linecap="round"/>
<path d="M14.018 6.33364C16.2833 5.35734 13.7079 2.57876 16.9317 2.32465" stroke="white" stroke-width="1.5" stroke-linecap="round"/>
</svg>
