<svg width="20" height="20" viewBox="0 0 20 20" fill="none" xmlns="http://www.w3.org/2000/svg">
<path d="M4 3.53906H8C8.27614 3.53906 8.5 3.76292 8.5 4.03906V8.03906C8.5 8.3152 8.27614 8.53906 8 8.53906H4C3.72386 8.53906 3.5 8.3152 3.5 8.03906V4.03906C3.5 3.76292 3.72386 3.53906 4 3.53906Z" stroke="#061926"/>
<path d="M4 11.5391H8C8.27614 11.5391 8.5 11.7629 8.5 12.0391V16.0391C8.5 16.3152 8.27614 16.5391 8 16.5391H4C3.72386 16.5391 3.5 16.3152 3.5 16.0391V12.0391C3.5 11.7629 3.72386 11.5391 4 11.5391Z" stroke="#061926"/>
<path d="M12 11.5391H16C16.2761 11.5391 16.5 11.7629 16.5 12.0391V16.0391C16.5 16.3152 16.2761 16.5391 16 16.5391H12C11.7239 16.5391 11.5 16.3152 11.5 16.0391V12.0391C11.5 11.7629 11.7239 11.5391 12 11.5391Z" stroke="#061926"/>
<path d="M11.0251 6.18183L13.1464 4.06051C13.3417 3.86525 13.6583 3.86525 13.8535 4.06051L15.9749 6.18183C16.1701 6.37709 16.1701 6.69367 15.9749 6.88894L13.8535 9.01026C13.6583 9.20552 13.3417 9.20552 13.1464 9.01026L11.0251 6.88894C10.8298 6.69367 10.8298 6.37709 11.0251 6.18183Z" stroke="#061926"/>
</svg>
