<svg width="20" height="20" viewBox="0 0 20 20" fill="none" xmlns="http://www.w3.org/2000/svg">
<path d="M4 3.78125H8C8.13807 3.78125 8.25 3.89318 8.25 4.03125V8.03125C8.25 8.16932 8.13807 8.28125 8 8.28125H4C3.86193 8.28125 3.75 8.16932 3.75 8.03125V4.03125C3.75 3.89318 3.86193 3.78125 4 3.78125Z" stroke="#061926" stroke-width="1.5"/>
<path d="M4 11.7891H8C8.13807 11.7891 8.25 11.901 8.25 12.0391V16.0391C8.25 16.1771 8.13807 16.2891 8 16.2891H4C3.86193 16.2891 3.75 16.1771 3.75 16.0391V12.0391C3.75 11.901 3.86193 11.7891 4 11.7891Z" stroke="#061926" stroke-width="1.5"/>
<path d="M12 11.7891H16C16.1381 11.7891 16.25 11.901 16.25 12.0391V16.0391C16.25 16.1771 16.1381 16.2891 16 16.2891H12C11.8619 16.2891 11.75 16.1771 11.75 16.0391V12.0391C11.75 11.901 11.8619 11.7891 12 11.7891Z" stroke="#061926" stroke-width="1.5"/>
<path d="M13.6768 8.83348C13.5791 8.93111 13.4208 8.93111 13.3232 8.83348L11.2019 6.71216C11.1043 6.61453 11.1043 6.45624 11.2019 6.35861L13.3232 4.23729C13.4208 4.13965 13.5791 4.13965 13.6768 4.23729L15.7981 6.35861C15.8957 6.45624 15.8957 6.61453 15.7981 6.71216L13.6768 8.83348Z" stroke="#061926" stroke-width="1.5"/>
</svg>
