<?xml version="1.0" encoding="UTF-8"?>
<svg xmlns="http://www.w3.org/2000/svg" xmlns:xlink="http://www.w3.org/1999/xlink" width="28px" height="28px" viewBox="0 0 28 28" version="1.1">
<g id="surface1">
<path style=" stroke:none;fill-rule:evenodd;fill:rgb(100%,100%,100%);fill-opacity:1;" d="M 13.578125 6.1875 C 13.609375 6.1875 13.640625 6.1875 13.675781 6.1875 C 15.757812 6.164062 17.851562 6.941406 19.410156 8.511719 C 20.660156 9.773438 21.371094 11.347656 21.546875 12.960938 L 25.328125 8.179688 L 27.03125 9.445312 L 20.0625 18.253906 C 20.035156 18.285156 20.011719 18.320312 19.984375 18.351562 C 19.960938 18.386719 19.933594 18.417969 19.90625 18.453125 L 19.808594 18.574219 L 19.804688 18.570312 C 19.617188 18.792969 19.410156 19.007812 19.191406 19.214844 C 17.648438 20.648438 15.65625 21.347656 13.675781 21.324219 C 13.644531 21.324219 13.609375 21.324219 13.578125 21.324219 C 9.398438 21.324219 6.007812 17.9375 6.007812 13.757812 C 6.007812 9.578125 9.398438 6.1875 13.578125 6.1875 Z M 11.894531 13.757812 C 12.359375 13.757812 12.738281 13.378906 12.738281 12.914062 C 12.738281 12.453125 12.359375 12.074219 11.894531 12.074219 C 11.429688 12.074219 11.054688 12.453125 11.054688 12.914062 C 11.054688 13.378906 11.429688 13.757812 11.894531 13.757812 Z M 16.519531 16.28125 C 16.519531 17.398438 15.769531 18.304688 14.839844 18.304688 C 13.910156 18.304688 13.15625 17.398438 13.15625 16.28125 Z M 17.78125 13.757812 C 18.246094 13.757812 18.625 13.378906 18.625 12.914062 C 18.625 12.453125 18.246094 12.074219 17.78125 12.074219 C 17.316406 12.074219 16.941406 12.453125 16.941406 12.914062 C 16.941406 13.378906 17.316406 13.757812 17.78125 13.757812 Z M 17.78125 13.757812 "/>
</g>
</svg>
