<svg width="24" height="24" viewBox="0 0 24 24" fill="none" xmlns="http://www.w3.org/2000/svg">
<mask id="path-1-outside-1_3287_272962" maskUnits="userSpaceOnUse" x="1.63184" y="2.30469" width="21" height="19" fill="black">
<rect fill="white" x="1.63184" y="2.30469" width="21" height="19"/>
<path d="M20.9189 18.0867H12.7954C12.5989 17.0952 11.7405 16.3475 10.713 16.3475C9.68409 16.3475 8.82575 17.0952 8.6287 18.0867H3.05709C2.82239 18.0867 2.63188 18.2814 2.63188 18.5219C2.63188 18.7624 2.82242 18.957 3.05709 18.957H8.62825C8.82529 19.9485 9.68363 20.6962 10.7125 20.6962C11.7405 20.6962 12.5989 19.9485 12.795 18.957H20.9184C21.1531 18.957 21.3436 18.7624 21.3436 18.5219C21.3436 18.2814 21.1536 18.0867 20.9189 18.0867M10.7125 19.825C10.0075 19.825 9.43592 19.242 9.43592 18.5219C9.43592 17.8017 10.0075 17.2178 10.7125 17.2178C11.4166 17.2178 11.9877 17.8017 11.9877 18.5219C11.9877 19.242 11.4166 19.825 10.7125 19.825ZM3.05705 5.91327H5.2264C5.42345 6.90568 6.28088 7.65246 7.30931 7.65246C8.33774 7.65246 9.19563 6.90522 9.39267 5.91327H20.9184C21.1531 5.91327 21.3436 5.7191 21.3436 5.47857C21.3436 5.23853 21.1531 5.04342 20.9184 5.04342H9.39315C9.1961 4.05192 8.33867 3.30469 7.30978 3.30469C6.2809 3.30469 5.42392 4.0524 5.22688 5.04388H3.05705C2.82235 5.04388 2.63184 5.23898 2.63184 5.47903C2.63184 5.71953 2.82237 5.91325 3.05705 5.91325M7.30978 4.17451C8.01431 4.17451 8.58545 4.75894 8.58545 5.47903C8.58545 6.19912 8.01429 6.78309 7.30978 6.78309C6.60478 6.78309 6.03364 6.19915 6.03364 5.47903C6.03364 4.75894 6.60526 4.17451 7.30978 4.17451ZM20.9189 11.5656H19.5995C19.4025 10.5731 18.545 9.82588 17.5166 9.82588C16.4882 9.82588 15.6298 10.5731 15.4332 11.5656H3.05707C2.82237 11.5656 2.63186 11.7597 2.63186 11.9998C2.63186 12.2403 2.82239 12.4349 3.05707 12.4349H15.4328C15.6298 13.4269 16.4877 14.1741 17.5161 14.1741C18.5446 14.1741 19.4025 13.4264 19.599 12.4349H20.9184C21.1531 12.4349 21.3436 12.2403 21.3436 11.9998C21.3441 11.7597 21.1535 11.5656 20.9189 11.5656M17.5166 13.3043C16.8112 13.3043 16.2409 12.7203 16.2409 11.9998C16.2409 11.2797 16.8116 10.6953 17.5166 10.6953C18.2216 10.6953 18.7923 11.2797 18.7923 11.9998C18.7923 12.7203 18.2211 13.3043 17.5166 13.3043Z"/>
</mask>
<path d="M20.9189 18.0867H12.7954C12.5989 17.0952 11.7405 16.3475 10.713 16.3475C9.68409 16.3475 8.82575 17.0952 8.6287 18.0867H3.05709C2.82239 18.0867 2.63188 18.2814 2.63188 18.5219C2.63188 18.7624 2.82242 18.957 3.05709 18.957H8.62825C8.82529 19.9485 9.68363 20.6962 10.7125 20.6962C11.7405 20.6962 12.5989 19.9485 12.795 18.957H20.9184C21.1531 18.957 21.3436 18.7624 21.3436 18.5219C21.3436 18.2814 21.1536 18.0867 20.9189 18.0867M10.7125 19.825C10.0075 19.825 9.43592 19.242 9.43592 18.5219C9.43592 17.8017 10.0075 17.2178 10.7125 17.2178C11.4166 17.2178 11.9877 17.8017 11.9877 18.5219C11.9877 19.242 11.4166 19.825 10.7125 19.825ZM3.05705 5.91327H5.2264C5.42345 6.90568 6.28088 7.65246 7.30931 7.65246C8.33774 7.65246 9.19563 6.90522 9.39267 5.91327H20.9184C21.1531 5.91327 21.3436 5.7191 21.3436 5.47857C21.3436 5.23853 21.1531 5.04342 20.9184 5.04342H9.39315C9.1961 4.05192 8.33867 3.30469 7.30978 3.30469C6.2809 3.30469 5.42392 4.0524 5.22688 5.04388H3.05705C2.82235 5.04388 2.63184 5.23898 2.63184 5.47903C2.63184 5.71953 2.82237 5.91325 3.05705 5.91325M7.30978 4.17451C8.01431 4.17451 8.58545 4.75894 8.58545 5.47903C8.58545 6.19912 8.01429 6.78309 7.30978 6.78309C6.60478 6.78309 6.03364 6.19915 6.03364 5.47903C6.03364 4.75894 6.60526 4.17451 7.30978 4.17451ZM20.9189 11.5656H19.5995C19.4025 10.5731 18.545 9.82588 17.5166 9.82588C16.4882 9.82588 15.6298 10.5731 15.4332 11.5656H3.05707C2.82237 11.5656 2.63186 11.7597 2.63186 11.9998C2.63186 12.2403 2.82239 12.4349 3.05707 12.4349H15.4328C15.6298 13.4269 16.4877 14.1741 17.5161 14.1741C18.5446 14.1741 19.4025 13.4264 19.599 12.4349H20.9184C21.1531 12.4349 21.3436 12.2403 21.3436 11.9998C21.3441 11.7597 21.1535 11.5656 20.9189 11.5656M17.5166 13.3043C16.8112 13.3043 16.2409 12.7203 16.2409 11.9998C16.2409 11.2797 16.8116 10.6953 17.5166 10.6953C18.2216 10.6953 18.7923 11.2797 18.7923 11.9998C18.7923 12.7203 18.2211 13.3043 17.5166 13.3043Z" fill="#061926"/>
<path d="M12.7954 18.0867L12.5012 18.1451L12.5491 18.3867H12.7954V18.0867ZM8.6287 18.0867V18.3867H8.87495L8.92295 18.1452L8.6287 18.0867ZM8.62825 18.957L8.92249 18.8986L8.8745 18.657H8.62825V18.957ZM12.795 18.957V18.657H12.5485L12.5007 18.8988L12.795 18.957ZM5.2264 5.91327L5.52066 5.85484L5.47269 5.61327H5.2264V5.91327ZM9.39267 5.91327V5.61327H9.14641L9.09842 5.85482L9.39267 5.91327ZM9.39315 5.04342L9.0989 5.1019L9.1469 5.34342H9.39315V5.04342ZM5.22688 5.04388V5.34388H5.47312L5.52112 5.10236L5.22688 5.04388ZM19.5995 11.5656L19.3053 11.624L19.3532 11.8656H19.5995V11.5656ZM15.4332 11.5656V11.8656H15.6796L15.7275 11.6238L15.4332 11.5656ZM15.4328 12.4349L15.727 12.3765L15.679 12.1349H15.4328V12.4349ZM19.599 12.4349V12.1349H19.3527L19.3048 12.3766L19.599 12.4349ZM21.3436 11.9998L21.0436 11.9992V11.9998H21.3436ZM20.9189 17.7867H12.7954V18.3867H20.9189V17.7867ZM13.0897 18.0284C12.8668 16.9038 11.8911 16.0475 10.713 16.0475V16.6475C11.5899 16.6475 12.331 17.2866 12.5012 18.1451L13.0897 18.0284ZM10.713 16.0475C9.53359 16.0475 8.55794 16.9037 8.33446 18.0283L8.92295 18.1452C9.09355 17.2868 9.83459 16.6475 10.713 16.6475V16.0475ZM8.6287 17.7867H3.05709V18.3867H8.6287V17.7867ZM3.05709 17.7867C2.65036 17.7867 2.33188 18.1221 2.33188 18.5219H2.93188C2.93188 18.4406 2.99443 18.3867 3.05709 18.3867V17.7867ZM2.33188 18.5219C2.33188 18.9217 2.65039 19.257 3.05709 19.257V18.657C2.99444 18.657 2.93188 18.6031 2.93188 18.5219H2.33188ZM3.05709 19.257H8.62825V18.657H3.05709V19.257ZM8.334 19.0155C8.55749 20.1401 9.53313 20.9962 10.7125 20.9962V20.3962C9.83413 20.3962 9.0931 19.757 8.92249 18.8986L8.334 19.0155ZM10.7125 20.9962C11.8911 20.9962 12.8668 20.14 13.0893 19.0152L12.5007 18.8988C12.3309 19.7571 11.59 20.3962 10.7125 20.3962V20.9962ZM12.795 19.257H20.9184V18.657H12.795V19.257ZM20.9184 19.257C21.3252 19.257 21.6436 18.9216 21.6436 18.5219H21.0436C21.0436 18.6031 20.9811 18.657 20.9184 18.657V19.257ZM21.6436 18.5219C21.6436 18.1225 21.326 17.7867 20.9189 17.7867V18.3867C20.9811 18.3867 21.0436 18.4402 21.0436 18.5219H21.6436ZM10.7125 19.525C10.1789 19.525 9.73592 19.0821 9.73592 18.5219H9.13592C9.13592 19.4019 9.83612 20.125 10.7125 20.125V19.525ZM9.73592 18.5219C9.73592 17.9614 10.1792 17.5178 10.7125 17.5178V16.9178C9.83586 16.9178 9.13592 17.6421 9.13592 18.5219H9.73592ZM10.7125 17.5178C11.2446 17.5178 11.6877 17.9611 11.6877 18.5219H12.2877C12.2877 17.6424 11.5885 16.9178 10.7125 16.9178V17.5178ZM11.6877 18.5219C11.6877 19.0824 11.2449 19.525 10.7125 19.525V20.125C11.5883 20.125 12.2877 19.4016 12.2877 18.5219H11.6877ZM3.05705 6.21327H5.2264V5.61327H3.05705V6.21327ZM4.93214 5.97169C5.1556 7.09712 6.1303 7.95246 7.30931 7.95246V7.35246C6.43146 7.35246 5.69129 6.71424 5.52066 5.85484L4.93214 5.97169ZM7.30931 7.95246C8.4883 7.95246 9.46346 7.09669 9.68692 5.97172L9.09842 5.85482C8.9278 6.71376 8.18718 7.35246 7.30931 7.35246V7.95246ZM9.39267 6.21327H20.9184V5.61327H9.39267V6.21327ZM20.9184 6.21327C21.3247 6.21327 21.6436 5.87878 21.6436 5.47857H21.0436C21.0436 5.55941 20.9815 5.61327 20.9184 5.61327V6.21327ZM21.6436 5.47857C21.6436 5.07946 21.3253 4.74342 20.9184 4.74342V5.34342C20.9808 5.34342 21.0436 5.39759 21.0436 5.47857H21.6436ZM20.9184 4.74342H9.39315V5.34342H20.9184V4.74342ZM9.68739 4.98494C9.46392 3.86046 8.48924 3.00469 7.30978 3.00469V3.60469C8.18811 3.60469 8.92829 4.24338 9.0989 5.1019L9.68739 4.98494ZM7.30978 3.00469C6.13016 3.00469 5.15607 3.86111 4.93263 4.9854L5.52112 5.10236C5.69177 4.24369 6.43164 3.60469 7.30978 3.60469V3.00469ZM5.22688 4.74388H3.05705V5.34388H5.22688V4.74388ZM3.05705 4.74388C2.65011 4.74388 2.33184 5.07993 2.33184 5.47903H2.93184C2.93184 5.39804 2.99459 5.34388 3.05705 5.34388V4.74388ZM2.33184 5.47903C2.33184 5.87965 2.65118 6.21325 3.05705 6.21325V5.61325C2.99357 5.61325 2.93184 5.55941 2.93184 5.47903H2.33184ZM7.30978 4.47451C7.84228 4.47451 8.28545 4.9182 8.28545 5.47903H8.88545C8.88545 4.59967 8.18634 3.87451 7.30978 3.87451V4.47451ZM8.28545 5.47903C8.28545 6.03971 7.8424 6.48309 7.30978 6.48309V7.08309C8.18618 7.08309 8.88545 6.35854 8.88545 5.47903H8.28545ZM7.30978 6.48309C6.7766 6.48309 6.33364 6.03966 6.33364 5.47903H5.73364C5.73364 6.35863 6.43296 7.08309 7.30978 7.08309V6.48309ZM6.33364 5.47903C6.33364 4.91835 6.77714 4.47451 7.30978 4.47451V3.87451C6.43337 3.87451 5.73364 4.59952 5.73364 5.47903H6.33364ZM20.9189 11.2656H19.5995V11.8656H20.9189V11.2656ZM19.8938 11.5071C19.6703 10.3818 18.6957 9.52588 17.5166 9.52588V10.1259C18.3944 10.1259 19.1346 10.7645 19.3053 11.624L19.8938 11.5071ZM17.5166 9.52588C16.3377 9.52588 15.3619 10.3816 15.1389 11.5073L15.7275 11.6238C15.8977 10.7646 16.6387 10.1259 17.5166 10.1259V9.52588ZM15.4332 11.2656H3.05707V11.8656H15.4332V11.2656ZM3.05707 11.2656C2.65096 11.2656 2.33186 11.5998 2.33186 11.9998H2.93186C2.93186 11.9196 2.99379 11.8656 3.05707 11.8656V11.2656ZM2.33186 11.9998C2.33186 12.3995 2.65037 12.7349 3.05707 12.7349V12.1349C2.99442 12.1349 2.93186 12.081 2.93186 11.9998H2.33186ZM3.05707 12.7349H15.4328V12.1349H3.05707V12.7349ZM15.1385 12.4934C15.362 13.6183 16.3371 14.4741 17.5161 14.4741V13.8741C16.6383 13.8741 15.8976 13.2354 15.727 12.3765L15.1385 12.4934ZM17.5161 14.4741C18.6952 14.4741 19.6704 13.6178 19.8933 12.4933L19.3048 12.3766C19.1346 13.235 18.394 13.8741 17.5161 13.8741V14.4741ZM19.599 12.7349H20.9184V12.1349H19.599V12.7349ZM20.9184 12.7349C21.3251 12.7349 21.6436 12.3995 21.6436 11.9998H21.0436C21.0436 12.081 20.9811 12.1349 20.9184 12.1349V12.7349ZM21.6436 12.0004C21.6444 11.5998 21.3248 11.2656 20.9189 11.2656V11.8656C20.9823 11.8656 21.0438 11.9196 21.0436 11.9992L21.6436 12.0004ZM17.5166 13.0043C16.9833 13.0043 16.5409 12.5611 16.5409 11.9998H15.9409C15.9409 12.8795 16.6391 13.6043 17.5166 13.6043V13.0043ZM16.5409 11.9998C16.5409 11.4389 16.9837 10.9953 17.5166 10.9953V10.3953C16.6395 10.3953 15.9409 11.1205 15.9409 11.9998H16.5409ZM17.5166 10.9953C18.0495 10.9953 18.4923 11.4389 18.4923 11.9998H19.0923C19.0923 11.1205 18.3937 10.3953 17.5166 10.3953V10.9953ZM18.4923 11.9998C18.4923 12.561 18.0492 13.0043 17.5166 13.0043V13.6043C18.3931 13.6043 19.0923 12.8797 19.0923 11.9998H18.4923Z" fill="#061926" mask="url(#path-1-outside-1_3287_272962)"/>
</svg>
