<svg width="24" height="24" viewBox="0 0 24 24" fill="none" xmlns="http://www.w3.org/2000/svg">
<mask id="path-1-inside-1_3287_272403" fill="white">
<path d="M20.9188 18.0867H12.7954C12.5988 17.0952 11.7404 16.3475 10.7129 16.3475C9.68401 16.3475 8.82567 17.0952 8.62863 18.0867H3.05702C2.82232 18.0867 2.6318 18.2814 2.6318 18.5219C2.6318 18.7624 2.82234 18.957 3.05702 18.957H8.62817C8.82522 19.9485 9.68356 20.6962 10.7125 20.6962C11.7404 20.6962 12.5988 19.9485 12.7949 18.957H20.9183C21.153 18.957 21.3436 18.7624 21.3436 18.5219C21.3436 18.2814 21.1535 18.0867 20.9188 18.0867M10.7124 19.825C10.0074 19.825 9.43585 19.242 9.43585 18.5219C9.43585 17.8017 10.0075 17.2178 10.7124 17.2178C11.4165 17.2178 11.9877 17.8017 11.9877 18.5219C11.9877 19.242 11.4165 19.825 10.7124 19.825ZM3.05698 5.91327H5.22632C5.42337 6.90568 6.2808 7.65246 7.30923 7.65246C8.33767 7.65246 9.19555 6.90522 9.3926 5.91327H20.9183C21.153 5.91327 21.3435 5.7191 21.3435 5.47857C21.3435 5.23853 21.153 5.04342 20.9183 5.04342H9.39307C9.19603 4.05192 8.33859 3.30469 7.30971 3.30469C6.28082 3.30469 5.42384 4.0524 5.2268 5.04388H3.05698C2.82228 5.04388 2.63176 5.23898 2.63176 5.47903C2.63176 5.71953 2.8223 5.91325 3.05698 5.91325M7.30971 4.17451C8.01424 4.17451 8.58538 4.75894 8.58538 5.47903C8.58538 6.19912 8.01422 6.78309 7.30971 6.78309C6.60471 6.78309 6.03357 6.19915 6.03357 5.47903C6.03357 4.75894 6.60518 4.17451 7.30971 4.17451ZM20.9188 11.5656H19.5994C19.4024 10.5731 18.545 9.82588 17.5165 9.82588C16.4881 9.82588 15.6297 10.5731 15.4331 11.5656H3.057C2.8223 11.5656 2.63178 11.7597 2.63178 11.9998C2.63178 12.2403 2.82232 12.4349 3.057 12.4349H15.4327C15.6297 13.4269 16.4876 14.1741 17.5161 14.1741C18.5445 14.1741 19.4024 13.4264 19.599 12.4349H20.9183C21.153 12.4349 21.3435 12.2403 21.3435 11.9998C21.344 11.7597 21.1535 11.5656 20.9188 11.5656M17.5165 13.3043C16.8111 13.3043 16.2409 12.7203 16.2409 11.9998C16.2409 11.2797 16.8116 10.6953 17.5165 10.6953C18.2215 10.6953 18.7922 11.2797 18.7922 11.9998C18.7922 12.7203 18.2211 13.3043 17.5165 13.3043Z"/>
</mask>
<path d="M20.9188 18.0867H12.7954C12.5988 17.0952 11.7404 16.3475 10.7129 16.3475C9.68401 16.3475 8.82567 17.0952 8.62863 18.0867H3.05702C2.82232 18.0867 2.6318 18.2814 2.6318 18.5219C2.6318 18.7624 2.82234 18.957 3.05702 18.957H8.62817C8.82522 19.9485 9.68356 20.6962 10.7125 20.6962C11.7404 20.6962 12.5988 19.9485 12.7949 18.957H20.9183C21.153 18.957 21.3436 18.7624 21.3436 18.5219C21.3436 18.2814 21.1535 18.0867 20.9188 18.0867M10.7124 19.825C10.0074 19.825 9.43585 19.242 9.43585 18.5219C9.43585 17.8017 10.0075 17.2178 10.7124 17.2178C11.4165 17.2178 11.9877 17.8017 11.9877 18.5219C11.9877 19.242 11.4165 19.825 10.7124 19.825ZM3.05698 5.91327H5.22632C5.42337 6.90568 6.2808 7.65246 7.30923 7.65246C8.33767 7.65246 9.19555 6.90522 9.3926 5.91327H20.9183C21.153 5.91327 21.3435 5.7191 21.3435 5.47857C21.3435 5.23853 21.153 5.04342 20.9183 5.04342H9.39307C9.19603 4.05192 8.33859 3.30469 7.30971 3.30469C6.28082 3.30469 5.42384 4.0524 5.2268 5.04388H3.05698C2.82228 5.04388 2.63176 5.23898 2.63176 5.47903C2.63176 5.71953 2.8223 5.91325 3.05698 5.91325M7.30971 4.17451C8.01424 4.17451 8.58538 4.75894 8.58538 5.47903C8.58538 6.19912 8.01422 6.78309 7.30971 6.78309C6.60471 6.78309 6.03357 6.19915 6.03357 5.47903C6.03357 4.75894 6.60518 4.17451 7.30971 4.17451ZM20.9188 11.5656H19.5994C19.4024 10.5731 18.545 9.82588 17.5165 9.82588C16.4881 9.82588 15.6297 10.5731 15.4331 11.5656H3.057C2.8223 11.5656 2.63178 11.7597 2.63178 11.9998C2.63178 12.2403 2.82232 12.4349 3.057 12.4349H15.4327C15.6297 13.4269 16.4876 14.1741 17.5161 14.1741C18.5445 14.1741 19.4024 13.4264 19.599 12.4349H20.9183C21.153 12.4349 21.3435 12.2403 21.3435 11.9998C21.344 11.7597 21.1535 11.5656 20.9188 11.5656M17.5165 13.3043C16.8111 13.3043 16.2409 12.7203 16.2409 11.9998C16.2409 11.2797 16.8116 10.6953 17.5165 10.6953C18.2215 10.6953 18.7922 11.2797 18.7922 11.9998C18.7922 12.7203 18.2211 13.3043 17.5165 13.3043Z" fill="#62B0E5"/>
<path d="M12.7954 18.0867L12.7724 18.0913L12.7761 18.1102H12.7954V18.0867ZM8.62863 18.0867V18.1102H8.64786L8.65161 18.0913L8.62863 18.0867ZM8.62817 18.957L8.65116 18.9525L8.64741 18.9336H8.62817V18.957ZM12.7949 18.957V18.9336H12.7756L12.7719 18.9525L12.7949 18.957ZM5.22632 5.91327L5.24931 5.9087L5.24557 5.88983H5.22632V5.91327ZM9.3926 5.91327V5.88983H9.37336L9.36961 5.9087L9.3926 5.91327ZM9.39307 5.04342L9.37008 5.04799L9.37383 5.06686H9.39307V5.04342ZM5.2268 5.04388V5.06732H5.24604L5.24979 5.04845L5.2268 5.04388ZM19.5994 11.5656L19.5765 11.5701L19.5802 11.589H19.5994V11.5656ZM15.4331 11.5656V11.589H15.4524L15.4561 11.5701L15.4331 11.5656ZM15.4327 12.4349L15.4557 12.4304L15.4519 12.4115H15.4327V12.4349ZM19.599 12.4349V12.4115H19.5797L19.576 12.4304L19.599 12.4349ZM21.3435 11.9998L21.3201 11.9997V11.9998H21.3435ZM20.9188 18.0633H12.7954V18.1102H20.9188V18.0633ZM12.8183 18.0822C12.6197 17.0803 11.7522 16.3241 10.7129 16.3241V16.371C11.7287 16.371 12.5779 17.1102 12.7724 18.0913L12.8183 18.0822ZM10.7129 16.3241C9.67225 16.3241 8.80475 17.0803 8.60564 18.0822L8.65161 18.0913C8.84659 17.1102 9.69577 16.371 10.7129 16.371V16.3241ZM8.62863 18.0633H3.05702V18.1102H8.62863V18.0633ZM3.05702 18.0633C2.80888 18.0633 2.60836 18.2689 2.60836 18.5219H2.65524C2.65524 18.2938 2.83576 18.1102 3.05702 18.1102V18.0633ZM2.60836 18.5219C2.60836 18.7748 2.8089 18.9805 3.05702 18.9805V18.9336C2.83578 18.9336 2.65524 18.7499 2.65524 18.5219H2.60836ZM3.05702 18.9805H8.62817V18.9336H3.05702V18.9805ZM8.60518 18.9616C8.80429 19.9635 9.6718 20.7197 10.7125 20.7197V20.6728C9.69532 20.6728 8.84614 19.9336 8.65116 18.9525L8.60518 18.9616ZM10.7125 20.7197C11.7522 20.7197 12.6197 19.9635 12.8179 18.9616L12.7719 18.9525C12.5779 19.9336 11.7287 20.6728 10.7125 20.6728V20.7197ZM12.7949 18.9805H20.9183V18.9336H12.7949V18.9805ZM20.9183 18.9805C21.1665 18.9805 21.367 18.7748 21.367 18.5219H21.3201C21.3201 18.7499 21.1396 18.9336 20.9183 18.9336V18.9805ZM21.367 18.5219C21.367 18.269 21.167 18.0633 20.9188 18.0633V18.1102C21.14 18.1102 21.3201 18.2938 21.3201 18.5219H21.367ZM10.7124 19.8015C10.0208 19.8015 9.45929 19.2295 9.45929 18.5219H9.41241C9.41241 19.2545 9.99405 19.8484 10.7124 19.8484V19.8015ZM9.45929 18.5219C9.45929 17.8142 10.0209 17.2412 10.7124 17.2412V17.1944C9.99405 17.1944 9.41241 17.7893 9.41241 18.5219H9.45929ZM10.7124 17.2412C11.4031 17.2412 11.9642 17.8142 11.9642 18.5219H12.0111C12.0111 17.7893 11.4299 17.1944 10.7124 17.1944V17.2412ZM11.9642 18.5219C11.9642 19.2295 11.4031 19.8015 10.7124 19.8015V19.8484C11.4299 19.8484 12.0111 19.2544 12.0111 18.5219H11.9642ZM3.05698 5.9367H5.22632V5.88983H3.05698V5.9367ZM5.20334 5.91783C5.40244 6.92064 6.26904 7.67589 7.30923 7.67589V7.62902C6.29257 7.62902 5.44429 6.89072 5.24931 5.9087L5.20334 5.91783ZM7.30923 7.67589C8.34943 7.67589 9.21648 6.92018 9.41559 5.91783L9.36961 5.9087C9.17463 6.89027 8.3259 7.62902 7.30923 7.62902V7.67589ZM9.3926 5.9367H20.9183V5.88983H9.3926V5.9367ZM20.9183 5.9367C21.1664 5.9367 21.367 5.73157 21.367 5.47857H21.3201C21.3201 5.70662 21.1396 5.88983 20.9183 5.88983V5.9367ZM21.367 5.47857C21.367 5.2261 21.1665 5.01998 20.9183 5.01998V5.06686C21.1395 5.06686 21.3201 5.25095 21.3201 5.47857H21.367ZM20.9183 5.01998H9.39307V5.06686H20.9183V5.01998ZM9.41606 5.03885C9.21695 4.03696 8.35036 3.28125 7.30971 3.28125V3.32812C8.32683 3.32812 9.1751 4.06688 9.37008 5.04799L9.41606 5.03885ZM7.30971 3.28125C6.26905 3.28125 5.40292 4.03745 5.20381 5.03931L5.24979 5.04845C5.44477 4.06734 6.2926 3.32812 7.30971 3.32812V3.28125ZM5.2268 5.02044H3.05698V5.06732H5.2268V5.02044ZM3.05698 5.02044C2.80882 5.02044 2.60832 5.22656 2.60832 5.47903H2.6552C2.6552 5.25141 2.83573 5.06732 3.05698 5.06732V5.02044ZM2.60832 5.47903C2.60832 5.73204 2.80892 5.93668 3.05698 5.93668V5.88981C2.83567 5.88981 2.6552 5.70702 2.6552 5.47903H2.60832ZM7.30971 4.19795C8.0008 4.19795 8.56194 4.77138 8.56194 5.47903H8.60881C8.60881 4.74649 8.02768 4.15107 7.30971 4.15107V4.19795ZM8.56194 5.47903C8.56194 6.18667 8.00079 6.75965 7.30971 6.75965V6.80653C8.02764 6.80653 8.60881 6.21158 8.60881 5.47903H8.56194ZM7.30971 6.75965C6.61813 6.75965 6.057 6.18669 6.057 5.47903H6.01013C6.01013 6.21161 6.59128 6.80653 7.30971 6.80653V6.75965ZM6.057 5.47903C6.057 4.77139 6.61861 4.19795 7.30971 4.19795V4.15107C6.59175 4.15107 6.01013 4.74648 6.01013 5.47903H6.057ZM20.9188 11.5421H19.5994V11.589H20.9188V11.5421ZM19.6224 11.561C19.4233 10.5582 18.5567 9.80245 17.5165 9.80245V9.84932C18.5332 9.84932 19.3815 10.5881 19.5765 11.5701L19.6224 11.561ZM17.5165 9.80245C16.4763 9.80245 15.6088 10.5582 15.4102 11.561L15.4561 11.5701C15.6507 10.5881 16.4999 9.84932 17.5165 9.84932V9.80245ZM15.4331 11.5421H3.057V11.589H15.4331V11.5421ZM3.057 11.5421C2.80891 11.5421 2.60834 11.7473 2.60834 11.9998H2.65522C2.65522 11.7722 2.83569 11.589 3.057 11.589V11.5421ZM2.60834 11.9998C2.60834 12.2527 2.80888 12.4584 3.057 12.4584V12.4115C2.83576 12.4115 2.65522 12.2278 2.65522 11.9998H2.60834ZM3.057 12.4584H15.4327V12.4115H3.057V12.4584ZM15.4097 12.4395C15.6088 13.4418 16.4759 14.1976 17.5161 14.1976V14.1507C16.4994 14.1507 15.6507 13.4119 15.4557 12.4304L15.4097 12.4395ZM17.5161 14.1976C18.5563 14.1976 19.4233 13.4414 19.622 12.4395L19.576 12.4304C19.3815 13.4115 18.5327 14.1507 17.5161 14.1507V14.1976ZM19.599 12.4584H20.9183V12.4115H19.599V12.4584ZM20.9183 12.4584C21.1665 12.4584 21.367 12.2527 21.367 11.9998H21.3201C21.3201 12.2278 21.1396 12.4115 20.9183 12.4115V12.4584ZM21.367 11.9998C21.3675 11.7472 21.1669 11.5421 20.9188 11.5421V11.589C21.1401 11.589 21.3205 11.7722 21.3201 11.9997L21.367 11.9998ZM17.5165 13.2808C16.8245 13.2808 16.2643 12.7079 16.2643 11.9998H16.2174C16.2174 12.7328 16.7976 13.3277 17.5165 13.3277V13.2808ZM16.2643 11.9998C16.2643 11.2921 16.825 10.7187 17.5165 10.7187V10.6718C16.7981 10.6718 16.2174 11.2672 16.2174 11.9998H16.2643ZM17.5165 10.7187C18.2081 10.7187 18.7688 11.2921 18.7688 11.9998H18.8156C18.8156 11.2672 18.235 10.6718 17.5165 10.6718V10.7187ZM18.7688 11.9998C18.7688 12.7079 18.2076 13.2808 17.5165 13.2808V13.3277C18.2345 13.3277 18.8156 12.7328 18.8156 11.9998H18.7688Z" fill="#62B0E5" mask="url(#path-1-inside-1_3287_272403)"/>
</svg>
