<svg width="24" height="24" viewBox="0 0 24 24" fill="none" xmlns="http://www.w3.org/2000/svg">
<path d="M21 12.531C20.7709 12.2717 20.52 12.0326 20.25 11.8162V11.469C20.1716 11.5259 20.0918 11.5809 20.0107 11.634C19.7848 11.4707 19.5477 11.3233 19.3013 11.193C19.6437 11.0002 19.9622 10.7676 20.25 10.5V6.975C18.8603 8.1675 15.69 9 12 9C8.31 9 5.13975 8.1675 3.75 6.97575V10.5C5.115 11.8027 8.20425 12.7193 11.8162 12.7493C11.6295 12.9818 11.46 13.2292 11.3085 13.4895C8.1555 13.395 5.3715 12.6473 3.75 11.469V14.25C3.75 15.567 6.654 16.92 10.5405 17.1975C10.5705 17.4578 10.617 17.712 10.6785 17.9603C7.566 17.769 4.971 16.914 3.75 15.75V18.207L3.85425 18.4207C4.53675 19.821 7.959 21 12 21C12.1755 21 12.3503 20.9977 12.5235 20.9932C12.8243 21.2595 13.152 21.4958 13.5015 21.6982C13.0133 21.732 12.5115 21.75 12 21.75C7.64625 21.75 4.014 20.4615 3.18 18.75L3 18V5.673V5.625C3 3.76125 7.02975 2.25 12 2.25C16.9703 2.25 21 3.76125 21 5.625V12.531ZM12 8.25C16.581 8.25 20.25 6.87375 20.25 5.625C20.25 4.37625 16.581 3 12 3C7.419 3 3.75 4.37625 3.75 5.625C3.75 6.87375 7.419 8.25 12 8.25ZM16.875 14.3678V19.3515C16.875 19.451 16.8355 19.5463 16.7652 19.6167C16.6948 19.687 16.5995 19.7265 16.5 19.7265C16.4005 19.7265 16.3052 19.687 16.2348 19.6167C16.1645 19.5463 16.125 19.451 16.125 19.3515V14.3378L14.4015 15.8768C14.3273 15.943 14.2298 15.977 14.1305 15.9714C14.0312 15.9658 13.9382 15.9209 13.872 15.8468C13.8058 15.7726 13.7717 15.6751 13.7773 15.5758C13.783 15.4765 13.8278 15.3835 13.902 15.3173L16.1649 13.2968C16.3583 13.124 16.6517 13.1279 16.8405 13.3056L18.9855 15.324C19.023 15.3573 19.0534 15.3978 19.0749 15.4431C19.0965 15.4883 19.1087 15.5375 19.1109 15.5876C19.1132 15.6376 19.1053 15.6877 19.0879 15.7347C19.0705 15.7817 19.0438 15.8247 19.0094 15.8612C18.9751 15.8977 18.9337 15.927 18.8879 15.9472C18.842 15.9675 18.7926 15.9784 18.7424 15.9792C18.6923 15.98 18.6425 15.9708 18.596 15.952C18.5495 15.9333 18.5073 15.9054 18.4718 15.87L16.875 14.3678ZM16.5 21.75C15.8106 21.75 15.1279 21.6142 14.4909 21.3504C13.854 21.0865 13.2752 20.6998 12.7877 20.2123C12.3002 19.7248 11.9135 19.146 11.6496 18.5091C11.3858 17.8721 11.25 17.1894 11.25 16.5C11.25 15.8106 11.3858 15.1279 11.6496 14.4909C11.9135 13.854 12.3002 13.2752 12.7877 12.7877C13.2752 12.3002 13.854 11.9135 14.4909 11.6496C15.1279 11.3858 15.8106 11.25 16.5 11.25C17.8924 11.25 19.2277 11.8031 20.2123 12.7877C21.1969 13.7723 21.75 15.1076 21.75 16.5C21.75 17.8924 21.1969 19.2277 20.2123 20.2123C19.2277 21.1969 17.8924 21.75 16.5 21.75ZM16.5 21C17.0909 21 17.6761 20.8836 18.2221 20.6575C18.768 20.4313 19.2641 20.0998 19.682 19.682C20.0998 19.2641 20.4313 18.768 20.6575 18.2221C20.8836 17.6761 21 17.0909 21 16.5C21 15.9091 20.8836 15.3239 20.6575 14.7779C20.4313 14.232 20.0998 13.7359 19.682 13.318C19.2641 12.9002 18.768 12.5687 18.2221 12.3425C17.6761 12.1164 17.0909 12 16.5 12C15.3065 12 14.1619 12.4741 13.318 13.318C12.4741 14.1619 12 15.3065 12 16.5C12 17.6935 12.4741 18.8381 13.318 19.682C14.1619 20.5259 15.3065 21 16.5 21Z" fill="#62B0E5"/>
<path d="M21 12.531C20.7709 12.2717 20.52 12.0326 20.25 11.8162V11.469C20.1716 11.5259 20.0918 11.5809 20.0107 11.634C19.7848 11.4707 19.5477 11.3233 19.3013 11.193C19.6437 11.0002 19.9622 10.7676 20.25 10.5V6.975C18.8603 8.1675 15.69 9 12 9C8.31 9 5.13975 8.1675 3.75 6.97575V10.5C5.115 11.8027 8.20425 12.7193 11.8162 12.7493C11.6295 12.9818 11.46 13.2292 11.3085 13.4895C8.1555 13.395 5.3715 12.6473 3.75 11.469V14.25C3.75 15.567 6.654 16.92 10.5405 17.1975C10.5705 17.4578 10.617 17.712 10.6785 17.9603C7.566 17.769 4.971 16.914 3.75 15.75V18.207L3.85425 18.4207C4.53675 19.821 7.959 21 12 21C12.1755 21 12.3503 20.9977 12.5235 20.9932C12.8243 21.2595 13.152 21.4958 13.5015 21.6982C13.0133 21.732 12.5115 21.75 12 21.75C7.64625 21.75 4.014 20.4615 3.18 18.75L3 18V5.673V5.625C3 3.76125 7.02975 2.25 12 2.25C16.9703 2.25 21 3.76125 21 5.625V12.531ZM12 8.25C16.581 8.25 20.25 6.87375 20.25 5.625C20.25 4.37625 16.581 3 12 3C7.419 3 3.75 4.37625 3.75 5.625C3.75 6.87375 7.419 8.25 12 8.25ZM16.875 14.3678V19.3515C16.875 19.451 16.8355 19.5463 16.7652 19.6167C16.6948 19.687 16.5995 19.7265 16.5 19.7265C16.4005 19.7265 16.3052 19.687 16.2348 19.6167C16.1645 19.5463 16.125 19.451 16.125 19.3515V14.3378L14.4015 15.8768C14.3273 15.943 14.2298 15.977 14.1305 15.9714C14.0312 15.9658 13.9382 15.9209 13.872 15.8468C13.8058 15.7726 13.7717 15.6751 13.7773 15.5758C13.783 15.4765 13.8278 15.3835 13.902 15.3173L16.1649 13.2968C16.3583 13.124 16.6517 13.1279 16.8405 13.3056L18.9855 15.324C19.023 15.3573 19.0534 15.3978 19.0749 15.4431C19.0965 15.4883 19.1087 15.5375 19.1109 15.5876C19.1132 15.6376 19.1053 15.6877 19.0879 15.7347C19.0705 15.7817 19.0438 15.8247 19.0094 15.8612C18.9751 15.8977 18.9337 15.927 18.8879 15.9472C18.842 15.9675 18.7926 15.9784 18.7424 15.9792C18.6923 15.98 18.6425 15.9708 18.596 15.952C18.5495 15.9333 18.5073 15.9054 18.4718 15.87L16.875 14.3678ZM16.5 21.75C15.8106 21.75 15.1279 21.6142 14.4909 21.3504C13.854 21.0865 13.2752 20.6998 12.7877 20.2123C12.3002 19.7248 11.9135 19.146 11.6496 18.5091C11.3858 17.8721 11.25 17.1894 11.25 16.5C11.25 15.8106 11.3858 15.1279 11.6496 14.4909C11.9135 13.854 12.3002 13.2752 12.7877 12.7877C13.2752 12.3002 13.854 11.9135 14.4909 11.6496C15.1279 11.3858 15.8106 11.25 16.5 11.25C17.8924 11.25 19.2277 11.8031 20.2123 12.7877C21.1969 13.7723 21.75 15.1076 21.75 16.5C21.75 17.8924 21.1969 19.2277 20.2123 20.2123C19.2277 21.1969 17.8924 21.75 16.5 21.75ZM16.5 21C17.0909 21 17.6761 20.8836 18.2221 20.6575C18.768 20.4313 19.2641 20.0998 19.682 19.682C20.0998 19.2641 20.4313 18.768 20.6575 18.2221C20.8836 17.6761 21 17.0909 21 16.5C21 15.9091 20.8836 15.3239 20.6575 14.7779C20.4313 14.232 20.0998 13.7359 19.682 13.318C19.2641 12.9002 18.768 12.5687 18.2221 12.3425C17.6761 12.1164 17.0909 12 16.5 12C15.3065 12 14.1619 12.4741 13.318 13.318C12.4741 14.1619 12 15.3065 12 16.5C12 17.6935 12.4741 18.8381 13.318 19.682C14.1619 20.5259 15.3065 21 16.5 21Z" stroke="#62B0E5"/>
</svg>
