<svg width="24" height="24" viewBox="0 0 24 24" fill="none" xmlns="http://www.w3.org/2000/svg">
<path d="M20.8876 12.6303L21.15 12.9274V12.531V5.625C21.15 5.10075 20.8661 4.61926 20.3922 4.19914C19.9181 3.77887 19.2407 3.40723 18.4165 3.09814C16.767 2.47957 14.4984 2.1 12 2.1C9.50165 2.1 7.23299 2.47957 5.58349 3.09814C4.75929 3.40723 4.08187 3.77887 3.6078 4.19914C3.13391 4.61926 2.85 5.10075 2.85 5.625V5.673V18V18.0177L2.85414 18.035L3.03414 18.785L3.03797 18.801L3.04516 18.8157C3.48945 19.7275 4.65574 20.4945 6.22125 21.0336C7.79611 21.576 9.80951 21.9 12 21.9C12.515 21.9 13.0202 21.8819 13.5118 21.8479L14.0007 21.8141L13.5767 21.5685C13.2358 21.3709 12.9162 21.1405 12.6229 20.8809L12.5787 20.8418L12.5196 20.8433C12.3477 20.8478 12.1742 20.85 12 20.85C9.99294 20.85 8.14303 20.5571 6.71404 20.0928C5.99943 19.8606 5.39388 19.5869 4.9276 19.2882C4.45929 18.9882 4.14279 18.6704 3.98909 18.355L3.98907 18.355L3.9 18.1724V16.0808C4.52769 16.5887 5.40751 17.0243 6.45898 17.3627C7.66306 17.7502 9.10251 18.0137 10.6693 18.11L10.8732 18.1225L10.8241 17.9242C10.7641 17.682 10.7188 17.4341 10.6895 17.1803L10.6753 17.0567L10.5512 17.0479C8.62085 16.9101 6.941 16.5054 5.74864 15.9764C5.15196 15.7118 4.68408 15.4189 4.3678 15.1184C4.05022 14.8166 3.9 14.5218 3.9 14.25V11.7551C5.58046 12.862 8.28367 13.5489 11.304 13.6394L11.3932 13.6421L11.4381 13.565C11.586 13.311 11.7512 13.0697 11.9332 12.8432L12.1271 12.6018L11.8175 12.5993C10.0232 12.5844 8.36141 12.3492 6.98145 11.9576C5.6305 11.5742 4.56174 11.0443 3.9 10.435V7.28523C4.62664 7.816 5.69321 8.25941 6.97601 8.5803C8.4169 8.94073 10.1443 9.15 12 9.15C13.8557 9.15 15.5831 8.94073 17.024 8.5802C18.3068 8.25923 19.3734 7.81567 20.1 7.28459V10.434C19.8335 10.6752 19.541 10.8859 19.2277 11.0623L18.9882 11.1971L19.2311 11.3256C19.4714 11.4527 19.7026 11.5964 19.9229 11.7556L20.0066 11.8161L20.093 11.7595C20.0953 11.7579 20.0977 11.7564 20.1 11.7548V11.8162V11.8883L20.1562 11.9333C20.4195 12.1443 20.6642 12.3774 20.8876 12.6303ZM14.5014 15.9886L14.5014 15.9886L15.975 14.6728V19.3515C15.975 19.4907 16.0303 19.6243 16.1288 19.7227C16.2272 19.8212 16.3608 19.8765 16.5 19.8765C16.6392 19.8765 16.7728 19.8212 16.8712 19.7227C16.9697 19.6243 17.025 19.4907 17.025 19.3515V14.7148L18.3676 15.9779C18.417 16.0267 18.4756 16.0652 18.5399 16.0911C18.605 16.1174 18.6747 16.1303 18.7449 16.1292C18.8151 16.128 18.8843 16.1128 18.9485 16.0844C19.0127 16.0561 19.0706 16.0151 19.1187 15.964C19.1668 15.9129 19.2041 15.8526 19.2285 15.7868C19.2529 15.721 19.2639 15.651 19.2608 15.5809C19.2577 15.5108 19.2405 15.442 19.2104 15.3786C19.1805 15.3159 19.1385 15.2598 19.0869 15.2134L16.9433 13.1964C16.6978 12.9653 16.3164 12.9603 16.065 13.1849L13.8021 15.2054C13.8021 15.2054 13.8021 15.2054 13.8021 15.2054C13.6982 15.2981 13.6355 15.4283 13.6276 15.5673C13.6197 15.7063 13.6674 15.8428 13.7601 15.9466C13.8528 16.0505 13.983 16.1133 14.1221 16.1212C14.2611 16.129 14.3975 16.0814 14.5014 15.9886ZM20.1 5.625C20.1 5.86268 19.9218 6.14382 19.5165 6.441C19.118 6.73311 18.532 7.0162 17.7951 7.26358C16.323 7.75778 14.277 8.1 12 8.1C9.72305 8.1 7.677 7.75778 6.20486 7.26358C5.46797 7.0162 4.88202 6.73311 4.48354 6.441C4.07816 6.14382 3.9 5.86268 3.9 5.625C3.9 5.38732 4.07816 5.10618 4.48354 4.809C4.88202 4.51689 5.46797 4.2338 6.20486 3.98642C7.677 3.49222 9.72305 3.15 12 3.15C14.277 3.15 16.323 3.49222 17.7951 3.98642C18.532 4.2338 19.118 4.51689 19.5165 4.809C19.9218 5.10618 20.1 5.38732 20.1 5.625ZM14.4335 21.489C15.0887 21.7603 15.7909 21.9 16.5 21.9C17.9322 21.9 19.3057 21.3311 20.3184 20.3184C21.3311 19.3057 21.9 17.9322 21.9 16.5C21.9 15.0678 21.3311 13.6943 20.3184 12.6816C19.3057 11.6689 17.9322 11.1 16.5 11.1C15.7909 11.1 15.0887 11.2397 14.4335 11.5111C13.7784 11.7824 13.1831 12.1802 12.6816 12.6816C12.1802 13.1831 11.7824 13.7784 11.5111 14.4335C11.2397 15.0887 11.1 15.7909 11.1 16.5C11.1 17.2091 11.2397 17.9113 11.5111 18.5665C11.7824 19.2216 12.1802 19.8169 12.6816 20.3184C13.1831 20.8198 13.7784 21.2176 14.4335 21.489ZM18.1647 20.5189C17.6369 20.7375 17.0712 20.85 16.5 20.85C15.3463 20.85 14.2399 20.3917 13.4241 19.5759C12.6083 18.7601 12.15 17.6537 12.15 16.5C12.15 15.3463 12.6083 14.2399 13.4241 13.4241C14.2399 12.6083 15.3463 12.15 16.5 12.15C17.0712 12.15 17.6369 12.2625 18.1647 12.4811C18.6924 12.6997 19.172 13.0202 19.5759 13.4241C19.9798 13.828 20.3003 14.3076 20.5189 14.8353C20.7375 15.3631 20.85 15.9288 20.85 16.5C20.85 17.0712 20.7375 17.6369 20.5189 18.1647C20.3003 18.6924 19.9798 19.172 19.5759 19.5759C19.172 19.9798 18.6924 20.3003 18.1647 20.5189Z" fill="#061926" stroke="#061926" stroke-width="0.3"/>
</svg>
