<svg width="24" height="24" viewBox="0 0 24 24" fill="none" xmlns="http://www.w3.org/2000/svg">
<mask id="path-1-outside-1_3093_5116" maskUnits="userSpaceOnUse" x="2.15283" y="2.13477" width="19" height="19" fill="black">
<rect fill="white" x="2.15283" y="2.13477" width="19" height="19"/>
<path d="M20.8234 17.4045V4.22828C20.8236 4.08464 20.7954 3.94237 20.7405 3.80962C20.6856 3.67688 20.605 3.55626 20.5035 3.45469C20.4019 3.35312 20.2813 3.27257 20.1485 3.21768C20.0158 3.16278 19.8735 3.1346 19.7299 3.13477H6.57943C6.28942 3.13477 6.01128 3.24998 5.8062 3.45505C5.60113 3.66012 5.48592 3.93827 5.48592 4.22828V5.47767C5.48592 5.49362 5.47364 5.5059 5.45769 5.5059H4.24635C3.95633 5.5059 3.67819 5.62111 3.47312 5.82618C3.26804 6.03125 3.15283 6.3094 3.15283 6.59941V19.7499C3.15267 19.8935 3.18085 20.0358 3.23574 20.1685C3.29064 20.3013 3.37118 20.4219 3.47276 20.5235C3.57433 20.625 3.69494 20.7056 3.82769 20.7605C3.96043 20.8154 4.1027 20.8435 4.24635 20.8434H17.3968C17.5404 20.8435 17.6827 20.8154 17.8155 20.7605C17.9482 20.7056 18.0688 20.625 18.1704 20.5235C18.272 20.4219 18.3525 20.3013 18.4074 20.1685C18.4623 20.0358 18.4905 19.8935 18.4903 19.7499V18.5005C18.4903 18.4845 18.5026 18.4722 18.5185 18.4722H19.7606C20.0428 18.4706 20.3129 18.3575 20.512 18.1574C20.7112 17.9574 20.8231 17.6867 20.8234 17.4045ZM6.34379 4.05892C6.34379 4.02087 6.37448 3.99264 6.41007 3.99264H19.871C19.9226 3.99264 19.9655 4.0356 19.9655 4.08715V17.5199C19.9652 17.5448 19.9551 17.5687 19.9375 17.5863C19.9198 17.604 19.896 17.6141 19.871 17.6144H18.5161C18.5086 17.6144 18.5014 17.6114 18.4961 17.6061C18.4908 17.6008 18.4879 17.5936 18.4879 17.5861L18.5284 6.61291C18.5285 6.46927 18.5003 6.327 18.4454 6.19425C18.3906 6.06151 18.31 5.9409 18.2084 5.83932C18.1069 5.73775 17.9862 5.6572 17.8535 5.60231C17.7208 5.54741 17.5785 5.51924 17.4348 5.5194L6.37202 5.5059C6.36454 5.5059 6.35736 5.50292 6.35206 5.49763C6.34677 5.49234 6.34379 5.48516 6.34379 5.47767V4.05892ZM17.5637 19.983H4.10398C4.07892 19.983 4.05488 19.9731 4.03716 19.9554C4.01944 19.9376 4.00948 19.9136 4.00948 19.8885V6.45582C4.00948 6.40427 4.05121 6.36132 4.10398 6.36132L17.5772 6.37482C17.6288 6.37482 17.6717 6.41777 17.6717 6.46932L17.6312 19.9143C17.6314 19.9233 17.6297 19.9322 17.6264 19.9405C17.6231 19.9489 17.6182 19.9564 17.6119 19.9628C17.6056 19.9692 17.5981 19.9743 17.5898 19.9778C17.5816 19.9813 17.5727 19.983 17.5637 19.983Z"/>
</mask>
<path d="M20.8234 17.4045V4.22828C20.8236 4.08464 20.7954 3.94237 20.7405 3.80962C20.6856 3.67688 20.605 3.55626 20.5035 3.45469C20.4019 3.35312 20.2813 3.27257 20.1485 3.21768C20.0158 3.16278 19.8735 3.1346 19.7299 3.13477H6.57943C6.28942 3.13477 6.01128 3.24998 5.8062 3.45505C5.60113 3.66012 5.48592 3.93827 5.48592 4.22828V5.47767C5.48592 5.49362 5.47364 5.5059 5.45769 5.5059H4.24635C3.95633 5.5059 3.67819 5.62111 3.47312 5.82618C3.26804 6.03125 3.15283 6.3094 3.15283 6.59941V19.7499C3.15267 19.8935 3.18085 20.0358 3.23574 20.1685C3.29064 20.3013 3.37118 20.4219 3.47276 20.5235C3.57433 20.625 3.69494 20.7056 3.82769 20.7605C3.96043 20.8154 4.1027 20.8435 4.24635 20.8434H17.3968C17.5404 20.8435 17.6827 20.8154 17.8155 20.7605C17.9482 20.7056 18.0688 20.625 18.1704 20.5235C18.272 20.4219 18.3525 20.3013 18.4074 20.1685C18.4623 20.0358 18.4905 19.8935 18.4903 19.7499V18.5005C18.4903 18.4845 18.5026 18.4722 18.5185 18.4722H19.7606C20.0428 18.4706 20.3129 18.3575 20.512 18.1574C20.7112 17.9574 20.8231 17.6867 20.8234 17.4045ZM6.34379 4.05892C6.34379 4.02087 6.37448 3.99264 6.41007 3.99264H19.871C19.9226 3.99264 19.9655 4.0356 19.9655 4.08715V17.5199C19.9652 17.5448 19.9551 17.5687 19.9375 17.5863C19.9198 17.604 19.896 17.6141 19.871 17.6144H18.5161C18.5086 17.6144 18.5014 17.6114 18.4961 17.6061C18.4908 17.6008 18.4879 17.5936 18.4879 17.5861L18.5284 6.61291C18.5285 6.46927 18.5003 6.327 18.4454 6.19425C18.3906 6.06151 18.31 5.9409 18.2084 5.83932C18.1069 5.73775 17.9862 5.6572 17.8535 5.60231C17.7208 5.54741 17.5785 5.51924 17.4348 5.5194L6.37202 5.5059C6.36454 5.5059 6.35736 5.50292 6.35206 5.49763C6.34677 5.49234 6.34379 5.48516 6.34379 5.47767V4.05892ZM17.5637 19.983H4.10398C4.07892 19.983 4.05488 19.9731 4.03716 19.9554C4.01944 19.9376 4.00948 19.9136 4.00948 19.8885V6.45582C4.00948 6.40427 4.05121 6.36132 4.10398 6.36132L17.5772 6.37482C17.6288 6.37482 17.6717 6.41777 17.6717 6.46932L17.6312 19.9143C17.6314 19.9233 17.6297 19.9322 17.6264 19.9405C17.6231 19.9489 17.6182 19.9564 17.6119 19.9628C17.6056 19.9692 17.5981 19.9743 17.5898 19.9778C17.5816 19.9813 17.5727 19.983 17.5637 19.983Z" fill="#303133"/>
<path d="M20.8234 4.22828L20.6234 4.22806V4.22828H20.8234ZM19.7299 3.13477V3.33477L19.7301 3.33477L19.7299 3.13477ZM6.57943 3.13477V2.93477V3.13477ZM4.24635 5.5059V5.3059V5.5059ZM3.15283 6.59941H2.95283H3.15283ZM3.15283 19.7499L3.35283 19.7501V19.7499H3.15283ZM4.24635 20.8434V20.6434L4.24613 20.6434L4.24635 20.8434ZM17.3968 20.8434L17.397 20.6434H17.3968V20.8434ZM18.4903 19.7499H18.2903V19.7501L18.4903 19.7499ZM19.7606 18.4722V18.6722L19.7617 18.6722L19.7606 18.4722ZM19.9655 17.5199L20.1655 17.5224V17.5199H19.9655ZM19.871 17.6144V17.8144L19.8736 17.8144L19.871 17.6144ZM18.4879 17.5861L18.2879 17.5854V17.5861H18.4879ZM18.5284 6.61291L18.7284 6.61365L18.7284 6.61314L18.5284 6.61291ZM17.4348 5.5194L17.4346 5.7194L17.4351 5.7194L17.4348 5.5194ZM6.37202 5.5059L6.37227 5.3059H6.37202V5.5059ZM4.10398 6.36132L4.10419 6.16132H4.10398V6.36132ZM17.5772 6.37482L17.577 6.57482H17.5772V6.37482ZM17.6717 6.46932L17.8717 6.46992V6.46932H17.6717ZM17.6312 19.9143L17.4312 19.9137L17.4312 19.918L17.6312 19.9143ZM21.0234 17.4045V4.22828H20.6234V17.4045H21.0234ZM21.0234 4.22851C21.0236 4.05856 20.9903 3.89024 20.9253 3.73319L20.5557 3.88605C20.6005 3.99449 20.6235 4.11071 20.6234 4.22806L21.0234 4.22851ZM20.9253 3.73319C20.8604 3.57614 20.7651 3.43344 20.6449 3.31327L20.3621 3.59611C20.445 3.67909 20.5108 3.77762 20.5557 3.88605L20.9253 3.73319ZM20.6449 3.31327C20.5247 3.1931 20.382 3.09781 20.225 3.03286L20.0721 3.4025C20.1805 3.44734 20.2791 3.51314 20.3621 3.59611L20.6449 3.31327ZM20.225 3.03286C20.0679 2.96791 19.8996 2.93458 19.7297 2.93477L19.7301 3.33477C19.8475 3.33463 19.9637 3.35765 20.0721 3.4025L20.225 3.03286ZM19.7299 2.93477H6.57943V3.33477H19.7299V2.93477ZM6.57943 2.93477C6.23637 2.93477 5.90736 3.07105 5.66478 3.31363L5.94762 3.59647C6.11519 3.4289 6.34246 3.33477 6.57943 3.33477V2.93477ZM5.66478 3.31363C5.4222 3.55621 5.28592 3.88522 5.28592 4.22828H5.68592C5.68592 3.99131 5.78006 3.76404 5.94762 3.59647L5.66478 3.31363ZM5.28592 4.22828V5.47767H5.68592V4.22828H5.28592ZM5.28592 5.47767C5.28592 5.38317 5.36319 5.3059 5.45769 5.3059V5.7059C5.5841 5.7059 5.68592 5.60408 5.68592 5.47767H5.28592ZM5.45769 5.3059H4.24635V5.7059H5.45769V5.3059ZM4.24635 5.3059C3.90329 5.3059 3.57428 5.44218 3.3317 5.68476L3.61454 5.9676C3.78211 5.80003 4.00938 5.7059 4.24635 5.7059V5.3059ZM3.3317 5.68476C3.08911 5.92734 2.95283 6.25635 2.95283 6.59941H3.35283C3.35283 6.36244 3.44697 6.13517 3.61454 5.9676L3.3317 5.68476ZM2.95283 6.59941V19.7499H3.35283V6.59941H2.95283ZM2.95283 19.7496C2.95264 19.9196 2.98598 20.0879 3.05092 20.245L3.42056 20.0921C3.37572 19.9836 3.3527 19.8674 3.35283 19.7501L2.95283 19.7496ZM3.05092 20.245C3.11587 20.402 3.21116 20.5447 3.33134 20.6649L3.61418 20.382C3.5312 20.2991 3.46541 20.2005 3.42056 20.0921L3.05092 20.245ZM3.33134 20.6649C3.45151 20.785 3.59421 20.8803 3.75126 20.9453L3.90412 20.5756C3.79568 20.5308 3.69715 20.465 3.61418 20.382L3.33134 20.6649ZM3.75126 20.9453C3.90831 21.0102 4.07663 21.0436 4.24658 21.0434L4.24613 20.6434C4.12878 20.6435 4.01256 20.6205 3.90412 20.5756L3.75126 20.9453ZM4.24635 21.0434H17.3968V20.6434H4.24635V21.0434ZM17.3966 21.0434C17.5665 21.0436 17.7348 21.0102 17.8919 20.9453L17.739 20.5756C17.6306 20.6205 17.5144 20.6435 17.397 20.6434L17.3966 21.0434ZM17.8919 20.9453C18.0489 20.8803 18.1916 20.785 18.3118 20.6649L18.029 20.382C17.946 20.465 17.8475 20.5308 17.739 20.5756L17.8919 20.9453ZM18.3118 20.6649C18.432 20.5447 18.5273 20.402 18.5922 20.245L18.2226 20.0921C18.1777 20.2005 18.1119 20.2991 18.029 20.382L18.3118 20.6649ZM18.5922 20.245C18.6572 20.0879 18.6905 19.9196 18.6903 19.7496L18.2903 19.7501C18.2904 19.8674 18.2674 19.9836 18.2226 20.0921L18.5922 20.245ZM18.6903 19.7499V18.5005H18.2903V19.7499H18.6903ZM18.6903 18.5005C18.6903 18.595 18.6131 18.6722 18.5185 18.6722V18.2722C18.3921 18.2722 18.2903 18.3741 18.2903 18.5005H18.6903ZM18.5185 18.6722H19.7606V18.2722H18.5185V18.6722ZM19.7617 18.6722C20.0967 18.6703 20.4174 18.536 20.6538 18.2985L20.3703 18.0163C20.2084 18.1789 19.9888 18.2709 19.7594 18.2722L19.7617 18.6722ZM20.6538 18.2985C20.8902 18.0611 21.023 17.7398 21.0234 17.4047L20.6234 17.4043C20.6231 17.6337 20.5322 17.8537 20.3703 18.0163L20.6538 18.2985ZM6.54379 4.05892C6.54379 4.13613 6.48007 4.19264 6.41007 4.19264V3.79264C6.26889 3.79264 6.14379 3.90561 6.14379 4.05892H6.54379ZM6.41007 4.19264H19.871V3.79264H6.41007V4.19264ZM19.871 4.19264C19.8121 4.19264 19.7655 4.14606 19.7655 4.08715H20.1655C20.1655 3.92514 20.033 3.79264 19.871 3.79264V4.19264ZM19.7655 4.08715V17.5199H20.1655V4.08715H19.7655ZM19.7655 17.5173C19.7659 17.4901 19.7768 17.4642 19.7961 17.4449L20.0789 17.7278C20.1335 17.6732 20.1645 17.5995 20.1655 17.5224L19.7655 17.5173ZM19.7961 17.4449C19.8153 17.4257 19.8413 17.4147 19.8685 17.4144L19.8736 17.8144C19.9507 17.8134 20.0244 17.7823 20.0789 17.7278L19.7961 17.4449ZM19.871 17.4144H18.5161V17.8144H19.871V17.4144ZM18.5161 17.4144C18.5617 17.4144 18.6053 17.4325 18.6375 17.4647L18.3547 17.7475C18.3975 17.7903 18.4555 17.8144 18.5161 17.8144V17.4144ZM18.6375 17.4647C18.6698 17.4969 18.6879 17.5406 18.6879 17.5861H18.2879C18.2879 17.6467 18.3119 17.7047 18.3547 17.7475L18.6375 17.4647ZM18.6879 17.5869L18.7284 6.61365L18.3284 6.61218L18.2879 17.5854L18.6879 17.5869ZM18.7284 6.61314C18.7286 6.44319 18.6952 6.27487 18.6303 6.11782L18.2606 6.27069C18.3055 6.37912 18.3285 6.49534 18.3284 6.61269L18.7284 6.61314ZM18.6303 6.11782C18.5653 5.96077 18.47 5.81807 18.3499 5.6979L18.067 5.98074C18.15 6.06372 18.2158 6.16225 18.2606 6.27069L18.6303 6.11782ZM18.3499 5.6979C18.2297 5.57773 18.087 5.48244 17.9299 5.41749L17.7771 5.78713C17.8855 5.83197 17.984 5.89777 18.067 5.98074L18.3499 5.6979ZM17.9299 5.41749C17.7729 5.35254 17.6046 5.31921 17.4346 5.3194L17.4351 5.7194C17.5524 5.71926 17.6686 5.74228 17.7771 5.78713L17.9299 5.41749ZM17.4351 5.3194L6.37227 5.3059L6.37178 5.7059L17.4346 5.7194L17.4351 5.3194ZM6.37202 5.3059C6.41758 5.3059 6.46127 5.32399 6.49348 5.35621L6.21064 5.63905C6.25344 5.68185 6.31149 5.7059 6.37202 5.7059V5.3059ZM6.49348 5.35621C6.52569 5.38842 6.54379 5.43211 6.54379 5.47767H6.14379C6.14379 5.5382 6.16784 5.59625 6.21064 5.63905L6.49348 5.35621ZM6.54379 5.47767V4.05892H6.14379V5.47767H6.54379ZM17.5637 19.783H4.10398V20.183H17.5637V19.783ZM4.10398 19.783C4.13196 19.783 4.1588 19.7942 4.17858 19.8139L3.89574 20.0968C3.95097 20.152 4.02588 20.183 4.10398 20.183V19.783ZM4.17858 19.8139C4.19837 19.8337 4.20948 19.8606 4.20948 19.8885H3.80948C3.80948 19.9667 3.84051 20.0416 3.89574 20.0968L4.17858 19.8139ZM4.20948 19.8885V6.45582H3.80948V19.8885H4.20948ZM4.20948 6.45582C4.20948 6.51304 4.16336 6.56132 4.10398 6.56132V6.16132C3.93907 6.16132 3.80948 6.29551 3.80948 6.45582H4.20948ZM4.10378 6.56132L17.577 6.57482L17.5774 6.17482L4.10419 6.16132L4.10378 6.56132ZM17.5772 6.57482C17.5183 6.57482 17.4717 6.52823 17.4717 6.46932H17.8717C17.8717 6.30732 17.7392 6.17482 17.5772 6.17482V6.57482ZM17.4717 6.46872L17.4312 19.9137L17.8312 19.9149L17.8717 6.46992L17.4717 6.46872ZM17.4312 19.918C17.4309 19.9004 17.4341 19.8829 17.4406 19.8665L17.8122 20.0145C17.8254 19.9815 17.8318 19.9462 17.8312 19.9107L17.4312 19.918ZM17.4406 19.8665C17.4471 19.8501 17.4569 19.8353 17.4692 19.8227L17.7546 20.103C17.7795 20.0776 17.7991 20.0476 17.8122 20.0145L17.4406 19.8665ZM17.4692 19.8227C17.4815 19.8101 17.4962 19.8002 17.5125 19.7934L17.6672 20.1622C17.7 20.1485 17.7297 20.1283 17.7546 20.103L17.4692 19.8227ZM17.5125 19.7934C17.5287 19.7865 17.5461 19.783 17.5637 19.783L17.5637 20.183C17.5992 20.1831 17.6344 20.176 17.6672 20.1622L17.5125 19.7934Z" fill="#303133" mask="url(#path-1-outside-1_3093_5116)"/>
<path d="M9.9034 7.88053L9.9034 7.88047H9.89994H6.92007V7.88041L6.91673 7.88052C6.61503 7.89062 6.32905 8.01752 6.11913 8.23445C5.90922 8.45138 5.79178 8.74138 5.7916 9.04325V9.0433V11.7151C5.7916 12.3582 6.31379 12.8804 6.95689 12.8804H9.86435C10.1734 12.8804 10.4698 12.7576 10.6883 12.5391C10.9069 12.3206 11.0296 12.0242 11.0296 11.7151V9.0433V8.9433H11.0228C10.9998 8.67816 10.8865 8.42773 10.7001 8.23491C10.4905 8.01802 10.2049 7.89097 9.9034 7.88053ZM9.96931 8.93589V11.8225H6.84702V8.93589H9.96931ZM14.6185 7.88052L14.6185 7.88047H14.6152H12.8602V7.88041L12.8567 7.88053C12.5552 7.89097 12.2696 8.01802 12.06 8.23491C11.8503 8.45181 11.7331 8.74161 11.7329 9.04325V9.0433V17.5951C11.7329 18.2382 12.2551 18.7604 12.8982 18.7604H14.5784C14.8874 18.7604 15.1838 18.6376 15.4024 18.4191C15.6209 18.2005 15.7437 17.9041 15.7437 17.5951V9.0433V9.04325C15.7435 8.74138 15.6261 8.45139 15.4161 8.23445C15.2062 8.01752 14.9202 7.89062 14.6185 7.88052ZM14.6858 8.93712V17.7037H12.7908V8.93712H14.6858ZM11.0812 15.0171H11.0825L11.0824 14.9171C11.0822 14.6152 10.9648 14.3252 10.7549 14.1083C10.545 13.8913 10.259 13.7644 9.95729 13.7543L9.95729 13.7543H9.95394H6.97162V13.7542L6.96827 13.7543C6.66658 13.7644 6.3806 13.8913 6.17068 14.1083C5.96076 14.3252 5.84333 14.6152 5.84315 14.9171V14.9171V17.5889C5.84315 18.232 6.36534 18.7542 7.00844 18.7542H9.9159C10.2249 18.7542 10.5213 18.6315 10.7399 18.4129C10.9584 18.1944 11.0812 17.898 11.0812 17.5889V15.0171ZM10.0233 14.8097V17.6964H6.90103V14.8097H10.0233Z" fill="#303133" stroke="#303133" stroke-width="0.2"/>
</svg>
