<svg width="24" height="24" viewBox="0 0 24 24" fill="none" xmlns="http://www.w3.org/2000/svg">
<mask id="path-1-outside-1_3287_272394" maskUnits="userSpaceOnUse" x="2.15265" y="2.13477" width="19" height="19" fill="black">
<rect fill="white" x="2.15265" y="2.13477" width="19" height="19"/>
<path d="M20.8232 17.4045V4.22828C20.8234 4.08464 20.7952 3.94237 20.7403 3.80962C20.6854 3.67688 20.6049 3.55626 20.5033 3.45469C20.4017 3.35312 20.2811 3.27257 20.1484 3.21768C20.0156 3.16278 19.8733 3.1346 19.7297 3.13477H6.57925C6.28923 3.13477 6.01109 3.24998 5.80602 3.45505C5.60094 3.66012 5.48573 3.93827 5.48573 4.22828V5.47767C5.48573 5.49362 5.47346 5.5059 5.45751 5.5059H4.24617C3.95615 5.5059 3.67801 5.62111 3.47293 5.82618C3.26786 6.03125 3.15265 6.3094 3.15265 6.59941V19.7499C3.15249 19.8935 3.18066 20.0358 3.23556 20.1685C3.29046 20.3013 3.371 20.4219 3.47257 20.5235C3.57415 20.625 3.69476 20.7056 3.82751 20.7605C3.96025 20.8154 4.10252 20.8435 4.24617 20.8434H17.3966C17.5403 20.8435 17.6825 20.8154 17.8153 20.7605C17.948 20.7056 18.0686 20.625 18.1702 20.5235C18.2718 20.4219 18.3523 20.3013 18.4072 20.1685C18.4621 20.0358 18.4903 19.8935 18.4901 19.7499V18.5005C18.4901 18.4845 18.5024 18.4722 18.5184 18.4722H19.7604C20.0426 18.4706 20.3127 18.3575 20.5119 18.1574C20.711 17.9574 20.8229 17.6867 20.8232 17.4045ZM6.34361 4.05892C6.34361 4.02087 6.37429 3.99264 6.40989 3.99264H19.8708C19.9224 3.99264 19.9653 4.0356 19.9653 4.08715V17.5199C19.965 17.5448 19.955 17.5687 19.9373 17.5863C19.9197 17.604 19.8958 17.6141 19.8708 17.6144H18.5159C18.5084 17.6144 18.5012 17.6114 18.4959 17.6061C18.4907 17.6008 18.4877 17.5936 18.4877 17.5861L18.5282 6.61291C18.5283 6.46927 18.5002 6.327 18.4453 6.19425C18.3904 6.06151 18.3098 5.9409 18.2083 5.83932C18.1067 5.73775 17.9861 5.6572 17.8533 5.60231C17.7206 5.54741 17.5783 5.51924 17.4347 5.5194L6.37184 5.5059C6.36435 5.5059 6.35717 5.50292 6.35188 5.49763C6.34659 5.49234 6.34361 5.48516 6.34361 5.47767V4.05892ZM17.5635 19.983H4.1038C4.07874 19.983 4.0547 19.9731 4.03698 19.9554C4.01926 19.9376 4.0093 19.9136 4.0093 19.8885V6.45582C4.0093 6.40427 4.05103 6.36132 4.1038 6.36132L17.577 6.37482C17.6286 6.37482 17.6715 6.41777 17.6715 6.46932L17.631 19.9143C17.6312 19.9233 17.6296 19.9322 17.6262 19.9405C17.6229 19.9489 17.618 19.9564 17.6117 19.9628C17.6054 19.9692 17.5979 19.9743 17.5896 19.9778C17.5814 19.9813 17.5725 19.983 17.5635 19.983Z"/>
</mask>
<path d="M20.8232 17.4045V4.22828C20.8234 4.08464 20.7952 3.94237 20.7403 3.80962C20.6854 3.67688 20.6049 3.55626 20.5033 3.45469C20.4017 3.35312 20.2811 3.27257 20.1484 3.21768C20.0156 3.16278 19.8733 3.1346 19.7297 3.13477H6.57925C6.28923 3.13477 6.01109 3.24998 5.80602 3.45505C5.60094 3.66012 5.48573 3.93827 5.48573 4.22828V5.47767C5.48573 5.49362 5.47346 5.5059 5.45751 5.5059H4.24617C3.95615 5.5059 3.67801 5.62111 3.47293 5.82618C3.26786 6.03125 3.15265 6.3094 3.15265 6.59941V19.7499C3.15249 19.8935 3.18066 20.0358 3.23556 20.1685C3.29046 20.3013 3.371 20.4219 3.47257 20.5235C3.57415 20.625 3.69476 20.7056 3.82751 20.7605C3.96025 20.8154 4.10252 20.8435 4.24617 20.8434H17.3966C17.5403 20.8435 17.6825 20.8154 17.8153 20.7605C17.948 20.7056 18.0686 20.625 18.1702 20.5235C18.2718 20.4219 18.3523 20.3013 18.4072 20.1685C18.4621 20.0358 18.4903 19.8935 18.4901 19.7499V18.5005C18.4901 18.4845 18.5024 18.4722 18.5184 18.4722H19.7604C20.0426 18.4706 20.3127 18.3575 20.5119 18.1574C20.711 17.9574 20.8229 17.6867 20.8232 17.4045ZM6.34361 4.05892C6.34361 4.02087 6.37429 3.99264 6.40989 3.99264H19.8708C19.9224 3.99264 19.9653 4.0356 19.9653 4.08715V17.5199C19.965 17.5448 19.955 17.5687 19.9373 17.5863C19.9197 17.604 19.8958 17.6141 19.8708 17.6144H18.5159C18.5084 17.6144 18.5012 17.6114 18.4959 17.6061C18.4907 17.6008 18.4877 17.5936 18.4877 17.5861L18.5282 6.61291C18.5283 6.46927 18.5002 6.327 18.4453 6.19425C18.3904 6.06151 18.3098 5.9409 18.2083 5.83932C18.1067 5.73775 17.9861 5.6572 17.8533 5.60231C17.7206 5.54741 17.5783 5.51924 17.4347 5.5194L6.37184 5.5059C6.36435 5.5059 6.35717 5.50292 6.35188 5.49763C6.34659 5.49234 6.34361 5.48516 6.34361 5.47767V4.05892ZM17.5635 19.983H4.1038C4.07874 19.983 4.0547 19.9731 4.03698 19.9554C4.01926 19.9376 4.0093 19.9136 4.0093 19.8885V6.45582C4.0093 6.40427 4.05103 6.36132 4.1038 6.36132L17.577 6.37482C17.6286 6.37482 17.6715 6.41777 17.6715 6.46932L17.631 19.9143C17.6312 19.9233 17.6296 19.9322 17.6262 19.9405C17.6229 19.9489 17.618 19.9564 17.6117 19.9628C17.6054 19.9692 17.5979 19.9743 17.5896 19.9778C17.5814 19.9813 17.5725 19.983 17.5635 19.983Z" fill="#303133"/>
<path d="M20.8232 4.22828L20.6232 4.22806V4.22828H20.8232ZM19.7297 3.13477V3.33477L19.7299 3.33477L19.7297 3.13477ZM6.57925 3.13477V2.93477V3.13477ZM4.24617 5.5059V5.3059V5.5059ZM3.15265 6.59941H2.95265H3.15265ZM3.15265 19.7499L3.35265 19.7501V19.7499H3.15265ZM4.24617 20.8434V20.6434L4.24594 20.6434L4.24617 20.8434ZM17.3966 20.8434L17.3968 20.6434H17.3966V20.8434ZM18.4901 19.7499H18.2901V19.7501L18.4901 19.7499ZM19.7604 18.4722V18.6722L19.7615 18.6722L19.7604 18.4722ZM19.9653 17.5199L20.1653 17.5224V17.5199H19.9653ZM19.8708 17.6144V17.8144L19.8734 17.8144L19.8708 17.6144ZM18.4877 17.5861L18.2877 17.5854V17.5861H18.4877ZM18.5282 6.61291L18.7282 6.61365L18.7282 6.61314L18.5282 6.61291ZM17.4347 5.5194L17.4344 5.7194L17.4349 5.7194L17.4347 5.5194ZM6.37184 5.5059L6.37208 5.3059H6.37184V5.5059ZM4.1038 6.36132L4.104 6.16132H4.1038V6.36132ZM17.577 6.37482L17.5768 6.57482H17.577V6.37482ZM17.6715 6.46932L17.8715 6.46992V6.46932H17.6715ZM17.631 19.9143L17.431 19.9137L17.4311 19.918L17.631 19.9143ZM21.0232 17.4045V4.22828H20.6232V17.4045H21.0232ZM21.0232 4.22851C21.0234 4.05856 20.9901 3.89024 20.9251 3.73319L20.5555 3.88605C20.6003 3.99449 20.6233 4.11071 20.6232 4.22806L21.0232 4.22851ZM20.9251 3.73319C20.8602 3.57614 20.7649 3.43344 20.6447 3.31327L20.3619 3.59611C20.4448 3.67909 20.5106 3.77762 20.5555 3.88605L20.9251 3.73319ZM20.6447 3.31327C20.5245 3.1931 20.3818 3.09781 20.2248 3.03286L20.0719 3.4025C20.1804 3.44734 20.2789 3.51314 20.3619 3.59611L20.6447 3.31327ZM20.2248 3.03286C20.0677 2.96791 19.8994 2.93458 19.7295 2.93477L19.7299 3.33477C19.8473 3.33463 19.9635 3.35765 20.0719 3.4025L20.2248 3.03286ZM19.7297 2.93477H6.57925V3.33477H19.7297V2.93477ZM6.57925 2.93477C6.23619 2.93477 5.90718 3.07105 5.6646 3.31363L5.94744 3.59647C6.11501 3.4289 6.34228 3.33477 6.57925 3.33477V2.93477ZM5.6646 3.31363C5.42201 3.55621 5.28573 3.88522 5.28573 4.22828H5.68573C5.68573 3.99131 5.77987 3.76404 5.94744 3.59647L5.6646 3.31363ZM5.28573 4.22828V5.47767H5.68573V4.22828H5.28573ZM5.28573 5.47767C5.28573 5.38317 5.363 5.3059 5.45751 5.3059V5.7059C5.58392 5.7059 5.68573 5.60408 5.68573 5.47767H5.28573ZM5.45751 5.3059H4.24617V5.7059H5.45751V5.3059ZM4.24617 5.3059C3.90311 5.3059 3.57409 5.44218 3.33151 5.68476L3.61435 5.9676C3.78192 5.80003 4.00919 5.7059 4.24617 5.7059V5.3059ZM3.33151 5.68476C3.08893 5.92734 2.95265 6.25635 2.95265 6.59941H3.35265C3.35265 6.36244 3.44679 6.13517 3.61435 5.9676L3.33151 5.68476ZM2.95265 6.59941V19.7499H3.35265V6.59941H2.95265ZM2.95265 19.7496C2.95246 19.9196 2.98579 20.0879 3.05074 20.245L3.42038 20.0921C3.37553 19.9836 3.35252 19.8674 3.35265 19.7501L2.95265 19.7496ZM3.05074 20.245C3.11569 20.402 3.21098 20.5447 3.33115 20.6649L3.61399 20.382C3.53102 20.2991 3.46522 20.2005 3.42038 20.0921L3.05074 20.245ZM3.33115 20.6649C3.45133 20.785 3.59402 20.8803 3.75107 20.9453L3.90394 20.5756C3.7955 20.5308 3.69697 20.465 3.61399 20.382L3.33115 20.6649ZM3.75107 20.9453C3.90812 21.0102 4.07644 21.0436 4.24639 21.0434L4.24594 20.6434C4.1286 20.6435 4.01238 20.6205 3.90394 20.5756L3.75107 20.9453ZM4.24617 21.0434H17.3966V20.6434H4.24617V21.0434ZM17.3964 21.0434C17.5663 21.0436 17.7347 21.0102 17.8917 20.9453L17.7388 20.5756C17.6304 20.6205 17.5142 20.6435 17.3968 20.6434L17.3964 21.0434ZM17.8917 20.9453C18.0488 20.8803 18.1915 20.785 18.3116 20.6649L18.0288 20.382C17.9458 20.465 17.8473 20.5308 17.7388 20.5756L17.8917 20.9453ZM18.3116 20.6649C18.4318 20.5447 18.5271 20.402 18.592 20.245L18.2224 20.0921C18.1776 20.2005 18.1118 20.2991 18.0288 20.382L18.3116 20.6649ZM18.592 20.245C18.657 20.0879 18.6903 19.9196 18.6901 19.7496L18.2901 19.7501C18.2903 19.8674 18.2672 19.9836 18.2224 20.0921L18.592 20.245ZM18.6901 19.7499V18.5005H18.2901V19.7499H18.6901ZM18.6901 18.5005C18.6901 18.595 18.6129 18.6722 18.5184 18.6722V18.2722C18.3919 18.2722 18.2901 18.3741 18.2901 18.5005H18.6901ZM18.5184 18.6722H19.7604V18.2722H18.5184V18.6722ZM19.7615 18.6722C20.0966 18.6703 20.4172 18.536 20.6536 18.2985L20.3701 18.0163C20.2083 18.1789 19.9887 18.2709 19.7592 18.2722L19.7615 18.6722ZM20.6536 18.2985C20.89 18.0611 21.0228 17.7398 21.0232 17.4047L20.6232 17.4043C20.623 17.6337 20.532 17.8537 20.3701 18.0163L20.6536 18.2985ZM6.54361 4.05892C6.54361 4.13613 6.47988 4.19264 6.40989 4.19264V3.79264C6.2687 3.79264 6.14361 3.90561 6.14361 4.05892H6.54361ZM6.40989 4.19264H19.8708V3.79264H6.40989V4.19264ZM19.8708 4.19264C19.8119 4.19264 19.7653 4.14606 19.7653 4.08715H20.1653C20.1653 3.92514 20.0328 3.79264 19.8708 3.79264V4.19264ZM19.7653 4.08715V17.5199H20.1653V4.08715H19.7653ZM19.7654 17.5173C19.7657 17.4901 19.7767 17.4642 19.7959 17.4449L20.0787 17.7278C20.1333 17.6732 20.1643 17.5995 20.1653 17.5224L19.7654 17.5173ZM19.7959 17.4449C19.8151 17.4257 19.8411 17.4147 19.8683 17.4144L19.8734 17.8144C19.9505 17.8134 20.0242 17.7823 20.0787 17.7278L19.7959 17.4449ZM19.8708 17.4144H18.5159V17.8144H19.8708V17.4144ZM18.5159 17.4144C18.5615 17.4144 18.6052 17.4325 18.6374 17.4647L18.3545 17.7475C18.3973 17.7903 18.4554 17.8144 18.5159 17.8144V17.4144ZM18.6374 17.4647C18.6696 17.4969 18.6877 17.5406 18.6877 17.5861H18.2877C18.2877 17.6467 18.3117 17.7047 18.3545 17.7475L18.6374 17.4647ZM18.6877 17.5869L18.7282 6.61365L18.3282 6.61218L18.2877 17.5854L18.6877 17.5869ZM18.7282 6.61314C18.7284 6.44319 18.695 6.27487 18.6301 6.11782L18.2604 6.27069C18.3053 6.37912 18.3283 6.49534 18.3282 6.61269L18.7282 6.61314ZM18.6301 6.11782C18.5651 5.96077 18.4698 5.81807 18.3497 5.6979L18.0668 5.98074C18.1498 6.06372 18.2156 6.16225 18.2604 6.27069L18.6301 6.11782ZM18.3497 5.6979C18.2295 5.57773 18.0868 5.48244 17.9298 5.41749L17.7769 5.78713C17.8853 5.83197 17.9839 5.89777 18.0668 5.98074L18.3497 5.6979ZM17.9298 5.41749C17.7727 5.35254 17.6044 5.31921 17.4344 5.3194L17.4349 5.7194C17.5522 5.71926 17.6684 5.74228 17.7769 5.78713L17.9298 5.41749ZM17.4349 5.3194L6.37208 5.3059L6.37159 5.7059L17.4344 5.7194L17.4349 5.3194ZM6.37184 5.3059C6.4174 5.3059 6.46109 5.32399 6.4933 5.35621L6.21046 5.63905C6.25326 5.68185 6.31131 5.7059 6.37184 5.7059V5.3059ZM6.4933 5.35621C6.52551 5.38842 6.54361 5.43211 6.54361 5.47767H6.14361C6.14361 5.5382 6.16766 5.59625 6.21046 5.63905L6.4933 5.35621ZM6.54361 5.47767V4.05892H6.14361V5.47767H6.54361ZM17.5635 19.783H4.1038V20.183H17.5635V19.783ZM4.1038 19.783C4.13178 19.783 4.15861 19.7942 4.1784 19.8139L3.89556 20.0968C3.95079 20.152 4.0257 20.183 4.1038 20.183V19.783ZM4.1784 19.8139C4.19819 19.8337 4.2093 19.8606 4.2093 19.8885H3.8093C3.8093 19.9667 3.84033 20.0416 3.89556 20.0968L4.1784 19.8139ZM4.2093 19.8885V6.45582H3.8093V19.8885H4.2093ZM4.2093 6.45582C4.2093 6.51304 4.16317 6.56132 4.1038 6.56132V6.16132C3.93888 6.16132 3.8093 6.29551 3.8093 6.45582H4.2093ZM4.1036 6.56132L17.5768 6.57482L17.5772 6.17482L4.104 6.16132L4.1036 6.56132ZM17.577 6.57482C17.5181 6.57482 17.4715 6.52823 17.4715 6.46932H17.8715C17.8715 6.30732 17.739 6.17482 17.577 6.17482V6.57482ZM17.4715 6.46872L17.431 19.9137L17.831 19.9149L17.8715 6.46992L17.4715 6.46872ZM17.4311 19.918C17.4307 19.9004 17.4339 19.8829 17.4404 19.8665L17.812 20.0145C17.8252 19.9815 17.8316 19.9462 17.831 19.9107L17.4311 19.918ZM17.4404 19.8665C17.447 19.8501 17.4567 19.8353 17.469 19.8227L17.7544 20.103C17.7793 20.0776 17.7989 20.0476 17.812 20.0145L17.4404 19.8665ZM17.469 19.8227C17.4813 19.8101 17.4961 19.8002 17.5123 19.7934L17.667 20.1622C17.6998 20.1485 17.7295 20.1283 17.7544 20.103L17.469 19.8227ZM17.5123 19.7934C17.5285 19.7865 17.546 19.783 17.5636 19.783L17.5635 20.183C17.599 20.1831 17.6342 20.176 17.667 20.1622L17.5123 19.7934Z" fill="#303133" mask="url(#path-1-outside-1_3287_272394)"/>
<path d="M9.90331 7.88053L9.90331 7.88047H9.89985H6.91998V7.88041L6.91664 7.88052C6.61494 7.89062 6.32896 8.01752 6.11904 8.23445C5.90913 8.45138 5.79169 8.74138 5.79151 9.04325V9.0433V11.7151C5.79151 12.3582 6.3137 12.8804 6.9568 12.8804H9.86426C10.1733 12.8804 10.4697 12.7576 10.6882 12.5391C10.9068 12.3206 11.0295 12.0242 11.0295 11.7151V9.0433V8.9433H11.0227C10.9998 8.67816 10.8864 8.42773 10.7 8.23491C10.4904 8.01802 10.2048 7.89097 9.90331 7.88053ZM9.96922 8.93589V11.8225H6.84693V8.93589H9.96922ZM14.6185 7.88052L14.6185 7.88047H14.6151H12.8601V7.88041L12.8566 7.88053C12.5552 7.89097 12.2695 8.01802 12.0599 8.23491C11.8503 8.45181 11.733 8.74161 11.7328 9.04325V9.0433V17.5951C11.7328 18.2382 12.255 18.7604 12.8981 18.7604H14.5783C14.8873 18.7604 15.1837 18.6376 15.4023 18.4191C15.6208 18.2005 15.7436 17.9041 15.7436 17.5951V9.0433V9.04325C15.7434 8.74138 15.626 8.45139 15.416 8.23445C15.2061 8.01752 14.9202 7.89062 14.6185 7.88052ZM14.6857 8.93712V17.7037H12.7907V8.93712H14.6857ZM11.0811 15.0171H11.0824L11.0823 14.9171C11.0821 14.6152 10.9647 14.3252 10.7548 14.1083C10.5449 13.8913 10.2589 13.7644 9.9572 13.7543L9.9572 13.7543H9.95385H6.97153V13.7542L6.96818 13.7543C6.66648 13.7644 6.38051 13.8913 6.17059 14.1083C5.96067 14.3252 5.84324 14.6152 5.84306 14.9171V14.9171V17.5889C5.84306 18.232 6.36524 18.7542 7.00835 18.7542H9.9158C10.2249 18.7542 10.5213 18.6315 10.7398 18.4129C10.9583 18.1944 11.0811 17.898 11.0811 17.5889V15.0171ZM10.0232 14.8097V17.6964H6.90093V14.8097H10.0232Z" fill="#303133" stroke="#303133" stroke-width="0.2"/>
</svg>
