<svg width="12" height="13" viewBox="0 0 12 13" fill="none" xmlns="http://www.w3.org/2000/svg">
<path d="M11.3701 7.75809H10.4668V6.03781H11.3701C11.7179 6.03781 12 5.75576 12 5.4079C12 5.06005 11.7179 4.77799 11.3701 4.77799H10.4668V4.0211C10.4668 3.14447 9.75348 2.43158 8.87699 2.43158H8.1201V1.52786C8.1201 1.18 7.83804 0.897949 7.49019 0.897949C7.14233 0.897949 6.86028 1.18 6.86028 1.52786V2.43158H5.13986V1.52786C5.13986 1.18 4.85781 0.897949 4.50995 0.897949C4.1621 0.897949 3.88004 1.18 3.88004 1.52786V2.43158H3.12315C2.24652 2.43158 1.53363 3.14447 1.53363 4.0211V4.77799H0.62991C0.282055 4.77799 0 5.06005 0 5.4079C0 5.75576 0.282055 6.03781 0.62991 6.03781H1.53363V7.75809H0.62991C0.282055 7.75809 0 8.04014 0 8.388C0 8.73585 0.282055 9.01791 0.62991 9.01791H1.53363V9.7748C1.53363 10.6514 2.24652 11.3646 3.12315 11.3646H3.88004V12.2683C3.88004 12.6162 4.1621 12.8982 4.50995 12.8982C4.85781 12.8982 5.13986 12.6162 5.13986 12.2683V11.3646H6.86014V12.2683C6.86014 12.6162 7.14219 12.8982 7.49005 12.8982C7.8379 12.8982 8.11996 12.6162 8.11996 12.2683V11.3646H8.87685C9.75348 11.3646 10.4666 10.6513 10.4666 9.7748V9.01791H11.37C11.7178 9.01791 11.9999 8.73585 11.9999 8.388C12 8.04014 11.7179 7.75809 11.3701 7.75809ZM9.20697 9.7748C9.20697 9.95683 9.05902 10.1048 8.87699 10.1048H3.12315C2.9414 10.1048 2.79345 9.95683 2.79345 9.7748V4.0211C2.79345 3.83934 2.9414 3.6914 3.12315 3.6914H8.87699C9.05902 3.6914 9.20697 3.83934 9.20697 4.0211V9.7748Z" fill="#48A2DF"/>
</svg>
