<svg width="332" height="88" viewBox="0 0 332 88" fill="none" xmlns="http://www.w3.org/2000/svg">
<path fill-rule="evenodd" class='breeze' clip-rule="evenodd" d="M221.909 31.0342C222.634 31.5381 223.72 31.7901 225.169 31.7901C226.46 31.7901 227.61 31.6169 228.618 31.2704C229.626 30.924 230.57 30.4516 231.452 29.8532C231.83 29.5697 232.208 29.2705 232.586 28.9556C232.964 28.6406 233.342 28.2942 233.72 27.9162C233.94 28.5146 234.302 28.9713 234.806 29.2863C235.31 29.6012 235.83 29.7587 236.365 29.7587H236.602C236.696 29.7272 236.775 29.7114 236.838 29.7114C237.657 29.554 238.413 29.1918 239.105 28.6249C239.83 28.0265 240.491 27.3178 241.09 26.499C241.719 25.6801 242.286 24.8455 242.79 23.9952C243.294 23.1448 243.735 22.4047 244.113 21.7748C244.137 21.7268 244.16 21.6789 244.182 21.6309C244.865 20.4804 245.43 19.4576 245.878 18.5623L247.106 16.1057C247.39 16.2317 247.752 16.2947 248.193 16.2947C248.76 16.2947 249.342 16.1845 249.941 15.964C250.539 15.7121 251.059 15.3971 251.5 15.0192C250.996 15.8065 250.555 16.6097 250.177 17.4285C249.831 18.2474 249.547 18.9245 249.327 19.4599C248.728 20.9402 248.256 22.3889 247.909 23.8062C247.563 25.2234 247.39 26.5147 247.39 27.68C247.39 28.7194 247.563 29.6169 247.909 30.3728C248.35 31.2232 249.075 31.6484 250.083 31.6484C250.838 31.6484 251.626 31.3807 252.445 30.8452C253.295 30.3098 254.082 29.6799 254.807 28.9556C255.563 28.2312 256.145 27.5855 256.555 27.0186C257.097 26.2599 257.627 25.4895 258.146 24.7075C258.123 24.9914 258.112 25.2736 258.112 25.5541C258.112 26.2785 258.206 26.9714 258.395 27.6328C258.805 29.0815 259.592 30.1366 260.757 30.798C261.923 31.4594 263.182 31.7901 264.537 31.7901C266.143 31.7901 267.67 31.4121 269.119 30.6563C269.97 30.2154 270.757 29.6799 271.481 29.05C272.206 28.4202 272.851 27.7273 273.418 26.9714C273.987 26.2031 274.544 25.4091 275.087 24.5894C275.058 24.9132 275.043 25.2348 275.043 25.5541C275.043 26.2785 275.138 26.9714 275.327 27.6328C275.736 29.0815 276.524 30.1366 277.689 30.798C278.854 31.4594 280.114 31.7901 281.468 31.7901C283.074 31.7901 284.602 31.4121 286.051 30.6563C286.901 30.2154 287.688 29.6799 288.413 29.05C289.137 28.4202 289.783 27.7273 290.35 26.9714C290.98 26.121 291.594 25.2392 292.192 24.3258C292.564 23.768 292.903 23.2376 293.209 22.7346C293.223 22.7206 293.237 22.6999 293.25 22.6724C293.534 22.2 293.864 21.6645 294.242 21.0661C294.62 20.4363 294.998 19.8379 295.376 19.271C295.786 18.704 296.116 18.2946 296.368 18.0427C296.778 17.6647 297.266 17.3655 297.833 17.1451C298.4 16.9246 299.108 16.8144 299.959 16.8144C300.557 16.8144 301.297 16.8774 302.179 17.0033C303.061 17.0978 303.848 17.208 304.541 17.334L305.58 17.4758L304.541 18.4678C303.88 19.0977 303.014 19.9166 301.943 20.9244C300.872 21.9008 299.707 22.9401 298.447 24.0424C297.219 25.1447 296.038 26.1525 294.904 27.0659C294.463 27.4438 293.99 27.7903 293.486 28.1052C293.014 28.4202 292.605 28.7981 292.258 29.239C291.817 29.8059 291.597 30.3571 291.597 30.8925C291.597 31.5224 291.865 31.8373 292.4 31.8373C292.841 31.8373 293.376 31.5854 294.006 31.0815C294.258 30.8925 294.51 30.6563 294.762 30.3728C295.014 30.0894 295.25 29.8059 295.471 29.5225C295.628 29.428 295.801 29.3807 295.99 29.3807C296.274 29.3807 296.62 29.4595 297.03 29.617C297.439 29.7744 297.88 29.9791 298.352 30.2311C299.329 30.735 300.226 31.1917 301.045 31.6011C301.864 32.0105 302.699 32.2153 303.549 32.2153C304.084 32.2153 304.62 32.1208 305.155 31.9318C305.722 31.7428 306.305 31.4279 306.903 30.987C307.533 30.546 308.132 29.9634 308.698 29.239C309.297 28.5146 309.895 27.7588 310.494 26.9714C310.746 26.6565 310.982 26.3258 311.202 25.9793C311.454 25.6329 311.706 25.2707 311.958 24.8927C312.017 24.8021 312.074 24.7133 312.13 24.6263C312.103 24.9377 312.089 25.2469 312.089 25.5541C312.089 26.2785 312.184 26.9714 312.373 27.6328C312.782 29.0815 313.57 30.1366 314.735 30.798C315.9 31.4594 317.16 31.7901 318.514 31.7901C320.121 31.7901 321.648 31.4121 323.097 30.6563C323.947 30.2154 324.735 29.6799 325.459 29.05C326.183 28.4202 326.829 27.7273 327.396 26.9714C328.026 26.121 328.64 25.2392 329.238 24.3258C329.868 23.381 330.404 22.5149 330.845 21.7275C331.034 21.3811 331.16 21.0504 331.223 20.7355C331.317 20.389 331.364 20.0741 331.364 19.7906C331.364 19.2867 331.27 19.0347 331.081 19.0347C330.986 19.0347 330.876 19.145 330.75 19.3654C330.278 20.2788 329.868 21.0504 329.522 21.6803C329.175 22.2787 328.845 22.8141 328.53 23.2865C328.215 23.7589 327.837 24.2629 327.396 24.7983C326.829 25.5226 326.12 26.2785 325.27 27.0659C324.451 27.8532 323.554 28.5146 322.577 29.05C321.632 29.5855 320.672 29.8532 319.695 29.8532C318.53 29.8532 317.68 29.491 317.144 28.7666C316.609 28.0107 316.341 27.0501 316.341 25.8848C316.341 24.5936 316.641 23.1763 317.239 21.6331C317.932 21.9795 318.924 22.1527 320.215 22.1527C320.845 22.1527 321.506 22.1055 322.199 22.011C322.924 21.885 323.601 21.7118 324.231 21.4913C325.522 21.0189 326.561 20.3418 327.349 19.4599C328.168 18.5466 328.577 17.4915 328.577 16.2947C328.577 15.2869 328.168 14.405 327.349 13.6492C326.53 12.8933 325.38 12.5153 323.9 12.5153C321.916 12.5153 320.105 13.0665 318.467 14.1688C316.829 15.2711 315.475 16.6569 314.404 18.3261C313.927 19.0637 313.51 19.8536 313.152 20.6958C312.903 21.1389 312.631 21.6088 312.336 22.1055C311.738 23.0818 311.124 23.9794 310.494 24.7983C309.517 26.0581 308.32 27.0816 306.903 27.869C305.486 28.6249 304.037 29.0028 302.557 29.0028C301.707 29.0028 300.856 28.8611 300.006 28.5776C299.187 28.2942 298.4 27.8532 297.644 27.2549L302.368 22.6251C303.974 21.0504 305.58 19.4914 307.187 17.9482C308.258 16.9403 309.281 15.9798 310.257 15.0664C311.265 14.1216 312.179 13.2712 312.997 12.5153C312.808 12.4524 312.588 12.3894 312.336 12.3264C312.084 12.2319 311.832 12.1846 311.58 12.1846C311.202 12.1846 310.919 12.2949 310.73 12.5153C310.257 13.0822 309.801 13.4917 309.36 13.7436C308.95 13.9641 308.399 14.0743 307.706 14.0743C307.202 14.0743 306.557 14.0113 305.769 13.8854C304.982 13.7594 303.99 13.6019 302.793 13.4129L302.226 13.3185C301.785 13.2555 301.36 13.1925 300.951 13.1295C300.541 13.0665 300.163 13.035 299.817 13.035C299.219 13.035 298.652 13.1295 298.116 13.3185C297.36 13.6334 296.73 14.1058 296.227 14.7357C295.754 15.3656 295.282 16.1687 294.809 17.1451C294.778 17.2395 294.668 17.4758 294.479 17.8537L293.864 19.082C293.849 19.1188 293.833 19.1552 293.817 19.1913C293.781 19.2386 293.743 19.2967 293.704 19.3654C293.231 20.2788 292.822 21.0504 292.476 21.6803C292.129 22.2787 291.798 22.8141 291.483 23.2865C291.169 23.7589 290.791 24.2629 290.35 24.7983C289.783 25.5226 289.074 26.2785 288.224 27.0659C287.405 27.8532 286.507 28.5146 285.531 29.05C284.586 29.5855 283.626 29.8532 282.649 29.8532C281.484 29.8532 280.634 29.491 280.098 28.7666C279.563 28.0107 279.295 27.0501 279.295 25.8848C279.295 24.5936 279.594 23.1763 280.193 21.6331C280.886 21.9795 281.878 22.1527 283.169 22.1527C283.799 22.1527 284.46 22.1055 285.153 22.011C285.877 21.885 286.555 21.7118 287.184 21.4913C288.476 21.0189 289.515 20.3418 290.302 19.4599C291.121 18.5466 291.531 17.4915 291.531 16.2947C291.531 15.2869 291.121 14.405 290.302 13.6492C289.484 12.8933 288.334 12.5153 286.854 12.5153C284.87 12.5153 283.059 13.0665 281.421 14.1688C279.783 15.2711 278.429 16.6569 277.358 18.3261C276.943 18.9674 276.573 19.6483 276.249 20.3687C275.99 20.8587 275.756 21.2959 275.544 21.6803C275.198 22.2787 274.867 22.8141 274.552 23.2865C274.237 23.7589 273.859 24.2629 273.418 24.7983C272.851 25.5226 272.143 26.2785 271.292 27.0659C270.473 27.8532 269.576 28.5146 268.6 29.05C267.655 29.5855 266.694 29.8532 265.718 29.8532C264.552 29.8532 263.702 29.491 263.167 28.7666C262.631 28.0107 262.364 27.0501 262.364 25.8848C262.364 24.5936 262.663 23.1763 263.261 21.6331C263.954 21.9795 264.946 22.1527 266.237 22.1527C266.867 22.1527 267.529 22.1055 268.222 22.011C268.946 21.885 269.623 21.7118 270.253 21.4913C271.544 21.0189 272.584 20.3418 273.371 19.4599C274.19 18.5466 274.599 17.4915 274.599 16.2947C274.599 15.2869 274.19 14.405 273.371 13.6492C272.552 12.8933 271.403 12.5153 269.922 12.5153C267.938 12.5153 266.127 13.0665 264.49 14.1688C262.852 15.2711 261.497 16.6569 260.427 18.3261C259.92 19.109 259.481 19.9509 259.109 20.8516C258.874 21.2673 258.621 21.701 258.35 22.1527C257.783 23.0976 257.185 23.9794 256.555 24.7983C255.988 25.5226 255.342 26.184 254.618 26.7824C253.799 27.4123 253.169 27.7273 252.728 27.7273C252.098 27.7273 251.783 27.2549 251.783 26.31C251.783 26.0581 251.799 25.8218 251.83 25.6014C251.893 25.3494 251.956 25.0817 252.019 24.7983C252.397 23.318 252.949 21.7748 253.673 20.1686C254.397 18.5308 255.185 16.8931 256.035 15.2554C256.161 15.0349 256.334 14.72 256.555 14.3105C256.775 13.9011 257.011 13.5074 257.263 13.1295C257.515 12.7516 257.736 12.4996 257.925 12.3736C257.641 12.4051 257.169 12.4051 256.507 12.3736C255.878 12.3421 255.389 12.3264 255.043 12.3264C254.382 12.3264 253.767 12.5626 253.201 13.035C252.634 13.5074 252.13 14.0586 251.689 14.6885C250.775 14.8145 249.925 14.6412 249.138 14.1688C248.35 13.6964 247.957 12.972 247.957 11.9957V11.5705C247.988 11.413 248.02 11.2713 248.051 11.1453C247.61 10.7044 247.043 10.4839 246.35 10.4839C246.098 10.4839 245.831 10.5312 245.547 10.6257C245.075 10.8461 244.713 11.1611 244.461 11.5705C244.24 11.9799 244.13 12.4366 244.13 12.9405C244.13 13.4444 244.272 13.9641 244.555 14.4995C244.839 15.0034 245.264 15.3971 245.831 15.6806C245.799 15.8065 245.658 16.1215 245.406 16.6254C245.154 17.1293 244.87 17.712 244.555 18.3734C244.24 19.0032 243.925 19.6174 243.61 20.2158C243.599 20.2395 243.587 20.2633 243.576 20.2873C243.25 20.8707 242.878 21.4925 242.46 22.1527C241.893 23.0976 241.294 23.9794 240.664 24.7983C240.286 25.2707 239.877 25.7589 239.436 26.2628C239.027 26.7667 238.586 27.1761 238.113 27.4911C237.672 27.806 237.231 27.9635 236.791 27.9635C236.35 27.9635 235.987 27.806 235.704 27.4911C235.421 27.1446 235.263 26.7194 235.232 26.2155C236.365 24.8298 237.294 23.3023 238.019 21.6331C238.743 19.9323 239.105 18.2474 239.105 16.5782C239.105 15.0034 238.79 13.8854 238.161 13.224C237.562 12.5626 236.806 12.2319 235.893 12.2319C234.822 12.2319 233.72 12.6413 232.586 13.4602C231.452 14.279 230.381 15.3026 229.374 16.5309C228.87 17.1608 228.35 17.8852 227.815 18.704C227.279 19.5229 226.76 20.3733 226.256 21.2551C226.791 19.1765 227.484 17.0191 228.334 14.783C229.185 12.5468 230.082 10.4209 231.027 8.40529C231.972 6.38963 232.885 4.67317 233.767 3.25591C234.649 1.80715 235.389 0.862312 235.987 0.421387C235.861 0.452881 235.547 0.468628 235.043 0.468628H233.814C233.436 0.468628 233.058 0.484376 232.68 0.515872C232.334 0.547367 232.035 0.594608 231.783 0.657597C231.216 0.783576 230.696 1.17726 230.224 1.83865C229.751 2.46854 229.106 3.57085 228.287 5.14559C227.626 6.40538 226.948 7.91712 226.256 9.68082C225.563 11.413 224.886 13.2082 224.224 15.0664C223.594 16.8931 223.027 18.6253 222.523 20.263C222.051 21.9008 221.689 23.2393 221.437 24.2786C221.059 25.8218 220.87 27.1131 220.87 28.1525C220.87 29.5697 221.216 30.5303 221.909 31.0342ZM228.098 29.2863C227.405 29.8217 226.791 30.0894 226.256 30.0894C225.563 30.0894 225.138 29.7272 224.98 29.0028L224.886 28.5304V28.1052C224.886 27.1919 225.09 26.1998 225.5 25.129C225.941 24.0581 226.492 23.0031 227.153 21.9637C227.846 20.8929 228.555 19.9323 229.279 19.082C230.003 18.2316 230.649 17.586 231.216 17.1451C232.003 16.5152 232.712 16.2002 233.342 16.2002H233.578C233.673 16.2002 233.751 16.216 233.814 16.2475C234.287 16.3734 234.523 16.8301 234.523 17.6175C234.523 18.4993 234.271 19.6016 233.767 20.9244C233.263 22.2472 232.649 23.5227 231.925 24.751C231.452 25.5384 230.87 26.3573 230.177 27.2076C229.515 28.0265 228.822 28.7194 228.098 29.2863ZM265.34 20.7827C265.151 20.7512 264.978 20.6882 264.82 20.5937C264.537 20.4677 264.395 20.2315 264.395 19.8851C264.395 19.4757 264.568 19.0032 264.915 18.4678C265.261 17.9009 265.623 17.397 266.001 16.9561C266.411 16.4837 266.694 16.1687 266.852 16.0113C267.324 15.5388 267.812 15.1294 268.316 14.783C268.82 14.4365 269.324 14.2003 269.828 14.0743C270.206 13.9798 270.521 13.9326 270.773 13.9326C271.277 13.9326 271.623 14.0743 271.812 14.3578C272.032 14.6097 272.127 14.9247 272.095 15.3026C272.032 16.1845 271.749 16.9718 271.245 17.6647C270.741 18.3576 270.127 18.956 269.403 19.4599C268.962 19.7749 268.426 20.0898 267.796 20.4048C267.167 20.6882 266.537 20.8299 265.907 20.8299C265.718 20.8299 265.529 20.8142 265.34 20.7827ZM282.271 20.7827C282.082 20.7512 281.909 20.6882 281.752 20.5937C281.468 20.4677 281.326 20.2315 281.326 19.8851C281.326 19.4757 281.5 19.0032 281.846 18.4678C282.193 17.9009 282.555 17.397 282.933 16.9561C283.342 16.4837 283.626 16.1687 283.783 16.0113C284.255 15.5388 284.744 15.1294 285.248 14.783C285.751 14.4365 286.255 14.2003 286.759 14.0743C287.137 13.9798 287.452 13.9326 287.704 13.9326C288.208 13.9326 288.555 14.0743 288.743 14.3578C288.964 14.6097 289.058 14.9247 289.027 15.3026C288.964 16.1845 288.68 16.9718 288.177 17.6647C287.673 18.3576 287.059 18.956 286.334 19.4599C285.893 19.7749 285.358 20.0898 284.728 20.4048C284.098 20.6882 283.468 20.8299 282.838 20.8299C282.649 20.8299 282.46 20.8142 282.271 20.7827ZM319.318 20.7827C319.129 20.7512 318.955 20.6882 318.798 20.5937C318.514 20.4677 318.373 20.2315 318.373 19.8851C318.373 19.4757 318.546 19.0032 318.892 18.4678C319.239 17.9009 319.601 17.397 319.979 16.9561C320.388 16.4837 320.672 16.1687 320.829 16.0113C321.302 15.5388 321.79 15.1294 322.294 14.783C322.798 14.4365 323.302 14.2003 323.806 14.0743C324.183 13.9798 324.498 13.9326 324.75 13.9326C325.254 13.9326 325.601 14.0743 325.79 14.3578C326.01 14.6097 326.105 14.9247 326.073 15.3026C326.01 16.1845 325.727 16.9718 325.223 17.6647C324.719 18.3576 324.105 18.956 323.38 19.4599C322.939 19.7749 322.404 20.0898 321.774 20.4048C321.144 20.6882 320.514 20.8299 319.884 20.8299C319.695 20.8299 319.507 20.8142 319.318 20.7827Z" fill="#48A2DF"/>
<path d="M9.03909 54.001C-2.48722 42.0093 -2.10992 22.9441 9.88183 11.4178C21.8736 -0.108499 40.9387 0.268806 52.465 12.2606C57.2487 17.2374 59.9821 23.4326 60.6858 29.8016L70.9314 16.1866L70.9646 16.2115C72.1225 14.5095 73.4734 12.9012 75.0168 11.4178C87.0085 -0.108499 106.074 0.268806 117.6 12.2606C122.396 17.2505 125.131 23.4652 125.826 29.8518L135.839 16.7786C137.077 14.8661 138.553 13.065 140.267 11.4178C152.259 -0.108499 171.324 0.268806 182.85 12.2606C187.676 17.2811 190.415 23.5415 191.089 29.9694L205.674 10.9401L212.236 15.9693L185.366 51.0268C185.17 51.2927 184.968 51.556 184.761 51.8167L184.394 52.2955L184.381 52.2857C183.648 53.1728 182.857 54.0272 182.008 54.8438C170.016 66.3701 150.951 65.9928 139.424 54.001C134.634 49.0167 131.899 42.8104 131.201 36.4314L121.077 49.6493C120.292 50.8441 119.414 51.9947 118.442 53.0905L118.381 53.17L118.375 53.1655C117.862 53.7406 117.322 54.3006 116.757 54.8438C104.766 66.3701 85.7003 65.9928 74.174 54.001C69.4102 49.0449 66.6797 42.8805 65.9622 36.5394L27.9798 87.0126L21.3739 82.0415L35.8404 62.8176C26.3367 64.4377 16.2235 61.4755 9.03909 54.001Z" fill="#061926"/>
</svg>
