<svg width="334" height="264" viewBox="0 0 334 264" fill="none" xmlns="http://www.w3.org/2000/svg">
<path d="M51.7391 192.448L30.5732 185.045C28.243 173.491 28.7655 161.542 32.0954 150.236C40.125 169.587 65.1687 174.997 79.0738 190.66C83.3734 195.578 86.5121 201.402 88.2576 207.7C90.003 213.998 90.3103 220.608 89.1568 227.041L93.2096 242.433C82.7387 241.231 72.6526 237.771 63.6462 232.291C54.6399 226.811 46.9273 219.441 41.04 210.69C37.7858 205.748 35.1662 200.416 33.2432 194.818C42.3797 194.17 51.7391 192.448 51.7391 192.448Z" fill="#F2F2F2"/>
<path d="M76.039 146.231L61.2582 129.355C64.9135 118.15 71.2458 108.008 79.7054 99.8091C77.1753 120.61 96.3113 137.663 100.709 158.149C102.032 164.549 101.9 171.166 100.321 177.507C98.7422 183.849 95.7582 189.754 91.59 194.784L87.5461 210.179C79.0239 203.971 71.9473 195.988 66.804 186.779C61.6607 177.57 58.5728 167.354 57.7533 156.836C57.3519 150.93 57.695 144.998 58.7745 139.178C67.0458 143.117 76.039 146.231 76.039 146.231Z" fill="#F2F2F2"/>
<path d="M199.533 200.327H92.6641C89.524 200.327 86.9707 200.96 86.9707 201.742V243.586H205.242V201.742C205.242 200.96 202.688 200.327 199.533 200.327Z" fill="#F2F2F2"/>
<path d="M330.69 243.984L0.52504 244.119C0.385792 244.119 0.252248 244.064 0.153785 243.966C0.0553218 243.867 0 243.733 0 243.594C0 243.454 0.0553218 243.321 0.153785 243.222C0.252248 243.124 0.385792 243.068 0.52504 243.068L330.69 242.933C330.829 242.933 330.962 242.989 331.06 243.087C331.158 243.186 331.213 243.319 331.213 243.458C331.213 243.597 331.158 243.731 331.06 243.829C330.962 243.928 330.829 243.983 330.69 243.984Z" fill="#CACACA"/>
<path d="M119.623 241.039L118.624 249.183L149.53 256.915L151.004 244.894L119.623 241.039Z" fill="#FFB6B6"/>
<path d="M125.521 239.065L124.701 252.172L119.132 251.488L109.081 262.81C108.584 263.369 107.922 263.755 107.191 263.911C106.461 264.067 105.699 263.985 105.018 263.677C104.337 263.369 103.772 262.851 103.406 262.199C103.04 261.547 102.891 260.794 102.982 260.052L104.882 244.561L110.717 242.568L105.337 240.848L106.053 235.008L125.521 239.065Z" fill="#2F2E41"/>
<path d="M209.911 245.048L217.865 247.032L229.296 217.266L217.557 214.337L209.911 245.048Z" fill="#FFB6B6"/>
<path d="M230.213 258.174L220.212 246.808L221.57 241.356L220.155 241.092H220.146L211.309 239.441L208.672 238.946L202.278 257.795L207.984 259.22L210.343 254.082L211.331 258.801L211.609 260.121L226.738 263.895C227.463 264.076 228.226 264.02 228.917 263.736C229.608 263.451 230.19 262.953 230.578 262.315C230.966 261.676 231.14 260.929 231.074 260.184C231.009 259.439 230.707 258.735 230.213 258.174Z" fill="#2F2E41"/>
<path d="M143.173 241.953L146.057 241.498C142.961 244.725 139.989 246.857 137.167 247.519L138.534 242.681L143.173 241.953Z" fill="#2F2E41"/>
<path d="M227.412 227.426C224.683 233.535 222.716 237.446 222.716 237.446L221.742 236.934L219.175 235.587L213.064 232.378L212.014 231.826L212.314 225.991L213.646 200.186L214.21 189.309L190.915 201.634L163.351 216.218C162.222 218.187 161.1 220.102 159.986 221.965L141.259 209.107L160.264 181.346L171.341 176.164L168.951 175.701C169.562 174.817 170.252 173.991 171.014 173.233L171.852 172.761C171.852 172.761 224.56 143.698 239.724 158.6C241.032 159.933 242.013 161.551 242.59 163.328C247.789 178.274 234.803 210.899 227.412 227.426Z" fill="#2F2E41"/>
<path d="M215.816 254.762C214.68 256.461 213.139 257.85 211.331 258.801C209.8 259.64 208.179 260.302 206.498 260.774C184.151 267.312 135.244 254.321 135.244 254.321L137.167 247.519L138.534 242.681L143.173 241.952L146.057 241.498L180.548 236.082L171.046 229.557L159.986 221.965L141.259 209.107L118.814 199.003C92.7981 178.256 114.581 154.994 114.581 154.994L129.142 144.665L133.869 141.31L162.91 156.186L171.341 176.164L173.934 182.304L190.915 201.634L212.314 225.991L212.482 226.181C213.101 226.651 213.683 227.167 214.224 227.726C214.422 227.92 214.629 228.136 214.841 228.37C216.765 230.453 218.24 232.91 219.176 235.587C219.784 237.353 220.114 239.202 220.155 241.07C220.157 241.073 220.158 241.077 220.158 241.081C220.158 241.085 220.157 241.088 220.155 241.092C220.252 244.98 219.136 249.567 215.816 254.762Z" fill="#2F2E41"/>
<path d="M104.627 164.812C103.468 164.462 102.879 164.036 102.771 163.472C102.614 162.643 103.544 161.904 104.622 161.049C105.373 160.452 107.356 159.415 106.631 159.095C95.6433 154.252 122.356 85.4984 130.107 77.6858C131.682 76.0984 131.494 72.8758 133.594 70.0086C139.327 62.1785 144.357 60.7598 154.378 57.9342C155.192 57.7047 156.039 57.4645 156.921 57.2134C158.061 56.8876 156.859 60.131 157.453 57.9565C158.114 55.5397 158.797 53.0403 160.438 51.845L160.545 51.7671L160.677 51.7756C163.714 51.9767 173.628 53.6426 178.713 57.2366L178.783 57.2868L178.824 57.3625C179.761 59.1128 179.098 61.7539 178.457 64.3077C177.93 66.4044 179.197 63.0873 179.701 64.1649C183.555 72.4022 190.181 74.2671 190.249 74.2859L190.578 74.375L190.512 74.7098C192.244 83.7004 180.364 111.555 177.795 130.311C175.186 149.367 190.061 170.829 168.201 167.221C168.251 167.387 176.269 183.864 176.138 183.995C174.151 185.987 108.992 166.132 104.627 164.812Z" fill="#E6E6E6"/>
<path d="M249.259 63.721C249.417 64.6218 249.376 65.5464 249.139 66.4296C248.901 67.3127 248.473 68.1329 247.884 68.8325C247.296 69.5321 246.561 70.094 245.732 70.4786C244.903 70.8633 244 71.0613 243.086 71.0587L235.747 92.0422L228.753 82.8519L236.795 64.3346C236.901 62.7983 237.566 61.3544 238.665 60.2764C239.763 59.1984 241.219 58.5613 242.755 58.4856C244.291 58.41 245.802 58.9012 247.001 59.8661C248.2 60.831 249.003 62.2026 249.259 63.721Z" fill="#FFB6B6"/>
<path d="M216.959 122.196L203.655 119.316C179.659 111.71 171.431 102.323 168.749 95.7863C165.886 88.8117 168.495 83.7069 168.608 83.4936L168.676 83.4016L177.282 75.0175C178.375 73.9526 179.682 73.1324 181.116 72.6114C182.55 72.0905 184.078 71.8805 185.599 71.9956C187.12 72.1106 188.599 72.548 189.939 73.2787C191.278 74.0095 192.447 75.0168 193.368 76.2341L210.844 99.3341L218.937 88.3588L222.862 85.2147L224.98 79.2733L233.1 70.4302L242.502 74.7851L238.962 96.1687L234.226 99.0679L234.003 102.216L233.925 102.308L216.959 122.196Z" fill="#E6E6E6"/>
<path d="M249.507 64.5421C260.632 64.5421 269.651 55.514 269.651 44.3773C269.651 33.2405 260.632 24.2124 249.507 24.2124C238.382 24.2124 229.363 33.2405 229.363 44.3773C229.363 55.514 238.382 64.5421 249.507 64.5421Z" fill="white"/>
<path d="M249.507 64.7884C245.474 64.7884 241.532 63.5913 238.179 61.3485C234.826 59.1057 232.213 55.918 230.669 52.1883C229.126 48.4587 228.722 44.3547 229.509 40.3954C230.296 36.436 232.238 32.7991 235.089 29.9446C237.941 27.0901 241.574 25.1461 245.529 24.3585C249.484 23.5709 253.584 23.9751 257.31 25.52C261.036 27.0648 264.22 29.6809 266.46 33.0375C268.701 36.3941 269.897 40.3403 269.897 44.3772C269.891 49.7887 267.74 54.9768 263.918 58.8033C260.095 62.6298 254.913 64.7822 249.507 64.7884Z" fill="#3F3D56"/>
<path d="M245.734 52.6723C245.691 52.6723 245.648 52.6709 245.605 52.6688C245.226 52.6504 244.855 52.5502 244.518 52.3749C244.181 52.1996 243.886 51.9534 243.652 51.6531L240.286 47.3207C240.073 47.0473 239.917 46.7346 239.825 46.4005C239.733 46.0664 239.708 45.7174 239.751 45.3736C239.794 45.0298 239.904 44.6978 240.075 44.3965C240.246 44.0953 240.475 43.8308 240.748 43.6181L240.869 43.5237C241.142 43.3108 241.455 43.1538 241.789 43.0619C242.122 42.9699 242.471 42.9446 242.815 42.9876C243.158 43.0306 243.49 43.1409 243.791 43.3123C244.092 43.4837 244.356 43.7128 244.569 43.9865C244.739 44.205 244.954 44.3842 245.199 44.5119C245.445 44.6395 245.715 44.7126 245.992 44.726C246.268 44.7395 246.544 44.6931 246.801 44.5899C247.058 44.4868 247.289 44.3293 247.48 44.1284L254.315 36.9049C254.796 36.3976 255.458 36.102 256.157 36.083C256.856 36.064 257.533 36.3231 258.041 36.8035L258.153 36.9105C258.405 37.1487 258.606 37.4342 258.748 37.7506C258.889 38.067 258.966 38.4082 258.975 38.7545C258.985 39.1009 258.926 39.4457 258.802 39.7693C258.678 40.0929 258.492 40.3889 258.254 40.6403L247.647 51.8482C247.401 52.1085 247.104 52.3159 246.775 52.4576C246.446 52.5993 246.092 52.6723 245.734 52.6723Z" fill="white"/>
<path d="M199.569 52.9812L199.587 52.9828C200.539 53.0651 201.486 52.7653 202.217 52.1492C202.949 51.533 203.407 50.6511 203.489 49.6974L205.233 29.6311C205.549 26.0363 205.14 22.4147 204.029 18.9814C201.853 12.2808 197.178 6.67921 190.978 3.34413C187.776 1.62668 184.261 0.575884 180.643 0.255062C165.841 -1.05744 160.456 2.06242 151.469 24.7068C142.481 47.3511 149.722 44.8037 149.722 44.8037C149.679 45.2873 149.735 45.7745 149.884 46.2363C150.178 47.1373 150.808 47.8899 151.642 48.3369C152.071 48.5657 152.541 48.706 153.024 48.7495C170.541 53.0831 188.218 57.6498 199.572 52.9814L199.569 52.9812Z" fill="#2F2E41"/>
<path d="M166.796 19.3496C164.622 22.6155 163.464 26.453 163.468 30.3773C163.472 34.3016 164.637 38.1368 166.817 41.3985C168.997 44.6602 172.093 47.2021 175.715 48.7032C179.338 50.2042 183.323 50.597 187.168 49.8321C189.713 49.334 192.135 48.3353 194.292 46.8937C196.449 45.4522 198.298 43.5965 199.734 41.4342C201.903 38.1694 203.058 34.3349 203.053 30.414C203.048 26.4932 201.883 22.6615 199.706 19.4023C197.529 16.143 194.436 13.6021 190.818 12.0997C187.2 10.5974 183.219 10.201 179.377 10.9606C176.829 11.4558 174.405 12.4524 172.246 13.8926C170.086 15.3328 168.234 17.1879 166.796 19.3504L166.796 19.3496Z" fill="#FFB6B6"/>
<path d="M211.449 31.8178C211.698 28.9747 211.374 26.1105 210.496 23.3951C210.253 16.7403 208.284 10.7241 200.175 11.031C197.659 9.68251 194.898 8.85436 192.056 8.59585L188.046 8.2263C188.001 8.22212 187.956 8.21807 187.911 8.21418C182.299 7.72898 176.726 9.49497 172.415 13.1236C168.105 16.7523 165.411 21.9464 164.927 27.5633L164.892 27.9652L173.376 28.7387L176.973 20.8971L176.847 29.0568L181.23 29.458L183.044 25.5017L182.981 29.6158C189.521 35.3052 199.383 35.5402 211.41 32.2202L211.449 31.8178Z" fill="#2F2E41"/>
<path d="M184.453 51.0275C184.53 51.6878 184.42 52.3563 184.135 52.9571C183.992 53.2647 183.807 53.5508 183.584 53.8069C183.394 54.025 183.178 54.2199 182.942 54.3873C182.243 54.8816 181.391 55.1102 180.538 55.0322C180.485 55.0271 180.432 55.021 180.379 55.0139C180.327 55.0068 180.274 54.9984 180.221 54.9888C180.168 54.9797 180.115 54.9691 180.062 54.957C180.01 54.9449 179.957 54.9318 179.904 54.9177L176.94 54.1073L173.562 44.8723L172.855 53.0002L159.374 49.3392L162.372 14.8477L185.322 16.9577L184.697 17.5681C182.621 19.6184 181.15 22.2024 180.446 25.0357C179.747 27.9067 179.546 30.8763 179.849 33.8156C180.134 36.7878 180.704 39.7257 181.55 42.589C182.287 45.1244 183.169 47.6152 184.192 50.0491C184.324 50.3614 184.412 50.6908 184.453 51.0275Z" fill="#2F2E41"/>
<path d="M112.815 120.437C103.81 129.101 103.526 143.433 112.182 152.448C117.577 158.067 125.172 160.294 132.309 159.076L121.445 173.527L126.406 177.264L154.929 139.321C155.468 144.088 157.518 148.722 161.095 152.448C169.751 161.463 184.068 161.746 193.073 153.081C193.498 152.673 193.903 152.252 194.288 151.82L194.293 151.823L194.339 151.763C195.068 150.94 195.728 150.075 196.317 149.177L203.92 139.24C204.444 144.036 206.498 148.701 210.095 152.448C218.751 161.463 233.068 161.746 242.074 153.081C242.711 152.468 243.306 151.825 243.856 151.158L243.866 151.166L244.141 150.806C244.296 150.61 244.448 150.412 244.596 150.212L264.773 123.858L259.846 120.078L248.893 134.382C248.387 129.55 246.33 124.844 242.706 121.07C234.051 112.055 219.734 111.772 210.728 120.437C209.441 121.675 208.332 123.029 207.402 124.467L199.884 134.294C199.362 129.493 197.308 124.821 193.706 121.07C185.051 112.055 170.733 111.772 161.728 120.437C160.569 121.552 159.555 122.761 158.685 124.04L158.66 124.021L150.966 134.256C150.438 129.469 148.385 124.811 144.793 121.07C136.137 112.055 121.82 111.772 112.815 120.437Z" fill="#62B0E5"/>
<path d="M145.912 148.86C145.011 148.711 144.153 148.366 143.399 147.849C142.646 147.331 142.014 146.655 141.55 145.868C141.086 145.08 140.799 144.2 140.711 143.29C140.624 142.379 140.736 141.461 141.041 140.598L123.695 126.714L134.675 123.153L149.464 136.884C150.876 137.493 152.017 138.6 152.669 139.995C153.321 141.389 153.439 142.975 153.002 144.451C152.564 145.927 151.6 147.192 150.294 148.004C148.987 148.817 147.428 149.121 145.912 148.86Z" fill="#FFB6B6"/>
<path d="M101.498 98.9789L108.62 87.3676C123.739 67.2234 135.313 62.5621 142.362 62.1941C149.885 61.8014 153.832 65.9564 153.996 66.1336L154.06 66.2285L159.111 77.1349C159.752 78.5203 160.092 80.0263 160.108 81.5532C160.124 83.0801 159.816 84.593 159.203 85.9915C158.591 87.39 157.689 88.6422 156.556 89.6652C155.424 90.6881 154.087 91.4584 152.634 91.925L125.072 100.778L132.735 112.058L134.398 116.807L139.296 120.776L144.941 131.375L137.721 138.812L118.739 128.384L117.576 122.95L114.683 121.696L114.622 121.592L101.498 98.9789Z" fill="#E6E6E6"/>
</svg>
