<svg width="366" height="285" viewBox="0 0 366 285" fill="none" xmlns="http://www.w3.org/2000/svg">
<g clip-path="url(#clip0_564_88143)">
<path d="M263.872 53.0534H237.118V10.3618L263.872 18.9001V53.0534Z" fill="#2F2E41"/>
<path d="M268.622 269.812L263.101 269.942L260.023 245.138L268.171 244.945L268.622 269.812Z" fill="#A0616A"/>
<path d="M249.68 281.33C249.68 282.263 250.342 283.019 251.158 283.019H262.117C262.117 283.019 263.195 278.684 267.592 276.818L267.896 283.019H273.549L272.864 273.048C272.864 273.048 274.376 267.714 271.236 264.988C268.095 262.261 270.639 262.641 270.639 262.641L269.403 256.47L260.861 257.474L260.798 267.161L256.652 276.776L250.571 279.78C250.03 280.047 249.68 280.656 249.68 281.33L249.68 281.33L249.68 281.33Z" fill="#2F2E41"/>
<path d="M240.326 269.812L234.805 269.942L231.728 245.138L239.875 244.945L240.326 269.812Z" fill="#A0616A"/>
<path d="M221.384 281.33C221.384 282.263 222.046 283.019 222.862 283.019H233.821C233.821 283.019 234.899 278.684 239.296 276.818L239.6 283.019H245.253L244.568 273.048C244.568 273.048 246.08 267.714 242.94 264.988C239.799 262.261 242.343 262.641 242.343 262.641L241.107 256.47L232.565 257.474L232.502 267.161L228.356 276.776L222.275 279.78C221.734 280.047 221.384 280.656 221.384 281.33L221.384 281.33L221.384 281.33Z" fill="#2F2E41"/>
<path d="M265.58 99.73L230.288 120.791L222.319 153.237L226.304 253.42H243.779L247.65 156.937L255.397 253.42H273.146L277.635 145.073C278.871 137.199 277.896 129.136 274.817 121.785L265.58 99.73V99.73V99.73Z" fill="#2F2E41"/>
<path d="M257.611 35.4075L242.811 34.269L238.826 42.2381L227.442 45.0843L224.596 80.376C230.226 95.0041 233.76 108.983 230.288 120.791L273.549 118.514L266.326 98.9833C266.326 98.9833 266.149 91.7604 270.133 82.0837C274.118 72.4069 267.857 47.3611 267.857 47.3611L258.749 45.0843L257.611 35.4075H257.611V35.4075Z" fill="#3693D1"/>
<path d="M157.96 49.1362C159.401 49.1808 160.733 48.8963 161.78 48.3866L175.481 49.6791L175.906 43.1414L161.961 42.5342C160.947 41.9606 159.636 41.5941 158.195 41.5495C154.903 41.4475 152.181 43.0631 152.116 45.1581C152.052 47.2531 154.668 49.0341 157.96 49.1362H157.96Z" fill="#FFB6B6"/>
<path d="M239.009 69.0941C239.009 69.0941 238.525 48.2672 233.957 45.1412C232.073 43.852 203.107 43.5591 202.052 43.4498C195.544 42.7753 190.913 40.1916 185.434 39.9084C172.081 39.2183 165.33 42.4587 165.33 42.4587L165.095 49.1453L239.009 69.0941V69.0941Z" fill="#3693D1"/>
<path d="M248.95 33.7296C255.477 33.7296 260.768 28.4388 260.768 21.9122C260.768 15.3856 255.477 10.0947 248.95 10.0947C242.424 10.0947 237.133 15.3856 237.133 21.9122C237.133 28.4388 242.424 33.7296 248.95 33.7296Z" fill="#FFB6B6"/>
<path d="M245.365 4.31535C242.824 5.91764 240.962 4.77049 239.146 5.57858C235.599 7.15745 229.61 18.2468 230.15 22.8895C230.915 29.4647 233.332 29.7355 233.26 34.4529C233.144 42.028 232.542 41.9966 234.094 44.6416C235.819 47.5835 245.592 46.7847 247.406 42.7954C247.764 42.0083 243.788 42.3178 239.395 31.9924C237.191 26.8111 238.638 22.0897 239.395 20.0388C239.572 19.5586 239.653 16.1496 240.032 16.5279C243.349 19.8452 245.209 17.4203 247.212 17.142C251.323 16.5709 254.418 19.8874 255.666 18.6968C256.594 17.8108 255.41 15.4682 255.86 15.2958C256.34 15.1119 257.929 17.6818 258.969 20.4459C259.64 22.2283 259.976 23.1196 259.941 24.1384C259.834 27.2847 259.032 36.2056 257.61 38.8231C254.541 44.4756 258.406 46.6084 260.816 46.1964C262.763 45.8635 271.37 47.1742 271.841 46.223C272.26 45.3756 271.302 36.6587 270.295 28.5549C269.084 18.8147 264.231 9.86389 256.623 3.66339C256.176 3.29977 255.844 3.05028 255.666 2.95496C255.244 2.72917 250.899 0.472972 247.698 2.27476C246.519 2.93807 246.711 3.46726 245.365 4.31537L245.365 4.31535Z" fill="#2F2E41"/>
<path d="M97.7461 279.037L91.1894 279.037L88.0703 253.746L97.7475 253.747L97.7461 279.037Z" fill="#FFB6B6"/>
<path d="M75.2816 278.888C75.0774 279.232 74.9697 280.342 74.9697 280.742C74.9697 281.971 75.966 282.967 77.1951 282.967H97.5006C98.339 282.967 99.0188 282.287 99.0188 281.449V280.604C99.0188 280.604 100.023 278.063 97.9552 274.931C97.9552 274.931 95.3848 277.383 91.5441 273.543L90.4115 271.491L82.213 277.487L77.6687 278.046C76.6745 278.168 75.7931 278.027 75.2817 278.888H75.2816H75.2816Z" fill="#2F2E41"/>
<path d="M125.391 279.037L118.834 279.037L115.715 253.746L125.392 253.747L125.391 279.037Z" fill="#FFB6B6"/>
<path d="M102.926 278.888C102.722 279.232 102.614 280.342 102.614 280.742C102.614 281.971 103.611 282.967 104.84 282.967H125.145C125.984 282.967 126.663 282.287 126.663 281.449V280.604C126.663 280.604 127.668 278.063 125.6 274.931C125.6 274.931 123.029 277.383 119.189 273.543L118.056 271.491L109.858 277.487L105.313 278.046C104.319 278.168 103.438 278.027 102.926 278.888H102.926H102.926Z" fill="#2F2E41"/>
<path d="M126.69 119.365L78.5893 118.812L73.6133 150.327L85.7768 259.245H101.723L105.404 157.79L112.039 261.18H128.366L135.813 143.415L126.69 119.365Z" fill="#2F2E41"/>
<path d="M330.613 274.694C331.755 274.765 332.386 273.346 331.522 272.519L331.436 272.177C331.447 272.15 331.459 272.123 331.47 272.095C332.625 269.341 336.54 269.36 337.685 272.118C338.702 274.567 339.996 277.019 340.315 279.608C340.458 280.75 340.393 281.915 340.14 283.036C342.522 277.833 343.775 272.151 343.775 266.438C343.775 265.002 343.696 263.567 343.536 262.135C343.404 260.963 343.221 259.799 342.986 258.646C341.711 252.411 338.951 246.472 334.969 241.512C333.055 240.466 331.459 238.83 330.494 236.87C330.148 236.163 329.877 235.402 329.748 234.627C329.966 234.656 330.569 231.338 330.405 231.135C330.709 230.674 331.252 230.445 331.584 229.996C333.232 227.76 335.504 228.15 336.69 231.188C339.224 232.467 339.248 234.587 337.694 236.627C336.705 237.924 336.569 239.68 335.701 241.069C335.79 241.184 335.883 241.294 335.972 241.409C337.61 243.508 339.025 245.765 340.219 248.136C339.882 245.501 340.38 242.327 341.229 240.28C342.195 237.948 344.007 235.985 345.602 233.969C347.519 231.548 351.448 232.604 351.786 235.674C351.789 235.703 351.792 235.733 351.796 235.763C351.559 235.896 351.326 236.038 351.1 236.188C349.806 237.044 350.253 239.049 351.786 239.286L351.821 239.291C351.735 240.144 351.588 240.991 351.374 241.823C353.421 249.738 349.002 252.621 342.693 252.75C342.554 252.821 342.418 252.893 342.279 252.961C342.918 254.761 343.429 256.607 343.807 258.478C344.146 260.131 344.382 261.803 344.514 263.481C344.679 265.599 344.664 267.727 344.486 269.841L344.496 269.766C344.95 267.438 346.214 265.263 348.05 263.756C350.784 261.51 354.647 260.683 357.597 258.877C359.017 258.008 360.837 259.131 360.589 260.777L360.577 260.856C360.137 261.035 359.709 261.242 359.295 261.474C359.058 261.608 358.826 261.75 358.599 261.9C357.305 262.755 357.752 264.76 359.285 264.997L359.32 265.002C359.345 265.006 359.366 265.009 359.391 265.013C358.638 266.802 357.588 268.463 356.274 269.895C354.994 276.804 349.497 277.46 343.618 275.448H343.614C342.972 278.247 342.032 280.983 340.825 283.589H330.862C330.827 283.479 330.794 283.364 330.762 283.254C331.684 283.311 332.612 283.257 333.519 283.09C332.78 282.182 332.041 281.268 331.301 280.361C331.284 280.343 331.269 280.326 331.255 280.308C330.88 279.843 330.502 279.383 330.127 278.919L330.126 278.918C330.103 277.493 330.274 276.073 330.612 274.694L330.613 274.694V274.694L330.613 274.694Z" fill="#F2F2F2"/>
<path d="M0.362305 283.815C0.362305 284.18 0.655351 284.473 1.02027 284.473H364.98C365.345 284.473 365.638 284.18 365.638 283.815C365.638 283.45 365.345 283.157 364.98 283.157H1.02027C0.655351 283.157 0.362305 283.45 0.362305 283.815Z" fill="#CCCCCC"/>
<path d="M110.38 36.7085H93.2603L89.9234 43.3431L73.6133 50.8332L79.4186 93.6558L74.9955 121.853H130.247L125.308 89.2327L131.943 49.9778L113.698 42.7902L110.38 36.7085Z" fill="#E6E6E6"/>
<path d="M167.686 140.475C166.939 138.952 166.598 137.386 166.637 136.016L158.607 121.954L165.411 118.329L172.823 132.984C173.93 133.793 174.959 135.021 175.705 136.545C177.411 140.025 176.999 143.726 174.784 144.811C172.57 145.897 169.392 143.955 167.686 140.475V140.475H167.686Z" fill="#FFB6B6"/>
<path d="M114.759 48.0903C114.759 48.0903 120.176 42.517 126.253 46.3954C132.329 50.2739 154.496 89.9621 154.496 89.9621L171.595 124.082L159.525 129.705L144.964 97.0323L114.384 64.1238L114.759 48.0903L114.759 48.0903H114.759Z" fill="#E6E6E6"/>
<path d="M101.096 33.4742C109.633 33.4742 116.555 26.5529 116.555 18.0152C116.555 9.47738 109.633 2.55615 101.096 2.55615C92.558 2.55615 85.6367 9.47738 85.6367 18.0152C85.6367 26.5529 92.558 33.4742 101.096 33.4742Z" fill="#FFB6B6"/>
<path d="M96.2439 30.4569C96.3154 31.9714 96.3512 32.7286 96.1185 32.8202C95.4182 33.0957 86.3991 27.7692 85.3371 24.2235C84.8418 22.5697 85.26 22.5368 84.8985 17.832C84.5527 13.3322 84.165 13.2963 84.6233 12.183C85.1328 10.9457 86.6885 9.42117 89.7999 6.37213C90.9763 5.21927 91.5645 4.64284 91.9359 4.3448C93.0613 3.44152 97.2538 0.0764754 101.098 0.511227C102.71 0.693463 102.434 1.33685 108.454 4.60144C108.973 4.88263 109.668 5.25381 110.628 5.67999C112.964 6.7165 114.413 6.98521 115.176 7.27426C119.798 9.02605 118.442 18.7844 118.044 18.8403C117.9 18.8607 117.86 17.5953 117.102 17.4907C116.419 17.3965 115.984 18.3574 115.364 18.3924C113.669 18.4879 115.551 16.8655 111.403 15.0636C109.79 14.3631 114.277 17.5215 110.006 17.4702C103.327 17.39 107.598 17.8152 105.062 19.1476C103.212 20.1194 95.7699 14.7716 96.0723 16.4804C96.2856 17.6857 97.1602 18.0327 97.034 19.383C96.9118 20.6911 95.9287 22.1011 95.0615 22.1529C94.2622 22.2006 93.8242 21.079 93.5576 21.1863C93.2676 21.3031 93.5861 22.7106 94.2115 24.1567C95.0053 25.9925 95.4792 26.0069 95.8979 27.4188C96.1387 28.2308 96.1738 28.9729 96.2439 30.4569H96.2439V30.4569Z" fill="#2F2E41"/>
<path d="M218.086 135.936L118.479 110.593C112.112 108.973 108.249 102.475 109.869 96.1079L122.261 47.4036C123.881 41.0363 130.379 37.1741 136.746 38.7941L236.353 64.1367C242.72 65.7567 246.583 72.2549 244.963 78.6222L232.571 127.326C230.951 133.694 224.453 137.556 218.086 135.936Z" fill="white"/>
<path d="M218.086 135.936L118.479 110.593C115.295 109.783 112.738 107.754 110.911 105.063C108.253 101.147 107.56 96.2178 108.726 91.6315L119.118 50.7895C120.285 46.2032 123.25 42.2046 127.456 40.0355C130.347 38.5447 133.563 37.9841 136.747 38.7941L236.353 64.1368C242.731 65.7594 246.586 72.2447 244.963 78.6223L232.571 127.327C230.951 133.694 224.453 137.556 218.086 135.936H218.086ZM136.474 39.8658C130.688 38.3937 132.2 43.6336 130.728 49.4193L130.728 49.4193C123.547 77.6467 138.401 106.83 165.454 117.622C180.058 123.448 192.205 128.21 192.205 128.21C212.435 133.357 233.007 121.13 238.154 100.9L243.891 78.3496C245.363 72.5639 241.866 66.6804 236.081 65.2084L136.474 39.8658V39.8658Z" fill="#3F3D56"/>
<path d="M146.633 273.445H146.633C145.828 271.37 143.493 270.34 141.418 271.146H141.418C139.363 271.943 138.334 274.242 139.098 276.302L139.037 276.325L141.954 283.84L148.868 281.156C149.097 281.111 149.325 281.047 149.55 280.959H149.55C151.625 280.154 152.654 277.819 151.849 275.744V275.744C151.043 273.669 148.708 272.639 146.633 273.445L146.633 273.445Z" fill="#E6E6E6"/>
<path d="M301.442 273.445C300.637 271.37 298.302 270.34 296.227 271.146C294.171 271.943 293.143 274.242 293.906 276.302L293.846 276.325L296.762 283.84L303.677 281.156C303.906 281.111 304.133 281.047 304.358 280.959C306.433 280.154 307.463 277.819 306.657 275.744V275.744C305.852 273.669 303.517 272.639 301.442 273.445L301.442 273.445H301.442Z" fill="#E6E6E6"/>
<path d="M174.905 142.473C180.921 142.473 185.798 137.595 185.798 131.579C185.798 125.562 180.921 120.685 174.905 120.685C168.888 120.685 164.011 125.562 164.011 131.579C164.011 137.595 168.888 142.473 174.905 142.473Z" fill="#3693D1"/>
<path d="M114.594 70.7187C113.171 71.6411 111.656 72.1655 110.291 72.2901L97.2829 81.9341L92.875 75.6099L106.545 66.5079C107.217 65.313 108.314 64.1455 109.738 63.2231C112.991 61.1158 116.715 61.0855 118.056 63.1553C119.397 65.2252 117.847 68.6114 114.594 70.7187H114.594V70.7187L114.594 70.7187Z" fill="#FFB6B6"/>
<path d="M84.1266 48.2136C84.1266 48.2136 74.1747 47.1078 72.516 50.978C70.8574 54.8482 67.54 93.5503 67.54 93.5503L73.0689 102.949L109.326 75.5084L101.984 68.1658L86.4448 75.5084L84.1266 48.2136H84.1266V48.2136Z" fill="#E6E6E6"/>
<path d="M228.272 60.7192C229.455 61.9356 230.814 62.784 232.117 63.2094L242.651 75.5082L248.357 70.3245L237.057 58.4067C236.668 57.0922 235.858 55.7096 234.676 54.4933C231.974 51.7146 228.351 50.8557 226.582 52.575C224.814 54.2942 225.571 57.9405 228.272 60.7192V60.7192Z" fill="#FFB6B6"/>
<path d="M262.987 45.5649C262.987 45.5649 272.936 46.7033 273.691 50.8457C274.446 54.9881 269.061 93.4569 269.061 93.4569L261.578 101.389L232.342 66.5622L241.135 61.0392L254.649 71.658L262.987 45.5649Z" fill="#3693D1"/>
<path d="M128.848 90.2297C133.43 90.2297 137.144 86.5155 137.144 81.9339C137.144 77.3523 133.43 73.6382 128.848 73.6382C124.267 73.6382 120.553 77.3523 120.553 81.9339C120.553 86.5155 124.267 90.2297 128.848 90.2297Z" fill="#E6E6E6"/>
<g clip-path="url(#clip1_564_88143)">
<path d="M196.03 70.3912L196.19 70.199C199.325 72.8035 201.673 76.2033 202.98 80.0312C204.324 83.965 204.495 88.1729 203.476 92.1978C203.385 92.5577 203.283 92.9192 203.174 93.273L203.174 93.2735C202.955 93.9831 202.211 94.3824 201.496 94.2013L196.03 70.3912ZM196.03 70.3912L196.19 70.1989C195.599 69.7084 194.718 69.7756 194.22 70.3571C193.72 70.941 193.802 71.8147 194.395 72.307C197.134 74.5826 199.185 77.5527 200.326 80.8959C201.498 84.3276 201.647 87.9973 200.758 91.5104C200.678 91.825 200.589 92.1414 200.494 92.451L196.03 70.3912ZM165.774 99.3083L165.774 99.3084C165.198 99.8188 165.157 100.694 165.678 101.262C168.622 104.474 172.432 106.742 176.695 107.821C180.885 108.881 185.246 108.723 189.305 107.362C190.036 107.118 190.424 106.331 190.167 105.606C189.911 104.884 189.113 104.502 188.386 104.745L188.386 104.745C184.843 105.933 181.035 106.072 177.373 105.145C173.647 104.202 170.32 102.221 167.75 99.4174C167.232 98.852 166.348 98.8006 165.774 99.3083ZM159.025 82.0983L159.025 82.0988L160.179 83.4839L160.13 83.729C160.13 83.729 160.131 83.7291 160.131 83.7291C160.885 83.8802 161.625 83.4032 161.774 82.6508C161.838 82.333 161.91 82.0124 161.99 81.6977C162.879 78.1847 164.756 75.0279 167.419 72.5666C170.013 70.1691 173.23 68.5322 176.722 67.8337C177.478 67.6827 177.966 66.9536 177.804 66.2021C177.643 65.4537 176.899 64.9751 176.146 65.1256L176.146 65.1256C172.15 65.9252 168.467 67.7984 165.496 70.5434L165.666 70.727L165.496 70.5434C162.443 73.3644 160.29 76.9842 159.272 81.0091C159.181 81.3689 159.098 81.7354 159.025 82.0983ZM180.523 64.6286C179.607 68.2479 181.863 71.9438 185.541 72.8746C189.218 73.8055 192.961 71.6281 193.878 68.0089C194.794 64.3896 192.537 60.6937 188.86 59.7629C185.182 58.8321 181.439 61.0094 180.523 64.6286ZM183.241 65.3167C183.782 63.1818 185.995 61.8854 188.182 62.439C190.37 62.9927 191.7 65.186 191.159 67.3208C190.619 69.4557 188.406 70.7521 186.218 70.1985C184.031 69.6449 182.701 67.4516 183.241 65.3167Z" fill="#62B0E5" stroke="#62B0E5" stroke-width="0.5"/>
<path d="M154.906 90.5126C153.954 94.2701 156.297 98.0987 160.104 99.0623C163.912 100.026 167.794 97.7735 168.745 94.0155C169.696 90.2581 167.353 86.4294 163.546 85.4658C159.739 84.5022 155.857 86.7552 154.906 90.5126ZM158.109 91.3233C158.614 89.3266 160.688 88.1058 162.746 88.6267C164.804 89.1476 166.047 91.2081 165.542 93.2048C165.036 95.2015 162.962 96.4223 160.905 95.9014C158.847 95.3806 157.603 93.32 158.109 91.3233Z" fill="#62B0E5" stroke="#62B0E5"/>
<path d="M189.88 99.3656C188.929 103.123 191.272 106.952 195.079 107.915C198.887 108.879 202.768 106.627 203.719 102.869C204.67 99.1111 202.327 95.2825 198.521 94.3189C194.714 93.3553 190.831 95.6082 189.88 99.3656Z" fill="#62B0E5" stroke="#62B0E5"/>
</g>
</g>
<defs>
<clipPath id="clip0_564_88143">
<rect width="365.275" height="284" fill="white" transform="translate(0.362305 0.472656)"/>
</clipPath>
<clipPath id="clip1_564_88143">
<rect width="58.9827" height="57.8698" fill="white" transform="translate(161.51 49.9766) rotate(14.204)"/>
</clipPath>
</defs>
</svg>
