<svg width="12" height="13" viewBox="0 0 12 13" fill="none" xmlns="http://www.w3.org/2000/svg">
<path d="M5.89637 1.03199C6.01322 1.03227 6.12867 1.06049 6.235 1.11476L10.7747 3.53582C10.7913 3.54196 10.8072 3.55046 10.8219 3.56112C10.8098 3.57112 10.7967 3.5796 10.7829 3.58641L6.235 6.00747C6.12861 6.06144 6.01316 6.08936 5.89637 6.08936C5.77958 6.08936 5.66413 6.06144 5.55774 6.00747L1.01805 3.58641C1.00142 3.58027 0.985554 3.57177 0.970847 3.56112C0.982977 3.55111 0.996054 3.54263 1.00984 3.53582L5.55774 1.11476C5.66407 1.06049 5.77952 1.03227 5.89637 1.03199ZM5.89637 0.11231C5.65727 0.111656 5.42103 0.170556 5.20475 0.28475L0.665054 2.70351C0.510627 2.77052 0.377901 2.88828 0.284306 3.04134C0.190711 3.1944 0.140625 3.37559 0.140625 3.56112C0.140625 3.74664 0.190711 3.92783 0.284306 4.08089C0.377901 4.23395 0.510627 4.35171 0.665054 4.41872L5.20475 6.83748C5.42124 6.95099 5.65735 7.00983 5.89637 7.00983C6.1354 7.00983 6.37151 6.95099 6.588 6.83748L11.1277 4.41872C11.2821 4.35171 11.4148 4.23395 11.5084 4.08089C11.602 3.92783 11.6521 3.74664 11.6521 3.56112C11.6521 3.37559 11.602 3.1944 11.5084 3.04134C11.4148 2.88828 11.2821 2.77052 11.1277 2.70351L6.588 0.28475C6.37171 0.170556 6.13547 0.111656 5.89637 0.11231Z" fill="#1D1D1D"/>
<path d="M5.89449 9.83787C5.58635 9.83964 5.28209 9.76091 5.00585 9.60795L0.375852 7.03054C0.325902 7.00484 0.28107 6.96816 0.244014 6.92267C0.206958 6.87719 0.178434 6.82383 0.160134 6.76576C0.141834 6.7077 0.134131 6.6461 0.137482 6.58464C0.140834 6.52317 0.15517 6.46309 0.179643 6.40795C0.204115 6.35281 0.238223 6.30373 0.279945 6.26364C0.321666 6.22355 0.370151 6.19325 0.422522 6.17455C0.474893 6.15585 0.530084 6.14912 0.584819 6.15477C0.639555 6.16042 0.692721 6.17832 0.741162 6.20743L5.37116 8.78253C5.534 8.87222 5.71304 8.91885 5.89449 8.91885C6.07595 8.91885 6.25499 8.87222 6.41783 8.78253L11.0478 6.20743C11.1448 6.15754 11.2552 6.1519 11.3558 6.19168C11.4564 6.23147 11.5392 6.31356 11.5867 6.42057C11.6342 6.52757 11.6426 6.65109 11.6102 6.76495C11.5778 6.87881 11.5071 6.97406 11.4131 7.03054L6.78314 9.60565C6.50707 9.75941 6.2028 9.83892 5.89449 9.83787Z" fill="#1D1D1D"/>
<path d="M5.89449 12.9878C5.58646 12.9885 5.28241 12.9098 5.00585 12.7578L0.375853 10.1804C0.325903 10.1547 0.28107 10.1181 0.244014 10.0726C0.206958 10.0271 0.178434 9.97373 0.160134 9.91567C0.141834 9.8576 0.134131 9.79601 0.137482 9.73454C0.140834 9.67307 0.15517 9.61299 0.179643 9.55785C0.204115 9.50271 0.238223 9.45364 0.279945 9.41354C0.321667 9.37345 0.370151 9.34316 0.422522 9.32445C0.474893 9.30575 0.530084 9.29902 0.58482 9.30467C0.639555 9.31032 0.692721 9.32823 0.741162 9.35733L5.37116 11.9324C5.534 12.0221 5.71304 12.0688 5.89449 12.0688C6.07595 12.0688 6.25499 12.0221 6.41783 11.9324L11.0478 9.35733C11.1448 9.30745 11.2552 9.3018 11.3558 9.34159C11.4564 9.38137 11.5392 9.46346 11.5867 9.57047C11.6342 9.67747 11.6426 9.80099 11.6102 9.91485C11.5778 10.0287 11.5071 10.124 11.4131 10.1804L6.78314 12.7578C6.50657 12.9098 6.20253 12.9885 5.89449 12.9878Z" fill="#1D1D1D"/>
</svg>
