<svg width="13" height="13" viewBox="0 0 13 13" fill="none" xmlns="http://www.w3.org/2000/svg">
<path d="M11.5674 2.68741H1.49303C1.30225 2.68765 1.11934 2.77251 0.984439 2.92337C0.849535 3.07424 0.773652 3.27878 0.773438 3.49213V12.1831C0.773652 12.3965 0.849535 12.601 0.984439 12.7519C1.11934 12.9027 1.30225 12.9876 1.49303 12.9878H11.5674C11.7581 12.9876 11.941 12.9027 12.0759 12.7519C12.2109 12.601 12.2867 12.3965 12.287 12.1831V3.49213C12.2867 3.27878 12.2109 3.07424 12.0759 2.92337C11.941 2.77251 11.7581 2.68765 11.5674 2.68741ZM1.49303 3.33119H11.5674C11.6055 3.33119 11.6421 3.34815 11.6691 3.37833C11.6961 3.40851 11.7113 3.44945 11.7113 3.49213V9.31379L9.62058 6.97567C9.48552 6.82499 9.30252 6.74037 9.11174 6.74037C8.92096 6.74037 8.73796 6.82499 8.6029 6.97567L5.65769 10.2694L4.4485 8.91706C4.31343 8.76638 4.13044 8.68176 3.93965 8.68176C3.74887 8.68176 3.56588 8.76638 3.43081 8.91706L1.34911 11.2451V3.49213C1.34911 3.44945 1.36428 3.40851 1.39127 3.37833C1.41826 3.34815 1.45486 3.33119 1.49303 3.33119ZM1.34911 12.1831V12.1555L3.83792 9.37233C3.86491 9.34217 3.9015 9.32523 3.93965 9.32523C3.97781 9.32523 4.0144 9.34217 4.04139 9.37233L5.25066 10.7246L3.80248 12.3441H1.49303C1.45486 12.3441 1.41826 12.3271 1.39127 12.2969C1.36428 12.2667 1.34911 12.2258 1.34911 12.1831ZM11.5674 12.3441H4.61652L9.01001 7.43094C9.03699 7.40078 9.07359 7.38384 9.11174 7.38384C9.14989 7.38384 9.18649 7.40078 9.21347 7.43094L11.7113 10.2241V12.1831C11.7113 12.2258 11.6961 12.2667 11.6691 12.2969C11.6421 12.3271 11.6055 12.3441 11.5674 12.3441ZM1.34911 1.72175C1.34911 1.67948 1.35656 1.63762 1.37102 1.59857C1.38549 1.55951 1.40669 1.52403 1.43342 1.49414C1.46015 1.46425 1.49188 1.44054 1.5268 1.42436C1.56172 1.40818 1.59915 1.39986 1.63695 1.39986H11.4234C11.4998 1.39986 11.573 1.43377 11.627 1.49414C11.6809 1.5545 11.7113 1.63638 11.7113 1.72175C11.7113 1.80712 11.6809 1.88899 11.627 1.94936C11.573 2.00972 11.4998 2.04363 11.4234 2.04363H1.63695C1.59915 2.04363 1.56172 2.03531 1.5268 2.01913C1.49188 2.00296 1.46015 1.97925 1.43342 1.94936C1.40669 1.91947 1.38549 1.88398 1.37102 1.84493C1.35656 1.80587 1.34911 1.76402 1.34911 1.72175ZM1.92479 0.434193C1.92479 0.391922 1.93223 0.350065 1.9467 0.311012C1.96116 0.271958 1.98237 0.236474 2.00909 0.206584C2.03582 0.176693 2.06755 0.152983 2.10248 0.136807C2.1374 0.120631 2.17483 0.112305 2.21263 0.112305H10.8478C10.9241 0.112305 10.9973 0.146218 11.0513 0.206584C11.1053 0.266949 11.1356 0.348823 11.1356 0.434193C11.1356 0.519563 11.1053 0.601437 11.0513 0.661802C10.9973 0.722168 10.9241 0.756081 10.8478 0.756081H2.21263C2.13629 0.756081 2.06307 0.722168 2.00909 0.661802C1.95511 0.601437 1.92479 0.519563 1.92479 0.434193ZM3.93965 7.83763C4.73319 7.83763 5.37884 7.11559 5.37884 6.22818C5.37884 5.34078 4.73319 4.61874 3.93965 4.61874C3.14612 4.61874 2.50046 5.34078 2.50046 6.22818C2.50046 7.11559 3.14612 7.83763 3.93965 7.83763ZM3.93965 5.26252C4.11044 5.26252 4.27739 5.31915 4.4194 5.42526C4.5614 5.53137 4.67208 5.68219 4.73744 5.85864C4.80279 6.03509 4.81989 6.22925 4.78657 6.41658C4.75326 6.6039 4.67101 6.77596 4.55025 6.91101C4.42948 7.04606 4.27562 7.13803 4.10812 7.17529C3.94061 7.21255 3.76699 7.19343 3.6092 7.12034C3.45141 7.04725 3.31655 6.92348 3.22167 6.76468C3.12678 6.60588 3.07614 6.41917 3.07614 6.22818C3.0764 5.97216 3.16746 5.72671 3.32935 5.54568C3.49123 5.36465 3.71072 5.26281 3.93965 5.26252Z" fill="#1D1D1D"/>
</svg>
