<svg width="238" height="285" viewBox="0 0 238 285" fill="none" xmlns="http://www.w3.org/2000/svg">
<g clip-path="url(#clip0_564_95380)">
<path d="M190.482 98.2764H167.054V90.5636C167.054 77.6357 177.552 67.1398 190.482 67.1398H190.482V98.2764V98.2764Z" fill="#2F2E41"/>
<path d="M185.29 83.8785V93.8838L189.318 101.993L165.713 98.0744L175.332 80.9424L185.29 83.8785Z" fill="#A0616A"/>
<path opacity="0.1" d="M185.29 83.8785V93.1417L189.318 101.993L165.713 98.0744L175.332 80.9424L185.29 83.8785Z" fill="#FFB6B6"/>
<path d="M162.658 156.062H185.289V122.575H162.658V156.062Z" fill="#FFB6B6"/>
<path d="M199.999 183.44L195.02 210.14C195.02 210.14 198.189 228.693 188.684 247.7L182.347 267.158L172.842 265.801C172.842 265.801 178.726 251.32 178.726 244.984C178.726 238.649 180.084 214.212 180.084 214.212L179.405 186.328L199.999 183.44Z" fill="#2F2E41"/>
<path d="M171.484 265.348C171.484 265.348 182.347 261.275 183.252 267.158L182.8 269.873C182.8 269.873 186.873 282.091 180.989 282.996C175.105 283.901 169.674 285.259 169.221 282.544C168.768 279.829 168.776 276.439 169.904 274.061C171.032 271.683 171.484 265.348 171.484 265.348Z" fill="#2F2E41"/>
<path d="M165.735 179.299L163.091 206.329C163.091 206.329 154.887 223.27 158.73 244.169L159.404 264.622L168.911 265.961C168.911 265.961 167.288 250.415 169.05 244.33C170.812 238.245 176.305 214.394 176.305 214.394L184.714 187.799L165.735 179.299Z" fill="#2F2E41"/>
<path d="M170.342 265.904C170.342 265.904 161.041 258.971 158.535 264.37L158.214 267.104C158.214 267.104 150.902 277.708 156.303 280.213C161.703 282.719 166.542 285.533 167.732 283.051C168.922 280.568 169.858 277.311 169.436 274.713C169.014 272.115 170.342 265.904 170.342 265.904Z" fill="#2F2E41"/>
<path d="M194.568 140.677C205.213 150.609 206.003 166.323 199.773 185.025C199.773 185.025 179.858 198.601 165.374 181.404L158.132 146.56L194.568 140.677Z" fill="#2F2E41"/>
<path d="M176.69 92.2556L188.005 94.0658L187.1 122.575L199.773 147.917L183.479 156.062C183.479 156.062 170.806 132.078 168.543 117.145C166.28 102.211 167.637 91.3506 167.637 91.3506L176.69 92.2556Z" fill="#3693D1"/>
<path d="M168.09 93.1609L156.774 94.971L157.68 123.48L154.964 149.727L161.301 156.968C161.301 156.968 173.974 132.984 176.237 118.05C178.5 103.117 177.142 92.2559 177.142 92.2559L168.09 93.1609Z" fill="#3693D1"/>
<path d="M181.668 93.8393L184.157 93.1605C184.157 93.1605 192.983 92.0292 194.341 95.6494C195.699 99.2697 195.247 120.539 195.247 120.539C195.247 120.539 197.582 146.643 188.493 146.94C179.405 147.238 181.215 125.516 181.215 125.516L181.668 93.8393Z" fill="#3693D1"/>
<path d="M181.339 88.8496C187.809 88.8496 193.054 83.606 193.054 77.1377C193.054 70.6694 187.809 65.4258 181.339 65.4258C174.87 65.4258 169.625 70.6694 169.625 77.1377C169.625 83.606 174.87 88.8496 181.339 88.8496Z" fill="#FFB6B6"/>
<path d="M166.732 94.7446L164.242 94.0658C164.242 94.0658 155.416 92.9345 154.058 96.5547C152.7 100.175 153.153 121.444 153.153 121.444C153.153 121.444 150.817 147.548 159.906 147.846C168.995 148.143 167.184 126.422 167.184 126.422L166.732 94.7446Z" fill="#3693D1"/>
<path d="M174.573 93.2568C172.06 92.6193 169.211 95.3028 168.208 99.2521C167.786 100.824 167.747 102.475 168.094 104.065L167.014 108.554L166.934 108.55L158.417 128.619C156.436 133.286 156.646 138.643 159.172 143.038C160.674 145.652 162.647 147.41 164.963 145.616C168.806 142.638 171.316 125.592 172.462 115.799L175.112 105.846C176.176 104.613 176.929 103.143 177.308 101.559C178.311 97.6114 177.086 93.8942 174.573 93.2567V93.2568Z" fill="#A0616A"/>
<path d="M158.913 86.6126C159.509 84.8012 160.685 83.2154 161.211 81.3825C161.91 78.949 163.398 84.3477 163.543 81.82C163.819 77.0157 171.153 64.6573 175.34 62.2834C179.526 59.9095 181.931 60.6252 186.197 62.8547C186.197 62.8547 188.267 62.9864 190.845 64.2588C193.423 65.5311 195.743 67.5689 196.746 70.2627C197.54 72.3979 197.453 74.7427 197.718 77.0053C198.458 83.3091 201.992 89.3042 201.234 95.6057C200.997 97.5717 200.249 99.6047 198.642 100.761C197.034 101.917 194.436 101.792 193.378 100.118C193.017 99.5467 192.864 98.869 192.555 98.2683C192.245 97.6676 191.686 97.1075 191.01 97.1262C189.995 97.1544 189.478 98.5167 189.878 99.4502C190.279 100.384 191.22 100.947 192.103 101.449C189.999 102.395 187.389 102.1 185.549 100.708C183.708 99.3166 182.715 96.8853 183.053 94.6033C183.531 91.3876 188.216 92.0532 188.768 88.8495C189.17 86.5173 190.581 82.6149 190.197 80.2798C189.812 77.9446 187.966 80.772 189.911 79.4228C187.772 80.454 183.195 73.3997 180.956 72.6096C178.716 71.8194 176.817 70.1086 175.798 67.9634C173.423 71.4063 171.333 70.4713 170.482 74.5666C169.632 78.6619 170.418 87.9659 173.921 90.2523C172.519 91.2087 171.402 92.5763 170.744 94.1405C170.371 95.0267 170.13 95.9963 169.511 96.7322C168.33 98.1379 166.149 98.2234 164.41 97.6324C162.254 96.8995 160.411 95.29 159.395 93.2527C158.379 91.2155 158.201 88.7752 158.913 86.6126L158.913 86.6126Z" fill="#2F2E41"/>
<path d="M0.015625 283.494C0.015625 283.792 0.255528 284.032 0.554271 284.032H236.954C237.253 284.032 237.492 283.792 237.492 283.494C237.492 283.195 237.253 282.955 236.954 282.955H0.554271C0.255528 282.955 0.015625 283.195 0.015625 283.494Z" fill="#3F3D56"/>
<path d="M153.923 0.600586H60.8329C50.2765 0.600586 41.7188 9.15656 41.7188 19.7109V264.273C41.7188 274.827 50.2764 283.383 60.8329 283.383H153.923C164.479 283.383 173.037 274.827 173.037 264.273V19.7109C173.037 9.15656 164.479 0.600586 153.923 0.600586H153.923Z" fill="white"/>
<path d="M86.8505 47.9538C84.3065 47.9538 82.2905 48.8178 80.8025 50.5938C79.3865 52.2498 78.6905 54.3618 78.6905 56.9298C78.6905 59.4738 79.3865 61.5618 80.8025 63.1698C82.3145 64.8978 84.4265 65.7618 87.1625 65.7618C88.6985 65.7618 90.0665 65.5698 91.3145 65.1858C92.4905 64.8018 93.5225 64.2738 94.4345 63.5538V56.3058H87.0905V58.7058H91.6265V62.2338C91.0505 62.5698 90.4505 62.8338 89.7785 63.0258C89.0585 63.2178 88.2905 63.3138 87.4745 63.3138C85.3865 63.3138 83.8505 62.7378 82.8665 61.5858C81.9545 60.5058 81.4985 58.9458 81.4985 56.9298C81.4985 54.8178 82.0025 53.2098 83.0345 52.0578C83.9705 50.9538 85.2425 50.4258 86.8505 50.4258C88.1465 50.4258 89.2025 50.6898 89.9945 51.2418C90.7625 51.7938 91.2905 52.6098 91.5305 53.7138H94.3625C94.0505 51.7938 93.2825 50.3778 92.0585 49.4178C90.7865 48.4338 89.0585 47.9538 86.8505 47.9538ZM97.5511 48.2898V65.4258H103.815C106.599 65.4258 108.687 64.6578 110.127 63.1218C111.495 61.6578 112.191 59.5698 112.191 56.8578C112.191 54.1218 111.495 52.0338 110.127 50.5938C108.687 49.0578 106.599 48.2898 103.815 48.2898H97.5511ZM100.359 50.6898H103.287C105.423 50.6898 106.983 51.1698 107.967 52.1538C108.927 53.1138 109.407 54.6978 109.407 56.8578C109.407 58.9698 108.927 60.5298 107.967 61.5378C106.983 62.5218 105.423 63.0258 103.287 63.0258H100.359V50.6898ZM114.825 48.2898V65.4258H121.089C123.873 65.4258 125.961 64.6578 127.401 63.1218C128.769 61.6578 129.465 59.5698 129.465 56.8578C129.465 54.1218 128.769 52.0338 127.401 50.5938C125.961 49.0578 123.873 48.2898 121.089 48.2898H114.825ZM117.633 50.6898H120.561C122.697 50.6898 124.257 51.1698 125.241 52.1538C126.201 53.1138 126.681 54.6978 126.681 56.8578C126.681 58.9698 126.201 60.5298 125.241 61.5378C124.257 62.5218 122.697 63.0258 120.561 63.0258H117.633V50.6898ZM133.706 47.9538C133.178 47.9538 132.746 48.1218 132.386 48.4578C132.026 48.7938 131.858 49.2258 131.858 49.7538C131.858 50.2818 132.026 50.7138 132.386 51.0738C132.746 51.4098 133.178 51.5778 133.706 51.5778C134.234 51.5778 134.666 51.4098 135.026 51.0738C135.386 50.7378 135.578 50.2818 135.578 49.7538C135.578 49.2258 135.386 48.7938 135.05 48.4578C134.69 48.1218 134.234 47.9538 133.706 47.9538ZM132.338 53.0178V65.4258H135.074V53.0178H132.338Z" fill="#3693D1"/>
<path d="M153.924 283.836H60.8334C50.0443 283.836 41.2666 275.06 41.2666 264.273V19.7113C41.2666 8.92438 50.0443 0.148438 60.8334 0.148438H153.924C164.713 0.148438 173.49 8.92438 173.49 19.7113V264.273C173.49 275.06 164.713 283.836 153.924 283.836H153.924ZM60.8334 1.0535C50.5433 1.0535 42.1718 9.42331 42.1718 19.7113V264.273C42.1718 274.561 50.5433 282.931 60.8334 282.931H153.924C164.214 282.931 172.585 274.561 172.585 264.273V19.7113C172.585 9.42331 164.214 1.0535 153.924 1.0535H60.8334Z" fill="#3F3D56"/>
<path d="M160.667 39.727H123.249C121.662 39.727 120.371 38.4361 120.371 36.8493C120.371 35.2626 121.662 33.9717 123.249 33.9717H160.667C162.254 33.9717 163.545 35.2626 163.545 36.8493C163.545 38.4361 162.254 39.727 160.667 39.727Z" fill="#E6E6E6"/>
<path d="M74.1566 6.78125H53.3914C53.3138 6.78125 53.251 6.8441 53.251 6.92163V9.33853C53.251 9.41606 53.3138 9.47891 53.3914 9.47891H74.1566C74.2341 9.47891 74.297 9.41606 74.297 9.33853V6.92163C74.297 6.8441 74.2341 6.78125 74.1566 6.78125Z" fill="#E6E6E6"/>
<path d="M144.101 9.47934C145.293 9.47934 146.26 8.51311 146.26 7.32121C146.26 6.12931 145.293 5.16309 144.101 5.16309C142.909 5.16309 141.942 6.12931 141.942 7.32121C141.942 8.51311 142.909 9.47934 144.101 9.47934Z" fill="#E6E6E6"/>
<path d="M150.037 9.47934C151.23 9.47934 152.196 8.51311 152.196 7.32121C152.196 6.12931 151.23 5.16309 150.037 5.16309C148.845 5.16309 147.879 6.12931 147.879 7.32121C147.879 8.51311 148.845 9.47934 150.037 9.47934Z" fill="#E6E6E6"/>
<path d="M155.973 9.47934C157.165 9.47934 158.132 8.51311 158.132 7.32121C158.132 6.12931 157.165 5.16309 155.973 5.16309C154.781 5.16309 153.814 6.12931 153.814 7.32121C153.814 8.51311 154.781 9.47934 155.973 9.47934Z" fill="#E6E6E6"/>
<path d="M60.6064 71.2573C60.6064 71.5559 60.8463 71.7958 61.1451 71.7958H153.611C153.91 71.7958 154.15 71.5559 154.15 71.2573C154.15 70.9586 153.91 70.7188 153.611 70.7188H61.1451C60.8463 70.7188 60.6064 70.9586 60.6064 71.2573Z" fill="#3F3D56"/>
<path d="M144.744 113.582H89.2539C88.3369 113.582 87.5908 112.836 87.5908 111.919C87.5908 111.002 88.3369 110.257 89.2539 110.257H144.744C145.661 110.257 146.407 111.002 146.407 111.919C146.407 112.836 145.661 113.582 144.744 113.582Z" fill="#3693D1"/>
<path d="M144.744 137.566H89.2539C88.3369 137.566 87.5908 136.82 87.5908 135.904C87.5908 134.987 88.3369 134.241 89.2539 134.241H144.744C145.661 134.241 146.407 134.987 146.407 135.904C146.407 136.82 145.661 137.566 144.744 137.566Z" fill="#3693D1"/>
<path d="M144.744 161.551H89.2539C88.3369 161.551 87.5908 160.805 87.5908 159.888C87.5908 158.971 88.3369 158.226 89.2539 158.226H144.744C145.661 158.226 146.407 158.971 146.407 159.888C146.407 160.805 145.661 161.551 144.744 161.551Z" fill="#3693D1"/>
<path d="M72.4232 115.787C74.673 115.787 76.4968 113.964 76.4968 111.714C76.4968 109.465 74.673 107.642 72.4232 107.642C70.1734 107.642 68.3496 109.465 68.3496 111.714C68.3496 113.964 70.1734 115.787 72.4232 115.787Z" fill="#3693D1"/>
<path d="M71.9707 118.502V117.597C75.3399 117.597 78.0811 114.856 78.0811 111.488C78.0811 108.119 75.3399 105.379 71.9707 105.379V104.474C75.8392 104.474 78.9863 107.62 78.9863 111.488C78.9863 115.356 75.8392 118.502 71.9707 118.502Z" fill="#3F3D56"/>
<path d="M72.4232 139.771C74.673 139.771 76.4968 137.947 76.4968 135.698C76.4968 133.448 74.673 131.625 72.4232 131.625C70.1734 131.625 68.3496 133.448 68.3496 135.698C68.3496 137.947 70.1734 139.771 72.4232 139.771Z" fill="#3693D1"/>
<path d="M71.9707 142.486V141.581C75.3399 141.581 78.0811 138.841 78.0811 135.472C78.0811 132.104 75.3399 129.363 71.9707 129.363V128.458C75.8392 128.458 78.9863 131.605 78.9863 135.472C78.9863 139.34 75.8392 142.486 71.9707 142.486Z" fill="#3F3D56"/>
<path d="M72.4232 163.755C74.673 163.755 76.4968 161.931 76.4968 159.682C76.4968 157.433 74.673 155.609 72.4232 155.609C70.1734 155.609 68.3496 157.433 68.3496 159.682C68.3496 161.931 70.1734 163.755 72.4232 163.755Z" fill="#3693D1"/>
<path d="M71.9707 166.47V165.565C75.3399 165.565 78.0811 162.824 78.0811 159.456C78.0811 156.087 75.3399 153.346 71.9707 153.346V152.441C75.8392 152.441 78.9863 155.588 78.9863 159.456C78.9863 163.323 75.8392 166.47 71.9707 166.47Z" fill="#3F3D56"/>
<path d="M173.827 92.3515C176.34 91.714 179.19 94.3975 180.192 98.3468C180.614 99.919 180.653 101.569 180.307 103.16L181.386 107.649L181.466 107.645L189.983 127.714C191.964 132.38 191.755 137.737 189.229 142.132C187.726 144.747 185.753 146.505 183.437 144.71C179.594 141.733 177.084 124.686 175.938 114.894L173.288 104.94C172.224 103.707 171.471 102.237 171.092 100.654C170.09 96.7061 171.314 92.989 173.827 92.3515V92.3515Z" fill="#FFB6B6"/>
<path d="M183.503 103.349L173.974 110.121L178.738 140.121L184.714 147.848L191.675 145.441L193.71 131.259L191.315 117.545L183.503 103.349Z" fill="#3693D1"/>
</g>
<defs>
<clipPath id="clip0_564_95380">
<rect width="237.477" height="284" fill="white" transform="translate(0.015625 0.148438)"/>
</clipPath>
</defs>
</svg>
