<svg width="393" height="249" viewBox="0 0 393 249" fill="none" xmlns="http://www.w3.org/2000/svg">
<g clip-path="url(#clip0_564_95421)">
<path d="M329.058 19.5739H0.366211C0.830461 16.9488 1.73712 14.4653 3.00429 12.2161C7.05157 5.02709 14.7692 0.158203 23.6121 0.158203H305.812C314.649 0.158203 322.372 5.02709 326.414 12.2161C327.681 14.4653 328.594 16.9488 329.058 19.5739Z" fill="#F2F2F2"/>
<path d="M366.776 247.252C366.776 247.611 366.543 247.9 366.251 247.9H257.158C256.867 247.9 256.633 247.611 256.633 247.252C256.633 247.077 256.686 246.925 256.774 246.81H296.355C297.197 246.81 298.022 246.74 298.834 246.604H366.251C366.543 246.604 366.776 246.892 366.776 247.252Z" fill="#3F3D56"/>
<path d="M329.057 19.5739C328.593 16.9488 327.681 14.4653 326.414 12.2161C322.372 5.02709 314.649 0.158203 305.812 0.158203H23.6118C14.769 0.158203 7.05133 5.02709 3.00404 12.2161C1.73688 14.4653 0.830219 16.9488 0.365969 19.5739C0.125646 20.9136 0 22.2915 0 23.702V224.356C0 237.339 10.5906 247.9 23.6118 247.9H305.812C308.51 247.9 311.11 247.442 313.529 246.603C322.771 243.412 329.423 234.644 329.423 224.356V23.702C329.423 22.2969 329.298 20.9136 329.057 19.5739ZM328.331 224.356C328.331 235.717 319.865 245.111 308.881 246.603C307.876 246.74 306.855 246.81 305.812 246.81H57.1533C26.1898 246.81 1.09238 221.78 1.09238 190.905V23.702C1.09238 22.2915 1.22346 20.9136 1.47472 19.5739C1.9663 16.927 2.92213 14.449 4.26027 12.2161C8.18738 5.64797 15.3862 1.24744 23.6118 1.24744H305.812C314.037 1.24744 321.236 5.64797 325.163 12.2161C326.501 14.449 327.457 16.927 327.949 19.5739C328.2 20.9136 328.331 22.2915 328.331 23.702V224.356Z" fill="#3F3D56"/>
<path d="M314.565 117.839L312.717 111.081L321.034 108.01L321.958 114.153L314.565 117.839Z" fill="#FFB6B6"/>
<path opacity="0.1" d="M314.565 117.839L312.717 111.082L317.615 109.021L316.093 116.988L314.565 117.839Z" fill="black"/>
<path d="M290.218 175.752C288.63 174.81 288.546 172.028 290.031 169.539C290.681 168.449 291.524 167.596 292.4 167.061L293.272 165.64L304.306 145.916C304.306 145.916 309.136 127.314 311.103 125.065C313.069 122.815 315.912 123.345 315.912 123.345L318.434 125.579L309.434 151.926L298.326 167.523L296.838 169.694C296.784 170.717 296.434 171.862 295.784 172.952C294.299 175.441 291.807 176.695 290.218 175.752Z" fill="#FFB6B6"/>
<path d="M314.111 115.908C314.111 115.908 317.621 115.773 319.835 118.491C322.049 121.21 310.449 151.849 310.449 151.849L301 151.515L314.111 115.908Z" fill="#62B0E5"/>
<path d="M315.028 112.157C319.791 112.157 323.653 108.306 323.653 103.556C323.653 98.8066 319.791 94.9561 315.028 94.9561C310.264 94.9561 306.402 98.8066 306.402 103.556C306.402 108.306 310.264 112.157 315.028 112.157Z" fill="#FFB6B6"/>
<path d="M294.85 228.415L288.998 242.851L285.609 239.472L284.377 233.022L289.306 226.879L294.85 228.415Z" fill="#FFB6B6"/>
<path d="M349.682 223.193L355.535 229.951L352.763 235.48L346.602 234.558L343.521 225.958L349.682 223.193Z" fill="#FFB6B6"/>
<path d="M310.714 142.565L309.944 155.005L329.043 151.627L327.811 143.948L310.714 142.565Z" fill="#FFB6B6"/>
<path d="M309.79 155.158L329.043 148.861C329.043 148.861 336.128 162.991 328.427 171.898C320.726 180.806 295.158 231.486 295.158 231.486L287.457 227.8L298.547 195.549L310.868 165.755L309.79 155.158Z" fill="#2F2E41"/>
<path d="M328.427 166.677L335.82 198.928L351.222 223.808L343.213 228.415L321.65 198.928L314.565 176.199L328.427 166.677Z" fill="#2F2E41"/>
<path d="M281.605 231.793H276.27C276.27 231.793 270.045 229.336 268.586 231.793C267.127 234.251 275.095 241.22 275.095 241.22C275.095 241.22 286.225 247.458 287.766 247.151C289.306 246.844 289.922 243.158 289.922 243.158L291.77 238.858L288.998 239.779C288.998 239.779 285.301 237.629 286.225 233.943L281.605 231.793Z" fill="#2F2E41"/>
<path d="M354.303 230.872V227.801L357.884 230.872C357.884 230.872 363.852 233.022 359.232 237.63C354.611 242.237 348.758 247.152 348.758 247.152C348.758 247.152 339.517 249.609 338.901 246.844C338.285 244.08 338.901 242.961 338.901 242.961L342.289 241.316L345.37 233.33L350.298 233.944L354.303 230.872Z" fill="#2F2E41"/>
<path d="M317.646 105.246L314.873 104.938L309.791 99.8703C309.791 99.8703 305.17 102.328 305.17 100.485C305.17 91.8842 310.407 92.1914 314.719 91.5771C319.032 90.9628 318.57 90.8092 319.956 93.1129C320.59 94.1664 322.882 94.8022 322.882 94.8022C322.882 94.8022 327.195 88.9663 329.351 96.0308C331.508 103.095 328.735 124.904 330.891 126.746C333.048 128.589 322.038 130.43 323.23 123.213C324.423 115.996 326.579 104.938 325.347 102.481C324.115 100.024 323.806 100.638 323.806 100.638C325.333 100.017 326.331 110.967 320.574 111.503L320.418 106.167C320.418 106.167 319.494 103.403 317.646 105.246V105.246Z" fill="#2F2E41"/>
<path d="M313.795 115.842L323.036 112.156L335.358 149.015L310.006 148.094L307.723 137.093C307.723 137.093 305.494 131.367 307.343 127.989C309.191 124.61 313.795 115.842 313.795 115.842Z" fill="#62B0E5"/>
<path d="M337.842 177.585C336.001 177.743 334.306 175.532 334.058 172.646C333.949 171.383 334.135 170.2 334.533 169.255L334.411 167.594L331.845 145.154C331.845 145.154 327.066 126.799 327.349 123.828C327.632 120.858 328.078 120.069 328.078 120.069L331.433 120.418L339.524 147.057L339.619 166.186L339.678 168.815C340.232 169.677 340.618 170.811 340.727 172.075C340.976 174.96 339.684 177.428 337.842 177.585H337.842Z" fill="#FFB6B6"/>
<path d="M322.267 115.074C322.267 115.074 325.039 112.924 328.427 113.846C331.816 114.767 340.304 146.404 340.304 146.404L332.432 151.626L322.267 115.074Z" fill="#62B0E5"/>
<path d="M161.784 168.249H124.831C122.576 168.249 120.741 166.42 120.741 164.171V160.486C120.741 158.237 122.576 156.408 124.831 156.408H161.784C164.039 156.408 165.874 158.237 165.874 160.486V164.171C165.874 166.42 164.039 168.249 161.784 168.249Z" fill="#3F3D56"/>
<path d="M303.794 47.8187H266.841C264.586 47.8187 262.751 45.9891 262.751 43.7405V40.0553C262.751 37.8066 264.586 35.9775 266.841 35.9775H303.794C306.049 35.9775 307.884 37.8066 307.884 40.0553V43.7405C307.884 45.9892 306.049 47.8187 303.794 47.8187Z" fill="#3F3D56"/>
<path d="M216.604 168.522H179.651C177.245 168.522 175.288 166.57 175.288 164.171V160.486C175.288 158.087 177.245 156.136 179.651 156.136H216.604C219.01 156.136 220.967 158.087 220.967 160.486V164.171C220.967 166.57 219.01 168.522 216.604 168.522ZM179.651 157.225C177.848 157.225 176.38 158.688 176.38 160.486V164.171C176.38 165.969 177.848 167.432 179.651 167.432H216.604C218.407 167.432 219.875 165.969 219.875 164.171V160.486C219.875 158.688 218.407 157.225 216.604 157.225H179.651Z" fill="#3F3D56"/>
<path d="M55.1047 45.1653H30.5262C28.719 45.1653 27.249 43.6995 27.249 41.8976C27.249 40.0957 28.719 38.6299 30.5262 38.6299H55.1047C56.9118 38.6299 58.3818 40.0957 58.3818 41.8976C58.3818 43.6995 56.9118 45.1653 55.1047 45.1653Z" fill="#E6E6E6"/>
<path d="M202.03 45.1653H177.452C175.645 45.1653 174.175 43.6995 174.175 41.8976C174.175 40.0957 175.645 38.6299 177.452 38.6299H202.03C203.838 38.6299 205.308 40.0957 205.308 41.8976C205.308 43.6995 203.838 45.1653 202.03 45.1653Z" fill="#E6E6E6"/>
<path d="M248.456 45.1653H223.878C222.071 45.1653 220.601 43.6995 220.601 41.8976C220.601 40.0957 222.071 38.6299 223.878 38.6299H248.456C250.263 38.6299 251.733 40.0957 251.733 41.8976C251.733 43.6995 250.263 45.1653 248.456 45.1653Z" fill="#E6E6E6"/>
<path d="M223.497 203.516H105.927C104.834 203.516 103.945 202.63 103.945 201.54C103.945 200.451 104.834 199.564 105.927 199.564H223.497C224.59 199.564 225.479 200.451 225.479 201.54C225.479 202.63 224.59 203.516 223.497 203.516Z" fill="#E6E6E6"/>
<path d="M197.407 213.724H132.017C130.924 213.724 130.035 212.838 130.035 211.748C130.035 210.659 130.924 209.772 132.017 209.772H197.407C198.5 209.772 199.389 210.659 199.389 211.748C199.389 212.838 198.5 213.724 197.407 213.724Z" fill="#E6E6E6"/>
<path d="M224.589 11.811H107.019C105.926 11.811 105.037 10.9247 105.037 9.8352C105.037 8.74566 105.926 7.85938 107.019 7.85938H224.589C225.682 7.85938 226.571 8.74566 226.571 9.8352C226.571 10.9247 225.682 11.811 224.589 11.811Z" fill="white"/>
<path d="M240.407 5.58399L239.662 6.38177L243.019 9.49315H232.825C232.524 9.49315 232.279 9.737 232.279 10.0378C232.279 10.3385 232.524 10.5824 232.825 10.5824H243.021L239.662 13.6948L240.407 14.4925L245.212 10.0388L240.407 5.58398V5.58399Z" fill="#3693D1"/>
<path d="M121.812 84.2047C115.931 89.8471 115.746 99.1799 121.399 105.05C124.922 108.709 129.882 110.159 134.543 109.366L127.448 118.777L130.688 121.21L149.315 96.5023C149.667 99.6063 151.006 102.624 153.342 105.05C158.995 110.92 168.345 111.105 174.226 105.463C174.503 105.197 174.768 104.923 175.02 104.641L175.023 104.643L175.053 104.604C175.529 104.068 175.96 103.505 176.345 102.92L181.31 96.4494C181.652 99.5721 182.993 102.61 185.343 105.05C190.996 110.92 200.346 111.105 206.227 105.463C206.643 105.063 207.031 104.645 207.391 104.21L207.397 104.215L207.577 103.981C207.678 103.853 207.777 103.724 207.874 103.594L221.051 86.4327L217.833 83.9708L210.68 93.286C210.35 90.1395 209.007 87.0749 206.64 84.6172C200.987 78.747 191.637 78.5623 185.756 84.2047C184.916 85.0111 184.191 85.8929 183.584 86.8292L178.674 93.2286C178.333 90.1021 176.992 87.0599 174.64 84.6172C168.987 78.747 159.637 78.5623 153.756 84.2047C152.999 84.9308 152.336 85.7181 151.768 86.5513L151.752 86.5391L146.728 93.204C146.382 90.0862 145.042 87.0535 142.696 84.6172C137.043 78.747 127.693 78.5623 121.812 84.2047Z" fill="#62B0E5"/>
</g>
<defs>
<clipPath id="clip0_564_95421">
<rect width="393" height="248" fill="white" transform="translate(0 0.158203)"/>
</clipPath>
</defs>
</svg>
