<svg width="411" height="253" viewBox="0 0 411 253" fill="none" xmlns="http://www.w3.org/2000/svg">
<g clip-path="url(#clip0_564_95456)">
<path d="M343.965 207.524H67.0359C61.1134 207.524 56.2949 202.711 56.2949 196.795V163.503H354.706V196.795C354.706 202.711 349.888 207.524 343.965 207.524Z" fill="#E6E6E6"/>
<path d="M241.341 201.955H170.721V252.341H241.341V201.955Z" fill="#E6E6E6"/>
<path d="M245.589 245.976H166.473V252.34H245.589V245.976Z" fill="#E6E6E6"/>
<path d="M354.441 177.558H56.2949V8.30592C56.2949 4.24628 59.6016 0.943359 63.6659 0.943359H347.07C351.134 0.943359 354.441 4.24628 354.441 8.30592V177.558Z" fill="#3F3D56"/>
<path d="M206.031 7.04279C207.204 7.04279 208.155 6.09297 208.155 4.9213C208.155 3.74963 207.204 2.7998 206.031 2.7998C204.858 2.7998 203.907 3.74963 203.907 4.9213C203.907 6.09297 204.858 7.04279 206.031 7.04279Z" fill="white"/>
<path d="M347.272 8.63379H63.1973V168.276H347.272V8.63379Z" fill="white"/>
<path d="M314.025 129.246C327.401 129.246 338.245 118.415 338.245 105.054C338.245 91.6927 327.401 80.8613 314.025 80.8613C300.648 80.8613 289.805 91.6927 289.805 105.054C289.805 118.415 300.648 129.246 314.025 129.246Z" fill="#3693D1"/>
<path d="M359.285 252.498C359.285 252.744 359.134 252.944 358.948 252.944H49.8039C49.5579 252.944 49.3584 252.744 49.3584 252.498C49.3584 252.252 49.5579 252.053 49.8039 252.053H358.948C359.134 252.053 359.285 252.252 359.285 252.498Z" fill="#E6E6E6"/>
<path d="M69.534 101.535L66.4736 112.234L78.715 112.998L77.95 100.389L69.534 101.535Z" fill="#FFB6B6"/>
<path d="M120.389 145.21C123.294 146.201 126.161 145.507 126.792 143.66C127.422 141.813 125.579 139.514 122.673 138.523C121.517 138.112 120.28 137.982 119.064 138.146L106.703 134.104L104.928 139.939L117.302 143.304C118.164 144.177 119.223 144.83 120.389 145.21Z" fill="#FFB6B6"/>
<path d="M79.3707 109.861C79.3707 109.861 71.7081 119.069 76.141 122.879C80.574 126.689 100.37 140.792 100.37 140.792L108.088 141.993L110.062 134.541L92.6352 121.643L79.3707 109.861H79.3707Z" fill="#3693D1"/>
<path d="M99.6738 207.884L103.932 223.648L110.696 222.397L109.193 206.133L99.6738 207.884Z" fill="#FFB6B6"/>
<path d="M104.935 222.647L102.43 223.148L100.426 229.904C100.426 229.904 103.682 231.155 103.682 233.657C103.682 236.159 104.935 237.91 109.945 237.66C114.955 237.41 115.456 237.66 115.456 235.658C115.456 233.657 111.698 223.148 111.698 223.148C111.698 223.148 111.949 218.894 108.943 219.144C105.937 219.395 104.935 222.647 104.935 222.647H104.935Z" fill="#2F2E41"/>
<path d="M76.7744 207.639L77.065 223.963L83.93 224.394L86.434 208.253L76.7744 207.639Z" fill="#FFB6B6"/>
<path d="M78.2807 223.237L75.7291 223.113L72.1396 229.179C72.1396 229.179 74.9935 231.184 74.384 233.611C73.7745 236.038 74.5627 238.041 79.483 239.016C84.4034 239.991 84.8284 240.355 85.316 238.414C85.8036 236.472 84.719 225.366 84.719 225.366C84.719 225.366 85.9981 221.301 83.0216 220.813C80.045 220.325 78.2807 223.237 78.2807 223.237Z" fill="#2F2E41"/>
<path d="M79.6342 110.051L66.1073 109.05L63.1013 112.803C63.1013 112.803 61.5983 138.074 62.6003 140.577C63.6023 143.079 62.8508 157.341 62.8508 157.341L96.9512 154.964L89.4037 136.823L89.6542 126.314L82.8907 113.554L79.6342 110.051L79.6342 110.051Z" fill="#3693D1"/>
<path d="M64.3539 152.087C64.3539 152.087 58.843 160.094 60.8469 164.347C62.8509 168.601 76.4442 193.299 76.4442 193.299L74.6907 216.319L86.7147 215.318L88.7187 190.547L80.3859 170.352L81.8889 168.101L94.4138 183.364L98.9228 209.886L110.947 208.385L104.434 169.602L96.8221 154.654L64.3539 152.087H64.3539Z" fill="#2F2E41"/>
<path d="M63.1764 94.7279C65.7413 94.7279 67.8205 92.651 67.8205 90.089C67.8205 87.5271 65.7413 85.4502 63.1764 85.4502C60.6115 85.4502 58.5322 87.5271 58.5322 90.089C58.5322 92.651 60.6115 94.7279 63.1764 94.7279Z" fill="#2F2E41"/>
<path d="M73.901 107.287C79.4867 107.287 84.0148 102.764 84.0148 97.1843C84.0148 91.605 79.4867 87.082 73.901 87.082C68.3152 87.082 63.7871 91.605 63.7871 97.1843C63.7871 102.764 68.3152 107.287 73.901 107.287Z" fill="#FFB6B6"/>
<path d="M70.6947 108.26C69.6198 108.828 66.5951 106.74 65.5129 103.942C64.8167 102.142 63.124 102.442 62.0439 100.197C61.4146 98.8887 63.2939 97.6091 62.984 96.4782C62.4223 94.429 63.1265 92.5956 63.2162 92.371C63.9906 90.4322 65.1322 90.4773 66.0527 88.2206C66.607 86.8619 66.2514 86.7028 66.7173 86.0077C68.0618 84.0018 71.9627 83.9255 74.714 84.8741C75.6661 85.2024 77.9595 83.4434 79.8211 84.7177C82.0144 86.219 83.4736 90.5465 83.1379 91.3395C82.9339 91.8213 81.7984 91.3305 79.4367 91.7013C77.2502 92.0445 80.136 93.6763 77.6753 94.2325C74.7655 94.8903 73.889 94.29 73.0826 95.2095C72.2302 96.1815 72.0725 98.1489 72.8504 99.3167C73.2363 99.8962 73.734 100.101 73.6717 100.504C73.5579 101.24 72.9031 100.84 72.6883 101.621C72.4386 102.53 74.5112 103.721 74.331 103.996C74.2947 104.051 74.1395 104.111 72.1157 103.332C71.3075 103.021 70.996 102.752 70.9053 102.852C70.7586 103.013 70.0319 104.626 70.8576 105.312C72.1424 106.38 71.2519 106.804 71.8376 107.64C72.4419 108.503 71.3779 107.898 70.6947 108.26V108.26Z" fill="#2F2E41"/>
<path d="M73.0626 166.629C74.6767 169.237 77.3322 170.519 78.9936 169.492C80.6551 168.466 80.6931 165.521 79.0781 162.912C78.4472 161.861 77.5736 160.976 76.5303 160.332L69.5517 149.368L64.4707 152.749L71.8899 163.198C72.0009 164.419 72.403 165.595 73.0626 166.629Z" fill="#FFB6B6"/>
<path d="M63.8525 113.304C63.8525 113.304 52.079 115.556 53.081 121.311C54.083 127.065 60.4077 150.517 60.4077 150.517L65.606 156.34L71.8685 151.836L66.608 130.819L63.8525 113.304V113.304Z" fill="#3693D1"/>
<path d="M341.938 118.11C341.475 117.33 339.472 118.165 339.104 117.457C338.737 116.752 340.598 115.678 341.661 113.224C341.853 112.781 343.061 109.992 342.167 109.131C340.471 107.5 332.713 114.232 329.998 112.029C329.402 111.545 328.986 110.58 327.183 109.013C326.465 108.39 326.031 108.108 325.612 108.213C325.016 108.361 324.969 109.158 324.33 110.724C323.372 113.072 322.805 112.93 322.247 114.804C321.833 116.195 321.927 117.003 321.44 117.161C320.75 117.384 320.115 115.908 319.24 116.041C318.348 116.175 317.808 117.893 317.638 119.179C317.318 121.593 318.206 123.185 318.697 124.86C319.232 126.679 319.549 129.447 318.315 133.365L306.099 167.745C308.796 160.69 316.605 141.351 319.886 134.165C320.833 132.09 321.879 129.986 324.027 129.156C326.094 128.356 328.934 128.833 332.554 127.962C332.977 127.861 334.15 127.562 334.298 126.873C334.42 126.303 333.73 125.985 333.836 125.451C333.978 124.736 335.335 124.727 337.003 123.901C338.179 123.318 338.911 122.626 339.541 122.03C339.731 121.851 342.555 119.148 341.938 118.11H341.938L341.938 118.11Z" fill="#E6E6E6"/>
<path d="M293.876 136.209C293.359 136.211 293.191 137.434 292.737 137.41C292.285 137.386 292.294 136.164 291.395 134.935C291.233 134.713 290.211 133.316 289.53 133.506C288.239 133.866 289.308 139.612 287.443 140.308C287.033 140.46 286.439 140.386 285.148 140.818C284.635 140.99 284.372 141.121 284.302 141.357C284.203 141.692 284.581 141.945 285.166 142.71C286.043 143.857 285.81 144.094 286.57 144.908C287.133 145.513 287.558 145.7 287.495 145.984C287.405 146.387 286.497 146.273 286.31 146.739C286.119 147.216 286.807 147.976 287.39 148.43C288.483 149.283 289.522 149.308 290.487 149.55C291.535 149.813 292.986 150.456 294.555 152.192L307.924 168.1C305.235 164.743 297.986 155.334 295.402 151.652C294.656 150.589 293.924 149.469 294.135 148.177C294.339 146.933 295.393 145.678 296.009 143.652C296.081 143.416 296.273 142.754 295.977 142.483C295.732 142.259 295.377 142.505 295.145 142.299C294.835 142.023 295.222 141.355 295.297 140.299C295.35 139.555 295.221 138.996 295.11 138.515C295.077 138.37 294.564 136.206 293.876 136.209V136.209Z" fill="#E6E6E6"/>
<path d="M304.185 138.52L303.874 135.744L304.016 135.534C304.675 134.56 305.01 133.61 305.014 132.708C305.015 132.565 305.008 132.421 305.001 132.275C304.974 131.696 304.941 130.976 305.317 130.137C305.527 129.669 306.119 128.586 307.009 128.72C307.248 128.754 307.43 128.864 307.567 128.992C307.587 128.96 307.608 128.928 307.63 128.893C307.907 128.471 308.127 128.29 308.338 128.116C308.501 127.982 308.668 127.843 308.931 127.516C309.047 127.373 309.137 127.247 309.212 127.141C309.443 126.821 309.743 126.439 310.273 126.445C310.84 126.472 311.136 126.94 311.333 127.25C311.684 127.802 311.843 128.2 311.948 128.464C311.986 128.561 312.03 128.669 312.052 128.703C312.235 128.971 313.718 128.72 314.277 128.629C315.532 128.42 316.619 128.239 317.066 129.03C317.387 129.595 317.149 130.343 316.337 131.313C316.084 131.614 315.815 131.843 315.576 132.023C315.774 132.141 315.951 132.322 316.023 132.606C316.192 133.279 315.613 133.953 314.303 134.613C313.977 134.778 313.539 134.997 312.925 135.103C312.636 135.153 312.375 135.165 312.153 135.172C312.148 135.3 312.118 135.44 312.039 135.583C311.809 136.005 311.33 136.207 310.608 136.158C309.814 136.117 309.159 135.965 308.582 135.833C308.078 135.717 307.644 135.619 307.303 135.642C306.671 135.693 306.184 136.198 305.613 136.854L304.185 138.52H304.185V138.52Z" fill="#E6E6E6"/>
<path d="M305.63 121.992L303.02 122.997L302.78 122.913C301.671 122.523 300.666 122.44 299.791 122.665C299.652 122.701 299.515 122.744 299.375 122.787C298.821 122.96 298.132 123.175 297.224 123.025C296.718 122.94 295.519 122.643 295.423 121.749C295.395 121.509 295.455 121.306 295.545 121.141C295.509 121.13 295.472 121.118 295.433 121.105C294.954 120.944 294.723 120.778 294.5 120.618C294.33 120.495 294.153 120.368 293.77 120.197C293.602 120.122 293.457 120.067 293.335 120.021C292.966 119.88 292.52 119.686 292.392 119.172C292.275 118.618 292.652 118.213 292.902 117.945C293.348 117.465 293.693 117.211 293.922 117.042C294.006 116.981 294.1 116.911 294.127 116.881C294.34 116.637 293.721 115.267 293.491 114.75C292.97 113.59 292.52 112.586 293.172 111.953C293.638 111.5 294.423 111.54 295.568 112.079C295.924 112.247 296.214 112.449 296.449 112.634C296.513 112.413 296.643 112.196 296.9 112.054C297.509 111.72 298.308 112.109 299.28 113.208C299.522 113.48 299.846 113.848 300.104 114.414C300.225 114.681 300.303 114.929 300.366 115.143C300.492 115.115 300.635 115.109 300.793 115.148C301.261 115.263 301.577 115.675 301.713 116.385C301.875 117.163 301.894 117.834 301.912 118.425C301.928 118.941 301.943 119.385 302.052 119.709C302.261 120.307 302.874 120.649 303.654 121.035L305.63 121.992L305.63 121.992Z" fill="#E6E6E6"/>
<path d="M304.185 113.813L303.874 111.037L304.016 110.827C304.675 109.853 305.01 108.903 305.014 108.001C305.015 107.857 305.008 107.714 305.001 107.568C304.974 106.989 304.941 106.269 305.317 105.43C305.527 104.962 306.119 103.879 307.009 104.013C307.248 104.047 307.43 104.157 307.567 104.285C307.587 104.253 307.608 104.221 307.63 104.186C307.907 103.764 308.127 103.583 308.338 103.409C308.501 103.275 308.668 103.136 308.931 102.809C309.047 102.666 309.137 102.54 309.212 102.434C309.443 102.114 309.743 101.732 310.273 101.738C310.84 101.765 311.136 102.233 311.333 102.543C311.684 103.095 311.843 103.493 311.948 103.757C311.986 103.854 312.03 103.962 312.052 103.996C312.235 104.264 313.718 104.013 314.277 103.922C315.532 103.713 316.619 103.532 317.066 104.323C317.387 104.888 317.149 105.636 316.337 106.606C316.084 106.907 315.815 107.136 315.576 107.316C315.774 107.434 315.951 107.615 316.023 107.899C316.192 108.572 315.613 109.246 314.303 109.906C313.977 110.071 313.539 110.29 312.925 110.396C312.636 110.446 312.375 110.458 312.153 110.465C312.148 110.593 312.118 110.733 312.039 110.876C311.809 111.298 311.33 111.499 310.608 111.451C309.814 111.41 309.159 111.258 308.582 111.126C308.078 111.01 307.644 110.912 307.303 110.935C306.671 110.986 306.184 111.491 305.613 112.147L304.185 113.813H304.185V113.813Z" fill="#E6E6E6"/>
<path d="M307.028 167.699L306.446 167.335L306.305 166.663L306.446 167.335L305.767 167.412C305.756 167.349 305.719 167.205 305.664 166.978C305.36 165.737 304.433 161.959 303.66 156.011C303.12 151.858 302.815 147.589 302.752 143.319C302.689 139.043 302.892 135.806 303.054 133.204C303.177 131.242 303.326 129.373 303.472 127.553C303.861 122.69 304.228 118.096 303.955 113.011C303.895 111.875 303.768 109.512 302.386 106.997C301.584 105.539 300.479 104.244 299.103 103.15L299.959 102.075C301.479 103.284 302.7 104.719 303.591 106.338C305.123 109.126 305.262 111.701 305.328 112.938C305.606 118.114 305.235 122.752 304.842 127.662C304.697 129.475 304.548 131.336 304.425 133.29C304.264 135.868 304.064 139.077 304.126 143.298C304.188 147.516 304.49 151.733 305.022 155.834C305.786 161.707 306.699 165.429 306.999 166.651C307.158 167.304 307.192 167.441 307.028 167.699V167.699Z" fill="#E6E6E6"/>
<path d="M296.583 105.331C296.527 105.331 296.47 105.33 296.412 105.326C295.242 105.263 294.158 104.563 293.19 103.247C292.737 102.627 292.505 101.921 292.042 100.512C291.97 100.295 291.621 99.1932 291.409 97.6771C291.27 96.6865 291.288 96.2724 291.484 95.9064C291.702 95.4989 292.055 95.2147 292.452 95.0231C292.435 94.8917 292.449 94.7563 292.506 94.6182C292.74 94.0459 293.363 94.1209 293.7 94.1571C293.87 94.1786 294.083 94.2067 294.312 94.1947C294.673 94.1772 294.867 94.07 295.161 93.9091C295.442 93.755 295.792 93.5633 296.311 93.4574C297.333 93.2443 298.19 93.5338 298.472 93.629C299.959 94.1236 300.691 95.2777 301.54 96.6141C301.709 96.8822 302.289 97.8581 302.672 99.1958C302.949 100.161 302.91 100.59 302.827 100.909C302.657 101.564 302.258 101.94 301.244 102.768C300.186 103.635 299.654 104.07 299.198 104.334C298.136 104.946 297.469 105.331 296.583 105.331V105.331V105.331Z" fill="#E6E6E6"/>
<path d="M257.819 117.358H149.995C145.654 117.358 142.123 113.831 142.123 109.495V28.0553C142.123 23.7199 145.654 20.1924 149.995 20.1924H257.819C262.16 20.1924 265.691 23.7199 265.691 28.0553V109.495C265.691 113.831 262.16 117.358 257.819 117.358H257.819Z" fill="white"/>
<path d="M257.819 117.358H149.995C145.654 117.358 142.123 113.831 142.123 109.495V28.0553C142.123 23.7199 145.654 20.1924 149.995 20.1924H257.819C262.16 20.1924 265.691 23.7199 265.691 28.0553V109.495C265.691 113.831 262.16 117.358 257.819 117.358H257.819ZM149.995 21.5054C146.379 21.5054 143.438 24.4438 143.438 28.0553V109.495C143.438 113.107 146.379 116.045 149.995 116.045H257.819C261.435 116.045 264.377 113.107 264.377 109.495V28.0553C264.377 24.4438 261.435 21.5054 257.819 21.5054H149.995Z" fill="#3F3D56"/>
<path d="M245.973 30.0407C247.062 30.0407 247.945 29.1589 247.945 28.0711C247.945 26.9834 247.062 26.1016 245.973 26.1016C244.884 26.1016 244.001 26.9834 244.001 28.0711C244.001 29.1589 244.884 30.0407 245.973 30.0407Z" fill="#3F3D56"/>
<path d="M251.231 30.0407C252.32 30.0407 253.202 29.1589 253.202 28.0711C253.202 26.9834 252.32 26.1016 251.231 26.1016C250.142 26.1016 249.259 26.9834 249.259 28.0711C249.259 29.1589 250.142 30.0407 251.231 30.0407Z" fill="#3F3D56"/>
<path d="M256.489 30.0407C257.578 30.0407 258.461 29.1589 258.461 28.0711C258.461 26.9834 257.578 26.1016 256.489 26.1016C255.4 26.1016 254.518 26.9834 254.518 28.0711C254.518 29.1589 255.4 30.0407 256.489 30.0407Z" fill="#3F3D56"/>
<path d="M153.296 59.9121C152.753 59.9121 152.311 60.3539 152.311 60.8969C152.311 61.1617 152.413 61.4066 152.599 61.5874C152.786 61.7791 153.032 61.8817 153.296 61.8817H255.174C255.718 61.8817 256.16 61.4399 256.16 60.8969C256.16 60.6321 256.058 60.3872 255.872 60.2064C255.685 60.0147 255.439 59.9121 255.174 59.9121H153.296Z" fill="#E6E6E6"/>
<path d="M236.771 59.584V62.2101H153.297C152.935 62.2101 152.607 62.0656 152.37 61.8227C152.127 61.5864 151.982 61.2581 151.982 60.897C151.982 60.1748 152.574 59.584 153.297 59.584H236.771Z" fill="#3693D1"/>
<path d="M253.531 54.6604H240.386C238.936 54.6604 237.757 53.4826 237.757 52.0343C237.757 50.586 238.936 49.4082 240.386 49.4082H253.531C254.981 49.4082 256.161 50.586 256.161 52.0343C256.161 53.4826 254.981 54.6604 253.531 54.6604Z" fill="#E6E6E6"/>
<path d="M167.428 40.8733H154.282C152.833 40.8733 151.653 39.6955 151.653 38.2472C151.653 36.7989 152.833 35.6211 154.282 35.6211H167.428C168.878 35.6211 170.057 36.7989 170.057 38.2472C170.057 39.6955 168.878 40.8733 167.428 40.8733Z" fill="#E6E6E6"/>
<path d="M153.296 89.4561C152.753 89.4561 152.311 89.8978 152.311 90.4408C152.311 90.7056 152.413 90.9505 152.599 91.1313C152.786 91.323 153.032 91.4256 153.296 91.4256H255.174C255.718 91.4256 256.16 90.9839 256.16 90.4408C256.16 90.1761 256.058 89.9311 255.872 89.7503C255.685 89.5586 255.439 89.4561 255.174 89.4561H153.296Z" fill="#E6E6E6"/>
<path d="M186.161 89.1279V91.754H153.297C152.935 91.754 152.607 91.6096 152.37 91.3667C152.127 91.1303 151.982 90.8021 151.982 90.441C151.982 89.7188 152.574 89.1279 153.297 89.1279H186.161Z" fill="#3693D1"/>
<path d="M253.531 84.2034H240.386C238.936 84.2034 237.757 83.0256 237.757 81.5773C237.757 80.129 238.936 78.9512 240.386 78.9512H253.531C254.981 78.9512 256.161 80.129 256.161 81.5773C256.161 83.0256 254.981 84.2034 253.531 84.2034Z" fill="#E6E6E6"/>
<path d="M129.921 126.676C128.136 126.197 126.57 126.2 125.193 126.701C123.718 127.2 122.805 128.198 122.413 129.658C122.022 131.119 122.35 132.399 123.42 133.506C123.832 133.914 124.983 134.72 126.849 135.915C128.531 136.962 129.498 137.619 129.779 137.868C130.663 138.652 131.009 139.49 130.773 140.371C130.587 141.066 130.073 141.5 129.266 141.731C128.465 141.939 127.435 141.887 126.23 141.564C124.862 141.197 123.934 140.675 123.409 140.037C122.833 139.312 122.635 138.29 122.785 136.988L120.096 136.267C119.646 138.408 120.001 140.143 121.131 141.489C122.056 142.582 123.55 143.405 125.59 143.951C127.7 144.517 129.464 144.517 130.846 143.993C132.235 143.446 133.132 142.419 133.529 140.935C133.939 139.405 133.537 138.031 132.33 136.788C131.78 136.243 130.492 135.301 128.43 134.003C127.03 133.107 126.173 132.504 125.875 132.225C125.198 131.597 124.983 130.918 125.169 130.223C125.38 129.434 125.86 128.942 126.649 128.78C127.286 128.628 128.111 128.7 129.155 128.98C130.36 129.303 131.231 129.76 131.71 130.385C132.195 130.987 132.436 131.847 132.395 132.929L135.084 133.65C135.406 131.798 135.094 130.273 134.165 129.105C133.293 128.001 131.868 127.197 129.921 126.676ZM139.092 129.481L134.657 146.033L140.708 147.654C143.397 148.375 145.612 148.173 147.401 147.062C149.101 146.002 150.314 144.166 151.016 141.546C151.724 138.903 151.592 136.706 150.643 134.961C149.65 133.105 147.832 131.823 145.143 131.102L139.092 129.481ZM141.183 132.526L144.012 133.284C146.075 133.837 147.457 134.704 148.153 135.909C148.832 137.085 148.886 138.739 148.327 140.826C147.78 142.866 146.913 144.248 145.724 144.973C144.519 145.669 142.882 145.752 140.819 145.199L137.991 144.442L141.183 132.526ZM166.186 136.741L156.396 142.491L158.489 134.678L155.777 133.952L151.342 150.504L154.054 151.23L155.582 145.528L158.127 144.098L162.609 153.523L166.271 154.504L160.437 142.803L169.617 137.66L166.186 136.741Z" fill="#3693D1"/>
</g>
<defs>
<clipPath id="clip0_564_95456">
<rect width="411" height="252" fill="white" transform="translate(0 0.943359)"/>
</clipPath>
</defs>
</svg>
