<svg width="20" height="20" viewBox="0 0 20 20" fill="none" xmlns="http://www.w3.org/2000/svg">
<mask id="path-1-inside-1_210_10106" fill="white">
<path fill-rule="evenodd" clip-rule="evenodd" d="M7.18125 8.51211C7.18124 8.5121 7.18122 8.51209 7.18121 8.51211C5.19861 10.2602 4.47707 12.6818 5.56962 13.9209C6.66217 15.16 9.15507 14.7475 11.1377 12.9994C11.1377 12.9994 11.1377 12.9993 11.1377 12.9993L7.18125 8.51211Z"/>
</mask>
<path d="M6.3197 13.2596C6.08373 12.9919 5.94569 12.4813 6.1806 11.6929C6.41076 10.9204 6.96935 10.0321 7.84256 9.26218L6.51986 7.76203C5.41047 8.74019 4.61699 9.93668 4.26387 11.1218C3.9155 12.291 3.96296 13.6108 4.81954 14.5823L6.3197 13.2596ZM10.4763 12.2493C9.60311 13.0192 8.6518 13.4622 7.85659 13.5938C7.04498 13.7281 6.55566 13.5272 6.3197 13.2596L4.81954 14.5823C5.67612 15.5538 6.97953 15.7661 8.18316 15.5669C9.40319 15.365 10.6896 14.7276 11.799 13.7495L10.4763 12.2493ZM11.8878 12.338L7.93133 7.85076L6.43118 9.17346L10.3876 13.6607L11.8878 12.338ZM11.799 13.7495C12.2133 13.3842 12.253 12.7523 11.8878 12.338L10.3876 13.6607C10.0224 13.2464 10.0621 12.6145 10.4763 12.2493L11.799 13.7495ZM7.84256 9.26218C7.42393 9.63129 6.79254 9.5833 6.43118 9.17346L7.93133 7.85076C7.56995 7.44089 6.93851 7.3929 6.51986 7.76203L7.84256 9.26218Z" fill="#061926" mask="url(#path-1-inside-1_210_10106)"/>
<mask id="path-3-inside-2_210_10106" fill="white">
<path fill-rule="evenodd" clip-rule="evenodd" d="M12.8392 11.4703C12.8392 11.4703 12.8393 11.4703 12.8393 11.4703C14.8219 9.72224 15.5434 7.30063 14.4509 6.06151C13.3583 4.82238 10.8654 5.23497 8.88284 6.98304C8.88281 6.98307 8.8828 6.98311 8.88283 6.98314L12.8392 11.4703Z"/>
</mask>
<path d="M13.7008 6.72286C13.9368 6.99048 14.0748 7.50111 13.8399 8.28951C13.6097 9.06197 13.0512 9.95032 12.1779 10.7202L13.5006 12.2204C14.61 11.2422 15.4035 10.0457 15.7566 8.86061C16.105 7.6914 16.0575 6.37166 15.201 5.40016L13.7008 6.72286ZM9.54419 7.73312C10.4174 6.9632 11.3687 6.52026 12.1639 6.38865C12.9755 6.25433 13.4648 6.45523 13.7008 6.72286L15.201 5.40016C14.3444 4.42866 13.041 4.21629 11.8374 4.41549C10.6173 4.61741 9.33088 5.2548 8.22149 6.23296L9.54419 7.73312ZM8.13275 7.64449L12.0891 12.1317L13.5893 10.809L9.63291 6.32179L8.13275 7.64449ZM8.22149 6.23296C7.8072 6.59825 7.76748 7.23021 8.13275 7.64449L9.63291 6.32179C9.99813 6.73601 9.95842 7.36789 9.54419 7.73312L8.22149 6.23296ZM12.1779 10.7202C12.591 10.3561 13.223 10.3935 13.5893 10.809L12.0891 12.1317C12.4555 12.5471 13.0876 12.5846 13.5006 12.2204L12.1779 10.7202Z" fill="#061926" mask="url(#path-3-inside-2_210_10106)"/>
<path d="M9.53223 11.8545L10.8784 10.6676" stroke="#061926" stroke-linecap="round"/>
<path d="M8.09863 10.2285L9.44482 9.04158" stroke="#061926" stroke-linecap="round"/>
<path d="M5.77349 13.4281C3.50816 14.4044 6.08356 17.183 2.85984 17.4371" stroke="#061926" stroke-linecap="round"/>
<path d="M14.0175 6.33413C16.2829 5.35783 13.7075 2.57924 16.9312 2.32514" stroke="#061926" stroke-linecap="round"/>
</svg>
