<svg width="21" height="20" viewBox="0 0 21 20" fill="none" xmlns="http://www.w3.org/2000/svg">
<mask id="path-1-inside-1_217_61328" fill="white">
<path fill-rule="evenodd" clip-rule="evenodd" d="M7.66661 8.51211C7.66659 8.5121 7.66657 8.51209 7.66656 8.51211C5.68396 10.2602 4.96243 12.6818 6.05497 13.9209C7.14752 15.16 9.64042 14.7475 11.623 12.9994C11.623 12.9994 11.623 12.9993 11.623 12.9993L7.66661 8.51211Z"/>
</mask>
<path d="M7.18009 12.9289C7.09928 12.8372 6.93859 12.5289 7.14513 11.8357C7.34455 11.1664 7.84442 10.3551 8.65858 9.63722L6.67454 7.38699C5.5061 8.41721 4.6539 9.69074 4.27004 10.979C3.8933 12.2434 3.91812 13.7655 4.92985 14.9129L7.18009 12.9289ZM10.631 11.8743C9.81683 12.5921 8.94931 12.9864 8.2603 13.1005C7.5467 13.2186 7.2609 13.0205 7.18009 12.9289L4.92985 14.9129C5.94159 16.0604 7.44851 16.2756 8.75015 16.0602C10.0764 15.8407 11.4466 15.1547 12.615 14.1245L10.631 11.8743ZM12.7481 12.0073L8.79172 7.52009L6.54149 9.50413L10.4979 13.9914L12.7481 12.0073ZM12.615 14.1245C13.2364 13.5766 13.296 12.6287 12.7481 12.0073L10.4979 13.9914C9.95004 13.37 10.0096 12.4221 10.631 11.8743L12.615 14.1245ZM8.65858 9.63722C8.03064 10.1909 7.08354 10.1189 6.54149 9.50413L8.79172 7.52009C8.24965 6.90528 7.30251 6.8333 6.67454 7.38699L8.65858 9.63722Z" fill="white" mask="url(#path-1-inside-1_217_61328)"/>
<mask id="path-3-inside-2_217_61328" fill="white">
<path fill-rule="evenodd" clip-rule="evenodd" d="M13.3246 11.4703C13.3246 11.4703 13.3246 11.4703 13.3246 11.4703C15.3073 9.72224 16.0288 7.30063 14.9362 6.06151C13.8437 4.82238 11.3508 5.23497 9.36819 6.98304C9.36816 6.98307 9.36816 6.98311 9.36818 6.98314L13.3246 11.4703Z"/>
</mask>
<path d="M9.36818 6.98314L10.4933 5.99112L9.36818 6.98314ZM13.3246 11.4703L12.1994 12.4623L13.3246 11.4703ZM13.8111 7.05353C13.8919 7.14518 14.0526 7.45354 13.8461 8.14673C13.6467 8.81603 13.1468 9.62734 12.3326 10.3452L14.3167 12.5954C15.4851 11.5652 16.3373 10.2917 16.7212 9.00338C17.0979 7.73897 17.0731 6.21696 16.0614 5.06948L13.8111 7.05353ZM10.3602 8.10816C11.1744 7.3903 12.0419 6.99598 12.7309 6.88194C13.4445 6.76384 13.7303 6.96188 13.8111 7.05353L16.0614 5.06948C15.0496 3.92201 13.5427 3.70678 12.2411 3.9222C10.9148 4.1417 9.5446 4.82771 8.37616 5.85792L10.3602 8.10816ZM8.24306 7.97516L12.1994 12.4623L14.4497 10.4783L10.4933 5.99112L8.24306 7.97516ZM8.37616 5.85792C7.75474 6.40583 7.69517 7.35376 8.24306 7.97516L10.4933 5.99112C11.0411 6.61246 10.9816 7.5603 10.3602 8.10816L8.37616 5.85792ZM12.3326 10.3452C12.9522 9.79893 13.9002 9.85513 14.4497 10.4783L12.1994 12.4623C12.7489 13.0855 13.6971 13.1418 14.3167 12.5954L12.3326 10.3452Z" fill="white" mask="url(#path-3-inside-2_217_61328)"/>
<path d="M10.0176 11.8545L11.3638 10.6676" stroke="white" stroke-width="1.5" stroke-linecap="round"/>
<path d="M8.58398 10.2285L9.93017 9.04158" stroke="white" stroke-width="1.5" stroke-linecap="round"/>
<path d="M6.25884 13.4281C3.99351 14.4044 6.56891 17.183 3.34519 17.4371" stroke="white" stroke-width="1.5" stroke-linecap="round"/>
<path d="M14.5029 6.33413C16.7682 5.35783 14.1928 2.57924 17.4165 2.32514" stroke="white" stroke-width="1.5" stroke-linecap="round"/>
</svg>
