<svg width="18" height="19" viewBox="0 0 18 19" fill="none" xmlns="http://www.w3.org/2000/svg">
<path d="M14.3059 16.4598C12.8059 17.8598 10.7059 18.7598 8.50586 18.7598C6.30586 18.7598 4.20586 17.8598 2.70586 16.4598C3.00586 16.2598 3.30586 16.0598 3.50586 15.8598C4.80586 17.0598 6.60586 17.7598 8.50586 17.7598C10.4059 17.7598 12.2059 17.0598 13.5059 15.8598C13.8059 16.0598 14.0059 16.2598 14.3059 16.4598ZM16.8059 12.1598C16.5059 11.9598 16.2059 11.8598 15.8059 11.8598C15.9059 11.3598 16.0059 10.8598 16.0059 10.3598C16.0059 7.05976 13.8059 4.25977 10.8059 3.25977C10.9059 2.85977 11.0059 2.55977 11.0059 2.25977V2.15977C14.5059 3.25977 17.0059 6.45977 17.0059 10.2598C17.0059 10.8598 16.9059 11.5598 16.8059 12.1598ZM0.205859 12.1598C0.105859 11.5598 0.00585938 10.8598 0.00585938 10.2598C0.00585938 6.45977 2.50586 3.15977 6.00586 2.15977V2.25977C6.00586 2.55977 6.10586 2.85977 6.20586 3.15977C3.20586 4.15977 1.00586 6.95976 1.00586 10.2598C1.00586 10.7598 1.10586 11.2598 1.20586 11.7598C0.805859 11.8598 0.505859 11.9598 0.205859 12.1598ZM8.50586 3.75977C7.70586 3.75977 7.00586 3.05977 7.00586 2.25977C7.00586 1.45977 7.70586 0.759766 8.50586 0.759766C9.30586 0.759766 10.0059 1.45977 10.0059 2.25977C10.0059 3.05977 9.30586 3.75977 8.50586 3.75977ZM1.50586 15.7598C0.705859 15.7598 0.00585938 15.0598 0.00585938 14.2598C0.00585938 13.4598 0.705859 12.7598 1.50586 12.7598C2.30586 12.7598 3.00586 13.4598 3.00586 14.2598C3.00586 15.0598 2.30586 15.7598 1.50586 15.7598ZM15.5059 15.7598C14.7059 15.7598 14.0059 15.0598 14.0059 14.2598C14.0059 13.4598 14.7059 12.7598 15.5059 12.7598C16.3059 12.7598 17.0059 13.4598 17.0059 14.2598C17.0059 15.0598 16.3059 15.7598 15.5059 15.7598Z" fill="#62B0E5"/>
</svg>
