<svg width="25" height="25" viewBox="0 0 25 25" fill="none" xmlns="http://www.w3.org/2000/svg">
<path d="M7.04355 15.2063V3.66797H5.96543V15.2063C4.68574 15.457 3.71777 16.5891 3.71777 17.9414C3.71777 19.2938 4.68574 20.4234 5.96543 20.6766V21.6609H7.04355V20.6766C8.32324 20.4258 9.29121 19.2938 9.29121 17.9414C9.29121 16.5867 8.32324 15.457 7.04355 15.2063ZM6.50449 19.65C5.5623 19.65 4.7959 18.8836 4.7959 17.9414C4.7959 16.9992 5.5623 16.2328 6.50449 16.2328C7.44668 16.2328 8.21309 16.9992 8.21309 17.9414C8.21309 18.8813 7.44668 19.65 6.50449 19.65ZM13.0436 9.90234V3.66797H11.9654V9.90938C10.6951 10.1695 9.73887 11.2945 9.73887 12.6398C9.73887 13.9852 10.6975 15.1102 11.9654 15.3703V21.6586H13.0436V15.3773C14.3326 15.1336 15.3123 13.9992 15.3123 12.6398C15.3123 11.2805 14.335 10.1461 13.0436 9.90234ZM12.5256 14.3484C11.5834 14.3484 10.817 13.582 10.817 12.6398C10.817 11.6977 11.5834 10.9313 12.5256 10.9313C13.4678 10.9313 14.2342 11.6977 14.2342 12.6398C14.2342 13.582 13.4678 14.3484 12.5256 14.3484ZM21.3029 7.41328C21.3029 6.05859 20.3303 4.92422 19.0459 4.67812V3.67266H17.9678V4.68281C16.6928 4.93828 15.7295 6.06563 15.7295 7.41563C15.7295 8.76562 16.6928 9.89297 17.9678 10.1484V21.6656H19.0459V10.1531C20.3279 9.90234 21.3029 8.77031 21.3029 7.41328ZM18.5139 9.12422C17.5717 9.12422 16.8053 8.35781 16.8053 7.41563C16.8053 6.47344 17.5717 5.70703 18.5139 5.70703C19.4561 5.70703 20.2225 6.47344 20.2225 7.41563C20.2248 8.35781 19.4561 9.12422 18.5139 9.12422Z" fill="#62B0E5"/>
</svg>
