<svg width="24" height="25" viewBox="0 0 24 25" fill="none" xmlns="http://www.w3.org/2000/svg">
<g clip-path="url(#clip0_880_9484)">
<path d="M5.62249 21.3796C7.37396 22.5499 9.43314 23.1745 11.5396 23.1745C11.706 23.1745 11.8655 23.1085 11.9832 22.9908C12.1008 22.8732 12.1669 22.7136 12.1669 22.5473C12.1669 22.3809 12.1008 22.2213 11.9832 22.1037C11.8655 21.986 11.706 21.92 11.5396 21.92C9.68128 21.92 7.86466 21.3689 6.31951 20.3364C4.77435 19.304 3.57005 17.8366 2.85889 16.1197C2.14773 14.4028 1.96166 12.5136 2.3242 10.6909C2.68675 8.8683 3.58163 7.1941 4.89567 5.88005C6.20972 4.566 7.88392 3.67112 9.70656 3.30858C11.5292 2.94603 13.4184 3.1321 15.1353 3.84326C16.8522 4.55442 18.3196 5.75872 19.3521 7.30388C20.3845 8.84904 20.9356 10.6657 20.9356 12.524C20.9356 12.6904 21.0017 12.8499 21.1193 12.9676C21.2369 13.0852 21.3965 13.1513 21.5629 13.1513C21.7292 13.1513 21.8888 13.0852 22.0064 12.9676C22.1241 12.8499 22.1902 12.6904 22.1902 12.524C22.1902 10.4175 21.5655 8.35834 20.3952 6.60686C19.2249 4.85539 17.5615 3.49028 15.6154 2.68417C13.6693 1.87805 11.5278 1.66714 9.4618 2.07809C7.3958 2.48904 5.49805 3.50341 4.00854 4.99292C2.51904 6.48242 1.50467 8.38017 1.09371 10.4462C0.682761 12.5122 0.893677 14.6537 1.69979 16.5998C2.50591 18.5459 3.87102 20.2093 5.62249 21.3796Z" fill="#061926" stroke="#061926" stroke-width="0.3"/>
<path d="M15.7574 18.6054L15.7574 18.6053C15.8466 18.4904 15.9729 18.41 16.1148 18.378C16.2567 18.346 16.4053 18.3642 16.5353 18.4297L19.4288 19.8867L20.978 16.1342L20.978 16.1342C21.0095 16.058 21.0557 15.9887 21.114 15.9304C21.1722 15.8721 21.2414 15.8258 21.3176 15.7942C21.3937 15.7626 21.4753 15.7463 21.5578 15.7463C21.6402 15.7462 21.7219 15.7624 21.798 15.7939C21.8742 15.8254 21.9434 15.8716 22.0018 15.9299C22.0601 15.9881 22.1064 16.0573 22.138 16.1335C22.1696 16.2096 22.1859 16.2912 22.1859 16.3737C22.186 16.4561 22.1698 16.5377 22.1383 16.6139C22.1383 16.6139 22.1383 16.6139 22.1383 16.6139L20.3317 20.9883L20.3312 20.9897C20.2975 21.0689 20.2479 21.1404 20.1855 21.1996C20.123 21.2589 20.049 21.3046 19.9681 21.3341C19.8872 21.3635 19.8011 21.3759 19.7152 21.3706C19.6294 21.3654 19.5457 21.3425 19.4692 21.3036C19.469 21.3035 19.4688 21.3034 19.4686 21.3033L16.4321 19.7816L13.9955 22.9262C13.9953 22.9264 13.9952 22.9266 13.995 22.9268C13.9366 23.0034 13.8614 23.0656 13.7751 23.1085C13.6886 23.1514 13.5934 23.1739 13.4968 23.174C13.4968 23.174 13.4968 23.174 13.4968 23.174L15.7574 18.6054ZM15.7574 18.6054L13.0012 22.1609C13.0012 22.161 13.0011 22.161 13.0011 22.1611L15.7574 18.6054ZM10.9124 13.0025L10.9141 13.1507H11.0624H18.4318C18.5982 13.1507 18.7578 13.0846 18.8754 12.967C18.9931 12.8494 19.0591 12.6898 19.0591 12.5234C19.0591 12.3571 18.9931 12.1975 18.8754 12.0799C18.7578 11.9622 18.5982 11.8961 18.4318 11.8961H12.165L12.0763 5.19108C12.076 5.02509 12.0099 4.86597 11.8925 4.74858C11.7749 4.63093 11.6153 4.56484 11.449 4.56484C11.2826 4.56484 11.1231 4.63093 11.0054 4.74858C10.8878 4.86622 10.8217 5.02577 10.8217 5.19214H10.8217L10.8217 5.19388L10.9124 13.0025Z" fill="#061926" stroke="#061926" stroke-width="0.3"/>
</g>
<defs>
<clipPath id="clip0_880_9484">
<rect width="24" height="24" fill="white" transform="translate(0 0.759766)"/>
</clipPath>
</defs>
</svg>
